<?xml version="1.0" encoding="utf-8" standalone="no"?>
<!DOCTYPE svg PUBLIC "-//W3C//DTD SVG 1.1//EN"
  "http://www.w3.org/Graphics/SVG/1.1/DTD/svg11.dtd">
<svg xmlns:xlink="http://www.w3.org/1999/xlink" width="201.6pt" height="216pt" viewBox="0 0 201.6 216" xmlns="http://www.w3.org/2000/svg" version="1.1">
 <metadata>
  <rdf:RDF xmlns:dc="http://purl.org/dc/elements/1.1/" xmlns:cc="http://creativecommons.org/ns#" xmlns:rdf="http://www.w3.org/1999/02/22-rdf-syntax-ns#">
   <cc:Work>
    <dc:type rdf:resource="http://purl.org/dc/dcmitype/StillImage"/>
    <dc:date>2023-11-29T16:01:39.037808</dc:date>
    <dc:format>image/svg+xml</dc:format>
    <dc:creator>
     <cc:Agent>
      <dc:title>Matplotlib v3.7.1, https://matplotlib.org/</dc:title>
     </cc:Agent>
    </dc:creator>
   </cc:Work>
  </rdf:RDF>
 </metadata>
 <defs>
  <style type="text/css">*{stroke-linejoin: round; stroke-linecap: butt}</style>
 </defs>
 <g id="figure_1">
  <g id="patch_1">
   <path d="M 0 216 
L 201.6 216 
L 201.6 0 
L 0 0 
z
" style="fill: #ffffff"/>
  </g>
  <g id="axes_1">
   <g id="patch_2">
    <path d="M 52.802 90.73 
L 189.936818 90.73 
L 189.936818 10.8 
L 52.802 10.8 
z
" style="fill: #ffffff"/>
   </g>
   <g id="matplotlib.axis_1">
    <g id="xtick_1">
     <g id="line2d_1">
      <defs>
       <path id="m0677c9cd20" d="M 0 0 
L 0 3.5 
" style="stroke: #000000; stroke-width: 0.8"/>
      </defs>
      <g>
       <use xlink:href="#m0677c9cd20" x="59.035401" y="90.73" style="stroke: #000000; stroke-width: 0.8"/>
      </g>
     </g>
    </g>
    <g id="xtick_2">
     <g id="line2d_2">
      <g>
       <use xlink:href="#m0677c9cd20" x="100.591406" y="90.73" style="stroke: #000000; stroke-width: 0.8"/>
      </g>
     </g>
    </g>
    <g id="xtick_3">
     <g id="line2d_3">
      <g>
       <use xlink:href="#m0677c9cd20" x="142.147412" y="90.73" style="stroke: #000000; stroke-width: 0.8"/>
      </g>
     </g>
    </g>
    <g id="xtick_4">
     <g id="line2d_4">
      <g>
       <use xlink:href="#m0677c9cd20" x="183.703417" y="90.73" style="stroke: #000000; stroke-width: 0.8"/>
      </g>
     </g>
    </g>
   </g>
   <g id="matplotlib.axis_2">
    <g id="ytick_1">
     <g id="line2d_5">
      <defs>
       <path id="mee5e9749db" d="M 0 0 
L -3.5 0 
" style="stroke: #000000; stroke-width: 0.8"/>
      </defs>
      <g>
       <use xlink:href="#mee5e9749db" x="52.802" y="82.744338" style="stroke: #000000; stroke-width: 0.8"/>
      </g>
     </g>
     <g id="text_1">
      <!-- 0 -->
      <g transform="translate(39.4395 86.543557) scale(0.1 -0.1)">
       <defs>
        <path id="DejaVuSans-30" d="M 2034 4250 
Q 1547 4250 1301 3770 
Q 1056 3291 1056 2328 
Q 1056 1369 1301 889 
Q 1547 409 2034 409 
Q 2525 409 2770 889 
Q 3016 1369 3016 2328 
Q 3016 3291 2770 3770 
Q 2525 4250 2034 4250 
z
M 2034 4750 
Q 2819 4750 3233 4129 
Q 3647 3509 3647 2328 
Q 3647 1150 3233 529 
Q 2819 -91 2034 -91 
Q 1250 -91 836 529 
Q 422 1150 422 2328 
Q 422 3509 836 4129 
Q 1250 4750 2034 4750 
z
" transform="scale(0.015625)"/>
       </defs>
       <use xlink:href="#DejaVuSans-30"/>
      </g>
     </g>
    </g>
    <g id="ytick_2">
     <g id="line2d_6">
      <g>
       <use xlink:href="#mee5e9749db" x="52.802" y="54.310815" style="stroke: #000000; stroke-width: 0.8"/>
      </g>
     </g>
     <g id="text_2">
      <!-- 250 -->
      <g transform="translate(26.7145 58.110034) scale(0.1 -0.1)">
       <defs>
        <path id="DejaVuSans-32" d="M 1228 531 
L 3431 531 
L 3431 0 
L 469 0 
L 469 531 
Q 828 903 1448 1529 
Q 2069 2156 2228 2338 
Q 2531 2678 2651 2914 
Q 2772 3150 2772 3378 
Q 2772 3750 2511 3984 
Q 2250 4219 1831 4219 
Q 1534 4219 1204 4116 
Q 875 4013 500 3803 
L 500 4441 
Q 881 4594 1212 4672 
Q 1544 4750 1819 4750 
Q 2544 4750 2975 4387 
Q 3406 4025 3406 3419 
Q 3406 3131 3298 2873 
Q 3191 2616 2906 2266 
Q 2828 2175 2409 1742 
Q 1991 1309 1228 531 
z
" transform="scale(0.015625)"/>
        <path id="DejaVuSans-35" d="M 691 4666 
L 3169 4666 
L 3169 4134 
L 1269 4134 
L 1269 2991 
Q 1406 3038 1543 3061 
Q 1681 3084 1819 3084 
Q 2600 3084 3056 2656 
Q 3513 2228 3513 1497 
Q 3513 744 3044 326 
Q 2575 -91 1722 -91 
Q 1428 -91 1123 -41 
Q 819 9 494 109 
L 494 744 
Q 775 591 1075 516 
Q 1375 441 1709 441 
Q 2250 441 2565 725 
Q 2881 1009 2881 1497 
Q 2881 1984 2565 2268 
Q 2250 2553 1709 2553 
Q 1456 2553 1204 2497 
Q 953 2441 691 2322 
L 691 4666 
z
" transform="scale(0.015625)"/>
       </defs>
       <use xlink:href="#DejaVuSans-32"/>
       <use xlink:href="#DejaVuSans-35" x="63.623047"/>
       <use xlink:href="#DejaVuSans-30" x="127.246094"/>
      </g>
     </g>
    </g>
    <g id="ytick_3">
     <g id="line2d_7">
      <g>
       <use xlink:href="#mee5e9749db" x="52.802" y="25.877292" style="stroke: #000000; stroke-width: 0.8"/>
      </g>
     </g>
     <g id="text_3">
      <!-- 500 -->
      <g transform="translate(26.7145 29.676511) scale(0.1 -0.1)">
       <use xlink:href="#DejaVuSans-35"/>
       <use xlink:href="#DejaVuSans-30" x="63.623047"/>
       <use xlink:href="#DejaVuSans-30" x="127.246094"/>
      </g>
     </g>
    </g>
    <g id="text_4">
     <!-- $\langle a^\dag a\rangle$ -->
     <g transform="translate(23.634813 62.915) rotate(-90) scale(0.1 -0.1)">
      <defs>
       <path id="DejaVuSans-27e8" d="M 572 2006 
L 1453 4856 
L 1984 4856 
L 1103 2006 
L 1984 -844 
L 1453 -844 
L 572 2006 
z
" transform="scale(0.015625)"/>
       <path id="DejaVuSans-Oblique-61" d="M 3438 1997 
L 3047 0 
L 2472 0 
L 2578 531 
Q 2325 219 2001 64 
Q 1678 -91 1281 -91 
Q 834 -91 548 182 
Q 263 456 263 884 
Q 263 1497 752 1853 
Q 1241 2209 2100 2209 
L 2900 2209 
L 2931 2363 
Q 2938 2388 2941 2417 
Q 2944 2447 2944 2509 
Q 2944 2788 2717 2942 
Q 2491 3097 2081 3097 
Q 1800 3097 1504 3025 
Q 1209 2953 897 2809 
L 997 3341 
Q 1322 3463 1633 3523 
Q 1944 3584 2234 3584 
Q 2853 3584 3176 3315 
Q 3500 3047 3500 2534 
Q 3500 2431 3484 2292 
Q 3469 2153 3438 1997 
z
M 2816 1759 
L 2241 1759 
Q 1534 1759 1195 1570 
Q 856 1381 856 984 
Q 856 709 1029 553 
Q 1203 397 1509 397 
Q 1978 397 2328 733 
Q 2678 1069 2791 1631 
L 2816 1759 
z
" transform="scale(0.015625)"/>
       <path id="DejaVuSans-2020" d="M 1325 4666 
L 1875 4666 
L 1875 3353 
L 3022 3353 
L 3022 2875 
L 1875 2875 
L 1875 -616 
L 1325 -616 
L 1325 2875 
L 178 2875 
L 178 3353 
L 1325 3353 
L 1325 4666 
z
" transform="scale(0.015625)"/>
       <path id="DejaVuSans-27e9" d="M 1925 2006 
L 1044 -844 
L 513 -844 
L 1394 2006 
L 513 4856 
L 1044 4856 
L 1925 2006 
z
" transform="scale(0.015625)"/>
      </defs>
      <use xlink:href="#DejaVuSans-27e8" transform="translate(0 0.684375)"/>
      <use xlink:href="#DejaVuSans-Oblique-61" transform="translate(39.013672 0.684375)"/>
      <use xlink:href="#DejaVuSans-2020" transform="translate(104.942865 38.965625) scale(0.7)"/>
      <use xlink:href="#DejaVuSans-Oblique-61" transform="translate(142.67724 0.684375)"/>
      <use xlink:href="#DejaVuSans-27e9" transform="translate(203.956536 0.684375)"/>
     </g>
    </g>
   </g>
   <g id="LineCollection_1">
    <path d="M 59.035401 83.882004 
L 59.035401 80.460486 
" clip-path="url(#p5f14525220)" style="fill: none; stroke: #2ca02c; stroke-width: 1.5"/>
    <path d="M 63.191001 82.75477 
L 63.191001 82.073126 
" clip-path="url(#p5f14525220)" style="fill: none; stroke: #2ca02c; stroke-width: 1.5"/>
    <path d="M 67.346602 82.763182 
L 67.346602 82.129274 
" clip-path="url(#p5f14525220)" style="fill: none; stroke: #2ca02c; stroke-width: 1.5"/>
    <path d="M 71.502202 85.509904 
L 71.502202 78.733529 
" clip-path="url(#p5f14525220)" style="fill: none; stroke: #2ca02c; stroke-width: 1.5"/>
    <path d="M 75.657803 83.254484 
L 75.657803 81.452708 
" clip-path="url(#p5f14525220)" style="fill: none; stroke: #2ca02c; stroke-width: 1.5"/>
    <path d="M 79.813404 83.175944 
L 79.813404 81.436519 
" clip-path="url(#p5f14525220)" style="fill: none; stroke: #2ca02c; stroke-width: 1.5"/>
    <path d="M 83.969004 83.102889 
L 83.969004 81.403681 
" clip-path="url(#p5f14525220)" style="fill: none; stroke: #2ca02c; stroke-width: 1.5"/>
    <path d="M 88.124605 83.117714 
L 88.124605 81.403763 
" clip-path="url(#p5f14525220)" style="fill: none; stroke: #2ca02c; stroke-width: 1.5"/>
    <path d="M 92.280205 83.057718 
L 92.280205 81.604562 
" clip-path="url(#p5f14525220)" style="fill: none; stroke: #2ca02c; stroke-width: 1.5"/>
    <path d="M 96.435806 86.07051 
L 96.435806 77.195034 
" clip-path="url(#p5f14525220)" style="fill: none; stroke: #2ca02c; stroke-width: 1.5"/>
    <path d="M 100.591406 83.332672 
L 100.591406 81.241398 
" clip-path="url(#p5f14525220)" style="fill: none; stroke: #2ca02c; stroke-width: 1.5"/>
    <path d="M 104.747007 84.324487 
L 104.747007 79.644362 
" clip-path="url(#p5f14525220)" style="fill: none; stroke: #2ca02c; stroke-width: 1.5"/>
    <path d="M 108.902607 83.077613 
L 108.902607 81.493746 
" clip-path="url(#p5f14525220)" style="fill: none; stroke: #2ca02c; stroke-width: 1.5"/>
    <path d="M 113.058208 82.71874 
L 113.058208 81.672881 
" clip-path="url(#p5f14525220)" style="fill: none; stroke: #2ca02c; stroke-width: 1.5"/>
    <path d="M 117.213809 83.492068 
L 117.213809 80.3753 
" clip-path="url(#p5f14525220)" style="fill: none; stroke: #2ca02c; stroke-width: 1.5"/>
    <path d="M 121.369409 82.901163 
L 121.369409 81.258934 
" clip-path="url(#p5f14525220)" style="fill: none; stroke: #2ca02c; stroke-width: 1.5"/>
    <path d="M 125.52501 83.336856 
L 125.52501 80.2139 
" clip-path="url(#p5f14525220)" style="fill: none; stroke: #2ca02c; stroke-width: 1.5"/>
    <path d="M 129.68061 87.096818 
L 129.68061 70.57563 
" clip-path="url(#p5f14525220)" style="fill: none; stroke: #2ca02c; stroke-width: 1.5"/>
    <path d="M 133.836211 76.877195 
L 133.836211 62.033014 
" clip-path="url(#p5f14525220)" style="fill: none; stroke: #2ca02c; stroke-width: 1.5"/>
    <path d="M 137.991811 79.391612 
L 137.991811 60.126808 
" clip-path="url(#p5f14525220)" style="fill: none; stroke: #2ca02c; stroke-width: 1.5"/>
    <path d="M 142.147412 70.288624 
L 142.147412 53.238892 
" clip-path="url(#p5f14525220)" style="fill: none; stroke: #2ca02c; stroke-width: 1.5"/>
    <path d="M 146.303012 60.800335 
L 146.303012 48.9749 
" clip-path="url(#p5f14525220)" style="fill: none; stroke: #2ca02c; stroke-width: 1.5"/>
    <path d="M 150.458613 58.562954 
L 150.458613 46.438733 
" clip-path="url(#p5f14525220)" style="fill: none; stroke: #2ca02c; stroke-width: 1.5"/>
    <path d="M 154.614213 53.500863 
L 154.614213 40.502492 
" clip-path="url(#p5f14525220)" style="fill: none; stroke: #2ca02c; stroke-width: 1.5"/>
    <path d="M 158.769814 48.737118 
L 158.769814 34.97651 
" clip-path="url(#p5f14525220)" style="fill: none; stroke: #2ca02c; stroke-width: 1.5"/>
    <path d="M 162.925415 45.79421 
L 162.925415 33.300888 
" clip-path="url(#p5f14525220)" style="fill: none; stroke: #2ca02c; stroke-width: 1.5"/>
    <path d="M 167.081015 41.10137 
L 167.081015 27.178466 
" clip-path="url(#p5f14525220)" style="fill: none; stroke: #2ca02c; stroke-width: 1.5"/>
    <path d="M 171.236616 38.099295 
L 171.236616 24.870797 
" clip-path="url(#p5f14525220)" style="fill: none; stroke: #2ca02c; stroke-width: 1.5"/>
    <path d="M 175.392216 36.309945 
L 175.392216 21.61411 
" clip-path="url(#p5f14525220)" style="fill: none; stroke: #2ca02c; stroke-width: 1.5"/>
    <path d="M 179.547817 31.050703 
L 179.547817 15.744473 
" clip-path="url(#p5f14525220)" style="fill: none; stroke: #2ca02c; stroke-width: 1.5"/>
    <path d="M 183.703417 29.733219 
L 183.703417 14.433182 
" clip-path="url(#p5f14525220)" style="fill: none; stroke: #2ca02c; stroke-width: 1.5"/>
   </g>
   <g id="line2d_8">
    <defs>
     <path id="m33e53ce8c5" d="M 0 1 
C 0.265203 1 0.51958 0.894634 0.707107 0.707107 
C 0.894634 0.51958 1 0.265203 1 0 
C 1 -0.265203 0.894634 -0.51958 0.707107 -0.707107 
C 0.51958 -0.894634 0.265203 -1 0 -1 
C -0.265203 -1 -0.51958 -0.894634 -0.707107 -0.707107 
C -0.894634 -0.51958 -1 -0.265203 -1 0 
C -1 0.265203 -0.894634 0.51958 -0.707107 0.707107 
C -0.51958 0.894634 -0.265203 1 0 1 
z
" style="stroke: #2ca02c"/>
    </defs>
    <g clip-path="url(#p5f14525220)">
     <use xlink:href="#m33e53ce8c5" x="59.035401" y="82.171245" style="fill: #2ca02c; stroke: #2ca02c"/>
     <use xlink:href="#m33e53ce8c5" x="63.191001" y="82.413948" style="fill: #2ca02c; stroke: #2ca02c"/>
     <use xlink:href="#m33e53ce8c5" x="67.346602" y="82.446228" style="fill: #2ca02c; stroke: #2ca02c"/>
     <use xlink:href="#m33e53ce8c5" x="71.502202" y="82.121716" style="fill: #2ca02c; stroke: #2ca02c"/>
     <use xlink:href="#m33e53ce8c5" x="75.657803" y="82.353596" style="fill: #2ca02c; stroke: #2ca02c"/>
     <use xlink:href="#m33e53ce8c5" x="79.813404" y="82.306232" style="fill: #2ca02c; stroke: #2ca02c"/>
     <use xlink:href="#m33e53ce8c5" x="83.969004" y="82.253285" style="fill: #2ca02c; stroke: #2ca02c"/>
     <use xlink:href="#m33e53ce8c5" x="88.124605" y="82.260738" style="fill: #2ca02c; stroke: #2ca02c"/>
     <use xlink:href="#m33e53ce8c5" x="92.280205" y="82.33114" style="fill: #2ca02c; stroke: #2ca02c"/>
     <use xlink:href="#m33e53ce8c5" x="96.435806" y="81.632772" style="fill: #2ca02c; stroke: #2ca02c"/>
     <use xlink:href="#m33e53ce8c5" x="100.591406" y="82.287035" style="fill: #2ca02c; stroke: #2ca02c"/>
     <use xlink:href="#m33e53ce8c5" x="104.747007" y="81.984425" style="fill: #2ca02c; stroke: #2ca02c"/>
     <use xlink:href="#m33e53ce8c5" x="108.902607" y="82.28568" style="fill: #2ca02c; stroke: #2ca02c"/>
     <use xlink:href="#m33e53ce8c5" x="113.058208" y="82.195811" style="fill: #2ca02c; stroke: #2ca02c"/>
     <use xlink:href="#m33e53ce8c5" x="117.213809" y="81.933684" style="fill: #2ca02c; stroke: #2ca02c"/>
     <use xlink:href="#m33e53ce8c5" x="121.369409" y="82.080049" style="fill: #2ca02c; stroke: #2ca02c"/>
     <use xlink:href="#m33e53ce8c5" x="125.52501" y="81.775378" style="fill: #2ca02c; stroke: #2ca02c"/>
     <use xlink:href="#m33e53ce8c5" x="129.68061" y="78.836224" style="fill: #2ca02c; stroke: #2ca02c"/>
     <use xlink:href="#m33e53ce8c5" x="133.836211" y="69.455105" style="fill: #2ca02c; stroke: #2ca02c"/>
     <use xlink:href="#m33e53ce8c5" x="137.991811" y="69.75921" style="fill: #2ca02c; stroke: #2ca02c"/>
     <use xlink:href="#m33e53ce8c5" x="142.147412" y="61.763758" style="fill: #2ca02c; stroke: #2ca02c"/>
     <use xlink:href="#m33e53ce8c5" x="146.303012" y="54.887617" style="fill: #2ca02c; stroke: #2ca02c"/>
     <use xlink:href="#m33e53ce8c5" x="150.458613" y="52.500843" style="fill: #2ca02c; stroke: #2ca02c"/>
     <use xlink:href="#m33e53ce8c5" x="154.614213" y="47.001678" style="fill: #2ca02c; stroke: #2ca02c"/>
     <use xlink:href="#m33e53ce8c5" x="158.769814" y="41.856814" style="fill: #2ca02c; stroke: #2ca02c"/>
     <use xlink:href="#m33e53ce8c5" x="162.925415" y="39.547549" style="fill: #2ca02c; stroke: #2ca02c"/>
     <use xlink:href="#m33e53ce8c5" x="167.081015" y="34.139918" style="fill: #2ca02c; stroke: #2ca02c"/>
     <use xlink:href="#m33e53ce8c5" x="171.236616" y="31.485046" style="fill: #2ca02c; stroke: #2ca02c"/>
     <use xlink:href="#m33e53ce8c5" x="175.392216" y="28.962027" style="fill: #2ca02c; stroke: #2ca02c"/>
     <use xlink:href="#m33e53ce8c5" x="179.547817" y="23.397588" style="fill: #2ca02c; stroke: #2ca02c"/>
     <use xlink:href="#m33e53ce8c5" x="183.703417" y="22.0832" style="fill: #2ca02c; stroke: #2ca02c"/>
    </g>
   </g>
   <g id="patch_3">
    <path d="M 52.802 90.73 
L 52.802 10.8 
" style="fill: none; stroke: #000000; stroke-width: 0.8; stroke-linejoin: miter; stroke-linecap: square"/>
   </g>
   <g id="patch_4">
    <path d="M 189.936818 90.73 
L 189.936818 10.8 
" style="fill: none; stroke: #000000; stroke-width: 0.8; stroke-linejoin: miter; stroke-linecap: square"/>
   </g>
   <g id="patch_5">
    <path d="M 52.802 90.73 
L 189.936818 90.73 
" style="fill: none; stroke: #000000; stroke-width: 0.8; stroke-linejoin: miter; stroke-linecap: square"/>
   </g>
   <g id="patch_6">
    <path d="M 52.802 10.8 
L 189.936818 10.8 
" style="fill: none; stroke: #000000; stroke-width: 0.8; stroke-linejoin: miter; stroke-linecap: square"/>
   </g>
  </g>
  <g id="axes_2">
   <g id="patch_7">
    <path d="M 52.802 174.16 
L 189.936818 174.16 
L 189.936818 94.23 
L 52.802 94.23 
z
" style="fill: #ffffff"/>
   </g>
   <g id="matplotlib.axis_3">
    <g id="xtick_5">
     <g id="line2d_9">
      <g>
       <use xlink:href="#m0677c9cd20" x="59.035401" y="174.16" style="stroke: #000000; stroke-width: 0.8"/>
      </g>
     </g>
     <g id="text_5">
      <!-- 0.2 -->
      <g transform="translate(51.083838 188.758438) scale(0.1 -0.1)">
       <defs>
        <path id="DejaVuSans-2e" d="M 684 794 
L 1344 794 
L 1344 0 
L 684 0 
L 684 794 
z
" transform="scale(0.015625)"/>
       </defs>
       <use xlink:href="#DejaVuSans-30"/>
       <use xlink:href="#DejaVuSans-2e" x="63.623047"/>
       <use xlink:href="#DejaVuSans-32" x="95.410156"/>
      </g>
     </g>
    </g>
    <g id="xtick_6">
     <g id="line2d_10">
      <g>
       <use xlink:href="#m0677c9cd20" x="100.591406" y="174.16" style="stroke: #000000; stroke-width: 0.8"/>
      </g>
     </g>
     <g id="text_6">
      <!-- 0.3 -->
      <g transform="translate(92.639844 188.758438) scale(0.1 -0.1)">
       <defs>
        <path id="DejaVuSans-33" d="M 2597 2516 
Q 3050 2419 3304 2112 
Q 3559 1806 3559 1356 
Q 3559 666 3084 287 
Q 2609 -91 1734 -91 
Q 1441 -91 1130 -33 
Q 819 25 488 141 
L 488 750 
Q 750 597 1062 519 
Q 1375 441 1716 441 
Q 2309 441 2620 675 
Q 2931 909 2931 1356 
Q 2931 1769 2642 2001 
Q 2353 2234 1838 2234 
L 1294 2234 
L 1294 2753 
L 1863 2753 
Q 2328 2753 2575 2939 
Q 2822 3125 2822 3475 
Q 2822 3834 2567 4026 
Q 2313 4219 1838 4219 
Q 1578 4219 1281 4162 
Q 984 4106 628 3988 
L 628 4550 
Q 988 4650 1302 4700 
Q 1616 4750 1894 4750 
Q 2613 4750 3031 4423 
Q 3450 4097 3450 3541 
Q 3450 3153 3228 2886 
Q 3006 2619 2597 2516 
z
" transform="scale(0.015625)"/>
       </defs>
       <use xlink:href="#DejaVuSans-30"/>
       <use xlink:href="#DejaVuSans-2e" x="63.623047"/>
       <use xlink:href="#DejaVuSans-33" x="95.410156"/>
      </g>
     </g>
    </g>
    <g id="xtick_7">
     <g id="line2d_11">
      <g>
       <use xlink:href="#m0677c9cd20" x="142.147412" y="174.16" style="stroke: #000000; stroke-width: 0.8"/>
      </g>
     </g>
     <g id="text_7">
      <!-- 0.4 -->
      <g transform="translate(134.195849 188.758438) scale(0.1 -0.1)">
       <defs>
        <path id="DejaVuSans-34" d="M 2419 4116 
L 825 1625 
L 2419 1625 
L 2419 4116 
z
M 2253 4666 
L 3047 4666 
L 3047 1625 
L 3713 1625 
L 3713 1100 
L 3047 1100 
L 3047 0 
L 2419 0 
L 2419 1100 
L 313 1100 
L 313 1709 
L 2253 4666 
z
" transform="scale(0.015625)"/>
       </defs>
       <use xlink:href="#DejaVuSans-30"/>
       <use xlink:href="#DejaVuSans-2e" x="63.623047"/>
       <use xlink:href="#DejaVuSans-34" x="95.410156"/>
      </g>
     </g>
    </g>
    <g id="xtick_8">
     <g id="line2d_12">
      <g>
       <use xlink:href="#m0677c9cd20" x="183.703417" y="174.16" style="stroke: #000000; stroke-width: 0.8"/>
      </g>
     </g>
     <g id="text_8">
      <!-- 0.5 -->
      <g transform="translate(175.751855 188.758438) scale(0.1 -0.1)">
       <use xlink:href="#DejaVuSans-30"/>
       <use xlink:href="#DejaVuSans-2e" x="63.623047"/>
       <use xlink:href="#DejaVuSans-35" x="95.410156"/>
      </g>
     </g>
    </g>
    <g id="text_9">
     <!-- pump strength $\Omega$ (units of $\kappa$) -->
     <g transform="translate(50.069409 199.438125) scale(0.1 -0.1)">
      <defs>
       <path id="DejaVuSans-70" d="M 1159 525 
L 1159 -1331 
L 581 -1331 
L 581 3500 
L 1159 3500 
L 1159 2969 
Q 1341 3281 1617 3432 
Q 1894 3584 2278 3584 
Q 2916 3584 3314 3078 
Q 3713 2572 3713 1747 
Q 3713 922 3314 415 
Q 2916 -91 2278 -91 
Q 1894 -91 1617 61 
Q 1341 213 1159 525 
z
M 3116 1747 
Q 3116 2381 2855 2742 
Q 2594 3103 2138 3103 
Q 1681 3103 1420 2742 
Q 1159 2381 1159 1747 
Q 1159 1113 1420 752 
Q 1681 391 2138 391 
Q 2594 391 2855 752 
Q 3116 1113 3116 1747 
z
" transform="scale(0.015625)"/>
       <path id="DejaVuSans-75" d="M 544 1381 
L 544 3500 
L 1119 3500 
L 1119 1403 
Q 1119 906 1312 657 
Q 1506 409 1894 409 
Q 2359 409 2629 706 
Q 2900 1003 2900 1516 
L 2900 3500 
L 3475 3500 
L 3475 0 
L 2900 0 
L 2900 538 
Q 2691 219 2414 64 
Q 2138 -91 1772 -91 
Q 1169 -91 856 284 
Q 544 659 544 1381 
z
M 1991 3584 
L 1991 3584 
z
" transform="scale(0.015625)"/>
       <path id="DejaVuSans-6d" d="M 3328 2828 
Q 3544 3216 3844 3400 
Q 4144 3584 4550 3584 
Q 5097 3584 5394 3201 
Q 5691 2819 5691 2113 
L 5691 0 
L 5113 0 
L 5113 2094 
Q 5113 2597 4934 2840 
Q 4756 3084 4391 3084 
Q 3944 3084 3684 2787 
Q 3425 2491 3425 1978 
L 3425 0 
L 2847 0 
L 2847 2094 
Q 2847 2600 2669 2842 
Q 2491 3084 2119 3084 
Q 1678 3084 1418 2786 
Q 1159 2488 1159 1978 
L 1159 0 
L 581 0 
L 581 3500 
L 1159 3500 
L 1159 2956 
Q 1356 3278 1631 3431 
Q 1906 3584 2284 3584 
Q 2666 3584 2933 3390 
Q 3200 3197 3328 2828 
z
" transform="scale(0.015625)"/>
       <path id="DejaVuSans-20" transform="scale(0.015625)"/>
       <path id="DejaVuSans-73" d="M 2834 3397 
L 2834 2853 
Q 2591 2978 2328 3040 
Q 2066 3103 1784 3103 
Q 1356 3103 1142 2972 
Q 928 2841 928 2578 
Q 928 2378 1081 2264 
Q 1234 2150 1697 2047 
L 1894 2003 
Q 2506 1872 2764 1633 
Q 3022 1394 3022 966 
Q 3022 478 2636 193 
Q 2250 -91 1575 -91 
Q 1294 -91 989 -36 
Q 684 19 347 128 
L 347 722 
Q 666 556 975 473 
Q 1284 391 1588 391 
Q 1994 391 2212 530 
Q 2431 669 2431 922 
Q 2431 1156 2273 1281 
Q 2116 1406 1581 1522 
L 1381 1569 
Q 847 1681 609 1914 
Q 372 2147 372 2553 
Q 372 3047 722 3315 
Q 1072 3584 1716 3584 
Q 2034 3584 2315 3537 
Q 2597 3491 2834 3397 
z
" transform="scale(0.015625)"/>
       <path id="DejaVuSans-74" d="M 1172 4494 
L 1172 3500 
L 2356 3500 
L 2356 3053 
L 1172 3053 
L 1172 1153 
Q 1172 725 1289 603 
Q 1406 481 1766 481 
L 2356 481 
L 2356 0 
L 1766 0 
Q 1100 0 847 248 
Q 594 497 594 1153 
L 594 3053 
L 172 3053 
L 172 3500 
L 594 3500 
L 594 4494 
L 1172 4494 
z
" transform="scale(0.015625)"/>
       <path id="DejaVuSans-72" d="M 2631 2963 
Q 2534 3019 2420 3045 
Q 2306 3072 2169 3072 
Q 1681 3072 1420 2755 
Q 1159 2438 1159 1844 
L 1159 0 
L 581 0 
L 581 3500 
L 1159 3500 
L 1159 2956 
Q 1341 3275 1631 3429 
Q 1922 3584 2338 3584 
Q 2397 3584 2469 3576 
Q 2541 3569 2628 3553 
L 2631 2963 
z
" transform="scale(0.015625)"/>
       <path id="DejaVuSans-65" d="M 3597 1894 
L 3597 1613 
L 953 1613 
Q 991 1019 1311 708 
Q 1631 397 2203 397 
Q 2534 397 2845 478 
Q 3156 559 3463 722 
L 3463 178 
Q 3153 47 2828 -22 
Q 2503 -91 2169 -91 
Q 1331 -91 842 396 
Q 353 884 353 1716 
Q 353 2575 817 3079 
Q 1281 3584 2069 3584 
Q 2775 3584 3186 3129 
Q 3597 2675 3597 1894 
z
M 3022 2063 
Q 3016 2534 2758 2815 
Q 2500 3097 2075 3097 
Q 1594 3097 1305 2825 
Q 1016 2553 972 2059 
L 3022 2063 
z
" transform="scale(0.015625)"/>
       <path id="DejaVuSans-6e" d="M 3513 2113 
L 3513 0 
L 2938 0 
L 2938 2094 
Q 2938 2591 2744 2837 
Q 2550 3084 2163 3084 
Q 1697 3084 1428 2787 
Q 1159 2491 1159 1978 
L 1159 0 
L 581 0 
L 581 3500 
L 1159 3500 
L 1159 2956 
Q 1366 3272 1645 3428 
Q 1925 3584 2291 3584 
Q 2894 3584 3203 3211 
Q 3513 2838 3513 2113 
z
" transform="scale(0.015625)"/>
       <path id="DejaVuSans-67" d="M 2906 1791 
Q 2906 2416 2648 2759 
Q 2391 3103 1925 3103 
Q 1463 3103 1205 2759 
Q 947 2416 947 1791 
Q 947 1169 1205 825 
Q 1463 481 1925 481 
Q 2391 481 2648 825 
Q 2906 1169 2906 1791 
z
M 3481 434 
Q 3481 -459 3084 -895 
Q 2688 -1331 1869 -1331 
Q 1566 -1331 1297 -1286 
Q 1028 -1241 775 -1147 
L 775 -588 
Q 1028 -725 1275 -790 
Q 1522 -856 1778 -856 
Q 2344 -856 2625 -561 
Q 2906 -266 2906 331 
L 2906 616 
Q 2728 306 2450 153 
Q 2172 0 1784 0 
Q 1141 0 747 490 
Q 353 981 353 1791 
Q 353 2603 747 3093 
Q 1141 3584 1784 3584 
Q 2172 3584 2450 3431 
Q 2728 3278 2906 2969 
L 2906 3500 
L 3481 3500 
L 3481 434 
z
" transform="scale(0.015625)"/>
       <path id="DejaVuSans-68" d="M 3513 2113 
L 3513 0 
L 2938 0 
L 2938 2094 
Q 2938 2591 2744 2837 
Q 2550 3084 2163 3084 
Q 1697 3084 1428 2787 
Q 1159 2491 1159 1978 
L 1159 0 
L 581 0 
L 581 4863 
L 1159 4863 
L 1159 2956 
Q 1366 3272 1645 3428 
Q 1925 3584 2291 3584 
Q 2894 3584 3203 3211 
Q 3513 2838 3513 2113 
z
" transform="scale(0.015625)"/>
       <path id="DejaVuSans-3a9" d="M 4647 556 
L 4647 0 
L 2772 0 
L 2772 556 
Q 3325 859 3634 1378 
Q 3944 1897 3944 2528 
Q 3944 3278 3531 3731 
Q 3119 4184 2444 4184 
Q 1769 4184 1355 3729 
Q 941 3275 941 2528 
Q 941 1897 1250 1378 
Q 1563 859 2119 556 
L 2119 0 
L 244 0 
L 244 556 
L 1241 556 
Q 747 991 519 1456 
Q 294 1922 294 2497 
Q 294 3491 894 4106 
Q 1491 4722 2444 4722 
Q 3391 4722 3994 4106 
Q 4594 3494 4594 2528 
Q 4594 1922 4372 1459 
Q 4150 997 3647 556 
L 4647 556 
z
" transform="scale(0.015625)"/>
       <path id="DejaVuSans-28" d="M 1984 4856 
Q 1566 4138 1362 3434 
Q 1159 2731 1159 2009 
Q 1159 1288 1364 580 
Q 1569 -128 1984 -844 
L 1484 -844 
Q 1016 -109 783 600 
Q 550 1309 550 2009 
Q 550 2706 781 3412 
Q 1013 4119 1484 4856 
L 1984 4856 
z
" transform="scale(0.015625)"/>
       <path id="DejaVuSans-69" d="M 603 3500 
L 1178 3500 
L 1178 0 
L 603 0 
L 603 3500 
z
M 603 4863 
L 1178 4863 
L 1178 4134 
L 603 4134 
L 603 4863 
z
" transform="scale(0.015625)"/>
       <path id="DejaVuSans-6f" d="M 1959 3097 
Q 1497 3097 1228 2736 
Q 959 2375 959 1747 
Q 959 1119 1226 758 
Q 1494 397 1959 397 
Q 2419 397 2687 759 
Q 2956 1122 2956 1747 
Q 2956 2369 2687 2733 
Q 2419 3097 1959 3097 
z
M 1959 3584 
Q 2709 3584 3137 3096 
Q 3566 2609 3566 1747 
Q 3566 888 3137 398 
Q 2709 -91 1959 -91 
Q 1206 -91 779 398 
Q 353 888 353 1747 
Q 353 2609 779 3096 
Q 1206 3584 1959 3584 
z
" transform="scale(0.015625)"/>
       <path id="DejaVuSans-66" d="M 2375 4863 
L 2375 4384 
L 1825 4384 
Q 1516 4384 1395 4259 
Q 1275 4134 1275 3809 
L 1275 3500 
L 2222 3500 
L 2222 3053 
L 1275 3053 
L 1275 0 
L 697 0 
L 697 3053 
L 147 3053 
L 147 3500 
L 697 3500 
L 697 3744 
Q 697 4328 969 4595 
Q 1241 4863 1831 4863 
L 2375 4863 
z
" transform="scale(0.015625)"/>
       <path id="DejaVuSans-Oblique-3ba" d="M 938 3500 
L 1531 3500 
L 1247 2047 
L 3041 3500 
L 3741 3500 
L 2106 2181 
L 3275 0 
L 2572 0 
L 1628 1806 
L 1122 1403 
L 850 0 
L 256 0 
L 938 3500 
z
" transform="scale(0.015625)"/>
       <path id="DejaVuSans-29" d="M 513 4856 
L 1013 4856 
Q 1481 4119 1714 3412 
Q 1947 2706 1947 2009 
Q 1947 1309 1714 600 
Q 1481 -109 1013 -844 
L 513 -844 
Q 928 -128 1133 580 
Q 1338 1288 1338 2009 
Q 1338 2731 1133 3434 
Q 928 4138 513 4856 
z
" transform="scale(0.015625)"/>
      </defs>
      <use xlink:href="#DejaVuSans-70" transform="translate(0 0.015625)"/>
      <use xlink:href="#DejaVuSans-75" transform="translate(63.476562 0.015625)"/>
      <use xlink:href="#DejaVuSans-6d" transform="translate(126.855469 0.015625)"/>
      <use xlink:href="#DejaVuSans-70" transform="translate(224.267578 0.015625)"/>
      <use xlink:href="#DejaVuSans-20" transform="translate(287.744141 0.015625)"/>
      <use xlink:href="#DejaVuSans-73" transform="translate(319.53125 0.015625)"/>
      <use xlink:href="#DejaVuSans-74" transform="translate(371.630859 0.015625)"/>
      <use xlink:href="#DejaVuSans-72" transform="translate(410.839844 0.015625)"/>
      <use xlink:href="#DejaVuSans-65" transform="translate(451.953125 0.015625)"/>
      <use xlink:href="#DejaVuSans-6e" transform="translate(513.476562 0.015625)"/>
      <use xlink:href="#DejaVuSans-67" transform="translate(576.855469 0.015625)"/>
      <use xlink:href="#DejaVuSans-74" transform="translate(640.332031 0.015625)"/>
      <use xlink:href="#DejaVuSans-68" transform="translate(679.541016 0.015625)"/>
      <use xlink:href="#DejaVuSans-20" transform="translate(742.919922 0.015625)"/>
      <use xlink:href="#DejaVuSans-3a9" transform="translate(774.707031 0.015625)"/>
      <use xlink:href="#DejaVuSans-20" transform="translate(851.123047 0.015625)"/>
      <use xlink:href="#DejaVuSans-28" transform="translate(882.910156 0.015625)"/>
      <use xlink:href="#DejaVuSans-75" transform="translate(921.923828 0.015625)"/>
      <use xlink:href="#DejaVuSans-6e" transform="translate(985.302734 0.015625)"/>
      <use xlink:href="#DejaVuSans-69" transform="translate(1048.681641 0.015625)"/>
      <use xlink:href="#DejaVuSans-74" transform="translate(1076.464844 0.015625)"/>
      <use xlink:href="#DejaVuSans-73" transform="translate(1115.673828 0.015625)"/>
      <use xlink:href="#DejaVuSans-20" transform="translate(1167.773438 0.015625)"/>
      <use xlink:href="#DejaVuSans-6f" transform="translate(1199.560547 0.015625)"/>
      <use xlink:href="#DejaVuSans-66" transform="translate(1260.742188 0.015625)"/>
      <use xlink:href="#DejaVuSans-20" transform="translate(1295.947266 0.015625)"/>
      <use xlink:href="#DejaVuSans-Oblique-3ba" transform="translate(1327.734375 0.015625)"/>
      <use xlink:href="#DejaVuSans-29" transform="translate(1386.669922 0.015625)"/>
     </g>
    </g>
   </g>
   <g id="matplotlib.axis_4">
    <g id="ytick_4">
     <g id="line2d_13">
      <g>
       <use xlink:href="#mee5e9749db" x="52.802" y="160.488025" style="stroke: #000000; stroke-width: 0.8"/>
      </g>
     </g>
     <g id="text_10">
      <!-- −0.5 -->
      <g transform="translate(21.519188 164.287243) scale(0.1 -0.1)">
       <defs>
        <path id="DejaVuSans-2212" d="M 678 2272 
L 4684 2272 
L 4684 1741 
L 678 1741 
L 678 2272 
z
" transform="scale(0.015625)"/>
       </defs>
       <use xlink:href="#DejaVuSans-2212"/>
       <use xlink:href="#DejaVuSans-30" x="83.789062"/>
       <use xlink:href="#DejaVuSans-2e" x="147.412109"/>
       <use xlink:href="#DejaVuSans-35" x="179.199219"/>
      </g>
     </g>
    </g>
    <g id="ytick_5">
     <g id="line2d_14">
      <g>
       <use xlink:href="#mee5e9749db" x="52.802" y="134.216724" style="stroke: #000000; stroke-width: 0.8"/>
      </g>
     </g>
     <g id="text_11">
      <!-- 0.0 -->
      <g transform="translate(29.898875 138.015943) scale(0.1 -0.1)">
       <use xlink:href="#DejaVuSans-30"/>
       <use xlink:href="#DejaVuSans-2e" x="63.623047"/>
       <use xlink:href="#DejaVuSans-30" x="95.410156"/>
      </g>
     </g>
    </g>
    <g id="ytick_6">
     <g id="line2d_15">
      <g>
       <use xlink:href="#mee5e9749db" x="52.802" y="107.945423" style="stroke: #000000; stroke-width: 0.8"/>
      </g>
     </g>
     <g id="text_12">
      <!-- 0.5 -->
      <g transform="translate(29.898875 111.744642) scale(0.1 -0.1)">
       <use xlink:href="#DejaVuSans-30"/>
       <use xlink:href="#DejaVuSans-2e" x="63.623047"/>
       <use xlink:href="#DejaVuSans-35" x="95.410156"/>
      </g>
     </g>
    </g>
    <g id="text_13">
     <!-- $\Phi$ -->
     <g transform="translate(19.4395 138.145) rotate(-90) scale(0.1 -0.1)">
      <defs>
       <path id="DejaVuSans-3a6" d="M 2206 3644 
Q 1738 3578 1431 3306 
Q 1025 2947 1025 2328 
Q 1025 1713 1431 1353 
Q 1738 1081 2206 1016 
L 2206 3644 
z
M 2838 1016 
Q 3306 1081 3613 1353 
Q 4013 1713 4013 2328 
Q 4013 2947 3613 3306 
Q 3306 3578 2838 3644 
L 2838 1016 
z
M 2206 494 
Q 1444 563 950 981 
Q 359 1481 359 2328 
Q 359 3175 950 3678 
Q 1441 4100 2206 4169 
L 2206 4666 
L 2838 4666 
L 2838 4169 
Q 3600 4097 4091 3678 
Q 4678 3175 4678 2328 
Q 4678 1484 4091 981 
Q 3600 563 2838 491 
L 2838 0 
L 2206 0 
L 2206 494 
z
" transform="scale(0.015625)"/>
      </defs>
      <use xlink:href="#DejaVuSans-3a6" transform="translate(0 0.09375)"/>
     </g>
    </g>
   </g>
   <g id="LineCollection_2">
    <path d="M 59.035401 133.773564 
L 59.035401 130.785605 
" clip-path="url(#p31f0d7f79e)" style="fill: none; stroke: #1f77b4; stroke-width: 1.5"/>
    <path d="M 63.191001 133.45908 
L 63.191001 129.871781 
" clip-path="url(#p31f0d7f79e)" style="fill: none; stroke: #1f77b4; stroke-width: 1.5"/>
    <path d="M 67.346602 133.745985 
L 67.346602 130.596403 
" clip-path="url(#p31f0d7f79e)" style="fill: none; stroke: #1f77b4; stroke-width: 1.5"/>
    <path d="M 71.502202 133.667822 
L 71.502202 130.468296 
" clip-path="url(#p31f0d7f79e)" style="fill: none; stroke: #1f77b4; stroke-width: 1.5"/>
    <path d="M 75.657803 133.516432 
L 75.657803 130.495847 
" clip-path="url(#p31f0d7f79e)" style="fill: none; stroke: #1f77b4; stroke-width: 1.5"/>
    <path d="M 79.813404 133.818862 
L 79.813404 130.668777 
" clip-path="url(#p31f0d7f79e)" style="fill: none; stroke: #1f77b4; stroke-width: 1.5"/>
    <path d="M 83.969004 133.538683 
L 83.969004 130.184408 
" clip-path="url(#p31f0d7f79e)" style="fill: none; stroke: #1f77b4; stroke-width: 1.5"/>
    <path d="M 88.124605 133.683538 
L 88.124605 130.317699 
" clip-path="url(#p31f0d7f79e)" style="fill: none; stroke: #1f77b4; stroke-width: 1.5"/>
    <path d="M 92.280205 133.572509 
L 92.280205 130.478383 
" clip-path="url(#p31f0d7f79e)" style="fill: none; stroke: #1f77b4; stroke-width: 1.5"/>
    <path d="M 96.435806 133.715525 
L 96.435806 130.486307 
" clip-path="url(#p31f0d7f79e)" style="fill: none; stroke: #1f77b4; stroke-width: 1.5"/>
    <path d="M 100.591406 138.546952 
L 100.591406 135.023247 
" clip-path="url(#p31f0d7f79e)" style="fill: none; stroke: #1f77b4; stroke-width: 1.5"/>
    <path d="M 100.591406 133.587661 
L 100.591406 130.77282 
" clip-path="url(#p31f0d7f79e)" style="fill: none; stroke: #1f77b4; stroke-width: 1.5"/>
    <path d="M 104.747007 137.554315 
L 104.747007 135.244596 
" clip-path="url(#p31f0d7f79e)" style="fill: none; stroke: #1f77b4; stroke-width: 1.5"/>
    <path d="M 104.747007 133.850056 
L 104.747007 130.68365 
" clip-path="url(#p31f0d7f79e)" style="fill: none; stroke: #1f77b4; stroke-width: 1.5"/>
    <path d="M 108.902607 138.051452 
L 108.902607 134.909903 
" clip-path="url(#p31f0d7f79e)" style="fill: none; stroke: #1f77b4; stroke-width: 1.5"/>
    <path d="M 108.902607 133.595098 
L 108.902607 130.396739 
" clip-path="url(#p31f0d7f79e)" style="fill: none; stroke: #1f77b4; stroke-width: 1.5"/>
    <path d="M 113.058208 139.087585 
L 113.058208 134.692699 
" clip-path="url(#p31f0d7f79e)" style="fill: none; stroke: #1f77b4; stroke-width: 1.5"/>
    <path d="M 113.058208 132.920296 
L 113.058208 128.75452 
" clip-path="url(#p31f0d7f79e)" style="fill: none; stroke: #1f77b4; stroke-width: 1.5"/>
    <path d="M 117.213809 138.669992 
L 117.213809 135.01823 
" clip-path="url(#p31f0d7f79e)" style="fill: none; stroke: #1f77b4; stroke-width: 1.5"/>
    <path d="M 117.213809 133.908969 
L 117.213809 130.859453 
" clip-path="url(#p31f0d7f79e)" style="fill: none; stroke: #1f77b4; stroke-width: 1.5"/>
    <path d="M 121.369409 138.465073 
L 121.369409 135.4958 
" clip-path="url(#p31f0d7f79e)" style="fill: none; stroke: #1f77b4; stroke-width: 1.5"/>
    <path d="M 121.369409 133.971004 
L 121.369409 130.392475 
" clip-path="url(#p31f0d7f79e)" style="fill: none; stroke: #1f77b4; stroke-width: 1.5"/>
    <path d="M 125.52501 141.755678 
L 125.52501 134.550669 
" clip-path="url(#p31f0d7f79e)" style="fill: none; stroke: #1f77b4; stroke-width: 1.5"/>
    <path d="M 125.52501 134.796485 
L 125.52501 127.380213 
" clip-path="url(#p31f0d7f79e)" style="fill: none; stroke: #1f77b4; stroke-width: 1.5"/>
    <path d="M 129.68061 149.687687 
L 129.68061 133.81113 
" clip-path="url(#p31f0d7f79e)" style="fill: none; stroke: #1f77b4; stroke-width: 1.5"/>
    <path d="M 129.68061 135.93177 
L 129.68061 120.451342 
" clip-path="url(#p31f0d7f79e)" style="fill: none; stroke: #1f77b4; stroke-width: 1.5"/>
    <path d="M 133.836211 162.114543 
L 133.836211 145.081649 
" clip-path="url(#p31f0d7f79e)" style="fill: none; stroke: #1f77b4; stroke-width: 1.5"/>
    <path d="M 133.836211 122.993695 
L 133.836211 107.873395 
" clip-path="url(#p31f0d7f79e)" style="fill: none; stroke: #1f77b4; stroke-width: 1.5"/>
    <path d="M 137.991811 162.735442 
L 137.991811 139.96114 
" clip-path="url(#p31f0d7f79e)" style="fill: none; stroke: #1f77b4; stroke-width: 1.5"/>
    <path d="M 137.991811 126.583322 
L 137.991811 107.784372 
" clip-path="url(#p31f0d7f79e)" style="fill: none; stroke: #1f77b4; stroke-width: 1.5"/>
    <path d="M 142.147412 164.100126 
L 142.147412 152.079956 
" clip-path="url(#p31f0d7f79e)" style="fill: none; stroke: #1f77b4; stroke-width: 1.5"/>
    <path d="M 142.147412 118.13812 
L 142.147412 102.996813 
" clip-path="url(#p31f0d7f79e)" style="fill: none; stroke: #1f77b4; stroke-width: 1.5"/>
    <path d="M 146.303012 165.470112 
L 146.303012 158.868372 
" clip-path="url(#p31f0d7f79e)" style="fill: none; stroke: #1f77b4; stroke-width: 1.5"/>
    <path d="M 146.303012 108.443902 
L 146.303012 103.775225 
" clip-path="url(#p31f0d7f79e)" style="fill: none; stroke: #1f77b4; stroke-width: 1.5"/>
    <path d="M 150.458613 165.04736 
L 150.458613 160.967078 
" clip-path="url(#p31f0d7f79e)" style="fill: none; stroke: #1f77b4; stroke-width: 1.5"/>
    <path d="M 150.458613 108.405756 
L 150.458613 103.573121 
" clip-path="url(#p31f0d7f79e)" style="fill: none; stroke: #1f77b4; stroke-width: 1.5"/>
    <path d="M 154.614213 167.1947 
L 154.614213 162.490427 
" clip-path="url(#p31f0d7f79e)" style="fill: none; stroke: #1f77b4; stroke-width: 1.5"/>
    <path d="M 154.614213 104.698696 
L 154.614213 102.195778 
" clip-path="url(#p31f0d7f79e)" style="fill: none; stroke: #1f77b4; stroke-width: 1.5"/>
    <path d="M 158.769814 167.988437 
L 158.769814 164.654704 
" clip-path="url(#p31f0d7f79e)" style="fill: none; stroke: #1f77b4; stroke-width: 1.5"/>
    <path d="M 158.769814 104.539259 
L 158.769814 100.706758 
" clip-path="url(#p31f0d7f79e)" style="fill: none; stroke: #1f77b4; stroke-width: 1.5"/>
    <path d="M 162.925415 167.996227 
L 162.925415 164.823483 
" clip-path="url(#p31f0d7f79e)" style="fill: none; stroke: #1f77b4; stroke-width: 1.5"/>
    <path d="M 162.925415 104.092259 
L 162.925415 100.926315 
" clip-path="url(#p31f0d7f79e)" style="fill: none; stroke: #1f77b4; stroke-width: 1.5"/>
    <path d="M 167.081015 169.095779 
L 167.081015 165.920636 
" clip-path="url(#p31f0d7f79e)" style="fill: none; stroke: #1f77b4; stroke-width: 1.5"/>
    <path d="M 167.081015 103.673249 
L 167.081015 98.852551 
" clip-path="url(#p31f0d7f79e)" style="fill: none; stroke: #1f77b4; stroke-width: 1.5"/>
    <path d="M 171.236616 169.299707 
L 171.236616 166.034396 
" clip-path="url(#p31f0d7f79e)" style="fill: none; stroke: #1f77b4; stroke-width: 1.5"/>
    <path d="M 171.236616 102.140435 
L 171.236616 99.151928 
" clip-path="url(#p31f0d7f79e)" style="fill: none; stroke: #1f77b4; stroke-width: 1.5"/>
    <path d="M 175.392216 169.708165 
L 175.392216 166.823366 
" clip-path="url(#p31f0d7f79e)" style="fill: none; stroke: #1f77b4; stroke-width: 1.5"/>
    <path d="M 175.392216 102.134666 
L 175.392216 98.548629 
" clip-path="url(#p31f0d7f79e)" style="fill: none; stroke: #1f77b4; stroke-width: 1.5"/>
    <path d="M 179.547817 170.526818 
L 179.547817 167.270098 
" clip-path="url(#p31f0d7f79e)" style="fill: none; stroke: #1f77b4; stroke-width: 1.5"/>
    <path d="M 179.547817 100.720189 
L 179.547817 97.904607 
" clip-path="url(#p31f0d7f79e)" style="fill: none; stroke: #1f77b4; stroke-width: 1.5"/>
    <path d="M 183.703417 169.604209 
L 183.703417 167.187891 
" clip-path="url(#p31f0d7f79e)" style="fill: none; stroke: #1f77b4; stroke-width: 1.5"/>
    <path d="M 183.703417 100.819633 
L 183.703417 97.863182 
" clip-path="url(#p31f0d7f79e)" style="fill: none; stroke: #1f77b4; stroke-width: 1.5"/>
   </g>
   <g id="line2d_16">
    <defs>
     <path id="m16b5519995" d="M 0 1 
C 0.265203 1 0.51958 0.894634 0.707107 0.707107 
C 0.894634 0.51958 1 0.265203 1 0 
C 1 -0.265203 0.894634 -0.51958 0.707107 -0.707107 
C 0.51958 -0.894634 0.265203 -1 0 -1 
C -0.265203 -1 -0.51958 -0.894634 -0.707107 -0.707107 
C -0.894634 -0.51958 -1 -0.265203 -1 0 
C -1 0.265203 -0.894634 0.51958 -0.707107 0.707107 
C -0.51958 0.894634 -0.265203 1 0 1 
z
" style="stroke: #1f77b4"/>
    </defs>
    <g clip-path="url(#p31f0d7f79e)">
     <use xlink:href="#m16b5519995" x="59.035401" y="132.279584" style="fill: #1f77b4; stroke: #1f77b4"/>
     <use xlink:href="#m16b5519995" x="63.191001" y="131.665431" style="fill: #1f77b4; stroke: #1f77b4"/>
     <use xlink:href="#m16b5519995" x="67.346602" y="132.171194" style="fill: #1f77b4; stroke: #1f77b4"/>
     <use xlink:href="#m16b5519995" x="71.502202" y="132.068059" style="fill: #1f77b4; stroke: #1f77b4"/>
     <use xlink:href="#m16b5519995" x="75.657803" y="132.006139" style="fill: #1f77b4; stroke: #1f77b4"/>
     <use xlink:href="#m16b5519995" x="79.813404" y="132.24382" style="fill: #1f77b4; stroke: #1f77b4"/>
     <use xlink:href="#m16b5519995" x="83.969004" y="131.861545" style="fill: #1f77b4; stroke: #1f77b4"/>
     <use xlink:href="#m16b5519995" x="88.124605" y="132.000619" style="fill: #1f77b4; stroke: #1f77b4"/>
     <use xlink:href="#m16b5519995" x="92.280205" y="132.025446" style="fill: #1f77b4; stroke: #1f77b4"/>
     <use xlink:href="#m16b5519995" x="96.435806" y="132.100916" style="fill: #1f77b4; stroke: #1f77b4"/>
     <use xlink:href="#m16b5519995" x="100.591406" y="136.785099" style="fill: #1f77b4; stroke: #1f77b4"/>
     <use xlink:href="#m16b5519995" x="100.591406" y="132.180241" style="fill: #1f77b4; stroke: #1f77b4"/>
     <use xlink:href="#m16b5519995" x="104.747007" y="136.399455" style="fill: #1f77b4; stroke: #1f77b4"/>
     <use xlink:href="#m16b5519995" x="104.747007" y="132.266853" style="fill: #1f77b4; stroke: #1f77b4"/>
     <use xlink:href="#m16b5519995" x="108.902607" y="136.480677" style="fill: #1f77b4; stroke: #1f77b4"/>
     <use xlink:href="#m16b5519995" x="108.902607" y="131.995919" style="fill: #1f77b4; stroke: #1f77b4"/>
     <use xlink:href="#m16b5519995" x="113.058208" y="136.890142" style="fill: #1f77b4; stroke: #1f77b4"/>
     <use xlink:href="#m16b5519995" x="113.058208" y="130.837408" style="fill: #1f77b4; stroke: #1f77b4"/>
     <use xlink:href="#m16b5519995" x="117.213809" y="136.844111" style="fill: #1f77b4; stroke: #1f77b4"/>
     <use xlink:href="#m16b5519995" x="117.213809" y="132.384211" style="fill: #1f77b4; stroke: #1f77b4"/>
     <use xlink:href="#m16b5519995" x="121.369409" y="136.980436" style="fill: #1f77b4; stroke: #1f77b4"/>
     <use xlink:href="#m16b5519995" x="121.369409" y="132.18174" style="fill: #1f77b4; stroke: #1f77b4"/>
     <use xlink:href="#m16b5519995" x="125.52501" y="138.153173" style="fill: #1f77b4; stroke: #1f77b4"/>
     <use xlink:href="#m16b5519995" x="125.52501" y="131.088349" style="fill: #1f77b4; stroke: #1f77b4"/>
     <use xlink:href="#m16b5519995" x="129.68061" y="141.749409" style="fill: #1f77b4; stroke: #1f77b4"/>
     <use xlink:href="#m16b5519995" x="129.68061" y="128.191556" style="fill: #1f77b4; stroke: #1f77b4"/>
     <use xlink:href="#m16b5519995" x="133.836211" y="153.598096" style="fill: #1f77b4; stroke: #1f77b4"/>
     <use xlink:href="#m16b5519995" x="133.836211" y="115.433545" style="fill: #1f77b4; stroke: #1f77b4"/>
     <use xlink:href="#m16b5519995" x="137.991811" y="151.348291" style="fill: #1f77b4; stroke: #1f77b4"/>
     <use xlink:href="#m16b5519995" x="137.991811" y="117.183847" style="fill: #1f77b4; stroke: #1f77b4"/>
     <use xlink:href="#m16b5519995" x="142.147412" y="158.090041" style="fill: #1f77b4; stroke: #1f77b4"/>
     <use xlink:href="#m16b5519995" x="142.147412" y="110.567466" style="fill: #1f77b4; stroke: #1f77b4"/>
     <use xlink:href="#m16b5519995" x="146.303012" y="162.169242" style="fill: #1f77b4; stroke: #1f77b4"/>
     <use xlink:href="#m16b5519995" x="146.303012" y="106.109564" style="fill: #1f77b4; stroke: #1f77b4"/>
     <use xlink:href="#m16b5519995" x="150.458613" y="163.007219" style="fill: #1f77b4; stroke: #1f77b4"/>
     <use xlink:href="#m16b5519995" x="150.458613" y="105.989439" style="fill: #1f77b4; stroke: #1f77b4"/>
     <use xlink:href="#m16b5519995" x="154.614213" y="164.842564" style="fill: #1f77b4; stroke: #1f77b4"/>
     <use xlink:href="#m16b5519995" x="154.614213" y="103.447237" style="fill: #1f77b4; stroke: #1f77b4"/>
     <use xlink:href="#m16b5519995" x="158.769814" y="166.32157" style="fill: #1f77b4; stroke: #1f77b4"/>
     <use xlink:href="#m16b5519995" x="158.769814" y="102.623008" style="fill: #1f77b4; stroke: #1f77b4"/>
     <use xlink:href="#m16b5519995" x="162.925415" y="166.409855" style="fill: #1f77b4; stroke: #1f77b4"/>
     <use xlink:href="#m16b5519995" x="162.925415" y="102.509287" style="fill: #1f77b4; stroke: #1f77b4"/>
     <use xlink:href="#m16b5519995" x="167.081015" y="167.508207" style="fill: #1f77b4; stroke: #1f77b4"/>
     <use xlink:href="#m16b5519995" x="167.081015" y="101.2629" style="fill: #1f77b4; stroke: #1f77b4"/>
     <use xlink:href="#m16b5519995" x="171.236616" y="167.667051" style="fill: #1f77b4; stroke: #1f77b4"/>
     <use xlink:href="#m16b5519995" x="171.236616" y="100.646182" style="fill: #1f77b4; stroke: #1f77b4"/>
     <use xlink:href="#m16b5519995" x="175.392216" y="168.265766" style="fill: #1f77b4; stroke: #1f77b4"/>
     <use xlink:href="#m16b5519995" x="175.392216" y="100.341647" style="fill: #1f77b4; stroke: #1f77b4"/>
     <use xlink:href="#m16b5519995" x="179.547817" y="168.898458" style="fill: #1f77b4; stroke: #1f77b4"/>
     <use xlink:href="#m16b5519995" x="179.547817" y="99.312398" style="fill: #1f77b4; stroke: #1f77b4"/>
     <use xlink:href="#m16b5519995" x="183.703417" y="168.39605" style="fill: #1f77b4; stroke: #1f77b4"/>
     <use xlink:href="#m16b5519995" x="183.703417" y="99.341407" style="fill: #1f77b4; stroke: #1f77b4"/>
    </g>
   </g>
   <g id="patch_8">
    <path d="M 52.802 174.16 
L 52.802 94.23 
" style="fill: none; stroke: #000000; stroke-width: 0.8; stroke-linejoin: miter; stroke-linecap: square"/>
   </g>
   <g id="patch_9">
    <path d="M 189.936818 174.16 
L 189.936818 94.23 
" style="fill: none; stroke: #000000; stroke-width: 0.8; stroke-linejoin: miter; stroke-linecap: square"/>
   </g>
   <g id="patch_10">
    <path d="M 52.802 174.16 
L 189.936818 174.16 
" style="fill: none; stroke: #000000; stroke-width: 0.8; stroke-linejoin: miter; stroke-linecap: square"/>
   </g>
   <g id="patch_11">
    <path d="M 52.802 94.23 
L 189.936818 94.23 
" style="fill: none; stroke: #000000; stroke-width: 0.8; stroke-linejoin: miter; stroke-linecap: square"/>
   </g>
  </g>
 </g>
 <defs>
  <clipPath id="p5f14525220">
   <rect x="52.802" y="10.8" width="137.134818" height="79.93"/>
  </clipPath>
  <clipPath id="p31f0d7f79e">
   <rect x="52.802" y="94.23" width="137.134818" height="79.93"/>
  </clipPath>
 </defs>
</svg>
