<?xml version="1.0" encoding="utf-8" standalone="no"?>
<!DOCTYPE svg PUBLIC "-//W3C//DTD SVG 1.1//EN"
  "http://www.w3.org/Graphics/SVG/1.1/DTD/svg11.dtd">
<svg xmlns:xlink="http://www.w3.org/1999/xlink" width="244.8pt" height="165.6pt" viewBox="0 0 244.8 165.6" xmlns="http://www.w3.org/2000/svg" version="1.1">
 <metadata>
  <rdf:RDF xmlns:dc="http://purl.org/dc/elements/1.1/" xmlns:cc="http://creativecommons.org/ns#" xmlns:rdf="http://www.w3.org/1999/02/22-rdf-syntax-ns#">
   <cc:Work>
    <dc:type rdf:resource="http://purl.org/dc/dcmitype/StillImage"/>
    <dc:date>2023-11-28T11:40:58.192696</dc:date>
    <dc:format>image/svg+xml</dc:format>
    <dc:creator>
     <cc:Agent>
      <dc:title>Matplotlib v3.7.1, https://matplotlib.org/</dc:title>
     </cc:Agent>
    </dc:creator>
   </cc:Work>
  </rdf:RDF>
 </metadata>
 <defs>
  <style type="text/css">*{stroke-linejoin: round; stroke-linecap: butt}</style>
 </defs>
 <g id="figure_1">
  <g id="patch_1">
   <path d="M 0 165.6 
L 244.8 165.6 
L 244.8 0 
L 0 0 
z
" style="fill: #ffffff"/>
  </g>
  <g id="axes_1">
   <g id="patch_2">
    <path d="M 51.43 119.948 
L 233.038636 119.948 
L 233.038636 10.8 
L 51.43 10.8 
z
" style="fill: #ffffff"/>
   </g>
   <g id="PolyCollection_1">
    <defs>
     <path id="mf1d899234a" d="M 59.684938 -64.756602 
L 59.684938 -50.613273 
L 61.748673 -58.031657 
L 63.812407 -56.932015 
L 65.876142 -56.079926 
L 67.939876 -56.890905 
L 70.003611 -56.958929 
L 72.067345 -56.261735 
L 74.13108 -57.78492 
L 76.194814 -57.1062 
L 78.258549 -57.721973 
L 80.322283 -58.68494 
L 82.386018 -56.761594 
L 84.449752 -56.376412 
L 86.513487 -57.153598 
L 88.577221 -57.240912 
L 90.640956 -59.943316 
L 92.70469 -58.120632 
L 94.768425 -56.74646 
L 96.832159 -57.783087 
L 98.895894 -56.437427 
L 100.959628 -56.879055 
L 103.023363 -55.868602 
L 105.087097 -57.044521 
L 107.150832 -56.42306 
L 109.214566 -57.197945 
L 111.278301 -56.305163 
L 113.342035 -55.18031 
L 115.40577 -56.046762 
L 117.469504 -56.738066 
L 119.533239 -57.276933 
L 121.596973 -56.781103 
L 123.660708 -56.618755 
L 125.724442 -57.539174 
L 127.788177 -56.242483 
L 129.851911 -55.868573 
L 131.915646 -57.494755 
L 133.97938 -56.130119 
L 136.043115 -56.842962 
L 138.106849 -56.244772 
L 140.170584 -58.095062 
L 142.234318 -55.142806 
L 144.298053 -56.670651 
L 146.361787 -57.565113 
L 148.425522 -55.955369 
L 150.489256 -56.612192 
L 152.552991 -57.034164 
L 154.616725 -56.740238 
L 156.68046 -57.371849 
L 158.744194 -57.448149 
L 160.807929 -55.842696 
L 162.871663 -56.731322 
L 164.935398 -56.506448 
L 166.999132 -58.458637 
L 169.062867 -56.566047 
L 171.126601 -57.476264 
L 173.190336 -56.069378 
L 175.25407 -55.157843 
L 177.317805 -56.859914 
L 179.381539 -54.671975 
L 181.445274 -56.756446 
L 183.509008 -53.346323 
L 185.572743 -56.821263 
L 187.636477 -57.344621 
L 189.700212 -54.721846 
L 191.763946 -56.47127 
L 193.827681 -56.494697 
L 195.891415 -55.92098 
L 197.95515 -55.929002 
L 200.018884 -56.227221 
L 202.082619 -57.002395 
L 204.146353 -55.796983 
L 206.210088 -55.678626 
L 208.273822 -56.083282 
L 210.337557 -56.839153 
L 212.401291 -56.284172 
L 214.465026 -57.398027 
L 216.52876 -55.531234 
L 218.592495 -57.236276 
L 220.656229 -55.462272 
L 222.719964 -55.404308 
L 224.783698 -54.170567 
L 224.783698 -123.882154 
L 224.783698 -123.882154 
L 222.719964 -110.73501 
L 220.656229 -100.675753 
L 218.592495 -108.640235 
L 216.52876 -106.388452 
L 214.465026 -108.506525 
L 212.401291 -108.951781 
L 210.337557 -112.859736 
L 208.273822 -108.758012 
L 206.210088 -108.831984 
L 204.146353 -117.568584 
L 202.082619 -112.948152 
L 200.018884 -107.434527 
L 197.95515 -104.014257 
L 195.891415 -107.759383 
L 193.827681 -115.507352 
L 191.763946 -121.890251 
L 189.700212 -124.333517 
L 187.636477 -122.942828 
L 185.572743 -107.920822 
L 183.509008 -118.023315 
L 181.445274 -124.075922 
L 179.381539 -115.556371 
L 177.317805 -106.018881 
L 175.25407 -105.732217 
L 173.190336 -116.864845 
L 171.126601 -120.069508 
L 169.062867 -115.858965 
L 166.999132 -111.994471 
L 164.935398 -113.659906 
L 162.871663 -118.001836 
L 160.807929 -110.132688 
L 158.744194 -128.537295 
L 156.68046 -128.030327 
L 154.616725 -129.907284 
L 152.552991 -126.395374 
L 150.489256 -130.808128 
L 148.425522 -132.706227 
L 146.361787 -140.253892 
L 144.298053 -137.437296 
L 142.234318 -125.87466 
L 140.170584 -118.023788 
L 138.106849 -119.499121 
L 136.043115 -119.619359 
L 133.97938 -124.175552 
L 131.915646 -131.740848 
L 129.851911 -137.604369 
L 127.788177 -138.215109 
L 125.724442 -131.30301 
L 123.660708 -134.471626 
L 121.596973 -132.905387 
L 119.533239 -144.211195 
L 117.469504 -131.485927 
L 115.40577 -129.605234 
L 113.342035 -139.134811 
L 111.278301 -136.107077 
L 109.214566 -137.159932 
L 107.150832 -141.89243 
L 105.087097 -131.017381 
L 103.023363 -145.922127 
L 100.959628 -135.670848 
L 98.895894 -135.180864 
L 96.832159 -137.482362 
L 94.768425 -139.782297 
L 92.70469 -142.104188 
L 90.640956 -145.780259 
L 88.577221 -142.339667 
L 86.513487 -148.502243 
L 84.449752 -147.096115 
L 82.386018 -149.838727 
L 80.322283 -148.146484 
L 78.258549 -139.380766 
L 76.194814 -132.143537 
L 74.13108 -128.073926 
L 72.067345 -138.650599 
L 70.003611 -131.567469 
L 67.939876 -121.105887 
L 65.876142 -129.713456 
L 63.812407 -105.35569 
L 61.748673 -97.761185 
L 59.684938 -64.756602 
z
" style="stroke: #d62728; stroke-opacity: 0.2"/>
    </defs>
    <g clip-path="url(#p92c5b56d40)">
     <use xlink:href="#mf1d899234a" x="0" y="165.6" style="fill: #d62728; fill-opacity: 0.2; stroke: #d62728; stroke-opacity: 0.2"/>
    </g>
   </g>
   <g id="matplotlib.axis_1">
    <g id="xtick_1">
     <g id="line2d_1">
      <defs>
       <path id="m1fe272b8be" d="M 0 0 
L 0 3.5 
" style="stroke: #000000; stroke-width: 0.8"/>
      </defs>
      <g>
       <use xlink:href="#m1fe272b8be" x="59.684938" y="119.948" style="stroke: #000000; stroke-width: 0.8"/>
      </g>
     </g>
     <g id="text_1">
      <!-- 0 -->
      <g transform="translate(56.503688 134.546437) scale(0.1 -0.1)">
       <defs>
        <path id="DejaVuSans-30" d="M 2034 4250 
Q 1547 4250 1301 3770 
Q 1056 3291 1056 2328 
Q 1056 1369 1301 889 
Q 1547 409 2034 409 
Q 2525 409 2770 889 
Q 3016 1369 3016 2328 
Q 3016 3291 2770 3770 
Q 2525 4250 2034 4250 
z
M 2034 4750 
Q 2819 4750 3233 4129 
Q 3647 3509 3647 2328 
Q 3647 1150 3233 529 
Q 2819 -91 2034 -91 
Q 1250 -91 836 529 
Q 422 1150 422 2328 
Q 422 3509 836 4129 
Q 1250 4750 2034 4750 
z
" transform="scale(0.015625)"/>
       </defs>
       <use xlink:href="#DejaVuSans-30"/>
      </g>
     </g>
    </g>
    <g id="xtick_2">
     <g id="line2d_2">
      <g>
       <use xlink:href="#m1fe272b8be" x="100.959628" y="119.948" style="stroke: #000000; stroke-width: 0.8"/>
      </g>
     </g>
     <g id="text_2">
      <!-- 200 -->
      <g transform="translate(91.415878 134.546437) scale(0.1 -0.1)">
       <defs>
        <path id="DejaVuSans-32" d="M 1228 531 
L 3431 531 
L 3431 0 
L 469 0 
L 469 531 
Q 828 903 1448 1529 
Q 2069 2156 2228 2338 
Q 2531 2678 2651 2914 
Q 2772 3150 2772 3378 
Q 2772 3750 2511 3984 
Q 2250 4219 1831 4219 
Q 1534 4219 1204 4116 
Q 875 4013 500 3803 
L 500 4441 
Q 881 4594 1212 4672 
Q 1544 4750 1819 4750 
Q 2544 4750 2975 4387 
Q 3406 4025 3406 3419 
Q 3406 3131 3298 2873 
Q 3191 2616 2906 2266 
Q 2828 2175 2409 1742 
Q 1991 1309 1228 531 
z
" transform="scale(0.015625)"/>
       </defs>
       <use xlink:href="#DejaVuSans-32"/>
       <use xlink:href="#DejaVuSans-30" x="63.623047"/>
       <use xlink:href="#DejaVuSans-30" x="127.246094"/>
      </g>
     </g>
    </g>
    <g id="xtick_3">
     <g id="line2d_3">
      <g>
       <use xlink:href="#m1fe272b8be" x="142.234318" y="119.948" style="stroke: #000000; stroke-width: 0.8"/>
      </g>
     </g>
     <g id="text_3">
      <!-- 400 -->
      <g transform="translate(132.690568 134.546437) scale(0.1 -0.1)">
       <defs>
        <path id="DejaVuSans-34" d="M 2419 4116 
L 825 1625 
L 2419 1625 
L 2419 4116 
z
M 2253 4666 
L 3047 4666 
L 3047 1625 
L 3713 1625 
L 3713 1100 
L 3047 1100 
L 3047 0 
L 2419 0 
L 2419 1100 
L 313 1100 
L 313 1709 
L 2253 4666 
z
" transform="scale(0.015625)"/>
       </defs>
       <use xlink:href="#DejaVuSans-34"/>
       <use xlink:href="#DejaVuSans-30" x="63.623047"/>
       <use xlink:href="#DejaVuSans-30" x="127.246094"/>
      </g>
     </g>
    </g>
    <g id="xtick_4">
     <g id="line2d_4">
      <g>
       <use xlink:href="#m1fe272b8be" x="183.509008" y="119.948" style="stroke: #000000; stroke-width: 0.8"/>
      </g>
     </g>
     <g id="text_4">
      <!-- 600 -->
      <g transform="translate(173.965258 134.546437) scale(0.1 -0.1)">
       <defs>
        <path id="DejaVuSans-36" d="M 2113 2584 
Q 1688 2584 1439 2293 
Q 1191 2003 1191 1497 
Q 1191 994 1439 701 
Q 1688 409 2113 409 
Q 2538 409 2786 701 
Q 3034 994 3034 1497 
Q 3034 2003 2786 2293 
Q 2538 2584 2113 2584 
z
M 3366 4563 
L 3366 3988 
Q 3128 4100 2886 4159 
Q 2644 4219 2406 4219 
Q 1781 4219 1451 3797 
Q 1122 3375 1075 2522 
Q 1259 2794 1537 2939 
Q 1816 3084 2150 3084 
Q 2853 3084 3261 2657 
Q 3669 2231 3669 1497 
Q 3669 778 3244 343 
Q 2819 -91 2113 -91 
Q 1303 -91 875 529 
Q 447 1150 447 2328 
Q 447 3434 972 4092 
Q 1497 4750 2381 4750 
Q 2619 4750 2861 4703 
Q 3103 4656 3366 4563 
z
" transform="scale(0.015625)"/>
       </defs>
       <use xlink:href="#DejaVuSans-36"/>
       <use xlink:href="#DejaVuSans-30" x="63.623047"/>
       <use xlink:href="#DejaVuSans-30" x="127.246094"/>
      </g>
     </g>
    </g>
    <g id="xtick_5">
     <g id="line2d_5">
      <g>
       <use xlink:href="#m1fe272b8be" x="224.783698" y="119.948" style="stroke: #000000; stroke-width: 0.8"/>
      </g>
     </g>
     <g id="text_5">
      <!-- 800 -->
      <g transform="translate(215.239948 134.546437) scale(0.1 -0.1)">
       <defs>
        <path id="DejaVuSans-38" d="M 2034 2216 
Q 1584 2216 1326 1975 
Q 1069 1734 1069 1313 
Q 1069 891 1326 650 
Q 1584 409 2034 409 
Q 2484 409 2743 651 
Q 3003 894 3003 1313 
Q 3003 1734 2745 1975 
Q 2488 2216 2034 2216 
z
M 1403 2484 
Q 997 2584 770 2862 
Q 544 3141 544 3541 
Q 544 4100 942 4425 
Q 1341 4750 2034 4750 
Q 2731 4750 3128 4425 
Q 3525 4100 3525 3541 
Q 3525 3141 3298 2862 
Q 3072 2584 2669 2484 
Q 3125 2378 3379 2068 
Q 3634 1759 3634 1313 
Q 3634 634 3220 271 
Q 2806 -91 2034 -91 
Q 1263 -91 848 271 
Q 434 634 434 1313 
Q 434 1759 690 2068 
Q 947 2378 1403 2484 
z
M 1172 3481 
Q 1172 3119 1398 2916 
Q 1625 2713 2034 2713 
Q 2441 2713 2670 2916 
Q 2900 3119 2900 3481 
Q 2900 3844 2670 4047 
Q 2441 4250 2034 4250 
Q 1625 4250 1398 4047 
Q 1172 3844 1172 3481 
z
" transform="scale(0.015625)"/>
       </defs>
       <use xlink:href="#DejaVuSans-38"/>
       <use xlink:href="#DejaVuSans-30" x="63.623047"/>
       <use xlink:href="#DejaVuSans-30" x="127.246094"/>
      </g>
     </g>
    </g>
    <g id="text_6">
     <!-- time (units of $\omega_\mathrm{r}^{-1}$) -->
     <g transform="translate(95.434318 147.126125) scale(0.1 -0.1)">
      <defs>
       <path id="DejaVuSans-74" d="M 1172 4494 
L 1172 3500 
L 2356 3500 
L 2356 3053 
L 1172 3053 
L 1172 1153 
Q 1172 725 1289 603 
Q 1406 481 1766 481 
L 2356 481 
L 2356 0 
L 1766 0 
Q 1100 0 847 248 
Q 594 497 594 1153 
L 594 3053 
L 172 3053 
L 172 3500 
L 594 3500 
L 594 4494 
L 1172 4494 
z
" transform="scale(0.015625)"/>
       <path id="DejaVuSans-69" d="M 603 3500 
L 1178 3500 
L 1178 0 
L 603 0 
L 603 3500 
z
M 603 4863 
L 1178 4863 
L 1178 4134 
L 603 4134 
L 603 4863 
z
" transform="scale(0.015625)"/>
       <path id="DejaVuSans-6d" d="M 3328 2828 
Q 3544 3216 3844 3400 
Q 4144 3584 4550 3584 
Q 5097 3584 5394 3201 
Q 5691 2819 5691 2113 
L 5691 0 
L 5113 0 
L 5113 2094 
Q 5113 2597 4934 2840 
Q 4756 3084 4391 3084 
Q 3944 3084 3684 2787 
Q 3425 2491 3425 1978 
L 3425 0 
L 2847 0 
L 2847 2094 
Q 2847 2600 2669 2842 
Q 2491 3084 2119 3084 
Q 1678 3084 1418 2786 
Q 1159 2488 1159 1978 
L 1159 0 
L 581 0 
L 581 3500 
L 1159 3500 
L 1159 2956 
Q 1356 3278 1631 3431 
Q 1906 3584 2284 3584 
Q 2666 3584 2933 3390 
Q 3200 3197 3328 2828 
z
" transform="scale(0.015625)"/>
       <path id="DejaVuSans-65" d="M 3597 1894 
L 3597 1613 
L 953 1613 
Q 991 1019 1311 708 
Q 1631 397 2203 397 
Q 2534 397 2845 478 
Q 3156 559 3463 722 
L 3463 178 
Q 3153 47 2828 -22 
Q 2503 -91 2169 -91 
Q 1331 -91 842 396 
Q 353 884 353 1716 
Q 353 2575 817 3079 
Q 1281 3584 2069 3584 
Q 2775 3584 3186 3129 
Q 3597 2675 3597 1894 
z
M 3022 2063 
Q 3016 2534 2758 2815 
Q 2500 3097 2075 3097 
Q 1594 3097 1305 2825 
Q 1016 2553 972 2059 
L 3022 2063 
z
" transform="scale(0.015625)"/>
       <path id="DejaVuSans-20" transform="scale(0.015625)"/>
       <path id="DejaVuSans-28" d="M 1984 4856 
Q 1566 4138 1362 3434 
Q 1159 2731 1159 2009 
Q 1159 1288 1364 580 
Q 1569 -128 1984 -844 
L 1484 -844 
Q 1016 -109 783 600 
Q 550 1309 550 2009 
Q 550 2706 781 3412 
Q 1013 4119 1484 4856 
L 1984 4856 
z
" transform="scale(0.015625)"/>
       <path id="DejaVuSans-75" d="M 544 1381 
L 544 3500 
L 1119 3500 
L 1119 1403 
Q 1119 906 1312 657 
Q 1506 409 1894 409 
Q 2359 409 2629 706 
Q 2900 1003 2900 1516 
L 2900 3500 
L 3475 3500 
L 3475 0 
L 2900 0 
L 2900 538 
Q 2691 219 2414 64 
Q 2138 -91 1772 -91 
Q 1169 -91 856 284 
Q 544 659 544 1381 
z
M 1991 3584 
L 1991 3584 
z
" transform="scale(0.015625)"/>
       <path id="DejaVuSans-6e" d="M 3513 2113 
L 3513 0 
L 2938 0 
L 2938 2094 
Q 2938 2591 2744 2837 
Q 2550 3084 2163 3084 
Q 1697 3084 1428 2787 
Q 1159 2491 1159 1978 
L 1159 0 
L 581 0 
L 581 3500 
L 1159 3500 
L 1159 2956 
Q 1366 3272 1645 3428 
Q 1925 3584 2291 3584 
Q 2894 3584 3203 3211 
Q 3513 2838 3513 2113 
z
" transform="scale(0.015625)"/>
       <path id="DejaVuSans-73" d="M 2834 3397 
L 2834 2853 
Q 2591 2978 2328 3040 
Q 2066 3103 1784 3103 
Q 1356 3103 1142 2972 
Q 928 2841 928 2578 
Q 928 2378 1081 2264 
Q 1234 2150 1697 2047 
L 1894 2003 
Q 2506 1872 2764 1633 
Q 3022 1394 3022 966 
Q 3022 478 2636 193 
Q 2250 -91 1575 -91 
Q 1294 -91 989 -36 
Q 684 19 347 128 
L 347 722 
Q 666 556 975 473 
Q 1284 391 1588 391 
Q 1994 391 2212 530 
Q 2431 669 2431 922 
Q 2431 1156 2273 1281 
Q 2116 1406 1581 1522 
L 1381 1569 
Q 847 1681 609 1914 
Q 372 2147 372 2553 
Q 372 3047 722 3315 
Q 1072 3584 1716 3584 
Q 2034 3584 2315 3537 
Q 2597 3491 2834 3397 
z
" transform="scale(0.015625)"/>
       <path id="DejaVuSans-6f" d="M 1959 3097 
Q 1497 3097 1228 2736 
Q 959 2375 959 1747 
Q 959 1119 1226 758 
Q 1494 397 1959 397 
Q 2419 397 2687 759 
Q 2956 1122 2956 1747 
Q 2956 2369 2687 2733 
Q 2419 3097 1959 3097 
z
M 1959 3584 
Q 2709 3584 3137 3096 
Q 3566 2609 3566 1747 
Q 3566 888 3137 398 
Q 2709 -91 1959 -91 
Q 1206 -91 779 398 
Q 353 888 353 1747 
Q 353 2609 779 3096 
Q 1206 3584 1959 3584 
z
" transform="scale(0.015625)"/>
       <path id="DejaVuSans-66" d="M 2375 4863 
L 2375 4384 
L 1825 4384 
Q 1516 4384 1395 4259 
Q 1275 4134 1275 3809 
L 1275 3500 
L 2222 3500 
L 2222 3053 
L 1275 3053 
L 1275 0 
L 697 0 
L 697 3053 
L 147 3053 
L 147 3500 
L 697 3500 
L 697 3744 
Q 697 4328 969 4595 
Q 1241 4863 1831 4863 
L 2375 4863 
z
" transform="scale(0.015625)"/>
       <path id="DejaVuSans-Oblique-3c9" d="M 1369 -91 
Q 72 -91 434 1766 
Q 575 2500 1256 3500 
L 1875 3500 
Q 1231 2500 1088 1750 
Q 819 397 1519 397 
Q 2166 397 2478 2078 
L 3009 2078 
Q 2669 388 3316 397 
Q 4013 403 4275 1750 
Q 4419 2500 4169 3500 
L 4788 3500 
Q 5075 2500 4934 1766 
Q 4578 -94 3278 -91 
Q 2428 -88 2503 844 
Q 2194 -91 1369 -91 
z
" transform="scale(0.015625)"/>
       <path id="DejaVuSans-2212" d="M 678 2272 
L 4684 2272 
L 4684 1741 
L 678 1741 
L 678 2272 
z
" transform="scale(0.015625)"/>
       <path id="DejaVuSans-31" d="M 794 531 
L 1825 531 
L 1825 4091 
L 703 3866 
L 703 4441 
L 1819 4666 
L 2450 4666 
L 2450 531 
L 3481 531 
L 3481 0 
L 794 0 
L 794 531 
z
" transform="scale(0.015625)"/>
       <path id="DejaVuSans-72" d="M 2631 2963 
Q 2534 3019 2420 3045 
Q 2306 3072 2169 3072 
Q 1681 3072 1420 2755 
Q 1159 2438 1159 1844 
L 1159 0 
L 581 0 
L 581 3500 
L 1159 3500 
L 1159 2956 
Q 1341 3275 1631 3429 
Q 1922 3584 2338 3584 
Q 2397 3584 2469 3576 
Q 2541 3569 2628 3553 
L 2631 2963 
z
" transform="scale(0.015625)"/>
       <path id="DejaVuSans-29" d="M 513 4856 
L 1013 4856 
Q 1481 4119 1714 3412 
Q 1947 2706 1947 2009 
Q 1947 1309 1714 600 
Q 1481 -109 1013 -844 
L 513 -844 
Q 928 -128 1133 580 
Q 1338 1288 1338 2009 
Q 1338 2731 1133 3434 
Q 928 4138 513 4856 
z
" transform="scale(0.015625)"/>
      </defs>
      <use xlink:href="#DejaVuSans-74" transform="translate(0 0.684375)"/>
      <use xlink:href="#DejaVuSans-69" transform="translate(39.208984 0.684375)"/>
      <use xlink:href="#DejaVuSans-6d" transform="translate(66.992188 0.684375)"/>
      <use xlink:href="#DejaVuSans-65" transform="translate(164.404297 0.684375)"/>
      <use xlink:href="#DejaVuSans-20" transform="translate(225.927734 0.684375)"/>
      <use xlink:href="#DejaVuSans-28" transform="translate(257.714844 0.684375)"/>
      <use xlink:href="#DejaVuSans-75" transform="translate(296.728516 0.684375)"/>
      <use xlink:href="#DejaVuSans-6e" transform="translate(360.107422 0.684375)"/>
      <use xlink:href="#DejaVuSans-69" transform="translate(423.486328 0.684375)"/>
      <use xlink:href="#DejaVuSans-74" transform="translate(451.269531 0.684375)"/>
      <use xlink:href="#DejaVuSans-73" transform="translate(490.478516 0.684375)"/>
      <use xlink:href="#DejaVuSans-20" transform="translate(542.578125 0.684375)"/>
      <use xlink:href="#DejaVuSans-6f" transform="translate(574.365234 0.684375)"/>
      <use xlink:href="#DejaVuSans-66" transform="translate(635.546875 0.684375)"/>
      <use xlink:href="#DejaVuSans-20" transform="translate(670.751953 0.684375)"/>
      <use xlink:href="#DejaVuSans-Oblique-3c9" transform="translate(702.539062 0.684375)"/>
      <use xlink:href="#DejaVuSans-2212" transform="translate(790.745443 38.965625) scale(0.7)"/>
      <use xlink:href="#DejaVuSans-31" transform="translate(849.397786 38.965625) scale(0.7)"/>
      <use xlink:href="#DejaVuSans-72" transform="translate(786.279297 -26.659375) scale(0.7)"/>
      <use xlink:href="#DejaVuSans-29" transform="translate(896.668294 0.684375)"/>
     </g>
    </g>
   </g>
   <g id="matplotlib.axis_2">
    <g id="ytick_1">
     <g id="line2d_6">
      <defs>
       <path id="m51f792f4f1" d="M 0 0 
L -3.5 0 
" style="stroke: #000000; stroke-width: 0.8"/>
      </defs>
      <g>
       <use xlink:href="#m51f792f4f1" x="51.43" y="107.005526" style="stroke: #000000; stroke-width: 0.8"/>
      </g>
     </g>
     <g id="text_7">
      <!-- 100 -->
      <g transform="translate(25.3425 110.804745) scale(0.1 -0.1)">
       <use xlink:href="#DejaVuSans-31"/>
       <use xlink:href="#DejaVuSans-30" x="63.623047"/>
       <use xlink:href="#DejaVuSans-30" x="127.246094"/>
      </g>
     </g>
    </g>
    <g id="ytick_2">
     <g id="line2d_7">
      <g>
       <use xlink:href="#m51f792f4f1" x="51.43" y="74.24843" style="stroke: #000000; stroke-width: 0.8"/>
      </g>
     </g>
     <g id="text_8">
      <!-- 200 -->
      <g transform="translate(25.3425 78.047649) scale(0.1 -0.1)">
       <use xlink:href="#DejaVuSans-32"/>
       <use xlink:href="#DejaVuSans-30" x="63.623047"/>
       <use xlink:href="#DejaVuSans-30" x="127.246094"/>
      </g>
     </g>
    </g>
    <g id="ytick_3">
     <g id="line2d_8">
      <g>
       <use xlink:href="#m51f792f4f1" x="51.43" y="41.491334" style="stroke: #000000; stroke-width: 0.8"/>
      </g>
     </g>
     <g id="text_9">
      <!-- 300 -->
      <g transform="translate(25.3425 45.290553) scale(0.1 -0.1)">
       <defs>
        <path id="DejaVuSans-33" d="M 2597 2516 
Q 3050 2419 3304 2112 
Q 3559 1806 3559 1356 
Q 3559 666 3084 287 
Q 2609 -91 1734 -91 
Q 1441 -91 1130 -33 
Q 819 25 488 141 
L 488 750 
Q 750 597 1062 519 
Q 1375 441 1716 441 
Q 2309 441 2620 675 
Q 2931 909 2931 1356 
Q 2931 1769 2642 2001 
Q 2353 2234 1838 2234 
L 1294 2234 
L 1294 2753 
L 1863 2753 
Q 2328 2753 2575 2939 
Q 2822 3125 2822 3475 
Q 2822 3834 2567 4026 
Q 2313 4219 1838 4219 
Q 1578 4219 1281 4162 
Q 984 4106 628 3988 
L 628 4550 
Q 988 4650 1302 4700 
Q 1616 4750 1894 4750 
Q 2613 4750 3031 4423 
Q 3450 4097 3450 3541 
Q 3450 3153 3228 2886 
Q 3006 2619 2597 2516 
z
" transform="scale(0.015625)"/>
       </defs>
       <use xlink:href="#DejaVuSans-33"/>
       <use xlink:href="#DejaVuSans-30" x="63.623047"/>
       <use xlink:href="#DejaVuSans-30" x="127.246094"/>
      </g>
     </g>
    </g>
    <g id="text_10">
     <!-- kinetic energy (units of $\hbar\omega_\mathrm{r}$) -->
     <g transform="translate(21.7425 136.124) rotate(-90) scale(0.1 -0.1)">
      <defs>
       <path id="DejaVuSans-6b" d="M 581 4863 
L 1159 4863 
L 1159 1991 
L 2875 3500 
L 3609 3500 
L 1753 1863 
L 3688 0 
L 2938 0 
L 1159 1709 
L 1159 0 
L 581 0 
L 581 4863 
z
" transform="scale(0.015625)"/>
       <path id="DejaVuSans-63" d="M 3122 3366 
L 3122 2828 
Q 2878 2963 2633 3030 
Q 2388 3097 2138 3097 
Q 1578 3097 1268 2742 
Q 959 2388 959 1747 
Q 959 1106 1268 751 
Q 1578 397 2138 397 
Q 2388 397 2633 464 
Q 2878 531 3122 666 
L 3122 134 
Q 2881 22 2623 -34 
Q 2366 -91 2075 -91 
Q 1284 -91 818 406 
Q 353 903 353 1747 
Q 353 2603 823 3093 
Q 1294 3584 2113 3584 
Q 2378 3584 2631 3529 
Q 2884 3475 3122 3366 
z
" transform="scale(0.015625)"/>
       <path id="DejaVuSans-67" d="M 2906 1791 
Q 2906 2416 2648 2759 
Q 2391 3103 1925 3103 
Q 1463 3103 1205 2759 
Q 947 2416 947 1791 
Q 947 1169 1205 825 
Q 1463 481 1925 481 
Q 2391 481 2648 825 
Q 2906 1169 2906 1791 
z
M 3481 434 
Q 3481 -459 3084 -895 
Q 2688 -1331 1869 -1331 
Q 1566 -1331 1297 -1286 
Q 1028 -1241 775 -1147 
L 775 -588 
Q 1028 -725 1275 -790 
Q 1522 -856 1778 -856 
Q 2344 -856 2625 -561 
Q 2906 -266 2906 331 
L 2906 616 
Q 2728 306 2450 153 
Q 2172 0 1784 0 
Q 1141 0 747 490 
Q 353 981 353 1791 
Q 353 2603 747 3093 
Q 1141 3584 1784 3584 
Q 2172 3584 2450 3431 
Q 2728 3278 2906 2969 
L 2906 3500 
L 3481 3500 
L 3481 434 
z
" transform="scale(0.015625)"/>
       <path id="DejaVuSans-79" d="M 2059 -325 
Q 1816 -950 1584 -1140 
Q 1353 -1331 966 -1331 
L 506 -1331 
L 506 -850 
L 844 -850 
Q 1081 -850 1212 -737 
Q 1344 -625 1503 -206 
L 1606 56 
L 191 3500 
L 800 3500 
L 1894 763 
L 2988 3500 
L 3597 3500 
L 2059 -325 
z
" transform="scale(0.015625)"/>
       <path id="DejaVuSans-Oblique-127" d="M 3634 2113 
L 3225 0 
L 2650 0 
L 3056 2094 
Q 3094 2291 3094 2450 
Q 3094 2688 3006 2838 
Q 2863 3084 2475 3084 
Q 2009 3084 1681 2788 
Q 1356 2491 1256 1978 
L 872 0 
L 294 0 
L 1066 3969 
L 675 3969 
L 775 4481 
L 1166 4481 
L 1238 4863 
L 1816 4863 
L 1744 4481 
L 2844 4481 
L 2744 3969 
L 1644 3969 
L 1447 2956 
Q 1713 3272 2025 3428 
Q 2331 3584 2700 3584 
Q 3300 3584 3538 3213 
Q 3688 2975 3688 2606 
Q 3688 2381 3634 2113 
z
" transform="scale(0.015625)"/>
      </defs>
      <use xlink:href="#DejaVuSans-6b" transform="translate(0 0.015625)"/>
      <use xlink:href="#DejaVuSans-69" transform="translate(57.910156 0.015625)"/>
      <use xlink:href="#DejaVuSans-6e" transform="translate(85.693359 0.015625)"/>
      <use xlink:href="#DejaVuSans-65" transform="translate(149.072266 0.015625)"/>
      <use xlink:href="#DejaVuSans-74" transform="translate(210.595703 0.015625)"/>
      <use xlink:href="#DejaVuSans-69" transform="translate(249.804688 0.015625)"/>
      <use xlink:href="#DejaVuSans-63" transform="translate(277.587891 0.015625)"/>
      <use xlink:href="#DejaVuSans-20" transform="translate(332.568359 0.015625)"/>
      <use xlink:href="#DejaVuSans-65" transform="translate(364.355469 0.015625)"/>
      <use xlink:href="#DejaVuSans-6e" transform="translate(425.878906 0.015625)"/>
      <use xlink:href="#DejaVuSans-65" transform="translate(489.257812 0.015625)"/>
      <use xlink:href="#DejaVuSans-72" transform="translate(550.78125 0.015625)"/>
      <use xlink:href="#DejaVuSans-67" transform="translate(591.894531 0.015625)"/>
      <use xlink:href="#DejaVuSans-79" transform="translate(655.371094 0.015625)"/>
      <use xlink:href="#DejaVuSans-20" transform="translate(714.550781 0.015625)"/>
      <use xlink:href="#DejaVuSans-28" transform="translate(746.337891 0.015625)"/>
      <use xlink:href="#DejaVuSans-75" transform="translate(785.351562 0.015625)"/>
      <use xlink:href="#DejaVuSans-6e" transform="translate(848.730469 0.015625)"/>
      <use xlink:href="#DejaVuSans-69" transform="translate(912.109375 0.015625)"/>
      <use xlink:href="#DejaVuSans-74" transform="translate(939.892578 0.015625)"/>
      <use xlink:href="#DejaVuSans-73" transform="translate(979.101562 0.015625)"/>
      <use xlink:href="#DejaVuSans-20" transform="translate(1031.201172 0.015625)"/>
      <use xlink:href="#DejaVuSans-6f" transform="translate(1062.988281 0.015625)"/>
      <use xlink:href="#DejaVuSans-66" transform="translate(1124.169922 0.015625)"/>
      <use xlink:href="#DejaVuSans-20" transform="translate(1159.375 0.015625)"/>
      <use xlink:href="#DejaVuSans-Oblique-127" transform="translate(1191.162109 0.015625)"/>
      <use xlink:href="#DejaVuSans-Oblique-3c9" transform="translate(1260.644531 0.015625)"/>
      <use xlink:href="#DejaVuSans-72" transform="translate(1344.384766 -16.390625) scale(0.7)"/>
      <use xlink:href="#DejaVuSans-29" transform="translate(1375.898438 0.015625)"/>
     </g>
    </g>
   </g>
   <g id="line2d_9">
    <path d="M 59.684938 108.134368 
L 61.748673 95.805952 
L 63.812407 90.717525 
L 65.876142 82.548352 
L 67.939876 82.76805 
L 70.003611 79.776723 
L 72.067345 77.084467 
L 74.13108 77.580772 
L 76.194814 76.270471 
L 78.258549 74.705458 
L 80.322283 72.398253 
L 82.386018 72.857115 
L 84.449752 75.075614 
L 86.513487 74.013435 
L 88.577221 74.025495 
L 90.640956 73.208249 
L 92.70469 75.202585 
L 94.768425 74.258319 
L 96.832159 77.113278 
L 98.895894 78.526587 
L 100.959628 76.431094 
L 103.023363 75.197566 
L 105.087097 76.737848 
L 107.150832 76.257194 
L 109.214566 76.298951 
L 111.278301 77.831366 
L 113.342035 79.311864 
L 115.40577 80.314126 
L 117.469504 79.045025 
L 119.533239 79.084203 
L 121.596973 81.862629 
L 123.660708 81.797909 
L 125.724442 83.576079 
L 127.788177 84.425086 
L 129.851911 84.7522 
L 131.915646 85.669211 
L 133.97938 87.761057 
L 136.043115 89.052113 
L 138.106849 87.933461 
L 140.170584 87.955201 
L 142.234318 88.718507 
L 144.298053 86.269483 
L 146.361787 85.57744 
L 148.425522 87.579161 
L 150.489256 86.920765 
L 152.552991 88.419769 
L 154.616725 88.574716 
L 156.68046 89.450852 
L 158.744194 90.80707 
L 160.807929 92.265928 
L 162.871663 92.809389 
L 164.935398 93.372372 
L 166.999132 93.009608 
L 169.062867 92.725836 
L 171.126601 92.211175 
L 173.190336 93.981014 
L 175.25407 95.759483 
L 177.317805 95.354299 
L 179.381539 93.955726 
L 181.445274 92.566358 
L 183.509008 94.15059 
L 185.572743 95.280926 
L 187.636477 93.098195 
L 189.700212 94.074538 
L 191.763946 95.002257 
L 193.827681 95.347572 
L 195.891415 96.057228 
L 197.95515 96.546236 
L 200.018884 95.724584 
L 202.082619 95.403985 
L 204.146353 95.752445 
L 206.210088 95.643132 
L 208.273822 96.140081 
L 210.337557 96.04636 
L 212.401291 95.196383 
L 214.465026 95.027756 
L 216.52876 95.578515 
L 218.592495 95.516255 
L 220.656229 95.869495 
L 222.719964 93.675106 
L 224.783698 94.106869 
" clip-path="url(#p92c5b56d40)" style="fill: none; stroke: #d62728; stroke-width: 1.5; stroke-linecap: square"/>
   </g>
   <g id="patch_3">
    <path d="M 51.43 119.948 
L 51.43 10.8 
" style="fill: none; stroke: #000000; stroke-width: 0.8; stroke-linejoin: miter; stroke-linecap: square"/>
   </g>
   <g id="patch_4">
    <path d="M 233.038636 119.948 
L 233.038636 10.8 
" style="fill: none; stroke: #000000; stroke-width: 0.8; stroke-linejoin: miter; stroke-linecap: square"/>
   </g>
   <g id="patch_5">
    <path d="M 51.43 119.948 
L 233.038636 119.948 
" style="fill: none; stroke: #000000; stroke-width: 0.8; stroke-linejoin: miter; stroke-linecap: square"/>
   </g>
   <g id="patch_6">
    <path d="M 51.43 10.8 
L 233.038636 10.8 
" style="fill: none; stroke: #000000; stroke-width: 0.8; stroke-linejoin: miter; stroke-linecap: square"/>
   </g>
  </g>
 </g>
 <defs>
  <clipPath id="p92c5b56d40">
   <rect x="51.43" y="10.8" width="181.608636" height="109.148"/>
  </clipPath>
 </defs>
</svg>
