<?xml version="1.0" encoding="utf-8" standalone="no"?>
<!DOCTYPE svg PUBLIC "-//W3C//DTD SVG 1.1//EN"
  "http://www.w3.org/Graphics/SVG/1.1/DTD/svg11.dtd">
<svg xmlns:xlink="http://www.w3.org/1999/xlink" width="302.4pt" height="187.2pt" viewBox="0 0 302.4 187.2" xmlns="http://www.w3.org/2000/svg" version="1.1">
 <metadata>
  <rdf:RDF xmlns:dc="http://purl.org/dc/elements/1.1/" xmlns:cc="http://creativecommons.org/ns#" xmlns:rdf="http://www.w3.org/1999/02/22-rdf-syntax-ns#">
   <cc:Work>
    <dc:type rdf:resource="http://purl.org/dc/dcmitype/StillImage"/>
    <dc:date>2023-11-28T12:35:19.834144</dc:date>
    <dc:format>image/svg+xml</dc:format>
    <dc:creator>
     <cc:Agent>
      <dc:title>Matplotlib v3.7.1, https://matplotlib.org/</dc:title>
     </cc:Agent>
    </dc:creator>
   </cc:Work>
  </rdf:RDF>
 </metadata>
 <defs>
  <style type="text/css">*{stroke-linejoin: round; stroke-linecap: butt}</style>
 </defs>
 <g id="figure_1">
  <g id="patch_1">
   <path d="M 0 187.2 
L 302.4 187.2 
L 302.4 0 
L 0 0 
z
" style="fill: #ffffff"/>
  </g>
  <g id="axes_1">
   <g id="patch_2">
    <path d="M 45.81 144.36 
L 291.6 144.36 
L 291.6 10.8 
L 45.81 10.8 
z
" style="fill: #ffffff"/>
   </g>
   <g id="matplotlib.axis_1">
    <g id="xtick_1">
     <g id="line2d_1">
      <defs>
       <path id="ma665a655a7" d="M 0 0 
L 0 3.5 
" style="stroke: #000000; stroke-width: 0.8"/>
      </defs>
      <g>
       <use xlink:href="#ma665a655a7" x="56.982273" y="144.36" style="stroke: #000000; stroke-width: 0.8"/>
      </g>
     </g>
     <g id="text_1">
      <!-- 0.0 -->
      <g transform="translate(49.03071 158.958438) scale(0.1 -0.1)">
       <defs>
        <path id="DejaVuSans-30" d="M 2034 4250 
Q 1547 4250 1301 3770 
Q 1056 3291 1056 2328 
Q 1056 1369 1301 889 
Q 1547 409 2034 409 
Q 2525 409 2770 889 
Q 3016 1369 3016 2328 
Q 3016 3291 2770 3770 
Q 2525 4250 2034 4250 
z
M 2034 4750 
Q 2819 4750 3233 4129 
Q 3647 3509 3647 2328 
Q 3647 1150 3233 529 
Q 2819 -91 2034 -91 
Q 1250 -91 836 529 
Q 422 1150 422 2328 
Q 422 3509 836 4129 
Q 1250 4750 2034 4750 
z
" transform="scale(0.015625)"/>
        <path id="DejaVuSans-2e" d="M 684 794 
L 1344 794 
L 1344 0 
L 684 0 
L 684 794 
z
" transform="scale(0.015625)"/>
       </defs>
       <use xlink:href="#DejaVuSans-30"/>
       <use xlink:href="#DejaVuSans-2e" x="63.623047"/>
       <use xlink:href="#DejaVuSans-30" x="95.410156"/>
      </g>
     </g>
    </g>
    <g id="xtick_2">
     <g id="line2d_2">
      <g>
       <use xlink:href="#ma665a655a7" x="101.830968" y="144.36" style="stroke: #000000; stroke-width: 0.8"/>
      </g>
     </g>
     <g id="text_2">
      <!-- 0.2 -->
      <g transform="translate(93.879405 158.958438) scale(0.1 -0.1)">
       <defs>
        <path id="DejaVuSans-32" d="M 1228 531 
L 3431 531 
L 3431 0 
L 469 0 
L 469 531 
Q 828 903 1448 1529 
Q 2069 2156 2228 2338 
Q 2531 2678 2651 2914 
Q 2772 3150 2772 3378 
Q 2772 3750 2511 3984 
Q 2250 4219 1831 4219 
Q 1534 4219 1204 4116 
Q 875 4013 500 3803 
L 500 4441 
Q 881 4594 1212 4672 
Q 1544 4750 1819 4750 
Q 2544 4750 2975 4387 
Q 3406 4025 3406 3419 
Q 3406 3131 3298 2873 
Q 3191 2616 2906 2266 
Q 2828 2175 2409 1742 
Q 1991 1309 1228 531 
z
" transform="scale(0.015625)"/>
       </defs>
       <use xlink:href="#DejaVuSans-30"/>
       <use xlink:href="#DejaVuSans-2e" x="63.623047"/>
       <use xlink:href="#DejaVuSans-32" x="95.410156"/>
      </g>
     </g>
    </g>
    <g id="xtick_3">
     <g id="line2d_3">
      <g>
       <use xlink:href="#ma665a655a7" x="146.679662" y="144.36" style="stroke: #000000; stroke-width: 0.8"/>
      </g>
     </g>
     <g id="text_3">
      <!-- 0.4 -->
      <g transform="translate(138.7281 158.958438) scale(0.1 -0.1)">
       <defs>
        <path id="DejaVuSans-34" d="M 2419 4116 
L 825 1625 
L 2419 1625 
L 2419 4116 
z
M 2253 4666 
L 3047 4666 
L 3047 1625 
L 3713 1625 
L 3713 1100 
L 3047 1100 
L 3047 0 
L 2419 0 
L 2419 1100 
L 313 1100 
L 313 1709 
L 2253 4666 
z
" transform="scale(0.015625)"/>
       </defs>
       <use xlink:href="#DejaVuSans-30"/>
       <use xlink:href="#DejaVuSans-2e" x="63.623047"/>
       <use xlink:href="#DejaVuSans-34" x="95.410156"/>
      </g>
     </g>
    </g>
    <g id="xtick_4">
     <g id="line2d_4">
      <g>
       <use xlink:href="#ma665a655a7" x="191.528357" y="144.36" style="stroke: #000000; stroke-width: 0.8"/>
      </g>
     </g>
     <g id="text_4">
      <!-- 0.6 -->
      <g transform="translate(183.576795 158.958438) scale(0.1 -0.1)">
       <defs>
        <path id="DejaVuSans-36" d="M 2113 2584 
Q 1688 2584 1439 2293 
Q 1191 2003 1191 1497 
Q 1191 994 1439 701 
Q 1688 409 2113 409 
Q 2538 409 2786 701 
Q 3034 994 3034 1497 
Q 3034 2003 2786 2293 
Q 2538 2584 2113 2584 
z
M 3366 4563 
L 3366 3988 
Q 3128 4100 2886 4159 
Q 2644 4219 2406 4219 
Q 1781 4219 1451 3797 
Q 1122 3375 1075 2522 
Q 1259 2794 1537 2939 
Q 1816 3084 2150 3084 
Q 2853 3084 3261 2657 
Q 3669 2231 3669 1497 
Q 3669 778 3244 343 
Q 2819 -91 2113 -91 
Q 1303 -91 875 529 
Q 447 1150 447 2328 
Q 447 3434 972 4092 
Q 1497 4750 2381 4750 
Q 2619 4750 2861 4703 
Q 3103 4656 3366 4563 
z
" transform="scale(0.015625)"/>
       </defs>
       <use xlink:href="#DejaVuSans-30"/>
       <use xlink:href="#DejaVuSans-2e" x="63.623047"/>
       <use xlink:href="#DejaVuSans-36" x="95.410156"/>
      </g>
     </g>
    </g>
    <g id="xtick_5">
     <g id="line2d_5">
      <g>
       <use xlink:href="#ma665a655a7" x="236.377052" y="144.36" style="stroke: #000000; stroke-width: 0.8"/>
      </g>
     </g>
     <g id="text_5">
      <!-- 0.8 -->
      <g transform="translate(228.425489 158.958438) scale(0.1 -0.1)">
       <defs>
        <path id="DejaVuSans-38" d="M 2034 2216 
Q 1584 2216 1326 1975 
Q 1069 1734 1069 1313 
Q 1069 891 1326 650 
Q 1584 409 2034 409 
Q 2484 409 2743 651 
Q 3003 894 3003 1313 
Q 3003 1734 2745 1975 
Q 2488 2216 2034 2216 
z
M 1403 2484 
Q 997 2584 770 2862 
Q 544 3141 544 3541 
Q 544 4100 942 4425 
Q 1341 4750 2034 4750 
Q 2731 4750 3128 4425 
Q 3525 4100 3525 3541 
Q 3525 3141 3298 2862 
Q 3072 2584 2669 2484 
Q 3125 2378 3379 2068 
Q 3634 1759 3634 1313 
Q 3634 634 3220 271 
Q 2806 -91 2034 -91 
Q 1263 -91 848 271 
Q 434 634 434 1313 
Q 434 1759 690 2068 
Q 947 2378 1403 2484 
z
M 1172 3481 
Q 1172 3119 1398 2916 
Q 1625 2713 2034 2713 
Q 2441 2713 2670 2916 
Q 2900 3119 2900 3481 
Q 2900 3844 2670 4047 
Q 2441 4250 2034 4250 
Q 1625 4250 1398 4047 
Q 1172 3844 1172 3481 
z
" transform="scale(0.015625)"/>
       </defs>
       <use xlink:href="#DejaVuSans-30"/>
       <use xlink:href="#DejaVuSans-2e" x="63.623047"/>
       <use xlink:href="#DejaVuSans-38" x="95.410156"/>
      </g>
     </g>
    </g>
    <g id="xtick_6">
     <g id="line2d_6">
      <g>
       <use xlink:href="#ma665a655a7" x="281.225747" y="144.36" style="stroke: #000000; stroke-width: 0.8"/>
      </g>
     </g>
     <g id="text_6">
      <!-- 1.0 -->
      <g transform="translate(273.274184 158.958438) scale(0.1 -0.1)">
       <defs>
        <path id="DejaVuSans-31" d="M 794 531 
L 1825 531 
L 1825 4091 
L 703 3866 
L 703 4441 
L 1819 4666 
L 2450 4666 
L 2450 531 
L 3481 531 
L 3481 0 
L 794 0 
L 794 531 
z
" transform="scale(0.015625)"/>
       </defs>
       <use xlink:href="#DejaVuSans-31"/>
       <use xlink:href="#DejaVuSans-2e" x="63.623047"/>
       <use xlink:href="#DejaVuSans-30" x="95.410156"/>
      </g>
     </g>
    </g>
    <g id="text_7">
     <!-- atom position mod $\lambda_\mathrm{c}$ (units of $\lambda_\mathrm{c}$) -->
     <g transform="translate(84.205 170.638125) scale(0.1 -0.1)">
      <defs>
       <path id="DejaVuSans-61" d="M 2194 1759 
Q 1497 1759 1228 1600 
Q 959 1441 959 1056 
Q 959 750 1161 570 
Q 1363 391 1709 391 
Q 2188 391 2477 730 
Q 2766 1069 2766 1631 
L 2766 1759 
L 2194 1759 
z
M 3341 1997 
L 3341 0 
L 2766 0 
L 2766 531 
Q 2569 213 2275 61 
Q 1981 -91 1556 -91 
Q 1019 -91 701 211 
Q 384 513 384 1019 
Q 384 1609 779 1909 
Q 1175 2209 1959 2209 
L 2766 2209 
L 2766 2266 
Q 2766 2663 2505 2880 
Q 2244 3097 1772 3097 
Q 1472 3097 1187 3025 
Q 903 2953 641 2809 
L 641 3341 
Q 956 3463 1253 3523 
Q 1550 3584 1831 3584 
Q 2591 3584 2966 3190 
Q 3341 2797 3341 1997 
z
" transform="scale(0.015625)"/>
       <path id="DejaVuSans-74" d="M 1172 4494 
L 1172 3500 
L 2356 3500 
L 2356 3053 
L 1172 3053 
L 1172 1153 
Q 1172 725 1289 603 
Q 1406 481 1766 481 
L 2356 481 
L 2356 0 
L 1766 0 
Q 1100 0 847 248 
Q 594 497 594 1153 
L 594 3053 
L 172 3053 
L 172 3500 
L 594 3500 
L 594 4494 
L 1172 4494 
z
" transform="scale(0.015625)"/>
       <path id="DejaVuSans-6f" d="M 1959 3097 
Q 1497 3097 1228 2736 
Q 959 2375 959 1747 
Q 959 1119 1226 758 
Q 1494 397 1959 397 
Q 2419 397 2687 759 
Q 2956 1122 2956 1747 
Q 2956 2369 2687 2733 
Q 2419 3097 1959 3097 
z
M 1959 3584 
Q 2709 3584 3137 3096 
Q 3566 2609 3566 1747 
Q 3566 888 3137 398 
Q 2709 -91 1959 -91 
Q 1206 -91 779 398 
Q 353 888 353 1747 
Q 353 2609 779 3096 
Q 1206 3584 1959 3584 
z
" transform="scale(0.015625)"/>
       <path id="DejaVuSans-6d" d="M 3328 2828 
Q 3544 3216 3844 3400 
Q 4144 3584 4550 3584 
Q 5097 3584 5394 3201 
Q 5691 2819 5691 2113 
L 5691 0 
L 5113 0 
L 5113 2094 
Q 5113 2597 4934 2840 
Q 4756 3084 4391 3084 
Q 3944 3084 3684 2787 
Q 3425 2491 3425 1978 
L 3425 0 
L 2847 0 
L 2847 2094 
Q 2847 2600 2669 2842 
Q 2491 3084 2119 3084 
Q 1678 3084 1418 2786 
Q 1159 2488 1159 1978 
L 1159 0 
L 581 0 
L 581 3500 
L 1159 3500 
L 1159 2956 
Q 1356 3278 1631 3431 
Q 1906 3584 2284 3584 
Q 2666 3584 2933 3390 
Q 3200 3197 3328 2828 
z
" transform="scale(0.015625)"/>
       <path id="DejaVuSans-20" transform="scale(0.015625)"/>
       <path id="DejaVuSans-70" d="M 1159 525 
L 1159 -1331 
L 581 -1331 
L 581 3500 
L 1159 3500 
L 1159 2969 
Q 1341 3281 1617 3432 
Q 1894 3584 2278 3584 
Q 2916 3584 3314 3078 
Q 3713 2572 3713 1747 
Q 3713 922 3314 415 
Q 2916 -91 2278 -91 
Q 1894 -91 1617 61 
Q 1341 213 1159 525 
z
M 3116 1747 
Q 3116 2381 2855 2742 
Q 2594 3103 2138 3103 
Q 1681 3103 1420 2742 
Q 1159 2381 1159 1747 
Q 1159 1113 1420 752 
Q 1681 391 2138 391 
Q 2594 391 2855 752 
Q 3116 1113 3116 1747 
z
" transform="scale(0.015625)"/>
       <path id="DejaVuSans-73" d="M 2834 3397 
L 2834 2853 
Q 2591 2978 2328 3040 
Q 2066 3103 1784 3103 
Q 1356 3103 1142 2972 
Q 928 2841 928 2578 
Q 928 2378 1081 2264 
Q 1234 2150 1697 2047 
L 1894 2003 
Q 2506 1872 2764 1633 
Q 3022 1394 3022 966 
Q 3022 478 2636 193 
Q 2250 -91 1575 -91 
Q 1294 -91 989 -36 
Q 684 19 347 128 
L 347 722 
Q 666 556 975 473 
Q 1284 391 1588 391 
Q 1994 391 2212 530 
Q 2431 669 2431 922 
Q 2431 1156 2273 1281 
Q 2116 1406 1581 1522 
L 1381 1569 
Q 847 1681 609 1914 
Q 372 2147 372 2553 
Q 372 3047 722 3315 
Q 1072 3584 1716 3584 
Q 2034 3584 2315 3537 
Q 2597 3491 2834 3397 
z
" transform="scale(0.015625)"/>
       <path id="DejaVuSans-69" d="M 603 3500 
L 1178 3500 
L 1178 0 
L 603 0 
L 603 3500 
z
M 603 4863 
L 1178 4863 
L 1178 4134 
L 603 4134 
L 603 4863 
z
" transform="scale(0.015625)"/>
       <path id="DejaVuSans-6e" d="M 3513 2113 
L 3513 0 
L 2938 0 
L 2938 2094 
Q 2938 2591 2744 2837 
Q 2550 3084 2163 3084 
Q 1697 3084 1428 2787 
Q 1159 2491 1159 1978 
L 1159 0 
L 581 0 
L 581 3500 
L 1159 3500 
L 1159 2956 
Q 1366 3272 1645 3428 
Q 1925 3584 2291 3584 
Q 2894 3584 3203 3211 
Q 3513 2838 3513 2113 
z
" transform="scale(0.015625)"/>
       <path id="DejaVuSans-64" d="M 2906 2969 
L 2906 4863 
L 3481 4863 
L 3481 0 
L 2906 0 
L 2906 525 
Q 2725 213 2448 61 
Q 2172 -91 1784 -91 
Q 1150 -91 751 415 
Q 353 922 353 1747 
Q 353 2572 751 3078 
Q 1150 3584 1784 3584 
Q 2172 3584 2448 3432 
Q 2725 3281 2906 2969 
z
M 947 1747 
Q 947 1113 1208 752 
Q 1469 391 1925 391 
Q 2381 391 2643 752 
Q 2906 1113 2906 1747 
Q 2906 2381 2643 2742 
Q 2381 3103 1925 3103 
Q 1469 3103 1208 2742 
Q 947 2381 947 1747 
z
" transform="scale(0.015625)"/>
       <path id="DejaVuSans-Oblique-3bb" d="M 2350 4316 
L 3125 0 
L 2516 0 
L 2038 2588 
L 328 0 
L -281 0 
L 1903 3356 
L 1794 3975 
Q 1725 4369 1391 4369 
L 1091 4369 
L 1184 4863 
L 1550 4856 
Q 2253 4847 2350 4316 
z
" transform="scale(0.015625)"/>
       <path id="DejaVuSans-63" d="M 3122 3366 
L 3122 2828 
Q 2878 2963 2633 3030 
Q 2388 3097 2138 3097 
Q 1578 3097 1268 2742 
Q 959 2388 959 1747 
Q 959 1106 1268 751 
Q 1578 397 2138 397 
Q 2388 397 2633 464 
Q 2878 531 3122 666 
L 3122 134 
Q 2881 22 2623 -34 
Q 2366 -91 2075 -91 
Q 1284 -91 818 406 
Q 353 903 353 1747 
Q 353 2603 823 3093 
Q 1294 3584 2113 3584 
Q 2378 3584 2631 3529 
Q 2884 3475 3122 3366 
z
" transform="scale(0.015625)"/>
       <path id="DejaVuSans-28" d="M 1984 4856 
Q 1566 4138 1362 3434 
Q 1159 2731 1159 2009 
Q 1159 1288 1364 580 
Q 1569 -128 1984 -844 
L 1484 -844 
Q 1016 -109 783 600 
Q 550 1309 550 2009 
Q 550 2706 781 3412 
Q 1013 4119 1484 4856 
L 1984 4856 
z
" transform="scale(0.015625)"/>
       <path id="DejaVuSans-75" d="M 544 1381 
L 544 3500 
L 1119 3500 
L 1119 1403 
Q 1119 906 1312 657 
Q 1506 409 1894 409 
Q 2359 409 2629 706 
Q 2900 1003 2900 1516 
L 2900 3500 
L 3475 3500 
L 3475 0 
L 2900 0 
L 2900 538 
Q 2691 219 2414 64 
Q 2138 -91 1772 -91 
Q 1169 -91 856 284 
Q 544 659 544 1381 
z
M 1991 3584 
L 1991 3584 
z
" transform="scale(0.015625)"/>
       <path id="DejaVuSans-66" d="M 2375 4863 
L 2375 4384 
L 1825 4384 
Q 1516 4384 1395 4259 
Q 1275 4134 1275 3809 
L 1275 3500 
L 2222 3500 
L 2222 3053 
L 1275 3053 
L 1275 0 
L 697 0 
L 697 3053 
L 147 3053 
L 147 3500 
L 697 3500 
L 697 3744 
Q 697 4328 969 4595 
Q 1241 4863 1831 4863 
L 2375 4863 
z
" transform="scale(0.015625)"/>
       <path id="DejaVuSans-29" d="M 513 4856 
L 1013 4856 
Q 1481 4119 1714 3412 
Q 1947 2706 1947 2009 
Q 1947 1309 1714 600 
Q 1481 -109 1013 -844 
L 513 -844 
Q 928 -128 1133 580 
Q 1338 1288 1338 2009 
Q 1338 2731 1133 3434 
Q 928 4138 513 4856 
z
" transform="scale(0.015625)"/>
      </defs>
      <use xlink:href="#DejaVuSans-61" transform="translate(0 0.015625)"/>
      <use xlink:href="#DejaVuSans-74" transform="translate(61.279297 0.015625)"/>
      <use xlink:href="#DejaVuSans-6f" transform="translate(100.488281 0.015625)"/>
      <use xlink:href="#DejaVuSans-6d" transform="translate(161.669922 0.015625)"/>
      <use xlink:href="#DejaVuSans-20" transform="translate(259.082031 0.015625)"/>
      <use xlink:href="#DejaVuSans-70" transform="translate(290.869141 0.015625)"/>
      <use xlink:href="#DejaVuSans-6f" transform="translate(354.345703 0.015625)"/>
      <use xlink:href="#DejaVuSans-73" transform="translate(415.527344 0.015625)"/>
      <use xlink:href="#DejaVuSans-69" transform="translate(467.626953 0.015625)"/>
      <use xlink:href="#DejaVuSans-74" transform="translate(495.410156 0.015625)"/>
      <use xlink:href="#DejaVuSans-69" transform="translate(534.619141 0.015625)"/>
      <use xlink:href="#DejaVuSans-6f" transform="translate(562.402344 0.015625)"/>
      <use xlink:href="#DejaVuSans-6e" transform="translate(623.583984 0.015625)"/>
      <use xlink:href="#DejaVuSans-20" transform="translate(686.962891 0.015625)"/>
      <use xlink:href="#DejaVuSans-6d" transform="translate(718.75 0.015625)"/>
      <use xlink:href="#DejaVuSans-6f" transform="translate(816.162109 0.015625)"/>
      <use xlink:href="#DejaVuSans-64" transform="translate(877.34375 0.015625)"/>
      <use xlink:href="#DejaVuSans-20" transform="translate(940.820312 0.015625)"/>
      <use xlink:href="#DejaVuSans-Oblique-3bb" transform="translate(972.607422 0.015625)"/>
      <use xlink:href="#DejaVuSans-63" transform="translate(1031.787109 -16.390625) scale(0.7)"/>
      <use xlink:href="#DejaVuSans-20" transform="translate(1073.007812 0.015625)"/>
      <use xlink:href="#DejaVuSans-28" transform="translate(1104.794922 0.015625)"/>
      <use xlink:href="#DejaVuSans-75" transform="translate(1143.808594 0.015625)"/>
      <use xlink:href="#DejaVuSans-6e" transform="translate(1207.1875 0.015625)"/>
      <use xlink:href="#DejaVuSans-69" transform="translate(1270.566406 0.015625)"/>
      <use xlink:href="#DejaVuSans-74" transform="translate(1298.349609 0.015625)"/>
      <use xlink:href="#DejaVuSans-73" transform="translate(1337.558594 0.015625)"/>
      <use xlink:href="#DejaVuSans-20" transform="translate(1389.658203 0.015625)"/>
      <use xlink:href="#DejaVuSans-6f" transform="translate(1421.445312 0.015625)"/>
      <use xlink:href="#DejaVuSans-66" transform="translate(1482.626953 0.015625)"/>
      <use xlink:href="#DejaVuSans-20" transform="translate(1517.832031 0.015625)"/>
      <use xlink:href="#DejaVuSans-Oblique-3bb" transform="translate(1549.619141 0.015625)"/>
      <use xlink:href="#DejaVuSans-63" transform="translate(1608.798828 -16.390625) scale(0.7)"/>
      <use xlink:href="#DejaVuSans-29" transform="translate(1650.019531 0.015625)"/>
     </g>
    </g>
   </g>
   <g id="matplotlib.axis_2">
    <g id="ytick_1">
     <g id="line2d_7">
      <defs>
       <path id="mda5be128cc" d="M 0 0 
L -3.5 0 
" style="stroke: #000000; stroke-width: 0.8"/>
      </defs>
      <g>
       <use xlink:href="#mda5be128cc" x="45.81" y="143.058119" style="stroke: #000000; stroke-width: 0.8"/>
      </g>
     </g>
     <g id="text_8">
      <!-- 0.8 -->
      <g transform="translate(22.906875 146.857338) scale(0.1 -0.1)">
       <use xlink:href="#DejaVuSans-30"/>
       <use xlink:href="#DejaVuSans-2e" x="63.623047"/>
       <use xlink:href="#DejaVuSans-38" x="95.410156"/>
      </g>
     </g>
    </g>
    <g id="ytick_2">
     <g id="line2d_8">
      <g>
       <use xlink:href="#mda5be128cc" x="45.81" y="111.051218" style="stroke: #000000; stroke-width: 0.8"/>
      </g>
     </g>
     <g id="text_9">
      <!-- 0.9 -->
      <g transform="translate(22.906875 114.850436) scale(0.1 -0.1)">
       <defs>
        <path id="DejaVuSans-39" d="M 703 97 
L 703 672 
Q 941 559 1184 500 
Q 1428 441 1663 441 
Q 2288 441 2617 861 
Q 2947 1281 2994 2138 
Q 2813 1869 2534 1725 
Q 2256 1581 1919 1581 
Q 1219 1581 811 2004 
Q 403 2428 403 3163 
Q 403 3881 828 4315 
Q 1253 4750 1959 4750 
Q 2769 4750 3195 4129 
Q 3622 3509 3622 2328 
Q 3622 1225 3098 567 
Q 2575 -91 1691 -91 
Q 1453 -91 1209 -44 
Q 966 3 703 97 
z
M 1959 2075 
Q 2384 2075 2632 2365 
Q 2881 2656 2881 3163 
Q 2881 3666 2632 3958 
Q 2384 4250 1959 4250 
Q 1534 4250 1286 3958 
Q 1038 3666 1038 3163 
Q 1038 2656 1286 2365 
Q 1534 2075 1959 2075 
z
" transform="scale(0.015625)"/>
       </defs>
       <use xlink:href="#DejaVuSans-30"/>
       <use xlink:href="#DejaVuSans-2e" x="63.623047"/>
       <use xlink:href="#DejaVuSans-39" x="95.410156"/>
      </g>
     </g>
    </g>
    <g id="ytick_3">
     <g id="line2d_9">
      <g>
       <use xlink:href="#mda5be128cc" x="45.81" y="79.044316" style="stroke: #000000; stroke-width: 0.8"/>
      </g>
     </g>
     <g id="text_10">
      <!-- 1.0 -->
      <g transform="translate(22.906875 82.843535) scale(0.1 -0.1)">
       <use xlink:href="#DejaVuSans-31"/>
       <use xlink:href="#DejaVuSans-2e" x="63.623047"/>
       <use xlink:href="#DejaVuSans-30" x="95.410156"/>
      </g>
     </g>
    </g>
    <g id="ytick_4">
     <g id="line2d_10">
      <g>
       <use xlink:href="#mda5be128cc" x="45.81" y="47.037414" style="stroke: #000000; stroke-width: 0.8"/>
      </g>
     </g>
     <g id="text_11">
      <!-- 1.1 -->
      <g transform="translate(22.906875 50.836633) scale(0.1 -0.1)">
       <use xlink:href="#DejaVuSans-31"/>
       <use xlink:href="#DejaVuSans-2e" x="63.623047"/>
       <use xlink:href="#DejaVuSans-31" x="95.410156"/>
      </g>
     </g>
    </g>
    <g id="ytick_5">
     <g id="line2d_11">
      <g>
       <use xlink:href="#mda5be128cc" x="45.81" y="15.030512" style="stroke: #000000; stroke-width: 0.8"/>
      </g>
     </g>
     <g id="text_12">
      <!-- 1.2 -->
      <g transform="translate(22.906875 18.829731) scale(0.1 -0.1)">
       <use xlink:href="#DejaVuSans-31"/>
       <use xlink:href="#DejaVuSans-2e" x="63.623047"/>
       <use xlink:href="#DejaVuSans-32" x="95.410156"/>
      </g>
     </g>
    </g>
    <g id="text_13">
     <!-- distribution -->
     <g transform="translate(18.827188 106.072969) rotate(-90) scale(0.1 -0.1)">
      <defs>
       <path id="DejaVuSans-72" d="M 2631 2963 
Q 2534 3019 2420 3045 
Q 2306 3072 2169 3072 
Q 1681 3072 1420 2755 
Q 1159 2438 1159 1844 
L 1159 0 
L 581 0 
L 581 3500 
L 1159 3500 
L 1159 2956 
Q 1341 3275 1631 3429 
Q 1922 3584 2338 3584 
Q 2397 3584 2469 3576 
Q 2541 3569 2628 3553 
L 2631 2963 
z
" transform="scale(0.015625)"/>
       <path id="DejaVuSans-62" d="M 3116 1747 
Q 3116 2381 2855 2742 
Q 2594 3103 2138 3103 
Q 1681 3103 1420 2742 
Q 1159 2381 1159 1747 
Q 1159 1113 1420 752 
Q 1681 391 2138 391 
Q 2594 391 2855 752 
Q 3116 1113 3116 1747 
z
M 1159 2969 
Q 1341 3281 1617 3432 
Q 1894 3584 2278 3584 
Q 2916 3584 3314 3078 
Q 3713 2572 3713 1747 
Q 3713 922 3314 415 
Q 2916 -91 2278 -91 
Q 1894 -91 1617 61 
Q 1341 213 1159 525 
L 1159 0 
L 581 0 
L 581 4863 
L 1159 4863 
L 1159 2969 
z
" transform="scale(0.015625)"/>
      </defs>
      <use xlink:href="#DejaVuSans-64"/>
      <use xlink:href="#DejaVuSans-69" x="63.476562"/>
      <use xlink:href="#DejaVuSans-73" x="91.259766"/>
      <use xlink:href="#DejaVuSans-74" x="143.359375"/>
      <use xlink:href="#DejaVuSans-72" x="182.568359"/>
      <use xlink:href="#DejaVuSans-69" x="223.681641"/>
      <use xlink:href="#DejaVuSans-62" x="251.464844"/>
      <use xlink:href="#DejaVuSans-75" x="314.941406"/>
      <use xlink:href="#DejaVuSans-74" x="378.320312"/>
      <use xlink:href="#DejaVuSans-69" x="417.529297"/>
      <use xlink:href="#DejaVuSans-6f" x="445.3125"/>
      <use xlink:href="#DejaVuSans-6e" x="506.494141"/>
     </g>
    </g>
   </g>
   <g id="line2d_12">
    <path d="M 56.982273 41.604242 
L 57.780292 41.604242 
L 57.780292 82.07697 
L 58.578312 82.07697 
L 58.578312 101.189091 
L 59.376331 101.189091 
L 59.376331 71.958788 
L 60.174351 71.958788 
L 60.174351 75.331515 
L 60.97237 75.331515 
L 60.97237 97.816364 
L 61.77039 97.816364 
L 61.77039 84.325455 
L 62.568409 84.325455 
L 62.568409 91.070909 
L 63.366429 91.070909 
L 63.366429 68.586061 
L 64.164448 68.586061 
L 64.164448 51.722424 
L 64.962468 51.722424 
L 64.962468 58.467879 
L 65.760487 58.467879 
L 65.760487 104.561818 
L 66.558506 104.561818 
L 66.558506 71.958788 
L 67.356526 71.958788 
L 67.356526 77.58 
L 68.154545 77.58 
L 68.154545 92.195152 
L 68.952565 92.195152 
L 68.952565 78.704242 
L 69.750584 78.704242 
L 69.750584 76.455758 
L 70.548604 76.455758 
L 70.548604 55.095152 
L 71.346623 55.095152 
L 71.346623 96.692121 
L 72.144643 96.692121 
L 72.144643 116.928485 
L 72.942662 116.928485 
L 72.942662 96.692121 
L 73.740682 96.692121 
L 73.740682 67.461818 
L 74.538701 67.461818 
L 74.538701 85.449697 
L 75.336721 85.449697 
L 75.336721 61.840606 
L 76.13474 61.840606 
L 76.13474 104.561818 
L 76.93276 104.561818 
L 76.93276 57.343636 
L 77.730779 57.343636 
L 77.730779 92.195152 
L 78.528799 92.195152 
L 78.528799 85.449697 
L 79.326818 85.449697 
L 79.326818 84.325455 
L 80.124838 84.325455 
L 80.124838 69.710303 
L 80.922857 69.710303 
L 80.922857 89.946667 
L 81.720877 89.946667 
L 81.720877 86.573939 
L 82.518896 86.573939 
L 82.518896 96.692121 
L 83.316916 96.692121 
L 83.316916 102.313333 
L 84.114935 102.313333 
L 84.114935 92.195152 
L 84.912955 92.195152 
L 84.912955 76.455758 
L 85.710974 76.455758 
L 85.710974 65.213333 
L 86.508994 65.213333 
L 86.508994 129.295152 
L 87.307013 129.295152 
L 87.307013 67.461818 
L 88.105032 67.461818 
L 88.105032 74.207273 
L 88.903052 74.207273 
L 88.903052 98.940606 
L 89.701071 98.940606 
L 89.701071 89.946667 
L 90.499091 89.946667 
L 90.499091 64.089091 
L 91.29711 64.089091 
L 91.29711 80.952727 
L 92.09513 80.952727 
L 92.09513 82.07697 
L 92.893149 82.07697 
L 92.893149 104.561818 
L 93.691169 104.561818 
L 93.691169 77.58 
L 94.489188 77.58 
L 94.489188 113.555758 
L 95.287208 113.555758 
L 95.287208 93.319394 
L 96.085227 93.319394 
L 96.085227 94.443636 
L 96.883247 94.443636 
L 96.883247 88.822424 
L 97.681266 88.822424 
L 97.681266 111.307273 
L 98.479286 111.307273 
L 98.479286 31.486061 
L 99.277305 31.486061 
L 99.277305 105.686061 
L 100.075325 105.686061 
L 100.075325 68.586061 
L 100.873344 68.586061 
L 100.873344 78.704242 
L 101.671364 78.704242 
L 101.671364 61.840606 
L 102.469383 61.840606 
L 102.469383 64.089091 
L 103.267403 64.089091 
L 103.267403 57.343636 
L 104.065422 57.343636 
L 104.065422 106.810303 
L 104.863442 106.810303 
L 104.863442 100.064848 
L 105.661461 100.064848 
L 105.661461 73.08303 
L 106.459481 73.08303 
L 106.459481 52.846667 
L 107.2575 52.846667 
L 107.2575 70.834545 
L 108.055519 70.834545 
L 108.055519 68.586061 
L 108.853539 68.586061 
L 108.853539 77.58 
L 109.651558 77.58 
L 109.651558 80.952727 
L 110.449578 80.952727 
L 110.449578 119.17697 
L 111.247597 119.17697 
L 111.247597 16.870909 
L 112.045617 16.870909 
L 112.045617 109.058788 
L 112.843636 109.058788 
L 112.843636 77.58 
L 113.641656 77.58 
L 113.641656 118.052727 
L 114.439675 118.052727 
L 114.439675 85.449697 
L 115.237695 85.449697 
L 115.237695 87.698182 
L 116.035714 87.698182 
L 116.035714 113.555758 
L 116.833734 113.555758 
L 116.833734 53.970909 
L 117.631753 53.970909 
L 117.631753 75.331515 
L 118.429773 75.331515 
L 118.429773 101.189091 
L 119.227792 101.189091 
L 119.227792 56.219394 
L 120.025812 56.219394 
L 120.025812 119.17697 
L 120.823831 119.17697 
L 120.823831 100.064848 
L 121.621851 100.064848 
L 121.621851 51.722424 
L 122.41987 51.722424 
L 122.41987 64.089091 
L 123.21789 64.089091 
L 123.21789 71.958788 
L 124.015909 71.958788 
L 124.015909 85.449697 
L 124.813929 85.449697 
L 124.813929 104.561818 
L 125.611948 104.561818 
L 125.611948 106.810303 
L 126.409968 106.810303 
L 126.409968 101.189091 
L 127.207987 101.189091 
L 127.207987 91.070909 
L 128.006006 91.070909 
L 128.006006 66.337576 
L 128.804026 66.337576 
L 128.804026 74.207273 
L 129.602045 74.207273 
L 129.602045 88.822424 
L 130.400065 88.822424 
L 130.400065 74.207273 
L 131.198084 74.207273 
L 131.198084 98.940606 
L 131.996104 98.940606 
L 131.996104 67.461818 
L 132.794123 67.461818 
L 132.794123 114.68 
L 133.592143 114.68 
L 133.592143 57.343636 
L 134.390162 57.343636 
L 134.390162 76.455758 
L 135.188182 76.455758 
L 135.188182 94.443636 
L 135.986201 94.443636 
L 135.986201 106.810303 
L 136.784221 106.810303 
L 136.784221 77.58 
L 137.58224 77.58 
L 137.58224 95.567879 
L 138.38026 95.567879 
L 138.38026 59.592121 
L 139.178279 59.592121 
L 139.178279 40.48 
L 139.976299 40.48 
L 139.976299 58.467879 
L 140.774318 58.467879 
L 140.774318 60.716364 
L 141.572338 60.716364 
L 141.572338 84.325455 
L 142.370357 84.325455 
L 142.370357 83.201212 
L 143.966396 83.201212 
L 143.966396 93.319394 
L 144.764416 93.319394 
L 144.764416 59.592121 
L 145.562435 59.592121 
L 145.562435 73.08303 
L 146.360455 73.08303 
L 146.360455 79.828485 
L 147.158474 79.828485 
L 147.158474 97.816364 
L 147.956494 97.816364 
L 147.956494 102.313333 
L 148.754513 102.313333 
L 148.754513 78.704242 
L 149.552532 78.704242 
L 149.552532 66.337576 
L 150.350552 66.337576 
L 150.350552 62.964848 
L 151.148571 62.964848 
L 151.148571 92.195152 
L 151.946591 92.195152 
L 151.946591 93.319394 
L 152.74461 93.319394 
L 152.74461 109.058788 
L 153.54263 109.058788 
L 153.54263 76.455758 
L 154.340649 76.455758 
L 154.340649 58.467879 
L 155.138669 58.467879 
L 155.138669 75.331515 
L 155.936688 75.331515 
L 155.936688 92.195152 
L 156.734708 92.195152 
L 156.734708 103.437576 
L 157.532727 103.437576 
L 157.532727 96.692121 
L 158.330747 96.692121 
L 158.330747 33.734545 
L 159.128766 33.734545 
L 159.128766 94.443636 
L 159.926786 94.443636 
L 159.926786 61.840606 
L 160.724805 61.840606 
L 160.724805 85.449697 
L 161.522825 85.449697 
L 161.522825 67.461818 
L 162.320844 67.461818 
L 162.320844 104.561818 
L 163.118864 104.561818 
L 163.118864 34.858788 
L 163.916883 34.858788 
L 163.916883 28.113333 
L 164.714903 28.113333 
L 164.714903 91.070909 
L 165.512922 91.070909 
L 165.512922 53.970909 
L 166.310942 53.970909 
L 166.310942 88.822424 
L 167.108961 88.822424 
L 167.108961 52.846667 
L 167.906981 52.846667 
L 167.906981 58.467879 
L 168.705 58.467879 
L 168.705 85.449697 
L 169.503019 85.449697 
L 169.503019 79.828485 
L 170.301039 79.828485 
L 170.301039 73.08303 
L 171.099058 73.08303 
L 171.099058 82.07697 
L 171.897078 82.07697 
L 171.897078 66.337576 
L 172.695097 66.337576 
L 172.695097 87.698182 
L 173.493117 87.698182 
L 173.493117 61.840606 
L 174.291136 61.840606 
L 174.291136 138.289091 
L 175.089156 138.289091 
L 175.089156 100.064848 
L 175.887175 100.064848 
L 175.887175 88.822424 
L 176.685195 88.822424 
L 176.685195 110.18303 
L 177.483214 110.18303 
L 177.483214 55.095152 
L 178.281234 55.095152 
L 178.281234 78.704242 
L 179.079253 78.704242 
L 179.079253 96.692121 
L 179.877273 96.692121 
L 179.877273 69.710303 
L 180.675292 69.710303 
L 180.675292 64.089091 
L 181.473312 64.089091 
L 181.473312 56.219394 
L 182.271331 56.219394 
L 182.271331 49.473939 
L 183.069351 49.473939 
L 183.069351 82.07697 
L 183.86737 82.07697 
L 183.86737 105.686061 
L 184.66539 105.686061 
L 184.66539 111.307273 
L 185.463409 111.307273 
L 185.463409 104.561818 
L 186.261429 104.561818 
L 186.261429 95.567879 
L 187.059448 95.567879 
L 187.059448 67.461818 
L 187.857468 67.461818 
L 187.857468 94.443636 
L 188.655487 94.443636 
L 188.655487 70.834545 
L 189.453506 70.834545 
L 189.453506 69.710303 
L 190.251526 69.710303 
L 190.251526 50.598182 
L 191.049545 50.598182 
L 191.049545 51.722424 
L 191.847565 51.722424 
L 191.847565 62.964848 
L 192.645584 62.964848 
L 192.645584 83.201212 
L 193.443604 83.201212 
L 193.443604 120.301212 
L 194.241623 120.301212 
L 194.241623 66.337576 
L 195.039643 66.337576 
L 195.039643 95.567879 
L 195.837662 95.567879 
L 195.837662 66.337576 
L 196.635682 66.337576 
L 196.635682 64.089091 
L 197.433701 64.089091 
L 197.433701 103.437576 
L 198.231721 103.437576 
L 198.231721 70.834545 
L 199.02974 70.834545 
L 199.02974 87.698182 
L 199.82776 87.698182 
L 199.82776 91.070909 
L 200.625779 91.070909 
L 200.625779 66.337576 
L 201.423799 66.337576 
L 201.423799 91.070909 
L 202.221818 91.070909 
L 202.221818 58.467879 
L 203.817857 58.467879 
L 203.817857 110.18303 
L 204.615877 110.18303 
L 204.615877 92.195152 
L 205.413896 92.195152 
L 205.413896 64.089091 
L 207.009935 64.089091 
L 207.009935 52.846667 
L 207.807955 52.846667 
L 207.807955 68.586061 
L 208.605974 68.586061 
L 208.605974 83.201212 
L 209.403994 83.201212 
L 209.403994 106.810303 
L 210.202013 106.810303 
L 210.202013 32.610303 
L 211.000032 32.610303 
L 211.000032 66.337576 
L 211.798052 66.337576 
L 211.798052 102.313333 
L 212.596071 102.313333 
L 212.596071 21.367879 
L 213.394091 21.367879 
L 213.394091 107.934545 
L 214.19211 107.934545 
L 214.19211 82.07697 
L 214.99013 82.07697 
L 214.99013 40.48 
L 215.788149 40.48 
L 215.788149 110.18303 
L 216.586169 110.18303 
L 216.586169 91.070909 
L 217.384188 91.070909 
L 217.384188 55.095152 
L 218.182208 55.095152 
L 218.182208 74.207273 
L 218.980227 74.207273 
L 218.980227 49.473939 
L 219.778247 49.473939 
L 219.778247 95.567879 
L 220.576266 95.567879 
L 220.576266 47.225455 
L 221.374286 47.225455 
L 221.374286 39.355758 
L 222.172305 39.355758 
L 222.172305 80.952727 
L 222.970325 80.952727 
L 222.970325 44.97697 
L 223.768344 44.97697 
L 223.768344 78.704242 
L 224.566364 78.704242 
L 224.566364 89.946667 
L 225.364383 89.946667 
L 225.364383 85.449697 
L 226.162403 85.449697 
L 226.162403 56.219394 
L 226.960422 56.219394 
L 226.960422 78.704242 
L 227.758442 78.704242 
L 227.758442 73.08303 
L 229.354481 73.08303 
L 229.354481 89.946667 
L 230.1525 89.946667 
L 230.1525 60.716364 
L 230.950519 60.716364 
L 230.950519 102.313333 
L 231.748539 102.313333 
L 231.748539 59.592121 
L 232.546558 59.592121 
L 232.546558 78.704242 
L 233.344578 78.704242 
L 233.344578 87.698182 
L 234.142597 87.698182 
L 234.142597 76.455758 
L 234.940617 76.455758 
L 234.940617 65.213333 
L 235.738636 65.213333 
L 235.738636 51.722424 
L 236.536656 51.722424 
L 236.536656 103.437576 
L 237.334675 103.437576 
L 237.334675 88.822424 
L 238.132695 88.822424 
L 238.132695 75.331515 
L 238.930714 75.331515 
L 238.930714 55.095152 
L 239.728734 55.095152 
L 239.728734 107.934545 
L 240.526753 107.934545 
L 240.526753 74.207273 
L 241.324773 74.207273 
L 241.324773 102.313333 
L 242.122792 102.313333 
L 242.122792 70.834545 
L 242.920812 70.834545 
L 242.920812 100.064848 
L 243.718831 100.064848 
L 243.718831 66.337576 
L 244.516851 66.337576 
L 244.516851 78.704242 
L 245.31487 78.704242 
L 245.31487 88.822424 
L 246.11289 88.822424 
L 246.11289 46.101212 
L 246.910909 46.101212 
L 246.910909 106.810303 
L 247.708929 106.810303 
L 247.708929 109.058788 
L 248.506948 109.058788 
L 248.506948 92.195152 
L 249.304968 92.195152 
L 249.304968 83.201212 
L 250.102987 83.201212 
L 250.102987 84.325455 
L 250.901006 84.325455 
L 250.901006 76.455758 
L 251.699026 76.455758 
L 251.699026 101.189091 
L 252.497045 101.189091 
L 252.497045 78.704242 
L 253.295065 78.704242 
L 253.295065 91.070909 
L 254.093084 91.070909 
L 254.093084 85.449697 
L 254.891104 85.449697 
L 254.891104 55.095152 
L 255.689123 55.095152 
L 255.689123 69.710303 
L 256.487143 69.710303 
L 256.487143 57.343636 
L 257.285162 57.343636 
L 257.285162 79.828485 
L 258.083182 79.828485 
L 258.083182 77.58 
L 258.881201 77.58 
L 258.881201 88.822424 
L 259.679221 88.822424 
L 259.679221 65.213333 
L 260.47724 65.213333 
L 260.47724 106.810303 
L 261.27526 106.810303 
L 261.27526 69.710303 
L 262.073279 69.710303 
L 262.073279 98.940606 
L 262.871299 98.940606 
L 262.871299 78.704242 
L 263.669318 78.704242 
L 263.669318 70.834545 
L 264.467338 70.834545 
L 264.467338 57.343636 
L 265.265357 57.343636 
L 265.265357 71.958788 
L 266.063377 71.958788 
L 266.063377 61.840606 
L 266.861396 61.840606 
L 266.861396 44.97697 
L 267.659416 44.97697 
L 267.659416 66.337576 
L 268.457435 66.337576 
L 268.457435 49.473939 
L 269.255455 49.473939 
L 269.255455 75.331515 
L 270.053474 75.331515 
L 270.053474 48.349697 
L 270.851494 48.349697 
L 270.851494 82.07697 
L 271.649513 82.07697 
L 271.649513 77.58 
L 272.447532 77.58 
L 272.447532 70.834545 
L 273.245552 70.834545 
L 273.245552 65.213333 
L 274.043571 65.213333 
L 274.043571 85.449697 
L 274.841591 85.449697 
L 274.841591 65.213333 
L 275.63961 65.213333 
L 275.63961 83.201212 
L 276.43763 83.201212 
L 276.43763 61.840606 
L 277.235649 61.840606 
L 277.235649 82.07697 
L 278.033669 82.07697 
L 278.033669 97.816364 
L 278.831688 97.816364 
L 278.831688 65.213333 
L 279.629708 65.213333 
L 279.629708 71.958788 
L 280.427727 71.958788 
L 280.427727 100.064848 
L 280.427727 100.064848 
" clip-path="url(#pab9c4f5c0a)" style="fill: none; stroke: #1f77b4; stroke-width: 1.5; stroke-linecap: square"/>
   </g>
   <g id="line2d_13">
    <path d="M 56.982273 59.592121 
L 57.780292 59.592121 
L 57.780292 80.952727 
L 58.578312 80.952727 
L 58.578312 56.219394 
L 59.376331 56.219394 
L 59.376331 59.592121 
L 60.174351 59.592121 
L 60.174351 17.995152 
L 60.97237 17.995152 
L 60.97237 66.337576 
L 61.77039 66.337576 
L 61.77039 47.225455 
L 62.568409 47.225455 
L 62.568409 53.970909 
L 63.366429 53.970909 
L 63.366429 29.237576 
L 64.164448 29.237576 
L 64.164448 53.970909 
L 64.962468 53.970909 
L 64.962468 56.219394 
L 65.760487 56.219394 
L 65.760487 71.958788 
L 66.558506 71.958788 
L 66.558506 109.058788 
L 67.356526 109.058788 
L 67.356526 28.113333 
L 68.154545 28.113333 
L 68.154545 94.443636 
L 68.952565 94.443636 
L 68.952565 80.952727 
L 69.750584 80.952727 
L 69.750584 102.313333 
L 70.548604 102.313333 
L 70.548604 56.219394 
L 71.346623 56.219394 
L 71.346623 50.598182 
L 72.144643 50.598182 
L 72.144643 62.964848 
L 72.942662 62.964848 
L 72.942662 57.343636 
L 73.740682 57.343636 
L 73.740682 39.355758 
L 74.538701 39.355758 
L 74.538701 31.486061 
L 75.336721 31.486061 
L 75.336721 60.716364 
L 76.13474 60.716364 
L 76.13474 71.958788 
L 76.93276 71.958788 
L 76.93276 80.952727 
L 77.730779 80.952727 
L 77.730779 52.846667 
L 78.528799 52.846667 
L 78.528799 67.461818 
L 79.326818 67.461818 
L 79.326818 93.319394 
L 80.124838 93.319394 
L 80.124838 79.828485 
L 80.922857 79.828485 
L 80.922857 80.952727 
L 81.720877 80.952727 
L 81.720877 75.331515 
L 82.518896 75.331515 
L 82.518896 60.716364 
L 83.316916 60.716364 
L 83.316916 105.686061 
L 84.114935 105.686061 
L 84.114935 76.455758 
L 84.912955 76.455758 
L 84.912955 74.207273 
L 85.710974 74.207273 
L 85.710974 101.189091 
L 86.508994 101.189091 
L 86.508994 69.710303 
L 87.307013 69.710303 
L 87.307013 93.319394 
L 88.105032 93.319394 
L 88.105032 124.798182 
L 88.903052 124.798182 
L 88.903052 102.313333 
L 89.701071 102.313333 
L 89.701071 70.834545 
L 91.29711 70.834545 
L 91.29711 49.473939 
L 92.09513 49.473939 
L 92.09513 112.431515 
L 92.893149 112.431515 
L 92.893149 66.337576 
L 93.691169 66.337576 
L 93.691169 88.822424 
L 94.489188 88.822424 
L 94.489188 110.18303 
L 95.287208 110.18303 
L 95.287208 98.940606 
L 96.085227 98.940606 
L 96.085227 114.68 
L 96.883247 114.68 
L 96.883247 106.810303 
L 97.681266 106.810303 
L 97.681266 94.443636 
L 98.479286 94.443636 
L 98.479286 112.431515 
L 99.277305 112.431515 
L 99.277305 96.692121 
L 100.873344 96.692121 
L 100.873344 105.686061 
L 101.671364 105.686061 
L 101.671364 103.437576 
L 102.469383 103.437576 
L 102.469383 89.946667 
L 103.267403 89.946667 
L 103.267403 96.692121 
L 104.065422 96.692121 
L 104.065422 104.561818 
L 104.863442 104.561818 
L 104.863442 121.425455 
L 105.661461 121.425455 
L 105.661461 87.698182 
L 106.459481 87.698182 
L 106.459481 116.928485 
L 107.2575 116.928485 
L 107.2575 89.946667 
L 108.055519 89.946667 
L 108.055519 113.555758 
L 108.853539 113.555758 
L 108.853539 92.195152 
L 109.651558 92.195152 
L 109.651558 111.307273 
L 110.449578 111.307273 
L 110.449578 88.822424 
L 111.247597 88.822424 
L 111.247597 91.070909 
L 112.045617 91.070909 
L 112.045617 112.431515 
L 112.843636 112.431515 
L 112.843636 101.189091 
L 113.641656 101.189091 
L 113.641656 76.455758 
L 114.439675 76.455758 
L 114.439675 133.792121 
L 115.237695 133.792121 
L 115.237695 128.170909 
L 116.035714 128.170909 
L 116.035714 91.070909 
L 116.833734 91.070909 
L 116.833734 103.437576 
L 117.631753 103.437576 
L 117.631753 105.686061 
L 118.429773 105.686061 
L 118.429773 107.934545 
L 119.227792 107.934545 
L 119.227792 101.189091 
L 120.025812 101.189091 
L 120.025812 75.331515 
L 120.823831 75.331515 
L 120.823831 114.68 
L 121.621851 114.68 
L 121.621851 96.692121 
L 122.41987 96.692121 
L 122.41987 114.68 
L 123.21789 114.68 
L 123.21789 113.555758 
L 124.015909 113.555758 
L 124.015909 76.455758 
L 124.813929 76.455758 
L 124.813929 98.940606 
L 125.611948 98.940606 
L 125.611948 83.201212 
L 126.409968 83.201212 
L 126.409968 88.822424 
L 127.207987 88.822424 
L 127.207987 104.561818 
L 128.006006 104.561818 
L 128.006006 77.58 
L 128.804026 77.58 
L 128.804026 110.18303 
L 129.602045 110.18303 
L 129.602045 82.07697 
L 130.400065 82.07697 
L 130.400065 57.343636 
L 131.198084 57.343636 
L 131.198084 107.934545 
L 131.996104 107.934545 
L 131.996104 89.946667 
L 132.794123 89.946667 
L 132.794123 69.710303 
L 133.592143 69.710303 
L 133.592143 51.722424 
L 134.390162 51.722424 
L 134.390162 71.958788 
L 135.188182 71.958788 
L 135.188182 100.064848 
L 135.986201 100.064848 
L 135.986201 95.567879 
L 136.784221 95.567879 
L 136.784221 79.828485 
L 137.58224 79.828485 
L 137.58224 123.673939 
L 138.38026 123.673939 
L 138.38026 74.207273 
L 139.178279 74.207273 
L 139.178279 102.313333 
L 139.976299 102.313333 
L 139.976299 107.934545 
L 140.774318 107.934545 
L 140.774318 79.828485 
L 141.572338 79.828485 
L 141.572338 101.189091 
L 142.370357 101.189091 
L 142.370357 74.207273 
L 143.168377 74.207273 
L 143.168377 57.343636 
L 143.966396 57.343636 
L 143.966396 60.716364 
L 144.764416 60.716364 
L 144.764416 95.567879 
L 145.562435 95.567879 
L 145.562435 61.840606 
L 146.360455 61.840606 
L 146.360455 83.201212 
L 147.158474 83.201212 
L 147.158474 51.722424 
L 147.956494 51.722424 
L 147.956494 35.98303 
L 148.754513 35.98303 
L 148.754513 64.089091 
L 149.552532 64.089091 
L 149.552532 86.573939 
L 150.350552 86.573939 
L 150.350552 47.225455 
L 151.148571 47.225455 
L 151.148571 88.822424 
L 151.946591 88.822424 
L 151.946591 68.586061 
L 152.74461 68.586061 
L 152.74461 80.952727 
L 153.54263 80.952727 
L 153.54263 73.08303 
L 154.340649 73.08303 
L 154.340649 46.101212 
L 155.138669 46.101212 
L 155.138669 39.355758 
L 155.936688 39.355758 
L 155.936688 70.834545 
L 156.734708 70.834545 
L 156.734708 87.698182 
L 157.532727 87.698182 
L 157.532727 64.089091 
L 158.330747 64.089091 
L 158.330747 83.201212 
L 159.128766 83.201212 
L 159.128766 34.858788 
L 159.926786 34.858788 
L 159.926786 75.331515 
L 160.724805 75.331515 
L 160.724805 37.107273 
L 161.522825 37.107273 
L 161.522825 66.337576 
L 162.320844 66.337576 
L 162.320844 64.089091 
L 163.118864 64.089091 
L 163.118864 58.467879 
L 163.916883 58.467879 
L 163.916883 106.810303 
L 164.714903 106.810303 
L 164.714903 60.716364 
L 165.512922 60.716364 
L 165.512922 44.97697 
L 166.310942 44.97697 
L 166.310942 75.331515 
L 167.108961 75.331515 
L 167.108961 41.604242 
L 167.906981 41.604242 
L 167.906981 38.231515 
L 168.705 38.231515 
L 168.705 60.716364 
L 169.503019 60.716364 
L 169.503019 78.704242 
L 170.301039 78.704242 
L 170.301039 80.952727 
L 171.099058 80.952727 
L 171.099058 52.846667 
L 171.897078 52.846667 
L 171.897078 41.604242 
L 172.695097 41.604242 
L 172.695097 64.089091 
L 173.493117 64.089091 
L 173.493117 73.08303 
L 174.291136 73.08303 
L 174.291136 38.231515 
L 175.089156 38.231515 
L 175.089156 80.952727 
L 175.887175 80.952727 
L 175.887175 76.455758 
L 176.685195 76.455758 
L 176.685195 58.467879 
L 177.483214 58.467879 
L 177.483214 47.225455 
L 178.281234 47.225455 
L 178.281234 53.970909 
L 179.877273 53.970909 
L 179.877273 64.089091 
L 180.675292 64.089091 
L 180.675292 79.828485 
L 181.473312 79.828485 
L 181.473312 80.952727 
L 182.271331 80.952727 
L 182.271331 84.325455 
L 183.069351 84.325455 
L 183.069351 60.716364 
L 183.86737 60.716364 
L 183.86737 59.592121 
L 184.66539 59.592121 
L 184.66539 25.864848 
L 185.463409 25.864848 
L 185.463409 95.567879 
L 186.261429 95.567879 
L 186.261429 56.219394 
L 187.059448 56.219394 
L 187.059448 49.473939 
L 187.857468 49.473939 
L 187.857468 71.958788 
L 188.655487 71.958788 
L 188.655487 62.964848 
L 189.453506 62.964848 
L 189.453506 71.958788 
L 190.251526 71.958788 
L 190.251526 93.319394 
L 191.049545 93.319394 
L 191.049545 61.840606 
L 191.847565 61.840606 
L 191.847565 83.201212 
L 192.645584 83.201212 
L 192.645584 40.48 
L 193.443604 40.48 
L 193.443604 95.567879 
L 194.241623 95.567879 
L 194.241623 88.822424 
L 195.039643 88.822424 
L 195.039643 125.922424 
L 195.837662 125.922424 
L 195.837662 80.952727 
L 196.635682 80.952727 
L 196.635682 75.331515 
L 197.433701 75.331515 
L 197.433701 77.58 
L 198.231721 77.58 
L 198.231721 96.692121 
L 199.02974 96.692121 
L 199.02974 102.313333 
L 199.82776 102.313333 
L 199.82776 85.449697 
L 200.625779 85.449697 
L 200.625779 95.567879 
L 201.423799 95.567879 
L 201.423799 115.804242 
L 203.019838 115.804242 
L 203.019838 74.207273 
L 203.817857 74.207273 
L 203.817857 87.698182 
L 204.615877 87.698182 
L 204.615877 85.449697 
L 205.413896 85.449697 
L 205.413896 41.604242 
L 206.211916 41.604242 
L 206.211916 105.686061 
L 207.009935 105.686061 
L 207.009935 64.089091 
L 207.807955 64.089091 
L 207.807955 92.195152 
L 208.605974 92.195152 
L 208.605974 91.070909 
L 209.403994 91.070909 
L 209.403994 78.704242 
L 210.202013 78.704242 
L 210.202013 122.549697 
L 211.000032 122.549697 
L 211.000032 88.822424 
L 211.798052 88.822424 
L 211.798052 95.567879 
L 212.596071 95.567879 
L 212.596071 138.289091 
L 213.394091 138.289091 
L 213.394091 83.201212 
L 214.19211 83.201212 
L 214.19211 79.828485 
L 214.99013 79.828485 
L 214.99013 73.08303 
L 215.788149 73.08303 
L 215.788149 68.586061 
L 216.586169 68.586061 
L 216.586169 101.189091 
L 217.384188 101.189091 
L 217.384188 79.828485 
L 218.182208 79.828485 
L 218.182208 87.698182 
L 218.980227 87.698182 
L 218.980227 98.940606 
L 219.778247 98.940606 
L 219.778247 69.710303 
L 220.576266 69.710303 
L 220.576266 68.586061 
L 221.374286 68.586061 
L 221.374286 69.710303 
L 222.172305 69.710303 
L 222.172305 106.810303 
L 222.970325 106.810303 
L 222.970325 97.816364 
L 223.768344 97.816364 
L 223.768344 95.567879 
L 224.566364 95.567879 
L 224.566364 137.164848 
L 225.364383 137.164848 
L 225.364383 109.058788 
L 226.162403 109.058788 
L 226.162403 91.070909 
L 226.960422 91.070909 
L 226.960422 33.734545 
L 227.758442 33.734545 
L 227.758442 100.064848 
L 228.556461 100.064848 
L 228.556461 102.313333 
L 229.354481 102.313333 
L 229.354481 94.443636 
L 230.1525 94.443636 
L 230.1525 79.828485 
L 232.546558 79.828485 
L 232.546558 88.822424 
L 233.344578 88.822424 
L 233.344578 104.561818 
L 234.142597 104.561818 
L 234.142597 62.964848 
L 234.940617 62.964848 
L 234.940617 96.692121 
L 235.738636 96.692121 
L 235.738636 47.225455 
L 236.536656 47.225455 
L 236.536656 79.828485 
L 237.334675 79.828485 
L 237.334675 74.207273 
L 238.132695 74.207273 
L 238.132695 73.08303 
L 238.930714 73.08303 
L 238.930714 85.449697 
L 239.728734 85.449697 
L 239.728734 86.573939 
L 240.526753 86.573939 
L 240.526753 59.592121 
L 241.324773 59.592121 
L 241.324773 87.698182 
L 242.122792 87.698182 
L 242.122792 102.313333 
L 242.920812 102.313333 
L 242.920812 77.58 
L 243.718831 77.58 
L 243.718831 98.940606 
L 244.516851 98.940606 
L 244.516851 67.461818 
L 245.31487 67.461818 
L 245.31487 91.070909 
L 246.11289 91.070909 
L 246.11289 92.195152 
L 246.910909 92.195152 
L 246.910909 104.561818 
L 247.708929 104.561818 
L 247.708929 53.970909 
L 248.506948 53.970909 
L 248.506948 86.573939 
L 249.304968 86.573939 
L 249.304968 114.68 
L 250.102987 114.68 
L 250.102987 94.443636 
L 250.901006 94.443636 
L 250.901006 64.089091 
L 251.699026 64.089091 
L 251.699026 42.728485 
L 252.497045 42.728485 
L 252.497045 79.828485 
L 253.295065 79.828485 
L 253.295065 69.710303 
L 254.093084 69.710303 
L 254.093084 91.070909 
L 254.891104 91.070909 
L 254.891104 92.195152 
L 255.689123 92.195152 
L 255.689123 75.331515 
L 256.487143 75.331515 
L 256.487143 70.834545 
L 257.285162 70.834545 
L 257.285162 76.455758 
L 258.083182 76.455758 
L 258.083182 74.207273 
L 258.881201 74.207273 
L 258.881201 84.325455 
L 259.679221 84.325455 
L 259.679221 70.834545 
L 260.47724 70.834545 
L 260.47724 75.331515 
L 261.27526 75.331515 
L 261.27526 67.461818 
L 262.073279 67.461818 
L 262.073279 74.207273 
L 262.871299 74.207273 
L 262.871299 82.07697 
L 264.467338 82.07697 
L 264.467338 46.101212 
L 265.265357 46.101212 
L 265.265357 73.08303 
L 266.063377 73.08303 
L 266.063377 59.592121 
L 266.861396 59.592121 
L 266.861396 96.692121 
L 267.659416 96.692121 
L 267.659416 49.473939 
L 268.457435 49.473939 
L 268.457435 59.592121 
L 269.255455 59.592121 
L 269.255455 65.213333 
L 270.053474 65.213333 
L 270.053474 66.337576 
L 271.649513 66.337576 
L 271.649513 38.231515 
L 272.447532 38.231515 
L 272.447532 48.349697 
L 273.245552 48.349697 
L 273.245552 70.834545 
L 274.841591 70.834545 
L 274.841591 67.461818 
L 275.63961 67.461818 
L 275.63961 59.592121 
L 276.43763 59.592121 
L 276.43763 21.367879 
L 277.235649 21.367879 
L 277.235649 43.852727 
L 278.033669 43.852727 
L 278.033669 80.952727 
L 278.831688 80.952727 
L 278.831688 92.195152 
L 279.629708 92.195152 
L 279.629708 105.686061 
L 280.427727 105.686061 
L 280.427727 35.98303 
L 280.427727 35.98303 
" clip-path="url(#pab9c4f5c0a)" style="fill: none; stroke: #ff7f0e; stroke-width: 1.5; stroke-linecap: square"/>
   </g>
   <g id="patch_3">
    <path d="M 45.81 144.36 
L 45.81 10.8 
" style="fill: none; stroke: #000000; stroke-width: 0.8; stroke-linejoin: miter; stroke-linecap: square"/>
   </g>
   <g id="patch_4">
    <path d="M 291.6 144.36 
L 291.6 10.8 
" style="fill: none; stroke: #000000; stroke-width: 0.8; stroke-linejoin: miter; stroke-linecap: square"/>
   </g>
   <g id="patch_5">
    <path d="M 45.81 144.36 
L 291.6 144.36 
" style="fill: none; stroke: #000000; stroke-width: 0.8; stroke-linejoin: miter; stroke-linecap: square"/>
   </g>
   <g id="patch_6">
    <path d="M 45.81 10.8 
L 291.6 10.8 
" style="fill: none; stroke: #000000; stroke-width: 0.8; stroke-linejoin: miter; stroke-linecap: square"/>
   </g>
   <g id="legend_1">
    <g id="patch_7">
     <path d="M 138.955781 139.36 
L 198.454219 139.36 
Q 200.454219 139.36 200.454219 137.36 
L 200.454219 109.00375 
Q 200.454219 107.00375 198.454219 107.00375 
L 138.955781 107.00375 
Q 136.955781 107.00375 136.955781 109.00375 
L 136.955781 137.36 
Q 136.955781 139.36 138.955781 139.36 
z
" style="fill: #ffffff; opacity: 0.8; stroke: #cccccc; stroke-linejoin: miter"/>
    </g>
    <g id="line2d_14">
     <path d="M 140.955781 115.102188 
L 150.955781 115.102188 
L 150.955781 115.102188 
L 160.955781 115.102188 
L 160.955781 115.102188 
" style="fill: none; stroke: #1f77b4; stroke-width: 1.5; stroke-linecap: square"/>
    </g>
    <g id="text_14">
     <!-- initial -->
     <g transform="translate(168.955781 118.602188) scale(0.1 -0.1)">
      <defs>
       <path id="DejaVuSans-6c" d="M 603 4863 
L 1178 4863 
L 1178 0 
L 603 0 
L 603 4863 
z
" transform="scale(0.015625)"/>
      </defs>
      <use xlink:href="#DejaVuSans-69"/>
      <use xlink:href="#DejaVuSans-6e" x="27.783203"/>
      <use xlink:href="#DejaVuSans-69" x="91.162109"/>
      <use xlink:href="#DejaVuSans-74" x="118.945312"/>
      <use xlink:href="#DejaVuSans-69" x="158.154297"/>
      <use xlink:href="#DejaVuSans-61" x="185.9375"/>
      <use xlink:href="#DejaVuSans-6c" x="247.216797"/>
     </g>
    </g>
    <g id="line2d_15">
     <path d="M 140.955781 129.780313 
L 150.955781 129.780313 
L 150.955781 129.780313 
L 160.955781 129.780313 
L 160.955781 129.780313 
" style="fill: none; stroke: #ff7f0e; stroke-width: 1.5; stroke-linecap: square"/>
    </g>
    <g id="text_15">
     <!-- final -->
     <g transform="translate(168.955781 133.280313) scale(0.1 -0.1)">
      <use xlink:href="#DejaVuSans-66"/>
      <use xlink:href="#DejaVuSans-69" x="35.205078"/>
      <use xlink:href="#DejaVuSans-6e" x="62.988281"/>
      <use xlink:href="#DejaVuSans-61" x="126.367188"/>
      <use xlink:href="#DejaVuSans-6c" x="187.646484"/>
     </g>
    </g>
   </g>
  </g>
 </g>
 <defs>
  <clipPath id="pab9c4f5c0a">
   <rect x="45.81" y="10.8" width="245.79" height="133.56"/>
  </clipPath>
 </defs>
</svg>
