<?xml version="1.0" encoding="utf-8" standalone="no"?>
<!DOCTYPE svg PUBLIC "-//W3C//DTD SVG 1.1//EN"
  "http://www.w3.org/Graphics/SVG/1.1/DTD/svg11.dtd">
<svg xmlns:xlink="http://www.w3.org/1999/xlink" width="446.4pt" height="331.2pt" viewBox="0 0 446.4 331.2" xmlns="http://www.w3.org/2000/svg" version="1.1">
 <metadata>
  <rdf:RDF xmlns:dc="http://purl.org/dc/elements/1.1/" xmlns:cc="http://creativecommons.org/ns#" xmlns:rdf="http://www.w3.org/1999/02/22-rdf-syntax-ns#">
   <cc:Work>
    <dc:type rdf:resource="http://purl.org/dc/dcmitype/StillImage"/>
    <dc:date>2023-11-28T11:31:15.859810</dc:date>
    <dc:format>image/svg+xml</dc:format>
    <dc:creator>
     <cc:Agent>
      <dc:title>Matplotlib v3.7.1, https://matplotlib.org/</dc:title>
     </cc:Agent>
    </dc:creator>
   </cc:Work>
  </rdf:RDF>
 </metadata>
 <defs>
  <style type="text/css">*{stroke-linejoin: round; stroke-linecap: butt}</style>
 </defs>
 <g id="figure_1">
  <g id="patch_1">
   <path d="M 0 331.2 
L 446.4 331.2 
L 446.4 0 
L 0 0 
z
" style="fill: #ffffff"/>
  </g>
  <g id="axes_1">
   <g id="patch_2">
    <path d="M 52.2 132.84 
L 222.48381 132.84 
L 222.48381 10.8 
L 52.2 10.8 
z
" style="fill: #ffffff"/>
   </g>
   <g id="matplotlib.axis_1">
    <g id="xtick_1">
     <g id="line2d_1">
      <defs>
       <path id="m11baa932a6" d="M 0 0 
L 0 3.5 
" style="stroke: #000000; stroke-width: 0.8"/>
      </defs>
      <g>
       <use xlink:href="#m11baa932a6" x="59.940173" y="132.84" style="stroke: #000000; stroke-width: 0.8"/>
      </g>
     </g>
     <g id="text_1">
      <!-- $0$ -->
      <g transform="translate(56.740173 147.438438) scale(0.1 -0.1)">
       <defs>
        <path id="DejaVuSans-30" d="M 2034 4250 
Q 1547 4250 1301 3770 
Q 1056 3291 1056 2328 
Q 1056 1369 1301 889 
Q 1547 409 2034 409 
Q 2525 409 2770 889 
Q 3016 1369 3016 2328 
Q 3016 3291 2770 3770 
Q 2525 4250 2034 4250 
z
M 2034 4750 
Q 2819 4750 3233 4129 
Q 3647 3509 3647 2328 
Q 3647 1150 3233 529 
Q 2819 -91 2034 -91 
Q 1250 -91 836 529 
Q 422 1150 422 2328 
Q 422 3509 836 4129 
Q 1250 4750 2034 4750 
z
" transform="scale(0.015625)"/>
       </defs>
       <use xlink:href="#DejaVuSans-30" transform="translate(0 0.78125)"/>
      </g>
     </g>
    </g>
    <g id="xtick_2">
     <g id="line2d_2">
      <g>
       <use xlink:href="#m11baa932a6" x="98.779256" y="132.84" style="stroke: #000000; stroke-width: 0.8"/>
      </g>
     </g>
     <g id="text_2">
      <!-- $\pi/2$ -->
      <g transform="translate(91.079256 147.438438) scale(0.1 -0.1)">
       <defs>
        <path id="DejaVuSans-Oblique-3c0" d="M 584 3500 
L 3938 3500 
L 3825 2925 
L 3384 2925 
L 2966 775 
Q 2922 550 2981 450 
Q 3038 353 3209 353 
Q 3256 353 3325 363 
Q 3397 369 3419 372 
L 3338 -44 
Q 3222 -84 3103 -103 
Q 2981 -122 2866 -122 
Q 2491 -122 2388 81 
Q 2284 288 2391 838 
L 2797 2925 
L 1506 2925 
L 938 0 
L 350 0 
L 919 2925 
L 472 2925 
L 584 3500 
z
" transform="scale(0.015625)"/>
        <path id="DejaVuSans-2f" d="M 1625 4666 
L 2156 4666 
L 531 -594 
L 0 -594 
L 1625 4666 
z
" transform="scale(0.015625)"/>
        <path id="DejaVuSans-32" d="M 1228 531 
L 3431 531 
L 3431 0 
L 469 0 
L 469 531 
Q 828 903 1448 1529 
Q 2069 2156 2228 2338 
Q 2531 2678 2651 2914 
Q 2772 3150 2772 3378 
Q 2772 3750 2511 3984 
Q 2250 4219 1831 4219 
Q 1534 4219 1204 4116 
Q 875 4013 500 3803 
L 500 4441 
Q 881 4594 1212 4672 
Q 1544 4750 1819 4750 
Q 2544 4750 2975 4387 
Q 3406 4025 3406 3419 
Q 3406 3131 3298 2873 
Q 3191 2616 2906 2266 
Q 2828 2175 2409 1742 
Q 1991 1309 1228 531 
z
" transform="scale(0.015625)"/>
       </defs>
       <use xlink:href="#DejaVuSans-Oblique-3c0" transform="translate(0 0.78125)"/>
       <use xlink:href="#DejaVuSans-2f" transform="translate(60.205078 0.78125)"/>
       <use xlink:href="#DejaVuSans-32" transform="translate(90.271484 0.78125)"/>
      </g>
     </g>
    </g>
    <g id="xtick_3">
     <g id="line2d_3">
      <g>
       <use xlink:href="#m11baa932a6" x="137.61834" y="132.84" style="stroke: #000000; stroke-width: 0.8"/>
      </g>
     </g>
     <g id="text_3">
      <!-- $\pi$ -->
      <g transform="translate(134.56834 147.438438) scale(0.1 -0.1)">
       <use xlink:href="#DejaVuSans-Oblique-3c0" transform="translate(0 0.3125)"/>
      </g>
     </g>
    </g>
    <g id="xtick_4">
     <g id="line2d_4">
      <g>
       <use xlink:href="#m11baa932a6" x="176.457423" y="132.84" style="stroke: #000000; stroke-width: 0.8"/>
      </g>
     </g>
     <g id="text_4">
      <!-- $3\pi/2$ -->
      <g transform="translate(165.557423 147.438438) scale(0.1 -0.1)">
       <defs>
        <path id="DejaVuSans-33" d="M 2597 2516 
Q 3050 2419 3304 2112 
Q 3559 1806 3559 1356 
Q 3559 666 3084 287 
Q 2609 -91 1734 -91 
Q 1441 -91 1130 -33 
Q 819 25 488 141 
L 488 750 
Q 750 597 1062 519 
Q 1375 441 1716 441 
Q 2309 441 2620 675 
Q 2931 909 2931 1356 
Q 2931 1769 2642 2001 
Q 2353 2234 1838 2234 
L 1294 2234 
L 1294 2753 
L 1863 2753 
Q 2328 2753 2575 2939 
Q 2822 3125 2822 3475 
Q 2822 3834 2567 4026 
Q 2313 4219 1838 4219 
Q 1578 4219 1281 4162 
Q 984 4106 628 3988 
L 628 4550 
Q 988 4650 1302 4700 
Q 1616 4750 1894 4750 
Q 2613 4750 3031 4423 
Q 3450 4097 3450 3541 
Q 3450 3153 3228 2886 
Q 3006 2619 2597 2516 
z
" transform="scale(0.015625)"/>
       </defs>
       <use xlink:href="#DejaVuSans-33" transform="translate(0 0.78125)"/>
       <use xlink:href="#DejaVuSans-Oblique-3c0" transform="translate(63.623047 0.78125)"/>
       <use xlink:href="#DejaVuSans-2f" transform="translate(123.828125 0.78125)"/>
       <use xlink:href="#DejaVuSans-32" transform="translate(153.894531 0.78125)"/>
      </g>
     </g>
    </g>
    <g id="xtick_5">
     <g id="line2d_5">
      <g>
       <use xlink:href="#m11baa932a6" x="215.296506" y="132.84" style="stroke: #000000; stroke-width: 0.8"/>
      </g>
     </g>
     <g id="text_5">
      <!-- $2\pi$ -->
      <g transform="translate(209.096506 147.438438) scale(0.1 -0.1)">
       <use xlink:href="#DejaVuSans-32" transform="translate(0 0.78125)"/>
       <use xlink:href="#DejaVuSans-Oblique-3c0" transform="translate(63.623047 0.78125)"/>
      </g>
     </g>
    </g>
    <g id="text_6">
     <!-- atom position $x$ -->
     <g transform="translate(98.441905 159.118125) scale(0.1 -0.1)">
      <defs>
       <path id="DejaVuSans-61" d="M 2194 1759 
Q 1497 1759 1228 1600 
Q 959 1441 959 1056 
Q 959 750 1161 570 
Q 1363 391 1709 391 
Q 2188 391 2477 730 
Q 2766 1069 2766 1631 
L 2766 1759 
L 2194 1759 
z
M 3341 1997 
L 3341 0 
L 2766 0 
L 2766 531 
Q 2569 213 2275 61 
Q 1981 -91 1556 -91 
Q 1019 -91 701 211 
Q 384 513 384 1019 
Q 384 1609 779 1909 
Q 1175 2209 1959 2209 
L 2766 2209 
L 2766 2266 
Q 2766 2663 2505 2880 
Q 2244 3097 1772 3097 
Q 1472 3097 1187 3025 
Q 903 2953 641 2809 
L 641 3341 
Q 956 3463 1253 3523 
Q 1550 3584 1831 3584 
Q 2591 3584 2966 3190 
Q 3341 2797 3341 1997 
z
" transform="scale(0.015625)"/>
       <path id="DejaVuSans-74" d="M 1172 4494 
L 1172 3500 
L 2356 3500 
L 2356 3053 
L 1172 3053 
L 1172 1153 
Q 1172 725 1289 603 
Q 1406 481 1766 481 
L 2356 481 
L 2356 0 
L 1766 0 
Q 1100 0 847 248 
Q 594 497 594 1153 
L 594 3053 
L 172 3053 
L 172 3500 
L 594 3500 
L 594 4494 
L 1172 4494 
z
" transform="scale(0.015625)"/>
       <path id="DejaVuSans-6f" d="M 1959 3097 
Q 1497 3097 1228 2736 
Q 959 2375 959 1747 
Q 959 1119 1226 758 
Q 1494 397 1959 397 
Q 2419 397 2687 759 
Q 2956 1122 2956 1747 
Q 2956 2369 2687 2733 
Q 2419 3097 1959 3097 
z
M 1959 3584 
Q 2709 3584 3137 3096 
Q 3566 2609 3566 1747 
Q 3566 888 3137 398 
Q 2709 -91 1959 -91 
Q 1206 -91 779 398 
Q 353 888 353 1747 
Q 353 2609 779 3096 
Q 1206 3584 1959 3584 
z
" transform="scale(0.015625)"/>
       <path id="DejaVuSans-6d" d="M 3328 2828 
Q 3544 3216 3844 3400 
Q 4144 3584 4550 3584 
Q 5097 3584 5394 3201 
Q 5691 2819 5691 2113 
L 5691 0 
L 5113 0 
L 5113 2094 
Q 5113 2597 4934 2840 
Q 4756 3084 4391 3084 
Q 3944 3084 3684 2787 
Q 3425 2491 3425 1978 
L 3425 0 
L 2847 0 
L 2847 2094 
Q 2847 2600 2669 2842 
Q 2491 3084 2119 3084 
Q 1678 3084 1418 2786 
Q 1159 2488 1159 1978 
L 1159 0 
L 581 0 
L 581 3500 
L 1159 3500 
L 1159 2956 
Q 1356 3278 1631 3431 
Q 1906 3584 2284 3584 
Q 2666 3584 2933 3390 
Q 3200 3197 3328 2828 
z
" transform="scale(0.015625)"/>
       <path id="DejaVuSans-20" transform="scale(0.015625)"/>
       <path id="DejaVuSans-70" d="M 1159 525 
L 1159 -1331 
L 581 -1331 
L 581 3500 
L 1159 3500 
L 1159 2969 
Q 1341 3281 1617 3432 
Q 1894 3584 2278 3584 
Q 2916 3584 3314 3078 
Q 3713 2572 3713 1747 
Q 3713 922 3314 415 
Q 2916 -91 2278 -91 
Q 1894 -91 1617 61 
Q 1341 213 1159 525 
z
M 3116 1747 
Q 3116 2381 2855 2742 
Q 2594 3103 2138 3103 
Q 1681 3103 1420 2742 
Q 1159 2381 1159 1747 
Q 1159 1113 1420 752 
Q 1681 391 2138 391 
Q 2594 391 2855 752 
Q 3116 1113 3116 1747 
z
" transform="scale(0.015625)"/>
       <path id="DejaVuSans-73" d="M 2834 3397 
L 2834 2853 
Q 2591 2978 2328 3040 
Q 2066 3103 1784 3103 
Q 1356 3103 1142 2972 
Q 928 2841 928 2578 
Q 928 2378 1081 2264 
Q 1234 2150 1697 2047 
L 1894 2003 
Q 2506 1872 2764 1633 
Q 3022 1394 3022 966 
Q 3022 478 2636 193 
Q 2250 -91 1575 -91 
Q 1294 -91 989 -36 
Q 684 19 347 128 
L 347 722 
Q 666 556 975 473 
Q 1284 391 1588 391 
Q 1994 391 2212 530 
Q 2431 669 2431 922 
Q 2431 1156 2273 1281 
Q 2116 1406 1581 1522 
L 1381 1569 
Q 847 1681 609 1914 
Q 372 2147 372 2553 
Q 372 3047 722 3315 
Q 1072 3584 1716 3584 
Q 2034 3584 2315 3537 
Q 2597 3491 2834 3397 
z
" transform="scale(0.015625)"/>
       <path id="DejaVuSans-69" d="M 603 3500 
L 1178 3500 
L 1178 0 
L 603 0 
L 603 3500 
z
M 603 4863 
L 1178 4863 
L 1178 4134 
L 603 4134 
L 603 4863 
z
" transform="scale(0.015625)"/>
       <path id="DejaVuSans-6e" d="M 3513 2113 
L 3513 0 
L 2938 0 
L 2938 2094 
Q 2938 2591 2744 2837 
Q 2550 3084 2163 3084 
Q 1697 3084 1428 2787 
Q 1159 2491 1159 1978 
L 1159 0 
L 581 0 
L 581 3500 
L 1159 3500 
L 1159 2956 
Q 1366 3272 1645 3428 
Q 1925 3584 2291 3584 
Q 2894 3584 3203 3211 
Q 3513 2838 3513 2113 
z
" transform="scale(0.015625)"/>
       <path id="DejaVuSans-Oblique-78" d="M 3841 3500 
L 2234 1784 
L 3219 0 
L 2559 0 
L 1819 1388 
L 531 0 
L -166 0 
L 1556 1844 
L 641 3500 
L 1300 3500 
L 1972 2234 
L 3144 3500 
L 3841 3500 
z
" transform="scale(0.015625)"/>
      </defs>
      <use xlink:href="#DejaVuSans-61" transform="translate(0 0.015625)"/>
      <use xlink:href="#DejaVuSans-74" transform="translate(61.279297 0.015625)"/>
      <use xlink:href="#DejaVuSans-6f" transform="translate(100.488281 0.015625)"/>
      <use xlink:href="#DejaVuSans-6d" transform="translate(161.669922 0.015625)"/>
      <use xlink:href="#DejaVuSans-20" transform="translate(259.082031 0.015625)"/>
      <use xlink:href="#DejaVuSans-70" transform="translate(290.869141 0.015625)"/>
      <use xlink:href="#DejaVuSans-6f" transform="translate(354.345703 0.015625)"/>
      <use xlink:href="#DejaVuSans-73" transform="translate(415.527344 0.015625)"/>
      <use xlink:href="#DejaVuSans-69" transform="translate(467.626953 0.015625)"/>
      <use xlink:href="#DejaVuSans-74" transform="translate(495.410156 0.015625)"/>
      <use xlink:href="#DejaVuSans-69" transform="translate(534.619141 0.015625)"/>
      <use xlink:href="#DejaVuSans-6f" transform="translate(562.402344 0.015625)"/>
      <use xlink:href="#DejaVuSans-6e" transform="translate(623.583984 0.015625)"/>
      <use xlink:href="#DejaVuSans-20" transform="translate(686.962891 0.015625)"/>
      <use xlink:href="#DejaVuSans-Oblique-78" transform="translate(718.75 0.015625)"/>
     </g>
    </g>
   </g>
   <g id="matplotlib.axis_2">
    <g id="ytick_1">
     <g id="line2d_6">
      <defs>
       <path id="m5918d972e0" d="M 0 0 
L -3.5 0 
" style="stroke: #000000; stroke-width: 0.8"/>
      </defs>
      <g>
       <use xlink:href="#m5918d972e0" x="52.2" y="132.84" style="stroke: #000000; stroke-width: 0.8"/>
      </g>
     </g>
     <g id="text_7">
      <!-- 0.00 -->
      <g transform="translate(22.934375 136.639219) scale(0.1 -0.1)">
       <defs>
        <path id="DejaVuSans-2e" d="M 684 794 
L 1344 794 
L 1344 0 
L 684 0 
L 684 794 
z
" transform="scale(0.015625)"/>
       </defs>
       <use xlink:href="#DejaVuSans-30"/>
       <use xlink:href="#DejaVuSans-2e" x="63.623047"/>
       <use xlink:href="#DejaVuSans-30" x="95.410156"/>
       <use xlink:href="#DejaVuSans-30" x="159.033203"/>
      </g>
     </g>
    </g>
    <g id="ytick_2">
     <g id="line2d_7">
      <g>
       <use xlink:href="#m5918d972e0" x="52.2" y="103.654702" style="stroke: #000000; stroke-width: 0.8"/>
      </g>
     </g>
     <g id="text_8">
      <!-- 0.05 -->
      <g transform="translate(22.934375 107.45392) scale(0.1 -0.1)">
       <defs>
        <path id="DejaVuSans-35" d="M 691 4666 
L 3169 4666 
L 3169 4134 
L 1269 4134 
L 1269 2991 
Q 1406 3038 1543 3061 
Q 1681 3084 1819 3084 
Q 2600 3084 3056 2656 
Q 3513 2228 3513 1497 
Q 3513 744 3044 326 
Q 2575 -91 1722 -91 
Q 1428 -91 1123 -41 
Q 819 9 494 109 
L 494 744 
Q 775 591 1075 516 
Q 1375 441 1709 441 
Q 2250 441 2565 725 
Q 2881 1009 2881 1497 
Q 2881 1984 2565 2268 
Q 2250 2553 1709 2553 
Q 1456 2553 1204 2497 
Q 953 2441 691 2322 
L 691 4666 
z
" transform="scale(0.015625)"/>
       </defs>
       <use xlink:href="#DejaVuSans-30"/>
       <use xlink:href="#DejaVuSans-2e" x="63.623047"/>
       <use xlink:href="#DejaVuSans-30" x="95.410156"/>
       <use xlink:href="#DejaVuSans-35" x="159.033203"/>
      </g>
     </g>
    </g>
    <g id="ytick_3">
     <g id="line2d_8">
      <g>
       <use xlink:href="#m5918d972e0" x="52.2" y="74.469403" style="stroke: #000000; stroke-width: 0.8"/>
      </g>
     </g>
     <g id="text_9">
      <!-- 0.10 -->
      <g transform="translate(22.934375 78.268622) scale(0.1 -0.1)">
       <defs>
        <path id="DejaVuSans-31" d="M 794 531 
L 1825 531 
L 1825 4091 
L 703 3866 
L 703 4441 
L 1819 4666 
L 2450 4666 
L 2450 531 
L 3481 531 
L 3481 0 
L 794 0 
L 794 531 
z
" transform="scale(0.015625)"/>
       </defs>
       <use xlink:href="#DejaVuSans-30"/>
       <use xlink:href="#DejaVuSans-2e" x="63.623047"/>
       <use xlink:href="#DejaVuSans-31" x="95.410156"/>
       <use xlink:href="#DejaVuSans-30" x="159.033203"/>
      </g>
     </g>
    </g>
    <g id="ytick_4">
     <g id="line2d_9">
      <g>
       <use xlink:href="#m5918d972e0" x="52.2" y="45.284105" style="stroke: #000000; stroke-width: 0.8"/>
      </g>
     </g>
     <g id="text_10">
      <!-- 0.15 -->
      <g transform="translate(22.934375 49.083324) scale(0.1 -0.1)">
       <use xlink:href="#DejaVuSans-30"/>
       <use xlink:href="#DejaVuSans-2e" x="63.623047"/>
       <use xlink:href="#DejaVuSans-31" x="95.410156"/>
       <use xlink:href="#DejaVuSans-35" x="159.033203"/>
      </g>
     </g>
    </g>
    <g id="ytick_5">
     <g id="line2d_10">
      <g>
       <use xlink:href="#m5918d972e0" x="52.2" y="16.098807" style="stroke: #000000; stroke-width: 0.8"/>
      </g>
     </g>
     <g id="text_11">
      <!-- 0.20 -->
      <g transform="translate(22.934375 19.898026) scale(0.1 -0.1)">
       <use xlink:href="#DejaVuSans-30"/>
       <use xlink:href="#DejaVuSans-2e" x="63.623047"/>
       <use xlink:href="#DejaVuSans-32" x="95.410156"/>
       <use xlink:href="#DejaVuSans-30" x="159.033203"/>
      </g>
     </g>
    </g>
    <g id="text_12">
     <!-- distribution -->
     <g transform="translate(18.854688 100.312969) rotate(-90) scale(0.1 -0.1)">
      <defs>
       <path id="DejaVuSans-64" d="M 2906 2969 
L 2906 4863 
L 3481 4863 
L 3481 0 
L 2906 0 
L 2906 525 
Q 2725 213 2448 61 
Q 2172 -91 1784 -91 
Q 1150 -91 751 415 
Q 353 922 353 1747 
Q 353 2572 751 3078 
Q 1150 3584 1784 3584 
Q 2172 3584 2448 3432 
Q 2725 3281 2906 2969 
z
M 947 1747 
Q 947 1113 1208 752 
Q 1469 391 1925 391 
Q 2381 391 2643 752 
Q 2906 1113 2906 1747 
Q 2906 2381 2643 2742 
Q 2381 3103 1925 3103 
Q 1469 3103 1208 2742 
Q 947 2381 947 1747 
z
" transform="scale(0.015625)"/>
       <path id="DejaVuSans-72" d="M 2631 2963 
Q 2534 3019 2420 3045 
Q 2306 3072 2169 3072 
Q 1681 3072 1420 2755 
Q 1159 2438 1159 1844 
L 1159 0 
L 581 0 
L 581 3500 
L 1159 3500 
L 1159 2956 
Q 1341 3275 1631 3429 
Q 1922 3584 2338 3584 
Q 2397 3584 2469 3576 
Q 2541 3569 2628 3553 
L 2631 2963 
z
" transform="scale(0.015625)"/>
       <path id="DejaVuSans-62" d="M 3116 1747 
Q 3116 2381 2855 2742 
Q 2594 3103 2138 3103 
Q 1681 3103 1420 2742 
Q 1159 2381 1159 1747 
Q 1159 1113 1420 752 
Q 1681 391 2138 391 
Q 2594 391 2855 752 
Q 3116 1113 3116 1747 
z
M 1159 2969 
Q 1341 3281 1617 3432 
Q 1894 3584 2278 3584 
Q 2916 3584 3314 3078 
Q 3713 2572 3713 1747 
Q 3713 922 3314 415 
Q 2916 -91 2278 -91 
Q 1894 -91 1617 61 
Q 1341 213 1159 525 
L 1159 0 
L 581 0 
L 581 4863 
L 1159 4863 
L 1159 2969 
z
" transform="scale(0.015625)"/>
       <path id="DejaVuSans-75" d="M 544 1381 
L 544 3500 
L 1119 3500 
L 1119 1403 
Q 1119 906 1312 657 
Q 1506 409 1894 409 
Q 2359 409 2629 706 
Q 2900 1003 2900 1516 
L 2900 3500 
L 3475 3500 
L 3475 0 
L 2900 0 
L 2900 538 
Q 2691 219 2414 64 
Q 2138 -91 1772 -91 
Q 1169 -91 856 284 
Q 544 659 544 1381 
z
M 1991 3584 
L 1991 3584 
z
" transform="scale(0.015625)"/>
      </defs>
      <use xlink:href="#DejaVuSans-64"/>
      <use xlink:href="#DejaVuSans-69" x="63.476562"/>
      <use xlink:href="#DejaVuSans-73" x="91.259766"/>
      <use xlink:href="#DejaVuSans-74" x="143.359375"/>
      <use xlink:href="#DejaVuSans-72" x="182.568359"/>
      <use xlink:href="#DejaVuSans-69" x="223.681641"/>
      <use xlink:href="#DejaVuSans-62" x="251.464844"/>
      <use xlink:href="#DejaVuSans-75" x="314.941406"/>
      <use xlink:href="#DejaVuSans-74" x="378.320312"/>
      <use xlink:href="#DejaVuSans-69" x="417.529297"/>
      <use xlink:href="#DejaVuSans-6f" x="445.3125"/>
      <use xlink:href="#DejaVuSans-6e" x="506.494141"/>
     </g>
    </g>
   </g>
   <g id="line2d_11">
    <path d="M 59.940173 29.073369 
L 60.493043 29.073369 
L 60.493043 40.820535 
L 61.045912 40.820535 
L 61.045912 46.367807 
L 61.598782 46.367807 
L 61.598782 37.883743 
L 62.151651 37.883743 
L 62.151651 38.862674 
L 62.704521 38.862674 
L 62.704521 45.388877 
L 63.25739 45.388877 
L 63.25739 41.473155 
L 63.81026 41.473155 
L 63.81026 43.431016 
L 64.363129 43.431016 
L 64.363129 36.904813 
L 64.915999 36.904813 
L 64.915999 32.01016 
L 65.468868 32.01016 
L 65.468868 33.968021 
L 66.021738 33.968021 
L 66.021738 47.346738 
L 66.574607 47.346738 
L 66.574607 37.883743 
L 67.127477 37.883743 
L 67.127477 39.515294 
L 67.680346 39.515294 
L 67.680346 43.757326 
L 68.233216 43.757326 
L 68.233216 39.841604 
L 68.786085 39.841604 
L 68.786085 39.188984 
L 69.338955 39.188984 
L 69.338955 32.989091 
L 69.891824 32.989091 
L 69.891824 45.062567 
L 70.444694 45.062567 
L 70.444694 50.93615 
L 70.997563 50.93615 
L 70.997563 45.062567 
L 71.550433 45.062567 
L 71.550433 36.578503 
L 72.103302 36.578503 
L 72.103302 41.799465 
L 72.656172 41.799465 
L 72.656172 34.946952 
L 73.209041 34.946952 
L 73.209041 47.346738 
L 73.761911 47.346738 
L 73.761911 33.641711 
L 74.314781 33.641711 
L 74.314781 43.757326 
L 74.86765 43.757326 
L 74.86765 41.799465 
L 75.42052 41.799465 
L 75.42052 41.473155 
L 75.973389 41.473155 
L 75.973389 37.231123 
L 76.526259 37.231123 
L 76.526259 43.104706 
L 77.079128 43.104706 
L 77.079128 42.125775 
L 77.631998 42.125775 
L 77.631998 45.062567 
L 78.184867 45.062567 
L 78.184867 46.694118 
L 78.737737 46.694118 
L 78.737737 43.757326 
L 79.290606 43.757326 
L 79.290606 39.188984 
L 79.843476 39.188984 
L 79.843476 35.925882 
L 80.396345 35.925882 
L 80.396345 54.525561 
L 80.949215 54.525561 
L 80.949215 36.578503 
L 81.502084 36.578503 
L 81.502084 38.536364 
L 82.054954 38.536364 
L 82.054954 45.715187 
L 82.607823 45.715187 
L 82.607823 43.104706 
L 83.160693 43.104706 
L 83.160693 35.599572 
L 83.713562 35.599572 
L 83.713562 40.494225 
L 84.266432 40.494225 
L 84.266432 40.820535 
L 84.819301 40.820535 
L 84.819301 47.346738 
L 85.372171 47.346738 
L 85.372171 39.515294 
L 85.92504 39.515294 
L 85.92504 49.957219 
L 86.47791 49.957219 
L 86.47791 44.083636 
L 87.030779 44.083636 
L 87.030779 44.409947 
L 87.583649 44.409947 
L 87.583649 42.778396 
L 88.136518 42.778396 
L 88.136518 49.304599 
L 88.689388 49.304599 
L 88.689388 26.136578 
L 89.242257 26.136578 
L 89.242257 47.673048 
L 89.795127 47.673048 
L 89.795127 36.904813 
L 90.347996 36.904813 
L 90.347996 39.841604 
L 90.900866 39.841604 
L 90.900866 34.946952 
L 91.453735 34.946952 
L 91.453735 35.599572 
L 92.006605 35.599572 
L 92.006605 33.641711 
L 92.559474 33.641711 
L 92.559474 47.999358 
L 93.112344 47.999358 
L 93.112344 46.041497 
L 93.665213 46.041497 
L 93.665213 38.210053 
L 94.218083 38.210053 
L 94.218083 32.336471 
L 94.770952 32.336471 
L 94.770952 37.557433 
L 95.323822 37.557433 
L 95.323822 36.904813 
L 95.876692 36.904813 
L 95.876692 39.515294 
L 96.429561 39.515294 
L 96.429561 40.494225 
L 96.982431 40.494225 
L 96.982431 51.58877 
L 97.5353 51.58877 
L 97.5353 21.894545 
L 98.08817 21.894545 
L 98.08817 48.651979 
L 98.641039 48.651979 
L 98.641039 39.515294 
L 99.193909 39.515294 
L 99.193909 51.26246 
L 99.746778 51.26246 
L 99.746778 41.799465 
L 100.299648 41.799465 
L 100.299648 42.452086 
L 100.852517 42.452086 
L 100.852517 49.957219 
L 101.405387 49.957219 
L 101.405387 32.662781 
L 101.958256 32.662781 
L 101.958256 38.862674 
L 102.511126 38.862674 
L 102.511126 46.367807 
L 103.063995 46.367807 
L 103.063995 33.315401 
L 103.616865 33.315401 
L 103.616865 51.58877 
L 104.169734 51.58877 
L 104.169734 46.041497 
L 104.722604 46.041497 
L 104.722604 32.01016 
L 105.275473 32.01016 
L 105.275473 35.599572 
L 105.828343 35.599572 
L 105.828343 37.883743 
L 106.381212 37.883743 
L 106.381212 41.799465 
L 106.934082 41.799465 
L 106.934082 47.346738 
L 107.486951 47.346738 
L 107.486951 47.999358 
L 108.039821 47.999358 
L 108.039821 46.367807 
L 108.59269 46.367807 
L 108.59269 43.431016 
L 109.14556 43.431016 
L 109.14556 36.252193 
L 109.698429 36.252193 
L 109.698429 38.536364 
L 110.251299 38.536364 
L 110.251299 42.778396 
L 110.804168 42.778396 
L 110.804168 38.536364 
L 111.357038 38.536364 
L 111.357038 45.715187 
L 111.909907 45.715187 
L 111.909907 36.578503 
L 112.462777 36.578503 
L 112.462777 50.283529 
L 113.015646 50.283529 
L 113.015646 33.641711 
L 113.568516 33.641711 
L 113.568516 39.188984 
L 114.121385 39.188984 
L 114.121385 44.409947 
L 114.674255 44.409947 
L 114.674255 47.999358 
L 115.227124 47.999358 
L 115.227124 39.515294 
L 115.779994 39.515294 
L 115.779994 44.736257 
L 116.332863 44.736257 
L 116.332863 34.294332 
L 116.885733 34.294332 
L 116.885733 28.747059 
L 117.438603 28.747059 
L 117.438603 33.968021 
L 117.991472 33.968021 
L 117.991472 34.620642 
L 118.544342 34.620642 
L 118.544342 41.473155 
L 119.097211 41.473155 
L 119.097211 41.146845 
L 120.20295 41.146845 
L 120.20295 44.083636 
L 120.75582 44.083636 
L 120.75582 34.294332 
L 121.308689 34.294332 
L 121.308689 38.210053 
L 121.861559 38.210053 
L 121.861559 40.167914 
L 122.414428 40.167914 
L 122.414428 45.388877 
L 122.967298 45.388877 
L 122.967298 46.694118 
L 123.520167 46.694118 
L 123.520167 39.841604 
L 124.073037 39.841604 
L 124.073037 36.252193 
L 124.625906 36.252193 
L 124.625906 35.273262 
L 125.178776 35.273262 
L 125.178776 43.757326 
L 125.731645 43.757326 
L 125.731645 44.083636 
L 126.284515 44.083636 
L 126.284515 48.651979 
L 126.837384 48.651979 
L 126.837384 39.188984 
L 127.390254 39.188984 
L 127.390254 33.968021 
L 127.943123 33.968021 
L 127.943123 38.862674 
L 128.495993 38.862674 
L 128.495993 43.757326 
L 129.048862 43.757326 
L 129.048862 47.020428 
L 129.601732 47.020428 
L 129.601732 45.062567 
L 130.154601 45.062567 
L 130.154601 26.789198 
L 130.707471 26.789198 
L 130.707471 44.409947 
L 131.26034 44.409947 
L 131.26034 34.946952 
L 131.81321 34.946952 
L 131.81321 41.799465 
L 132.366079 41.799465 
L 132.366079 36.578503 
L 132.918949 36.578503 
L 132.918949 47.346738 
L 133.471818 47.346738 
L 133.471818 27.115508 
L 134.024688 27.115508 
L 134.024688 25.157647 
L 134.577557 25.157647 
L 134.577557 43.431016 
L 135.130427 43.431016 
L 135.130427 32.662781 
L 135.683296 32.662781 
L 135.683296 42.778396 
L 136.236166 42.778396 
L 136.236166 32.336471 
L 136.789035 32.336471 
L 136.789035 33.968021 
L 137.341905 33.968021 
L 137.341905 41.799465 
L 137.894774 41.799465 
L 137.894774 40.167914 
L 138.447644 40.167914 
L 138.447644 38.210053 
L 139.000514 38.210053 
L 139.000514 40.820535 
L 139.553383 40.820535 
L 139.553383 36.252193 
L 140.106253 36.252193 
L 140.106253 42.452086 
L 140.659122 42.452086 
L 140.659122 34.946952 
L 141.211992 34.946952 
L 141.211992 57.136043 
L 141.764861 57.136043 
L 141.764861 46.041497 
L 142.317731 46.041497 
L 142.317731 42.778396 
L 142.8706 42.778396 
L 142.8706 48.978289 
L 143.42347 48.978289 
L 143.42347 32.989091 
L 143.976339 32.989091 
L 143.976339 39.841604 
L 144.529209 39.841604 
L 144.529209 45.062567 
L 145.082078 45.062567 
L 145.082078 37.231123 
L 145.634948 37.231123 
L 145.634948 35.599572 
L 146.187817 35.599572 
L 146.187817 33.315401 
L 146.740687 33.315401 
L 146.740687 31.35754 
L 147.293556 31.35754 
L 147.293556 40.820535 
L 147.846426 40.820535 
L 147.846426 47.673048 
L 148.399295 47.673048 
L 148.399295 49.304599 
L 148.952165 49.304599 
L 148.952165 47.346738 
L 149.505034 47.346738 
L 149.505034 44.736257 
L 150.057904 44.736257 
L 150.057904 36.578503 
L 150.610773 36.578503 
L 150.610773 44.409947 
L 151.163643 44.409947 
L 151.163643 37.557433 
L 151.716512 37.557433 
L 151.716512 37.231123 
L 152.269382 37.231123 
L 152.269382 31.68385 
L 152.822251 31.68385 
L 152.822251 32.01016 
L 153.375121 32.01016 
L 153.375121 35.273262 
L 153.92799 35.273262 
L 153.92799 41.146845 
L 154.48086 41.146845 
L 154.48086 51.91508 
L 155.033729 51.91508 
L 155.033729 36.252193 
L 155.586599 36.252193 
L 155.586599 44.736257 
L 156.139468 44.736257 
L 156.139468 36.252193 
L 156.692338 36.252193 
L 156.692338 35.599572 
L 157.245207 35.599572 
L 157.245207 47.020428 
L 157.798077 47.020428 
L 157.798077 37.557433 
L 158.350946 37.557433 
L 158.350946 42.452086 
L 158.903816 42.452086 
L 158.903816 43.431016 
L 159.456685 43.431016 
L 159.456685 36.252193 
L 160.009555 36.252193 
L 160.009555 43.431016 
L 160.562425 43.431016 
L 160.562425 33.968021 
L 161.668164 33.968021 
L 161.668164 48.978289 
L 162.221033 48.978289 
L 162.221033 43.757326 
L 162.773903 43.757326 
L 162.773903 35.599572 
L 163.879642 35.599572 
L 163.879642 32.336471 
L 164.432511 32.336471 
L 164.432511 36.904813 
L 164.985381 36.904813 
L 164.985381 41.146845 
L 165.53825 41.146845 
L 165.53825 47.999358 
L 166.09112 47.999358 
L 166.09112 26.462888 
L 166.643989 26.462888 
L 166.643989 36.252193 
L 167.196859 36.252193 
L 167.196859 46.694118 
L 167.749728 46.694118 
L 167.749728 23.199786 
L 168.302598 23.199786 
L 168.302598 48.325668 
L 168.855467 48.325668 
L 168.855467 40.820535 
L 169.408337 40.820535 
L 169.408337 28.747059 
L 169.961206 28.747059 
L 169.961206 48.978289 
L 170.514076 48.978289 
L 170.514076 43.431016 
L 171.066945 43.431016 
L 171.066945 32.989091 
L 171.619815 32.989091 
L 171.619815 38.536364 
L 172.172684 38.536364 
L 172.172684 31.35754 
L 172.725554 31.35754 
L 172.725554 44.736257 
L 173.278423 44.736257 
L 173.278423 30.70492 
L 173.831293 30.70492 
L 173.831293 28.420749 
L 174.384162 28.420749 
L 174.384162 40.494225 
L 174.937032 40.494225 
L 174.937032 30.052299 
L 175.489901 30.052299 
L 175.489901 39.841604 
L 176.042771 39.841604 
L 176.042771 43.104706 
L 176.59564 43.104706 
L 176.59564 41.799465 
L 177.14851 41.799465 
L 177.14851 33.315401 
L 177.701379 33.315401 
L 177.701379 39.841604 
L 178.254249 39.841604 
L 178.254249 38.210053 
L 179.359988 38.210053 
L 179.359988 43.104706 
L 179.912857 43.104706 
L 179.912857 34.620642 
L 180.465727 34.620642 
L 180.465727 46.694118 
L 181.018596 46.694118 
L 181.018596 34.294332 
L 181.571466 34.294332 
L 181.571466 39.841604 
L 182.124336 39.841604 
L 182.124336 42.452086 
L 182.677205 42.452086 
L 182.677205 39.188984 
L 183.230075 39.188984 
L 183.230075 35.925882 
L 183.782944 35.925882 
L 183.782944 32.01016 
L 184.335814 32.01016 
L 184.335814 47.020428 
L 184.888683 47.020428 
L 184.888683 42.778396 
L 185.441553 42.778396 
L 185.441553 38.862674 
L 185.994422 38.862674 
L 185.994422 32.989091 
L 186.547292 32.989091 
L 186.547292 48.325668 
L 187.100161 48.325668 
L 187.100161 38.536364 
L 187.653031 38.536364 
L 187.653031 46.694118 
L 188.2059 46.694118 
L 188.2059 37.557433 
L 188.75877 37.557433 
L 188.75877 46.041497 
L 189.311639 46.041497 
L 189.311639 36.252193 
L 189.864509 36.252193 
L 189.864509 39.841604 
L 190.417378 39.841604 
L 190.417378 42.778396 
L 190.970248 42.778396 
L 190.970248 30.37861 
L 191.523117 30.37861 
L 191.523117 47.999358 
L 192.075987 47.999358 
L 192.075987 48.651979 
L 192.628856 48.651979 
L 192.628856 43.757326 
L 193.181726 43.757326 
L 193.181726 41.146845 
L 193.734595 41.146845 
L 193.734595 41.473155 
L 194.287465 41.473155 
L 194.287465 39.188984 
L 194.840334 39.188984 
L 194.840334 46.367807 
L 195.393204 46.367807 
L 195.393204 39.841604 
L 195.946073 39.841604 
L 195.946073 43.431016 
L 196.498943 43.431016 
L 196.498943 41.799465 
L 197.051812 41.799465 
L 197.051812 32.989091 
L 197.604682 32.989091 
L 197.604682 37.231123 
L 198.157551 37.231123 
L 198.157551 33.641711 
L 198.710421 33.641711 
L 198.710421 40.167914 
L 199.26329 40.167914 
L 199.26329 39.515294 
L 199.81616 39.515294 
L 199.81616 42.778396 
L 200.369029 42.778396 
L 200.369029 35.925882 
L 200.921899 35.925882 
L 200.921899 47.999358 
L 201.474768 47.999358 
L 201.474768 37.231123 
L 202.027638 37.231123 
L 202.027638 45.715187 
L 202.580507 45.715187 
L 202.580507 39.841604 
L 203.133377 39.841604 
L 203.133377 37.557433 
L 203.686247 37.557433 
L 203.686247 33.641711 
L 204.239116 33.641711 
L 204.239116 37.883743 
L 204.791986 37.883743 
L 204.791986 34.946952 
L 205.344855 34.946952 
L 205.344855 30.052299 
L 205.897725 30.052299 
L 205.897725 36.252193 
L 206.450594 36.252193 
L 206.450594 31.35754 
L 207.003464 31.35754 
L 207.003464 38.862674 
L 207.556333 38.862674 
L 207.556333 31.03123 
L 208.109203 31.03123 
L 208.109203 40.820535 
L 208.662072 40.820535 
L 208.662072 39.515294 
L 209.214942 39.515294 
L 209.214942 37.557433 
L 209.767811 37.557433 
L 209.767811 35.925882 
L 210.320681 35.925882 
L 210.320681 41.799465 
L 210.87355 41.799465 
L 210.87355 35.925882 
L 211.42642 35.925882 
L 211.42642 41.146845 
L 211.979289 41.146845 
L 211.979289 34.946952 
L 212.532159 34.946952 
L 212.532159 40.820535 
L 213.085028 40.820535 
L 213.085028 45.388877 
L 213.637898 45.388877 
L 213.637898 35.925882 
L 214.190767 35.925882 
L 214.190767 37.883743 
L 214.743637 37.883743 
L 214.743637 46.041497 
L 214.743637 46.041497 
" clip-path="url(#p3a0b97f178)" style="fill: none; stroke: #1f77b4; stroke-width: 1.5; stroke-linecap: square"/>
   </g>
   <g id="patch_3">
    <path d="M 52.2 132.84 
L 52.2 10.8 
" style="fill: none; stroke: #000000; stroke-width: 0.8; stroke-linejoin: miter; stroke-linecap: square"/>
   </g>
   <g id="patch_4">
    <path d="M 222.48381 132.84 
L 222.48381 10.8 
" style="fill: none; stroke: #000000; stroke-width: 0.8; stroke-linejoin: miter; stroke-linecap: square"/>
   </g>
   <g id="patch_5">
    <path d="M 52.2 132.84 
L 222.48381 132.84 
" style="fill: none; stroke: #000000; stroke-width: 0.8; stroke-linejoin: miter; stroke-linecap: square"/>
   </g>
   <g id="patch_6">
    <path d="M 52.2 10.8 
L 222.48381 10.8 
" style="fill: none; stroke: #000000; stroke-width: 0.8; stroke-linejoin: miter; stroke-linecap: square"/>
   </g>
  </g>
  <g id="axes_2">
   <g id="patch_7">
    <path d="M 264.22442 132.84 
L 434.50823 132.84 
L 434.50823 10.8 
L 264.22442 10.8 
z
" style="fill: #ffffff"/>
   </g>
   <g id="matplotlib.axis_3">
    <g id="xtick_6">
     <g id="line2d_12">
      <g>
       <use xlink:href="#m11baa932a6" x="275.452823" y="132.84" style="stroke: #000000; stroke-width: 0.8"/>
      </g>
     </g>
     <g id="text_13">
      <!-- −40 -->
      <g transform="translate(264.900479 147.438438) scale(0.1 -0.1)">
       <defs>
        <path id="DejaVuSans-2212" d="M 678 2272 
L 4684 2272 
L 4684 1741 
L 678 1741 
L 678 2272 
z
" transform="scale(0.015625)"/>
        <path id="DejaVuSans-34" d="M 2419 4116 
L 825 1625 
L 2419 1625 
L 2419 4116 
z
M 2253 4666 
L 3047 4666 
L 3047 1625 
L 3713 1625 
L 3713 1100 
L 3047 1100 
L 3047 0 
L 2419 0 
L 2419 1100 
L 313 1100 
L 313 1709 
L 2253 4666 
z
" transform="scale(0.015625)"/>
       </defs>
       <use xlink:href="#DejaVuSans-2212"/>
       <use xlink:href="#DejaVuSans-34" x="83.789062"/>
       <use xlink:href="#DejaVuSans-30" x="147.412109"/>
      </g>
     </g>
    </g>
    <g id="xtick_7">
     <g id="line2d_13">
      <g>
       <use xlink:href="#m11baa932a6" x="313.782372" y="132.84" style="stroke: #000000; stroke-width: 0.8"/>
      </g>
     </g>
     <g id="text_14">
      <!-- −20 -->
      <g transform="translate(303.230028 147.438438) scale(0.1 -0.1)">
       <use xlink:href="#DejaVuSans-2212"/>
       <use xlink:href="#DejaVuSans-32" x="83.789062"/>
       <use xlink:href="#DejaVuSans-30" x="147.412109"/>
      </g>
     </g>
    </g>
    <g id="xtick_8">
     <g id="line2d_14">
      <g>
       <use xlink:href="#m11baa932a6" x="352.11192" y="132.84" style="stroke: #000000; stroke-width: 0.8"/>
      </g>
     </g>
     <g id="text_15">
      <!-- 0 -->
      <g transform="translate(348.93067 147.438438) scale(0.1 -0.1)">
       <use xlink:href="#DejaVuSans-30"/>
      </g>
     </g>
    </g>
    <g id="xtick_9">
     <g id="line2d_15">
      <g>
       <use xlink:href="#m11baa932a6" x="390.441469" y="132.84" style="stroke: #000000; stroke-width: 0.8"/>
      </g>
     </g>
     <g id="text_16">
      <!-- 20 -->
      <g transform="translate(384.078969 147.438438) scale(0.1 -0.1)">
       <use xlink:href="#DejaVuSans-32"/>
       <use xlink:href="#DejaVuSans-30" x="63.623047"/>
      </g>
     </g>
    </g>
    <g id="xtick_10">
     <g id="line2d_16">
      <g>
       <use xlink:href="#m11baa932a6" x="428.771017" y="132.84" style="stroke: #000000; stroke-width: 0.8"/>
      </g>
     </g>
     <g id="text_17">
      <!-- 40 -->
      <g transform="translate(422.408517 147.438438) scale(0.1 -0.1)">
       <use xlink:href="#DejaVuSans-34"/>
       <use xlink:href="#DejaVuSans-30" x="63.623047"/>
      </g>
     </g>
    </g>
    <g id="text_18">
     <!-- atom momentum $p$ -->
     <g transform="translate(300.966325 159.09625) scale(0.1 -0.1)">
      <defs>
       <path id="DejaVuSans-65" d="M 3597 1894 
L 3597 1613 
L 953 1613 
Q 991 1019 1311 708 
Q 1631 397 2203 397 
Q 2534 397 2845 478 
Q 3156 559 3463 722 
L 3463 178 
Q 3153 47 2828 -22 
Q 2503 -91 2169 -91 
Q 1331 -91 842 396 
Q 353 884 353 1716 
Q 353 2575 817 3079 
Q 1281 3584 2069 3584 
Q 2775 3584 3186 3129 
Q 3597 2675 3597 1894 
z
M 3022 2063 
Q 3016 2534 2758 2815 
Q 2500 3097 2075 3097 
Q 1594 3097 1305 2825 
Q 1016 2553 972 2059 
L 3022 2063 
z
" transform="scale(0.015625)"/>
       <path id="DejaVuSans-Oblique-70" d="M 3175 2156 
Q 3175 2616 2975 2859 
Q 2775 3103 2400 3103 
Q 2144 3103 1911 2972 
Q 1678 2841 1497 2591 
Q 1319 2344 1212 1994 
Q 1106 1644 1106 1300 
Q 1106 863 1306 627 
Q 1506 391 1875 391 
Q 2147 391 2380 519 
Q 2613 647 2778 891 
Q 2956 1147 3065 1494 
Q 3175 1841 3175 2156 
z
M 1394 2969 
Q 1625 3272 1939 3428 
Q 2253 3584 2638 3584 
Q 3175 3584 3472 3232 
Q 3769 2881 3769 2247 
Q 3769 1728 3584 1258 
Q 3400 788 3053 416 
Q 2822 169 2531 39 
Q 2241 -91 1919 -91 
Q 1547 -91 1294 64 
Q 1041 219 916 525 
L 556 -1331 
L -19 -1331 
L 922 3500 
L 1497 3500 
L 1394 2969 
z
" transform="scale(0.015625)"/>
      </defs>
      <use xlink:href="#DejaVuSans-61" transform="translate(0 0.78125)"/>
      <use xlink:href="#DejaVuSans-74" transform="translate(61.279297 0.78125)"/>
      <use xlink:href="#DejaVuSans-6f" transform="translate(100.488281 0.78125)"/>
      <use xlink:href="#DejaVuSans-6d" transform="translate(161.669922 0.78125)"/>
      <use xlink:href="#DejaVuSans-20" transform="translate(259.082031 0.78125)"/>
      <use xlink:href="#DejaVuSans-6d" transform="translate(290.869141 0.78125)"/>
      <use xlink:href="#DejaVuSans-6f" transform="translate(388.28125 0.78125)"/>
      <use xlink:href="#DejaVuSans-6d" transform="translate(449.462891 0.78125)"/>
      <use xlink:href="#DejaVuSans-65" transform="translate(546.875 0.78125)"/>
      <use xlink:href="#DejaVuSans-6e" transform="translate(608.398438 0.78125)"/>
      <use xlink:href="#DejaVuSans-74" transform="translate(671.777344 0.78125)"/>
      <use xlink:href="#DejaVuSans-75" transform="translate(710.986328 0.78125)"/>
      <use xlink:href="#DejaVuSans-6d" transform="translate(774.365234 0.78125)"/>
      <use xlink:href="#DejaVuSans-20" transform="translate(871.777344 0.78125)"/>
      <use xlink:href="#DejaVuSans-Oblique-70" transform="translate(903.564453 0.78125)"/>
     </g>
    </g>
   </g>
   <g id="matplotlib.axis_4">
    <g id="ytick_6">
     <g id="line2d_17">
      <g>
       <use xlink:href="#m5918d972e0" x="264.22442" y="127.292727" style="stroke: #000000; stroke-width: 0.8"/>
      </g>
     </g>
     <g id="text_19">
      <!-- 0.00 -->
      <g transform="translate(234.958795 131.091946) scale(0.1 -0.1)">
       <use xlink:href="#DejaVuSans-30"/>
       <use xlink:href="#DejaVuSans-2e" x="63.623047"/>
       <use xlink:href="#DejaVuSans-30" x="95.410156"/>
       <use xlink:href="#DejaVuSans-30" x="159.033203"/>
      </g>
     </g>
    </g>
    <g id="ytick_7">
     <g id="line2d_18">
      <g>
       <use xlink:href="#m5918d972e0" x="264.22442" y="100.140759" style="stroke: #000000; stroke-width: 0.8"/>
      </g>
     </g>
     <g id="text_20">
      <!-- 0.01 -->
      <g transform="translate(234.958795 103.939978) scale(0.1 -0.1)">
       <use xlink:href="#DejaVuSans-30"/>
       <use xlink:href="#DejaVuSans-2e" x="63.623047"/>
       <use xlink:href="#DejaVuSans-30" x="95.410156"/>
       <use xlink:href="#DejaVuSans-31" x="159.033203"/>
      </g>
     </g>
    </g>
    <g id="ytick_8">
     <g id="line2d_19">
      <g>
       <use xlink:href="#m5918d972e0" x="264.22442" y="72.988791" style="stroke: #000000; stroke-width: 0.8"/>
      </g>
     </g>
     <g id="text_21">
      <!-- 0.02 -->
      <g transform="translate(234.958795 76.78801) scale(0.1 -0.1)">
       <use xlink:href="#DejaVuSans-30"/>
       <use xlink:href="#DejaVuSans-2e" x="63.623047"/>
       <use xlink:href="#DejaVuSans-30" x="95.410156"/>
       <use xlink:href="#DejaVuSans-32" x="159.033203"/>
      </g>
     </g>
    </g>
    <g id="ytick_9">
     <g id="line2d_20">
      <g>
       <use xlink:href="#m5918d972e0" x="264.22442" y="45.836823" style="stroke: #000000; stroke-width: 0.8"/>
      </g>
     </g>
     <g id="text_22">
      <!-- 0.03 -->
      <g transform="translate(234.958795 49.636042) scale(0.1 -0.1)">
       <use xlink:href="#DejaVuSans-30"/>
       <use xlink:href="#DejaVuSans-2e" x="63.623047"/>
       <use xlink:href="#DejaVuSans-30" x="95.410156"/>
       <use xlink:href="#DejaVuSans-33" x="159.033203"/>
      </g>
     </g>
    </g>
    <g id="ytick_10">
     <g id="line2d_21">
      <g>
       <use xlink:href="#m5918d972e0" x="264.22442" y="18.684855" style="stroke: #000000; stroke-width: 0.8"/>
      </g>
     </g>
     <g id="text_23">
      <!-- 0.04 -->
      <g transform="translate(234.958795 22.484074) scale(0.1 -0.1)">
       <use xlink:href="#DejaVuSans-30"/>
       <use xlink:href="#DejaVuSans-2e" x="63.623047"/>
       <use xlink:href="#DejaVuSans-30" x="95.410156"/>
       <use xlink:href="#DejaVuSans-34" x="159.033203"/>
      </g>
     </g>
    </g>
    <g id="text_24">
     <!-- distribution -->
     <g transform="translate(230.879108 100.312969) rotate(-90) scale(0.1 -0.1)">
      <use xlink:href="#DejaVuSans-64"/>
      <use xlink:href="#DejaVuSans-69" x="63.476562"/>
      <use xlink:href="#DejaVuSans-73" x="91.259766"/>
      <use xlink:href="#DejaVuSans-74" x="143.359375"/>
      <use xlink:href="#DejaVuSans-72" x="182.568359"/>
      <use xlink:href="#DejaVuSans-69" x="223.681641"/>
      <use xlink:href="#DejaVuSans-62" x="251.464844"/>
      <use xlink:href="#DejaVuSans-75" x="314.941406"/>
      <use xlink:href="#DejaVuSans-74" x="378.320312"/>
      <use xlink:href="#DejaVuSans-69" x="417.529297"/>
      <use xlink:href="#DejaVuSans-6f" x="445.3125"/>
      <use xlink:href="#DejaVuSans-6e" x="506.494141"/>
     </g>
    </g>
   </g>
   <g id="line2d_22">
    <path d="M 271.964593 127.175076 
L 273.070332 127.175076 
L 273.070332 127.292727 
L 274.176071 127.292727 
L 274.176071 127.175076 
L 274.728941 127.175076 
L 274.728941 127.292727 
L 276.387549 127.292727 
L 276.387549 127.057424 
L 276.940419 127.057424 
L 276.940419 127.175076 
L 277.493288 127.175076 
L 277.493288 127.292727 
L 278.599027 127.292727 
L 278.599027 127.175076 
L 279.151897 127.175076 
L 279.151897 127.292727 
L 282.469114 127.292727 
L 282.469114 127.175076 
L 283.021984 127.175076 
L 283.021984 127.057424 
L 283.574853 127.057424 
L 283.574853 126.704469 
L 284.127723 126.704469 
L 284.127723 127.175076 
L 284.680592 127.175076 
L 284.680592 127.292727 
L 285.233462 127.292727 
L 285.233462 127.175076 
L 285.786331 127.175076 
L 285.786331 127.057424 
L 286.339201 127.057424 
L 286.339201 127.292727 
L 286.89207 127.292727 
L 286.89207 126.939772 
L 287.44494 126.939772 
L 287.44494 127.175076 
L 287.997809 127.175076 
L 287.997809 126.704469 
L 288.550679 126.704469 
L 288.550679 127.175076 
L 289.103548 127.175076 
L 289.103548 126.939772 
L 289.656418 126.939772 
L 289.656418 127.175076 
L 290.209287 127.175076 
L 290.209287 126.704469 
L 290.762157 126.704469 
L 290.762157 126.822121 
L 291.315026 126.822121 
L 291.315026 126.351515 
L 291.867896 126.351515 
L 291.867896 127.057424 
L 292.420765 127.057424 
L 292.420765 126.704469 
L 292.973635 126.704469 
L 292.973635 125.880908 
L 294.079374 125.880908 
L 294.079374 126.116211 
L 294.632243 126.116211 
L 294.632243 126.939772 
L 295.185113 126.939772 
L 295.185113 126.233863 
L 295.737982 126.233863 
L 295.737982 125.527953 
L 296.290852 125.527953 
L 296.290852 124.822044 
L 296.843721 124.822044 
L 296.843721 125.99856 
L 298.50233 125.99856 
L 298.50233 125.057347 
L 299.055199 125.057347 
L 299.055199 125.29265 
L 300.160938 125.29265 
L 300.160938 125.174999 
L 300.713808 125.174999 
L 300.713808 125.527953 
L 301.266677 125.527953 
L 301.266677 124.233786 
L 301.819547 124.233786 
L 301.819547 123.174921 
L 302.372416 123.174921 
L 302.372416 123.645528 
L 302.925286 123.645528 
L 302.925286 123.763179 
L 303.478155 123.763179 
L 303.478155 122.586663 
L 304.031025 122.586663 
L 304.031025 122.939618 
L 305.136764 122.939618 
L 305.136764 121.880754 
L 306.242503 121.880754 
L 306.242503 121.645451 
L 306.795373 121.645451 
L 306.795373 120.351283 
L 307.348242 120.351283 
L 307.348242 119.645374 
L 307.901112 119.645374 
L 307.901112 117.645296 
L 308.453981 117.645296 
L 308.453981 119.292419 
L 309.006851 119.292419 
L 309.006851 117.998251 
L 309.55972 117.998251 
L 309.55972 116.586432 
L 310.11259 116.586432 
L 310.11259 117.645296 
L 310.665459 117.645296 
L 310.665459 116.821735 
L 311.218329 116.821735 
L 311.218329 117.527645 
L 311.771198 117.527645 
L 311.771198 115.998174 
L 312.324068 115.998174 
L 312.324068 114.93931 
L 312.876937 114.93931 
L 312.876937 115.762871 
L 313.429807 115.762871 
L 313.429807 109.880291 
L 313.982676 109.880291 
L 313.982676 113.056884 
L 314.535546 113.056884 
L 314.535546 110.586201 
L 315.088415 110.586201 
L 315.088415 109.409685 
L 315.641285 109.409685 
L 315.641285 110.939155 
L 316.194154 110.939155 
L 316.194154 106.82135 
L 316.747024 106.82135 
L 316.747024 108.233169 
L 317.299893 108.233169 
L 317.299893 104.468318 
L 317.852763 104.468318 
L 317.852763 106.468395 
L 318.405632 106.468395 
L 318.405632 101.174073 
L 318.958502 101.174073 
L 318.958502 100.115209 
L 319.511371 100.115209 
L 319.511371 106.82135 
L 320.064241 106.82135 
L 320.064241 100.115209 
L 320.61711 100.115209 
L 320.61711 99.879906 
L 321.16998 99.879906 
L 321.16998 95.05619 
L 321.722849 95.05619 
L 321.722849 96.232706 
L 322.275719 96.232706 
L 322.275719 93.526719 
L 322.828588 93.526719 
L 322.828588 92.467855 
L 323.381458 92.467855 
L 323.381458 87.879443 
L 323.934327 87.879443 
L 323.934327 92.467855 
L 324.487197 92.467855 
L 324.487197 85.408759 
L 325.040066 85.408759 
L 325.040066 85.997017 
L 325.592936 85.997017 
L 325.592936 83.99694 
L 326.145806 83.99694 
L 326.145806 79.996786 
L 326.698675 79.996786 
L 326.698675 80.114437 
L 327.251545 80.114437 
L 327.251545 76.702541 
L 327.804414 76.702541 
L 327.804414 79.761483 
L 328.357284 79.761483 
L 328.357284 76.820193 
L 328.910153 76.820193 
L 328.910153 75.761328 
L 329.463023 75.761328 
L 329.463023 75.17307 
L 330.015892 75.17307 
L 330.015892 72.702387 
L 330.568762 72.702387 
L 330.568762 70.467007 
L 331.121631 70.467007 
L 331.121631 67.408065 
L 331.674501 67.408065 
L 331.674501 67.525717 
L 332.22737 67.525717 
L 332.22737 61.643137 
L 332.78024 61.643137 
L 332.78024 54.819344 
L 333.333109 54.819344 
L 333.333109 62.113743 
L 333.885979 62.113743 
L 333.885979 57.525331 
L 334.438848 57.525331 
L 334.438848 55.289951 
L 334.991718 55.289951 
L 334.991718 55.878209 
L 335.544587 55.878209 
L 335.544587 55.407602 
L 336.097457 55.407602 
L 336.097457 52.936919 
L 336.650326 52.936919 
L 336.650326 44.466004 
L 337.203196 44.466004 
L 337.203196 45.289565 
L 337.756065 45.289565 
L 337.756065 47.760249 
L 338.308935 47.760249 
L 338.308935 42.70123 
L 338.861804 42.70123 
L 338.861804 39.524637 
L 339.414674 39.524637 
L 339.414674 40.701153 
L 339.967543 40.701153 
L 339.967543 34.818573 
L 340.520413 34.818573 
L 340.520413 29.759555 
L 341.073282 29.759555 
L 341.073282 38.583424 
L 341.626152 38.583424 
L 341.626152 27.641826 
L 342.179021 27.641826 
L 342.179021 34.112664 
L 342.731891 34.112664 
L 342.731891 27.17122 
L 343.28476 27.17122 
L 343.28476 27.759477 
L 343.83763 27.759477 
L 343.83763 23.053414 
L 344.390499 23.053414 
L 344.390499 27.524174 
L 344.943369 27.524174 
L 344.943369 20.465079 
L 345.496238 20.465079 
L 345.496238 19.288563 
L 346.049108 19.288563 
L 346.049108 21.406291 
L 346.601977 21.406291 
L 346.601977 18.34735 
L 347.154847 18.34735 
L 347.154847 21.28864 
L 347.707717 21.28864 
L 347.707717 19.170911 
L 348.260586 19.170911 
L 348.260586 28.347735 
L 348.813456 28.347735 
L 348.813456 21.523943 
L 349.366325 21.523943 
L 349.366325 17.053182 
L 349.919195 17.053182 
L 349.919195 20.229775 
L 350.472064 20.229775 
L 350.472064 16.347273 
L 351.024934 16.347273 
L 351.024934 18.34735 
L 351.577803 18.34735 
L 351.577803 19.994472 
L 352.130673 19.994472 
L 352.130673 20.58273 
L 352.683542 20.58273 
L 352.683542 30.230161 
L 353.236412 30.230161 
L 353.236412 17.64144 
L 353.789281 17.64144 
L 353.789281 22.229853 
L 354.342151 22.229853 
L 354.342151 17.288485 
L 354.89502 17.288485 
L 354.89502 17.759092 
L 355.44789 17.759092 
L 355.44789 18.465001 
L 356.000759 18.465001 
L 356.000759 19.876821 
L 356.553629 19.876821 
L 356.553629 23.994626 
L 357.106498 23.994626 
L 357.106498 26.347658 
L 357.659368 26.347658 
L 357.659368 31.759632 
L 358.212237 31.759632 
L 358.212237 26.700613 
L 358.765107 26.700613 
L 358.765107 24.582884 
L 359.317976 24.582884 
L 359.317976 28.347735 
L 359.870846 28.347735 
L 359.870846 25.524097 
L 360.423715 25.524097 
L 360.423715 23.52402 
L 360.976585 23.52402 
L 360.976585 35.995089 
L 361.529454 35.995089 
L 361.529454 34.230315 
L 362.082324 34.230315 
L 362.082324 35.171528 
L 362.635193 35.171528 
L 362.635193 32.230238 
L 363.188063 32.230238 
L 363.188063 31.289025 
L 363.740932 31.289025 
L 363.740932 34.700922 
L 364.293802 34.700922 
L 364.293802 33.995012 
L 364.846671 33.995012 
L 364.846671 44.701307 
L 365.399541 44.701307 
L 365.399541 39.995243 
L 365.95241 39.995243 
L 365.95241 44.583656 
L 366.50528 44.583656 
L 366.50528 47.289642 
L 367.058149 47.289642 
L 367.058149 47.524946 
L 367.611019 47.524946 
L 367.611019 49.877977 
L 368.163888 49.877977 
L 368.163888 55.054648 
L 368.716758 55.054648 
L 368.716758 55.642906 
L 369.269628 55.642906 
L 369.269628 56.937073 
L 369.822497 56.937073 
L 369.822497 53.76048 
L 370.375367 53.76048 
L 370.375367 59.64306 
L 370.928236 59.64306 
L 370.928236 60.348969 
L 371.481106 60.348969 
L 371.481106 61.87844 
L 372.033975 61.87844 
L 372.033975 66.819807 
L 372.586845 66.819807 
L 372.586845 69.525794 
L 373.139714 69.525794 
L 373.139714 71.761174 
L 373.692584 71.761174 
L 373.692584 73.290645 
L 374.245453 73.290645 
L 374.245453 74.702464 
L 374.798323 74.702464 
L 374.798323 78.232012 
L 375.351192 78.232012 
L 375.351192 75.408374 
L 375.904062 75.408374 
L 375.904062 74.702464 
L 376.456931 74.702464 
L 376.456931 79.055573 
L 377.009801 79.055573 
L 377.009801 79.643831 
L 377.56267 79.643831 
L 377.56267 83.055727 
L 378.11554 83.055727 
L 378.11554 86.23232 
L 378.668409 86.23232 
L 378.668409 83.99694 
L 379.221279 83.99694 
L 379.221279 88.114746 
L 379.774148 88.114746 
L 379.774148 93.644371 
L 380.327018 93.644371 
L 380.327018 91.526642 
L 380.879887 91.526642 
L 380.879887 94.820887 
L 381.432757 94.820887 
L 381.432757 93.879674 
L 381.985626 93.879674 
L 381.985626 97.409222 
L 382.538496 97.409222 
L 382.538496 98.468086 
L 383.091365 98.468086 
L 383.091365 103.997711 
L 383.644235 103.997711 
L 383.644235 102.585892 
L 384.197104 102.585892 
L 384.197104 101.527028 
L 384.749974 101.527028 
L 384.749974 99.762254 
L 385.302843 99.762254 
L 385.302843 105.997788 
L 385.855713 105.997788 
L 385.855713 104.703621 
L 386.408582 104.703621 
L 386.408582 104.115363 
L 386.961452 104.115363 
L 386.961452 107.056653 
L 387.514321 107.056653 
L 387.514321 108.233169 
L 388.067191 108.233169 
L 388.067191 110.586201 
L 388.62006 110.586201 
L 388.62006 111.409762 
L 389.17293 111.409762 
L 389.17293 112.350975 
L 389.725799 112.350975 
L 389.725799 110.586201 
L 390.278669 110.586201 
L 390.278669 112.350975 
L 390.831539 112.350975 
L 390.831539 113.292187 
L 391.384408 113.292187 
L 391.384408 113.174536 
L 391.937278 113.174536 
L 391.937278 114.704007 
L 392.490147 114.704007 
L 392.490147 115.174613 
L 393.043017 115.174613 
L 393.043017 118.939464 
L 393.595886 118.939464 
L 393.595886 117.057038 
L 394.148756 117.057038 
L 394.148756 117.17469 
L 394.701625 117.17469 
L 394.701625 119.998328 
L 395.254495 119.998328 
L 395.254495 118.586509 
L 395.807364 118.586509 
L 395.807364 120.468935 
L 396.360234 120.468935 
L 396.360234 117.527645 
L 396.913103 117.527645 
L 396.913103 119.41007 
L 397.465973 119.41007 
L 397.465973 121.410147 
L 398.018842 121.410147 
L 398.018842 121.998405 
L 398.571712 121.998405 
L 398.571712 122.586663 
L 399.124581 122.586663 
L 399.124581 120.704238 
L 399.677451 120.704238 
L 399.677451 121.763102 
L 400.23032 121.763102 
L 400.23032 122.586663 
L 400.78319 122.586663 
L 400.78319 122.233709 
L 401.336059 122.233709 
L 401.336059 123.763179 
L 401.888929 123.763179 
L 401.888929 124.116134 
L 402.994668 124.116134 
L 402.994668 123.998483 
L 403.547537 123.998483 
L 403.547537 124.586741 
L 404.100407 124.586741 
L 404.100407 123.998483 
L 404.653276 123.998483 
L 404.653276 124.469089 
L 405.206146 124.469089 
L 405.206146 125.410302 
L 405.759015 125.410302 
L 405.759015 124.351437 
L 406.311885 124.351437 
L 406.311885 125.174999 
L 406.864754 125.174999 
L 406.864754 124.351437 
L 407.417624 124.351437 
L 407.417624 125.29265 
L 407.970493 125.29265 
L 407.970493 125.880908 
L 409.076232 125.880908 
L 409.076232 125.527953 
L 409.629102 125.527953 
L 409.629102 125.763257 
L 410.181971 125.763257 
L 410.181971 126.233863 
L 410.734841 126.233863 
L 410.734841 126.351515 
L 411.28771 126.351515 
L 411.28771 126.939772 
L 411.84058 126.939772 
L 411.84058 126.586818 
L 412.39345 126.586818 
L 412.39345 126.822121 
L 412.946319 126.822121 
L 412.946319 126.586818 
L 414.052058 126.586818 
L 414.052058 126.704469 
L 415.710667 126.704469 
L 415.710667 126.822121 
L 416.816406 126.822121 
L 416.816406 127.175076 
L 417.369275 127.175076 
L 417.369275 126.704469 
L 417.922145 126.704469 
L 417.922145 127.057424 
L 418.475014 127.057424 
L 418.475014 127.175076 
L 419.580753 127.175076 
L 419.580753 126.939772 
L 421.239362 126.939772 
L 421.239362 127.292727 
L 424.003709 127.292727 
L 424.003709 127.057424 
L 424.556579 127.057424 
L 424.556579 127.292727 
L 425.109448 127.292727 
L 425.109448 127.175076 
L 425.662318 127.175076 
L 425.662318 127.292727 
L 426.215187 127.292727 
L 426.215187 127.175076 
L 426.768057 127.175076 
L 426.768057 127.292727 
L 426.768057 127.292727 
" clip-path="url(#pf3ee63a904)" style="fill: none; stroke: #1f77b4; stroke-width: 1.5; stroke-linecap: square"/>
   </g>
   <g id="patch_8">
    <path d="M 264.22442 132.84 
L 264.22442 10.8 
" style="fill: none; stroke: #000000; stroke-width: 0.8; stroke-linejoin: miter; stroke-linecap: square"/>
   </g>
   <g id="patch_9">
    <path d="M 434.50823 132.84 
L 434.50823 10.8 
" style="fill: none; stroke: #000000; stroke-width: 0.8; stroke-linejoin: miter; stroke-linecap: square"/>
   </g>
   <g id="patch_10">
    <path d="M 264.22442 132.84 
L 434.50823 132.84 
" style="fill: none; stroke: #000000; stroke-width: 0.8; stroke-linejoin: miter; stroke-linecap: square"/>
   </g>
   <g id="patch_11">
    <path d="M 264.22442 10.8 
L 434.50823 10.8 
" style="fill: none; stroke: #000000; stroke-width: 0.8; stroke-linejoin: miter; stroke-linecap: square"/>
   </g>
  </g>
  <g id="axes_3">
   <g id="patch_12">
    <path d="M 52.2 287.64 
L 222.48381 287.64 
L 222.48381 165.6 
L 52.2 165.6 
z
" style="fill: #ffffff"/>
   </g>
   <g id="matplotlib.axis_5">
    <g id="xtick_11">
     <g id="line2d_23">
      <g>
       <use xlink:href="#m11baa932a6" x="67.001825" y="287.64" style="stroke: #000000; stroke-width: 0.8"/>
      </g>
     </g>
     <g id="text_25">
      <!-- −1.0 -->
      <g transform="translate(54.860418 302.238437) scale(0.1 -0.1)">
       <use xlink:href="#DejaVuSans-2212"/>
       <use xlink:href="#DejaVuSans-31" x="83.789062"/>
       <use xlink:href="#DejaVuSans-2e" x="147.412109"/>
       <use xlink:href="#DejaVuSans-30" x="179.199219"/>
      </g>
     </g>
    </g>
    <g id="xtick_12">
     <g id="line2d_24">
      <g>
       <use xlink:href="#m11baa932a6" x="102.310082" y="287.64" style="stroke: #000000; stroke-width: 0.8"/>
      </g>
     </g>
     <g id="text_26">
      <!-- −0.5 -->
      <g transform="translate(90.168676 302.238437) scale(0.1 -0.1)">
       <use xlink:href="#DejaVuSans-2212"/>
       <use xlink:href="#DejaVuSans-30" x="83.789062"/>
       <use xlink:href="#DejaVuSans-2e" x="147.412109"/>
       <use xlink:href="#DejaVuSans-35" x="179.199219"/>
      </g>
     </g>
    </g>
    <g id="xtick_13">
     <g id="line2d_25">
      <g>
       <use xlink:href="#m11baa932a6" x="137.61834" y="287.64" style="stroke: #000000; stroke-width: 0.8"/>
      </g>
     </g>
     <g id="text_27">
      <!-- 0.0 -->
      <g transform="translate(129.666777 302.238437) scale(0.1 -0.1)">
       <use xlink:href="#DejaVuSans-30"/>
       <use xlink:href="#DejaVuSans-2e" x="63.623047"/>
       <use xlink:href="#DejaVuSans-30" x="95.410156"/>
      </g>
     </g>
    </g>
    <g id="xtick_14">
     <g id="line2d_26">
      <g>
       <use xlink:href="#m11baa932a6" x="172.926597" y="287.64" style="stroke: #000000; stroke-width: 0.8"/>
      </g>
     </g>
     <g id="text_28">
      <!-- 0.5 -->
      <g transform="translate(164.975035 302.238437) scale(0.1 -0.1)">
       <use xlink:href="#DejaVuSans-30"/>
       <use xlink:href="#DejaVuSans-2e" x="63.623047"/>
       <use xlink:href="#DejaVuSans-35" x="95.410156"/>
      </g>
     </g>
    </g>
    <g id="xtick_15">
     <g id="line2d_27">
      <g>
       <use xlink:href="#m11baa932a6" x="208.234855" y="287.64" style="stroke: #000000; stroke-width: 0.8"/>
      </g>
     </g>
     <g id="text_29">
      <!-- 1.0 -->
      <g transform="translate(200.283292 302.238437) scale(0.1 -0.1)">
       <use xlink:href="#DejaVuSans-31"/>
       <use xlink:href="#DejaVuSans-2e" x="63.623047"/>
       <use xlink:href="#DejaVuSans-30" x="95.410156"/>
      </g>
     </g>
    </g>
    <g id="text_30">
     <!-- spins $\sigma^x$ and $\sigma^y$ -->
     <g transform="translate(98.991905 314.018125) scale(0.1 -0.1)">
      <defs>
       <path id="DejaVuSans-Oblique-3c3" d="M 2219 3044 
Q 1744 3044 1422 2700 
Q 1081 2341 969 1747 
Q 844 1119 1044 756 
Q 1241 397 1706 397 
Q 2166 397 2503 759 
Q 2844 1122 2966 1747 
Q 3075 2319 2881 2700 
Q 2700 3044 2219 3044 
z
M 2309 3503 
L 4219 3500 
L 4106 2925 
L 3463 2925 
Q 3706 2438 3575 1747 
Q 3406 888 2884 400 
Q 2359 -91 1609 -91 
Q 856 -91 525 400 
Q 194 888 363 1747 
Q 528 2609 1050 3097 
Q 1484 3503 2309 3503 
z
" transform="scale(0.015625)"/>
       <path id="DejaVuSans-Oblique-79" d="M 1588 -325 
Q 1188 -997 936 -1164 
Q 684 -1331 294 -1331 
L -159 -1331 
L -63 -850 
L 269 -850 
Q 509 -850 678 -719 
Q 847 -588 1056 -206 
L 1234 128 
L 459 3500 
L 1069 3500 
L 1650 819 
L 3256 3500 
L 3859 3500 
L 1588 -325 
z
" transform="scale(0.015625)"/>
      </defs>
      <use xlink:href="#DejaVuSans-73" transform="translate(0 0.4375)"/>
      <use xlink:href="#DejaVuSans-70" transform="translate(52.099609 0.4375)"/>
      <use xlink:href="#DejaVuSans-69" transform="translate(115.576172 0.4375)"/>
      <use xlink:href="#DejaVuSans-6e" transform="translate(143.359375 0.4375)"/>
      <use xlink:href="#DejaVuSans-73" transform="translate(206.738281 0.4375)"/>
      <use xlink:href="#DejaVuSans-20" transform="translate(258.837891 0.4375)"/>
      <use xlink:href="#DejaVuSans-Oblique-3c3" transform="translate(290.625 0.4375)"/>
      <use xlink:href="#DejaVuSans-Oblique-78" transform="translate(358.476615 38.71875) scale(0.7)"/>
      <use xlink:href="#DejaVuSans-20" transform="translate(402.636771 0.4375)"/>
      <use xlink:href="#DejaVuSans-61" transform="translate(434.42388 0.4375)"/>
      <use xlink:href="#DejaVuSans-6e" transform="translate(495.703177 0.4375)"/>
      <use xlink:href="#DejaVuSans-64" transform="translate(559.082083 0.4375)"/>
      <use xlink:href="#DejaVuSans-20" transform="translate(622.558646 0.4375)"/>
      <use xlink:href="#DejaVuSans-Oblique-3c3" transform="translate(654.345755 0.4375)"/>
      <use xlink:href="#DejaVuSans-Oblique-79" transform="translate(722.19737 38.71875) scale(0.7)"/>
     </g>
    </g>
   </g>
   <g id="matplotlib.axis_6">
    <g id="ytick_11">
     <g id="line2d_28">
      <g>
       <use xlink:href="#m5918d972e0" x="52.2" y="282.092727" style="stroke: #000000; stroke-width: 0.8"/>
      </g>
     </g>
     <g id="text_31">
      <!-- 0 -->
      <g transform="translate(38.8375 285.891946) scale(0.1 -0.1)">
       <use xlink:href="#DejaVuSans-30"/>
      </g>
     </g>
    </g>
    <g id="ytick_12">
     <g id="line2d_29">
      <g>
       <use xlink:href="#m5918d972e0" x="52.2" y="255.148575" style="stroke: #000000; stroke-width: 0.8"/>
      </g>
     </g>
     <g id="text_32">
      <!-- 1 -->
      <g transform="translate(38.8375 258.947794) scale(0.1 -0.1)">
       <use xlink:href="#DejaVuSans-31"/>
      </g>
     </g>
    </g>
    <g id="ytick_13">
     <g id="line2d_30">
      <g>
       <use xlink:href="#m5918d972e0" x="52.2" y="228.204423" style="stroke: #000000; stroke-width: 0.8"/>
      </g>
     </g>
     <g id="text_33">
      <!-- 2 -->
      <g transform="translate(38.8375 232.003642) scale(0.1 -0.1)">
       <use xlink:href="#DejaVuSans-32"/>
      </g>
     </g>
    </g>
    <g id="ytick_14">
     <g id="line2d_31">
      <g>
       <use xlink:href="#m5918d972e0" x="52.2" y="201.260271" style="stroke: #000000; stroke-width: 0.8"/>
      </g>
     </g>
     <g id="text_34">
      <!-- 3 -->
      <g transform="translate(38.8375 205.05949) scale(0.1 -0.1)">
       <use xlink:href="#DejaVuSans-33"/>
      </g>
     </g>
    </g>
    <g id="ytick_15">
     <g id="line2d_32">
      <g>
       <use xlink:href="#m5918d972e0" x="52.2" y="174.316119" style="stroke: #000000; stroke-width: 0.8"/>
      </g>
     </g>
     <g id="text_35">
      <!-- 4 -->
      <g transform="translate(38.8375 178.115338) scale(0.1 -0.1)">
       <use xlink:href="#DejaVuSans-34"/>
      </g>
     </g>
    </g>
    <g id="text_36">
     <!-- distribution -->
     <g transform="translate(34.757812 255.112969) rotate(-90) scale(0.1 -0.1)">
      <use xlink:href="#DejaVuSans-64"/>
      <use xlink:href="#DejaVuSans-69" x="63.476562"/>
      <use xlink:href="#DejaVuSans-73" x="91.259766"/>
      <use xlink:href="#DejaVuSans-74" x="143.359375"/>
      <use xlink:href="#DejaVuSans-72" x="182.568359"/>
      <use xlink:href="#DejaVuSans-69" x="223.681641"/>
      <use xlink:href="#DejaVuSans-62" x="251.464844"/>
      <use xlink:href="#DejaVuSans-75" x="314.941406"/>
      <use xlink:href="#DejaVuSans-74" x="378.320312"/>
      <use xlink:href="#DejaVuSans-69" x="417.529297"/>
      <use xlink:href="#DejaVuSans-6f" x="445.3125"/>
      <use xlink:href="#DejaVuSans-6e" x="506.494141"/>
     </g>
    </g>
   </g>
   <g id="line2d_33">
    <path d="M 59.940173 282.092727 
L 110.804168 282.092727 
L 110.804168 281.834615 
L 111.909907 281.920652 
L 111.909907 281.963671 
L 112.462777 281.963671 
L 112.462777 281.791596 
L 113.015646 281.791596 
L 113.015646 281.963671 
L 113.568516 281.963671 
L 113.568516 281.662539 
L 114.121385 281.662539 
L 114.121385 281.490464 
L 114.674255 281.490464 
L 114.674255 281.705558 
L 115.227124 281.705558 
L 115.227124 280.974239 
L 115.779994 280.974239 
L 115.779994 281.318389 
L 116.332863 281.318389 
L 116.332863 280.974239 
L 116.885733 280.974239 
L 116.885733 279.941788 
L 117.438603 279.941788 
L 117.438603 279.683675 
L 117.991472 279.683675 
L 117.991472 280.156882 
L 118.544342 280.156882 
L 118.544342 279.038393 
L 119.097211 279.038393 
L 119.097211 277.833867 
L 119.650081 277.833867 
L 119.650081 277.403679 
L 120.20295 277.403679 
L 120.20295 276.758398 
L 120.75582 276.758398 
L 120.75582 274.779533 
L 121.308689 274.779533 
L 121.308689 273.661045 
L 121.861559 273.661045 
L 121.861559 273.230857 
L 122.414428 273.230857 
L 122.414428 270.305579 
L 122.967298 270.305579 
L 122.967298 269.875391 
L 123.520167 269.875391 
L 123.520167 264.97125 
L 124.073037 264.97125 
L 124.073037 263.852761 
L 124.625906 263.852761 
L 124.625906 260.153145 
L 125.178776 260.153145 
L 125.178776 260.71239 
L 125.731645 260.71239 
L 125.731645 254.431647 
L 126.284515 254.431647 
L 126.284515 247.892791 
L 126.837384 247.892791 
L 126.837384 244.967513 
L 127.390254 244.967513 
L 127.390254 241.310916 
L 127.943123 241.310916 
L 127.943123 239.246014 
L 128.495993 239.246014 
L 128.495993 235.675455 
L 129.048862 235.675455 
L 129.048862 227.458866 
L 129.601732 227.458866 
L 129.601732 222.038499 
L 130.154601 222.038499 
L 130.154601 221.393217 
L 130.707471 221.393217 
L 130.707471 212.359272 
L 131.26034 212.359272 
L 131.26034 208.143431 
L 131.81321 208.143431 
L 131.81321 200.873255 
L 132.366079 200.873255 
L 132.366079 198.464203 
L 132.918949 198.464203 
L 132.918949 194.592512 
L 133.471818 194.592512 
L 133.471818 189.817427 
L 134.024688 189.817427 
L 134.024688 186.978187 
L 134.577557 186.978187 
L 134.577557 182.719327 
L 135.130427 182.719327 
L 135.130427 181.729895 
L 135.683296 181.729895 
L 135.683296 178.847636 
L 136.236166 178.847636 
L 136.236166 173.513306 
L 136.789035 173.513306 
L 136.789035 171.147273 
L 137.341905 171.147273 
L 137.341905 175.14802 
L 137.894774 175.14802 
L 137.894774 172.695949 
L 138.447644 172.695949 
L 138.447644 175.14802 
L 139.000514 175.14802 
L 139.000514 181.17065 
L 139.553383 181.17065 
L 139.553383 175.879339 
L 140.106253 175.879339 
L 140.106253 181.600838 
L 140.659122 181.600838 
L 140.659122 186.117811 
L 141.211992 186.117811 
L 141.211992 187.365356 
L 141.764861 187.365356 
L 141.764861 192.140441 
L 142.317731 192.140441 
L 142.317731 201.862687 
L 142.8706 201.862687 
L 142.8706 204.357777 
L 143.42347 204.357777 
L 143.42347 207.240036 
L 143.976339 207.240036 
L 143.976339 211.886065 
L 144.529209 211.886065 
L 144.529209 220.618879 
L 145.082078 220.618879 
L 145.082078 222.339631 
L 145.634948 222.339631 
L 145.634948 227.759998 
L 146.187817 227.759998 
L 146.187817 236.492812 
L 147.293556 236.492812 
L 147.293556 242.859593 
L 147.846426 242.859593 
L 147.846426 245.053551 
L 148.399295 245.053551 
L 148.399295 250.38788 
L 148.952165 250.38788 
L 148.952165 254.517684 
L 149.505034 254.517684 
L 149.505034 257.744093 
L 150.057904 257.744093 
L 150.057904 259.852014 
L 150.610773 259.852014 
L 150.610773 264.584081 
L 151.163643 264.584081 
L 151.163643 267.036151 
L 151.716512 267.036151 
L 151.716512 267.767471 
L 152.269382 267.767471 
L 152.269382 270.477654 
L 152.822251 270.477654 
L 152.822251 273.273876 
L 153.375121 273.273876 
L 153.375121 272.456519 
L 153.92799 272.456519 
L 153.92799 276.285191 
L 154.48086 276.285191 
L 154.48086 275.811984 
L 155.033729 275.811984 
L 155.033729 278.393111 
L 155.586599 278.393111 
L 155.586599 278.09198 
L 156.139468 278.09198 
L 156.139468 279.16745 
L 156.692338 279.16745 
L 156.692338 279.683675 
L 157.245207 279.683675 
L 157.245207 280.070844 
L 157.798077 280.070844 
L 157.798077 280.630088 
L 158.350946 280.630088 
L 158.350946 280.974239 
L 159.456685 280.93122 
L 159.456685 281.533483 
L 160.562425 281.447445 
L 160.562425 281.748577 
L 162.221033 281.834615 
L 162.221033 281.619521 
L 162.773903 281.619521 
L 162.773903 281.920652 
L 163.326772 281.920652 
L 163.326772 282.049708 
L 214.743637 282.092727 
L 214.743637 282.092727 
" clip-path="url(#pa0d21eea80)" style="fill: none; stroke: #1f77b4; stroke-width: 1.5; stroke-linecap: square"/>
   </g>
   <g id="line2d_34">
    <path d="M 59.940173 282.092727 
L 111.357038 282.00669 
L 111.357038 281.834615 
L 113.015646 281.877633 
L 113.015646 281.662539 
L 113.568516 281.662539 
L 113.568516 281.791596 
L 114.121385 281.791596 
L 114.121385 281.447445 
L 114.674255 281.447445 
L 114.674255 281.748577 
L 115.227124 281.748577 
L 115.227124 281.189333 
L 115.779994 281.189333 
L 115.779994 281.447445 
L 116.332863 281.447445 
L 116.332863 280.544051 
L 117.438603 280.501032 
L 117.438603 279.812732 
L 117.991472 279.812732 
L 117.991472 278.909337 
L 118.544342 278.909337 
L 118.544342 279.253487 
L 119.097211 279.253487 
L 119.097211 279.081412 
L 119.650081 279.081412 
L 119.650081 277.446698 
L 120.20295 277.446698 
L 120.20295 276.414247 
L 120.75582 276.414247 
L 120.75582 276.113116 
L 121.308689 276.113116 
L 121.308689 274.779533 
L 121.861559 274.779533 
L 121.861559 272.585575 
L 122.414428 272.585575 
L 122.414428 270.692748 
L 122.967298 270.692748 
L 122.967298 269.316147 
L 123.520167 269.316147 
L 123.520167 266.993133 
L 124.073037 266.993133 
L 124.073037 263.938799 
L 124.625906 263.938799 
L 124.625906 260.970502 
L 125.178776 260.970502 
L 125.178776 257.744093 
L 125.731645 257.744093 
L 125.731645 254.560703 
L 126.284515 254.560703 
L 126.284515 250.258824 
L 126.837384 250.258824 
L 126.837384 247.20449 
L 127.390254 247.20449 
L 127.390254 241.138841 
L 127.943123 241.138841 
L 127.943123 237.783376 
L 128.495993 237.783376 
L 128.495993 231.545651 
L 129.048862 231.545651 
L 129.048862 226.426415 
L 129.601732 226.426415 
L 129.601732 221.737368 
L 130.154601 221.737368 
L 130.154601 217.908695 
L 130.707471 217.908695 
L 130.707471 212.015121 
L 131.26034 212.015121 
L 131.26034 207.240036 
L 131.81321 207.240036 
L 131.81321 203.927589 
L 132.366079 203.927589 
L 132.366079 198.765335 
L 132.918949 198.765335 
L 132.918949 195.151756 
L 133.471818 195.151756 
L 133.471818 190.41969 
L 134.024688 190.41969 
L 134.024688 188.096675 
L 134.577557 188.096675 
L 134.577557 182.074045 
L 135.683296 182.160082 
L 135.683296 178.976692 
L 136.236166 178.976692 
L 136.236166 176.997828 
L 136.789035 176.997828 
L 136.789035 172.136705 
L 137.341905 172.136705 
L 137.341905 175.406133 
L 137.894774 175.406133 
L 137.894774 177.772166 
L 138.447644 177.772166 
L 138.447644 177.341978 
L 139.000514 177.341978 
L 139.000514 176.309527 
L 139.553383 176.309527 
L 139.553383 177.471035 
L 140.106253 177.471035 
L 140.106253 180.181218 
L 140.659122 180.181218 
L 140.659122 183.66574 
L 141.211992 183.66574 
L 141.211992 186.935168 
L 141.764861 186.935168 
L 141.764861 193.215911 
L 142.317731 193.215911 
L 142.317731 197.603827 
L 142.8706 197.603827 
L 142.8706 201.991744 
L 143.42347 201.991744 
L 143.42347 209.304938 
L 143.976339 209.304938 
L 143.976339 212.531347 
L 144.529209 212.531347 
L 144.529209 217.865677 
L 145.082078 217.865677 
L 145.082078 224.576608 
L 145.634948 224.576608 
L 145.634948 228.319242 
L 146.187817 228.319242 
L 146.187817 235.675455 
L 147.293556 235.632436 
L 147.293556 241.052803 
L 147.846426 241.052803 
L 147.846426 246.645246 
L 148.399295 246.645246 
L 148.399295 250.344862 
L 148.952165 250.344862 
L 148.952165 256.06636 
L 149.505034 256.06636 
L 149.505034 258.475413 
L 150.057904 258.475413 
L 150.057904 260.626352 
L 150.610773 260.626352 
L 150.610773 264.756156 
L 151.163643 264.756156 
L 151.163643 267.337283 
L 151.716512 267.337283 
L 151.716512 267.036151 
L 152.269382 267.036151 
L 152.269382 270.219542 
L 152.822251 270.219542 
L 152.822251 272.585575 
L 153.375121 272.585575 
L 153.375121 272.800669 
L 153.92799 272.800669 
L 153.92799 274.306327 
L 154.48086 274.306327 
L 154.48086 276.801416 
L 155.033729 276.801416 
L 155.033729 278.178018 
L 155.586599 278.178018 
L 155.586599 278.393111 
L 156.139468 278.393111 
L 156.139468 278.952356 
L 156.692338 278.952356 
L 156.692338 279.16745 
L 157.245207 279.16745 
L 157.245207 280.156882 
L 158.350946 280.199901 
L 158.350946 280.93122 
L 158.903816 280.93122 
L 158.903816 281.232352 
L 160.562425 281.232352 
L 160.562425 281.705558 
L 161.668164 281.748577 
L 161.668164 281.834615 
L 163.326772 281.791596 
L 163.326772 281.963671 
L 165.53825 282.049708 
L 165.53825 282.092727 
L 214.743637 282.092727 
L 214.743637 282.092727 
" clip-path="url(#pa0d21eea80)" style="fill: none; stroke: #ff7f0e; stroke-width: 1.5; stroke-linecap: square"/>
   </g>
   <g id="patch_13">
    <path d="M 52.2 287.64 
L 52.2 165.6 
" style="fill: none; stroke: #000000; stroke-width: 0.8; stroke-linejoin: miter; stroke-linecap: square"/>
   </g>
   <g id="patch_14">
    <path d="M 222.48381 287.64 
L 222.48381 165.6 
" style="fill: none; stroke: #000000; stroke-width: 0.8; stroke-linejoin: miter; stroke-linecap: square"/>
   </g>
   <g id="patch_15">
    <path d="M 52.2 287.64 
L 222.48381 287.64 
" style="fill: none; stroke: #000000; stroke-width: 0.8; stroke-linejoin: miter; stroke-linecap: square"/>
   </g>
   <g id="patch_16">
    <path d="M 52.2 165.6 
L 222.48381 165.6 
" style="fill: none; stroke: #000000; stroke-width: 0.8; stroke-linejoin: miter; stroke-linecap: square"/>
   </g>
   <g id="legend_1">
    <g id="patch_17">
     <path d="M 172.18381 202.95625 
L 215.48381 202.95625 
Q 217.48381 202.95625 217.48381 200.95625 
L 217.48381 172.6 
Q 217.48381 170.6 215.48381 170.6 
L 172.18381 170.6 
Q 170.18381 170.6 170.18381 172.6 
L 170.18381 200.95625 
Q 170.18381 202.95625 172.18381 202.95625 
z
" style="fill: #ffffff; opacity: 0.8; stroke: #cccccc; stroke-linejoin: miter"/>
    </g>
    <g id="line2d_35">
     <path d="M 174.18381 178.698438 
L 184.18381 178.698438 
L 184.18381 178.698438 
L 194.18381 178.698438 
L 194.18381 178.698438 
" style="fill: none; stroke: #1f77b4; stroke-width: 1.5; stroke-linecap: square"/>
    </g>
    <g id="text_37">
     <!-- $\sigma^x$ -->
     <g transform="translate(202.18381 182.198438) scale(0.1 -0.1)">
      <use xlink:href="#DejaVuSans-Oblique-3c3" transform="translate(0 0.4375)"/>
      <use xlink:href="#DejaVuSans-Oblique-78" transform="translate(67.851615 38.71875) scale(0.7)"/>
     </g>
    </g>
    <g id="line2d_36">
     <path d="M 174.18381 193.376563 
L 184.18381 193.376563 
L 184.18381 193.376563 
L 194.18381 193.376563 
L 194.18381 193.376563 
" style="fill: none; stroke: #ff7f0e; stroke-width: 1.5; stroke-linecap: square"/>
    </g>
    <g id="text_38">
     <!-- $\sigma^y$ -->
     <g transform="translate(202.18381 196.876563) scale(0.1 -0.1)">
      <use xlink:href="#DejaVuSans-Oblique-3c3" transform="translate(0 0.4375)"/>
      <use xlink:href="#DejaVuSans-Oblique-79" transform="translate(67.851615 38.71875) scale(0.7)"/>
     </g>
    </g>
   </g>
  </g>
  <g id="axes_4">
   <g id="patch_18">
    <path d="M 264.22442 287.64 
L 434.50823 287.64 
L 434.50823 165.6 
L 264.22442 165.6 
z
" style="fill: #ffffff"/>
   </g>
   <g id="matplotlib.axis_7">
    <g id="xtick_16">
     <g id="line2d_37">
      <g>
       <use xlink:href="#m11baa932a6" x="279.026245" y="287.64" style="stroke: #000000; stroke-width: 0.8"/>
      </g>
     </g>
     <g id="text_39">
      <!-- −1.0 -->
      <g transform="translate(266.884839 302.238437) scale(0.1 -0.1)">
       <use xlink:href="#DejaVuSans-2212"/>
       <use xlink:href="#DejaVuSans-31" x="83.789062"/>
       <use xlink:href="#DejaVuSans-2e" x="147.412109"/>
       <use xlink:href="#DejaVuSans-30" x="179.199219"/>
      </g>
     </g>
    </g>
    <g id="xtick_17">
     <g id="line2d_38">
      <g>
       <use xlink:href="#m11baa932a6" x="314.334502" y="287.64" style="stroke: #000000; stroke-width: 0.8"/>
      </g>
     </g>
     <g id="text_40">
      <!-- −0.5 -->
      <g transform="translate(302.193096 302.238437) scale(0.1 -0.1)">
       <use xlink:href="#DejaVuSans-2212"/>
       <use xlink:href="#DejaVuSans-30" x="83.789062"/>
       <use xlink:href="#DejaVuSans-2e" x="147.412109"/>
       <use xlink:href="#DejaVuSans-35" x="179.199219"/>
      </g>
     </g>
    </g>
    <g id="xtick_18">
     <g id="line2d_39">
      <g>
       <use xlink:href="#m11baa932a6" x="349.64276" y="287.64" style="stroke: #000000; stroke-width: 0.8"/>
      </g>
     </g>
     <g id="text_41">
      <!-- 0.0 -->
      <g transform="translate(341.691197 302.238437) scale(0.1 -0.1)">
       <use xlink:href="#DejaVuSans-30"/>
       <use xlink:href="#DejaVuSans-2e" x="63.623047"/>
       <use xlink:href="#DejaVuSans-30" x="95.410156"/>
      </g>
     </g>
    </g>
    <g id="xtick_19">
     <g id="line2d_40">
      <g>
       <use xlink:href="#m11baa932a6" x="384.951017" y="287.64" style="stroke: #000000; stroke-width: 0.8"/>
      </g>
     </g>
     <g id="text_42">
      <!-- 0.5 -->
      <g transform="translate(376.999455 302.238437) scale(0.1 -0.1)">
       <use xlink:href="#DejaVuSans-30"/>
       <use xlink:href="#DejaVuSans-2e" x="63.623047"/>
       <use xlink:href="#DejaVuSans-35" x="95.410156"/>
      </g>
     </g>
    </g>
    <g id="xtick_20">
     <g id="line2d_41">
      <g>
       <use xlink:href="#m11baa932a6" x="420.259275" y="287.64" style="stroke: #000000; stroke-width: 0.8"/>
      </g>
     </g>
     <g id="text_43">
      <!-- 1.0 -->
      <g transform="translate(412.307712 302.238437) scale(0.1 -0.1)">
       <use xlink:href="#DejaVuSans-31"/>
       <use xlink:href="#DejaVuSans-2e" x="63.623047"/>
       <use xlink:href="#DejaVuSans-30" x="95.410156"/>
      </g>
     </g>
    </g>
    <g id="text_44">
     <!-- spins $\sigma^z$ -->
     <g transform="translate(329.466325 314.018125) scale(0.1 -0.1)">
      <defs>
       <path id="DejaVuSans-Oblique-7a" d="M 744 3500 
L 3475 3500 
L 3372 2975 
L 738 459 
L 2913 459 
L 2822 0 
L -19 0 
L 84 525 
L 2719 3041 
L 653 3041 
L 744 3500 
z
" transform="scale(0.015625)"/>
      </defs>
      <use xlink:href="#DejaVuSans-73" transform="translate(0 0.4375)"/>
      <use xlink:href="#DejaVuSans-70" transform="translate(52.099609 0.4375)"/>
      <use xlink:href="#DejaVuSans-69" transform="translate(115.576172 0.4375)"/>
      <use xlink:href="#DejaVuSans-6e" transform="translate(143.359375 0.4375)"/>
      <use xlink:href="#DejaVuSans-73" transform="translate(206.738281 0.4375)"/>
      <use xlink:href="#DejaVuSans-20" transform="translate(258.837891 0.4375)"/>
      <use xlink:href="#DejaVuSans-Oblique-3c3" transform="translate(290.625 0.4375)"/>
      <use xlink:href="#DejaVuSans-Oblique-7a" transform="translate(358.476615 38.71875) scale(0.7)"/>
     </g>
    </g>
   </g>
   <g id="matplotlib.axis_8">
    <g id="ytick_16">
     <g id="line2d_42">
      <g>
       <use xlink:href="#m5918d972e0" x="264.22442" y="282.092727" style="stroke: #000000; stroke-width: 0.8"/>
      </g>
     </g>
     <g id="text_45">
      <!-- 0 -->
      <g transform="translate(250.86192 285.891946) scale(0.1 -0.1)">
       <use xlink:href="#DejaVuSans-30"/>
      </g>
     </g>
    </g>
    <g id="ytick_17">
     <g id="line2d_43">
      <g>
       <use xlink:href="#m5918d972e0" x="264.22442" y="260.377425" style="stroke: #000000; stroke-width: 0.8"/>
      </g>
     </g>
     <g id="text_46">
      <!-- 25 -->
      <g transform="translate(244.49942 264.176644) scale(0.1 -0.1)">
       <use xlink:href="#DejaVuSans-32"/>
       <use xlink:href="#DejaVuSans-35" x="63.623047"/>
      </g>
     </g>
    </g>
    <g id="ytick_18">
     <g id="line2d_44">
      <g>
       <use xlink:href="#m5918d972e0" x="264.22442" y="238.662122" style="stroke: #000000; stroke-width: 0.8"/>
      </g>
     </g>
     <g id="text_47">
      <!-- 50 -->
      <g transform="translate(244.49942 242.461341) scale(0.1 -0.1)">
       <use xlink:href="#DejaVuSans-35"/>
       <use xlink:href="#DejaVuSans-30" x="63.623047"/>
      </g>
     </g>
    </g>
    <g id="ytick_19">
     <g id="line2d_45">
      <g>
       <use xlink:href="#m5918d972e0" x="264.22442" y="216.94682" style="stroke: #000000; stroke-width: 0.8"/>
      </g>
     </g>
     <g id="text_48">
      <!-- 75 -->
      <g transform="translate(244.49942 220.746039) scale(0.1 -0.1)">
       <defs>
        <path id="DejaVuSans-37" d="M 525 4666 
L 3525 4666 
L 3525 4397 
L 1831 0 
L 1172 0 
L 2766 4134 
L 525 4134 
L 525 4666 
z
" transform="scale(0.015625)"/>
       </defs>
       <use xlink:href="#DejaVuSans-37"/>
       <use xlink:href="#DejaVuSans-35" x="63.623047"/>
      </g>
     </g>
    </g>
    <g id="ytick_20">
     <g id="line2d_46">
      <g>
       <use xlink:href="#m5918d972e0" x="264.22442" y="195.231517" style="stroke: #000000; stroke-width: 0.8"/>
      </g>
     </g>
     <g id="text_49">
      <!-- 100 -->
      <g transform="translate(238.13692 199.030736) scale(0.1 -0.1)">
       <use xlink:href="#DejaVuSans-31"/>
       <use xlink:href="#DejaVuSans-30" x="63.623047"/>
       <use xlink:href="#DejaVuSans-30" x="127.246094"/>
      </g>
     </g>
    </g>
    <g id="ytick_21">
     <g id="line2d_47">
      <g>
       <use xlink:href="#m5918d972e0" x="264.22442" y="173.516215" style="stroke: #000000; stroke-width: 0.8"/>
      </g>
     </g>
     <g id="text_50">
      <!-- 125 -->
      <g transform="translate(238.13692 177.315434) scale(0.1 -0.1)">
       <use xlink:href="#DejaVuSans-31"/>
       <use xlink:href="#DejaVuSans-32" x="63.623047"/>
       <use xlink:href="#DejaVuSans-35" x="127.246094"/>
      </g>
     </g>
    </g>
    <g id="text_51">
     <!-- distribution -->
     <g transform="translate(234.057233 255.112969) rotate(-90) scale(0.1 -0.1)">
      <use xlink:href="#DejaVuSans-64"/>
      <use xlink:href="#DejaVuSans-69" x="63.476562"/>
      <use xlink:href="#DejaVuSans-73" x="91.259766"/>
      <use xlink:href="#DejaVuSans-74" x="143.359375"/>
      <use xlink:href="#DejaVuSans-72" x="182.568359"/>
      <use xlink:href="#DejaVuSans-69" x="223.681641"/>
      <use xlink:href="#DejaVuSans-62" x="251.464844"/>
      <use xlink:href="#DejaVuSans-75" x="314.941406"/>
      <use xlink:href="#DejaVuSans-74" x="378.320312"/>
      <use xlink:href="#DejaVuSans-69" x="417.529297"/>
      <use xlink:href="#DejaVuSans-6f" x="445.3125"/>
      <use xlink:href="#DejaVuSans-6e" x="506.494141"/>
     </g>
    </g>
   </g>
   <g id="line2d_48">
    <path d="M 271.964593 282.092727 
L 278.599027 282.092727 
L 278.599027 171.147273 
L 279.151897 171.147273 
L 279.151897 282.092727 
L 426.768057 282.092727 
L 426.768057 282.092727 
" clip-path="url(#p6b96d0cd7c)" style="fill: none; stroke: #1f77b4; stroke-width: 1.5; stroke-linecap: square"/>
   </g>
   <g id="patch_19">
    <path d="M 264.22442 287.64 
L 264.22442 165.6 
" style="fill: none; stroke: #000000; stroke-width: 0.8; stroke-linejoin: miter; stroke-linecap: square"/>
   </g>
   <g id="patch_20">
    <path d="M 434.50823 287.64 
L 434.50823 165.6 
" style="fill: none; stroke: #000000; stroke-width: 0.8; stroke-linejoin: miter; stroke-linecap: square"/>
   </g>
   <g id="patch_21">
    <path d="M 264.22442 287.64 
L 434.50823 287.64 
" style="fill: none; stroke: #000000; stroke-width: 0.8; stroke-linejoin: miter; stroke-linecap: square"/>
   </g>
   <g id="patch_22">
    <path d="M 264.22442 165.6 
L 434.50823 165.6 
" style="fill: none; stroke: #000000; stroke-width: 0.8; stroke-linejoin: miter; stroke-linecap: square"/>
   </g>
  </g>
 </g>
 <defs>
  <clipPath id="p3a0b97f178">
   <rect x="52.2" y="10.8" width="170.28381" height="122.04"/>
  </clipPath>
  <clipPath id="pf3ee63a904">
   <rect x="264.22442" y="10.8" width="170.28381" height="122.04"/>
  </clipPath>
  <clipPath id="pa0d21eea80">
   <rect x="52.2" y="165.6" width="170.28381" height="122.04"/>
  </clipPath>
  <clipPath id="p6b96d0cd7c">
   <rect x="264.22442" y="165.6" width="170.28381" height="122.04"/>
  </clipPath>
 </defs>
</svg>
