<?xml version="1.0" encoding="utf-8" standalone="no"?>
<!DOCTYPE svg PUBLIC "-//W3C//DTD SVG 1.1//EN"
  "http://www.w3.org/Graphics/SVG/1.1/DTD/svg11.dtd">
<svg xmlns:xlink="http://www.w3.org/1999/xlink" width="234pt" height="144pt" viewBox="0 0 234 144" xmlns="http://www.w3.org/2000/svg" version="1.1">
 <metadata>
  <rdf:RDF xmlns:dc="http://purl.org/dc/elements/1.1/" xmlns:cc="http://creativecommons.org/ns#" xmlns:rdf="http://www.w3.org/1999/02/22-rdf-syntax-ns#">
   <cc:Work>
    <dc:type rdf:resource="http://purl.org/dc/dcmitype/StillImage"/>
    <dc:date>2023-11-28T11:37:29.866040</dc:date>
    <dc:format>image/svg+xml</dc:format>
    <dc:creator>
     <cc:Agent>
      <dc:title>Matplotlib v3.7.1, https://matplotlib.org/</dc:title>
     </cc:Agent>
    </dc:creator>
   </cc:Work>
  </rdf:RDF>
 </metadata>
 <defs>
  <style type="text/css">*{stroke-linejoin: round; stroke-linecap: butt}</style>
 </defs>
 <g id="figure_1">
  <g id="patch_1">
   <path d="M 0 144 
L 234 144 
L 234 0 
L 0 0 
z
" style="fill: #ffffff"/>
  </g>
  <g id="axes_1">
   <g id="patch_2">
    <path d="M 47.55 99.348 
L 222.064261 99.348 
L 222.064261 10.8 
L 47.55 10.8 
z
" style="fill: #ffffff"/>
   </g>
   <g id="PolyCollection_1">
    <defs>
     <path id="mf27327f5e2" d="M 55.482466 -67.743525 
L 55.482466 -67.743525 
L 57.465583 -82.537024 
L 59.4487 -81.434507 
L 61.431816 -84.495523 
L 63.414933 -85.241047 
L 65.398049 -93.780588 
L 67.381166 -86.819666 
L 69.364283 -88.35314 
L 71.347399 -90.266861 
L 73.330516 -91.234401 
L 75.313632 -97.087866 
L 77.296749 -94.160578 
L 79.279866 -92.684265 
L 81.262982 -96.210997 
L 83.246099 -120.212013 
L 85.229216 -98.322093 
L 87.212332 -99.823473 
L 89.195449 -98.274157 
L 91.178565 -101.444549 
L 93.161682 -99.622714 
L 95.144799 -102.53992 
L 97.127915 -102.402169 
L 99.111032 -101.927534 
L 101.094148 -101.05891 
L 103.077265 -103.091115 
L 105.060382 -101.989304 
L 107.043498 -101.239373 
L 109.026615 -129.175091 
L 111.009731 -105.501443 
L 112.992848 -104.160761 
L 114.975965 -103.5774 
L 116.959081 -106.591783 
L 118.942198 -105.703566 
L 120.925314 -105.792629 
L 122.908431 -105.938375 
L 124.891548 -107.417714 
L 126.874664 -105.690376 
L 128.857781 -108.202351 
L 130.840897 -108.265264 
L 132.824014 -106.8088 
L 134.807131 -108.433431 
L 136.790247 -111.407796 
L 138.773364 -112.148008 
L 140.756481 -113.279374 
L 142.739597 -116.275516 
L 144.722714 -112.540627 
L 146.70583 -114.399566 
L 148.688947 -114.158301 
L 150.672064 -116.782627 
L 152.65518 -115.307725 
L 154.638297 -116.147764 
L 156.621413 -116.195835 
L 158.60453 -115.903327 
L 160.587647 -113.300763 
L 162.570763 -118.413885 
L 164.55388 -115.940163 
L 166.536996 -115.525901 
L 168.520113 -116.961898 
L 170.50323 -118.344427 
L 172.486346 -120.059137 
L 174.469463 -119.288118 
L 176.452579 -119.10118 
L 178.435696 -120.56328 
L 180.418813 -118.199615 
L 182.401929 -118.166736 
L 184.385046 -123.075634 
L 186.368162 -120.766538 
L 188.351279 -119.271387 
L 190.334396 -120.864576 
L 192.317512 -121.051089 
L 194.300629 -120.769558 
L 196.283745 -124.321513 
L 198.266862 -121.068943 
L 200.249979 -124.303747 
L 202.233095 -122.488183 
L 204.216212 -125.29508 
L 206.199329 -122.85987 
L 208.182445 -120.273117 
L 210.165562 -123.004058 
L 212.148678 -121.999642 
L 214.131795 -124.36654 
L 214.131795 -83.783801 
L 214.131795 -83.783801 
L 212.148678 -85.57001 
L 210.165562 -83.49539 
L 208.182445 -83.903298 
L 206.199329 -84.417883 
L 204.216212 -84.869192 
L 202.233095 -83.600753 
L 200.249979 -81.907174 
L 198.266862 -83.599687 
L 196.283745 -82.296686 
L 194.300629 -82.665166 
L 192.317512 -83.667381 
L 190.334396 -82.549331 
L 188.351279 -81.454209 
L 186.368162 -82.079924 
L 184.385046 -82.363113 
L 182.401929 -82.521951 
L 180.418813 -81.017734 
L 178.435696 -82.2514 
L 176.452579 -81.863249 
L 174.469463 -81.146237 
L 172.486346 -81.311494 
L 170.50323 -79.776779 
L 168.520113 -80.91229 
L 166.536996 -79.05697 
L 164.55388 -79.264567 
L 162.570763 -77.506983 
L 160.587647 -77.957779 
L 158.60453 -79.337648 
L 156.621413 -78.138536 
L 154.638297 -76.442701 
L 152.65518 -76.639212 
L 150.672064 -75.862461 
L 148.688947 -76.027266 
L 146.70583 -75.934916 
L 144.722714 -73.662444 
L 142.739597 -74.244651 
L 140.756481 -73.391501 
L 138.773364 -73.243505 
L 136.790247 -73.059282 
L 134.807131 -72.220246 
L 132.824014 -72.100082 
L 130.840897 -71.563194 
L 128.857781 -70.35204 
L 126.874664 -70.597557 
L 124.891548 -70.831011 
L 122.908431 -69.801996 
L 120.925314 -71.025265 
L 118.942198 -70.327724 
L 116.959081 -68.525181 
L 114.975965 -68.784758 
L 112.992848 -69.142847 
L 111.009731 -66.941777 
L 109.026615 -48.9631 
L 107.043498 -67.58561 
L 105.060382 -66.618706 
L 103.077265 -65.743617 
L 101.094148 -67.874731 
L 99.111032 -67.271061 
L 97.127915 -66.71858 
L 95.144799 -65.10815 
L 93.161682 -65.574427 
L 91.178565 -65.561429 
L 89.195449 -65.474988 
L 87.212332 -67.151979 
L 85.229216 -65.420713 
L 83.246099 -48.676909 
L 81.262982 -65.57278 
L 79.279866 -66.443177 
L 77.296749 -67.129838 
L 75.313632 -65.015421 
L 73.330516 -66.784886 
L 71.347399 -65.929426 
L 69.364283 -65.911964 
L 67.381166 -66.534688 
L 65.398049 -62.294604 
L 63.414933 -66.111503 
L 61.431816 -67.112294 
L 59.4487 -67.284568 
L 57.465583 -66.914218 
L 55.482466 -67.743525 
z
" style="stroke: #2ca02c; stroke-opacity: 0.5"/>
    </defs>
    <g clip-path="url(#p99282939f4)">
     <use xlink:href="#mf27327f5e2" x="0" y="144" style="fill: #2ca02c; fill-opacity: 0.5; stroke: #2ca02c; stroke-opacity: 0.5"/>
    </g>
   </g>
   <g id="matplotlib.axis_1">
    <g id="xtick_1">
     <g id="line2d_1">
      <defs>
       <path id="meccc51ef3f" d="M 0 0 
L 0 3.5 
" style="stroke: #000000; stroke-width: 0.8"/>
      </defs>
      <g>
       <use xlink:href="#meccc51ef3f" x="55.284155" y="99.348" style="stroke: #000000; stroke-width: 0.8"/>
      </g>
     </g>
     <g id="text_1">
      <!-- 0 -->
      <g transform="translate(52.102905 113.946438) scale(0.1 -0.1)">
       <defs>
        <path id="DejaVuSans-30" d="M 2034 4250 
Q 1547 4250 1301 3770 
Q 1056 3291 1056 2328 
Q 1056 1369 1301 889 
Q 1547 409 2034 409 
Q 2525 409 2770 889 
Q 3016 1369 3016 2328 
Q 3016 3291 2770 3770 
Q 2525 4250 2034 4250 
z
M 2034 4750 
Q 2819 4750 3233 4129 
Q 3647 3509 3647 2328 
Q 3647 1150 3233 529 
Q 2819 -91 2034 -91 
Q 1250 -91 836 529 
Q 422 1150 422 2328 
Q 422 3509 836 4129 
Q 1250 4750 2034 4750 
z
" transform="scale(0.015625)"/>
       </defs>
       <use xlink:href="#DejaVuSans-30"/>
      </g>
     </g>
    </g>
    <g id="xtick_2">
     <g id="line2d_2">
      <g>
       <use xlink:href="#meccc51ef3f" x="94.946487" y="99.348" style="stroke: #000000; stroke-width: 0.8"/>
      </g>
     </g>
     <g id="text_2">
      <!-- 200 -->
      <g transform="translate(85.402737 113.946438) scale(0.1 -0.1)">
       <defs>
        <path id="DejaVuSans-32" d="M 1228 531 
L 3431 531 
L 3431 0 
L 469 0 
L 469 531 
Q 828 903 1448 1529 
Q 2069 2156 2228 2338 
Q 2531 2678 2651 2914 
Q 2772 3150 2772 3378 
Q 2772 3750 2511 3984 
Q 2250 4219 1831 4219 
Q 1534 4219 1204 4116 
Q 875 4013 500 3803 
L 500 4441 
Q 881 4594 1212 4672 
Q 1544 4750 1819 4750 
Q 2544 4750 2975 4387 
Q 3406 4025 3406 3419 
Q 3406 3131 3298 2873 
Q 3191 2616 2906 2266 
Q 2828 2175 2409 1742 
Q 1991 1309 1228 531 
z
" transform="scale(0.015625)"/>
       </defs>
       <use xlink:href="#DejaVuSans-32"/>
       <use xlink:href="#DejaVuSans-30" x="63.623047"/>
       <use xlink:href="#DejaVuSans-30" x="127.246094"/>
      </g>
     </g>
    </g>
    <g id="xtick_3">
     <g id="line2d_3">
      <g>
       <use xlink:href="#meccc51ef3f" x="134.608819" y="99.348" style="stroke: #000000; stroke-width: 0.8"/>
      </g>
     </g>
     <g id="text_3">
      <!-- 400 -->
      <g transform="translate(125.065069 113.946438) scale(0.1 -0.1)">
       <defs>
        <path id="DejaVuSans-34" d="M 2419 4116 
L 825 1625 
L 2419 1625 
L 2419 4116 
z
M 2253 4666 
L 3047 4666 
L 3047 1625 
L 3713 1625 
L 3713 1100 
L 3047 1100 
L 3047 0 
L 2419 0 
L 2419 1100 
L 313 1100 
L 313 1709 
L 2253 4666 
z
" transform="scale(0.015625)"/>
       </defs>
       <use xlink:href="#DejaVuSans-34"/>
       <use xlink:href="#DejaVuSans-30" x="63.623047"/>
       <use xlink:href="#DejaVuSans-30" x="127.246094"/>
      </g>
     </g>
    </g>
    <g id="xtick_4">
     <g id="line2d_4">
      <g>
       <use xlink:href="#meccc51ef3f" x="174.271151" y="99.348" style="stroke: #000000; stroke-width: 0.8"/>
      </g>
     </g>
     <g id="text_4">
      <!-- 600 -->
      <g transform="translate(164.727401 113.946438) scale(0.1 -0.1)">
       <defs>
        <path id="DejaVuSans-36" d="M 2113 2584 
Q 1688 2584 1439 2293 
Q 1191 2003 1191 1497 
Q 1191 994 1439 701 
Q 1688 409 2113 409 
Q 2538 409 2786 701 
Q 3034 994 3034 1497 
Q 3034 2003 2786 2293 
Q 2538 2584 2113 2584 
z
M 3366 4563 
L 3366 3988 
Q 3128 4100 2886 4159 
Q 2644 4219 2406 4219 
Q 1781 4219 1451 3797 
Q 1122 3375 1075 2522 
Q 1259 2794 1537 2939 
Q 1816 3084 2150 3084 
Q 2853 3084 3261 2657 
Q 3669 2231 3669 1497 
Q 3669 778 3244 343 
Q 2819 -91 2113 -91 
Q 1303 -91 875 529 
Q 447 1150 447 2328 
Q 447 3434 972 4092 
Q 1497 4750 2381 4750 
Q 2619 4750 2861 4703 
Q 3103 4656 3366 4563 
z
" transform="scale(0.015625)"/>
       </defs>
       <use xlink:href="#DejaVuSans-36"/>
       <use xlink:href="#DejaVuSans-30" x="63.623047"/>
       <use xlink:href="#DejaVuSans-30" x="127.246094"/>
      </g>
     </g>
    </g>
    <g id="xtick_5">
     <g id="line2d_5">
      <g>
       <use xlink:href="#meccc51ef3f" x="213.933483" y="99.348" style="stroke: #000000; stroke-width: 0.8"/>
      </g>
     </g>
     <g id="text_5">
      <!-- 800 -->
      <g transform="translate(204.389733 113.946438) scale(0.1 -0.1)">
       <defs>
        <path id="DejaVuSans-38" d="M 2034 2216 
Q 1584 2216 1326 1975 
Q 1069 1734 1069 1313 
Q 1069 891 1326 650 
Q 1584 409 2034 409 
Q 2484 409 2743 651 
Q 3003 894 3003 1313 
Q 3003 1734 2745 1975 
Q 2488 2216 2034 2216 
z
M 1403 2484 
Q 997 2584 770 2862 
Q 544 3141 544 3541 
Q 544 4100 942 4425 
Q 1341 4750 2034 4750 
Q 2731 4750 3128 4425 
Q 3525 4100 3525 3541 
Q 3525 3141 3298 2862 
Q 3072 2584 2669 2484 
Q 3125 2378 3379 2068 
Q 3634 1759 3634 1313 
Q 3634 634 3220 271 
Q 2806 -91 2034 -91 
Q 1263 -91 848 271 
Q 434 634 434 1313 
Q 434 1759 690 2068 
Q 947 2378 1403 2484 
z
M 1172 3481 
Q 1172 3119 1398 2916 
Q 1625 2713 2034 2713 
Q 2441 2713 2670 2916 
Q 2900 3119 2900 3481 
Q 2900 3844 2670 4047 
Q 2441 4250 2034 4250 
Q 1625 4250 1398 4047 
Q 1172 3844 1172 3481 
z
" transform="scale(0.015625)"/>
       </defs>
       <use xlink:href="#DejaVuSans-38"/>
       <use xlink:href="#DejaVuSans-30" x="63.623047"/>
       <use xlink:href="#DejaVuSans-30" x="127.246094"/>
      </g>
     </g>
    </g>
    <g id="text_6">
     <!-- time (units of $\omega_\mathrm{r}^{-1}$) -->
     <g transform="translate(88.007131 125.526125) scale(0.1 -0.1)">
      <defs>
       <path id="DejaVuSans-74" d="M 1172 4494 
L 1172 3500 
L 2356 3500 
L 2356 3053 
L 1172 3053 
L 1172 1153 
Q 1172 725 1289 603 
Q 1406 481 1766 481 
L 2356 481 
L 2356 0 
L 1766 0 
Q 1100 0 847 248 
Q 594 497 594 1153 
L 594 3053 
L 172 3053 
L 172 3500 
L 594 3500 
L 594 4494 
L 1172 4494 
z
" transform="scale(0.015625)"/>
       <path id="DejaVuSans-69" d="M 603 3500 
L 1178 3500 
L 1178 0 
L 603 0 
L 603 3500 
z
M 603 4863 
L 1178 4863 
L 1178 4134 
L 603 4134 
L 603 4863 
z
" transform="scale(0.015625)"/>
       <path id="DejaVuSans-6d" d="M 3328 2828 
Q 3544 3216 3844 3400 
Q 4144 3584 4550 3584 
Q 5097 3584 5394 3201 
Q 5691 2819 5691 2113 
L 5691 0 
L 5113 0 
L 5113 2094 
Q 5113 2597 4934 2840 
Q 4756 3084 4391 3084 
Q 3944 3084 3684 2787 
Q 3425 2491 3425 1978 
L 3425 0 
L 2847 0 
L 2847 2094 
Q 2847 2600 2669 2842 
Q 2491 3084 2119 3084 
Q 1678 3084 1418 2786 
Q 1159 2488 1159 1978 
L 1159 0 
L 581 0 
L 581 3500 
L 1159 3500 
L 1159 2956 
Q 1356 3278 1631 3431 
Q 1906 3584 2284 3584 
Q 2666 3584 2933 3390 
Q 3200 3197 3328 2828 
z
" transform="scale(0.015625)"/>
       <path id="DejaVuSans-65" d="M 3597 1894 
L 3597 1613 
L 953 1613 
Q 991 1019 1311 708 
Q 1631 397 2203 397 
Q 2534 397 2845 478 
Q 3156 559 3463 722 
L 3463 178 
Q 3153 47 2828 -22 
Q 2503 -91 2169 -91 
Q 1331 -91 842 396 
Q 353 884 353 1716 
Q 353 2575 817 3079 
Q 1281 3584 2069 3584 
Q 2775 3584 3186 3129 
Q 3597 2675 3597 1894 
z
M 3022 2063 
Q 3016 2534 2758 2815 
Q 2500 3097 2075 3097 
Q 1594 3097 1305 2825 
Q 1016 2553 972 2059 
L 3022 2063 
z
" transform="scale(0.015625)"/>
       <path id="DejaVuSans-20" transform="scale(0.015625)"/>
       <path id="DejaVuSans-28" d="M 1984 4856 
Q 1566 4138 1362 3434 
Q 1159 2731 1159 2009 
Q 1159 1288 1364 580 
Q 1569 -128 1984 -844 
L 1484 -844 
Q 1016 -109 783 600 
Q 550 1309 550 2009 
Q 550 2706 781 3412 
Q 1013 4119 1484 4856 
L 1984 4856 
z
" transform="scale(0.015625)"/>
       <path id="DejaVuSans-75" d="M 544 1381 
L 544 3500 
L 1119 3500 
L 1119 1403 
Q 1119 906 1312 657 
Q 1506 409 1894 409 
Q 2359 409 2629 706 
Q 2900 1003 2900 1516 
L 2900 3500 
L 3475 3500 
L 3475 0 
L 2900 0 
L 2900 538 
Q 2691 219 2414 64 
Q 2138 -91 1772 -91 
Q 1169 -91 856 284 
Q 544 659 544 1381 
z
M 1991 3584 
L 1991 3584 
z
" transform="scale(0.015625)"/>
       <path id="DejaVuSans-6e" d="M 3513 2113 
L 3513 0 
L 2938 0 
L 2938 2094 
Q 2938 2591 2744 2837 
Q 2550 3084 2163 3084 
Q 1697 3084 1428 2787 
Q 1159 2491 1159 1978 
L 1159 0 
L 581 0 
L 581 3500 
L 1159 3500 
L 1159 2956 
Q 1366 3272 1645 3428 
Q 1925 3584 2291 3584 
Q 2894 3584 3203 3211 
Q 3513 2838 3513 2113 
z
" transform="scale(0.015625)"/>
       <path id="DejaVuSans-73" d="M 2834 3397 
L 2834 2853 
Q 2591 2978 2328 3040 
Q 2066 3103 1784 3103 
Q 1356 3103 1142 2972 
Q 928 2841 928 2578 
Q 928 2378 1081 2264 
Q 1234 2150 1697 2047 
L 1894 2003 
Q 2506 1872 2764 1633 
Q 3022 1394 3022 966 
Q 3022 478 2636 193 
Q 2250 -91 1575 -91 
Q 1294 -91 989 -36 
Q 684 19 347 128 
L 347 722 
Q 666 556 975 473 
Q 1284 391 1588 391 
Q 1994 391 2212 530 
Q 2431 669 2431 922 
Q 2431 1156 2273 1281 
Q 2116 1406 1581 1522 
L 1381 1569 
Q 847 1681 609 1914 
Q 372 2147 372 2553 
Q 372 3047 722 3315 
Q 1072 3584 1716 3584 
Q 2034 3584 2315 3537 
Q 2597 3491 2834 3397 
z
" transform="scale(0.015625)"/>
       <path id="DejaVuSans-6f" d="M 1959 3097 
Q 1497 3097 1228 2736 
Q 959 2375 959 1747 
Q 959 1119 1226 758 
Q 1494 397 1959 397 
Q 2419 397 2687 759 
Q 2956 1122 2956 1747 
Q 2956 2369 2687 2733 
Q 2419 3097 1959 3097 
z
M 1959 3584 
Q 2709 3584 3137 3096 
Q 3566 2609 3566 1747 
Q 3566 888 3137 398 
Q 2709 -91 1959 -91 
Q 1206 -91 779 398 
Q 353 888 353 1747 
Q 353 2609 779 3096 
Q 1206 3584 1959 3584 
z
" transform="scale(0.015625)"/>
       <path id="DejaVuSans-66" d="M 2375 4863 
L 2375 4384 
L 1825 4384 
Q 1516 4384 1395 4259 
Q 1275 4134 1275 3809 
L 1275 3500 
L 2222 3500 
L 2222 3053 
L 1275 3053 
L 1275 0 
L 697 0 
L 697 3053 
L 147 3053 
L 147 3500 
L 697 3500 
L 697 3744 
Q 697 4328 969 4595 
Q 1241 4863 1831 4863 
L 2375 4863 
z
" transform="scale(0.015625)"/>
       <path id="DejaVuSans-Oblique-3c9" d="M 1369 -91 
Q 72 -91 434 1766 
Q 575 2500 1256 3500 
L 1875 3500 
Q 1231 2500 1088 1750 
Q 819 397 1519 397 
Q 2166 397 2478 2078 
L 3009 2078 
Q 2669 388 3316 397 
Q 4013 403 4275 1750 
Q 4419 2500 4169 3500 
L 4788 3500 
Q 5075 2500 4934 1766 
Q 4578 -94 3278 -91 
Q 2428 -88 2503 844 
Q 2194 -91 1369 -91 
z
" transform="scale(0.015625)"/>
       <path id="DejaVuSans-2212" d="M 678 2272 
L 4684 2272 
L 4684 1741 
L 678 1741 
L 678 2272 
z
" transform="scale(0.015625)"/>
       <path id="DejaVuSans-31" d="M 794 531 
L 1825 531 
L 1825 4091 
L 703 3866 
L 703 4441 
L 1819 4666 
L 2450 4666 
L 2450 531 
L 3481 531 
L 3481 0 
L 794 0 
L 794 531 
z
" transform="scale(0.015625)"/>
       <path id="DejaVuSans-72" d="M 2631 2963 
Q 2534 3019 2420 3045 
Q 2306 3072 2169 3072 
Q 1681 3072 1420 2755 
Q 1159 2438 1159 1844 
L 1159 0 
L 581 0 
L 581 3500 
L 1159 3500 
L 1159 2956 
Q 1341 3275 1631 3429 
Q 1922 3584 2338 3584 
Q 2397 3584 2469 3576 
Q 2541 3569 2628 3553 
L 2631 2963 
z
" transform="scale(0.015625)"/>
       <path id="DejaVuSans-29" d="M 513 4856 
L 1013 4856 
Q 1481 4119 1714 3412 
Q 1947 2706 1947 2009 
Q 1947 1309 1714 600 
Q 1481 -109 1013 -844 
L 513 -844 
Q 928 -128 1133 580 
Q 1338 1288 1338 2009 
Q 1338 2731 1133 3434 
Q 928 4138 513 4856 
z
" transform="scale(0.015625)"/>
      </defs>
      <use xlink:href="#DejaVuSans-74" transform="translate(0 0.684375)"/>
      <use xlink:href="#DejaVuSans-69" transform="translate(39.208984 0.684375)"/>
      <use xlink:href="#DejaVuSans-6d" transform="translate(66.992188 0.684375)"/>
      <use xlink:href="#DejaVuSans-65" transform="translate(164.404297 0.684375)"/>
      <use xlink:href="#DejaVuSans-20" transform="translate(225.927734 0.684375)"/>
      <use xlink:href="#DejaVuSans-28" transform="translate(257.714844 0.684375)"/>
      <use xlink:href="#DejaVuSans-75" transform="translate(296.728516 0.684375)"/>
      <use xlink:href="#DejaVuSans-6e" transform="translate(360.107422 0.684375)"/>
      <use xlink:href="#DejaVuSans-69" transform="translate(423.486328 0.684375)"/>
      <use xlink:href="#DejaVuSans-74" transform="translate(451.269531 0.684375)"/>
      <use xlink:href="#DejaVuSans-73" transform="translate(490.478516 0.684375)"/>
      <use xlink:href="#DejaVuSans-20" transform="translate(542.578125 0.684375)"/>
      <use xlink:href="#DejaVuSans-6f" transform="translate(574.365234 0.684375)"/>
      <use xlink:href="#DejaVuSans-66" transform="translate(635.546875 0.684375)"/>
      <use xlink:href="#DejaVuSans-20" transform="translate(670.751953 0.684375)"/>
      <use xlink:href="#DejaVuSans-Oblique-3c9" transform="translate(702.539062 0.684375)"/>
      <use xlink:href="#DejaVuSans-2212" transform="translate(790.745443 38.965625) scale(0.7)"/>
      <use xlink:href="#DejaVuSans-31" transform="translate(849.397786 38.965625) scale(0.7)"/>
      <use xlink:href="#DejaVuSans-72" transform="translate(786.279297 -26.659375) scale(0.7)"/>
      <use xlink:href="#DejaVuSans-29" transform="translate(896.668294 0.684375)"/>
     </g>
    </g>
   </g>
   <g id="matplotlib.axis_2">
    <g id="ytick_1">
     <g id="line2d_6">
      <defs>
       <path id="m55b2e5d13f" d="M 0 0 
L -3.5 0 
" style="stroke: #000000; stroke-width: 0.8"/>
      </defs>
      <g>
       <use xlink:href="#m55b2e5d13f" x="47.55" y="76.256475" style="stroke: #000000; stroke-width: 0.8"/>
      </g>
     </g>
     <g id="text_7">
      <!-- 0 -->
      <g transform="translate(34.1875 80.055693) scale(0.1 -0.1)">
       <use xlink:href="#DejaVuSans-30"/>
      </g>
     </g>
    </g>
    <g id="ytick_2">
     <g id="line2d_7">
      <g>
       <use xlink:href="#m55b2e5d13f" x="47.55" y="45.162532" style="stroke: #000000; stroke-width: 0.8"/>
      </g>
     </g>
     <g id="text_8">
      <!-- 100 -->
      <g transform="translate(21.4625 48.961751) scale(0.1 -0.1)">
       <use xlink:href="#DejaVuSans-31"/>
       <use xlink:href="#DejaVuSans-30" x="63.623047"/>
       <use xlink:href="#DejaVuSans-30" x="127.246094"/>
      </g>
     </g>
    </g>
    <g id="ytick_3">
     <g id="line2d_8">
      <g>
       <use xlink:href="#m55b2e5d13f" x="47.55" y="14.068589" style="stroke: #000000; stroke-width: 0.8"/>
      </g>
     </g>
     <g id="text_9">
      <!-- 200 -->
      <g transform="translate(21.4625 17.867808) scale(0.1 -0.1)">
       <use xlink:href="#DejaVuSans-32"/>
       <use xlink:href="#DejaVuSans-30" x="63.623047"/>
       <use xlink:href="#DejaVuSans-30" x="127.246094"/>
      </g>
     </g>
    </g>
    <g id="text_10">
     <!-- cavity population -->
     <g transform="translate(18.882812 98.351344) rotate(-90) scale(0.1 -0.1)">
      <defs>
       <path id="DejaVuSans-63" d="M 3122 3366 
L 3122 2828 
Q 2878 2963 2633 3030 
Q 2388 3097 2138 3097 
Q 1578 3097 1268 2742 
Q 959 2388 959 1747 
Q 959 1106 1268 751 
Q 1578 397 2138 397 
Q 2388 397 2633 464 
Q 2878 531 3122 666 
L 3122 134 
Q 2881 22 2623 -34 
Q 2366 -91 2075 -91 
Q 1284 -91 818 406 
Q 353 903 353 1747 
Q 353 2603 823 3093 
Q 1294 3584 2113 3584 
Q 2378 3584 2631 3529 
Q 2884 3475 3122 3366 
z
" transform="scale(0.015625)"/>
       <path id="DejaVuSans-61" d="M 2194 1759 
Q 1497 1759 1228 1600 
Q 959 1441 959 1056 
Q 959 750 1161 570 
Q 1363 391 1709 391 
Q 2188 391 2477 730 
Q 2766 1069 2766 1631 
L 2766 1759 
L 2194 1759 
z
M 3341 1997 
L 3341 0 
L 2766 0 
L 2766 531 
Q 2569 213 2275 61 
Q 1981 -91 1556 -91 
Q 1019 -91 701 211 
Q 384 513 384 1019 
Q 384 1609 779 1909 
Q 1175 2209 1959 2209 
L 2766 2209 
L 2766 2266 
Q 2766 2663 2505 2880 
Q 2244 3097 1772 3097 
Q 1472 3097 1187 3025 
Q 903 2953 641 2809 
L 641 3341 
Q 956 3463 1253 3523 
Q 1550 3584 1831 3584 
Q 2591 3584 2966 3190 
Q 3341 2797 3341 1997 
z
" transform="scale(0.015625)"/>
       <path id="DejaVuSans-76" d="M 191 3500 
L 800 3500 
L 1894 563 
L 2988 3500 
L 3597 3500 
L 2284 0 
L 1503 0 
L 191 3500 
z
" transform="scale(0.015625)"/>
       <path id="DejaVuSans-79" d="M 2059 -325 
Q 1816 -950 1584 -1140 
Q 1353 -1331 966 -1331 
L 506 -1331 
L 506 -850 
L 844 -850 
Q 1081 -850 1212 -737 
Q 1344 -625 1503 -206 
L 1606 56 
L 191 3500 
L 800 3500 
L 1894 763 
L 2988 3500 
L 3597 3500 
L 2059 -325 
z
" transform="scale(0.015625)"/>
       <path id="DejaVuSans-70" d="M 1159 525 
L 1159 -1331 
L 581 -1331 
L 581 3500 
L 1159 3500 
L 1159 2969 
Q 1341 3281 1617 3432 
Q 1894 3584 2278 3584 
Q 2916 3584 3314 3078 
Q 3713 2572 3713 1747 
Q 3713 922 3314 415 
Q 2916 -91 2278 -91 
Q 1894 -91 1617 61 
Q 1341 213 1159 525 
z
M 3116 1747 
Q 3116 2381 2855 2742 
Q 2594 3103 2138 3103 
Q 1681 3103 1420 2742 
Q 1159 2381 1159 1747 
Q 1159 1113 1420 752 
Q 1681 391 2138 391 
Q 2594 391 2855 752 
Q 3116 1113 3116 1747 
z
" transform="scale(0.015625)"/>
       <path id="DejaVuSans-6c" d="M 603 4863 
L 1178 4863 
L 1178 0 
L 603 0 
L 603 4863 
z
" transform="scale(0.015625)"/>
      </defs>
      <use xlink:href="#DejaVuSans-63"/>
      <use xlink:href="#DejaVuSans-61" x="54.980469"/>
      <use xlink:href="#DejaVuSans-76" x="116.259766"/>
      <use xlink:href="#DejaVuSans-69" x="175.439453"/>
      <use xlink:href="#DejaVuSans-74" x="203.222656"/>
      <use xlink:href="#DejaVuSans-79" x="242.431641"/>
      <use xlink:href="#DejaVuSans-20" x="301.611328"/>
      <use xlink:href="#DejaVuSans-70" x="333.398438"/>
      <use xlink:href="#DejaVuSans-6f" x="396.875"/>
      <use xlink:href="#DejaVuSans-70" x="458.056641"/>
      <use xlink:href="#DejaVuSans-75" x="521.533203"/>
      <use xlink:href="#DejaVuSans-6c" x="584.912109"/>
      <use xlink:href="#DejaVuSans-61" x="612.695312"/>
      <use xlink:href="#DejaVuSans-74" x="673.974609"/>
      <use xlink:href="#DejaVuSans-69" x="713.183594"/>
      <use xlink:href="#DejaVuSans-6f" x="740.966797"/>
      <use xlink:href="#DejaVuSans-6e" x="802.148438"/>
     </g>
    </g>
   </g>
   <g id="line2d_9">
    <path d="M 55.482466 76.256475 
L 57.465583 69.274379 
L 59.4487 69.640462 
L 61.431816 68.196091 
L 63.414933 68.323725 
L 65.398049 65.962404 
L 67.381166 67.322823 
L 69.364283 66.867448 
L 71.347399 65.901856 
L 73.330516 64.990357 
L 75.313632 62.948356 
L 77.296749 63.354792 
L 79.279866 64.436279 
L 81.262982 63.108111 
L 83.246099 59.555539 
L 85.229216 62.128597 
L 87.212332 60.512274 
L 89.195449 62.125428 
L 91.178565 60.497011 
L 93.161682 61.40143 
L 95.144799 60.175965 
L 97.127915 59.439625 
L 99.111032 59.400702 
L 101.094148 59.53318 
L 103.077265 59.582634 
L 105.060382 59.695995 
L 107.043498 59.587509 
L 109.026615 54.930905 
L 111.009731 57.77839 
L 112.992848 57.348196 
L 114.975965 57.818921 
L 116.959081 56.441518 
L 118.942198 55.984355 
L 120.925314 55.591053 
L 122.908431 56.129814 
L 124.891548 54.875638 
L 126.874664 55.856033 
L 128.857781 54.722805 
L 130.840897 54.085771 
L 132.824014 54.545559 
L 134.807131 53.673162 
L 136.790247 51.766461 
L 138.773364 51.304244 
L 140.756481 50.664562 
L 142.739597 48.739916 
L 144.722714 50.898465 
L 146.70583 48.832759 
L 148.688947 48.907216 
L 150.672064 47.677456 
L 152.65518 48.026532 
L 154.638297 47.704767 
L 156.621413 46.832815 
L 158.60453 46.379513 
L 160.587647 48.370729 
L 162.570763 46.039566 
L 164.55388 46.397635 
L 166.536996 46.708565 
L 168.520113 45.062906 
L 170.50323 44.939397 
L 172.486346 43.314684 
L 174.469463 43.782822 
L 176.452579 43.517786 
L 178.435696 42.59266 
L 180.418813 44.391326 
L 182.401929 43.655656 
L 184.385046 41.280626 
L 186.368162 42.576769 
L 188.351279 43.637202 
L 190.334396 42.293047 
L 192.317512 41.640765 
L 194.300629 42.282638 
L 196.283745 40.6909 
L 198.266862 41.665685 
L 200.249979 40.894539 
L 202.233095 40.955532 
L 204.216212 38.917864 
L 206.199329 40.361123 
L 208.182445 41.911793 
L 210.165562 40.750276 
L 212.148678 40.215174 
L 214.131795 39.924829 
" clip-path="url(#p99282939f4)" style="fill: none; stroke: #2ca02c; stroke-width: 1.5; stroke-linecap: square"/>
   </g>
   <g id="patch_3">
    <path d="M 47.55 99.348 
L 47.55 10.8 
" style="fill: none; stroke: #000000; stroke-width: 0.8; stroke-linejoin: miter; stroke-linecap: square"/>
   </g>
   <g id="patch_4">
    <path d="M 222.064261 99.348 
L 222.064261 10.8 
" style="fill: none; stroke: #000000; stroke-width: 0.8; stroke-linejoin: miter; stroke-linecap: square"/>
   </g>
   <g id="patch_5">
    <path d="M 47.55 99.348 
L 222.064261 99.348 
" style="fill: none; stroke: #000000; stroke-width: 0.8; stroke-linejoin: miter; stroke-linecap: square"/>
   </g>
   <g id="patch_6">
    <path d="M 47.55 10.8 
L 222.064261 10.8 
" style="fill: none; stroke: #000000; stroke-width: 0.8; stroke-linejoin: miter; stroke-linecap: square"/>
   </g>
  </g>
 </g>
 <defs>
  <clipPath id="p99282939f4">
   <rect x="47.55" y="10.8" width="174.514261" height="88.548"/>
  </clipPath>
 </defs>
</svg>
