<?xml version="1.0" encoding="utf-8" standalone="no"?>
<!DOCTYPE svg PUBLIC "-//W3C//DTD SVG 1.1//EN"
  "http://www.w3.org/Graphics/SVG/1.1/DTD/svg11.dtd">
<svg xmlns:xlink="http://www.w3.org/1999/xlink" width="253.98pt" height="119.52pt" viewBox="0 0 253.98 119.52" xmlns="http://www.w3.org/2000/svg" version="1.1">
 <metadata>
  <rdf:RDF xmlns:dc="http://purl.org/dc/elements/1.1/" xmlns:cc="http://creativecommons.org/ns#" xmlns:rdf="http://www.w3.org/1999/02/22-rdf-syntax-ns#">
   <cc:Work>
    <dc:type rdf:resource="http://purl.org/dc/dcmitype/StillImage"/>
    <dc:date>2023-11-28T11:48:46.530996</dc:date>
    <dc:format>image/svg+xml</dc:format>
    <dc:creator>
     <cc:Agent>
      <dc:title>Matplotlib v3.7.1, https://matplotlib.org/</dc:title>
     </cc:Agent>
    </dc:creator>
   </cc:Work>
  </rdf:RDF>
 </metadata>
 <defs>
  <style type="text/css">*{stroke-linejoin: round; stroke-linecap: butt}</style>
 </defs>
 <g id="figure_1">
  <g id="patch_1">
   <path d="M 0 119.52 
L 253.98 119.52 
L 253.98 0 
L 0 0 
z
" style="fill: #ffffff"/>
  </g>
  <g id="axes_1">
   <g id="patch_2">
    <path d="M 50.18 74.368 
L 136.39 74.368 
L 136.39 10.8 
L 50.18 10.8 
z
" style="fill: #ffffff"/>
   </g>
   <g id="PolyCollection_1">
    <defs>
     <path id="m58399fa598" d="M 54.098636 -76.832361 
L 54.098636 -77.567059 
L 55.078295 -81.766834 
L 56.057955 -83.308829 
L 57.037614 -82.114886 
L 58.017273 -80.88888 
L 58.996932 -81.758571 
L 59.976591 -82.443453 
L 60.95625 -82.695678 
L 61.935909 -82.110806 
L 62.915568 -83.267002 
L 63.895227 -82.083064 
L 64.874886 -82.756895 
L 65.854545 -82.092299 
L 66.834205 -82.189836 
L 67.813864 -81.929107 
L 68.793523 -83.305704 
L 69.773182 -82.895556 
L 70.752841 -83.877682 
L 71.7325 -83.066583 
L 72.712159 -82.185679 
L 73.691818 -82.38823 
L 74.671477 -82.445809 
L 75.651136 -83.778446 
L 76.630795 -84.730279 
L 77.610455 -81.978545 
L 78.590114 -83.83512 
L 79.569773 -83.118804 
L 80.549432 -83.856125 
L 81.529091 -81.746491 
L 82.50875 -82.894769 
L 83.488409 -81.937613 
L 84.468068 -82.459447 
L 85.447727 -83.891863 
L 86.427386 -80.8592 
L 87.407045 -80.10552 
L 88.386705 -81.70982 
L 89.366364 -82.453228 
L 90.346023 -80.449712 
L 91.325682 -81.218082 
L 92.305341 -81.502546 
L 93.285 -81.446869 
L 94.264659 -80.356889 
L 95.244318 -79.889941 
L 96.223977 -81.488811 
L 97.203636 -82.376732 
L 98.183295 -79.404859 
L 99.162955 -79.181788 
L 100.142614 -78.708419 
L 101.122273 -78.572759 
L 102.101932 -78.129709 
L 103.081591 -77.226799 
L 104.06125 -76.113906 
L 105.040909 -78.72972 
L 106.020568 -75.703854 
L 107.000227 -75.282395 
L 107.979886 -71.811419 
L 108.959545 -74.161228 
L 109.939205 -73.31504 
L 110.918864 -70.340205 
L 111.898523 -71.692139 
L 112.878182 -71.158004 
L 113.857841 -71.848901 
L 114.8375 -72.527947 
L 115.817159 -72.32086 
L 116.796818 -73.013673 
L 117.776477 -71.406795 
L 118.756136 -73.465861 
L 119.735795 -72.456416 
L 120.715455 -73.462135 
L 121.695114 -71.091651 
L 122.674773 -69.687516 
L 123.654432 -71.037415 
L 124.634091 -68.98739 
L 125.61375 -71.808154 
L 126.593409 -71.164926 
L 127.573068 -69.84838 
L 128.552727 -69.363635 
L 129.532386 -68.68627 
L 130.512045 -68.696114 
L 131.491705 -67.191793 
L 132.471364 -66.002428 
L 132.471364 -48.522786 
L 132.471364 -48.522786 
L 131.491705 -48.041455 
L 130.512045 -49.173453 
L 129.532386 -49.537138 
L 128.552727 -49.39941 
L 127.573068 -49.984823 
L 126.593409 -49.585049 
L 125.61375 -49.869648 
L 124.634091 -50.659098 
L 123.654432 -50.526764 
L 122.674773 -50.427485 
L 121.695114 -49.501626 
L 120.715455 -49.846839 
L 119.735795 -50.026833 
L 118.756136 -50.346957 
L 117.776477 -50.710232 
L 116.796818 -51.01822 
L 115.817159 -51.903633 
L 114.8375 -51.424418 
L 113.857841 -51.674636 
L 112.878182 -53.128416 
L 111.898523 -51.869007 
L 110.918864 -52.790111 
L 109.939205 -51.983967 
L 108.959545 -52.388621 
L 107.979886 -53.173241 
L 107.000227 -52.020161 
L 106.020568 -53.216918 
L 105.040909 -51.357659 
L 104.06125 -52.441703 
L 103.081591 -52.33443 
L 102.101932 -52.611295 
L 101.122273 -51.881503 
L 100.142614 -53.527382 
L 99.162955 -53.147732 
L 98.183295 -54.395933 
L 97.203636 -54.036885 
L 96.223977 -54.188784 
L 95.244318 -54.456433 
L 94.264659 -55.959151 
L 93.285 -58.197657 
L 92.305341 -56.476476 
L 91.325682 -57.219788 
L 90.346023 -57.073849 
L 89.366364 -57.917805 
L 88.386705 -57.617997 
L 87.407045 -57.531092 
L 86.427386 -58.168746 
L 85.447727 -57.924629 
L 84.468068 -57.543926 
L 83.488409 -58.885691 
L 82.50875 -58.242637 
L 81.529091 -58.169649 
L 80.549432 -59.821329 
L 79.569773 -58.973341 
L 78.590114 -61.175905 
L 77.610455 -59.957683 
L 76.630795 -60.054419 
L 75.651136 -59.200733 
L 74.671477 -58.755788 
L 73.691818 -59.017984 
L 72.712159 -60.285195 
L 71.7325 -59.12515 
L 70.752841 -60.578436 
L 69.773182 -60.583649 
L 68.793523 -60.122403 
L 67.813864 -60.663079 
L 66.834205 -61.157984 
L 65.854545 -62.023335 
L 64.874886 -62.634063 
L 63.895227 -61.558516 
L 62.915568 -62.192112 
L 61.935909 -62.276369 
L 60.95625 -64.73229 
L 59.976591 -64.795169 
L 58.996932 -65.022172 
L 58.017273 -64.87724 
L 57.037614 -66.031302 
L 56.057955 -66.822212 
L 55.078295 -66.939761 
L 54.098636 -76.832361 
z
" style="stroke: #1f77b4; stroke-opacity: 0.5"/>
    </defs>
    <g clip-path="url(#p367317bf1c)">
     <use xlink:href="#m58399fa598" x="0" y="119.52" style="fill: #1f77b4; fill-opacity: 0.5; stroke: #1f77b4; stroke-opacity: 0.5"/>
    </g>
   </g>
   <g id="PolyCollection_2">
    <defs>
     <path id="m8eef16f395" d="M 54.098636 -76.749547 
L 54.098636 -77.459183 
L 55.078295 -87.295956 
L 56.057955 -89.324318 
L 57.037614 -89.362973 
L 58.017273 -91.334946 
L 58.996932 -90.747489 
L 59.976591 -91.037248 
L 60.95625 -91.604976 
L 61.935909 -92.560017 
L 62.915568 -92.657626 
L 63.895227 -93.516218 
L 64.874886 -94.320571 
L 65.854545 -94.574774 
L 66.834205 -95.586868 
L 67.813864 -95.727923 
L 68.793523 -96.830946 
L 69.773182 -96.542549 
L 70.752841 -95.748212 
L 71.7325 -96.497193 
L 72.712159 -97.088306 
L 73.691818 -96.981009 
L 74.671477 -96.604974 
L 75.651136 -97.432287 
L 76.630795 -97.480471 
L 77.610455 -98.107111 
L 78.590114 -98.447668 
L 79.569773 -98.417462 
L 80.549432 -99.316563 
L 81.529091 -99.417619 
L 82.50875 -98.848129 
L 83.488409 -99.28346 
L 84.468068 -98.803298 
L 85.447727 -99.992955 
L 86.427386 -100.059448 
L 87.407045 -100.275494 
L 88.386705 -101.250454 
L 89.366364 -100.105895 
L 90.346023 -100.801562 
L 91.325682 -101.366506 
L 92.305341 -100.558065 
L 93.285 -101.41561 
L 94.264659 -101.332343 
L 95.244318 -102.572494 
L 96.223977 -102.119797 
L 97.203636 -102.331362 
L 98.183295 -101.814928 
L 99.162955 -102.36365 
L 100.142614 -102.091818 
L 101.122273 -102.56953 
L 102.101932 -102.204652 
L 103.081591 -102.619004 
L 104.06125 -102.407008 
L 105.040909 -103.86502 
L 106.020568 -103.852516 
L 107.000227 -103.326009 
L 107.979886 -102.887806 
L 108.959545 -103.606591 
L 109.939205 -103.478939 
L 110.918864 -104.253509 
L 111.898523 -104.011116 
L 112.878182 -103.824883 
L 113.857841 -105.275249 
L 114.8375 -105.321728 
L 115.817159 -104.03776 
L 116.796818 -105.289304 
L 117.776477 -105.17353 
L 118.756136 -104.208971 
L 119.735795 -104.241652 
L 120.715455 -105.258564 
L 121.695114 -105.107684 
L 122.674773 -105.048645 
L 123.654432 -105.277161 
L 124.634091 -105.738461 
L 125.61375 -105.446619 
L 126.593409 -105.714314 
L 127.573068 -105.294449 
L 128.552727 -105.830545 
L 129.532386 -105.328774 
L 130.512045 -104.960786 
L 131.491705 -104.823724 
L 132.471364 -104.186601 
L 132.471364 -88.669717 
L 132.471364 -88.669717 
L 131.491705 -88.794769 
L 130.512045 -89.087513 
L 129.532386 -88.2013 
L 128.552727 -87.395044 
L 127.573068 -89.241694 
L 126.593409 -87.041191 
L 125.61375 -86.602069 
L 124.634091 -86.714768 
L 123.654432 -86.964868 
L 122.674773 -86.176481 
L 121.695114 -87.489733 
L 120.715455 -85.897049 
L 119.735795 -87.877689 
L 118.756136 -85.97591 
L 117.776477 -84.597479 
L 116.796818 -85.080181 
L 115.817159 -86.677495 
L 114.8375 -85.829287 
L 113.857841 -85.454978 
L 112.878182 -87.098807 
L 111.898523 -86.191589 
L 110.918864 -84.449023 
L 109.939205 -84.034627 
L 108.959545 -83.264794 
L 107.979886 -84.549691 
L 107.000227 -83.859508 
L 106.020568 -82.027265 
L 105.040909 -81.442165 
L 104.06125 -83.477866 
L 103.081591 -83.061877 
L 102.101932 -82.704673 
L 101.122273 -82.025346 
L 100.142614 -80.81297 
L 99.162955 -80.448177 
L 98.183295 -81.926799 
L 97.203636 -79.02288 
L 96.223977 -76.655475 
L 95.244318 -79.083065 
L 94.264659 -80.167495 
L 93.285 -78.299535 
L 92.305341 -77.686582 
L 91.325682 -78.354681 
L 90.346023 -79.115694 
L 89.366364 -76.973126 
L 88.386705 -76.566283 
L 87.407045 -76.200119 
L 86.427386 -76.812614 
L 85.447727 -75.895655 
L 84.468068 -75.448127 
L 83.488409 -75.329806 
L 82.50875 -75.622427 
L 81.529091 -75.021748 
L 80.549432 -73.563542 
L 79.569773 -73.71646 
L 78.590114 -73.838008 
L 77.610455 -73.636806 
L 76.630795 -70.779528 
L 75.651136 -71.874761 
L 74.671477 -73.276766 
L 73.691818 -72.409221 
L 72.712159 -74.010065 
L 71.7325 -71.884385 
L 70.752841 -71.692358 
L 69.773182 -73.116257 
L 68.793523 -72.158671 
L 67.813864 -73.423492 
L 66.834205 -73.276526 
L 65.854545 -73.451962 
L 64.874886 -74.767081 
L 63.895227 -72.6387 
L 62.915568 -73.862025 
L 61.935909 -73.102964 
L 60.95625 -73.567856 
L 59.976591 -72.330736 
L 58.996932 -73.895944 
L 58.017273 -73.919452 
L 57.037614 -67.960193 
L 56.057955 -72.133247 
L 55.078295 -69.784271 
L 54.098636 -76.749547 
z
" style="stroke: #1f77b4; stroke-opacity: 0.5"/>
    </defs>
    <g clip-path="url(#p367317bf1c)">
     <use xlink:href="#m8eef16f395" x="0" y="119.52" style="fill: #1f77b4; fill-opacity: 0.5; stroke: #1f77b4; stroke-opacity: 0.5"/>
    </g>
   </g>
   <g id="matplotlib.axis_1">
    <g id="xtick_1">
     <g id="line2d_1">
      <defs>
       <path id="m43942aa183" d="M 0 0 
L 0 3.5 
" style="stroke: #000000; stroke-width: 0.8"/>
      </defs>
      <g>
       <use xlink:href="#m43942aa183" x="54.00067" y="74.368" style="stroke: #000000; stroke-width: 0.8"/>
      </g>
     </g>
     <g id="text_1">
      <!-- 0 -->
      <g transform="translate(50.81942 88.966437) scale(0.1 -0.1)">
       <defs>
        <path id="DejaVuSans-30" d="M 2034 4250 
Q 1547 4250 1301 3770 
Q 1056 3291 1056 2328 
Q 1056 1369 1301 889 
Q 1547 409 2034 409 
Q 2525 409 2770 889 
Q 3016 1369 3016 2328 
Q 3016 3291 2770 3770 
Q 2525 4250 2034 4250 
z
M 2034 4750 
Q 2819 4750 3233 4129 
Q 3647 3509 3647 2328 
Q 3647 1150 3233 529 
Q 2819 -91 2034 -91 
Q 1250 -91 836 529 
Q 422 1150 422 2328 
Q 422 3509 836 4129 
Q 1250 4750 2034 4750 
z
" transform="scale(0.015625)"/>
       </defs>
       <use xlink:href="#DejaVuSans-30"/>
      </g>
     </g>
    </g>
    <g id="xtick_2">
     <g id="line2d_2">
      <g>
       <use xlink:href="#m43942aa183" x="102.983625" y="74.368" style="stroke: #000000; stroke-width: 0.8"/>
      </g>
     </g>
     <g id="text_2">
      <!-- 500 -->
      <g transform="translate(93.439875 88.966437) scale(0.1 -0.1)">
       <defs>
        <path id="DejaVuSans-35" d="M 691 4666 
L 3169 4666 
L 3169 4134 
L 1269 4134 
L 1269 2991 
Q 1406 3038 1543 3061 
Q 1681 3084 1819 3084 
Q 2600 3084 3056 2656 
Q 3513 2228 3513 1497 
Q 3513 744 3044 326 
Q 2575 -91 1722 -91 
Q 1428 -91 1123 -41 
Q 819 9 494 109 
L 494 744 
Q 775 591 1075 516 
Q 1375 441 1709 441 
Q 2250 441 2565 725 
Q 2881 1009 2881 1497 
Q 2881 1984 2565 2268 
Q 2250 2553 1709 2553 
Q 1456 2553 1204 2497 
Q 953 2441 691 2322 
L 691 4666 
z
" transform="scale(0.015625)"/>
       </defs>
       <use xlink:href="#DejaVuSans-35"/>
       <use xlink:href="#DejaVuSans-30" x="63.623047"/>
       <use xlink:href="#DejaVuSans-30" x="127.246094"/>
      </g>
     </g>
    </g>
    <g id="text_3">
     <!-- time (units of $\omega_\mathrm{r}^{-1}$) -->
     <g transform="translate(46.485 101.046125) scale(0.1 -0.1)">
      <defs>
       <path id="DejaVuSans-74" d="M 1172 4494 
L 1172 3500 
L 2356 3500 
L 2356 3053 
L 1172 3053 
L 1172 1153 
Q 1172 725 1289 603 
Q 1406 481 1766 481 
L 2356 481 
L 2356 0 
L 1766 0 
Q 1100 0 847 248 
Q 594 497 594 1153 
L 594 3053 
L 172 3053 
L 172 3500 
L 594 3500 
L 594 4494 
L 1172 4494 
z
" transform="scale(0.015625)"/>
       <path id="DejaVuSans-69" d="M 603 3500 
L 1178 3500 
L 1178 0 
L 603 0 
L 603 3500 
z
M 603 4863 
L 1178 4863 
L 1178 4134 
L 603 4134 
L 603 4863 
z
" transform="scale(0.015625)"/>
       <path id="DejaVuSans-6d" d="M 3328 2828 
Q 3544 3216 3844 3400 
Q 4144 3584 4550 3584 
Q 5097 3584 5394 3201 
Q 5691 2819 5691 2113 
L 5691 0 
L 5113 0 
L 5113 2094 
Q 5113 2597 4934 2840 
Q 4756 3084 4391 3084 
Q 3944 3084 3684 2787 
Q 3425 2491 3425 1978 
L 3425 0 
L 2847 0 
L 2847 2094 
Q 2847 2600 2669 2842 
Q 2491 3084 2119 3084 
Q 1678 3084 1418 2786 
Q 1159 2488 1159 1978 
L 1159 0 
L 581 0 
L 581 3500 
L 1159 3500 
L 1159 2956 
Q 1356 3278 1631 3431 
Q 1906 3584 2284 3584 
Q 2666 3584 2933 3390 
Q 3200 3197 3328 2828 
z
" transform="scale(0.015625)"/>
       <path id="DejaVuSans-65" d="M 3597 1894 
L 3597 1613 
L 953 1613 
Q 991 1019 1311 708 
Q 1631 397 2203 397 
Q 2534 397 2845 478 
Q 3156 559 3463 722 
L 3463 178 
Q 3153 47 2828 -22 
Q 2503 -91 2169 -91 
Q 1331 -91 842 396 
Q 353 884 353 1716 
Q 353 2575 817 3079 
Q 1281 3584 2069 3584 
Q 2775 3584 3186 3129 
Q 3597 2675 3597 1894 
z
M 3022 2063 
Q 3016 2534 2758 2815 
Q 2500 3097 2075 3097 
Q 1594 3097 1305 2825 
Q 1016 2553 972 2059 
L 3022 2063 
z
" transform="scale(0.015625)"/>
       <path id="DejaVuSans-20" transform="scale(0.015625)"/>
       <path id="DejaVuSans-28" d="M 1984 4856 
Q 1566 4138 1362 3434 
Q 1159 2731 1159 2009 
Q 1159 1288 1364 580 
Q 1569 -128 1984 -844 
L 1484 -844 
Q 1016 -109 783 600 
Q 550 1309 550 2009 
Q 550 2706 781 3412 
Q 1013 4119 1484 4856 
L 1984 4856 
z
" transform="scale(0.015625)"/>
       <path id="DejaVuSans-75" d="M 544 1381 
L 544 3500 
L 1119 3500 
L 1119 1403 
Q 1119 906 1312 657 
Q 1506 409 1894 409 
Q 2359 409 2629 706 
Q 2900 1003 2900 1516 
L 2900 3500 
L 3475 3500 
L 3475 0 
L 2900 0 
L 2900 538 
Q 2691 219 2414 64 
Q 2138 -91 1772 -91 
Q 1169 -91 856 284 
Q 544 659 544 1381 
z
M 1991 3584 
L 1991 3584 
z
" transform="scale(0.015625)"/>
       <path id="DejaVuSans-6e" d="M 3513 2113 
L 3513 0 
L 2938 0 
L 2938 2094 
Q 2938 2591 2744 2837 
Q 2550 3084 2163 3084 
Q 1697 3084 1428 2787 
Q 1159 2491 1159 1978 
L 1159 0 
L 581 0 
L 581 3500 
L 1159 3500 
L 1159 2956 
Q 1366 3272 1645 3428 
Q 1925 3584 2291 3584 
Q 2894 3584 3203 3211 
Q 3513 2838 3513 2113 
z
" transform="scale(0.015625)"/>
       <path id="DejaVuSans-73" d="M 2834 3397 
L 2834 2853 
Q 2591 2978 2328 3040 
Q 2066 3103 1784 3103 
Q 1356 3103 1142 2972 
Q 928 2841 928 2578 
Q 928 2378 1081 2264 
Q 1234 2150 1697 2047 
L 1894 2003 
Q 2506 1872 2764 1633 
Q 3022 1394 3022 966 
Q 3022 478 2636 193 
Q 2250 -91 1575 -91 
Q 1294 -91 989 -36 
Q 684 19 347 128 
L 347 722 
Q 666 556 975 473 
Q 1284 391 1588 391 
Q 1994 391 2212 530 
Q 2431 669 2431 922 
Q 2431 1156 2273 1281 
Q 2116 1406 1581 1522 
L 1381 1569 
Q 847 1681 609 1914 
Q 372 2147 372 2553 
Q 372 3047 722 3315 
Q 1072 3584 1716 3584 
Q 2034 3584 2315 3537 
Q 2597 3491 2834 3397 
z
" transform="scale(0.015625)"/>
       <path id="DejaVuSans-6f" d="M 1959 3097 
Q 1497 3097 1228 2736 
Q 959 2375 959 1747 
Q 959 1119 1226 758 
Q 1494 397 1959 397 
Q 2419 397 2687 759 
Q 2956 1122 2956 1747 
Q 2956 2369 2687 2733 
Q 2419 3097 1959 3097 
z
M 1959 3584 
Q 2709 3584 3137 3096 
Q 3566 2609 3566 1747 
Q 3566 888 3137 398 
Q 2709 -91 1959 -91 
Q 1206 -91 779 398 
Q 353 888 353 1747 
Q 353 2609 779 3096 
Q 1206 3584 1959 3584 
z
" transform="scale(0.015625)"/>
       <path id="DejaVuSans-66" d="M 2375 4863 
L 2375 4384 
L 1825 4384 
Q 1516 4384 1395 4259 
Q 1275 4134 1275 3809 
L 1275 3500 
L 2222 3500 
L 2222 3053 
L 1275 3053 
L 1275 0 
L 697 0 
L 697 3053 
L 147 3053 
L 147 3500 
L 697 3500 
L 697 3744 
Q 697 4328 969 4595 
Q 1241 4863 1831 4863 
L 2375 4863 
z
" transform="scale(0.015625)"/>
       <path id="DejaVuSans-Oblique-3c9" d="M 1369 -91 
Q 72 -91 434 1766 
Q 575 2500 1256 3500 
L 1875 3500 
Q 1231 2500 1088 1750 
Q 819 397 1519 397 
Q 2166 397 2478 2078 
L 3009 2078 
Q 2669 388 3316 397 
Q 4013 403 4275 1750 
Q 4419 2500 4169 3500 
L 4788 3500 
Q 5075 2500 4934 1766 
Q 4578 -94 3278 -91 
Q 2428 -88 2503 844 
Q 2194 -91 1369 -91 
z
" transform="scale(0.015625)"/>
       <path id="DejaVuSans-2212" d="M 678 2272 
L 4684 2272 
L 4684 1741 
L 678 1741 
L 678 2272 
z
" transform="scale(0.015625)"/>
       <path id="DejaVuSans-31" d="M 794 531 
L 1825 531 
L 1825 4091 
L 703 3866 
L 703 4441 
L 1819 4666 
L 2450 4666 
L 2450 531 
L 3481 531 
L 3481 0 
L 794 0 
L 794 531 
z
" transform="scale(0.015625)"/>
       <path id="DejaVuSans-72" d="M 2631 2963 
Q 2534 3019 2420 3045 
Q 2306 3072 2169 3072 
Q 1681 3072 1420 2755 
Q 1159 2438 1159 1844 
L 1159 0 
L 581 0 
L 581 3500 
L 1159 3500 
L 1159 2956 
Q 1341 3275 1631 3429 
Q 1922 3584 2338 3584 
Q 2397 3584 2469 3576 
Q 2541 3569 2628 3553 
L 2631 2963 
z
" transform="scale(0.015625)"/>
       <path id="DejaVuSans-29" d="M 513 4856 
L 1013 4856 
Q 1481 4119 1714 3412 
Q 1947 2706 1947 2009 
Q 1947 1309 1714 600 
Q 1481 -109 1013 -844 
L 513 -844 
Q 928 -128 1133 580 
Q 1338 1288 1338 2009 
Q 1338 2731 1133 3434 
Q 928 4138 513 4856 
z
" transform="scale(0.015625)"/>
      </defs>
      <use xlink:href="#DejaVuSans-74" transform="translate(0 0.684375)"/>
      <use xlink:href="#DejaVuSans-69" transform="translate(39.208984 0.684375)"/>
      <use xlink:href="#DejaVuSans-6d" transform="translate(66.992188 0.684375)"/>
      <use xlink:href="#DejaVuSans-65" transform="translate(164.404297 0.684375)"/>
      <use xlink:href="#DejaVuSans-20" transform="translate(225.927734 0.684375)"/>
      <use xlink:href="#DejaVuSans-28" transform="translate(257.714844 0.684375)"/>
      <use xlink:href="#DejaVuSans-75" transform="translate(296.728516 0.684375)"/>
      <use xlink:href="#DejaVuSans-6e" transform="translate(360.107422 0.684375)"/>
      <use xlink:href="#DejaVuSans-69" transform="translate(423.486328 0.684375)"/>
      <use xlink:href="#DejaVuSans-74" transform="translate(451.269531 0.684375)"/>
      <use xlink:href="#DejaVuSans-73" transform="translate(490.478516 0.684375)"/>
      <use xlink:href="#DejaVuSans-20" transform="translate(542.578125 0.684375)"/>
      <use xlink:href="#DejaVuSans-6f" transform="translate(574.365234 0.684375)"/>
      <use xlink:href="#DejaVuSans-66" transform="translate(635.546875 0.684375)"/>
      <use xlink:href="#DejaVuSans-20" transform="translate(670.751953 0.684375)"/>
      <use xlink:href="#DejaVuSans-Oblique-3c9" transform="translate(702.539062 0.684375)"/>
      <use xlink:href="#DejaVuSans-2212" transform="translate(790.745443 38.965625) scale(0.7)"/>
      <use xlink:href="#DejaVuSans-31" transform="translate(849.397786 38.965625) scale(0.7)"/>
      <use xlink:href="#DejaVuSans-72" transform="translate(786.279297 -26.659375) scale(0.7)"/>
      <use xlink:href="#DejaVuSans-29" transform="translate(896.668294 0.684375)"/>
     </g>
    </g>
   </g>
   <g id="matplotlib.axis_2">
    <g id="ytick_1">
     <g id="line2d_3">
      <defs>
       <path id="m3fe3fdd891" d="M 0 0 
L -3.5 0 
" style="stroke: #000000; stroke-width: 0.8"/>
      </defs>
      <g>
       <use xlink:href="#m3fe3fdd891" x="50.18" y="69.328034" style="stroke: #000000; stroke-width: 0.8"/>
      </g>
     </g>
     <g id="text_4">
      <!-- −0.5 -->
      <g transform="translate(18.897187 73.127253) scale(0.1 -0.1)">
       <defs>
        <path id="DejaVuSans-2e" d="M 684 794 
L 1344 794 
L 1344 0 
L 684 0 
L 684 794 
z
" transform="scale(0.015625)"/>
       </defs>
       <use xlink:href="#DejaVuSans-2212"/>
       <use xlink:href="#DejaVuSans-30" x="83.789062"/>
       <use xlink:href="#DejaVuSans-2e" x="147.412109"/>
       <use xlink:href="#DejaVuSans-35" x="179.199219"/>
      </g>
     </g>
    </g>
    <g id="ytick_2">
     <g id="line2d_4">
      <g>
       <use xlink:href="#m3fe3fdd891" x="50.18" y="42.367676" style="stroke: #000000; stroke-width: 0.8"/>
      </g>
     </g>
     <g id="text_5">
      <!-- 0.0 -->
      <g transform="translate(27.276875 46.166894) scale(0.1 -0.1)">
       <use xlink:href="#DejaVuSans-30"/>
       <use xlink:href="#DejaVuSans-2e" x="63.623047"/>
       <use xlink:href="#DejaVuSans-30" x="95.410156"/>
      </g>
     </g>
    </g>
    <g id="ytick_3">
     <g id="line2d_5">
      <g>
       <use xlink:href="#m3fe3fdd891" x="50.18" y="15.407317" style="stroke: #000000; stroke-width: 0.8"/>
      </g>
     </g>
     <g id="text_6">
      <!-- 0.5 -->
      <g transform="translate(27.276875 19.206536) scale(0.1 -0.1)">
       <use xlink:href="#DejaVuSans-30"/>
       <use xlink:href="#DejaVuSans-2e" x="63.623047"/>
       <use xlink:href="#DejaVuSans-35" x="95.410156"/>
      </g>
     </g>
    </g>
    <g id="text_7">
     <!-- X -->
     <g transform="translate(18.8175 46.009) rotate(-90) scale(0.1 -0.1)">
      <defs>
       <path id="DejaVuSans-58" d="M 403 4666 
L 1081 4666 
L 2241 2931 
L 3406 4666 
L 4084 4666 
L 2584 2425 
L 4184 0 
L 3506 0 
L 2194 1984 
L 872 0 
L 191 0 
L 1856 2491 
L 403 4666 
z
" transform="scale(0.015625)"/>
      </defs>
      <use xlink:href="#DejaVuSans-58"/>
     </g>
    </g>
   </g>
   <g id="line2d_6">
    <path d="M 54.098636 42.32029 
L 55.078295 45.166702 
L 56.057955 44.45448 
L 57.037614 45.446906 
L 58.017273 46.63694 
L 58.996932 46.129629 
L 59.976591 45.900689 
L 60.95625 45.806016 
L 61.935909 47.326413 
L 62.915568 46.790443 
L 63.895227 47.69921 
L 64.874886 46.824521 
L 65.854545 47.462183 
L 66.834205 47.84609 
L 67.813864 48.223907 
L 68.793523 47.805946 
L 69.773182 47.780398 
L 70.752841 47.291941 
L 71.7325 48.424133 
L 72.712159 48.284563 
L 73.691818 48.816893 
L 74.671477 48.919202 
L 75.651136 48.030411 
L 76.630795 47.127651 
L 77.610455 48.551886 
L 78.590114 47.014488 
L 79.569773 48.473927 
L 80.549432 47.681273 
L 81.529091 49.56193 
L 82.50875 48.951297 
L 83.488409 49.108348 
L 84.468068 49.518313 
L 85.447727 48.611754 
L 86.427386 50.006027 
L 87.407045 50.701694 
L 88.386705 49.856092 
L 89.366364 49.334484 
L 90.346023 50.758219 
L 91.325682 50.301065 
L 92.305341 50.530489 
L 93.285 49.697737 
L 94.264659 51.36198 
L 95.244318 52.346813 
L 96.223977 51.681203 
L 97.203636 51.313191 
L 98.183295 52.619604 
L 99.162955 53.35524 
L 100.142614 53.402099 
L 101.122273 54.292869 
L 102.101932 54.149498 
L 103.081591 54.739385 
L 104.06125 55.242196 
L 105.040909 54.47631 
L 106.020568 55.059614 
L 107.000227 55.868722 
L 107.979886 57.02767 
L 108.959545 56.245076 
L 109.939205 56.870496 
L 110.918864 57.954842 
L 111.898523 57.739427 
L 112.878182 57.37679 
L 113.857841 57.758231 
L 114.8375 57.543818 
L 115.817159 57.407753 
L 116.796818 57.504053 
L 117.776477 58.461486 
L 118.756136 57.613591 
L 119.735795 58.278375 
L 120.715455 57.865513 
L 121.695114 59.223361 
L 122.674773 59.4625 
L 123.654432 58.73791 
L 124.634091 59.696756 
L 125.61375 58.681099 
L 126.593409 59.145013 
L 127.573068 59.603398 
L 128.552727 60.138477 
L 129.532386 60.408296 
L 130.512045 60.585217 
L 131.491705 61.903376 
L 132.471364 62.257393 
" clip-path="url(#p367317bf1c)" style="fill: none; stroke: #1f77b4; stroke-width: 1.5; stroke-linecap: square"/>
   </g>
   <g id="line2d_7">
    <path d="M 54.098636 42.415635 
L 55.078295 40.979887 
L 56.057955 38.791217 
L 57.037614 40.858417 
L 58.017273 36.892801 
L 58.996932 37.198283 
L 59.976591 37.836008 
L 60.95625 36.933584 
L 61.935909 36.688509 
L 62.915568 36.260175 
L 63.895227 36.442541 
L 64.874886 34.976174 
L 65.854545 35.506632 
L 66.834205 35.088303 
L 67.813864 34.944293 
L 68.793523 35.025191 
L 69.773182 34.690597 
L 70.752841 35.799715 
L 71.7325 35.329211 
L 72.712159 33.970814 
L 73.691818 34.824885 
L 74.671477 34.57913 
L 75.651136 34.866476 
L 76.630795 35.39 
L 77.610455 33.648041 
L 78.590114 33.377162 
L 79.569773 33.453039 
L 80.549432 33.079948 
L 81.529091 32.300316 
L 82.50875 32.284722 
L 83.488409 32.213367 
L 84.468068 32.394288 
L 85.447727 31.575695 
L 86.427386 31.083969 
L 87.407045 31.282193 
L 88.386705 30.611631 
L 89.366364 30.98049 
L 90.346023 29.561372 
L 91.325682 29.659407 
L 92.305341 30.397677 
L 93.285 29.662428 
L 94.264659 28.770081 
L 95.244318 28.692221 
L 96.223977 30.132364 
L 97.203636 28.842879 
L 98.183295 27.649136 
L 99.162955 28.114086 
L 100.142614 28.067606 
L 101.122273 27.222562 
L 102.101932 27.065338 
L 103.081591 26.67956 
L 104.06125 26.577563 
L 105.040909 26.866407 
L 106.020568 26.58011 
L 107.000227 25.927242 
L 107.979886 25.801251 
L 108.959545 26.084308 
L 109.939205 25.763217 
L 110.918864 25.168734 
L 111.898523 24.418648 
L 112.878182 24.058155 
L 113.857841 24.154886 
L 114.8375 23.944493 
L 115.817159 24.162373 
L 116.796818 24.335258 
L 117.776477 24.634496 
L 118.756136 24.42756 
L 119.735795 23.46033 
L 120.715455 23.942194 
L 121.695114 23.221291 
L 122.674773 23.907437 
L 123.654432 23.398985 
L 124.634091 23.293386 
L 125.61375 23.495656 
L 126.593409 23.142248 
L 127.573068 22.251929 
L 128.552727 22.907205 
L 129.532386 22.754963 
L 130.512045 22.495851 
L 131.491705 22.710754 
L 132.471364 23.091841 
" clip-path="url(#p367317bf1c)" style="fill: none; stroke: #1f77b4; stroke-width: 1.5; stroke-linecap: square"/>
   </g>
   <g id="patch_3">
    <path d="M 50.18 74.368 
L 50.18 10.8 
" style="fill: none; stroke: #000000; stroke-width: 0.8; stroke-linejoin: miter; stroke-linecap: square"/>
   </g>
   <g id="patch_4">
    <path d="M 136.39 74.368 
L 136.39 10.8 
" style="fill: none; stroke: #000000; stroke-width: 0.8; stroke-linejoin: miter; stroke-linecap: square"/>
   </g>
   <g id="patch_5">
    <path d="M 50.18 74.368 
L 136.39 74.368 
" style="fill: none; stroke: #000000; stroke-width: 0.8; stroke-linejoin: miter; stroke-linecap: square"/>
   </g>
   <g id="patch_6">
    <path d="M 50.18 10.8 
L 136.39 10.8 
" style="fill: none; stroke: #000000; stroke-width: 0.8; stroke-linejoin: miter; stroke-linecap: square"/>
   </g>
  </g>
  <g id="axes_2">
   <g id="patch_7">
    <path d="M 156.97 74.368 
L 243.18 74.368 
L 243.18 10.8 
L 156.97 10.8 
z
" style="fill: #ffffff"/>
   </g>
   <g id="PolyCollection_3">
    <defs>
     <path id="m69c0f0e783" d="M 160.888636 -76.760452 
L 160.888636 -77.480866 
L 161.868295 -78.680185 
L 162.847955 -78.287418 
L 163.827614 -80.113254 
L 164.807273 -79.369468 
L 165.786932 -80.227894 
L 166.766591 -80.149614 
L 167.74625 -78.891384 
L 168.725909 -79.179369 
L 169.705568 -78.482622 
L 170.685227 -79.900795 
L 171.664886 -79.861948 
L 172.644545 -79.283676 
L 173.624205 -79.089325 
L 174.603864 -79.068986 
L 175.583523 -79.45784 
L 176.563182 -79.055498 
L 177.542841 -79.542605 
L 178.5225 -79.050496 
L 179.502159 -79.442416 
L 180.481818 -79.852555 
L 181.461477 -79.774065 
L 182.441136 -79.162342 
L 183.420795 -79.846988 
L 184.400455 -79.331906 
L 185.380114 -79.841042 
L 186.359773 -79.198558 
L 187.339432 -80.144552 
L 188.319091 -80.906568 
L 189.29875 -80.277606 
L 190.278409 -79.699297 
L 191.258068 -79.312419 
L 192.237727 -79.724668 
L 193.217386 -79.127179 
L 194.197045 -79.821159 
L 195.176705 -79.278201 
L 196.156364 -79.992716 
L 197.136023 -80.045307 
L 198.115682 -78.46905 
L 199.095341 -78.541823 
L 200.075 -78.778638 
L 201.054659 -79.753242 
L 202.034318 -79.856678 
L 203.013977 -79.091509 
L 203.993636 -78.903775 
L 204.973295 -79.502777 
L 205.952955 -79.757938 
L 206.932614 -78.513382 
L 207.912273 -79.168081 
L 208.891932 -79.144167 
L 209.871591 -80.074651 
L 210.85125 -78.649518 
L 211.830909 -78.815198 
L 212.810568 -79.295392 
L 213.790227 -80.139904 
L 214.769886 -78.936347 
L 215.749545 -78.991809 
L 216.729205 -79.233067 
L 217.708864 -78.438212 
L 218.688523 -80.059712 
L 219.668182 -79.09389 
L 220.647841 -80.214192 
L 221.6275 -79.964156 
L 222.607159 -79.247732 
L 223.586818 -78.302766 
L 224.566477 -79.411089 
L 225.546136 -78.277799 
L 226.525795 -78.99584 
L 227.505455 -79.487735 
L 228.485114 -78.958989 
L 229.464773 -79.673692 
L 230.444432 -80.006819 
L 231.424091 -79.464371 
L 232.40375 -79.085706 
L 233.383409 -81.153919 
L 234.363068 -78.586502 
L 235.342727 -80.170866 
L 236.322386 -78.990973 
L 237.302045 -79.079483 
L 238.281705 -79.654414 
L 239.261364 -76.774637 
L 239.261364 -73.912762 
L 239.261364 -73.912762 
L 238.281705 -75.219064 
L 237.302045 -74.290126 
L 236.322386 -73.990261 
L 235.342727 -74.974765 
L 234.363068 -75.557213 
L 233.383409 -74.852211 
L 232.40375 -74.570083 
L 231.424091 -74.786448 
L 230.444432 -75.152664 
L 229.464773 -75.37004 
L 228.485114 -74.378238 
L 227.505455 -74.736935 
L 226.525795 -74.768043 
L 225.546136 -72.897966 
L 224.566477 -74.661625 
L 223.586818 -74.598578 
L 222.607159 -74.279462 
L 221.6275 -75.650918 
L 220.647841 -74.600448 
L 219.668182 -75.951952 
L 218.688523 -75.101377 
L 217.708864 -74.681336 
L 216.729205 -75.064532 
L 215.749545 -74.979496 
L 214.769886 -74.738087 
L 213.790227 -73.912466 
L 212.810568 -76.046509 
L 211.830909 -74.718773 
L 210.85125 -75.211563 
L 209.871591 -75.10596 
L 208.891932 -73.672844 
L 207.912273 -74.904557 
L 206.932614 -75.005467 
L 205.952955 -74.14913 
L 204.973295 -75.157719 
L 203.993636 -74.746552 
L 203.013977 -74.480902 
L 202.034318 -74.906763 
L 201.054659 -74.693434 
L 200.075 -74.873386 
L 199.095341 -74.447351 
L 198.115682 -74.673503 
L 197.136023 -76.007129 
L 196.156364 -73.952916 
L 195.176705 -75.155739 
L 194.197045 -75.212342 
L 193.217386 -76.113205 
L 192.237727 -75.103126 
L 191.258068 -74.881734 
L 190.278409 -75.03263 
L 189.29875 -75.617125 
L 188.319091 -75.758791 
L 187.339432 -74.835843 
L 186.359773 -74.14518 
L 185.380114 -74.692765 
L 184.400455 -73.960376 
L 183.420795 -74.729853 
L 182.441136 -75.10408 
L 181.461477 -76.221436 
L 180.481818 -75.603686 
L 179.502159 -74.837984 
L 178.5225 -73.964199 
L 177.542841 -74.370484 
L 176.563182 -75.662761 
L 175.583523 -74.665402 
L 174.603864 -75.021169 
L 173.624205 -73.764829 
L 172.644545 -74.57897 
L 171.664886 -74.933281 
L 170.685227 -75.247353 
L 169.705568 -74.654483 
L 168.725909 -73.996381 
L 167.74625 -75.131462 
L 166.766591 -75.307713 
L 165.786932 -75.733747 
L 164.807273 -74.247958 
L 163.827614 -74.288213 
L 162.847955 -74.819093 
L 161.868295 -75.091906 
L 160.888636 -76.760452 
z
" style="stroke: #ff7f0e; stroke-opacity: 0.5"/>
    </defs>
    <g clip-path="url(#pe22c1ac791)">
     <use xlink:href="#m69c0f0e783" x="0" y="119.52" style="fill: #ff7f0e; fill-opacity: 0.5; stroke: #ff7f0e; stroke-opacity: 0.5"/>
    </g>
   </g>
   <g id="PolyCollection_4">
    <defs>
     <path id="m967928ed54" d="M 160.888636 -76.901845 
L 160.888636 -77.552511 
L 161.868295 -79.059055 
L 162.847955 -80.326013 
L 163.827614 -79.441599 
L 164.807273 -79.246092 
L 165.786932 -79.666959 
L 166.766591 -78.689367 
L 167.74625 -77.695876 
L 168.725909 -79.749604 
L 169.705568 -79.192487 
L 170.685227 -79.831577 
L 171.664886 -78.992753 
L 172.644545 -79.193606 
L 173.624205 -79.78414 
L 174.603864 -79.815486 
L 175.583523 -79.6669 
L 176.563182 -78.462058 
L 177.542841 -79.138952 
L 178.5225 -78.84222 
L 179.502159 -79.195737 
L 180.481818 -78.676053 
L 181.461477 -78.552616 
L 182.441136 -79.155969 
L 183.420795 -79.000828 
L 184.400455 -79.225497 
L 185.380114 -79.499793 
L 186.359773 -79.716511 
L 187.339432 -79.632181 
L 188.319091 -78.758172 
L 189.29875 -79.273397 
L 190.278409 -78.571547 
L 191.258068 -79.336812 
L 192.237727 -79.374343 
L 193.217386 -79.340926 
L 194.197045 -79.324817 
L 195.176705 -79.824178 
L 196.156364 -79.471433 
L 197.136023 -78.469872 
L 198.115682 -79.084305 
L 199.095341 -79.258305 
L 200.075 -79.33634 
L 201.054659 -78.647866 
L 202.034318 -79.974102 
L 203.013977 -79.586106 
L 203.993636 -79.896159 
L 204.973295 -79.656935 
L 205.952955 -79.601697 
L 206.932614 -78.73814 
L 207.912273 -79.661905 
L 208.891932 -79.610616 
L 209.871591 -79.270279 
L 210.85125 -79.088604 
L 211.830909 -79.567081 
L 212.810568 -78.770669 
L 213.790227 -78.79897 
L 214.769886 -79.684537 
L 215.749545 -78.945267 
L 216.729205 -80.137257 
L 217.708864 -79.303729 
L 218.688523 -80.249616 
L 219.668182 -79.418592 
L 220.647841 -78.539234 
L 221.6275 -80.007885 
L 222.607159 -79.631154 
L 223.586818 -78.548401 
L 224.566477 -78.887452 
L 225.546136 -79.823094 
L 226.525795 -78.860382 
L 227.505455 -79.587841 
L 228.485114 -79.309864 
L 229.464773 -78.765589 
L 230.444432 -79.320933 
L 231.424091 -78.987361 
L 232.40375 -79.133469 
L 233.383409 -79.105935 
L 234.363068 -79.521029 
L 235.342727 -79.676227 
L 236.322386 -79.327979 
L 237.302045 -80.199997 
L 238.281705 -79.09822 
L 239.261364 -80.333452 
L 239.261364 -77.871608 
L 239.261364 -77.871608 
L 238.281705 -74.61217 
L 237.302045 -74.509064 
L 236.322386 -74.965325 
L 235.342727 -74.267231 
L 234.363068 -74.837421 
L 233.383409 -75.044346 
L 232.40375 -74.859155 
L 231.424091 -74.857462 
L 230.444432 -74.868694 
L 229.464773 -74.511962 
L 228.485114 -74.821007 
L 227.505455 -75.193996 
L 226.525795 -74.872088 
L 225.546136 -74.545135 
L 224.566477 -74.682393 
L 223.586818 -74.022196 
L 222.607159 -74.678524 
L 221.6275 -75.531159 
L 220.647841 -74.863081 
L 219.668182 -75.095061 
L 218.688523 -74.571 
L 217.708864 -74.719986 
L 216.729205 -74.548114 
L 215.749545 -74.654619 
L 214.769886 -75.001512 
L 213.790227 -75.401681 
L 212.810568 -74.239225 
L 211.830909 -75.738332 
L 210.85125 -75.468925 
L 209.871591 -74.414892 
L 208.891932 -75.467922 
L 207.912273 -75.330568 
L 206.932614 -74.371419 
L 205.952955 -74.769046 
L 204.973295 -75.030725 
L 203.993636 -73.627592 
L 203.013977 -75.683557 
L 202.034318 -74.304022 
L 201.054659 -74.478865 
L 200.075 -75.255947 
L 199.095341 -73.95595 
L 198.115682 -75.098555 
L 197.136023 -74.619853 
L 196.156364 -75.514509 
L 195.176705 -74.157562 
L 194.197045 -75.034315 
L 193.217386 -75.106689 
L 192.237727 -75.231073 
L 191.258068 -73.897095 
L 190.278409 -73.981181 
L 189.29875 -75.586084 
L 188.319091 -74.819432 
L 187.339432 -75.714402 
L 186.359773 -75.727293 
L 185.380114 -75.396101 
L 184.400455 -74.856524 
L 183.420795 -75.364024 
L 182.441136 -74.1034 
L 181.461477 -74.88467 
L 180.481818 -74.643958 
L 179.502159 -75.056114 
L 178.5225 -74.268968 
L 177.542841 -75.023773 
L 176.563182 -74.061841 
L 175.583523 -74.186283 
L 174.603864 -75.427748 
L 173.624205 -75.150052 
L 172.644545 -74.937342 
L 171.664886 -74.943266 
L 170.685227 -75.405178 
L 169.705568 -74.544375 
L 168.725909 -74.68277 
L 167.74625 -74.796983 
L 166.766591 -74.001048 
L 165.786932 -75.047563 
L 164.807273 -75.734314 
L 163.827614 -75.16035 
L 162.847955 -74.727561 
L 161.868295 -74.453041 
L 160.888636 -76.901845 
z
" style="stroke: #ff7f0e; stroke-opacity: 0.5"/>
    </defs>
    <g clip-path="url(#pe22c1ac791)">
     <use xlink:href="#m967928ed54" x="0" y="119.52" style="fill: #ff7f0e; fill-opacity: 0.5; stroke: #ff7f0e; stroke-opacity: 0.5"/>
    </g>
   </g>
   <g id="matplotlib.axis_3">
    <g id="xtick_3">
     <g id="line2d_8">
      <g>
       <use xlink:href="#m43942aa183" x="160.79067" y="74.368" style="stroke: #000000; stroke-width: 0.8"/>
      </g>
     </g>
     <g id="text_8">
      <!-- 0 -->
      <g transform="translate(157.60942 88.966437) scale(0.1 -0.1)">
       <use xlink:href="#DejaVuSans-30"/>
      </g>
     </g>
    </g>
    <g id="xtick_4">
     <g id="line2d_9">
      <g>
       <use xlink:href="#m43942aa183" x="209.773625" y="74.368" style="stroke: #000000; stroke-width: 0.8"/>
      </g>
     </g>
     <g id="text_9">
      <!-- 500 -->
      <g transform="translate(200.229875 88.966437) scale(0.1 -0.1)">
       <use xlink:href="#DejaVuSans-35"/>
       <use xlink:href="#DejaVuSans-30" x="63.623047"/>
       <use xlink:href="#DejaVuSans-30" x="127.246094"/>
      </g>
     </g>
    </g>
    <g id="text_10">
     <!-- time (units of $\omega_\mathrm{r}^{-1}$) -->
     <g transform="translate(153.275 101.046125) scale(0.1 -0.1)">
      <use xlink:href="#DejaVuSans-74" transform="translate(0 0.684375)"/>
      <use xlink:href="#DejaVuSans-69" transform="translate(39.208984 0.684375)"/>
      <use xlink:href="#DejaVuSans-6d" transform="translate(66.992188 0.684375)"/>
      <use xlink:href="#DejaVuSans-65" transform="translate(164.404297 0.684375)"/>
      <use xlink:href="#DejaVuSans-20" transform="translate(225.927734 0.684375)"/>
      <use xlink:href="#DejaVuSans-28" transform="translate(257.714844 0.684375)"/>
      <use xlink:href="#DejaVuSans-75" transform="translate(296.728516 0.684375)"/>
      <use xlink:href="#DejaVuSans-6e" transform="translate(360.107422 0.684375)"/>
      <use xlink:href="#DejaVuSans-69" transform="translate(423.486328 0.684375)"/>
      <use xlink:href="#DejaVuSans-74" transform="translate(451.269531 0.684375)"/>
      <use xlink:href="#DejaVuSans-73" transform="translate(490.478516 0.684375)"/>
      <use xlink:href="#DejaVuSans-20" transform="translate(542.578125 0.684375)"/>
      <use xlink:href="#DejaVuSans-6f" transform="translate(574.365234 0.684375)"/>
      <use xlink:href="#DejaVuSans-66" transform="translate(635.546875 0.684375)"/>
      <use xlink:href="#DejaVuSans-20" transform="translate(670.751953 0.684375)"/>
      <use xlink:href="#DejaVuSans-Oblique-3c9" transform="translate(702.539062 0.684375)"/>
      <use xlink:href="#DejaVuSans-2212" transform="translate(790.745443 38.965625) scale(0.7)"/>
      <use xlink:href="#DejaVuSans-31" transform="translate(849.397786 38.965625) scale(0.7)"/>
      <use xlink:href="#DejaVuSans-72" transform="translate(786.279297 -26.659375) scale(0.7)"/>
      <use xlink:href="#DejaVuSans-29" transform="translate(896.668294 0.684375)"/>
     </g>
    </g>
   </g>
   <g id="matplotlib.axis_4">
    <g id="ytick_4">
     <g id="line2d_10">
      <g>
       <use xlink:href="#m3fe3fdd891" x="156.97" y="69.328034" style="stroke: #000000; stroke-width: 0.8"/>
      </g>
     </g>
    </g>
    <g id="ytick_5">
     <g id="line2d_11">
      <g>
       <use xlink:href="#m3fe3fdd891" x="156.97" y="42.367676" style="stroke: #000000; stroke-width: 0.8"/>
      </g>
     </g>
    </g>
    <g id="ytick_6">
     <g id="line2d_12">
      <g>
       <use xlink:href="#m3fe3fdd891" x="156.97" y="15.407317" style="stroke: #000000; stroke-width: 0.8"/>
      </g>
     </g>
    </g>
    <g id="text_11">
     <!-- Y -->
     <g transform="translate(144.390312 45.637906) rotate(-90) scale(0.1 -0.1)">
      <defs>
       <path id="DejaVuSans-59" d="M -13 4666 
L 666 4666 
L 1959 2747 
L 3244 4666 
L 3922 4666 
L 2272 2222 
L 2272 0 
L 1638 0 
L 1638 2222 
L -13 4666 
z
" transform="scale(0.015625)"/>
      </defs>
      <use xlink:href="#DejaVuSans-59"/>
     </g>
    </g>
   </g>
   <g id="line2d_13">
    <path d="M 160.888636 42.399341 
L 161.868295 42.633954 
L 162.847955 42.966745 
L 163.827614 42.319266 
L 164.807273 42.711287 
L 165.786932 41.53918 
L 166.766591 41.791337 
L 167.74625 42.508577 
L 168.725909 42.932125 
L 169.705568 42.951447 
L 170.685227 41.945926 
L 171.664886 42.122386 
L 172.644545 42.588677 
L 173.624205 43.092923 
L 174.603864 42.474922 
L 175.583523 42.458379 
L 176.563182 42.16087 
L 177.542841 42.563455 
L 178.5225 43.012652 
L 179.502159 42.3798 
L 180.481818 41.791879 
L 181.461477 41.522249 
L 182.441136 42.386789 
L 183.420795 42.231579 
L 184.400455 42.873859 
L 185.380114 42.253096 
L 186.359773 42.848131 
L 187.339432 42.029802 
L 188.319091 41.187321 
L 189.29875 41.572634 
L 190.278409 42.154036 
L 191.258068 42.422924 
L 192.237727 42.106103 
L 193.217386 41.899808 
L 194.197045 42.003249 
L 195.176705 42.30303 
L 196.156364 42.547184 
L 197.136023 41.493782 
L 198.115682 42.948724 
L 199.095341 43.025413 
L 200.075 42.693988 
L 201.054659 42.296662 
L 202.034318 42.13828 
L 203.013977 42.733795 
L 203.993636 42.694837 
L 204.973295 42.189752 
L 205.952955 42.566466 
L 206.932614 42.760575 
L 207.912273 42.483681 
L 208.891932 43.111494 
L 209.871591 41.929695 
L 210.85125 42.58946 
L 211.830909 42.753015 
L 212.810568 41.84905 
L 213.790227 42.493815 
L 214.769886 42.682783 
L 215.749545 42.534348 
L 216.729205 42.3712 
L 217.708864 42.960226 
L 218.688523 41.939456 
L 219.668182 41.997079 
L 220.647841 42.11268 
L 221.6275 41.712463 
L 222.607159 42.756403 
L 223.586818 43.069328 
L 224.566477 42.483643 
L 225.546136 43.932118 
L 226.525795 42.638059 
L 227.505455 42.407665 
L 228.485114 42.851387 
L 229.464773 41.998134 
L 230.444432 41.940259 
L 231.424091 42.39459 
L 232.40375 42.692106 
L 233.383409 41.516935 
L 234.363068 42.448143 
L 235.342727 41.947184 
L 236.322386 43.029383 
L 237.302045 42.835196 
L 238.281705 42.083261 
L 239.261364 44.1763 
" clip-path="url(#pe22c1ac791)" style="fill: none; stroke: #ff7f0e; stroke-width: 1.5; stroke-linecap: square"/>
   </g>
   <g id="line2d_14">
    <path d="M 160.888636 42.292822 
L 161.868295 42.763952 
L 162.847955 41.993213 
L 163.827614 42.219025 
L 164.807273 42.029797 
L 165.786932 42.162739 
L 166.766591 43.174793 
L 167.74625 43.273571 
L 168.725909 42.303813 
L 169.705568 42.651569 
L 170.685227 41.901622 
L 171.664886 42.55199 
L 172.644545 42.454526 
L 173.624205 42.052904 
L 174.603864 41.898383 
L 175.583523 42.593409 
L 176.563182 43.25805 
L 177.542841 42.438637 
L 178.5225 42.964406 
L 179.502159 42.394074 
L 180.481818 42.859994 
L 181.461477 42.801357 
L 182.441136 42.890316 
L 183.420795 42.337574 
L 184.400455 42.47899 
L 185.380114 42.072053 
L 186.359773 41.798098 
L 187.339432 41.846708 
L 188.319091 42.731198 
L 189.29875 42.090259 
L 190.278409 43.243636 
L 191.258068 42.903047 
L 192.237727 42.217292 
L 193.217386 42.296192 
L 194.197045 42.340434 
L 195.176705 42.52913 
L 196.156364 42.027029 
L 197.136023 42.975138 
L 198.115682 42.42857 
L 199.095341 42.912873 
L 200.075 42.223857 
L 201.054659 42.956634 
L 202.034318 42.380938 
L 203.013977 41.885169 
L 203.993636 42.758124 
L 204.973295 42.17617 
L 205.952955 42.334628 
L 206.932614 42.965221 
L 207.912273 42.023764 
L 208.891932 41.980731 
L 209.871591 42.677415 
L 210.85125 42.241235 
L 211.830909 41.867293 
L 212.810568 43.015053 
L 213.790227 42.419675 
L 214.769886 42.176976 
L 215.749545 42.720057 
L 216.729205 42.177314 
L 217.708864 42.508143 
L 218.688523 42.109692 
L 219.668182 42.263173 
L 220.647841 42.818842 
L 221.6275 41.750478 
L 222.607159 42.365161 
L 223.586818 43.234702 
L 224.566477 42.735077 
L 225.546136 42.335886 
L 226.525795 42.653765 
L 227.505455 42.129081 
L 228.485114 42.454564 
L 229.464773 42.881225 
L 230.444432 42.425186 
L 231.424091 42.597588 
L 232.40375 42.523688 
L 233.383409 42.444859 
L 234.363068 42.340775 
L 235.342727 42.548271 
L 236.322386 42.373348 
L 237.302045 42.16547 
L 238.281705 42.664805 
L 239.261364 40.41747 
" clip-path="url(#pe22c1ac791)" style="fill: none; stroke: #ff7f0e; stroke-width: 1.5; stroke-linecap: square"/>
   </g>
   <g id="patch_8">
    <path d="M 156.97 74.368 
L 156.97 10.8 
" style="fill: none; stroke: #000000; stroke-width: 0.8; stroke-linejoin: miter; stroke-linecap: square"/>
   </g>
   <g id="patch_9">
    <path d="M 243.18 74.368 
L 243.18 10.8 
" style="fill: none; stroke: #000000; stroke-width: 0.8; stroke-linejoin: miter; stroke-linecap: square"/>
   </g>
   <g id="patch_10">
    <path d="M 156.97 74.368 
L 243.18 74.368 
" style="fill: none; stroke: #000000; stroke-width: 0.8; stroke-linejoin: miter; stroke-linecap: square"/>
   </g>
   <g id="patch_11">
    <path d="M 156.97 10.8 
L 243.18 10.8 
" style="fill: none; stroke: #000000; stroke-width: 0.8; stroke-linejoin: miter; stroke-linecap: square"/>
   </g>
  </g>
 </g>
 <defs>
  <clipPath id="p367317bf1c">
   <rect x="50.18" y="10.8" width="86.21" height="63.568"/>
  </clipPath>
  <clipPath id="pe22c1ac791">
   <rect x="156.97" y="10.8" width="86.21" height="63.568"/>
  </clipPath>
 </defs>
</svg>
