<?xml version="1.0" encoding="utf-8" standalone="no"?>
<!DOCTYPE svg PUBLIC "-//W3C//DTD SVG 1.1//EN"
  "http://www.w3.org/Graphics/SVG/1.1/DTD/svg11.dtd">
<svg xmlns:xlink="http://www.w3.org/1999/xlink" width="201.6pt" height="216pt" viewBox="0 0 201.6 216" xmlns="http://www.w3.org/2000/svg" version="1.1">
 <metadata>
  <rdf:RDF xmlns:dc="http://purl.org/dc/elements/1.1/" xmlns:cc="http://creativecommons.org/ns#" xmlns:rdf="http://www.w3.org/1999/02/22-rdf-syntax-ns#">
   <cc:Work>
    <dc:type rdf:resource="http://purl.org/dc/dcmitype/StillImage"/>
    <dc:date>2023-11-28T14:37:37.122165</dc:date>
    <dc:format>image/svg+xml</dc:format>
    <dc:creator>
     <cc:Agent>
      <dc:title>Matplotlib v3.7.1, https://matplotlib.org/</dc:title>
     </cc:Agent>
    </dc:creator>
   </cc:Work>
  </rdf:RDF>
 </metadata>
 <defs>
  <style type="text/css">*{stroke-linejoin: round; stroke-linecap: butt}</style>
 </defs>
 <g id="figure_1">
  <g id="patch_1">
   <path d="M 0 216 
L 201.6 216 
L 201.6 0 
L 0 0 
z
" style="fill: #ffffff"/>
  </g>
  <g id="axes_1">
   <g id="patch_2">
    <path d="M 55.06 89.013814 
L 190.8 89.013814 
L 190.8 10.8 
L 55.06 10.8 
z
" style="fill: #ffffff"/>
   </g>
   <g id="matplotlib.axis_1">
    <g id="xtick_1">
     <g id="line2d_1">
      <defs>
       <path id="m57a404c02d" d="M 0 0 
L 0 3.5 
" style="stroke: #000000; stroke-width: 0.8"/>
      </defs>
      <g>
       <use xlink:href="#m57a404c02d" x="61.23" y="89.013814" style="stroke: #000000; stroke-width: 0.8"/>
      </g>
     </g>
    </g>
    <g id="xtick_2">
     <g id="line2d_2">
      <g>
       <use xlink:href="#m57a404c02d" x="95.507778" y="89.013814" style="stroke: #000000; stroke-width: 0.8"/>
      </g>
     </g>
    </g>
    <g id="xtick_3">
     <g id="line2d_3">
      <g>
       <use xlink:href="#m57a404c02d" x="129.785556" y="89.013814" style="stroke: #000000; stroke-width: 0.8"/>
      </g>
     </g>
    </g>
    <g id="xtick_4">
     <g id="line2d_4">
      <g>
       <use xlink:href="#m57a404c02d" x="164.063333" y="89.013814" style="stroke: #000000; stroke-width: 0.8"/>
      </g>
     </g>
    </g>
   </g>
   <g id="matplotlib.axis_2">
    <g id="ytick_1">
     <g id="line2d_5">
      <defs>
       <path id="mb8f3d29a9a" d="M 0 0 
L -3.5 0 
" style="stroke: #000000; stroke-width: 0.8"/>
      </defs>
      <g>
       <use xlink:href="#mb8f3d29a9a" x="55.06" y="75.619749" style="stroke: #000000; stroke-width: 0.8"/>
      </g>
     </g>
     <g id="text_1">
      <!-- 0 -->
      <g transform="translate(41.6975 79.418967) scale(0.1 -0.1)">
       <defs>
        <path id="DejaVuSans-30" d="M 2034 4250 
Q 1547 4250 1301 3770 
Q 1056 3291 1056 2328 
Q 1056 1369 1301 889 
Q 1547 409 2034 409 
Q 2525 409 2770 889 
Q 3016 1369 3016 2328 
Q 3016 3291 2770 3770 
Q 2525 4250 2034 4250 
z
M 2034 4750 
Q 2819 4750 3233 4129 
Q 3647 3509 3647 2328 
Q 3647 1150 3233 529 
Q 2819 -91 2034 -91 
Q 1250 -91 836 529 
Q 422 1150 422 2328 
Q 422 3509 836 4129 
Q 1250 4750 2034 4750 
z
" transform="scale(0.015625)"/>
       </defs>
       <use xlink:href="#DejaVuSans-30"/>
      </g>
     </g>
    </g>
    <g id="ytick_2">
     <g id="line2d_6">
      <g>
       <use xlink:href="#mb8f3d29a9a" x="55.06" y="41.976941" style="stroke: #000000; stroke-width: 0.8"/>
      </g>
     </g>
     <g id="text_2">
      <!-- 100 -->
      <g transform="translate(28.9725 45.77616) scale(0.1 -0.1)">
       <defs>
        <path id="DejaVuSans-31" d="M 794 531 
L 1825 531 
L 1825 4091 
L 703 3866 
L 703 4441 
L 1819 4666 
L 2450 4666 
L 2450 531 
L 3481 531 
L 3481 0 
L 794 0 
L 794 531 
z
" transform="scale(0.015625)"/>
       </defs>
       <use xlink:href="#DejaVuSans-31"/>
       <use xlink:href="#DejaVuSans-30" x="63.623047"/>
       <use xlink:href="#DejaVuSans-30" x="127.246094"/>
      </g>
     </g>
    </g>
    <g id="text_3">
     <!-- cavity population $\langle a^\dag a\rangle$ -->
     <g transform="translate(25.8725 106.956907) rotate(-90) scale(0.1 -0.1)">
      <defs>
       <path id="DejaVuSans-63" d="M 3122 3366 
L 3122 2828 
Q 2878 2963 2633 3030 
Q 2388 3097 2138 3097 
Q 1578 3097 1268 2742 
Q 959 2388 959 1747 
Q 959 1106 1268 751 
Q 1578 397 2138 397 
Q 2388 397 2633 464 
Q 2878 531 3122 666 
L 3122 134 
Q 2881 22 2623 -34 
Q 2366 -91 2075 -91 
Q 1284 -91 818 406 
Q 353 903 353 1747 
Q 353 2603 823 3093 
Q 1294 3584 2113 3584 
Q 2378 3584 2631 3529 
Q 2884 3475 3122 3366 
z
" transform="scale(0.015625)"/>
       <path id="DejaVuSans-61" d="M 2194 1759 
Q 1497 1759 1228 1600 
Q 959 1441 959 1056 
Q 959 750 1161 570 
Q 1363 391 1709 391 
Q 2188 391 2477 730 
Q 2766 1069 2766 1631 
L 2766 1759 
L 2194 1759 
z
M 3341 1997 
L 3341 0 
L 2766 0 
L 2766 531 
Q 2569 213 2275 61 
Q 1981 -91 1556 -91 
Q 1019 -91 701 211 
Q 384 513 384 1019 
Q 384 1609 779 1909 
Q 1175 2209 1959 2209 
L 2766 2209 
L 2766 2266 
Q 2766 2663 2505 2880 
Q 2244 3097 1772 3097 
Q 1472 3097 1187 3025 
Q 903 2953 641 2809 
L 641 3341 
Q 956 3463 1253 3523 
Q 1550 3584 1831 3584 
Q 2591 3584 2966 3190 
Q 3341 2797 3341 1997 
z
" transform="scale(0.015625)"/>
       <path id="DejaVuSans-76" d="M 191 3500 
L 800 3500 
L 1894 563 
L 2988 3500 
L 3597 3500 
L 2284 0 
L 1503 0 
L 191 3500 
z
" transform="scale(0.015625)"/>
       <path id="DejaVuSans-69" d="M 603 3500 
L 1178 3500 
L 1178 0 
L 603 0 
L 603 3500 
z
M 603 4863 
L 1178 4863 
L 1178 4134 
L 603 4134 
L 603 4863 
z
" transform="scale(0.015625)"/>
       <path id="DejaVuSans-74" d="M 1172 4494 
L 1172 3500 
L 2356 3500 
L 2356 3053 
L 1172 3053 
L 1172 1153 
Q 1172 725 1289 603 
Q 1406 481 1766 481 
L 2356 481 
L 2356 0 
L 1766 0 
Q 1100 0 847 248 
Q 594 497 594 1153 
L 594 3053 
L 172 3053 
L 172 3500 
L 594 3500 
L 594 4494 
L 1172 4494 
z
" transform="scale(0.015625)"/>
       <path id="DejaVuSans-79" d="M 2059 -325 
Q 1816 -950 1584 -1140 
Q 1353 -1331 966 -1331 
L 506 -1331 
L 506 -850 
L 844 -850 
Q 1081 -850 1212 -737 
Q 1344 -625 1503 -206 
L 1606 56 
L 191 3500 
L 800 3500 
L 1894 763 
L 2988 3500 
L 3597 3500 
L 2059 -325 
z
" transform="scale(0.015625)"/>
       <path id="DejaVuSans-20" transform="scale(0.015625)"/>
       <path id="DejaVuSans-70" d="M 1159 525 
L 1159 -1331 
L 581 -1331 
L 581 3500 
L 1159 3500 
L 1159 2969 
Q 1341 3281 1617 3432 
Q 1894 3584 2278 3584 
Q 2916 3584 3314 3078 
Q 3713 2572 3713 1747 
Q 3713 922 3314 415 
Q 2916 -91 2278 -91 
Q 1894 -91 1617 61 
Q 1341 213 1159 525 
z
M 3116 1747 
Q 3116 2381 2855 2742 
Q 2594 3103 2138 3103 
Q 1681 3103 1420 2742 
Q 1159 2381 1159 1747 
Q 1159 1113 1420 752 
Q 1681 391 2138 391 
Q 2594 391 2855 752 
Q 3116 1113 3116 1747 
z
" transform="scale(0.015625)"/>
       <path id="DejaVuSans-6f" d="M 1959 3097 
Q 1497 3097 1228 2736 
Q 959 2375 959 1747 
Q 959 1119 1226 758 
Q 1494 397 1959 397 
Q 2419 397 2687 759 
Q 2956 1122 2956 1747 
Q 2956 2369 2687 2733 
Q 2419 3097 1959 3097 
z
M 1959 3584 
Q 2709 3584 3137 3096 
Q 3566 2609 3566 1747 
Q 3566 888 3137 398 
Q 2709 -91 1959 -91 
Q 1206 -91 779 398 
Q 353 888 353 1747 
Q 353 2609 779 3096 
Q 1206 3584 1959 3584 
z
" transform="scale(0.015625)"/>
       <path id="DejaVuSans-75" d="M 544 1381 
L 544 3500 
L 1119 3500 
L 1119 1403 
Q 1119 906 1312 657 
Q 1506 409 1894 409 
Q 2359 409 2629 706 
Q 2900 1003 2900 1516 
L 2900 3500 
L 3475 3500 
L 3475 0 
L 2900 0 
L 2900 538 
Q 2691 219 2414 64 
Q 2138 -91 1772 -91 
Q 1169 -91 856 284 
Q 544 659 544 1381 
z
M 1991 3584 
L 1991 3584 
z
" transform="scale(0.015625)"/>
       <path id="DejaVuSans-6c" d="M 603 4863 
L 1178 4863 
L 1178 0 
L 603 0 
L 603 4863 
z
" transform="scale(0.015625)"/>
       <path id="DejaVuSans-6e" d="M 3513 2113 
L 3513 0 
L 2938 0 
L 2938 2094 
Q 2938 2591 2744 2837 
Q 2550 3084 2163 3084 
Q 1697 3084 1428 2787 
Q 1159 2491 1159 1978 
L 1159 0 
L 581 0 
L 581 3500 
L 1159 3500 
L 1159 2956 
Q 1366 3272 1645 3428 
Q 1925 3584 2291 3584 
Q 2894 3584 3203 3211 
Q 3513 2838 3513 2113 
z
" transform="scale(0.015625)"/>
       <path id="DejaVuSans-27e8" d="M 572 2006 
L 1453 4856 
L 1984 4856 
L 1103 2006 
L 1984 -844 
L 1453 -844 
L 572 2006 
z
" transform="scale(0.015625)"/>
       <path id="DejaVuSans-Oblique-61" d="M 3438 1997 
L 3047 0 
L 2472 0 
L 2578 531 
Q 2325 219 2001 64 
Q 1678 -91 1281 -91 
Q 834 -91 548 182 
Q 263 456 263 884 
Q 263 1497 752 1853 
Q 1241 2209 2100 2209 
L 2900 2209 
L 2931 2363 
Q 2938 2388 2941 2417 
Q 2944 2447 2944 2509 
Q 2944 2788 2717 2942 
Q 2491 3097 2081 3097 
Q 1800 3097 1504 3025 
Q 1209 2953 897 2809 
L 997 3341 
Q 1322 3463 1633 3523 
Q 1944 3584 2234 3584 
Q 2853 3584 3176 3315 
Q 3500 3047 3500 2534 
Q 3500 2431 3484 2292 
Q 3469 2153 3438 1997 
z
M 2816 1759 
L 2241 1759 
Q 1534 1759 1195 1570 
Q 856 1381 856 984 
Q 856 709 1029 553 
Q 1203 397 1509 397 
Q 1978 397 2328 733 
Q 2678 1069 2791 1631 
L 2816 1759 
z
" transform="scale(0.015625)"/>
       <path id="DejaVuSans-2020" d="M 1325 4666 
L 1875 4666 
L 1875 3353 
L 3022 3353 
L 3022 2875 
L 1875 2875 
L 1875 -616 
L 1325 -616 
L 1325 2875 
L 178 2875 
L 178 3353 
L 1325 3353 
L 1325 4666 
z
" transform="scale(0.015625)"/>
       <path id="DejaVuSans-27e9" d="M 1925 2006 
L 1044 -844 
L 513 -844 
L 1394 2006 
L 513 4856 
L 1044 4856 
L 1925 2006 
z
" transform="scale(0.015625)"/>
      </defs>
      <use xlink:href="#DejaVuSans-63" transform="translate(0 0.684375)"/>
      <use xlink:href="#DejaVuSans-61" transform="translate(54.980469 0.684375)"/>
      <use xlink:href="#DejaVuSans-76" transform="translate(116.259766 0.684375)"/>
      <use xlink:href="#DejaVuSans-69" transform="translate(175.439453 0.684375)"/>
      <use xlink:href="#DejaVuSans-74" transform="translate(203.222656 0.684375)"/>
      <use xlink:href="#DejaVuSans-79" transform="translate(242.431641 0.684375)"/>
      <use xlink:href="#DejaVuSans-20" transform="translate(301.611328 0.684375)"/>
      <use xlink:href="#DejaVuSans-70" transform="translate(333.398438 0.684375)"/>
      <use xlink:href="#DejaVuSans-6f" transform="translate(396.875 0.684375)"/>
      <use xlink:href="#DejaVuSans-70" transform="translate(458.056641 0.684375)"/>
      <use xlink:href="#DejaVuSans-75" transform="translate(521.533203 0.684375)"/>
      <use xlink:href="#DejaVuSans-6c" transform="translate(584.912109 0.684375)"/>
      <use xlink:href="#DejaVuSans-61" transform="translate(612.695312 0.684375)"/>
      <use xlink:href="#DejaVuSans-74" transform="translate(673.974609 0.684375)"/>
      <use xlink:href="#DejaVuSans-69" transform="translate(713.183594 0.684375)"/>
      <use xlink:href="#DejaVuSans-6f" transform="translate(740.966797 0.684375)"/>
      <use xlink:href="#DejaVuSans-6e" transform="translate(802.148438 0.684375)"/>
      <use xlink:href="#DejaVuSans-20" transform="translate(865.527344 0.684375)"/>
      <use xlink:href="#DejaVuSans-27e8" transform="translate(897.314453 0.684375)"/>
      <use xlink:href="#DejaVuSans-Oblique-61" transform="translate(936.328125 0.684375)"/>
      <use xlink:href="#DejaVuSans-2020" transform="translate(1002.257318 38.965625) scale(0.7)"/>
      <use xlink:href="#DejaVuSans-Oblique-61" transform="translate(1039.991693 0.684375)"/>
      <use xlink:href="#DejaVuSans-27e9" transform="translate(1101.27099 0.684375)"/>
     </g>
    </g>
   </g>
   <g id="LineCollection_1">
    <path d="M 61.23 78.98499 
L 61.23 68.86406 
" clip-path="url(#pb89c4e1555)" style="fill: none; stroke: #2ca02c; stroke-width: 1.5"/>
    <path d="M 68.085556 75.650605 
L 68.085556 73.634288 
" clip-path="url(#pb89c4e1555)" style="fill: none; stroke: #2ca02c; stroke-width: 1.5"/>
    <path d="M 74.941111 75.675487 
L 74.941111 73.800374 
" clip-path="url(#pb89c4e1555)" style="fill: none; stroke: #2ca02c; stroke-width: 1.5"/>
    <path d="M 81.796667 83.800355 
L 81.796667 63.755681 
" clip-path="url(#pb89c4e1555)" style="fill: none; stroke: #2ca02c; stroke-width: 1.5"/>
    <path d="M 88.652222 77.128772 
L 88.652222 71.799077 
" clip-path="url(#pb89c4e1555)" style="fill: none; stroke: #2ca02c; stroke-width: 1.5"/>
    <path d="M 95.507778 76.896449 
L 95.507778 71.751189 
" clip-path="url(#pb89c4e1555)" style="fill: none; stroke: #2ca02c; stroke-width: 1.5"/>
    <path d="M 102.363333 76.680349 
L 102.363333 71.654052 
" clip-path="url(#pb89c4e1555)" style="fill: none; stroke: #2ca02c; stroke-width: 1.5"/>
    <path d="M 109.218889 76.724201 
L 109.218889 71.654296 
" clip-path="url(#pb89c4e1555)" style="fill: none; stroke: #2ca02c; stroke-width: 1.5"/>
    <path d="M 116.074444 76.546732 
L 116.074444 72.248265 
" clip-path="url(#pb89c4e1555)" style="fill: none; stroke: #2ca02c; stroke-width: 1.5"/>
    <path d="M 122.93 85.458641 
L 122.93 59.204777 
" clip-path="url(#pb89c4e1555)" style="fill: none; stroke: #2ca02c; stroke-width: 1.5"/>
    <path d="M 129.785556 77.360053 
L 129.785556 71.174016 
" clip-path="url(#pb89c4e1555)" style="fill: none; stroke: #2ca02c; stroke-width: 1.5"/>
    <path d="M 136.641111 80.293865 
L 136.641111 66.449947 
" clip-path="url(#pb89c4e1555)" style="fill: none; stroke: #2ca02c; stroke-width: 1.5"/>
    <path d="M 143.496667 76.605583 
L 143.496667 71.920467 
" clip-path="url(#pb89c4e1555)" style="fill: none; stroke: #2ca02c; stroke-width: 1.5"/>
    <path d="M 150.352222 75.544029 
L 150.352222 72.450354 
" clip-path="url(#pb89c4e1555)" style="fill: none; stroke: #2ca02c; stroke-width: 1.5"/>
    <path d="M 157.207778 77.831549 
L 157.207778 68.612077 
" clip-path="url(#pb89c4e1555)" style="fill: none; stroke: #2ca02c; stroke-width: 1.5"/>
    <path d="M 170.918889 77.37243 
L 170.918889 68.134654 
" clip-path="url(#pb89c4e1555)" style="fill: none; stroke: #2ca02c; stroke-width: 1.5"/>
    <path d="M 184.63 58.264603 
L 184.63 14.355173 
" clip-path="url(#pb89c4e1555)" style="fill: none; stroke: #2ca02c; stroke-width: 1.5"/>
   </g>
   <g id="line2d_7">
    <defs>
     <path id="m4116600a14" d="M 0 3 
C 0.795609 3 1.55874 2.683901 2.12132 2.12132 
C 2.683901 1.55874 3 0.795609 3 0 
C 3 -0.795609 2.683901 -1.55874 2.12132 -2.12132 
C 1.55874 -2.683901 0.795609 -3 0 -3 
C -0.795609 -3 -1.55874 -2.683901 -2.12132 -2.12132 
C -2.683901 -1.55874 -3 -0.795609 -3 0 
C -3 0.795609 -2.683901 1.55874 -2.12132 2.12132 
C -1.55874 2.683901 -0.795609 3 0 3 
z
" style="stroke: #2ca02c"/>
    </defs>
    <g clip-path="url(#pb89c4e1555)">
     <use xlink:href="#m4116600a14" x="61.23" y="73.924525" style="fill: #2ca02c; stroke: #2ca02c"/>
     <use xlink:href="#m4116600a14" x="68.085556" y="74.642446" style="fill: #2ca02c; stroke: #2ca02c"/>
     <use xlink:href="#m4116600a14" x="74.941111" y="74.737931" style="fill: #2ca02c; stroke: #2ca02c"/>
     <use xlink:href="#m4116600a14" x="81.796667" y="73.778018" style="fill: #2ca02c; stroke: #2ca02c"/>
     <use xlink:href="#m4116600a14" x="88.652222" y="74.463924" style="fill: #2ca02c; stroke: #2ca02c"/>
     <use xlink:href="#m4116600a14" x="95.507778" y="74.323819" style="fill: #2ca02c; stroke: #2ca02c"/>
     <use xlink:href="#m4116600a14" x="102.363333" y="74.1672" style="fill: #2ca02c; stroke: #2ca02c"/>
     <use xlink:href="#m4116600a14" x="109.218889" y="74.189248" style="fill: #2ca02c; stroke: #2ca02c"/>
     <use xlink:href="#m4116600a14" x="116.074444" y="74.397499" style="fill: #2ca02c; stroke: #2ca02c"/>
     <use xlink:href="#m4116600a14" x="122.93" y="72.331709" style="fill: #2ca02c; stroke: #2ca02c"/>
     <use xlink:href="#m4116600a14" x="129.785556" y="74.267035" style="fill: #2ca02c; stroke: #2ca02c"/>
     <use xlink:href="#m4116600a14" x="136.641111" y="73.371906" style="fill: #2ca02c; stroke: #2ca02c"/>
     <use xlink:href="#m4116600a14" x="143.496667" y="74.263025" style="fill: #2ca02c; stroke: #2ca02c"/>
     <use xlink:href="#m4116600a14" x="150.352222" y="73.997191" style="fill: #2ca02c; stroke: #2ca02c"/>
     <use xlink:href="#m4116600a14" x="157.207778" y="73.221813" style="fill: #2ca02c; stroke: #2ca02c"/>
     <use xlink:href="#m4116600a14" x="170.918889" y="72.753542" style="fill: #2ca02c; stroke: #2ca02c"/>
     <use xlink:href="#m4116600a14" x="184.63" y="36.309888" style="fill: #2ca02c; stroke: #2ca02c"/>
    </g>
   </g>
   <g id="patch_3">
    <path d="M 55.06 89.013814 
L 55.06 10.8 
" style="fill: none; stroke: #000000; stroke-width: 0.8; stroke-linejoin: miter; stroke-linecap: square"/>
   </g>
   <g id="patch_4">
    <path d="M 190.8 89.013814 
L 190.8 10.8 
" style="fill: none; stroke: #000000; stroke-width: 0.8; stroke-linejoin: miter; stroke-linecap: square"/>
   </g>
   <g id="patch_5">
    <path d="M 55.06 89.013814 
L 190.8 89.013814 
" style="fill: none; stroke: #000000; stroke-width: 0.8; stroke-linejoin: miter; stroke-linecap: square"/>
   </g>
   <g id="patch_6">
    <path d="M 55.06 10.8 
L 190.8 10.8 
" style="fill: none; stroke: #000000; stroke-width: 0.8; stroke-linejoin: miter; stroke-linecap: square"/>
   </g>
  </g>
  <g id="axes_2">
   <g id="patch_7">
    <path d="M 55.06 171.16 
L 190.8 171.16 
L 190.8 92.946186 
L 55.06 92.946186 
z
" style="fill: #ffffff"/>
   </g>
   <g id="matplotlib.axis_3">
    <g id="xtick_5">
     <g id="line2d_8">
      <g>
       <use xlink:href="#m57a404c02d" x="61.23" y="171.16" style="stroke: #000000; stroke-width: 0.8"/>
      </g>
     </g>
     <g id="text_4">
      <!-- 0.20 -->
      <g transform="translate(50.097187 185.758437) scale(0.1 -0.1)">
       <defs>
        <path id="DejaVuSans-2e" d="M 684 794 
L 1344 794 
L 1344 0 
L 684 0 
L 684 794 
z
" transform="scale(0.015625)"/>
        <path id="DejaVuSans-32" d="M 1228 531 
L 3431 531 
L 3431 0 
L 469 0 
L 469 531 
Q 828 903 1448 1529 
Q 2069 2156 2228 2338 
Q 2531 2678 2651 2914 
Q 2772 3150 2772 3378 
Q 2772 3750 2511 3984 
Q 2250 4219 1831 4219 
Q 1534 4219 1204 4116 
Q 875 4013 500 3803 
L 500 4441 
Q 881 4594 1212 4672 
Q 1544 4750 1819 4750 
Q 2544 4750 2975 4387 
Q 3406 4025 3406 3419 
Q 3406 3131 3298 2873 
Q 3191 2616 2906 2266 
Q 2828 2175 2409 1742 
Q 1991 1309 1228 531 
z
" transform="scale(0.015625)"/>
       </defs>
       <use xlink:href="#DejaVuSans-30"/>
       <use xlink:href="#DejaVuSans-2e" x="63.623047"/>
       <use xlink:href="#DejaVuSans-32" x="95.410156"/>
       <use xlink:href="#DejaVuSans-30" x="159.033203"/>
      </g>
     </g>
    </g>
    <g id="xtick_6">
     <g id="line2d_9">
      <g>
       <use xlink:href="#m57a404c02d" x="95.507778" y="171.16" style="stroke: #000000; stroke-width: 0.8"/>
      </g>
     </g>
     <g id="text_5">
      <!-- 0.25 -->
      <g transform="translate(84.374965 185.758437) scale(0.1 -0.1)">
       <defs>
        <path id="DejaVuSans-35" d="M 691 4666 
L 3169 4666 
L 3169 4134 
L 1269 4134 
L 1269 2991 
Q 1406 3038 1543 3061 
Q 1681 3084 1819 3084 
Q 2600 3084 3056 2656 
Q 3513 2228 3513 1497 
Q 3513 744 3044 326 
Q 2575 -91 1722 -91 
Q 1428 -91 1123 -41 
Q 819 9 494 109 
L 494 744 
Q 775 591 1075 516 
Q 1375 441 1709 441 
Q 2250 441 2565 725 
Q 2881 1009 2881 1497 
Q 2881 1984 2565 2268 
Q 2250 2553 1709 2553 
Q 1456 2553 1204 2497 
Q 953 2441 691 2322 
L 691 4666 
z
" transform="scale(0.015625)"/>
       </defs>
       <use xlink:href="#DejaVuSans-30"/>
       <use xlink:href="#DejaVuSans-2e" x="63.623047"/>
       <use xlink:href="#DejaVuSans-32" x="95.410156"/>
       <use xlink:href="#DejaVuSans-35" x="159.033203"/>
      </g>
     </g>
    </g>
    <g id="xtick_7">
     <g id="line2d_10">
      <g>
       <use xlink:href="#m57a404c02d" x="129.785556" y="171.16" style="stroke: #000000; stroke-width: 0.8"/>
      </g>
     </g>
     <g id="text_6">
      <!-- 0.30 -->
      <g transform="translate(118.652743 185.758437) scale(0.1 -0.1)">
       <defs>
        <path id="DejaVuSans-33" d="M 2597 2516 
Q 3050 2419 3304 2112 
Q 3559 1806 3559 1356 
Q 3559 666 3084 287 
Q 2609 -91 1734 -91 
Q 1441 -91 1130 -33 
Q 819 25 488 141 
L 488 750 
Q 750 597 1062 519 
Q 1375 441 1716 441 
Q 2309 441 2620 675 
Q 2931 909 2931 1356 
Q 2931 1769 2642 2001 
Q 2353 2234 1838 2234 
L 1294 2234 
L 1294 2753 
L 1863 2753 
Q 2328 2753 2575 2939 
Q 2822 3125 2822 3475 
Q 2822 3834 2567 4026 
Q 2313 4219 1838 4219 
Q 1578 4219 1281 4162 
Q 984 4106 628 3988 
L 628 4550 
Q 988 4650 1302 4700 
Q 1616 4750 1894 4750 
Q 2613 4750 3031 4423 
Q 3450 4097 3450 3541 
Q 3450 3153 3228 2886 
Q 3006 2619 2597 2516 
z
" transform="scale(0.015625)"/>
       </defs>
       <use xlink:href="#DejaVuSans-30"/>
       <use xlink:href="#DejaVuSans-2e" x="63.623047"/>
       <use xlink:href="#DejaVuSans-33" x="95.410156"/>
       <use xlink:href="#DejaVuSans-30" x="159.033203"/>
      </g>
     </g>
    </g>
    <g id="xtick_8">
     <g id="line2d_11">
      <g>
       <use xlink:href="#m57a404c02d" x="164.063333" y="171.16" style="stroke: #000000; stroke-width: 0.8"/>
      </g>
     </g>
     <g id="text_7">
      <!-- 0.35 -->
      <g transform="translate(152.930521 185.758437) scale(0.1 -0.1)">
       <use xlink:href="#DejaVuSans-30"/>
       <use xlink:href="#DejaVuSans-2e" x="63.623047"/>
       <use xlink:href="#DejaVuSans-33" x="95.410156"/>
       <use xlink:href="#DejaVuSans-35" x="159.033203"/>
      </g>
     </g>
    </g>
    <g id="text_8">
     <!-- pump strength $\Omega$ (units of $\kappa$) -->
     <g transform="translate(51.63 199.438125) scale(0.1 -0.1)">
      <defs>
       <path id="DejaVuSans-6d" d="M 3328 2828 
Q 3544 3216 3844 3400 
Q 4144 3584 4550 3584 
Q 5097 3584 5394 3201 
Q 5691 2819 5691 2113 
L 5691 0 
L 5113 0 
L 5113 2094 
Q 5113 2597 4934 2840 
Q 4756 3084 4391 3084 
Q 3944 3084 3684 2787 
Q 3425 2491 3425 1978 
L 3425 0 
L 2847 0 
L 2847 2094 
Q 2847 2600 2669 2842 
Q 2491 3084 2119 3084 
Q 1678 3084 1418 2786 
Q 1159 2488 1159 1978 
L 1159 0 
L 581 0 
L 581 3500 
L 1159 3500 
L 1159 2956 
Q 1356 3278 1631 3431 
Q 1906 3584 2284 3584 
Q 2666 3584 2933 3390 
Q 3200 3197 3328 2828 
z
" transform="scale(0.015625)"/>
       <path id="DejaVuSans-73" d="M 2834 3397 
L 2834 2853 
Q 2591 2978 2328 3040 
Q 2066 3103 1784 3103 
Q 1356 3103 1142 2972 
Q 928 2841 928 2578 
Q 928 2378 1081 2264 
Q 1234 2150 1697 2047 
L 1894 2003 
Q 2506 1872 2764 1633 
Q 3022 1394 3022 966 
Q 3022 478 2636 193 
Q 2250 -91 1575 -91 
Q 1294 -91 989 -36 
Q 684 19 347 128 
L 347 722 
Q 666 556 975 473 
Q 1284 391 1588 391 
Q 1994 391 2212 530 
Q 2431 669 2431 922 
Q 2431 1156 2273 1281 
Q 2116 1406 1581 1522 
L 1381 1569 
Q 847 1681 609 1914 
Q 372 2147 372 2553 
Q 372 3047 722 3315 
Q 1072 3584 1716 3584 
Q 2034 3584 2315 3537 
Q 2597 3491 2834 3397 
z
" transform="scale(0.015625)"/>
       <path id="DejaVuSans-72" d="M 2631 2963 
Q 2534 3019 2420 3045 
Q 2306 3072 2169 3072 
Q 1681 3072 1420 2755 
Q 1159 2438 1159 1844 
L 1159 0 
L 581 0 
L 581 3500 
L 1159 3500 
L 1159 2956 
Q 1341 3275 1631 3429 
Q 1922 3584 2338 3584 
Q 2397 3584 2469 3576 
Q 2541 3569 2628 3553 
L 2631 2963 
z
" transform="scale(0.015625)"/>
       <path id="DejaVuSans-65" d="M 3597 1894 
L 3597 1613 
L 953 1613 
Q 991 1019 1311 708 
Q 1631 397 2203 397 
Q 2534 397 2845 478 
Q 3156 559 3463 722 
L 3463 178 
Q 3153 47 2828 -22 
Q 2503 -91 2169 -91 
Q 1331 -91 842 396 
Q 353 884 353 1716 
Q 353 2575 817 3079 
Q 1281 3584 2069 3584 
Q 2775 3584 3186 3129 
Q 3597 2675 3597 1894 
z
M 3022 2063 
Q 3016 2534 2758 2815 
Q 2500 3097 2075 3097 
Q 1594 3097 1305 2825 
Q 1016 2553 972 2059 
L 3022 2063 
z
" transform="scale(0.015625)"/>
       <path id="DejaVuSans-67" d="M 2906 1791 
Q 2906 2416 2648 2759 
Q 2391 3103 1925 3103 
Q 1463 3103 1205 2759 
Q 947 2416 947 1791 
Q 947 1169 1205 825 
Q 1463 481 1925 481 
Q 2391 481 2648 825 
Q 2906 1169 2906 1791 
z
M 3481 434 
Q 3481 -459 3084 -895 
Q 2688 -1331 1869 -1331 
Q 1566 -1331 1297 -1286 
Q 1028 -1241 775 -1147 
L 775 -588 
Q 1028 -725 1275 -790 
Q 1522 -856 1778 -856 
Q 2344 -856 2625 -561 
Q 2906 -266 2906 331 
L 2906 616 
Q 2728 306 2450 153 
Q 2172 0 1784 0 
Q 1141 0 747 490 
Q 353 981 353 1791 
Q 353 2603 747 3093 
Q 1141 3584 1784 3584 
Q 2172 3584 2450 3431 
Q 2728 3278 2906 2969 
L 2906 3500 
L 3481 3500 
L 3481 434 
z
" transform="scale(0.015625)"/>
       <path id="DejaVuSans-68" d="M 3513 2113 
L 3513 0 
L 2938 0 
L 2938 2094 
Q 2938 2591 2744 2837 
Q 2550 3084 2163 3084 
Q 1697 3084 1428 2787 
Q 1159 2491 1159 1978 
L 1159 0 
L 581 0 
L 581 4863 
L 1159 4863 
L 1159 2956 
Q 1366 3272 1645 3428 
Q 1925 3584 2291 3584 
Q 2894 3584 3203 3211 
Q 3513 2838 3513 2113 
z
" transform="scale(0.015625)"/>
       <path id="DejaVuSans-3a9" d="M 4647 556 
L 4647 0 
L 2772 0 
L 2772 556 
Q 3325 859 3634 1378 
Q 3944 1897 3944 2528 
Q 3944 3278 3531 3731 
Q 3119 4184 2444 4184 
Q 1769 4184 1355 3729 
Q 941 3275 941 2528 
Q 941 1897 1250 1378 
Q 1563 859 2119 556 
L 2119 0 
L 244 0 
L 244 556 
L 1241 556 
Q 747 991 519 1456 
Q 294 1922 294 2497 
Q 294 3491 894 4106 
Q 1491 4722 2444 4722 
Q 3391 4722 3994 4106 
Q 4594 3494 4594 2528 
Q 4594 1922 4372 1459 
Q 4150 997 3647 556 
L 4647 556 
z
" transform="scale(0.015625)"/>
       <path id="DejaVuSans-28" d="M 1984 4856 
Q 1566 4138 1362 3434 
Q 1159 2731 1159 2009 
Q 1159 1288 1364 580 
Q 1569 -128 1984 -844 
L 1484 -844 
Q 1016 -109 783 600 
Q 550 1309 550 2009 
Q 550 2706 781 3412 
Q 1013 4119 1484 4856 
L 1984 4856 
z
" transform="scale(0.015625)"/>
       <path id="DejaVuSans-66" d="M 2375 4863 
L 2375 4384 
L 1825 4384 
Q 1516 4384 1395 4259 
Q 1275 4134 1275 3809 
L 1275 3500 
L 2222 3500 
L 2222 3053 
L 1275 3053 
L 1275 0 
L 697 0 
L 697 3053 
L 147 3053 
L 147 3500 
L 697 3500 
L 697 3744 
Q 697 4328 969 4595 
Q 1241 4863 1831 4863 
L 2375 4863 
z
" transform="scale(0.015625)"/>
       <path id="DejaVuSans-Oblique-3ba" d="M 938 3500 
L 1531 3500 
L 1247 2047 
L 3041 3500 
L 3741 3500 
L 2106 2181 
L 3275 0 
L 2572 0 
L 1628 1806 
L 1122 1403 
L 850 0 
L 256 0 
L 938 3500 
z
" transform="scale(0.015625)"/>
       <path id="DejaVuSans-29" d="M 513 4856 
L 1013 4856 
Q 1481 4119 1714 3412 
Q 1947 2706 1947 2009 
Q 1947 1309 1714 600 
Q 1481 -109 1013 -844 
L 513 -844 
Q 928 -128 1133 580 
Q 1338 1288 1338 2009 
Q 1338 2731 1133 3434 
Q 928 4138 513 4856 
z
" transform="scale(0.015625)"/>
      </defs>
      <use xlink:href="#DejaVuSans-70" transform="translate(0 0.015625)"/>
      <use xlink:href="#DejaVuSans-75" transform="translate(63.476562 0.015625)"/>
      <use xlink:href="#DejaVuSans-6d" transform="translate(126.855469 0.015625)"/>
      <use xlink:href="#DejaVuSans-70" transform="translate(224.267578 0.015625)"/>
      <use xlink:href="#DejaVuSans-20" transform="translate(287.744141 0.015625)"/>
      <use xlink:href="#DejaVuSans-73" transform="translate(319.53125 0.015625)"/>
      <use xlink:href="#DejaVuSans-74" transform="translate(371.630859 0.015625)"/>
      <use xlink:href="#DejaVuSans-72" transform="translate(410.839844 0.015625)"/>
      <use xlink:href="#DejaVuSans-65" transform="translate(451.953125 0.015625)"/>
      <use xlink:href="#DejaVuSans-6e" transform="translate(513.476562 0.015625)"/>
      <use xlink:href="#DejaVuSans-67" transform="translate(576.855469 0.015625)"/>
      <use xlink:href="#DejaVuSans-74" transform="translate(640.332031 0.015625)"/>
      <use xlink:href="#DejaVuSans-68" transform="translate(679.541016 0.015625)"/>
      <use xlink:href="#DejaVuSans-20" transform="translate(742.919922 0.015625)"/>
      <use xlink:href="#DejaVuSans-3a9" transform="translate(774.707031 0.015625)"/>
      <use xlink:href="#DejaVuSans-20" transform="translate(851.123047 0.015625)"/>
      <use xlink:href="#DejaVuSans-28" transform="translate(882.910156 0.015625)"/>
      <use xlink:href="#DejaVuSans-75" transform="translate(921.923828 0.015625)"/>
      <use xlink:href="#DejaVuSans-6e" transform="translate(985.302734 0.015625)"/>
      <use xlink:href="#DejaVuSans-69" transform="translate(1048.681641 0.015625)"/>
      <use xlink:href="#DejaVuSans-74" transform="translate(1076.464844 0.015625)"/>
      <use xlink:href="#DejaVuSans-73" transform="translate(1115.673828 0.015625)"/>
      <use xlink:href="#DejaVuSans-20" transform="translate(1167.773438 0.015625)"/>
      <use xlink:href="#DejaVuSans-6f" transform="translate(1199.560547 0.015625)"/>
      <use xlink:href="#DejaVuSans-66" transform="translate(1260.742188 0.015625)"/>
      <use xlink:href="#DejaVuSans-20" transform="translate(1295.947266 0.015625)"/>
      <use xlink:href="#DejaVuSans-Oblique-3ba" transform="translate(1327.734375 0.015625)"/>
      <use xlink:href="#DejaVuSans-29" transform="translate(1386.669922 0.015625)"/>
     </g>
    </g>
   </g>
   <g id="matplotlib.axis_4">
    <g id="ytick_3">
     <g id="line2d_12">
      <g>
       <use xlink:href="#mb8f3d29a9a" x="55.06" y="165.472661" style="stroke: #000000; stroke-width: 0.8"/>
      </g>
     </g>
     <g id="text_9">
      <!-- −0.5 -->
      <g transform="translate(23.777188 169.27188) scale(0.1 -0.1)">
       <defs>
        <path id="DejaVuSans-2212" d="M 678 2272 
L 4684 2272 
L 4684 1741 
L 678 1741 
L 678 2272 
z
" transform="scale(0.015625)"/>
       </defs>
       <use xlink:href="#DejaVuSans-2212"/>
       <use xlink:href="#DejaVuSans-30" x="83.789062"/>
       <use xlink:href="#DejaVuSans-2e" x="147.412109"/>
       <use xlink:href="#DejaVuSans-35" x="179.199219"/>
      </g>
     </g>
    </g>
    <g id="ytick_4">
     <g id="line2d_13">
      <g>
       <use xlink:href="#mb8f3d29a9a" x="55.06" y="131.03422" style="stroke: #000000; stroke-width: 0.8"/>
      </g>
     </g>
     <g id="text_10">
      <!-- 0.0 -->
      <g transform="translate(32.156875 134.833439) scale(0.1 -0.1)">
       <use xlink:href="#DejaVuSans-30"/>
       <use xlink:href="#DejaVuSans-2e" x="63.623047"/>
       <use xlink:href="#DejaVuSans-30" x="95.410156"/>
      </g>
     </g>
    </g>
    <g id="ytick_5">
     <g id="line2d_14">
      <g>
       <use xlink:href="#mb8f3d29a9a" x="55.06" y="96.595779" style="stroke: #000000; stroke-width: 0.8"/>
      </g>
     </g>
     <g id="text_11">
      <!-- 0.5 -->
      <g transform="translate(32.156875 100.394998) scale(0.1 -0.1)">
       <use xlink:href="#DejaVuSans-30"/>
       <use xlink:href="#DejaVuSans-2e" x="63.623047"/>
       <use xlink:href="#DejaVuSans-35" x="95.410156"/>
      </g>
     </g>
    </g>
    <g id="text_12">
     <!-- order parameter $\Phi$ -->
     <g transform="translate(21.677187 179.003093) rotate(-90) scale(0.1 -0.1)">
      <defs>
       <path id="DejaVuSans-64" d="M 2906 2969 
L 2906 4863 
L 3481 4863 
L 3481 0 
L 2906 0 
L 2906 525 
Q 2725 213 2448 61 
Q 2172 -91 1784 -91 
Q 1150 -91 751 415 
Q 353 922 353 1747 
Q 353 2572 751 3078 
Q 1150 3584 1784 3584 
Q 2172 3584 2448 3432 
Q 2725 3281 2906 2969 
z
M 947 1747 
Q 947 1113 1208 752 
Q 1469 391 1925 391 
Q 2381 391 2643 752 
Q 2906 1113 2906 1747 
Q 2906 2381 2643 2742 
Q 2381 3103 1925 3103 
Q 1469 3103 1208 2742 
Q 947 2381 947 1747 
z
" transform="scale(0.015625)"/>
       <path id="DejaVuSans-3a6" d="M 2206 3644 
Q 1738 3578 1431 3306 
Q 1025 2947 1025 2328 
Q 1025 1713 1431 1353 
Q 1738 1081 2206 1016 
L 2206 3644 
z
M 2838 1016 
Q 3306 1081 3613 1353 
Q 4013 1713 4013 2328 
Q 4013 2947 3613 3306 
Q 3306 3578 2838 3644 
L 2838 1016 
z
M 2206 494 
Q 1444 563 950 981 
Q 359 1481 359 2328 
Q 359 3175 950 3678 
Q 1441 4100 2206 4169 
L 2206 4666 
L 2838 4666 
L 2838 4169 
Q 3600 4097 4091 3678 
Q 4678 3175 4678 2328 
Q 4678 1484 4091 981 
Q 3600 563 2838 491 
L 2838 0 
L 2206 0 
L 2206 494 
z
" transform="scale(0.015625)"/>
      </defs>
      <use xlink:href="#DejaVuSans-6f" transform="translate(0 0.015625)"/>
      <use xlink:href="#DejaVuSans-72" transform="translate(61.181641 0.015625)"/>
      <use xlink:href="#DejaVuSans-64" transform="translate(102.294922 0.015625)"/>
      <use xlink:href="#DejaVuSans-65" transform="translate(165.771484 0.015625)"/>
      <use xlink:href="#DejaVuSans-72" transform="translate(227.294922 0.015625)"/>
      <use xlink:href="#DejaVuSans-20" transform="translate(268.408203 0.015625)"/>
      <use xlink:href="#DejaVuSans-70" transform="translate(300.195312 0.015625)"/>
      <use xlink:href="#DejaVuSans-61" transform="translate(363.671875 0.015625)"/>
      <use xlink:href="#DejaVuSans-72" transform="translate(424.951172 0.015625)"/>
      <use xlink:href="#DejaVuSans-61" transform="translate(466.064453 0.015625)"/>
      <use xlink:href="#DejaVuSans-6d" transform="translate(527.34375 0.015625)"/>
      <use xlink:href="#DejaVuSans-65" transform="translate(624.755859 0.015625)"/>
      <use xlink:href="#DejaVuSans-74" transform="translate(686.279297 0.015625)"/>
      <use xlink:href="#DejaVuSans-65" transform="translate(725.488281 0.015625)"/>
      <use xlink:href="#DejaVuSans-72" transform="translate(787.011719 0.015625)"/>
      <use xlink:href="#DejaVuSans-20" transform="translate(828.125 0.015625)"/>
      <use xlink:href="#DejaVuSans-3a6" transform="translate(859.912109 0.015625)"/>
     </g>
    </g>
   </g>
   <g id="LineCollection_2">
    <path d="M 61.23 130.453292 
L 61.23 126.536445 
" clip-path="url(#p8354cd571f)" style="fill: none; stroke: #1f77b4; stroke-width: 1.5"/>
    <path d="M 68.085556 130.041042 
L 68.085556 125.338535 
" clip-path="url(#p8354cd571f)" style="fill: none; stroke: #1f77b4; stroke-width: 1.5"/>
    <path d="M 74.941111 130.417139 
L 74.941111 126.288425 
" clip-path="url(#p8354cd571f)" style="fill: none; stroke: #1f77b4; stroke-width: 1.5"/>
    <path d="M 81.796667 130.314677 
L 81.796667 126.120493 
" clip-path="url(#p8354cd571f)" style="fill: none; stroke: #1f77b4; stroke-width: 1.5"/>
    <path d="M 88.652222 130.116223 
L 88.652222 126.156608 
" clip-path="url(#p8354cd571f)" style="fill: none; stroke: #1f77b4; stroke-width: 1.5"/>
    <path d="M 95.507778 130.512672 
L 95.507778 126.383299 
" clip-path="url(#p8354cd571f)" style="fill: none; stroke: #1f77b4; stroke-width: 1.5"/>
    <path d="M 102.363333 130.145392 
L 102.363333 125.74835 
" clip-path="url(#p8354cd571f)" style="fill: none; stroke: #1f77b4; stroke-width: 1.5"/>
    <path d="M 109.218889 130.335279 
L 109.218889 125.923078 
" clip-path="url(#p8354cd571f)" style="fill: none; stroke: #1f77b4; stroke-width: 1.5"/>
    <path d="M 116.074444 130.189733 
L 116.074444 126.133716 
" clip-path="url(#p8354cd571f)" style="fill: none; stroke: #1f77b4; stroke-width: 1.5"/>
    <path d="M 122.93 130.37721 
L 122.93 126.144103 
" clip-path="url(#p8354cd571f)" style="fill: none; stroke: #1f77b4; stroke-width: 1.5"/>
    <path d="M 129.785556 136.710615 
L 129.785556 132.091472 
" clip-path="url(#p8354cd571f)" style="fill: none; stroke: #1f77b4; stroke-width: 1.5"/>
    <path d="M 129.785556 130.209596 
L 129.785556 126.519686 
" clip-path="url(#p8354cd571f)" style="fill: none; stroke: #1f77b4; stroke-width: 1.5"/>
    <path d="M 136.641111 135.40939 
L 136.641111 132.381634 
" clip-path="url(#p8354cd571f)" style="fill: none; stroke: #1f77b4; stroke-width: 1.5"/>
    <path d="M 136.641111 130.553564 
L 136.641111 126.402795 
" clip-path="url(#p8354cd571f)" style="fill: none; stroke: #1f77b4; stroke-width: 1.5"/>
    <path d="M 143.496667 136.061076 
L 143.496667 131.942892 
" clip-path="url(#p8354cd571f)" style="fill: none; stroke: #1f77b4; stroke-width: 1.5"/>
    <path d="M 143.496667 130.219344 
L 143.496667 126.026691 
" clip-path="url(#p8354cd571f)" style="fill: none; stroke: #1f77b4; stroke-width: 1.5"/>
    <path d="M 150.352222 137.419319 
L 150.352222 131.658165 
" clip-path="url(#p8354cd571f)" style="fill: none; stroke: #1f77b4; stroke-width: 1.5"/>
    <path d="M 150.352222 129.334763 
L 150.352222 123.873943 
" clip-path="url(#p8354cd571f)" style="fill: none; stroke: #1f77b4; stroke-width: 1.5"/>
    <path d="M 157.207778 136.871907 
L 157.207778 132.084896 
" clip-path="url(#p8354cd571f)" style="fill: none; stroke: #1f77b4; stroke-width: 1.5"/>
    <path d="M 157.207778 130.630791 
L 157.207778 126.633251 
" clip-path="url(#p8354cd571f)" style="fill: none; stroke: #1f77b4; stroke-width: 1.5"/>
    <path d="M 170.918889 140.916861 
L 170.918889 131.471981 
" clip-path="url(#p8354cd571f)" style="fill: none; stroke: #1f77b4; stroke-width: 1.5"/>
    <path d="M 170.918889 131.794216 
L 170.918889 122.072396 
" clip-path="url(#p8354cd571f)" style="fill: none; stroke: #1f77b4; stroke-width: 1.5"/>
    <path d="M 184.63 167.604827 
L 184.63 145.276799 
" clip-path="url(#p8354cd571f)" style="fill: none; stroke: #1f77b4; stroke-width: 1.5"/>
    <path d="M 184.63 116.322211 
L 184.63 96.501359 
" clip-path="url(#p8354cd571f)" style="fill: none; stroke: #1f77b4; stroke-width: 1.5"/>
   </g>
   <g id="line2d_15">
    <defs>
     <path id="mb26320619f" d="M 0 3 
C 0.795609 3 1.55874 2.683901 2.12132 2.12132 
C 2.683901 1.55874 3 0.795609 3 0 
C 3 -0.795609 2.683901 -1.55874 2.12132 -2.12132 
C 1.55874 -2.683901 0.795609 -3 0 -3 
C -0.795609 -3 -1.55874 -2.683901 -2.12132 -2.12132 
C -2.683901 -1.55874 -3 -0.795609 -3 0 
C -3 0.795609 -2.683901 1.55874 -2.12132 2.12132 
C -1.55874 2.683901 -0.795609 3 0 3 
z
" style="stroke: #1f77b4"/>
    </defs>
    <g clip-path="url(#p8354cd571f)">
     <use xlink:href="#mb26320619f" x="61.23" y="128.494868" style="fill: #1f77b4; stroke: #1f77b4"/>
     <use xlink:href="#mb26320619f" x="68.085556" y="127.689789" style="fill: #1f77b4; stroke: #1f77b4"/>
     <use xlink:href="#mb26320619f" x="74.941111" y="128.352782" style="fill: #1f77b4; stroke: #1f77b4"/>
     <use xlink:href="#mb26320619f" x="81.796667" y="128.217585" style="fill: #1f77b4; stroke: #1f77b4"/>
     <use xlink:href="#mb26320619f" x="88.652222" y="128.136416" style="fill: #1f77b4; stroke: #1f77b4"/>
     <use xlink:href="#mb26320619f" x="95.507778" y="128.447985" style="fill: #1f77b4; stroke: #1f77b4"/>
     <use xlink:href="#mb26320619f" x="102.363333" y="127.946871" style="fill: #1f77b4; stroke: #1f77b4"/>
     <use xlink:href="#mb26320619f" x="109.218889" y="128.129179" style="fill: #1f77b4; stroke: #1f77b4"/>
     <use xlink:href="#mb26320619f" x="116.074444" y="128.161724" style="fill: #1f77b4; stroke: #1f77b4"/>
     <use xlink:href="#mb26320619f" x="122.93" y="128.260657" style="fill: #1f77b4; stroke: #1f77b4"/>
     <use xlink:href="#mb26320619f" x="129.785556" y="134.401044" style="fill: #1f77b4; stroke: #1f77b4"/>
     <use xlink:href="#mb26320619f" x="129.785556" y="128.364641" style="fill: #1f77b4; stroke: #1f77b4"/>
     <use xlink:href="#mb26320619f" x="136.641111" y="133.895512" style="fill: #1f77b4; stroke: #1f77b4"/>
     <use xlink:href="#mb26320619f" x="136.641111" y="128.478179" style="fill: #1f77b4; stroke: #1f77b4"/>
     <use xlink:href="#mb26320619f" x="143.496667" y="134.001984" style="fill: #1f77b4; stroke: #1f77b4"/>
     <use xlink:href="#mb26320619f" x="143.496667" y="128.123018" style="fill: #1f77b4; stroke: #1f77b4"/>
     <use xlink:href="#mb26320619f" x="150.352222" y="134.538742" style="fill: #1f77b4; stroke: #1f77b4"/>
     <use xlink:href="#mb26320619f" x="150.352222" y="126.604353" style="fill: #1f77b4; stroke: #1f77b4"/>
     <use xlink:href="#mb26320619f" x="157.207778" y="134.478401" style="fill: #1f77b4; stroke: #1f77b4"/>
     <use xlink:href="#mb26320619f" x="157.207778" y="128.632021" style="fill: #1f77b4; stroke: #1f77b4"/>
     <use xlink:href="#mb26320619f" x="170.918889" y="136.194421" style="fill: #1f77b4; stroke: #1f77b4"/>
     <use xlink:href="#mb26320619f" x="170.918889" y="126.933306" style="fill: #1f77b4; stroke: #1f77b4"/>
     <use xlink:href="#mb26320619f" x="184.63" y="156.440813" style="fill: #1f77b4; stroke: #1f77b4"/>
     <use xlink:href="#mb26320619f" x="184.63" y="106.411785" style="fill: #1f77b4; stroke: #1f77b4"/>
    </g>
   </g>
   <g id="patch_8">
    <path d="M 55.06 171.16 
L 55.06 92.946186 
" style="fill: none; stroke: #000000; stroke-width: 0.8; stroke-linejoin: miter; stroke-linecap: square"/>
   </g>
   <g id="patch_9">
    <path d="M 190.8 171.16 
L 190.8 92.946186 
" style="fill: none; stroke: #000000; stroke-width: 0.8; stroke-linejoin: miter; stroke-linecap: square"/>
   </g>
   <g id="patch_10">
    <path d="M 55.06 171.16 
L 190.8 171.16 
" style="fill: none; stroke: #000000; stroke-width: 0.8; stroke-linejoin: miter; stroke-linecap: square"/>
   </g>
   <g id="patch_11">
    <path d="M 55.06 92.946186 
L 190.8 92.946186 
" style="fill: none; stroke: #000000; stroke-width: 0.8; stroke-linejoin: miter; stroke-linecap: square"/>
   </g>
  </g>
 </g>
 <defs>
  <clipPath id="pb89c4e1555">
   <rect x="55.06" y="10.8" width="135.74" height="78.213814"/>
  </clipPath>
  <clipPath id="p8354cd571f">
   <rect x="55.06" y="92.946186" width="135.74" height="78.213814"/>
  </clipPath>
 </defs>
</svg>
