<?xml version="1.0" encoding="utf-8" standalone="no"?>
<!DOCTYPE svg PUBLIC "-//W3C//DTD SVG 1.1//EN"
  "http://www.w3.org/Graphics/SVG/1.1/DTD/svg11.dtd">
<svg xmlns:xlink="http://www.w3.org/1999/xlink" width="334.8pt" height="403.2pt" viewBox="0 0 334.8 403.2" xmlns="http://www.w3.org/2000/svg" version="1.1">
 <metadata>
  <rdf:RDF xmlns:dc="http://purl.org/dc/elements/1.1/" xmlns:cc="http://creativecommons.org/ns#" xmlns:rdf="http://www.w3.org/1999/02/22-rdf-syntax-ns#">
   <cc:Work>
    <dc:type rdf:resource="http://purl.org/dc/dcmitype/StillImage"/>
    <dc:date>2023-11-07T12:57:35.752595</dc:date>
    <dc:format>image/svg+xml</dc:format>
    <dc:creator>
     <cc:Agent>
      <dc:title>Matplotlib v3.7.1, https://matplotlib.org/</dc:title>
     </cc:Agent>
    </dc:creator>
   </cc:Work>
  </rdf:RDF>
 </metadata>
 <defs>
  <style type="text/css">*{stroke-linejoin: round; stroke-linecap: butt}</style>
 </defs>
 <g id="figure_1">
  <g id="patch_1">
   <path d="M 0 403.2 
L 334.8 403.2 
L 334.8 0 
L 0 0 
z
" style="fill: #ffffff"/>
  </g>
  <g id="axes_1">
   <g id="patch_2">
    <path d="M 59.61 92.492291 
L 159.95607 92.492291 
L 159.95607 12.502802 
L 59.61 12.502802 
z
" style="fill: #ffffff"/>
   </g>
   <g id="PolyCollection_1">
    <defs>
     <path id="mcf2f365d21" d="M 64.171185 -353.565181 
L 64.171185 -352.138153 
L 73.293555 -321.248511 
L 82.415925 -327.194715 
L 91.538295 -327.130933 
L 100.660665 -346.872109 
L 109.783035 -337.964303 
L 118.905405 -334.354262 
L 128.027775 -342.533552 
L 137.150145 -314.343594 
L 146.272515 -336.07445 
L 155.394885 -331.395529 
L 155.394885 -345.627416 
L 155.394885 -345.627416 
L 146.272515 -360.609294 
L 137.150145 -383.115239 
L 128.027775 -383.317636 
L 118.905405 -341.866918 
L 109.783035 -368.582823 
L 100.660665 -375.538645 
L 91.538295 -356.735684 
L 82.415925 -381.945153 
L 73.293555 -341.588991 
L 64.171185 -353.565181 
z
" style="stroke: #1f77b4; stroke-opacity: 0.2"/>
    </defs>
    <g clip-path="url(#p0d64c945a6)">
     <use xlink:href="#mcf2f365d21" x="0" y="403.2" style="fill: #1f77b4; fill-opacity: 0.2; stroke: #1f77b4; stroke-opacity: 0.2"/>
    </g>
   </g>
   <g id="PolyCollection_2">
    <defs>
     <path id="m1be20b166a" d="M 64.171185 -356.327742 
L 64.171185 -353.568503 
L 73.293555 -339.02476 
L 82.415925 -354.0657 
L 91.538295 -342.942233 
L 100.660665 -352.144685 
L 109.783035 -350.879849 
L 118.905405 -317.928595 
L 128.027775 -351.491222 
L 137.150145 -340.810675 
L 146.272515 -356.245546 
L 155.394885 -364.000031 
L 155.394885 -387.061312 
L 155.394885 -387.061312 
L 146.272515 -369.473998 
L 137.150145 -363.109079 
L 128.027775 -362.907001 
L 118.905405 -354.573704 
L 109.783035 -373.867166 
L 100.660665 -359.701239 
L 91.538295 -367.112799 
L 82.415925 -369.472185 
L 73.293555 -342.117602 
L 64.171185 -356.327742 
z
" style="stroke: #ff7f0e; stroke-opacity: 0.2"/>
    </defs>
    <g clip-path="url(#p0d64c945a6)">
     <use xlink:href="#m1be20b166a" x="0" y="403.2" style="fill: #ff7f0e; fill-opacity: 0.2; stroke: #ff7f0e; stroke-opacity: 0.2"/>
    </g>
   </g>
   <g id="matplotlib.axis_1">
    <g id="xtick_1">
     <g id="line2d_1">
      <defs>
       <path id="md837e58fd4" d="M 0 0 
L 0 3.5 
" style="stroke: #000000; stroke-width: 0.8"/>
      </defs>
      <g>
       <use xlink:href="#md837e58fd4" x="63.258948" y="92.492291" style="stroke: #000000; stroke-width: 0.8"/>
      </g>
     </g>
    </g>
    <g id="xtick_2">
     <g id="line2d_2">
      <g>
       <use xlink:href="#md837e58fd4" x="108.870798" y="92.492291" style="stroke: #000000; stroke-width: 0.8"/>
      </g>
     </g>
    </g>
    <g id="xtick_3">
     <g id="line2d_3">
      <g>
       <use xlink:href="#md837e58fd4" x="154.482648" y="92.492291" style="stroke: #000000; stroke-width: 0.8"/>
      </g>
     </g>
    </g>
   </g>
   <g id="matplotlib.axis_2">
    <g id="ytick_1">
     <g id="line2d_4">
      <defs>
       <path id="mdd655c1e2a" d="M 0 0 
L -3.5 0 
" style="stroke: #000000; stroke-width: 0.8"/>
      </defs>
      <g>
       <use xlink:href="#mdd655c1e2a" x="59.61" y="86.335667" style="stroke: #000000; stroke-width: 0.8"/>
      </g>
     </g>
     <g id="text_1">
      <!-- −0.1 -->
      <g transform="translate(28.327187 90.134885) scale(0.1 -0.1)">
       <defs>
        <path id="DejaVuSans-2212" d="M 678 2272 
L 4684 2272 
L 4684 1741 
L 678 1741 
L 678 2272 
z
" transform="scale(0.015625)"/>
        <path id="DejaVuSans-30" d="M 2034 4250 
Q 1547 4250 1301 3770 
Q 1056 3291 1056 2328 
Q 1056 1369 1301 889 
Q 1547 409 2034 409 
Q 2525 409 2770 889 
Q 3016 1369 3016 2328 
Q 3016 3291 2770 3770 
Q 2525 4250 2034 4250 
z
M 2034 4750 
Q 2819 4750 3233 4129 
Q 3647 3509 3647 2328 
Q 3647 1150 3233 529 
Q 2819 -91 2034 -91 
Q 1250 -91 836 529 
Q 422 1150 422 2328 
Q 422 3509 836 4129 
Q 1250 4750 2034 4750 
z
" transform="scale(0.015625)"/>
        <path id="DejaVuSans-2e" d="M 684 794 
L 1344 794 
L 1344 0 
L 684 0 
L 684 794 
z
" transform="scale(0.015625)"/>
        <path id="DejaVuSans-31" d="M 794 531 
L 1825 531 
L 1825 4091 
L 703 3866 
L 703 4441 
L 1819 4666 
L 2450 4666 
L 2450 531 
L 3481 531 
L 3481 0 
L 794 0 
L 794 531 
z
" transform="scale(0.015625)"/>
       </defs>
       <use xlink:href="#DejaVuSans-2212"/>
       <use xlink:href="#DejaVuSans-30" x="83.789062"/>
       <use xlink:href="#DejaVuSans-2e" x="147.412109"/>
       <use xlink:href="#DejaVuSans-31" x="179.199219"/>
      </g>
     </g>
    </g>
    <g id="ytick_2">
     <g id="line2d_5">
      <g>
       <use xlink:href="#mdd655c1e2a" x="59.61" y="50.756812" style="stroke: #000000; stroke-width: 0.8"/>
      </g>
     </g>
     <g id="text_2">
      <!-- 0.0 -->
      <g transform="translate(36.706875 54.556031) scale(0.1 -0.1)">
       <use xlink:href="#DejaVuSans-30"/>
       <use xlink:href="#DejaVuSans-2e" x="63.623047"/>
       <use xlink:href="#DejaVuSans-30" x="95.410156"/>
      </g>
     </g>
    </g>
    <g id="ytick_3">
     <g id="line2d_6">
      <g>
       <use xlink:href="#mdd655c1e2a" x="59.61" y="15.177958" style="stroke: #000000; stroke-width: 0.8"/>
      </g>
     </g>
     <g id="text_3">
      <!-- 0.1 -->
      <g transform="translate(36.706875 18.977177) scale(0.1 -0.1)">
       <use xlink:href="#DejaVuSans-30"/>
       <use xlink:href="#DejaVuSans-2e" x="63.623047"/>
       <use xlink:href="#DejaVuSans-31" x="95.410156"/>
      </g>
     </g>
    </g>
    <g id="text_4">
     <!-- $X$ -->
     <g transform="translate(24.7475 55.947547) rotate(-90) scale(0.1 -0.1)">
      <defs>
       <path id="DejaVuSans-Oblique-58" d="M 878 4666 
L 1516 4666 
L 2316 2981 
L 3763 4666 
L 4500 4666 
L 2578 2438 
L 3738 0 
L 3103 0 
L 2163 1966 
L 459 0 
L -275 0 
L 1906 2509 
L 878 4666 
z
" transform="scale(0.015625)"/>
      </defs>
      <use xlink:href="#DejaVuSans-Oblique-58" transform="translate(0 0.09375)"/>
     </g>
    </g>
   </g>
   <g id="line2d_7">
    <path d="M 64.171185 50.406954 
L 73.293555 73.694377 
L 82.415925 53.358175 
L 91.538295 61.738387 
L 100.660665 42.555825 
L 109.783035 46.543089 
L 118.905405 65.473181 
L 128.027775 43.515574 
L 137.150145 56.846034 
L 146.272515 56.104424 
L 155.394885 63.784836 
" clip-path="url(#p0d64c945a6)" style="fill: none; stroke: #1f77b4; stroke-width: 1.5; stroke-linecap: square"/>
   </g>
   <g id="line2d_8">
    <path d="M 64.171185 48.028987 
L 73.293555 62.608339 
L 82.415925 41.380772 
L 91.538295 48.895007 
L 100.660665 48.159581 
L 109.783035 42.282096 
L 118.905405 63.006713 
L 128.027775 47.304747 
L 137.150145 52.249237 
L 146.272515 40.704417 
L 155.394885 30.583661 
" clip-path="url(#p0d64c945a6)" style="fill: none; stroke-dasharray: 1.5,2.475; stroke-dashoffset: 0; stroke: #ff7f0e; stroke-width: 1.5"/>
   </g>
   <g id="patch_3">
    <path d="M 59.61 92.492291 
L 59.61 12.502802 
" style="fill: none; stroke: #000000; stroke-width: 0.8; stroke-linejoin: miter; stroke-linecap: square"/>
   </g>
   <g id="patch_4">
    <path d="M 159.95607 92.492291 
L 159.95607 12.502802 
" style="fill: none; stroke: #000000; stroke-width: 0.8; stroke-linejoin: miter; stroke-linecap: square"/>
   </g>
   <g id="patch_5">
    <path d="M 59.61 92.492291 
L 159.95607 92.492291 
" style="fill: none; stroke: #000000; stroke-width: 0.8; stroke-linejoin: miter; stroke-linecap: square"/>
   </g>
   <g id="patch_6">
    <path d="M 59.61 12.502802 
L 159.95607 12.502802 
" style="fill: none; stroke: #000000; stroke-width: 0.8; stroke-linejoin: miter; stroke-linecap: square"/>
   </g>
   <g id="text_5">
    <!-- (a) -->
    <g transform="translate(29.506179 22.901436) scale(0.1 -0.1)">
     <defs>
      <path id="DejaVuSans-28" d="M 1984 4856 
Q 1566 4138 1362 3434 
Q 1159 2731 1159 2009 
Q 1159 1288 1364 580 
Q 1569 -128 1984 -844 
L 1484 -844 
Q 1016 -109 783 600 
Q 550 1309 550 2009 
Q 550 2706 781 3412 
Q 1013 4119 1484 4856 
L 1984 4856 
z
" transform="scale(0.015625)"/>
      <path id="DejaVuSans-61" d="M 2194 1759 
Q 1497 1759 1228 1600 
Q 959 1441 959 1056 
Q 959 750 1161 570 
Q 1363 391 1709 391 
Q 2188 391 2477 730 
Q 2766 1069 2766 1631 
L 2766 1759 
L 2194 1759 
z
M 3341 1997 
L 3341 0 
L 2766 0 
L 2766 531 
Q 2569 213 2275 61 
Q 1981 -91 1556 -91 
Q 1019 -91 701 211 
Q 384 513 384 1019 
Q 384 1609 779 1909 
Q 1175 2209 1959 2209 
L 2766 2209 
L 2766 2266 
Q 2766 2663 2505 2880 
Q 2244 3097 1772 3097 
Q 1472 3097 1187 3025 
Q 903 2953 641 2809 
L 641 3341 
Q 956 3463 1253 3523 
Q 1550 3584 1831 3584 
Q 2591 3584 2966 3190 
Q 3341 2797 3341 1997 
z
" transform="scale(0.015625)"/>
      <path id="DejaVuSans-29" d="M 513 4856 
L 1013 4856 
Q 1481 4119 1714 3412 
Q 1947 2706 1947 2009 
Q 1947 1309 1714 600 
Q 1481 -109 1013 -844 
L 513 -844 
Q 928 -128 1133 580 
Q 1338 1288 1338 2009 
Q 1338 2731 1133 3434 
Q 928 4138 513 4856 
z
" transform="scale(0.015625)"/>
     </defs>
     <use xlink:href="#DejaVuSans-28"/>
     <use xlink:href="#DejaVuSans-61" x="39.013672"/>
     <use xlink:href="#DejaVuSans-29" x="100.292969"/>
    </g>
   </g>
  </g>
  <g id="axes_2">
   <g id="patch_7">
    <path d="M 220.50207 92.492291 
L 320.84814 92.492291 
L 320.84814 12.502802 
L 220.50207 12.502802 
z
" style="fill: #ffffff"/>
   </g>
   <g id="PolyCollection_3">
    <defs>
     <path id="m54f5def453" d="M 225.063255 -351.769515 
L 225.063255 -351.632647 
L 234.185625 -341.388473 
L 243.307995 -341.770565 
L 252.430365 -331.397812 
L 261.552735 -332.844816 
L 270.675105 -333.46221 
L 279.797475 -342.761056 
L 288.919845 -320.207978 
L 298.042215 -347.958243 
L 307.164585 -337.230391 
L 316.286955 -363.580175 
L 316.286955 -384.043699 
L 316.286955 -384.043699 
L 307.164585 -372.318051 
L 298.042215 -384.907226 
L 288.919845 -365.048004 
L 279.797475 -352.237574 
L 270.675105 -358.554641 
L 261.552735 -366.744265 
L 252.430365 -356.577996 
L 243.307995 -347.591213 
L 234.185625 -382.71769 
L 225.063255 -351.769515 
z
" style="stroke: #1f77b4; stroke-opacity: 0.2"/>
    </defs>
    <g clip-path="url(#pc836dcd486)">
     <use xlink:href="#m54f5def453" x="0" y="403.2" style="fill: #1f77b4; fill-opacity: 0.2; stroke: #1f77b4; stroke-opacity: 0.2"/>
    </g>
   </g>
   <g id="PolyCollection_4">
    <defs>
     <path id="m8a57a7e370" d="M 225.063255 -353.199622 
L 225.063255 -349.964835 
L 234.185625 -351.099298 
L 243.307995 -342.233033 
L 252.430365 -355.260411 
L 261.552735 -333.354952 
L 270.675105 -332.009809 
L 279.797475 -348.480042 
L 288.919845 -346.103415 
L 298.042215 -350.531674 
L 307.164585 -343.307633 
L 316.286955 -347.284666 
L 316.286955 -348.516846 
L 316.286955 -348.516846 
L 307.164585 -375.19702 
L 298.042215 -381.616724 
L 288.919845 -372.52115 
L 279.797475 -361.079104 
L 270.675105 -359.188707 
L 261.552735 -349.176868 
L 252.430365 -365.842594 
L 243.307995 -358.176464 
L 234.185625 -360.296616 
L 225.063255 -353.199622 
z
" style="stroke: #ff7f0e; stroke-opacity: 0.2"/>
    </defs>
    <g clip-path="url(#pc836dcd486)">
     <use xlink:href="#m8a57a7e370" x="0" y="403.2" style="fill: #ff7f0e; fill-opacity: 0.2; stroke: #ff7f0e; stroke-opacity: 0.2"/>
    </g>
   </g>
   <g id="matplotlib.axis_3">
    <g id="xtick_4">
     <g id="line2d_9">
      <g>
       <use xlink:href="#md837e58fd4" x="224.151018" y="92.492291" style="stroke: #000000; stroke-width: 0.8"/>
      </g>
     </g>
    </g>
    <g id="xtick_5">
     <g id="line2d_10">
      <g>
       <use xlink:href="#md837e58fd4" x="269.762868" y="92.492291" style="stroke: #000000; stroke-width: 0.8"/>
      </g>
     </g>
    </g>
    <g id="xtick_6">
     <g id="line2d_11">
      <g>
       <use xlink:href="#md837e58fd4" x="315.374718" y="92.492291" style="stroke: #000000; stroke-width: 0.8"/>
      </g>
     </g>
    </g>
   </g>
   <g id="matplotlib.axis_4">
    <g id="ytick_4">
     <g id="line2d_12">
      <g>
       <use xlink:href="#mdd655c1e2a" x="220.50207" y="86.335667" style="stroke: #000000; stroke-width: 0.8"/>
      </g>
     </g>
     <g id="text_6">
      <!-- −0.1 -->
      <g transform="translate(189.219258 90.134885) scale(0.1 -0.1)">
       <use xlink:href="#DejaVuSans-2212"/>
       <use xlink:href="#DejaVuSans-30" x="83.789062"/>
       <use xlink:href="#DejaVuSans-2e" x="147.412109"/>
       <use xlink:href="#DejaVuSans-31" x="179.199219"/>
      </g>
     </g>
    </g>
    <g id="ytick_5">
     <g id="line2d_13">
      <g>
       <use xlink:href="#mdd655c1e2a" x="220.50207" y="50.756812" style="stroke: #000000; stroke-width: 0.8"/>
      </g>
     </g>
     <g id="text_7">
      <!-- 0.0 -->
      <g transform="translate(197.598945 54.556031) scale(0.1 -0.1)">
       <use xlink:href="#DejaVuSans-30"/>
       <use xlink:href="#DejaVuSans-2e" x="63.623047"/>
       <use xlink:href="#DejaVuSans-30" x="95.410156"/>
      </g>
     </g>
    </g>
    <g id="ytick_6">
     <g id="line2d_14">
      <g>
       <use xlink:href="#mdd655c1e2a" x="220.50207" y="15.177958" style="stroke: #000000; stroke-width: 0.8"/>
      </g>
     </g>
     <g id="text_8">
      <!-- 0.1 -->
      <g transform="translate(197.598945 18.977177) scale(0.1 -0.1)">
       <use xlink:href="#DejaVuSans-30"/>
       <use xlink:href="#DejaVuSans-2e" x="63.623047"/>
       <use xlink:href="#DejaVuSans-31" x="95.410156"/>
      </g>
     </g>
    </g>
    <g id="text_9">
     <!-- $Y$ -->
     <g transform="translate(185.63957 55.597547) rotate(-90) scale(0.1 -0.1)">
      <defs>
       <path id="DejaVuSans-Oblique-59" d="M 403 4666 
L 1081 4666 
L 1953 2747 
L 3616 4666 
L 4325 4666 
L 2209 2222 
L 1778 0 
L 1147 0 
L 1575 2222 
L 403 4666 
z
" transform="scale(0.015625)"/>
      </defs>
      <use xlink:href="#DejaVuSans-Oblique-59" transform="translate(0 0.09375)"/>
     </g>
    </g>
   </g>
   <g id="line2d_15">
    <path d="M 225.063255 51.487693 
L 234.185625 42.896838 
L 243.307995 59.236671 
L 252.430365 56.851371 
L 261.552735 54.263945 
L 270.675105 56.672201 
L 279.797475 56.269481 
L 288.919845 63.825127 
L 298.042215 36.211072 
L 307.164585 45.405841 
L 316.286955 31.605567 
" clip-path="url(#pc836dcd486)" style="fill: none; stroke: #1f77b4; stroke-width: 1.5; stroke-linecap: square"/>
   </g>
   <g id="line2d_16">
    <path d="M 225.063255 51.360235 
L 234.185625 48.535376 
L 243.307995 54.463755 
L 252.430365 41.365827 
L 261.552735 62.305041 
L 270.675105 55.976794 
L 279.797475 49.674504 
L 288.919845 41.89849 
L 298.042215 40.260951 
L 307.164585 43.464056 
L 316.286955 55.269854 
" clip-path="url(#pc836dcd486)" style="fill: none; stroke-dasharray: 1.5,2.475; stroke-dashoffset: 0; stroke: #ff7f0e; stroke-width: 1.5"/>
   </g>
   <g id="patch_8">
    <path d="M 220.50207 92.492291 
L 220.50207 12.502802 
" style="fill: none; stroke: #000000; stroke-width: 0.8; stroke-linejoin: miter; stroke-linecap: square"/>
   </g>
   <g id="patch_9">
    <path d="M 320.84814 92.492291 
L 320.84814 12.502802 
" style="fill: none; stroke: #000000; stroke-width: 0.8; stroke-linejoin: miter; stroke-linecap: square"/>
   </g>
   <g id="patch_10">
    <path d="M 220.50207 92.492291 
L 320.84814 92.492291 
" style="fill: none; stroke: #000000; stroke-width: 0.8; stroke-linejoin: miter; stroke-linecap: square"/>
   </g>
   <g id="patch_11">
    <path d="M 220.50207 12.502802 
L 320.84814 12.502802 
" style="fill: none; stroke: #000000; stroke-width: 0.8; stroke-linejoin: miter; stroke-linecap: square"/>
   </g>
   <g id="text_10">
    <!-- (b) -->
    <g transform="translate(190.398249 22.901436) scale(0.1 -0.1)">
     <defs>
      <path id="DejaVuSans-62" d="M 3116 1747 
Q 3116 2381 2855 2742 
Q 2594 3103 2138 3103 
Q 1681 3103 1420 2742 
Q 1159 2381 1159 1747 
Q 1159 1113 1420 752 
Q 1681 391 2138 391 
Q 2594 391 2855 752 
Q 3116 1113 3116 1747 
z
M 1159 2969 
Q 1341 3281 1617 3432 
Q 1894 3584 2278 3584 
Q 2916 3584 3314 3078 
Q 3713 2572 3713 1747 
Q 3713 922 3314 415 
Q 2916 -91 2278 -91 
Q 1894 -91 1617 61 
Q 1341 213 1159 525 
L 1159 0 
L 581 0 
L 581 4863 
L 1159 4863 
L 1159 2969 
z
" transform="scale(0.015625)"/>
     </defs>
     <use xlink:href="#DejaVuSans-28"/>
     <use xlink:href="#DejaVuSans-62" x="39.013672"/>
     <use xlink:href="#DejaVuSans-29" x="102.490234"/>
    </g>
   </g>
  </g>
  <g id="axes_3">
   <g id="patch_12">
    <path d="M 59.61 180.844194 
L 159.95607 180.844194 
L 159.95607 100.854705 
L 59.61 100.854705 
z
" style="fill: #ffffff"/>
   </g>
   <g id="PolyCollection_5">
    <defs>
     <path id="mbdc56f23e3" d="M 64.171185 -240.340254 
L 64.171185 -240.340254 
L 73.293555 -240.660624 
L 82.415925 -232.719845 
L 91.538295 -241.264859 
L 100.660665 -236.434766 
L 109.783035 -235.557309 
L 118.905405 -239.91766 
L 128.027775 -225.991692 
L 137.150145 -235.108999 
L 146.272515 -228.828453 
L 155.394885 -236.829612 
L 155.394885 -242.560638 
L 155.394885 -242.560638 
L 146.272515 -243.817487 
L 137.150145 -250.026618 
L 128.027775 -246.110018 
L 118.905405 -250.749753 
L 109.783035 -240.041188 
L 100.660665 -243.52521 
L 91.538295 -246.881521 
L 82.415925 -245.97663 
L 73.293555 -246.868612 
L 64.171185 -240.340254 
z
" style="stroke: #1f77b4; stroke-opacity: 0.2"/>
    </defs>
    <g clip-path="url(#pb2e37a9650)">
     <use xlink:href="#mbdc56f23e3" x="0" y="403.2" style="fill: #1f77b4; fill-opacity: 0.2; stroke: #1f77b4; stroke-opacity: 0.2"/>
    </g>
   </g>
   <g id="PolyCollection_6">
    <defs>
     <path id="m1fd1f7a660" d="M 64.171185 -240.340254 
L 64.171185 -240.340254 
L 73.293555 -234.418663 
L 82.415925 -242.489418 
L 91.538295 -238.033452 
L 100.660665 -244.334219 
L 109.783035 -235.737572 
L 118.905405 -239.108387 
L 128.027775 -237.699401 
L 137.150145 -236.498074 
L 146.272515 -233.992894 
L 155.394885 -234.357929 
L 155.394885 -243.102506 
L 155.394885 -243.102506 
L 146.272515 -241.423261 
L 137.150145 -241.152463 
L 128.027775 -241.981343 
L 118.905405 -243.946463 
L 109.783035 -239.188001 
L 100.660665 -246.368339 
L 91.538295 -242.937833 
L 82.415925 -243.618782 
L 73.293555 -250.997022 
L 64.171185 -240.340254 
z
" style="stroke: #ff7f0e; stroke-opacity: 0.2"/>
    </defs>
    <g clip-path="url(#pb2e37a9650)">
     <use xlink:href="#m1fd1f7a660" x="0" y="403.2" style="fill: #ff7f0e; fill-opacity: 0.2; stroke: #ff7f0e; stroke-opacity: 0.2"/>
    </g>
   </g>
   <g id="matplotlib.axis_5">
    <g id="xtick_7">
     <g id="line2d_17">
      <g>
       <use xlink:href="#md837e58fd4" x="63.258948" y="180.844194" style="stroke: #000000; stroke-width: 0.8"/>
      </g>
     </g>
    </g>
    <g id="xtick_8">
     <g id="line2d_18">
      <g>
       <use xlink:href="#md837e58fd4" x="108.870798" y="180.844194" style="stroke: #000000; stroke-width: 0.8"/>
      </g>
     </g>
    </g>
    <g id="xtick_9">
     <g id="line2d_19">
      <g>
       <use xlink:href="#md837e58fd4" x="154.482648" y="180.844194" style="stroke: #000000; stroke-width: 0.8"/>
      </g>
     </g>
    </g>
   </g>
   <g id="matplotlib.axis_6">
    <g id="ytick_7">
     <g id="line2d_20">
      <g>
       <use xlink:href="#mdd655c1e2a" x="59.61" y="162.859746" style="stroke: #000000; stroke-width: 0.8"/>
      </g>
     </g>
     <g id="text_11">
      <!-- 0 -->
      <g transform="translate(46.2475 166.658964) scale(0.1 -0.1)">
       <use xlink:href="#DejaVuSans-30"/>
      </g>
     </g>
    </g>
    <g id="ytick_8">
     <g id="line2d_21">
      <g>
       <use xlink:href="#mdd655c1e2a" x="59.61" y="129.586015" style="stroke: #000000; stroke-width: 0.8"/>
      </g>
     </g>
     <g id="text_12">
      <!-- 10 -->
      <g transform="translate(39.885 133.385233) scale(0.1 -0.1)">
       <use xlink:href="#DejaVuSans-31"/>
       <use xlink:href="#DejaVuSans-30" x="63.623047"/>
      </g>
     </g>
    </g>
    <g id="text_13">
     <!-- $\langle \hat{a}_{\mathrm{r}} \rangle$ -->
     <g transform="translate(36.305312 149.44945) rotate(-90) scale(0.1 -0.1)">
      <defs>
       <path id="DejaVuSans-27e8" d="M 572 2006 
L 1453 4856 
L 1984 4856 
L 1103 2006 
L 1984 -844 
L 1453 -844 
L 572 2006 
z
" transform="scale(0.015625)"/>
       <path id="DejaVuSans-302" d="M -1831 5119 
L -1369 5119 
L -603 3944 
L -1038 3944 
L -1600 4709 
L -2163 3944 
L -2597 3944 
L -1831 5119 
z
M -1600 3584 
L -1600 3584 
z
" transform="scale(0.015625)"/>
       <path id="DejaVuSans-Oblique-61" d="M 3438 1997 
L 3047 0 
L 2472 0 
L 2578 531 
Q 2325 219 2001 64 
Q 1678 -91 1281 -91 
Q 834 -91 548 182 
Q 263 456 263 884 
Q 263 1497 752 1853 
Q 1241 2209 2100 2209 
L 2900 2209 
L 2931 2363 
Q 2938 2388 2941 2417 
Q 2944 2447 2944 2509 
Q 2944 2788 2717 2942 
Q 2491 3097 2081 3097 
Q 1800 3097 1504 3025 
Q 1209 2953 897 2809 
L 997 3341 
Q 1322 3463 1633 3523 
Q 1944 3584 2234 3584 
Q 2853 3584 3176 3315 
Q 3500 3047 3500 2534 
Q 3500 2431 3484 2292 
Q 3469 2153 3438 1997 
z
M 2816 1759 
L 2241 1759 
Q 1534 1759 1195 1570 
Q 856 1381 856 984 
Q 856 709 1029 553 
Q 1203 397 1509 397 
Q 1978 397 2328 733 
Q 2678 1069 2791 1631 
L 2816 1759 
z
" transform="scale(0.015625)"/>
       <path id="DejaVuSans-72" d="M 2631 2963 
Q 2534 3019 2420 3045 
Q 2306 3072 2169 3072 
Q 1681 3072 1420 2755 
Q 1159 2438 1159 1844 
L 1159 0 
L 581 0 
L 581 3500 
L 1159 3500 
L 1159 2956 
Q 1341 3275 1631 3429 
Q 1922 3584 2338 3584 
Q 2397 3584 2469 3576 
Q 2541 3569 2628 3553 
L 2631 2963 
z
" transform="scale(0.015625)"/>
       <path id="DejaVuSans-27e9" d="M 1925 2006 
L 1044 -844 
L 513 -844 
L 1394 2006 
L 513 4856 
L 1044 4856 
L 1925 2006 
z
" transform="scale(0.015625)"/>
      </defs>
      <use xlink:href="#DejaVuSans-27e8" transform="translate(0 0.515625)"/>
      <use xlink:href="#DejaVuSans-302" transform="translate(101.911621 13.015625)"/>
      <use xlink:href="#DejaVuSans-Oblique-61" transform="translate(39.013672 0.515625)"/>
      <use xlink:href="#DejaVuSans-72" transform="translate(101.25 -15.890625) scale(0.7)"/>
      <use xlink:href="#DejaVuSans-27e9" transform="translate(132.763672 0.515625)"/>
     </g>
    </g>
   </g>
   <g id="line2d_22">
    <path d="M 64.171185 162.859746 
L 73.293555 159.447683 
L 82.415925 162.463962 
L 91.538295 158.7371 
L 100.660665 163.757765 
L 109.783035 164.902028 
L 118.905405 157.363585 
L 128.027775 165.727729 
L 137.150145 159.937261 
L 146.272515 167.72644 
L 155.394885 163.564151 
" clip-path="url(#pb2e37a9650)" style="fill: none; stroke: #1f77b4; stroke-width: 1.5; stroke-linecap: square"/>
   </g>
   <g id="line2d_23">
    <path d="M 64.171185 162.859746 
L 73.293555 160.544553 
L 82.415925 160.282535 
L 91.538295 162.43033 
L 100.660665 157.633616 
L 109.783035 165.354889 
L 118.905405 161.5501 
L 128.027775 163.447567 
L 137.150145 164.357406 
L 146.272515 165.672231 
L 155.394885 165.16078 
" clip-path="url(#pb2e37a9650)" style="fill: none; stroke-dasharray: 1.5,2.475; stroke-dashoffset: 0; stroke: #ff7f0e; stroke-width: 1.5"/>
   </g>
   <g id="patch_13">
    <path d="M 59.61 180.844194 
L 59.61 100.854705 
" style="fill: none; stroke: #000000; stroke-width: 0.8; stroke-linejoin: miter; stroke-linecap: square"/>
   </g>
   <g id="patch_14">
    <path d="M 159.95607 180.844194 
L 159.95607 100.854705 
" style="fill: none; stroke: #000000; stroke-width: 0.8; stroke-linejoin: miter; stroke-linecap: square"/>
   </g>
   <g id="patch_15">
    <path d="M 59.61 180.844194 
L 159.95607 180.844194 
" style="fill: none; stroke: #000000; stroke-width: 0.8; stroke-linejoin: miter; stroke-linecap: square"/>
   </g>
   <g id="patch_16">
    <path d="M 59.61 100.854705 
L 159.95607 100.854705 
" style="fill: none; stroke: #000000; stroke-width: 0.8; stroke-linejoin: miter; stroke-linecap: square"/>
   </g>
   <g id="text_14">
    <!-- (c) -->
    <g transform="translate(29.506179 111.253338) scale(0.1 -0.1)">
     <defs>
      <path id="DejaVuSans-63" d="M 3122 3366 
L 3122 2828 
Q 2878 2963 2633 3030 
Q 2388 3097 2138 3097 
Q 1578 3097 1268 2742 
Q 959 2388 959 1747 
Q 959 1106 1268 751 
Q 1578 397 2138 397 
Q 2388 397 2633 464 
Q 2878 531 3122 666 
L 3122 134 
Q 2881 22 2623 -34 
Q 2366 -91 2075 -91 
Q 1284 -91 818 406 
Q 353 903 353 1747 
Q 353 2603 823 3093 
Q 1294 3584 2113 3584 
Q 2378 3584 2631 3529 
Q 2884 3475 3122 3366 
z
" transform="scale(0.015625)"/>
     </defs>
     <use xlink:href="#DejaVuSans-28"/>
     <use xlink:href="#DejaVuSans-63" x="39.013672"/>
     <use xlink:href="#DejaVuSans-29" x="93.994141"/>
    </g>
   </g>
  </g>
  <g id="axes_4">
   <g id="patch_17">
    <path d="M 220.50207 180.844194 
L 320.84814 180.844194 
L 320.84814 100.854705 
L 220.50207 100.854705 
z
" style="fill: #ffffff"/>
   </g>
   <g id="PolyCollection_7">
    <defs>
     <path id="m0ef6fa65cb" d="M 225.063255 -240.340254 
L 225.063255 -240.340254 
L 234.185625 -244.253323 
L 243.307995 -250.106435 
L 252.430365 -249.551175 
L 261.552735 -242.607869 
L 270.675105 -246.834567 
L 279.797475 -245.351784 
L 288.919845 -253.526305 
L 298.042215 -247.219409 
L 307.164585 -298.709409 
L 316.286955 -248.718786 
L 316.286955 -240.107409 
L 316.286955 -240.107409 
L 307.164585 -230.651992 
L 298.042215 -230.467687 
L 288.919845 -235.999363 
L 279.797475 -242.77533 
L 270.675105 -236.9988 
L 261.552735 -236.822068 
L 252.430365 -234.830201 
L 243.307995 -237.028886 
L 234.185625 -242.019109 
L 225.063255 -240.340254 
z
" style="stroke: #1f77b4; stroke-opacity: 0.2"/>
    </defs>
    <g clip-path="url(#pa0e294d5b2)">
     <use xlink:href="#m0ef6fa65cb" x="0" y="403.2" style="fill: #1f77b4; fill-opacity: 0.2; stroke: #1f77b4; stroke-opacity: 0.2"/>
    </g>
   </g>
   <g id="PolyCollection_8">
    <defs>
     <path id="mc07933edf2" d="M 225.063255 -240.340254 
L 225.063255 -240.340254 
L 234.185625 -246.361255 
L 243.307995 -240.03607 
L 252.430365 -246.028559 
L 261.552735 -244.615072 
L 270.675105 -251.585492 
L 279.797475 -247.207372 
L 288.919845 -246.869499 
L 298.042215 -241.340412 
L 307.164585 -242.302536 
L 316.286955 -238.265685 
L 316.286955 -233.568555 
L 316.286955 -233.568555 
L 307.164585 -233.385066 
L 298.042215 -230.764018 
L 288.919845 -233.509518 
L 279.797475 -236.828943 
L 270.675105 -238.993594 
L 261.552735 -239.268208 
L 252.430365 -237.562488 
L 243.307995 -236.78085 
L 234.185625 -238.549616 
L 225.063255 -240.340254 
z
" style="stroke: #ff7f0e; stroke-opacity: 0.2"/>
    </defs>
    <g clip-path="url(#pa0e294d5b2)">
     <use xlink:href="#mc07933edf2" x="0" y="403.2" style="fill: #ff7f0e; fill-opacity: 0.2; stroke: #ff7f0e; stroke-opacity: 0.2"/>
    </g>
   </g>
   <g id="matplotlib.axis_7">
    <g id="xtick_10">
     <g id="line2d_24">
      <g>
       <use xlink:href="#md837e58fd4" x="224.151018" y="180.844194" style="stroke: #000000; stroke-width: 0.8"/>
      </g>
     </g>
    </g>
    <g id="xtick_11">
     <g id="line2d_25">
      <g>
       <use xlink:href="#md837e58fd4" x="269.762868" y="180.844194" style="stroke: #000000; stroke-width: 0.8"/>
      </g>
     </g>
    </g>
    <g id="xtick_12">
     <g id="line2d_26">
      <g>
       <use xlink:href="#md837e58fd4" x="315.374718" y="180.844194" style="stroke: #000000; stroke-width: 0.8"/>
      </g>
     </g>
    </g>
   </g>
   <g id="matplotlib.axis_8">
    <g id="ytick_9">
     <g id="line2d_27">
      <g>
       <use xlink:href="#mdd655c1e2a" x="220.50207" y="162.859746" style="stroke: #000000; stroke-width: 0.8"/>
      </g>
     </g>
     <g id="text_15">
      <!-- 0 -->
      <g transform="translate(207.13957 166.658964) scale(0.1 -0.1)">
       <use xlink:href="#DejaVuSans-30"/>
      </g>
     </g>
    </g>
    <g id="ytick_10">
     <g id="line2d_28">
      <g>
       <use xlink:href="#mdd655c1e2a" x="220.50207" y="129.586015" style="stroke: #000000; stroke-width: 0.8"/>
      </g>
     </g>
     <g id="text_16">
      <!-- 10 -->
      <g transform="translate(200.77707 133.385233) scale(0.1 -0.1)">
       <use xlink:href="#DejaVuSans-31"/>
       <use xlink:href="#DejaVuSans-30" x="63.623047"/>
      </g>
     </g>
    </g>
    <g id="text_17">
     <!-- $\langle \hat{a}_{\mathrm{i}} \rangle$ -->
     <g transform="translate(197.197383 148.99945) rotate(-90) scale(0.1 -0.1)">
      <defs>
       <path id="DejaVuSans-69" d="M 603 3500 
L 1178 3500 
L 1178 0 
L 603 0 
L 603 3500 
z
M 603 4863 
L 1178 4863 
L 1178 4134 
L 603 4134 
L 603 4863 
z
" transform="scale(0.015625)"/>
      </defs>
      <use xlink:href="#DejaVuSans-27e8" transform="translate(0 0.515625)"/>
      <use xlink:href="#DejaVuSans-302" transform="translate(101.911621 13.015625)"/>
      <use xlink:href="#DejaVuSans-Oblique-61" transform="translate(39.013672 0.515625)"/>
      <use xlink:href="#DejaVuSans-69" transform="translate(101.25 -15.890625) scale(0.7)"/>
      <use xlink:href="#DejaVuSans-27e9" transform="translate(123.432617 0.515625)"/>
     </g>
    </g>
   </g>
   <g id="line2d_29">
    <path d="M 225.063255 162.859746 
L 234.185625 160.304607 
L 243.307995 159.621184 
L 252.430365 159.398706 
L 261.552735 164.071363 
L 270.675105 161.995003 
L 279.797475 159.161491 
L 288.919845 158.397865 
L 298.042215 162.680184 
L 307.164585 146.717467 
L 316.286955 158.70825 
" clip-path="url(#pa0e294d5b2)" style="fill: none; stroke: #1f77b4; stroke-width: 1.5; stroke-linecap: square"/>
   </g>
   <g id="line2d_30">
    <path d="M 225.063255 162.859746 
L 234.185625 160.383266 
L 243.307995 164.851241 
L 252.430365 160.763211 
L 261.552735 161.844398 
L 270.675105 159.001162 
L 279.797475 160.860157 
L 288.919845 163.33414 
L 298.042215 166.011797 
L 307.164585 164.504285 
L 316.286955 166.959771 
" clip-path="url(#pa0e294d5b2)" style="fill: none; stroke-dasharray: 1.5,2.475; stroke-dashoffset: 0; stroke: #ff7f0e; stroke-width: 1.5"/>
   </g>
   <g id="patch_18">
    <path d="M 220.50207 180.844194 
L 220.50207 100.854705 
" style="fill: none; stroke: #000000; stroke-width: 0.8; stroke-linejoin: miter; stroke-linecap: square"/>
   </g>
   <g id="patch_19">
    <path d="M 320.84814 180.844194 
L 320.84814 100.854705 
" style="fill: none; stroke: #000000; stroke-width: 0.8; stroke-linejoin: miter; stroke-linecap: square"/>
   </g>
   <g id="patch_20">
    <path d="M 220.50207 180.844194 
L 320.84814 180.844194 
" style="fill: none; stroke: #000000; stroke-width: 0.8; stroke-linejoin: miter; stroke-linecap: square"/>
   </g>
   <g id="patch_21">
    <path d="M 220.50207 100.854705 
L 320.84814 100.854705 
" style="fill: none; stroke: #000000; stroke-width: 0.8; stroke-linejoin: miter; stroke-linecap: square"/>
   </g>
   <g id="text_18">
    <!-- (d) -->
    <g transform="translate(190.398249 111.253338) scale(0.1 -0.1)">
     <defs>
      <path id="DejaVuSans-64" d="M 2906 2969 
L 2906 4863 
L 3481 4863 
L 3481 0 
L 2906 0 
L 2906 525 
Q 2725 213 2448 61 
Q 2172 -91 1784 -91 
Q 1150 -91 751 415 
Q 353 922 353 1747 
Q 353 2572 751 3078 
Q 1150 3584 1784 3584 
Q 2172 3584 2448 3432 
Q 2725 3281 2906 2969 
z
M 947 1747 
Q 947 1113 1208 752 
Q 1469 391 1925 391 
Q 2381 391 2643 752 
Q 2906 1113 2906 1747 
Q 2906 2381 2643 2742 
Q 2381 3103 1925 3103 
Q 1469 3103 1208 2742 
Q 947 2381 947 1747 
z
" transform="scale(0.015625)"/>
     </defs>
     <use xlink:href="#DejaVuSans-28"/>
     <use xlink:href="#DejaVuSans-64" x="39.013672"/>
     <use xlink:href="#DejaVuSans-29" x="102.490234"/>
    </g>
   </g>
  </g>
  <g id="axes_5">
   <g id="patch_22">
    <path d="M 59.61 269.196097 
L 159.95607 269.196097 
L 159.95607 189.206608 
L 59.61 189.206608 
z
" style="fill: #ffffff"/>
   </g>
   <g id="PolyCollection_9">
    <defs>
     <path id="ma6da4f7382" d="M 64.171185 -183.931929 
L 64.171185 -181.290771 
L 73.293555 -184.529215 
L 82.415925 -159.065754 
L 91.538295 -172.36481 
L 100.660665 -184.647464 
L 109.783035 -182.433767 
L 118.905405 -182.505179 
L 128.027775 -156.977363 
L 137.150145 -154.486451 
L 146.272515 -170.199787 
L 155.394885 -179.115187 
L 155.394885 -203.942771 
L 155.394885 -203.942771 
L 146.272515 -210.357506 
L 137.150145 -185.390658 
L 128.027775 -180.18791 
L 118.905405 -183.106892 
L 109.783035 -191.158419 
L 100.660665 -193.396104 
L 91.538295 -185.610428 
L 82.415925 -168.458929 
L 73.293555 -199.206202 
L 64.171185 -183.931929 
z
" style="stroke: #1f77b4; stroke-opacity: 0.2"/>
    </defs>
    <g clip-path="url(#pc96ac10684)">
     <use xlink:href="#ma6da4f7382" x="0" y="403.2" style="fill: #1f77b4; fill-opacity: 0.2; stroke: #1f77b4; stroke-opacity: 0.2"/>
    </g>
   </g>
   <g id="PolyCollection_10">
    <defs>
     <path id="mb72cd5eaeb" d="M 64.171185 -184.529441 
L 64.171185 -183.173683 
L 73.293555 -174.145482 
L 82.415925 -176.167446 
L 91.538295 -166.394828 
L 100.660665 -163.54463 
L 109.783035 -177.385856 
L 118.905405 -179.213703 
L 128.027775 -171.824331 
L 137.150145 -160.171247 
L 146.272515 -152.38935 
L 155.394885 -174.046177 
L 155.394885 -205.378248 
L 155.394885 -205.378248 
L 146.272515 -192.478435 
L 137.150145 -191.738422 
L 128.027775 -187.964366 
L 118.905405 -187.424924 
L 109.783035 -186.46916 
L 100.660665 -196.378001 
L 91.538295 -195.869818 
L 82.415925 -187.598451 
L 73.293555 -206.213805 
L 64.171185 -184.529441 
z
" style="stroke: #ff7f0e; stroke-opacity: 0.2"/>
    </defs>
    <g clip-path="url(#pc96ac10684)">
     <use xlink:href="#mb72cd5eaeb" x="0" y="403.2" style="fill: #ff7f0e; fill-opacity: 0.2; stroke: #ff7f0e; stroke-opacity: 0.2"/>
    </g>
   </g>
   <g id="matplotlib.axis_9">
    <g id="xtick_13">
     <g id="line2d_31">
      <g>
       <use xlink:href="#md837e58fd4" x="63.258948" y="269.196097" style="stroke: #000000; stroke-width: 0.8"/>
      </g>
     </g>
    </g>
    <g id="xtick_14">
     <g id="line2d_32">
      <g>
       <use xlink:href="#md837e58fd4" x="108.870798" y="269.196097" style="stroke: #000000; stroke-width: 0.8"/>
      </g>
     </g>
    </g>
    <g id="xtick_15">
     <g id="line2d_33">
      <g>
       <use xlink:href="#md837e58fd4" x="154.482648" y="269.196097" style="stroke: #000000; stroke-width: 0.8"/>
      </g>
     </g>
    </g>
   </g>
   <g id="matplotlib.axis_10">
    <g id="ytick_11">
     <g id="line2d_34">
      <g>
       <use xlink:href="#mdd655c1e2a" x="59.61" y="266.857439" style="stroke: #000000; stroke-width: 0.8"/>
      </g>
     </g>
     <g id="text_19">
      <!-- −0.2 -->
      <g transform="translate(28.327187 270.656658) scale(0.1 -0.1)">
       <defs>
        <path id="DejaVuSans-32" d="M 1228 531 
L 3431 531 
L 3431 0 
L 469 0 
L 469 531 
Q 828 903 1448 1529 
Q 2069 2156 2228 2338 
Q 2531 2678 2651 2914 
Q 2772 3150 2772 3378 
Q 2772 3750 2511 3984 
Q 2250 4219 1831 4219 
Q 1534 4219 1204 4116 
Q 875 4013 500 3803 
L 500 4441 
Q 881 4594 1212 4672 
Q 1544 4750 1819 4750 
Q 2544 4750 2975 4387 
Q 3406 4025 3406 3419 
Q 3406 3131 3298 2873 
Q 3191 2616 2906 2266 
Q 2828 2175 2409 1742 
Q 1991 1309 1228 531 
z
" transform="scale(0.015625)"/>
       </defs>
       <use xlink:href="#DejaVuSans-2212"/>
       <use xlink:href="#DejaVuSans-30" x="83.789062"/>
       <use xlink:href="#DejaVuSans-2e" x="147.412109"/>
       <use xlink:href="#DejaVuSans-32" x="179.199219"/>
      </g>
     </g>
    </g>
    <g id="ytick_12">
     <g id="line2d_35">
      <g>
       <use xlink:href="#mdd655c1e2a" x="59.61" y="220.37377" style="stroke: #000000; stroke-width: 0.8"/>
      </g>
     </g>
     <g id="text_20">
      <!-- 0.0 -->
      <g transform="translate(36.706875 224.172989) scale(0.1 -0.1)">
       <use xlink:href="#DejaVuSans-30"/>
       <use xlink:href="#DejaVuSans-2e" x="63.623047"/>
       <use xlink:href="#DejaVuSans-30" x="95.410156"/>
      </g>
     </g>
    </g>
    <g id="text_21">
     <!-- $\langle \hat J_x \rangle$ -->
     <g transform="translate(24.727187 237.551352) rotate(-90) scale(0.1 -0.1)">
      <defs>
       <path id="DejaVuSans-Oblique-4a" d="M 1069 4666 
L 1703 4666 
L 856 325 
Q 691 -522 298 -901 
Q -94 -1281 -800 -1281 
L -1050 -1281 
L -947 -750 
L -750 -750 
Q -328 -750 -109 -509 
Q 109 -269 225 325 
L 1069 4666 
z
" transform="scale(0.015625)"/>
       <path id="DejaVuSans-Oblique-78" d="M 3841 3500 
L 2234 1784 
L 3219 0 
L 2559 0 
L 1819 1388 
L 531 0 
L -166 0 
L 1556 1844 
L 641 3500 
L 1300 3500 
L 1972 2234 
L 3144 3500 
L 3841 3500 
z
" transform="scale(0.015625)"/>
      </defs>
      <use xlink:href="#DejaVuSans-27e8" transform="translate(0 0.609375)"/>
      <use xlink:href="#DejaVuSans-302" transform="translate(91.345703 30.015625)"/>
      <use xlink:href="#DejaVuSans-Oblique-4a" transform="translate(39.013672 0.609375)"/>
      <use xlink:href="#DejaVuSans-Oblique-78" transform="translate(82.986328 -15.796875) scale(0.7)"/>
      <use xlink:href="#DejaVuSans-27e9" transform="translate(127.146484 0.609375)"/>
     </g>
    </g>
   </g>
   <g id="line2d_36">
    <path d="M 64.171185 220.816668 
L 73.293555 210.979385 
L 82.415925 238.951661 
L 91.538295 224.263315 
L 100.660665 213.175813 
L 109.783035 216.344189 
L 118.905405 220.348393 
L 128.027775 233.723166 
L 137.150145 233.146817 
L 146.272515 215.28803 
L 155.394885 210.936413 
" clip-path="url(#pc96ac10684)" style="fill: none; stroke: #1f77b4; stroke-width: 1.5; stroke-linecap: square"/>
   </g>
   <g id="line2d_37">
    <path d="M 64.171185 219.291233 
L 73.293555 216.044665 
L 82.415925 220.516901 
L 91.538295 218.37111 
L 100.660665 225.608063 
L 109.783035 222.01069 
L 118.905405 219.561064 
L 128.027775 224.649096 
L 137.150145 223.213946 
L 146.272515 235.236557 
L 155.394885 210.657361 
" clip-path="url(#pc96ac10684)" style="fill: none; stroke-dasharray: 1.5,2.475; stroke-dashoffset: 0; stroke: #ff7f0e; stroke-width: 1.5"/>
   </g>
   <g id="patch_23">
    <path d="M 59.61 269.196097 
L 59.61 189.206608 
" style="fill: none; stroke: #000000; stroke-width: 0.8; stroke-linejoin: miter; stroke-linecap: square"/>
   </g>
   <g id="patch_24">
    <path d="M 159.95607 269.196097 
L 159.95607 189.206608 
" style="fill: none; stroke: #000000; stroke-width: 0.8; stroke-linejoin: miter; stroke-linecap: square"/>
   </g>
   <g id="patch_25">
    <path d="M 59.61 269.196097 
L 159.95607 269.196097 
" style="fill: none; stroke: #000000; stroke-width: 0.8; stroke-linejoin: miter; stroke-linecap: square"/>
   </g>
   <g id="patch_26">
    <path d="M 59.61 189.206608 
L 159.95607 189.206608 
" style="fill: none; stroke: #000000; stroke-width: 0.8; stroke-linejoin: miter; stroke-linecap: square"/>
   </g>
   <g id="text_22">
    <!-- (e) -->
    <g transform="translate(29.506179 199.605241) scale(0.1 -0.1)">
     <defs>
      <path id="DejaVuSans-65" d="M 3597 1894 
L 3597 1613 
L 953 1613 
Q 991 1019 1311 708 
Q 1631 397 2203 397 
Q 2534 397 2845 478 
Q 3156 559 3463 722 
L 3463 178 
Q 3153 47 2828 -22 
Q 2503 -91 2169 -91 
Q 1331 -91 842 396 
Q 353 884 353 1716 
Q 353 2575 817 3079 
Q 1281 3584 2069 3584 
Q 2775 3584 3186 3129 
Q 3597 2675 3597 1894 
z
M 3022 2063 
Q 3016 2534 2758 2815 
Q 2500 3097 2075 3097 
Q 1594 3097 1305 2825 
Q 1016 2553 972 2059 
L 3022 2063 
z
" transform="scale(0.015625)"/>
     </defs>
     <use xlink:href="#DejaVuSans-28"/>
     <use xlink:href="#DejaVuSans-65" x="39.013672"/>
     <use xlink:href="#DejaVuSans-29" x="100.537109"/>
    </g>
   </g>
  </g>
  <g id="axes_6">
   <g id="patch_27">
    <path d="M 220.50207 269.196097 
L 320.84814 269.196097 
L 320.84814 189.206608 
L 220.50207 189.206608 
z
" style="fill: #ffffff"/>
   </g>
   <g id="PolyCollection_11">
    <defs>
     <path id="mc6c0490bfa" d="M 225.063255 -186.239999 
L 225.063255 -182.324604 
L 234.185625 -137.639789 
L 243.307995 -179.956386 
L 252.430365 -177.639706 
L 261.552735 -154.0604 
L 270.675105 -175.885639 
L 279.797475 -186.647556 
L 288.919845 -151.322563 
L 298.042215 -163.41443 
L 307.164585 -184.719903 
L 316.286955 -163.823685 
L 316.286955 -179.545936 
L 316.286955 -179.545936 
L 307.164585 -190.055703 
L 298.042215 -188.091983 
L 288.919845 -201.127996 
L 279.797475 -202.104232 
L 270.675105 -189.915615 
L 261.552735 -173.065169 
L 252.430365 -207.766453 
L 243.307995 -197.448482 
L 234.185625 -184.789447 
L 225.063255 -186.239999 
z
" style="stroke: #1f77b4; stroke-opacity: 0.2"/>
    </defs>
    <g clip-path="url(#pd4e91425a7)">
     <use xlink:href="#mc6c0490bfa" x="0" y="403.2" style="fill: #1f77b4; fill-opacity: 0.2; stroke: #1f77b4; stroke-opacity: 0.2"/>
    </g>
   </g>
   <g id="PolyCollection_12">
    <defs>
     <path id="ma239be88a3" d="M 225.063255 -185.112388 
L 225.063255 -182.591452 
L 234.185625 -157.596784 
L 243.307995 -167.838066 
L 252.430365 -189.121715 
L 261.552735 -165.921442 
L 270.675105 -181.965581 
L 279.797475 -168.698823 
L 288.919845 -163.497111 
L 298.042215 -155.250831 
L 307.164585 -193.91493 
L 316.286955 -157.578769 
L 316.286955 -191.439648 
L 316.286955 -191.439648 
L 307.164585 -196.000076 
L 298.042215 -193.270109 
L 288.919845 -187.147954 
L 279.797475 -182.707856 
L 270.675105 -200.337926 
L 261.552735 -202.007711 
L 252.430365 -194.085891 
L 243.307995 -191.152245 
L 234.185625 -183.493972 
L 225.063255 -185.112388 
z
" style="stroke: #ff7f0e; stroke-opacity: 0.2"/>
    </defs>
    <g clip-path="url(#pd4e91425a7)">
     <use xlink:href="#ma239be88a3" x="0" y="403.2" style="fill: #ff7f0e; fill-opacity: 0.2; stroke: #ff7f0e; stroke-opacity: 0.2"/>
    </g>
   </g>
   <g id="matplotlib.axis_11">
    <g id="xtick_16">
     <g id="line2d_38">
      <g>
       <use xlink:href="#md837e58fd4" x="224.151018" y="269.196097" style="stroke: #000000; stroke-width: 0.8"/>
      </g>
     </g>
    </g>
    <g id="xtick_17">
     <g id="line2d_39">
      <g>
       <use xlink:href="#md837e58fd4" x="269.762868" y="269.196097" style="stroke: #000000; stroke-width: 0.8"/>
      </g>
     </g>
    </g>
    <g id="xtick_18">
     <g id="line2d_40">
      <g>
       <use xlink:href="#md837e58fd4" x="315.374718" y="269.196097" style="stroke: #000000; stroke-width: 0.8"/>
      </g>
     </g>
    </g>
   </g>
   <g id="matplotlib.axis_12">
    <g id="ytick_13">
     <g id="line2d_41">
      <g>
       <use xlink:href="#mdd655c1e2a" x="220.50207" y="266.857439" style="stroke: #000000; stroke-width: 0.8"/>
      </g>
     </g>
     <g id="text_23">
      <!-- −0.2 -->
      <g transform="translate(189.219258 270.656658) scale(0.1 -0.1)">
       <use xlink:href="#DejaVuSans-2212"/>
       <use xlink:href="#DejaVuSans-30" x="83.789062"/>
       <use xlink:href="#DejaVuSans-2e" x="147.412109"/>
       <use xlink:href="#DejaVuSans-32" x="179.199219"/>
      </g>
     </g>
    </g>
    <g id="ytick_14">
     <g id="line2d_42">
      <g>
       <use xlink:href="#mdd655c1e2a" x="220.50207" y="220.37377" style="stroke: #000000; stroke-width: 0.8"/>
      </g>
     </g>
     <g id="text_24">
      <!-- 0.0 -->
      <g transform="translate(197.598945 224.172989) scale(0.1 -0.1)">
       <use xlink:href="#DejaVuSans-30"/>
       <use xlink:href="#DejaVuSans-2e" x="63.623047"/>
       <use xlink:href="#DejaVuSans-30" x="95.410156"/>
      </g>
     </g>
    </g>
    <g id="text_25">
     <!-- $\langle \hat J_y \rangle$ -->
     <g transform="translate(184.619258 237.551352) rotate(-90) scale(0.1 -0.1)">
      <defs>
       <path id="DejaVuSans-Oblique-79" d="M 1588 -325 
Q 1188 -997 936 -1164 
Q 684 -1331 294 -1331 
L -159 -1331 
L -63 -850 
L 269 -850 
Q 509 -850 678 -719 
Q 847 -588 1056 -206 
L 1234 128 
L 459 3500 
L 1069 3500 
L 1650 819 
L 3256 3500 
L 3859 3500 
L 1588 -325 
z
" transform="scale(0.015625)"/>
      </defs>
      <use xlink:href="#DejaVuSans-27e8" transform="translate(0 0.609375)"/>
      <use xlink:href="#DejaVuSans-302" transform="translate(91.345703 30.015625)"/>
      <use xlink:href="#DejaVuSans-Oblique-4a" transform="translate(39.013672 0.609375)"/>
      <use xlink:href="#DejaVuSans-Oblique-79" transform="translate(82.986328 -15.796875) scale(0.7)"/>
      <use xlink:href="#DejaVuSans-27e9" transform="translate(127.146484 0.609375)"/>
     </g>
    </g>
   </g>
   <g id="line2d_43">
    <path d="M 225.063255 219.022024 
L 234.185625 240.884984 
L 243.307995 215.430007 
L 252.430365 209.911061 
L 261.552735 239.07328 
L 270.675105 220.929737 
L 279.797475 210.237924 
L 288.919845 228.348123 
L 298.042215 227.975801 
L 307.164585 215.802446 
L 316.286955 231.241272 
" clip-path="url(#pd4e91425a7)" style="fill: none; stroke: #1f77b4; stroke-width: 1.5; stroke-linecap: square"/>
   </g>
   <g id="line2d_44">
    <path d="M 225.063255 219.346139 
L 234.185625 232.445376 
L 243.307995 223.697148 
L 252.430365 211.533327 
L 261.552735 219.608657 
L 270.675105 210.532511 
L 279.797475 227.238143 
L 288.919845 228.584555 
L 298.042215 226.951555 
L 307.164585 208.453417 
L 316.286955 228.634734 
" clip-path="url(#pd4e91425a7)" style="fill: none; stroke-dasharray: 1.5,2.475; stroke-dashoffset: 0; stroke: #ff7f0e; stroke-width: 1.5"/>
   </g>
   <g id="patch_28">
    <path d="M 220.50207 269.196097 
L 220.50207 189.206608 
" style="fill: none; stroke: #000000; stroke-width: 0.8; stroke-linejoin: miter; stroke-linecap: square"/>
   </g>
   <g id="patch_29">
    <path d="M 320.84814 269.196097 
L 320.84814 189.206608 
" style="fill: none; stroke: #000000; stroke-width: 0.8; stroke-linejoin: miter; stroke-linecap: square"/>
   </g>
   <g id="patch_30">
    <path d="M 220.50207 269.196097 
L 320.84814 269.196097 
" style="fill: none; stroke: #000000; stroke-width: 0.8; stroke-linejoin: miter; stroke-linecap: square"/>
   </g>
   <g id="patch_31">
    <path d="M 220.50207 189.206608 
L 320.84814 189.206608 
" style="fill: none; stroke: #000000; stroke-width: 0.8; stroke-linejoin: miter; stroke-linecap: square"/>
   </g>
   <g id="text_26">
    <!-- (f) -->
    <g transform="translate(190.398249 199.605241) scale(0.1 -0.1)">
     <defs>
      <path id="DejaVuSans-66" d="M 2375 4863 
L 2375 4384 
L 1825 4384 
Q 1516 4384 1395 4259 
Q 1275 4134 1275 3809 
L 1275 3500 
L 2222 3500 
L 2222 3053 
L 1275 3053 
L 1275 0 
L 697 0 
L 697 3053 
L 147 3053 
L 147 3500 
L 697 3500 
L 697 3744 
Q 697 4328 969 4595 
Q 1241 4863 1831 4863 
L 2375 4863 
z
" transform="scale(0.015625)"/>
     </defs>
     <use xlink:href="#DejaVuSans-28"/>
     <use xlink:href="#DejaVuSans-66" x="39.013672"/>
     <use xlink:href="#DejaVuSans-29" x="74.21875"/>
    </g>
   </g>
  </g>
  <g id="axes_7">
   <g id="patch_32">
    <path d="M 59.61 357.548 
L 159.95607 357.548 
L 159.95607 277.558511 
L 59.61 277.558511 
z
" style="fill: #ffffff"/>
   </g>
   <g id="PolyCollection_13">
    <defs>
     <path id="m0cf7cbbfe3" d="M 64.171185 -49.287886 
L 64.171185 -49.287886 
L 73.293555 -114.933778 
L 82.415925 -113.007629 
L 91.538295 -110.131279 
L 100.660665 -113.747004 
L 109.783035 -114.488122 
L 118.905405 -110.804401 
L 128.027775 -114.703241 
L 137.150145 -115.658648 
L 146.272515 -105.869024 
L 155.394885 -115.510364 
L 155.394885 -119.01114 
L 155.394885 -119.01114 
L 146.272515 -117.921298 
L 137.150145 -117.845171 
L 128.027775 -120.38379 
L 118.905405 -117.429674 
L 109.783035 -115.85623 
L 100.660665 -118.284741 
L 91.538295 -116.916406 
L 82.415925 -119.888062 
L 73.293555 -116.950171 
L 64.171185 -49.287886 
z
" style="stroke: #1f77b4; stroke-opacity: 0.2"/>
    </defs>
    <g clip-path="url(#p42e2aaa814)">
     <use xlink:href="#m0cf7cbbfe3" x="0" y="403.2" style="fill: #1f77b4; fill-opacity: 0.2; stroke: #1f77b4; stroke-opacity: 0.2"/>
    </g>
   </g>
   <g id="PolyCollection_14">
    <defs>
     <path id="mf80adee304" d="M 64.171185 -49.287886 
L 64.171185 -49.287886 
L 73.293555 -108.959625 
L 82.415925 -109.996671 
L 91.538295 -109.624403 
L 100.660665 -111.302871 
L 109.783035 -109.472367 
L 118.905405 -111.775062 
L 128.027775 -110.814427 
L 137.150145 -115.309643 
L 146.272515 -112.107962 
L 155.394885 -114.197124 
L 155.394885 -118.799466 
L 155.394885 -118.799466 
L 146.272515 -113.233721 
L 137.150145 -116.555049 
L 128.027775 -118.415743 
L 118.905405 -116.880608 
L 109.783035 -122.005604 
L 100.660665 -115.12241 
L 91.538295 -115.799779 
L 82.415925 -115.950525 
L 73.293555 -113.881497 
L 64.171185 -49.287886 
z
" style="stroke: #ff7f0e; stroke-opacity: 0.2"/>
    </defs>
    <g clip-path="url(#p42e2aaa814)">
     <use xlink:href="#mf80adee304" x="0" y="403.2" style="fill: #ff7f0e; fill-opacity: 0.2; stroke: #ff7f0e; stroke-opacity: 0.2"/>
    </g>
   </g>
   <g id="matplotlib.axis_13">
    <g id="xtick_19">
     <g id="line2d_45">
      <g>
       <use xlink:href="#md837e58fd4" x="63.258948" y="357.548" style="stroke: #000000; stroke-width: 0.8"/>
      </g>
     </g>
     <g id="text_27">
      <!-- 0 -->
      <g transform="translate(60.077698 372.146437) scale(0.1 -0.1)">
       <use xlink:href="#DejaVuSans-30"/>
      </g>
     </g>
    </g>
    <g id="xtick_20">
     <g id="line2d_46">
      <g>
       <use xlink:href="#md837e58fd4" x="108.870798" y="357.548" style="stroke: #000000; stroke-width: 0.8"/>
      </g>
     </g>
     <g id="text_28">
      <!-- 50 -->
      <g transform="translate(102.508298 372.146437) scale(0.1 -0.1)">
       <defs>
        <path id="DejaVuSans-35" d="M 691 4666 
L 3169 4666 
L 3169 4134 
L 1269 4134 
L 1269 2991 
Q 1406 3038 1543 3061 
Q 1681 3084 1819 3084 
Q 2600 3084 3056 2656 
Q 3513 2228 3513 1497 
Q 3513 744 3044 326 
Q 2575 -91 1722 -91 
Q 1428 -91 1123 -41 
Q 819 9 494 109 
L 494 744 
Q 775 591 1075 516 
Q 1375 441 1709 441 
Q 2250 441 2565 725 
Q 2881 1009 2881 1497 
Q 2881 1984 2565 2268 
Q 2250 2553 1709 2553 
Q 1456 2553 1204 2497 
Q 953 2441 691 2322 
L 691 4666 
z
" transform="scale(0.015625)"/>
       </defs>
       <use xlink:href="#DejaVuSans-35"/>
       <use xlink:href="#DejaVuSans-30" x="63.623047"/>
      </g>
     </g>
    </g>
    <g id="xtick_21">
     <g id="line2d_47">
      <g>
       <use xlink:href="#md837e58fd4" x="154.482648" y="357.548" style="stroke: #000000; stroke-width: 0.8"/>
      </g>
     </g>
     <g id="text_29">
      <!-- 100 -->
      <g transform="translate(144.938898 372.146437) scale(0.1 -0.1)">
       <use xlink:href="#DejaVuSans-31"/>
       <use xlink:href="#DejaVuSans-30" x="63.623047"/>
       <use xlink:href="#DejaVuSans-30" x="127.246094"/>
      </g>
     </g>
    </g>
    <g id="text_30">
     <!-- time (units of $\omega_\mathrm{r}^{-1}$) -->
     <g transform="translate(62.983035 384.726125) scale(0.1 -0.1)">
      <defs>
       <path id="DejaVuSans-74" d="M 1172 4494 
L 1172 3500 
L 2356 3500 
L 2356 3053 
L 1172 3053 
L 1172 1153 
Q 1172 725 1289 603 
Q 1406 481 1766 481 
L 2356 481 
L 2356 0 
L 1766 0 
Q 1100 0 847 248 
Q 594 497 594 1153 
L 594 3053 
L 172 3053 
L 172 3500 
L 594 3500 
L 594 4494 
L 1172 4494 
z
" transform="scale(0.015625)"/>
       <path id="DejaVuSans-6d" d="M 3328 2828 
Q 3544 3216 3844 3400 
Q 4144 3584 4550 3584 
Q 5097 3584 5394 3201 
Q 5691 2819 5691 2113 
L 5691 0 
L 5113 0 
L 5113 2094 
Q 5113 2597 4934 2840 
Q 4756 3084 4391 3084 
Q 3944 3084 3684 2787 
Q 3425 2491 3425 1978 
L 3425 0 
L 2847 0 
L 2847 2094 
Q 2847 2600 2669 2842 
Q 2491 3084 2119 3084 
Q 1678 3084 1418 2786 
Q 1159 2488 1159 1978 
L 1159 0 
L 581 0 
L 581 3500 
L 1159 3500 
L 1159 2956 
Q 1356 3278 1631 3431 
Q 1906 3584 2284 3584 
Q 2666 3584 2933 3390 
Q 3200 3197 3328 2828 
z
" transform="scale(0.015625)"/>
       <path id="DejaVuSans-20" transform="scale(0.015625)"/>
       <path id="DejaVuSans-75" d="M 544 1381 
L 544 3500 
L 1119 3500 
L 1119 1403 
Q 1119 906 1312 657 
Q 1506 409 1894 409 
Q 2359 409 2629 706 
Q 2900 1003 2900 1516 
L 2900 3500 
L 3475 3500 
L 3475 0 
L 2900 0 
L 2900 538 
Q 2691 219 2414 64 
Q 2138 -91 1772 -91 
Q 1169 -91 856 284 
Q 544 659 544 1381 
z
M 1991 3584 
L 1991 3584 
z
" transform="scale(0.015625)"/>
       <path id="DejaVuSans-6e" d="M 3513 2113 
L 3513 0 
L 2938 0 
L 2938 2094 
Q 2938 2591 2744 2837 
Q 2550 3084 2163 3084 
Q 1697 3084 1428 2787 
Q 1159 2491 1159 1978 
L 1159 0 
L 581 0 
L 581 3500 
L 1159 3500 
L 1159 2956 
Q 1366 3272 1645 3428 
Q 1925 3584 2291 3584 
Q 2894 3584 3203 3211 
Q 3513 2838 3513 2113 
z
" transform="scale(0.015625)"/>
       <path id="DejaVuSans-73" d="M 2834 3397 
L 2834 2853 
Q 2591 2978 2328 3040 
Q 2066 3103 1784 3103 
Q 1356 3103 1142 2972 
Q 928 2841 928 2578 
Q 928 2378 1081 2264 
Q 1234 2150 1697 2047 
L 1894 2003 
Q 2506 1872 2764 1633 
Q 3022 1394 3022 966 
Q 3022 478 2636 193 
Q 2250 -91 1575 -91 
Q 1294 -91 989 -36 
Q 684 19 347 128 
L 347 722 
Q 666 556 975 473 
Q 1284 391 1588 391 
Q 1994 391 2212 530 
Q 2431 669 2431 922 
Q 2431 1156 2273 1281 
Q 2116 1406 1581 1522 
L 1381 1569 
Q 847 1681 609 1914 
Q 372 2147 372 2553 
Q 372 3047 722 3315 
Q 1072 3584 1716 3584 
Q 2034 3584 2315 3537 
Q 2597 3491 2834 3397 
z
" transform="scale(0.015625)"/>
       <path id="DejaVuSans-6f" d="M 1959 3097 
Q 1497 3097 1228 2736 
Q 959 2375 959 1747 
Q 959 1119 1226 758 
Q 1494 397 1959 397 
Q 2419 397 2687 759 
Q 2956 1122 2956 1747 
Q 2956 2369 2687 2733 
Q 2419 3097 1959 3097 
z
M 1959 3584 
Q 2709 3584 3137 3096 
Q 3566 2609 3566 1747 
Q 3566 888 3137 398 
Q 2709 -91 1959 -91 
Q 1206 -91 779 398 
Q 353 888 353 1747 
Q 353 2609 779 3096 
Q 1206 3584 1959 3584 
z
" transform="scale(0.015625)"/>
       <path id="DejaVuSans-Oblique-3c9" d="M 1369 -91 
Q 72 -91 434 1766 
Q 575 2500 1256 3500 
L 1875 3500 
Q 1231 2500 1088 1750 
Q 819 397 1519 397 
Q 2166 397 2478 2078 
L 3009 2078 
Q 2669 388 3316 397 
Q 4013 403 4275 1750 
Q 4419 2500 4169 3500 
L 4788 3500 
Q 5075 2500 4934 1766 
Q 4578 -94 3278 -91 
Q 2428 -88 2503 844 
Q 2194 -91 1369 -91 
z
" transform="scale(0.015625)"/>
      </defs>
      <use xlink:href="#DejaVuSans-74" transform="translate(0 0.684375)"/>
      <use xlink:href="#DejaVuSans-69" transform="translate(39.208984 0.684375)"/>
      <use xlink:href="#DejaVuSans-6d" transform="translate(66.992188 0.684375)"/>
      <use xlink:href="#DejaVuSans-65" transform="translate(164.404297 0.684375)"/>
      <use xlink:href="#DejaVuSans-20" transform="translate(225.927734 0.684375)"/>
      <use xlink:href="#DejaVuSans-28" transform="translate(257.714844 0.684375)"/>
      <use xlink:href="#DejaVuSans-75" transform="translate(296.728516 0.684375)"/>
      <use xlink:href="#DejaVuSans-6e" transform="translate(360.107422 0.684375)"/>
      <use xlink:href="#DejaVuSans-69" transform="translate(423.486328 0.684375)"/>
      <use xlink:href="#DejaVuSans-74" transform="translate(451.269531 0.684375)"/>
      <use xlink:href="#DejaVuSans-73" transform="translate(490.478516 0.684375)"/>
      <use xlink:href="#DejaVuSans-20" transform="translate(542.578125 0.684375)"/>
      <use xlink:href="#DejaVuSans-6f" transform="translate(574.365234 0.684375)"/>
      <use xlink:href="#DejaVuSans-66" transform="translate(635.546875 0.684375)"/>
      <use xlink:href="#DejaVuSans-20" transform="translate(670.751953 0.684375)"/>
      <use xlink:href="#DejaVuSans-Oblique-3c9" transform="translate(702.539062 0.684375)"/>
      <use xlink:href="#DejaVuSans-2212" transform="translate(790.745443 38.965625) scale(0.7)"/>
      <use xlink:href="#DejaVuSans-31" transform="translate(849.397786 38.965625) scale(0.7)"/>
      <use xlink:href="#DejaVuSans-72" transform="translate(786.279297 -26.659375) scale(0.7)"/>
      <use xlink:href="#DejaVuSans-29" transform="translate(896.668294 0.684375)"/>
     </g>
    </g>
   </g>
   <g id="matplotlib.axis_14">
    <g id="ytick_15">
     <g id="line2d_48">
      <g>
       <use xlink:href="#mdd655c1e2a" x="59.61" y="353.912114" style="stroke: #000000; stroke-width: 0.8"/>
      </g>
     </g>
     <g id="text_31">
      <!-- −1.0 -->
      <g transform="translate(28.327187 357.711333) scale(0.1 -0.1)">
       <use xlink:href="#DejaVuSans-2212"/>
       <use xlink:href="#DejaVuSans-31" x="83.789062"/>
       <use xlink:href="#DejaVuSans-2e" x="147.412109"/>
       <use xlink:href="#DejaVuSans-30" x="179.199219"/>
      </g>
     </g>
    </g>
    <g id="ytick_16">
     <g id="line2d_49">
      <g>
       <use xlink:href="#mdd655c1e2a" x="59.61" y="321.309096" style="stroke: #000000; stroke-width: 0.8"/>
      </g>
     </g>
     <g id="text_32">
      <!-- −0.5 -->
      <g transform="translate(28.327187 325.108315) scale(0.1 -0.1)">
       <use xlink:href="#DejaVuSans-2212"/>
       <use xlink:href="#DejaVuSans-30" x="83.789062"/>
       <use xlink:href="#DejaVuSans-2e" x="147.412109"/>
       <use xlink:href="#DejaVuSans-35" x="179.199219"/>
      </g>
     </g>
    </g>
    <g id="ytick_17">
     <g id="line2d_50">
      <g>
       <use xlink:href="#mdd655c1e2a" x="59.61" y="288.706078" style="stroke: #000000; stroke-width: 0.8"/>
      </g>
     </g>
     <g id="text_33">
      <!-- 0.0 -->
      <g transform="translate(36.706875 292.505296) scale(0.1 -0.1)">
       <use xlink:href="#DejaVuSans-30"/>
       <use xlink:href="#DejaVuSans-2e" x="63.623047"/>
       <use xlink:href="#DejaVuSans-30" x="95.410156"/>
      </g>
     </g>
    </g>
    <g id="text_34">
     <!-- $\langle \hat J_z \rangle$ -->
     <g transform="translate(24.727187 325.653255) rotate(-90) scale(0.1 -0.1)">
      <defs>
       <path id="DejaVuSans-Oblique-7a" d="M 744 3500 
L 3475 3500 
L 3372 2975 
L 738 459 
L 2913 459 
L 2822 0 
L -19 0 
L 84 525 
L 2719 3041 
L 653 3041 
L 744 3500 
z
" transform="scale(0.015625)"/>
      </defs>
      <use xlink:href="#DejaVuSans-27e8" transform="translate(0 0.609375)"/>
      <use xlink:href="#DejaVuSans-302" transform="translate(91.345703 30.015625)"/>
      <use xlink:href="#DejaVuSans-Oblique-4a" transform="translate(39.013672 0.609375)"/>
      <use xlink:href="#DejaVuSans-Oblique-7a" transform="translate(82.986328 -15.796875) scale(0.7)"/>
      <use xlink:href="#DejaVuSans-27e9" transform="translate(122.463867 0.609375)"/>
     </g>
    </g>
   </g>
   <g id="line2d_51">
    <path d="M 64.171185 353.912114 
L 73.293555 287.137475 
L 82.415925 287.185772 
L 91.538295 289.698384 
L 100.660665 287.756248 
L 109.783035 287.910133 
L 118.905405 288.581292 
L 128.027775 285.953309 
L 137.150145 286.630417 
L 146.272515 290.545824 
L 155.394885 286.297328 
" clip-path="url(#p42e2aaa814)" style="fill: none; stroke: #1f77b4; stroke-width: 1.5; stroke-linecap: square"/>
   </g>
   <g id="line2d_52">
    <path d="M 64.171185 353.912114 
L 73.293555 291.433451 
L 82.415925 290.018289 
L 91.538295 290.751137 
L 100.660665 289.677929 
L 109.783035 287.903699 
L 118.905405 288.211166 
L 128.027775 289.10558 
L 137.150145 287.166553 
L 146.272515 290.402388 
L 155.394885 287.137244 
" clip-path="url(#p42e2aaa814)" style="fill: none; stroke-dasharray: 1.5,2.475; stroke-dashoffset: 0; stroke: #ff7f0e; stroke-width: 1.5"/>
   </g>
   <g id="patch_33">
    <path d="M 59.61 357.548 
L 59.61 277.558511 
" style="fill: none; stroke: #000000; stroke-width: 0.8; stroke-linejoin: miter; stroke-linecap: square"/>
   </g>
   <g id="patch_34">
    <path d="M 159.95607 357.548 
L 159.95607 277.558511 
" style="fill: none; stroke: #000000; stroke-width: 0.8; stroke-linejoin: miter; stroke-linecap: square"/>
   </g>
   <g id="patch_35">
    <path d="M 59.61 357.548 
L 159.95607 357.548 
" style="fill: none; stroke: #000000; stroke-width: 0.8; stroke-linejoin: miter; stroke-linecap: square"/>
   </g>
   <g id="patch_36">
    <path d="M 59.61 277.558511 
L 159.95607 277.558511 
" style="fill: none; stroke: #000000; stroke-width: 0.8; stroke-linejoin: miter; stroke-linecap: square"/>
   </g>
   <g id="text_35">
    <!-- (g) -->
    <g transform="translate(29.506179 287.957144) scale(0.1 -0.1)">
     <defs>
      <path id="DejaVuSans-67" d="M 2906 1791 
Q 2906 2416 2648 2759 
Q 2391 3103 1925 3103 
Q 1463 3103 1205 2759 
Q 947 2416 947 1791 
Q 947 1169 1205 825 
Q 1463 481 1925 481 
Q 2391 481 2648 825 
Q 2906 1169 2906 1791 
z
M 3481 434 
Q 3481 -459 3084 -895 
Q 2688 -1331 1869 -1331 
Q 1566 -1331 1297 -1286 
Q 1028 -1241 775 -1147 
L 775 -588 
Q 1028 -725 1275 -790 
Q 1522 -856 1778 -856 
Q 2344 -856 2625 -561 
Q 2906 -266 2906 331 
L 2906 616 
Q 2728 306 2450 153 
Q 2172 0 1784 0 
Q 1141 0 747 490 
Q 353 981 353 1791 
Q 353 2603 747 3093 
Q 1141 3584 1784 3584 
Q 2172 3584 2450 3431 
Q 2728 3278 2906 2969 
L 2906 3500 
L 3481 3500 
L 3481 434 
z
" transform="scale(0.015625)"/>
     </defs>
     <use xlink:href="#DejaVuSans-28"/>
     <use xlink:href="#DejaVuSans-67" x="39.013672"/>
     <use xlink:href="#DejaVuSans-29" x="102.490234"/>
    </g>
   </g>
  </g>
  <g id="axes_8">
   <g id="patch_37">
    <path d="M 220.50207 357.548 
L 320.84814 357.548 
L 320.84814 277.558511 
L 220.50207 277.558511 
z
" style="fill: #ffffff"/>
   </g>
   <g id="PolyCollection_15">
    <defs>
     <path id="md77eb35a29" d="M 225.063255 -80.266687 
L 225.063255 -71.280639 
L 234.185625 -83.676718 
L 243.307995 -86.577524 
L 252.430365 -89.371471 
L 261.552735 -77.823487 
L 270.675105 -86.197695 
L 279.797475 -67.212713 
L 288.919845 -72.084754 
L 298.042215 -79.490445 
L 307.164585 -75.897617 
L 316.286955 -68.759723 
L 316.286955 -90.762404 
L 316.286955 -90.762404 
L 307.164585 -116.805241 
L 298.042215 -96.532936 
L 288.919845 -86.533867 
L 279.797475 -109.374356 
L 270.675105 -122.005604 
L 261.552735 -82.343014 
L 252.430365 -96.679478 
L 243.307995 -98.723882 
L 234.185625 -113.340635 
L 225.063255 -80.266687 
z
" style="stroke: #1f77b4; stroke-opacity: 0.2"/>
    </defs>
    <g clip-path="url(#pf0b8f5bbdf)">
     <use xlink:href="#md77eb35a29" x="0" y="403.2" style="fill: #1f77b4; fill-opacity: 0.2; stroke: #1f77b4; stroke-opacity: 0.2"/>
    </g>
   </g>
   <g id="PolyCollection_16">
    <defs>
     <path id="m4e1a7d4971" d="M 225.063255 -83.660072 
L 225.063255 -64.495901 
L 234.185625 -67.508565 
L 243.307995 -78.983637 
L 252.430365 -79.789948 
L 261.552735 -49.83 
L 270.675105 -70.665485 
L 279.797475 -68.284541 
L 288.919845 -63.385455 
L 298.042215 -55.338269 
L 307.164585 -73.538033 
L 316.286955 -49.287886 
L 316.286955 -68.924381 
L 316.286955 -68.924381 
L 307.164585 -93.685731 
L 298.042215 -72.59934 
L 288.919845 -68.320794 
L 279.797475 -111.494308 
L 270.675105 -83.806141 
L 261.552735 -98.750039 
L 252.430365 -118.290407 
L 243.307995 -93.550753 
L 234.185625 -85.5156 
L 225.063255 -83.660072 
z
" style="stroke: #ff7f0e; stroke-opacity: 0.2"/>
    </defs>
    <g clip-path="url(#pf0b8f5bbdf)">
     <use xlink:href="#m4e1a7d4971" x="0" y="403.2" style="fill: #ff7f0e; fill-opacity: 0.2; stroke: #ff7f0e; stroke-opacity: 0.2"/>
    </g>
   </g>
   <g id="matplotlib.axis_15">
    <g id="xtick_22">
     <g id="line2d_53">
      <g>
       <use xlink:href="#md837e58fd4" x="224.151018" y="357.548" style="stroke: #000000; stroke-width: 0.8"/>
      </g>
     </g>
     <g id="text_36">
      <!-- 0 -->
      <g transform="translate(220.969768 372.146437) scale(0.1 -0.1)">
       <use xlink:href="#DejaVuSans-30"/>
      </g>
     </g>
    </g>
    <g id="xtick_23">
     <g id="line2d_54">
      <g>
       <use xlink:href="#md837e58fd4" x="269.762868" y="357.548" style="stroke: #000000; stroke-width: 0.8"/>
      </g>
     </g>
     <g id="text_37">
      <!-- 50 -->
      <g transform="translate(263.400368 372.146437) scale(0.1 -0.1)">
       <use xlink:href="#DejaVuSans-35"/>
       <use xlink:href="#DejaVuSans-30" x="63.623047"/>
      </g>
     </g>
    </g>
    <g id="xtick_24">
     <g id="line2d_55">
      <g>
       <use xlink:href="#md837e58fd4" x="315.374718" y="357.548" style="stroke: #000000; stroke-width: 0.8"/>
      </g>
     </g>
     <g id="text_38">
      <!-- 100 -->
      <g transform="translate(305.830968 372.146437) scale(0.1 -0.1)">
       <use xlink:href="#DejaVuSans-31"/>
       <use xlink:href="#DejaVuSans-30" x="63.623047"/>
       <use xlink:href="#DejaVuSans-30" x="127.246094"/>
      </g>
     </g>
    </g>
    <g id="text_39">
     <!-- time (units of $\omega_\mathrm{r}^{-1}$) -->
     <g transform="translate(223.875105 384.726125) scale(0.1 -0.1)">
      <use xlink:href="#DejaVuSans-74" transform="translate(0 0.684375)"/>
      <use xlink:href="#DejaVuSans-69" transform="translate(39.208984 0.684375)"/>
      <use xlink:href="#DejaVuSans-6d" transform="translate(66.992188 0.684375)"/>
      <use xlink:href="#DejaVuSans-65" transform="translate(164.404297 0.684375)"/>
      <use xlink:href="#DejaVuSans-20" transform="translate(225.927734 0.684375)"/>
      <use xlink:href="#DejaVuSans-28" transform="translate(257.714844 0.684375)"/>
      <use xlink:href="#DejaVuSans-75" transform="translate(296.728516 0.684375)"/>
      <use xlink:href="#DejaVuSans-6e" transform="translate(360.107422 0.684375)"/>
      <use xlink:href="#DejaVuSans-69" transform="translate(423.486328 0.684375)"/>
      <use xlink:href="#DejaVuSans-74" transform="translate(451.269531 0.684375)"/>
      <use xlink:href="#DejaVuSans-73" transform="translate(490.478516 0.684375)"/>
      <use xlink:href="#DejaVuSans-20" transform="translate(542.578125 0.684375)"/>
      <use xlink:href="#DejaVuSans-6f" transform="translate(574.365234 0.684375)"/>
      <use xlink:href="#DejaVuSans-66" transform="translate(635.546875 0.684375)"/>
      <use xlink:href="#DejaVuSans-20" transform="translate(670.751953 0.684375)"/>
      <use xlink:href="#DejaVuSans-Oblique-3c9" transform="translate(702.539062 0.684375)"/>
      <use xlink:href="#DejaVuSans-2212" transform="translate(790.745443 38.965625) scale(0.7)"/>
      <use xlink:href="#DejaVuSans-31" transform="translate(849.397786 38.965625) scale(0.7)"/>
      <use xlink:href="#DejaVuSans-72" transform="translate(786.279297 -26.659375) scale(0.7)"/>
      <use xlink:href="#DejaVuSans-29" transform="translate(896.668294 0.684375)"/>
     </g>
    </g>
   </g>
   <g id="matplotlib.axis_16">
    <g id="ytick_18">
     <g id="line2d_56">
      <g>
       <use xlink:href="#mdd655c1e2a" x="220.50207" y="320.966422" style="stroke: #000000; stroke-width: 0.8"/>
      </g>
     </g>
     <g id="text_40">
      <!-- 0.5 -->
      <g transform="translate(197.598945 324.765641) scale(0.1 -0.1)">
       <use xlink:href="#DejaVuSans-30"/>
       <use xlink:href="#DejaVuSans-2e" x="63.623047"/>
       <use xlink:href="#DejaVuSans-35" x="95.410156"/>
      </g>
     </g>
    </g>
    <g id="ytick_19">
     <g id="line2d_57">
      <g>
       <use xlink:href="#mdd655c1e2a" x="220.50207" y="280.81098" style="stroke: #000000; stroke-width: 0.8"/>
      </g>
     </g>
     <g id="text_41">
      <!-- 0.6 -->
      <g transform="translate(197.598945 284.610199) scale(0.1 -0.1)">
       <defs>
        <path id="DejaVuSans-36" d="M 2113 2584 
Q 1688 2584 1439 2293 
Q 1191 2003 1191 1497 
Q 1191 994 1439 701 
Q 1688 409 2113 409 
Q 2538 409 2786 701 
Q 3034 994 3034 1497 
Q 3034 2003 2786 2293 
Q 2538 2584 2113 2584 
z
M 3366 4563 
L 3366 3988 
Q 3128 4100 2886 4159 
Q 2644 4219 2406 4219 
Q 1781 4219 1451 3797 
Q 1122 3375 1075 2522 
Q 1259 2794 1537 2939 
Q 1816 3084 2150 3084 
Q 2853 3084 3261 2657 
Q 3669 2231 3669 1497 
Q 3669 778 3244 343 
Q 2819 -91 2113 -91 
Q 1303 -91 875 529 
Q 447 1150 447 2328 
Q 447 3434 972 4092 
Q 1497 4750 2381 4750 
Q 2619 4750 2861 4703 
Q 3103 4656 3366 4563 
z
" transform="scale(0.015625)"/>
       </defs>
       <use xlink:href="#DejaVuSans-30"/>
       <use xlink:href="#DejaVuSans-2e" x="63.623047"/>
       <use xlink:href="#DejaVuSans-36" x="95.410156"/>
      </g>
     </g>
    </g>
    <g id="text_42">
     <!-- $\mathcal{B}$ -->
     <g transform="translate(194.019258 321.203255) rotate(-90) scale(0.1 -0.1)">
      <defs>
       <path id="STIXNonUnicode-Italic-e22e" d="M 2080 3341 
L 2099 3328 
Q 2810 4288 3853 4288 
Q 4154 4288 4346 4102 
Q 4538 3917 4538 3622 
Q 4538 3213 4173 2893 
Q 3808 2573 3430 2451 
Q 3866 2406 4144 2169 
Q 4422 1933 4422 1485 
Q 4422 1152 4211 857 
Q 4000 563 3677 377 
Q 3354 192 2986 86 
Q 2618 -19 2291 -19 
Q 1792 -19 1517 186 
L 1587 326 
Q 1843 198 2272 198 
Q 2854 198 3296 595 
Q 3738 992 3738 1478 
Q 3738 1798 3459 2003 
Q 3181 2208 2630 2208 
L 2208 2208 
L 2278 2451 
L 2400 2451 
Q 2611 2451 2867 2508 
Q 3123 2566 3385 2681 
Q 3648 2797 3824 3008 
Q 4000 3219 4000 3482 
Q 4000 3987 3456 3987 
Q 3245 3987 3008 3865 
Q 2771 3744 2624 3590 
Q 2349 3315 2144 2908 
Q 1939 2502 1715 1728 
L 1478 909 
Q 1344 448 1193 253 
Q 1043 58 666 13 
Q 544 0 224 0 
L 282 154 
Q 474 154 576 333 
Q 678 512 870 1190 
L 1536 3514 
Q 1555 3571 1555 3667 
Q 1555 3859 1286 3859 
L 1146 3859 
L 1171 4013 
Q 1875 4077 2355 4237 
L 2080 3341 
z
" transform="scale(0.015625)"/>
      </defs>
      <use xlink:href="#STIXNonUnicode-Italic-e22e"/>
     </g>
    </g>
   </g>
   <g id="line2d_58">
    <path d="M 225.063255 327.169642 
L 234.185625 306.041891 
L 243.307995 309.998167 
L 252.430365 310.648045 
L 261.552735 323.128499 
L 270.675105 303.435294 
L 279.797475 318.152142 
L 288.919845 325.721665 
L 298.042215 315.97063 
L 307.164585 309.840562 
L 316.286955 324.1072 
" clip-path="url(#pf0b8f5bbdf)" style="fill: none; stroke: #1f77b4; stroke-width: 1.5; stroke-linecap: square"/>
   </g>
   <g id="line2d_59">
    <path d="M 225.063255 329.052527 
L 234.185625 328.392554 
L 243.307995 317.037433 
L 252.430365 303.892336 
L 261.552735 325.120026 
L 270.675105 324.54347 
L 279.797475 312.882138 
L 288.919845 337.473528 
L 298.042215 337.862235 
L 307.164585 320.919952 
L 316.286955 341.582462 
" clip-path="url(#pf0b8f5bbdf)" style="fill: none; stroke-dasharray: 1.5,2.475; stroke-dashoffset: 0; stroke: #ff7f0e; stroke-width: 1.5"/>
   </g>
   <g id="patch_38">
    <path d="M 220.50207 357.548 
L 220.50207 277.558511 
" style="fill: none; stroke: #000000; stroke-width: 0.8; stroke-linejoin: miter; stroke-linecap: square"/>
   </g>
   <g id="patch_39">
    <path d="M 320.84814 357.548 
L 320.84814 277.558511 
" style="fill: none; stroke: #000000; stroke-width: 0.8; stroke-linejoin: miter; stroke-linecap: square"/>
   </g>
   <g id="patch_40">
    <path d="M 220.50207 357.548 
L 320.84814 357.548 
" style="fill: none; stroke: #000000; stroke-width: 0.8; stroke-linejoin: miter; stroke-linecap: square"/>
   </g>
   <g id="patch_41">
    <path d="M 220.50207 277.558511 
L 320.84814 277.558511 
" style="fill: none; stroke: #000000; stroke-width: 0.8; stroke-linejoin: miter; stroke-linecap: square"/>
   </g>
   <g id="text_43">
    <!-- (h) -->
    <g transform="translate(190.398249 287.957144) scale(0.1 -0.1)">
     <defs>
      <path id="DejaVuSans-68" d="M 3513 2113 
L 3513 0 
L 2938 0 
L 2938 2094 
Q 2938 2591 2744 2837 
Q 2550 3084 2163 3084 
Q 1697 3084 1428 2787 
Q 1159 2491 1159 1978 
L 1159 0 
L 581 0 
L 581 4863 
L 1159 4863 
L 1159 2956 
Q 1366 3272 1645 3428 
Q 1925 3584 2291 3584 
Q 2894 3584 3203 3211 
Q 3513 2838 3513 2113 
z
" transform="scale(0.015625)"/>
     </defs>
     <use xlink:href="#DejaVuSans-28"/>
     <use xlink:href="#DejaVuSans-68" x="39.013672"/>
     <use xlink:href="#DejaVuSans-29" x="102.392578"/>
    </g>
   </g>
  </g>
 </g>
 <defs>
  <clipPath id="p0d64c945a6">
   <rect x="59.61" y="12.502802" width="100.34607" height="79.989489"/>
  </clipPath>
  <clipPath id="pc836dcd486">
   <rect x="220.50207" y="12.502802" width="100.34607" height="79.989489"/>
  </clipPath>
  <clipPath id="pb2e37a9650">
   <rect x="59.61" y="100.854705" width="100.34607" height="79.989489"/>
  </clipPath>
  <clipPath id="pa0e294d5b2">
   <rect x="220.50207" y="100.854705" width="100.34607" height="79.989489"/>
  </clipPath>
  <clipPath id="pc96ac10684">
   <rect x="59.61" y="189.206608" width="100.34607" height="79.989489"/>
  </clipPath>
  <clipPath id="pd4e91425a7">
   <rect x="220.50207" y="189.206608" width="100.34607" height="79.989489"/>
  </clipPath>
  <clipPath id="p42e2aaa814">
   <rect x="59.61" y="277.558511" width="100.34607" height="79.989489"/>
  </clipPath>
  <clipPath id="pf0b8f5bbdf">
   <rect x="220.50207" y="277.558511" width="100.34607" height="79.989489"/>
  </clipPath>
 </defs>
</svg>
