<?xml version="1.0" encoding="utf-8" standalone="no"?>
<!DOCTYPE svg PUBLIC "-//W3C//DTD SVG 1.1//EN"
  "http://www.w3.org/Graphics/SVG/1.1/DTD/svg11.dtd">
<svg xmlns:xlink="http://www.w3.org/1999/xlink" width="334.8pt" height="403.2pt" viewBox="0 0 334.8 403.2" xmlns="http://www.w3.org/2000/svg" version="1.1">
 <metadata>
  <rdf:RDF xmlns:dc="http://purl.org/dc/elements/1.1/" xmlns:cc="http://creativecommons.org/ns#" xmlns:rdf="http://www.w3.org/1999/02/22-rdf-syntax-ns#">
   <cc:Work>
    <dc:type rdf:resource="http://purl.org/dc/dcmitype/StillImage"/>
    <dc:date>2023-11-07T12:57:25.991432</dc:date>
    <dc:format>image/svg+xml</dc:format>
    <dc:creator>
     <cc:Agent>
      <dc:title>Matplotlib v3.7.1, https://matplotlib.org/</dc:title>
     </cc:Agent>
    </dc:creator>
   </cc:Work>
  </rdf:RDF>
 </metadata>
 <defs>
  <style type="text/css">*{stroke-linejoin: round; stroke-linecap: butt}</style>
 </defs>
 <g id="figure_1">
  <g id="patch_1">
   <path d="M 0 403.2 
L 334.8 403.2 
L 334.8 0 
L 0 0 
z
" style="fill: #ffffff"/>
  </g>
  <g id="axes_1">
   <g id="patch_2">
    <path d="M 59.61 92.612 
L 159.95607 92.612 
L 159.95607 10.8 
L 59.61 10.8 
z
" style="fill: #ffffff"/>
   </g>
   <g id="PolyCollection_1">
    <defs>
     <path id="mb914fa9c01" d="M 64.171185 -350.338245 
L 64.171185 -347.85933 
L 73.293555 -325.192492 
L 82.415925 -330.709747 
L 91.538295 -329.657275 
L 100.660665 -345.856461 
L 109.783035 -346.217279 
L 118.905405 -327.648598 
L 128.027775 -328.718063 
L 137.150145 -324.094699 
L 146.272515 -330.557586 
L 155.394885 -324.705973 
L 155.394885 -347.599616 
L 155.394885 -347.599616 
L 146.272515 -376.941151 
L 137.150145 -376.094167 
L 128.027775 -365.479076 
L 118.905405 -376.410443 
L 109.783035 -370.63077 
L 100.660665 -365.361634 
L 91.538295 -353.588973 
L 82.415925 -377.569594 
L 73.293555 -358.761816 
L 64.171185 -350.338245 
z
" style="stroke: #1f77b4; stroke-opacity: 0.2"/>
    </defs>
    <g clip-path="url(#p0f5a637a50)">
     <use xlink:href="#mb914fa9c01" x="0" y="403.2" style="fill: #1f77b4; fill-opacity: 0.2; stroke: #1f77b4; stroke-opacity: 0.2"/>
    </g>
   </g>
   <g id="PolyCollection_2">
    <defs>
     <path id="m469a69a81c" d="M 64.171185 -353.712568 
L 64.171185 -349.858213 
L 73.293555 -338.586403 
L 82.415925 -336.147776 
L 91.538295 -344.726157 
L 100.660665 -342.129703 
L 109.783035 -322.309088 
L 118.905405 -359.662769 
L 128.027775 -331.952516 
L 137.150145 -346.82544 
L 146.272515 -342.439582 
L 155.394885 -359.19326 
L 155.394885 -388.681273 
L 155.394885 -388.681273 
L 146.272515 -362.152069 
L 137.150145 -364.8994 
L 128.027775 -354.390409 
L 118.905405 -364.803176 
L 109.783035 -336.310904 
L 100.660665 -351.833789 
L 91.538295 -358.242243 
L 82.415925 -366.570744 
L 73.293555 -381.646716 
L 64.171185 -353.712568 
z
" style="stroke: #ff7f0e; stroke-opacity: 0.2"/>
    </defs>
    <g clip-path="url(#p0f5a637a50)">
     <use xlink:href="#m469a69a81c" x="0" y="403.2" style="fill: #ff7f0e; fill-opacity: 0.2; stroke: #ff7f0e; stroke-opacity: 0.2"/>
    </g>
   </g>
   <g id="matplotlib.axis_1">
    <g id="xtick_1">
     <g id="line2d_1">
      <defs>
       <path id="madc06ee125" d="M 0 0 
L 0 3.5 
" style="stroke: #000000; stroke-width: 0.8"/>
      </defs>
      <g>
       <use xlink:href="#madc06ee125" x="63.258948" y="92.612" style="stroke: #000000; stroke-width: 0.8"/>
      </g>
     </g>
    </g>
    <g id="xtick_2">
     <g id="line2d_2">
      <g>
       <use xlink:href="#madc06ee125" x="108.870798" y="92.612" style="stroke: #000000; stroke-width: 0.8"/>
      </g>
     </g>
    </g>
    <g id="xtick_3">
     <g id="line2d_3">
      <g>
       <use xlink:href="#madc06ee125" x="154.482648" y="92.612" style="stroke: #000000; stroke-width: 0.8"/>
      </g>
     </g>
    </g>
   </g>
   <g id="matplotlib.axis_2">
    <g id="ytick_1">
     <g id="line2d_4">
      <defs>
       <path id="m793a8b2793" d="M 0 0 
L -3.5 0 
" style="stroke: #000000; stroke-width: 0.8"/>
      </defs>
      <g>
       <use xlink:href="#m793a8b2793" x="59.61" y="85.959099" style="stroke: #000000; stroke-width: 0.8"/>
      </g>
     </g>
     <g id="text_1">
      <!-- −0.1 -->
      <g transform="translate(28.327187 89.758318) scale(0.1 -0.1)">
       <defs>
        <path id="DejaVuSans-2212" d="M 678 2272 
L 4684 2272 
L 4684 1741 
L 678 1741 
L 678 2272 
z
" transform="scale(0.015625)"/>
        <path id="DejaVuSans-30" d="M 2034 4250 
Q 1547 4250 1301 3770 
Q 1056 3291 1056 2328 
Q 1056 1369 1301 889 
Q 1547 409 2034 409 
Q 2525 409 2770 889 
Q 3016 1369 3016 2328 
Q 3016 3291 2770 3770 
Q 2525 4250 2034 4250 
z
M 2034 4750 
Q 2819 4750 3233 4129 
Q 3647 3509 3647 2328 
Q 3647 1150 3233 529 
Q 2819 -91 2034 -91 
Q 1250 -91 836 529 
Q 422 1150 422 2328 
Q 422 3509 836 4129 
Q 1250 4750 2034 4750 
z
" transform="scale(0.015625)"/>
        <path id="DejaVuSans-2e" d="M 684 794 
L 1344 794 
L 1344 0 
L 684 0 
L 684 794 
z
" transform="scale(0.015625)"/>
        <path id="DejaVuSans-31" d="M 794 531 
L 1825 531 
L 1825 4091 
L 703 3866 
L 703 4441 
L 1819 4666 
L 2450 4666 
L 2450 531 
L 3481 531 
L 3481 0 
L 794 0 
L 794 531 
z
" transform="scale(0.015625)"/>
       </defs>
       <use xlink:href="#DejaVuSans-2212"/>
       <use xlink:href="#DejaVuSans-30" x="83.789062"/>
       <use xlink:href="#DejaVuSans-2e" x="147.412109"/>
       <use xlink:href="#DejaVuSans-31" x="179.199219"/>
      </g>
     </g>
    </g>
    <g id="ytick_2">
     <g id="line2d_5">
      <g>
       <use xlink:href="#m793a8b2793" x="59.61" y="53.301644" style="stroke: #000000; stroke-width: 0.8"/>
      </g>
     </g>
     <g id="text_2">
      <!-- 0.0 -->
      <g transform="translate(36.706875 57.100862) scale(0.1 -0.1)">
       <use xlink:href="#DejaVuSans-30"/>
       <use xlink:href="#DejaVuSans-2e" x="63.623047"/>
       <use xlink:href="#DejaVuSans-30" x="95.410156"/>
      </g>
     </g>
    </g>
    <g id="ytick_3">
     <g id="line2d_6">
      <g>
       <use xlink:href="#m793a8b2793" x="59.61" y="20.644188" style="stroke: #000000; stroke-width: 0.8"/>
      </g>
     </g>
     <g id="text_3">
      <!-- 0.1 -->
      <g transform="translate(36.706875 24.443407) scale(0.1 -0.1)">
       <use xlink:href="#DejaVuSans-30"/>
       <use xlink:href="#DejaVuSans-2e" x="63.623047"/>
       <use xlink:href="#DejaVuSans-31" x="95.410156"/>
      </g>
     </g>
    </g>
    <g id="text_4">
     <!-- $X$ -->
     <g transform="translate(24.7475 55.156) rotate(-90) scale(0.1 -0.1)">
      <defs>
       <path id="DejaVuSans-Oblique-58" d="M 878 4666 
L 1516 4666 
L 2316 2981 
L 3763 4666 
L 4500 4666 
L 2578 2438 
L 3738 0 
L 3103 0 
L 2163 1966 
L 459 0 
L -275 0 
L 1906 2509 
L 878 4666 
z
" transform="scale(0.015625)"/>
      </defs>
      <use xlink:href="#DejaVuSans-Oblique-58" transform="translate(0 0.09375)"/>
     </g>
    </g>
   </g>
   <g id="line2d_7">
    <path d="M 64.171185 54.078382 
L 73.293555 58.247512 
L 82.415925 55.361615 
L 91.538295 59.612112 
L 100.660665 48.772639 
L 109.783035 44.310144 
L 118.905405 55.488772 
L 128.027775 50.40562 
L 137.150145 56.889823 
L 146.272515 48.172066 
L 155.394885 63.266721 
" clip-path="url(#p0f5a637a50)" style="fill: none; stroke: #1f77b4; stroke-width: 1.5; stroke-linecap: square"/>
   </g>
   <g id="line2d_8">
    <path d="M 64.171185 51.41461 
L 73.293555 43.083441 
L 82.415925 51.84074 
L 91.538295 51.7158 
L 100.660665 56.218254 
L 109.783035 73.890004 
L 118.905405 40.967027 
L 128.027775 60.028538 
L 137.150145 47.33758 
L 146.272515 50.904174 
L 155.394885 29.262734 
" clip-path="url(#p0f5a637a50)" style="fill: none; stroke-dasharray: 1.5,2.475; stroke-dashoffset: 0; stroke: #ff7f0e; stroke-width: 1.5"/>
   </g>
   <g id="patch_3">
    <path d="M 59.61 92.612 
L 59.61 10.8 
" style="fill: none; stroke: #000000; stroke-width: 0.8; stroke-linejoin: miter; stroke-linecap: square"/>
   </g>
   <g id="patch_4">
    <path d="M 159.95607 92.612 
L 159.95607 10.8 
" style="fill: none; stroke: #000000; stroke-width: 0.8; stroke-linejoin: miter; stroke-linecap: square"/>
   </g>
   <g id="patch_5">
    <path d="M 59.61 92.612 
L 159.95607 92.612 
" style="fill: none; stroke: #000000; stroke-width: 0.8; stroke-linejoin: miter; stroke-linecap: square"/>
   </g>
   <g id="patch_6">
    <path d="M 59.61 10.8 
L 159.95607 10.8 
" style="fill: none; stroke: #000000; stroke-width: 0.8; stroke-linejoin: miter; stroke-linecap: square"/>
   </g>
   <g id="text_5">
    <!-- (a) -->
    <g transform="translate(29.506179 21.43556) scale(0.1 -0.1)">
     <defs>
      <path id="DejaVuSans-28" d="M 1984 4856 
Q 1566 4138 1362 3434 
Q 1159 2731 1159 2009 
Q 1159 1288 1364 580 
Q 1569 -128 1984 -844 
L 1484 -844 
Q 1016 -109 783 600 
Q 550 1309 550 2009 
Q 550 2706 781 3412 
Q 1013 4119 1484 4856 
L 1984 4856 
z
" transform="scale(0.015625)"/>
      <path id="DejaVuSans-61" d="M 2194 1759 
Q 1497 1759 1228 1600 
Q 959 1441 959 1056 
Q 959 750 1161 570 
Q 1363 391 1709 391 
Q 2188 391 2477 730 
Q 2766 1069 2766 1631 
L 2766 1759 
L 2194 1759 
z
M 3341 1997 
L 3341 0 
L 2766 0 
L 2766 531 
Q 2569 213 2275 61 
Q 1981 -91 1556 -91 
Q 1019 -91 701 211 
Q 384 513 384 1019 
Q 384 1609 779 1909 
Q 1175 2209 1959 2209 
L 2766 2209 
L 2766 2266 
Q 2766 2663 2505 2880 
Q 2244 3097 1772 3097 
Q 1472 3097 1187 3025 
Q 903 2953 641 2809 
L 641 3341 
Q 956 3463 1253 3523 
Q 1550 3584 1831 3584 
Q 2591 3584 2966 3190 
Q 3341 2797 3341 1997 
z
" transform="scale(0.015625)"/>
      <path id="DejaVuSans-29" d="M 513 4856 
L 1013 4856 
Q 1481 4119 1714 3412 
Q 1947 2706 1947 2009 
Q 1947 1309 1714 600 
Q 1481 -109 1013 -844 
L 513 -844 
Q 928 -128 1133 580 
Q 1338 1288 1338 2009 
Q 1338 2731 1133 3434 
Q 928 4138 513 4856 
z
" transform="scale(0.015625)"/>
     </defs>
     <use xlink:href="#DejaVuSans-28"/>
     <use xlink:href="#DejaVuSans-61" x="39.013672"/>
     <use xlink:href="#DejaVuSans-29" x="100.292969"/>
    </g>
   </g>
  </g>
  <g id="axes_2">
   <g id="patch_7">
    <path d="M 220.50207 92.612 
L 320.84814 92.612 
L 320.84814 10.8 
L 220.50207 10.8 
z
" style="fill: #ffffff"/>
   </g>
   <g id="PolyCollection_3">
    <defs>
     <path id="mfa43695729" d="M 225.063255 -352.98545 
L 225.063255 -347.705925 
L 234.185625 -334.063669 
L 243.307995 -340.639953 
L 252.430365 -345.202082 
L 261.552735 -335.779805 
L 270.675105 -322.03927 
L 279.797475 -329.479113 
L 288.919845 -322.686316 
L 298.042215 -314.306727 
L 307.164585 -332.328135 
L 316.286955 -352.021637 
L 316.286955 -375.848116 
L 316.286955 -375.848116 
L 307.164585 -369.830215 
L 298.042215 -372.620839 
L 288.919845 -383.170704 
L 279.797475 -363.676627 
L 270.675105 -354.901466 
L 261.552735 -366.387161 
L 252.430365 -369.940896 
L 243.307995 -364.839646 
L 234.185625 -363.671028 
L 225.063255 -352.98545 
z
" style="stroke: #1f77b4; stroke-opacity: 0.2"/>
    </defs>
    <g clip-path="url(#pd646149fdb)">
     <use xlink:href="#mfa43695729" x="0" y="403.2" style="fill: #1f77b4; fill-opacity: 0.2; stroke: #1f77b4; stroke-opacity: 0.2"/>
    </g>
   </g>
   <g id="PolyCollection_4">
    <defs>
     <path id="medd7ce50d2" d="M 225.063255 -348.465962 
L 225.063255 -346.850436 
L 234.185625 -336.261203 
L 243.307995 -352.575729 
L 252.430365 -354.039443 
L 261.552735 -357.328683 
L 270.675105 -330.083401 
L 279.797475 -371.513085 
L 288.919845 -342.649925 
L 298.042215 -336.146232 
L 307.164585 -342.802229 
L 316.286955 -339.227864 
L 316.286955 -339.801814 
L 316.286955 -339.801814 
L 307.164585 -357.300198 
L 298.042215 -368.816659 
L 288.919845 -346.632567 
L 279.797475 -371.783688 
L 270.675105 -334.953977 
L 261.552735 -365.520729 
L 252.430365 -358.954932 
L 243.307995 -359.341966 
L 234.185625 -360.271978 
L 225.063255 -348.465962 
z
" style="stroke: #ff7f0e; stroke-opacity: 0.2"/>
    </defs>
    <g clip-path="url(#pd646149fdb)">
     <use xlink:href="#medd7ce50d2" x="0" y="403.2" style="fill: #ff7f0e; fill-opacity: 0.2; stroke: #ff7f0e; stroke-opacity: 0.2"/>
    </g>
   </g>
   <g id="matplotlib.axis_3">
    <g id="xtick_4">
     <g id="line2d_9">
      <g>
       <use xlink:href="#madc06ee125" x="224.151018" y="92.612" style="stroke: #000000; stroke-width: 0.8"/>
      </g>
     </g>
    </g>
    <g id="xtick_5">
     <g id="line2d_10">
      <g>
       <use xlink:href="#madc06ee125" x="269.762868" y="92.612" style="stroke: #000000; stroke-width: 0.8"/>
      </g>
     </g>
    </g>
    <g id="xtick_6">
     <g id="line2d_11">
      <g>
       <use xlink:href="#madc06ee125" x="315.374718" y="92.612" style="stroke: #000000; stroke-width: 0.8"/>
      </g>
     </g>
    </g>
   </g>
   <g id="matplotlib.axis_4">
    <g id="ytick_4">
     <g id="line2d_12">
      <g>
       <use xlink:href="#m793a8b2793" x="220.50207" y="85.959099" style="stroke: #000000; stroke-width: 0.8"/>
      </g>
     </g>
     <g id="text_6">
      <!-- −0.1 -->
      <g transform="translate(189.219258 89.758318) scale(0.1 -0.1)">
       <use xlink:href="#DejaVuSans-2212"/>
       <use xlink:href="#DejaVuSans-30" x="83.789062"/>
       <use xlink:href="#DejaVuSans-2e" x="147.412109"/>
       <use xlink:href="#DejaVuSans-31" x="179.199219"/>
      </g>
     </g>
    </g>
    <g id="ytick_5">
     <g id="line2d_13">
      <g>
       <use xlink:href="#m793a8b2793" x="220.50207" y="53.301644" style="stroke: #000000; stroke-width: 0.8"/>
      </g>
     </g>
     <g id="text_7">
      <!-- 0.0 -->
      <g transform="translate(197.598945 57.100862) scale(0.1 -0.1)">
       <use xlink:href="#DejaVuSans-30"/>
       <use xlink:href="#DejaVuSans-2e" x="63.623047"/>
       <use xlink:href="#DejaVuSans-30" x="95.410156"/>
      </g>
     </g>
    </g>
    <g id="ytick_6">
     <g id="line2d_14">
      <g>
       <use xlink:href="#m793a8b2793" x="220.50207" y="20.644188" style="stroke: #000000; stroke-width: 0.8"/>
      </g>
     </g>
     <g id="text_8">
      <!-- 0.1 -->
      <g transform="translate(197.598945 24.443407) scale(0.1 -0.1)">
       <use xlink:href="#DejaVuSans-30"/>
       <use xlink:href="#DejaVuSans-2e" x="63.623047"/>
       <use xlink:href="#DejaVuSans-31" x="95.410156"/>
      </g>
     </g>
    </g>
    <g id="text_9">
     <!-- $Y$ -->
     <g transform="translate(185.63957 54.806) rotate(-90) scale(0.1 -0.1)">
      <defs>
       <path id="DejaVuSans-Oblique-59" d="M 403 4666 
L 1081 4666 
L 1953 2747 
L 3616 4666 
L 4325 4666 
L 2209 2222 
L 1778 0 
L 1147 0 
L 1575 2222 
L 403 4666 
z
" transform="scale(0.015625)"/>
      </defs>
      <use xlink:href="#DejaVuSans-Oblique-59" transform="translate(0 0.09375)"/>
     </g>
    </g>
   </g>
   <g id="line2d_15">
    <path d="M 225.063255 52.476185 
L 234.185625 53.976619 
L 243.307995 45.972926 
L 252.430365 48.284926 
L 261.552735 51.291471 
L 270.675105 59.595527 
L 279.797475 55.231911 
L 288.919845 45.302637 
L 298.042215 55.869203 
L 307.164585 55.516386 
L 316.286955 40.817791 
" clip-path="url(#pd646149fdb)" style="fill: none; stroke: #1f77b4; stroke-width: 1.5; stroke-linecap: square"/>
   </g>
   <g id="line2d_16">
    <path d="M 225.063255 55.541801 
L 234.185625 54.93341 
L 243.307995 47.241152 
L 252.430365 46.702812 
L 261.552735 41.775294 
L 270.675105 70.681311 
L 279.797475 31.551614 
L 288.919845 58.558754 
L 298.042215 50.718554 
L 307.164585 53.148787 
L 316.286955 63.685161 
" clip-path="url(#pd646149fdb)" style="fill: none; stroke-dasharray: 1.5,2.475; stroke-dashoffset: 0; stroke: #ff7f0e; stroke-width: 1.5"/>
   </g>
   <g id="patch_8">
    <path d="M 220.50207 92.612 
L 220.50207 10.8 
" style="fill: none; stroke: #000000; stroke-width: 0.8; stroke-linejoin: miter; stroke-linecap: square"/>
   </g>
   <g id="patch_9">
    <path d="M 320.84814 92.612 
L 320.84814 10.8 
" style="fill: none; stroke: #000000; stroke-width: 0.8; stroke-linejoin: miter; stroke-linecap: square"/>
   </g>
   <g id="patch_10">
    <path d="M 220.50207 92.612 
L 320.84814 92.612 
" style="fill: none; stroke: #000000; stroke-width: 0.8; stroke-linejoin: miter; stroke-linecap: square"/>
   </g>
   <g id="patch_11">
    <path d="M 220.50207 10.8 
L 320.84814 10.8 
" style="fill: none; stroke: #000000; stroke-width: 0.8; stroke-linejoin: miter; stroke-linecap: square"/>
   </g>
   <g id="text_10">
    <!-- (b) -->
    <g transform="translate(190.398249 21.43556) scale(0.1 -0.1)">
     <defs>
      <path id="DejaVuSans-62" d="M 3116 1747 
Q 3116 2381 2855 2742 
Q 2594 3103 2138 3103 
Q 1681 3103 1420 2742 
Q 1159 2381 1159 1747 
Q 1159 1113 1420 752 
Q 1681 391 2138 391 
Q 2594 391 2855 752 
Q 3116 1113 3116 1747 
z
M 1159 2969 
Q 1341 3281 1617 3432 
Q 1894 3584 2278 3584 
Q 2916 3584 3314 3078 
Q 3713 2572 3713 1747 
Q 3713 922 3314 415 
Q 2916 -91 2278 -91 
Q 1894 -91 1617 61 
Q 1341 213 1159 525 
L 1159 0 
L 581 0 
L 581 4863 
L 1159 4863 
L 1159 2969 
z
" transform="scale(0.015625)"/>
     </defs>
     <use xlink:href="#DejaVuSans-28"/>
     <use xlink:href="#DejaVuSans-62" x="39.013672"/>
     <use xlink:href="#DejaVuSans-29" x="102.490234"/>
    </g>
   </g>
  </g>
  <g id="axes_3">
   <g id="patch_12">
    <path d="M 59.61 180.924 
L 159.95607 180.924 
L 159.95607 99.112 
L 59.61 99.112 
z
" style="fill: #ffffff"/>
   </g>
   <g id="PolyCollection_5">
    <defs>
     <path id="maf94f52615" d="M 64.171185 -268.256415 
L 64.171185 -268.256415 
L 73.293555 -248.008963 
L 82.415925 -265.705084 
L 91.538295 -260.742282 
L 100.660665 -265.272837 
L 109.783035 -262.571634 
L 118.905405 -266.408428 
L 128.027775 -260.815218 
L 137.150145 -262.700162 
L 146.272515 -264.793074 
L 155.394885 -264.967566 
L 155.394885 -272.425345 
L 155.394885 -272.425345 
L 146.272515 -277.735845 
L 137.150145 -271.637775 
L 128.027775 -269.316603 
L 118.905405 -270.82197 
L 109.783035 -268.964367 
L 100.660665 -271.222484 
L 91.538295 -270.769794 
L 82.415925 -271.025623 
L 73.293555 -281.131659 
L 64.171185 -268.256415 
z
" style="stroke: #1f77b4; stroke-opacity: 0.2"/>
    </defs>
    <g clip-path="url(#pffc9b464d0)">
     <use xlink:href="#maf94f52615" x="0" y="403.2" style="fill: #1f77b4; fill-opacity: 0.2; stroke: #1f77b4; stroke-opacity: 0.2"/>
    </g>
   </g>
   <g id="PolyCollection_6">
    <defs>
     <path id="mb0bf20d189" d="M 64.171185 -268.256415 
L 64.171185 -268.256415 
L 73.293555 -266.126737 
L 82.415925 -266.967582 
L 91.538295 -267.751194 
L 100.660665 -265.996716 
L 109.783035 -267.832956 
L 118.905405 -266.190365 
L 128.027775 -267.088303 
L 137.150145 -266.895826 
L 146.272515 -268.826922 
L 155.394885 -261.840798 
L 155.394885 -266.591867 
L 155.394885 -266.591867 
L 146.272515 -271.098729 
L 137.150145 -270.550458 
L 128.027775 -270.410174 
L 118.905405 -272.427882 
L 109.783035 -272.813327 
L 100.660665 -268.241188 
L 91.538295 -268.714224 
L 82.415925 -293.073844 
L 73.293555 -267.05128 
L 64.171185 -268.256415 
z
" style="stroke: #ff7f0e; stroke-opacity: 0.2"/>
    </defs>
    <g clip-path="url(#pffc9b464d0)">
     <use xlink:href="#mb0bf20d189" x="0" y="403.2" style="fill: #ff7f0e; fill-opacity: 0.2; stroke: #ff7f0e; stroke-opacity: 0.2"/>
    </g>
   </g>
   <g id="matplotlib.axis_5">
    <g id="xtick_7">
     <g id="line2d_17">
      <g>
       <use xlink:href="#madc06ee125" x="63.258948" y="180.924" style="stroke: #000000; stroke-width: 0.8"/>
      </g>
     </g>
    </g>
    <g id="xtick_8">
     <g id="line2d_18">
      <g>
       <use xlink:href="#madc06ee125" x="108.870798" y="180.924" style="stroke: #000000; stroke-width: 0.8"/>
      </g>
     </g>
    </g>
    <g id="xtick_9">
     <g id="line2d_19">
      <g>
       <use xlink:href="#madc06ee125" x="154.482648" y="180.924" style="stroke: #000000; stroke-width: 0.8"/>
      </g>
     </g>
    </g>
   </g>
   <g id="matplotlib.axis_6">
    <g id="ytick_7">
     <g id="line2d_20">
      <g>
       <use xlink:href="#m793a8b2793" x="59.61" y="173.425769" style="stroke: #000000; stroke-width: 0.8"/>
      </g>
     </g>
     <g id="text_11">
      <!-- −20 -->
      <g transform="translate(31.505312 177.224987) scale(0.1 -0.1)">
       <defs>
        <path id="DejaVuSans-32" d="M 1228 531 
L 3431 531 
L 3431 0 
L 469 0 
L 469 531 
Q 828 903 1448 1529 
Q 2069 2156 2228 2338 
Q 2531 2678 2651 2914 
Q 2772 3150 2772 3378 
Q 2772 3750 2511 3984 
Q 2250 4219 1831 4219 
Q 1534 4219 1204 4116 
Q 875 4013 500 3803 
L 500 4441 
Q 881 4594 1212 4672 
Q 1544 4750 1819 4750 
Q 2544 4750 2975 4387 
Q 3406 4025 3406 3419 
Q 3406 3131 3298 2873 
Q 3191 2616 2906 2266 
Q 2828 2175 2409 1742 
Q 1991 1309 1228 531 
z
" transform="scale(0.015625)"/>
       </defs>
       <use xlink:href="#DejaVuSans-2212"/>
       <use xlink:href="#DejaVuSans-32" x="83.789062"/>
       <use xlink:href="#DejaVuSans-30" x="147.412109"/>
      </g>
     </g>
    </g>
    <g id="ytick_8">
     <g id="line2d_21">
      <g>
       <use xlink:href="#m793a8b2793" x="59.61" y="134.943585" style="stroke: #000000; stroke-width: 0.8"/>
      </g>
     </g>
     <g id="text_12">
      <!-- 0 -->
      <g transform="translate(46.2475 138.742804) scale(0.1 -0.1)">
       <use xlink:href="#DejaVuSans-30"/>
      </g>
     </g>
    </g>
    <g id="text_13">
     <!-- $\langle \hat{a}_{\mathrm{r}} \rangle$ -->
     <g transform="translate(27.925625 148.618) rotate(-90) scale(0.1 -0.1)">
      <defs>
       <path id="DejaVuSans-27e8" d="M 572 2006 
L 1453 4856 
L 1984 4856 
L 1103 2006 
L 1984 -844 
L 1453 -844 
L 572 2006 
z
" transform="scale(0.015625)"/>
       <path id="DejaVuSans-302" d="M -1831 5119 
L -1369 5119 
L -603 3944 
L -1038 3944 
L -1600 4709 
L -2163 3944 
L -2597 3944 
L -1831 5119 
z
M -1600 3584 
L -1600 3584 
z
" transform="scale(0.015625)"/>
       <path id="DejaVuSans-Oblique-61" d="M 3438 1997 
L 3047 0 
L 2472 0 
L 2578 531 
Q 2325 219 2001 64 
Q 1678 -91 1281 -91 
Q 834 -91 548 182 
Q 263 456 263 884 
Q 263 1497 752 1853 
Q 1241 2209 2100 2209 
L 2900 2209 
L 2931 2363 
Q 2938 2388 2941 2417 
Q 2944 2447 2944 2509 
Q 2944 2788 2717 2942 
Q 2491 3097 2081 3097 
Q 1800 3097 1504 3025 
Q 1209 2953 897 2809 
L 997 3341 
Q 1322 3463 1633 3523 
Q 1944 3584 2234 3584 
Q 2853 3584 3176 3315 
Q 3500 3047 3500 2534 
Q 3500 2431 3484 2292 
Q 3469 2153 3438 1997 
z
M 2816 1759 
L 2241 1759 
Q 1534 1759 1195 1570 
Q 856 1381 856 984 
Q 856 709 1029 553 
Q 1203 397 1509 397 
Q 1978 397 2328 733 
Q 2678 1069 2791 1631 
L 2816 1759 
z
" transform="scale(0.015625)"/>
       <path id="DejaVuSans-72" d="M 2631 2963 
Q 2534 3019 2420 3045 
Q 2306 3072 2169 3072 
Q 1681 3072 1420 2755 
Q 1159 2438 1159 1844 
L 1159 0 
L 581 0 
L 581 3500 
L 1159 3500 
L 1159 2956 
Q 1341 3275 1631 3429 
Q 1922 3584 2338 3584 
Q 2397 3584 2469 3576 
Q 2541 3569 2628 3553 
L 2631 2963 
z
" transform="scale(0.015625)"/>
       <path id="DejaVuSans-27e9" d="M 1925 2006 
L 1044 -844 
L 513 -844 
L 1394 2006 
L 513 4856 
L 1044 4856 
L 1925 2006 
z
" transform="scale(0.015625)"/>
      </defs>
      <use xlink:href="#DejaVuSans-27e8" transform="translate(0 0.515625)"/>
      <use xlink:href="#DejaVuSans-302" transform="translate(101.911621 13.015625)"/>
      <use xlink:href="#DejaVuSans-Oblique-61" transform="translate(39.013672 0.515625)"/>
      <use xlink:href="#DejaVuSans-72" transform="translate(101.25 -15.890625) scale(0.7)"/>
      <use xlink:href="#DejaVuSans-27e9" transform="translate(132.763672 0.515625)"/>
     </g>
    </g>
   </g>
   <g id="line2d_22">
    <path d="M 64.171185 134.943585 
L 73.293555 136.302526 
L 82.415925 134.943048 
L 91.538295 135.75747 
L 100.660665 134.922176 
L 109.783035 136.540427 
L 118.905405 134.866086 
L 128.027775 136.873189 
L 137.150145 135.35675 
L 146.272515 133.913401 
L 155.394885 134.588645 
" clip-path="url(#pffc9b464d0)" style="fill: none; stroke: #1f77b4; stroke-width: 1.5; stroke-linecap: square"/>
   </g>
   <g id="line2d_23">
    <path d="M 64.171185 134.943585 
L 73.293555 136.610991 
L 82.415925 123.179287 
L 91.538295 134.967291 
L 100.660665 136.081048 
L 109.783035 132.876858 
L 118.905405 133.890876 
L 128.027775 134.450761 
L 137.150145 134.476858 
L 146.272515 133.237175 
L 155.394885 138.983667 
" clip-path="url(#pffc9b464d0)" style="fill: none; stroke-dasharray: 1.5,2.475; stroke-dashoffset: 0; stroke: #ff7f0e; stroke-width: 1.5"/>
   </g>
   <g id="patch_13">
    <path d="M 59.61 180.924 
L 59.61 99.112 
" style="fill: none; stroke: #000000; stroke-width: 0.8; stroke-linejoin: miter; stroke-linecap: square"/>
   </g>
   <g id="patch_14">
    <path d="M 159.95607 180.924 
L 159.95607 99.112 
" style="fill: none; stroke: #000000; stroke-width: 0.8; stroke-linejoin: miter; stroke-linecap: square"/>
   </g>
   <g id="patch_15">
    <path d="M 59.61 180.924 
L 159.95607 180.924 
" style="fill: none; stroke: #000000; stroke-width: 0.8; stroke-linejoin: miter; stroke-linecap: square"/>
   </g>
   <g id="patch_16">
    <path d="M 59.61 99.112 
L 159.95607 99.112 
" style="fill: none; stroke: #000000; stroke-width: 0.8; stroke-linejoin: miter; stroke-linecap: square"/>
   </g>
   <g id="text_14">
    <!-- (c) -->
    <g transform="translate(29.506179 109.74756) scale(0.1 -0.1)">
     <defs>
      <path id="DejaVuSans-63" d="M 3122 3366 
L 3122 2828 
Q 2878 2963 2633 3030 
Q 2388 3097 2138 3097 
Q 1578 3097 1268 2742 
Q 959 2388 959 1747 
Q 959 1106 1268 751 
Q 1578 397 2138 397 
Q 2388 397 2633 464 
Q 2878 531 3122 666 
L 3122 134 
Q 2881 22 2623 -34 
Q 2366 -91 2075 -91 
Q 1284 -91 818 406 
Q 353 903 353 1747 
Q 353 2603 823 3093 
Q 1294 3584 2113 3584 
Q 2378 3584 2631 3529 
Q 2884 3475 3122 3366 
z
" transform="scale(0.015625)"/>
     </defs>
     <use xlink:href="#DejaVuSans-28"/>
     <use xlink:href="#DejaVuSans-63" x="39.013672"/>
     <use xlink:href="#DejaVuSans-29" x="93.994141"/>
    </g>
   </g>
  </g>
  <g id="axes_4">
   <g id="patch_17">
    <path d="M 220.50207 180.924 
L 320.84814 180.924 
L 320.84814 99.112 
L 220.50207 99.112 
z
" style="fill: #ffffff"/>
   </g>
   <g id="PolyCollection_7">
    <defs>
     <path id="m7edf38d1d2" d="M 225.063255 -268.256415 
L 225.063255 -268.256415 
L 234.185625 -300.369273 
L 243.307995 -269.691893 
L 252.430365 -269.501353 
L 261.552735 -271.250558 
L 270.675105 -270.200189 
L 279.797475 -269.997541 
L 288.919845 -281.447163 
L 298.042215 -272.006082 
L 307.164585 -269.45234 
L 316.286955 -273.13053 
L 316.286955 -267.193803 
L 316.286955 -267.193803 
L 307.164585 -264.2464 
L 298.042215 -225.994727 
L 288.919845 -266.172731 
L 279.797475 -252.35809 
L 270.675105 -263.695107 
L 261.552735 -265.829543 
L 252.430365 -261.790067 
L 243.307995 -264.957331 
L 234.185625 -252.120251 
L 225.063255 -268.256415 
z
" style="stroke: #1f77b4; stroke-opacity: 0.2"/>
    </defs>
    <g clip-path="url(#pc5475dfde7)">
     <use xlink:href="#m7edf38d1d2" x="0" y="403.2" style="fill: #1f77b4; fill-opacity: 0.2; stroke: #1f77b4; stroke-opacity: 0.2"/>
    </g>
   </g>
   <g id="PolyCollection_8">
    <defs>
     <path id="me069cc4d7d" d="M 225.063255 -268.256415 
L 225.063255 -268.256415 
L 234.185625 -273.146436 
L 243.307995 -269.264444 
L 252.430365 -270.351201 
L 261.552735 -268.63616 
L 270.675105 -268.063145 
L 279.797475 -271.033069 
L 288.919845 -269.730425 
L 298.042215 -267.3505 
L 307.164585 -273.743304 
L 316.286955 -267.183309 
L 316.286955 -264.437106 
L 316.286955 -264.437106 
L 307.164585 -271.085102 
L 298.042215 -265.695807 
L 288.919845 -266.578132 
L 279.797475 -266.552982 
L 270.675105 -266.064221 
L 261.552735 -264.560071 
L 252.430365 -269.828498 
L 243.307995 -263.555758 
L 234.185625 -269.678336 
L 225.063255 -268.256415 
z
" style="stroke: #ff7f0e; stroke-opacity: 0.2"/>
    </defs>
    <g clip-path="url(#pc5475dfde7)">
     <use xlink:href="#me069cc4d7d" x="0" y="403.2" style="fill: #ff7f0e; fill-opacity: 0.2; stroke: #ff7f0e; stroke-opacity: 0.2"/>
    </g>
   </g>
   <g id="matplotlib.axis_7">
    <g id="xtick_10">
     <g id="line2d_24">
      <g>
       <use xlink:href="#madc06ee125" x="224.151018" y="180.924" style="stroke: #000000; stroke-width: 0.8"/>
      </g>
     </g>
    </g>
    <g id="xtick_11">
     <g id="line2d_25">
      <g>
       <use xlink:href="#madc06ee125" x="269.762868" y="180.924" style="stroke: #000000; stroke-width: 0.8"/>
      </g>
     </g>
    </g>
    <g id="xtick_12">
     <g id="line2d_26">
      <g>
       <use xlink:href="#madc06ee125" x="315.374718" y="180.924" style="stroke: #000000; stroke-width: 0.8"/>
      </g>
     </g>
    </g>
   </g>
   <g id="matplotlib.axis_8">
    <g id="ytick_9">
     <g id="line2d_27">
      <g>
       <use xlink:href="#m793a8b2793" x="220.50207" y="173.425769" style="stroke: #000000; stroke-width: 0.8"/>
      </g>
     </g>
     <g id="text_15">
      <!-- −20 -->
      <g transform="translate(192.397383 177.224987) scale(0.1 -0.1)">
       <use xlink:href="#DejaVuSans-2212"/>
       <use xlink:href="#DejaVuSans-32" x="83.789062"/>
       <use xlink:href="#DejaVuSans-30" x="147.412109"/>
      </g>
     </g>
    </g>
    <g id="ytick_10">
     <g id="line2d_28">
      <g>
       <use xlink:href="#m793a8b2793" x="220.50207" y="134.943585" style="stroke: #000000; stroke-width: 0.8"/>
      </g>
     </g>
     <g id="text_16">
      <!-- 0 -->
      <g transform="translate(207.13957 138.742804) scale(0.1 -0.1)">
       <use xlink:href="#DejaVuSans-30"/>
      </g>
     </g>
    </g>
    <g id="text_17">
     <!-- $\langle \hat{a}_{\mathrm{i}} \rangle$ -->
     <g transform="translate(188.817695 148.168) rotate(-90) scale(0.1 -0.1)">
      <defs>
       <path id="DejaVuSans-69" d="M 603 3500 
L 1178 3500 
L 1178 0 
L 603 0 
L 603 3500 
z
M 603 4863 
L 1178 4863 
L 1178 4134 
L 603 4134 
L 603 4863 
z
" transform="scale(0.015625)"/>
      </defs>
      <use xlink:href="#DejaVuSans-27e8" transform="translate(0 0.515625)"/>
      <use xlink:href="#DejaVuSans-302" transform="translate(101.911621 13.015625)"/>
      <use xlink:href="#DejaVuSans-Oblique-61" transform="translate(39.013672 0.515625)"/>
      <use xlink:href="#DejaVuSans-69" transform="translate(101.25 -15.890625) scale(0.7)"/>
      <use xlink:href="#DejaVuSans-27e9" transform="translate(123.432617 0.515625)"/>
     </g>
    </g>
   </g>
   <g id="line2d_29">
    <path d="M 225.063255 134.943585 
L 234.185625 132.201319 
L 243.307995 135.729752 
L 252.430365 137.039794 
L 261.552735 134.582161 
L 270.675105 135.748608 
L 279.797475 138.569051 
L 288.919845 132.626313 
L 298.042215 141.923032 
L 307.164585 135.546668 
L 316.286955 133.156014 
" clip-path="url(#pc5475dfde7)" style="fill: none; stroke: #1f77b4; stroke-width: 1.5; stroke-linecap: square"/>
   </g>
   <g id="line2d_30">
    <path d="M 225.063255 134.943585 
L 234.185625 131.787614 
L 243.307995 136.789899 
L 252.430365 133.11015 
L 261.552735 136.601884 
L 270.675105 136.136317 
L 279.797475 134.406975 
L 288.919845 135.045721 
L 298.042215 136.676846 
L 307.164585 130.785797 
L 316.286955 137.389792 
" clip-path="url(#pc5475dfde7)" style="fill: none; stroke-dasharray: 1.5,2.475; stroke-dashoffset: 0; stroke: #ff7f0e; stroke-width: 1.5"/>
   </g>
   <g id="patch_18">
    <path d="M 220.50207 180.924 
L 220.50207 99.112 
" style="fill: none; stroke: #000000; stroke-width: 0.8; stroke-linejoin: miter; stroke-linecap: square"/>
   </g>
   <g id="patch_19">
    <path d="M 320.84814 180.924 
L 320.84814 99.112 
" style="fill: none; stroke: #000000; stroke-width: 0.8; stroke-linejoin: miter; stroke-linecap: square"/>
   </g>
   <g id="patch_20">
    <path d="M 220.50207 180.924 
L 320.84814 180.924 
" style="fill: none; stroke: #000000; stroke-width: 0.8; stroke-linejoin: miter; stroke-linecap: square"/>
   </g>
   <g id="patch_21">
    <path d="M 220.50207 99.112 
L 320.84814 99.112 
" style="fill: none; stroke: #000000; stroke-width: 0.8; stroke-linejoin: miter; stroke-linecap: square"/>
   </g>
   <g id="text_18">
    <!-- (d) -->
    <g transform="translate(190.398249 109.74756) scale(0.1 -0.1)">
     <defs>
      <path id="DejaVuSans-64" d="M 2906 2969 
L 2906 4863 
L 3481 4863 
L 3481 0 
L 2906 0 
L 2906 525 
Q 2725 213 2448 61 
Q 2172 -91 1784 -91 
Q 1150 -91 751 415 
Q 353 922 353 1747 
Q 353 2572 751 3078 
Q 1150 3584 1784 3584 
Q 2172 3584 2448 3432 
Q 2725 3281 2906 2969 
z
M 947 1747 
Q 947 1113 1208 752 
Q 1469 391 1925 391 
Q 2381 391 2643 752 
Q 2906 1113 2906 1747 
Q 2906 2381 2643 2742 
Q 2381 3103 1925 3103 
Q 1469 3103 1208 2742 
Q 947 2381 947 1747 
z
" transform="scale(0.015625)"/>
     </defs>
     <use xlink:href="#DejaVuSans-28"/>
     <use xlink:href="#DejaVuSans-64" x="39.013672"/>
     <use xlink:href="#DejaVuSans-29" x="102.490234"/>
    </g>
   </g>
  </g>
  <g id="axes_5">
   <g id="patch_22">
    <path d="M 59.61 269.236 
L 159.95607 269.236 
L 159.95607 187.424 
L 59.61 187.424 
z
" style="fill: #ffffff"/>
   </g>
   <g id="PolyCollection_9">
    <defs>
     <path id="m33e04956ec" d="M 64.171185 -183.349752 
L 64.171185 -173.987159 
L 73.293555 -165.643281 
L 82.415925 -162.580656 
L 91.538295 -157.332998 
L 100.660665 -156.645492 
L 109.783035 -148.007461 
L 118.905405 -166.812373 
L 128.027775 -170.046938 
L 137.150145 -156.555998 
L 146.272515 -149.57894 
L 155.394885 -142.459223 
L 155.394885 -204.772621 
L 155.394885 -204.772621 
L 146.272515 -195.348585 
L 137.150145 -185.594141 
L 128.027775 -203.948573 
L 118.905405 -202.919769 
L 109.783035 -212.057273 
L 100.660665 -190.822268 
L 91.538295 -194.825112 
L 82.415925 -197.81319 
L 73.293555 -204.285985 
L 64.171185 -183.349752 
z
" style="stroke: #1f77b4; stroke-opacity: 0.2"/>
    </defs>
    <g clip-path="url(#p2ed1b46334)">
     <use xlink:href="#m33e04956ec" x="0" y="403.2" style="fill: #1f77b4; fill-opacity: 0.2; stroke: #1f77b4; stroke-opacity: 0.2"/>
    </g>
   </g>
   <g id="PolyCollection_10">
    <defs>
     <path id="m44fe32c46c" d="M 64.171185 -178.273502 
L 64.171185 -175.066865 
L 73.293555 -137.682727 
L 82.415925 -172.453754 
L 91.538295 -158.382939 
L 100.660665 -168.409686 
L 109.783035 -173.631454 
L 118.905405 -176.125297 
L 128.027775 -167.249204 
L 137.150145 -178.453502 
L 146.272515 -189.860682 
L 155.394885 -168.380983 
L 155.394885 -180.527022 
L 155.394885 -180.527022 
L 146.272515 -191.556681 
L 137.150145 -194.327014 
L 128.027775 -194.673215 
L 118.905405 -201.609589 
L 109.783035 -176.346178 
L 100.660665 -173.565118 
L 91.538295 -169.644298 
L 82.415925 -176.306827 
L 73.293555 -193.184575 
L 64.171185 -178.273502 
z
" style="stroke: #ff7f0e; stroke-opacity: 0.2"/>
    </defs>
    <g clip-path="url(#p2ed1b46334)">
     <use xlink:href="#m44fe32c46c" x="0" y="403.2" style="fill: #ff7f0e; fill-opacity: 0.2; stroke: #ff7f0e; stroke-opacity: 0.2"/>
    </g>
   </g>
   <g id="matplotlib.axis_9">
    <g id="xtick_13">
     <g id="line2d_31">
      <g>
       <use xlink:href="#madc06ee125" x="63.258948" y="269.236" style="stroke: #000000; stroke-width: 0.8"/>
      </g>
     </g>
    </g>
    <g id="xtick_14">
     <g id="line2d_32">
      <g>
       <use xlink:href="#madc06ee125" x="108.870798" y="269.236" style="stroke: #000000; stroke-width: 0.8"/>
      </g>
     </g>
    </g>
    <g id="xtick_15">
     <g id="line2d_33">
      <g>
       <use xlink:href="#madc06ee125" x="154.482648" y="269.236" style="stroke: #000000; stroke-width: 0.8"/>
      </g>
     </g>
    </g>
   </g>
   <g id="matplotlib.axis_10">
    <g id="ytick_11">
     <g id="line2d_34">
      <g>
       <use xlink:href="#m793a8b2793" x="59.61" y="251.20136" style="stroke: #000000; stroke-width: 0.8"/>
      </g>
     </g>
     <g id="text_19">
      <!-- −0.1 -->
      <g transform="translate(28.327187 255.000579) scale(0.1 -0.1)">
       <use xlink:href="#DejaVuSans-2212"/>
       <use xlink:href="#DejaVuSans-30" x="83.789062"/>
       <use xlink:href="#DejaVuSans-2e" x="147.412109"/>
       <use xlink:href="#DejaVuSans-31" x="179.199219"/>
      </g>
     </g>
    </g>
    <g id="ytick_12">
     <g id="line2d_35">
      <g>
       <use xlink:href="#m793a8b2793" x="59.61" y="223.744767" style="stroke: #000000; stroke-width: 0.8"/>
      </g>
     </g>
     <g id="text_20">
      <!-- 0.0 -->
      <g transform="translate(36.706875 227.543986) scale(0.1 -0.1)">
       <use xlink:href="#DejaVuSans-30"/>
       <use xlink:href="#DejaVuSans-2e" x="63.623047"/>
       <use xlink:href="#DejaVuSans-30" x="95.410156"/>
      </g>
     </g>
    </g>
    <g id="ytick_13">
     <g id="line2d_36">
      <g>
       <use xlink:href="#m793a8b2793" x="59.61" y="196.288174" style="stroke: #000000; stroke-width: 0.8"/>
      </g>
     </g>
     <g id="text_21">
      <!-- 0.1 -->
      <g transform="translate(36.706875 200.087393) scale(0.1 -0.1)">
       <use xlink:href="#DejaVuSans-30"/>
       <use xlink:href="#DejaVuSans-2e" x="63.623047"/>
       <use xlink:href="#DejaVuSans-31" x="95.410156"/>
      </g>
     </g>
    </g>
    <g id="text_22">
     <!-- $\langle \hat J_x \rangle$ -->
     <g transform="translate(24.727187 236.68) rotate(-90) scale(0.1 -0.1)">
      <defs>
       <path id="DejaVuSans-Oblique-4a" d="M 1069 4666 
L 1703 4666 
L 856 325 
Q 691 -522 298 -901 
Q -94 -1281 -800 -1281 
L -1050 -1281 
L -947 -750 
L -750 -750 
Q -328 -750 -109 -509 
Q 109 -269 225 325 
L 1069 4666 
z
" transform="scale(0.015625)"/>
       <path id="DejaVuSans-Oblique-78" d="M 3841 3500 
L 2234 1784 
L 3219 0 
L 2559 0 
L 1819 1388 
L 531 0 
L -166 0 
L 1556 1844 
L 641 3500 
L 1300 3500 
L 1972 2234 
L 3144 3500 
L 3841 3500 
z
" transform="scale(0.015625)"/>
      </defs>
      <use xlink:href="#DejaVuSans-27e8" transform="translate(0 0.609375)"/>
      <use xlink:href="#DejaVuSans-302" transform="translate(91.345703 30.015625)"/>
      <use xlink:href="#DejaVuSans-Oblique-4a" transform="translate(39.013672 0.609375)"/>
      <use xlink:href="#DejaVuSans-Oblique-78" transform="translate(82.986328 -15.796875) scale(0.7)"/>
      <use xlink:href="#DejaVuSans-27e9" transform="translate(127.146484 0.609375)"/>
     </g>
    </g>
   </g>
   <g id="line2d_37">
    <path d="M 64.171185 224.493793 
L 73.293555 216.288363 
L 82.415925 225.375686 
L 91.538295 223.619114 
L 100.660665 226.221672 
L 109.783035 218.649404 
L 118.905405 216.886382 
L 128.027775 220.087503 
L 137.150145 232.242206 
L 146.272515 228.051301 
L 155.394885 231.680551 
" clip-path="url(#p2ed1b46334)" style="fill: none; stroke: #1f77b4; stroke-width: 1.5; stroke-linecap: square"/>
   </g>
   <g id="line2d_38">
    <path d="M 64.171185 226.529816 
L 73.293555 237.766349 
L 82.415925 228.819709 
L 91.538295 239.186381 
L 100.660665 232.212598 
L 109.783035 228.211184 
L 118.905405 214.332557 
L 128.027775 222.23879 
L 137.150145 216.809742 
L 146.272515 212.491318 
L 155.394885 228.745998 
" clip-path="url(#p2ed1b46334)" style="fill: none; stroke-dasharray: 1.5,2.475; stroke-dashoffset: 0; stroke: #ff7f0e; stroke-width: 1.5"/>
   </g>
   <g id="patch_23">
    <path d="M 59.61 269.236 
L 59.61 187.424 
" style="fill: none; stroke: #000000; stroke-width: 0.8; stroke-linejoin: miter; stroke-linecap: square"/>
   </g>
   <g id="patch_24">
    <path d="M 159.95607 269.236 
L 159.95607 187.424 
" style="fill: none; stroke: #000000; stroke-width: 0.8; stroke-linejoin: miter; stroke-linecap: square"/>
   </g>
   <g id="patch_25">
    <path d="M 59.61 269.236 
L 159.95607 269.236 
" style="fill: none; stroke: #000000; stroke-width: 0.8; stroke-linejoin: miter; stroke-linecap: square"/>
   </g>
   <g id="patch_26">
    <path d="M 59.61 187.424 
L 159.95607 187.424 
" style="fill: none; stroke: #000000; stroke-width: 0.8; stroke-linejoin: miter; stroke-linecap: square"/>
   </g>
   <g id="text_23">
    <!-- (e) -->
    <g transform="translate(29.506179 198.05956) scale(0.1 -0.1)">
     <defs>
      <path id="DejaVuSans-65" d="M 3597 1894 
L 3597 1613 
L 953 1613 
Q 991 1019 1311 708 
Q 1631 397 2203 397 
Q 2534 397 2845 478 
Q 3156 559 3463 722 
L 3463 178 
Q 3153 47 2828 -22 
Q 2503 -91 2169 -91 
Q 1331 -91 842 396 
Q 353 884 353 1716 
Q 353 2575 817 3079 
Q 1281 3584 2069 3584 
Q 2775 3584 3186 3129 
Q 3597 2675 3597 1894 
z
M 3022 2063 
Q 3016 2534 2758 2815 
Q 2500 3097 2075 3097 
Q 1594 3097 1305 2825 
Q 1016 2553 972 2059 
L 3022 2063 
z
" transform="scale(0.015625)"/>
     </defs>
     <use xlink:href="#DejaVuSans-28"/>
     <use xlink:href="#DejaVuSans-65" x="39.013672"/>
     <use xlink:href="#DejaVuSans-29" x="100.537109"/>
    </g>
   </g>
  </g>
  <g id="axes_6">
   <g id="patch_27">
    <path d="M 220.50207 269.236 
L 320.84814 269.236 
L 320.84814 187.424 
L 220.50207 187.424 
z
" style="fill: #ffffff"/>
   </g>
   <g id="PolyCollection_11">
    <defs>
     <path id="mbb2a40f72e" d="M 225.063255 -185.593779 
L 225.063255 -174.518297 
L 234.185625 -156.300184 
L 243.307995 -166.065794 
L 252.430365 -150.022728 
L 261.552735 -166.934345 
L 270.675105 -155.197109 
L 279.797475 -162.097214 
L 288.919845 -162.711931 
L 298.042215 -154.504225 
L 307.164585 -144.455114 
L 316.286955 -164.41338 
L 316.286955 -200.930448 
L 316.286955 -200.930448 
L 307.164585 -197.714694 
L 298.042215 -200.641548 
L 288.919845 -203.337444 
L 279.797475 -200.293763 
L 270.675105 -185.104257 
L 261.552735 -209.897006 
L 252.430365 -197.138772 
L 243.307995 -197.324195 
L 234.185625 -210.027386 
L 225.063255 -185.593779 
z
" style="stroke: #1f77b4; stroke-opacity: 0.2"/>
    </defs>
    <g clip-path="url(#p65dc0318ef)">
     <use xlink:href="#mbb2a40f72e" x="0" y="403.2" style="fill: #1f77b4; fill-opacity: 0.2; stroke: #1f77b4; stroke-opacity: 0.2"/>
    </g>
   </g>
   <g id="PolyCollection_12">
    <defs>
     <path id="md7d576b930" d="M 225.063255 -179.708232 
L 225.063255 -178.702637 
L 234.185625 -177.045028 
L 243.307995 -174.222612 
L 252.430365 -148.11675 
L 261.552735 -152.245876 
L 270.675105 -170.00389 
L 279.797475 -164.30996 
L 288.919845 -155.971391 
L 298.042215 -149.437472 
L 307.164585 -163.304631 
L 316.286955 -175.398782 
L 316.286955 -189.204228 
L 316.286955 -189.204228 
L 307.164585 -180.080864 
L 298.042215 -190.443617 
L 288.919845 -190.967323 
L 279.797475 -186.963742 
L 270.675105 -190.941031 
L 261.552735 -203.823131 
L 252.430365 -175.58469 
L 243.307995 -183.818031 
L 234.185625 -192.452927 
L 225.063255 -179.708232 
z
" style="stroke: #ff7f0e; stroke-opacity: 0.2"/>
    </defs>
    <g clip-path="url(#p65dc0318ef)">
     <use xlink:href="#md7d576b930" x="0" y="403.2" style="fill: #ff7f0e; fill-opacity: 0.2; stroke: #ff7f0e; stroke-opacity: 0.2"/>
    </g>
   </g>
   <g id="matplotlib.axis_11">
    <g id="xtick_16">
     <g id="line2d_39">
      <g>
       <use xlink:href="#madc06ee125" x="224.151018" y="269.236" style="stroke: #000000; stroke-width: 0.8"/>
      </g>
     </g>
    </g>
    <g id="xtick_17">
     <g id="line2d_40">
      <g>
       <use xlink:href="#madc06ee125" x="269.762868" y="269.236" style="stroke: #000000; stroke-width: 0.8"/>
      </g>
     </g>
    </g>
    <g id="xtick_18">
     <g id="line2d_41">
      <g>
       <use xlink:href="#madc06ee125" x="315.374718" y="269.236" style="stroke: #000000; stroke-width: 0.8"/>
      </g>
     </g>
    </g>
   </g>
   <g id="matplotlib.axis_12">
    <g id="ytick_14">
     <g id="line2d_42">
      <g>
       <use xlink:href="#m793a8b2793" x="220.50207" y="251.20136" style="stroke: #000000; stroke-width: 0.8"/>
      </g>
     </g>
     <g id="text_24">
      <!-- −0.1 -->
      <g transform="translate(189.219258 255.000579) scale(0.1 -0.1)">
       <use xlink:href="#DejaVuSans-2212"/>
       <use xlink:href="#DejaVuSans-30" x="83.789062"/>
       <use xlink:href="#DejaVuSans-2e" x="147.412109"/>
       <use xlink:href="#DejaVuSans-31" x="179.199219"/>
      </g>
     </g>
    </g>
    <g id="ytick_15">
     <g id="line2d_43">
      <g>
       <use xlink:href="#m793a8b2793" x="220.50207" y="223.744767" style="stroke: #000000; stroke-width: 0.8"/>
      </g>
     </g>
     <g id="text_25">
      <!-- 0.0 -->
      <g transform="translate(197.598945 227.543986) scale(0.1 -0.1)">
       <use xlink:href="#DejaVuSans-30"/>
       <use xlink:href="#DejaVuSans-2e" x="63.623047"/>
       <use xlink:href="#DejaVuSans-30" x="95.410156"/>
      </g>
     </g>
    </g>
    <g id="ytick_16">
     <g id="line2d_44">
      <g>
       <use xlink:href="#m793a8b2793" x="220.50207" y="196.288174" style="stroke: #000000; stroke-width: 0.8"/>
      </g>
     </g>
     <g id="text_26">
      <!-- 0.1 -->
      <g transform="translate(197.598945 200.087393) scale(0.1 -0.1)">
       <use xlink:href="#DejaVuSans-30"/>
       <use xlink:href="#DejaVuSans-2e" x="63.623047"/>
       <use xlink:href="#DejaVuSans-31" x="95.410156"/>
      </g>
     </g>
    </g>
    <g id="text_27">
     <!-- $\langle \hat J_y \rangle$ -->
     <g transform="translate(184.619258 236.68) rotate(-90) scale(0.1 -0.1)">
      <defs>
       <path id="DejaVuSans-Oblique-79" d="M 1588 -325 
Q 1188 -997 936 -1164 
Q 684 -1331 294 -1331 
L -159 -1331 
L -63 -850 
L 269 -850 
Q 509 -850 678 -719 
Q 847 -588 1056 -206 
L 1234 128 
L 459 3500 
L 1069 3500 
L 1650 819 
L 3256 3500 
L 3859 3500 
L 1588 -325 
z
" transform="scale(0.015625)"/>
      </defs>
      <use xlink:href="#DejaVuSans-27e8" transform="translate(0 0.609375)"/>
      <use xlink:href="#DejaVuSans-302" transform="translate(91.345703 30.015625)"/>
      <use xlink:href="#DejaVuSans-Oblique-4a" transform="translate(39.013672 0.609375)"/>
      <use xlink:href="#DejaVuSans-Oblique-79" transform="translate(82.986328 -15.796875) scale(0.7)"/>
      <use xlink:href="#DejaVuSans-27e9" transform="translate(127.146484 0.609375)"/>
     </g>
    </g>
   </g>
   <g id="line2d_45">
    <path d="M 225.063255 223.324399 
L 234.185625 217.214231 
L 243.307995 220.752845 
L 252.430365 230.813601 
L 261.552735 214.339263 
L 270.675105 232.69803 
L 279.797475 221.859009 
L 288.919845 221.552877 
L 298.042215 224.073364 
L 307.164585 232.375593 
L 316.286955 224.126968 
" clip-path="url(#p65dc0318ef)" style="fill: none; stroke: #1f77b4; stroke-width: 1.5; stroke-linecap: square"/>
   </g>
   <g id="line2d_46">
    <path d="M 225.063255 223.994566 
L 234.185625 218.451023 
L 243.307995 224.179679 
L 252.430365 241.34928 
L 261.552735 225.165496 
L 270.675105 222.72754 
L 279.797475 227.563149 
L 288.919845 229.730643 
L 298.042215 233.259455 
L 307.164585 231.507253 
L 316.286955 220.898495 
" clip-path="url(#p65dc0318ef)" style="fill: none; stroke-dasharray: 1.5,2.475; stroke-dashoffset: 0; stroke: #ff7f0e; stroke-width: 1.5"/>
   </g>
   <g id="patch_28">
    <path d="M 220.50207 269.236 
L 220.50207 187.424 
" style="fill: none; stroke: #000000; stroke-width: 0.8; stroke-linejoin: miter; stroke-linecap: square"/>
   </g>
   <g id="patch_29">
    <path d="M 320.84814 269.236 
L 320.84814 187.424 
" style="fill: none; stroke: #000000; stroke-width: 0.8; stroke-linejoin: miter; stroke-linecap: square"/>
   </g>
   <g id="patch_30">
    <path d="M 220.50207 269.236 
L 320.84814 269.236 
" style="fill: none; stroke: #000000; stroke-width: 0.8; stroke-linejoin: miter; stroke-linecap: square"/>
   </g>
   <g id="patch_31">
    <path d="M 220.50207 187.424 
L 320.84814 187.424 
" style="fill: none; stroke: #000000; stroke-width: 0.8; stroke-linejoin: miter; stroke-linecap: square"/>
   </g>
   <g id="text_28">
    <!-- (f) -->
    <g transform="translate(190.398249 198.05956) scale(0.1 -0.1)">
     <defs>
      <path id="DejaVuSans-66" d="M 2375 4863 
L 2375 4384 
L 1825 4384 
Q 1516 4384 1395 4259 
Q 1275 4134 1275 3809 
L 1275 3500 
L 2222 3500 
L 2222 3053 
L 1275 3053 
L 1275 0 
L 697 0 
L 697 3053 
L 147 3053 
L 147 3500 
L 697 3500 
L 697 3744 
Q 697 4328 969 4595 
Q 1241 4863 1831 4863 
L 2375 4863 
z
" transform="scale(0.015625)"/>
     </defs>
     <use xlink:href="#DejaVuSans-28"/>
     <use xlink:href="#DejaVuSans-66" x="39.013672"/>
     <use xlink:href="#DejaVuSans-29" x="74.21875"/>
    </g>
   </g>
  </g>
  <g id="axes_7">
   <g id="patch_32">
    <path d="M 59.61 357.548 
L 159.95607 357.548 
L 159.95607 275.736 
L 59.61 275.736 
z
" style="fill: #ffffff"/>
   </g>
   <g id="PolyCollection_13">
    <defs>
     <path id="m755314693d" d="M 64.171185 -49.370727 
L 64.171185 -49.370727 
L 73.293555 -112.264144 
L 82.415925 -108.586095 
L 91.538295 -108.518963 
L 100.660665 -110.358249 
L 109.783035 -108.172138 
L 118.905405 -108.340856 
L 128.027775 -106.47383 
L 137.150145 -110.932896 
L 146.272515 -110.470904 
L 155.394885 -111.799692 
L 155.394885 -116.966167 
L 155.394885 -116.966167 
L 146.272515 -121.135305 
L 137.150145 -123.745273 
L 128.027775 -117.181874 
L 118.905405 -116.978117 
L 109.783035 -118.831343 
L 100.660665 -117.815286 
L 91.538295 -118.199111 
L 82.415925 -117.316425 
L 73.293555 -119.558236 
L 64.171185 -49.370727 
z
" style="stroke: #1f77b4; stroke-opacity: 0.2"/>
    </defs>
    <g clip-path="url(#p76130ab9a0)">
     <use xlink:href="#m755314693d" x="0" y="403.2" style="fill: #1f77b4; fill-opacity: 0.2; stroke: #1f77b4; stroke-opacity: 0.2"/>
    </g>
   </g>
   <g id="PolyCollection_14">
    <defs>
     <path id="mdcfa3f46cb" d="M 64.171185 -49.370727 
L 64.171185 -49.370727 
L 73.293555 -108.84897 
L 82.415925 -115.063901 
L 91.538295 -106.485809 
L 100.660665 -111.704694 
L 109.783035 -114.842992 
L 118.905405 -109.995233 
L 128.027775 -115.944573 
L 137.150145 -118.275517 
L 146.272515 -114.774401 
L 155.394885 -108.514965 
L 155.394885 -116.671352 
L 155.394885 -116.671352 
L 146.272515 -123.022236 
L 137.150145 -119.526367 
L 128.027775 -116.478602 
L 118.905405 -113.915548 
L 109.783035 -117.238825 
L 100.660665 -114.236668 
L 91.538295 -112.924786 
L 82.415925 -116.177702 
L 73.293555 -116.351618 
L 64.171185 -49.370727 
z
" style="stroke: #ff7f0e; stroke-opacity: 0.2"/>
    </defs>
    <g clip-path="url(#p76130ab9a0)">
     <use xlink:href="#mdcfa3f46cb" x="0" y="403.2" style="fill: #ff7f0e; fill-opacity: 0.2; stroke: #ff7f0e; stroke-opacity: 0.2"/>
    </g>
   </g>
   <g id="matplotlib.axis_13">
    <g id="xtick_19">
     <g id="line2d_47">
      <g>
       <use xlink:href="#madc06ee125" x="63.258948" y="357.548" style="stroke: #000000; stroke-width: 0.8"/>
      </g>
     </g>
     <g id="text_29">
      <!-- 0 -->
      <g transform="translate(60.077698 372.146437) scale(0.1 -0.1)">
       <use xlink:href="#DejaVuSans-30"/>
      </g>
     </g>
    </g>
    <g id="xtick_20">
     <g id="line2d_48">
      <g>
       <use xlink:href="#madc06ee125" x="108.870798" y="357.548" style="stroke: #000000; stroke-width: 0.8"/>
      </g>
     </g>
     <g id="text_30">
      <!-- 50 -->
      <g transform="translate(102.508298 372.146437) scale(0.1 -0.1)">
       <defs>
        <path id="DejaVuSans-35" d="M 691 4666 
L 3169 4666 
L 3169 4134 
L 1269 4134 
L 1269 2991 
Q 1406 3038 1543 3061 
Q 1681 3084 1819 3084 
Q 2600 3084 3056 2656 
Q 3513 2228 3513 1497 
Q 3513 744 3044 326 
Q 2575 -91 1722 -91 
Q 1428 -91 1123 -41 
Q 819 9 494 109 
L 494 744 
Q 775 591 1075 516 
Q 1375 441 1709 441 
Q 2250 441 2565 725 
Q 2881 1009 2881 1497 
Q 2881 1984 2565 2268 
Q 2250 2553 1709 2553 
Q 1456 2553 1204 2497 
Q 953 2441 691 2322 
L 691 4666 
z
" transform="scale(0.015625)"/>
       </defs>
       <use xlink:href="#DejaVuSans-35"/>
       <use xlink:href="#DejaVuSans-30" x="63.623047"/>
      </g>
     </g>
    </g>
    <g id="xtick_21">
     <g id="line2d_49">
      <g>
       <use xlink:href="#madc06ee125" x="154.482648" y="357.548" style="stroke: #000000; stroke-width: 0.8"/>
      </g>
     </g>
     <g id="text_31">
      <!-- 100 -->
      <g transform="translate(144.938898 372.146437) scale(0.1 -0.1)">
       <use xlink:href="#DejaVuSans-31"/>
       <use xlink:href="#DejaVuSans-30" x="63.623047"/>
       <use xlink:href="#DejaVuSans-30" x="127.246094"/>
      </g>
     </g>
    </g>
    <g id="text_32">
     <!-- time (units of $\omega_\mathrm{r}^{-1}$) -->
     <g transform="translate(62.983035 384.726125) scale(0.1 -0.1)">
      <defs>
       <path id="DejaVuSans-74" d="M 1172 4494 
L 1172 3500 
L 2356 3500 
L 2356 3053 
L 1172 3053 
L 1172 1153 
Q 1172 725 1289 603 
Q 1406 481 1766 481 
L 2356 481 
L 2356 0 
L 1766 0 
Q 1100 0 847 248 
Q 594 497 594 1153 
L 594 3053 
L 172 3053 
L 172 3500 
L 594 3500 
L 594 4494 
L 1172 4494 
z
" transform="scale(0.015625)"/>
       <path id="DejaVuSans-6d" d="M 3328 2828 
Q 3544 3216 3844 3400 
Q 4144 3584 4550 3584 
Q 5097 3584 5394 3201 
Q 5691 2819 5691 2113 
L 5691 0 
L 5113 0 
L 5113 2094 
Q 5113 2597 4934 2840 
Q 4756 3084 4391 3084 
Q 3944 3084 3684 2787 
Q 3425 2491 3425 1978 
L 3425 0 
L 2847 0 
L 2847 2094 
Q 2847 2600 2669 2842 
Q 2491 3084 2119 3084 
Q 1678 3084 1418 2786 
Q 1159 2488 1159 1978 
L 1159 0 
L 581 0 
L 581 3500 
L 1159 3500 
L 1159 2956 
Q 1356 3278 1631 3431 
Q 1906 3584 2284 3584 
Q 2666 3584 2933 3390 
Q 3200 3197 3328 2828 
z
" transform="scale(0.015625)"/>
       <path id="DejaVuSans-20" transform="scale(0.015625)"/>
       <path id="DejaVuSans-75" d="M 544 1381 
L 544 3500 
L 1119 3500 
L 1119 1403 
Q 1119 906 1312 657 
Q 1506 409 1894 409 
Q 2359 409 2629 706 
Q 2900 1003 2900 1516 
L 2900 3500 
L 3475 3500 
L 3475 0 
L 2900 0 
L 2900 538 
Q 2691 219 2414 64 
Q 2138 -91 1772 -91 
Q 1169 -91 856 284 
Q 544 659 544 1381 
z
M 1991 3584 
L 1991 3584 
z
" transform="scale(0.015625)"/>
       <path id="DejaVuSans-6e" d="M 3513 2113 
L 3513 0 
L 2938 0 
L 2938 2094 
Q 2938 2591 2744 2837 
Q 2550 3084 2163 3084 
Q 1697 3084 1428 2787 
Q 1159 2491 1159 1978 
L 1159 0 
L 581 0 
L 581 3500 
L 1159 3500 
L 1159 2956 
Q 1366 3272 1645 3428 
Q 1925 3584 2291 3584 
Q 2894 3584 3203 3211 
Q 3513 2838 3513 2113 
z
" transform="scale(0.015625)"/>
       <path id="DejaVuSans-73" d="M 2834 3397 
L 2834 2853 
Q 2591 2978 2328 3040 
Q 2066 3103 1784 3103 
Q 1356 3103 1142 2972 
Q 928 2841 928 2578 
Q 928 2378 1081 2264 
Q 1234 2150 1697 2047 
L 1894 2003 
Q 2506 1872 2764 1633 
Q 3022 1394 3022 966 
Q 3022 478 2636 193 
Q 2250 -91 1575 -91 
Q 1294 -91 989 -36 
Q 684 19 347 128 
L 347 722 
Q 666 556 975 473 
Q 1284 391 1588 391 
Q 1994 391 2212 530 
Q 2431 669 2431 922 
Q 2431 1156 2273 1281 
Q 2116 1406 1581 1522 
L 1381 1569 
Q 847 1681 609 1914 
Q 372 2147 372 2553 
Q 372 3047 722 3315 
Q 1072 3584 1716 3584 
Q 2034 3584 2315 3537 
Q 2597 3491 2834 3397 
z
" transform="scale(0.015625)"/>
       <path id="DejaVuSans-6f" d="M 1959 3097 
Q 1497 3097 1228 2736 
Q 959 2375 959 1747 
Q 959 1119 1226 758 
Q 1494 397 1959 397 
Q 2419 397 2687 759 
Q 2956 1122 2956 1747 
Q 2956 2369 2687 2733 
Q 2419 3097 1959 3097 
z
M 1959 3584 
Q 2709 3584 3137 3096 
Q 3566 2609 3566 1747 
Q 3566 888 3137 398 
Q 2709 -91 1959 -91 
Q 1206 -91 779 398 
Q 353 888 353 1747 
Q 353 2609 779 3096 
Q 1206 3584 1959 3584 
z
" transform="scale(0.015625)"/>
       <path id="DejaVuSans-Oblique-3c9" d="M 1369 -91 
Q 72 -91 434 1766 
Q 575 2500 1256 3500 
L 1875 3500 
Q 1231 2500 1088 1750 
Q 819 397 1519 397 
Q 2166 397 2478 2078 
L 3009 2078 
Q 2669 388 3316 397 
Q 4013 403 4275 1750 
Q 4419 2500 4169 3500 
L 4788 3500 
Q 5075 2500 4934 1766 
Q 4578 -94 3278 -91 
Q 2428 -88 2503 844 
Q 2194 -91 1369 -91 
z
" transform="scale(0.015625)"/>
      </defs>
      <use xlink:href="#DejaVuSans-74" transform="translate(0 0.684375)"/>
      <use xlink:href="#DejaVuSans-69" transform="translate(39.208984 0.684375)"/>
      <use xlink:href="#DejaVuSans-6d" transform="translate(66.992188 0.684375)"/>
      <use xlink:href="#DejaVuSans-65" transform="translate(164.404297 0.684375)"/>
      <use xlink:href="#DejaVuSans-20" transform="translate(225.927734 0.684375)"/>
      <use xlink:href="#DejaVuSans-28" transform="translate(257.714844 0.684375)"/>
      <use xlink:href="#DejaVuSans-75" transform="translate(296.728516 0.684375)"/>
      <use xlink:href="#DejaVuSans-6e" transform="translate(360.107422 0.684375)"/>
      <use xlink:href="#DejaVuSans-69" transform="translate(423.486328 0.684375)"/>
      <use xlink:href="#DejaVuSans-74" transform="translate(451.269531 0.684375)"/>
      <use xlink:href="#DejaVuSans-73" transform="translate(490.478516 0.684375)"/>
      <use xlink:href="#DejaVuSans-20" transform="translate(542.578125 0.684375)"/>
      <use xlink:href="#DejaVuSans-6f" transform="translate(574.365234 0.684375)"/>
      <use xlink:href="#DejaVuSans-66" transform="translate(635.546875 0.684375)"/>
      <use xlink:href="#DejaVuSans-20" transform="translate(670.751953 0.684375)"/>
      <use xlink:href="#DejaVuSans-Oblique-3c9" transform="translate(702.539062 0.684375)"/>
      <use xlink:href="#DejaVuSans-2212" transform="translate(790.745443 38.965625) scale(0.7)"/>
      <use xlink:href="#DejaVuSans-31" transform="translate(849.397786 38.965625) scale(0.7)"/>
      <use xlink:href="#DejaVuSans-72" transform="translate(786.279297 -26.659375) scale(0.7)"/>
      <use xlink:href="#DejaVuSans-29" transform="translate(896.668294 0.684375)"/>
     </g>
    </g>
   </g>
   <g id="matplotlib.axis_14">
    <g id="ytick_17">
     <g id="line2d_50">
      <g>
       <use xlink:href="#m793a8b2793" x="59.61" y="353.829273" style="stroke: #000000; stroke-width: 0.8"/>
      </g>
     </g>
     <g id="text_33">
      <!-- −1.0 -->
      <g transform="translate(28.327187 357.628491) scale(0.1 -0.1)">
       <use xlink:href="#DejaVuSans-2212"/>
       <use xlink:href="#DejaVuSans-31" x="83.789062"/>
       <use xlink:href="#DejaVuSans-2e" x="147.412109"/>
       <use xlink:href="#DejaVuSans-30" x="179.199219"/>
      </g>
     </g>
    </g>
    <g id="ytick_18">
     <g id="line2d_51">
      <g>
       <use xlink:href="#m793a8b2793" x="59.61" y="321.431489" style="stroke: #000000; stroke-width: 0.8"/>
      </g>
     </g>
     <g id="text_34">
      <!-- −0.5 -->
      <g transform="translate(28.327187 325.230708) scale(0.1 -0.1)">
       <use xlink:href="#DejaVuSans-2212"/>
       <use xlink:href="#DejaVuSans-30" x="83.789062"/>
       <use xlink:href="#DejaVuSans-2e" x="147.412109"/>
       <use xlink:href="#DejaVuSans-35" x="179.199219"/>
      </g>
     </g>
    </g>
    <g id="ytick_19">
     <g id="line2d_52">
      <g>
       <use xlink:href="#m793a8b2793" x="59.61" y="289.033705" style="stroke: #000000; stroke-width: 0.8"/>
      </g>
     </g>
     <g id="text_35">
      <!-- 0.0 -->
      <g transform="translate(36.706875 292.832924) scale(0.1 -0.1)">
       <use xlink:href="#DejaVuSans-30"/>
       <use xlink:href="#DejaVuSans-2e" x="63.623047"/>
       <use xlink:href="#DejaVuSans-30" x="95.410156"/>
      </g>
     </g>
    </g>
    <g id="text_36">
     <!-- $\langle \hat J_z \rangle$ -->
     <g transform="translate(24.727187 324.742) rotate(-90) scale(0.1 -0.1)">
      <defs>
       <path id="DejaVuSans-Oblique-7a" d="M 744 3500 
L 3475 3500 
L 3372 2975 
L 738 459 
L 2913 459 
L 2822 0 
L -19 0 
L 84 525 
L 2719 3041 
L 653 3041 
L 744 3500 
z
" transform="scale(0.015625)"/>
      </defs>
      <use xlink:href="#DejaVuSans-27e8" transform="translate(0 0.609375)"/>
      <use xlink:href="#DejaVuSans-302" transform="translate(91.345703 30.015625)"/>
      <use xlink:href="#DejaVuSans-Oblique-4a" transform="translate(39.013672 0.609375)"/>
      <use xlink:href="#DejaVuSans-Oblique-7a" transform="translate(82.986328 -15.796875) scale(0.7)"/>
      <use xlink:href="#DejaVuSans-27e9" transform="translate(122.463867 0.609375)"/>
     </g>
    </g>
   </g>
   <g id="line2d_53">
    <path d="M 64.171185 353.829273 
L 73.293555 287.725156 
L 82.415925 290.28426 
L 91.538295 289.945234 
L 100.660665 290.111275 
L 109.783035 289.710202 
L 118.905405 289.557026 
L 128.027775 289.750629 
L 137.150145 287.176517 
L 146.272515 288.445538 
L 155.394885 288.994201 
" clip-path="url(#p76130ab9a0)" style="fill: none; stroke: #1f77b4; stroke-width: 1.5; stroke-linecap: square"/>
   </g>
   <g id="line2d_54">
    <path d="M 64.171185 353.829273 
L 73.293555 290.599706 
L 82.415925 287.579199 
L 91.538295 293.494703 
L 100.660665 290.229319 
L 109.783035 287.159092 
L 118.905405 291.24461 
L 128.027775 286.988412 
L 137.150145 284.299058 
L 146.272515 284.301682 
L 155.394885 290.606841 
" clip-path="url(#p76130ab9a0)" style="fill: none; stroke-dasharray: 1.5,2.475; stroke-dashoffset: 0; stroke: #ff7f0e; stroke-width: 1.5"/>
   </g>
   <g id="patch_33">
    <path d="M 59.61 357.548 
L 59.61 275.736 
" style="fill: none; stroke: #000000; stroke-width: 0.8; stroke-linejoin: miter; stroke-linecap: square"/>
   </g>
   <g id="patch_34">
    <path d="M 159.95607 357.548 
L 159.95607 275.736 
" style="fill: none; stroke: #000000; stroke-width: 0.8; stroke-linejoin: miter; stroke-linecap: square"/>
   </g>
   <g id="patch_35">
    <path d="M 59.61 357.548 
L 159.95607 357.548 
" style="fill: none; stroke: #000000; stroke-width: 0.8; stroke-linejoin: miter; stroke-linecap: square"/>
   </g>
   <g id="patch_36">
    <path d="M 59.61 275.736 
L 159.95607 275.736 
" style="fill: none; stroke: #000000; stroke-width: 0.8; stroke-linejoin: miter; stroke-linecap: square"/>
   </g>
   <g id="text_37">
    <!-- (g) -->
    <g transform="translate(29.506179 286.37156) scale(0.1 -0.1)">
     <defs>
      <path id="DejaVuSans-67" d="M 2906 1791 
Q 2906 2416 2648 2759 
Q 2391 3103 1925 3103 
Q 1463 3103 1205 2759 
Q 947 2416 947 1791 
Q 947 1169 1205 825 
Q 1463 481 1925 481 
Q 2391 481 2648 825 
Q 2906 1169 2906 1791 
z
M 3481 434 
Q 3481 -459 3084 -895 
Q 2688 -1331 1869 -1331 
Q 1566 -1331 1297 -1286 
Q 1028 -1241 775 -1147 
L 775 -588 
Q 1028 -725 1275 -790 
Q 1522 -856 1778 -856 
Q 2344 -856 2625 -561 
Q 2906 -266 2906 331 
L 2906 616 
Q 2728 306 2450 153 
Q 2172 0 1784 0 
Q 1141 0 747 490 
Q 353 981 353 1791 
Q 353 2603 747 3093 
Q 1141 3584 1784 3584 
Q 2172 3584 2450 3431 
Q 2728 3278 2906 2969 
L 2906 3500 
L 3481 3500 
L 3481 434 
z
" transform="scale(0.015625)"/>
     </defs>
     <use xlink:href="#DejaVuSans-28"/>
     <use xlink:href="#DejaVuSans-67" x="39.013672"/>
     <use xlink:href="#DejaVuSans-29" x="102.490234"/>
    </g>
   </g>
  </g>
  <g id="axes_8">
   <g id="patch_37">
    <path d="M 220.50207 357.548 
L 320.84814 357.548 
L 320.84814 275.736 
L 220.50207 275.736 
z
" style="fill: #ffffff"/>
   </g>
   <g id="PolyCollection_15">
    <defs>
     <path id="m90279e6c14" d="M 225.063255 -101.485063 
L 225.063255 -62.437096 
L 234.185625 -67.302858 
L 243.307995 -49.370727 
L 252.430365 -77.048031 
L 261.552735 -61.174324 
L 270.675105 -52.760176 
L 279.797475 -55.310944 
L 288.919845 -68.364561 
L 298.042215 -65.019029 
L 307.164585 -59.162036 
L 316.286955 -61.789947 
L 316.286955 -92.733319 
L 316.286955 -92.733319 
L 307.164585 -91.543109 
L 298.042215 -123.745273 
L 288.919845 -104.274204 
L 279.797475 -100.682744 
L 270.675105 -112.81291 
L 261.552735 -115.688036 
L 252.430365 -111.253781 
L 243.307995 -111.765456 
L 234.185625 -101.390244 
L 225.063255 -101.485063 
z
" style="stroke: #1f77b4; stroke-opacity: 0.2"/>
    </defs>
    <g clip-path="url(#pd154c3041c)">
     <use xlink:href="#m90279e6c14" x="0" y="403.2" style="fill: #1f77b4; fill-opacity: 0.2; stroke: #1f77b4; stroke-opacity: 0.2"/>
    </g>
   </g>
   <g id="PolyCollection_16">
    <defs>
     <path id="m87eee5fe31" d="M 225.063255 -84.184387 
L 225.063255 -82.785702 
L 234.185625 -84.249182 
L 243.307995 -77.727157 
L 252.430365 -77.568452 
L 261.552735 -85.574579 
L 270.675105 -78.788323 
L 279.797475 -89.547133 
L 288.919845 -85.51105 
L 298.042215 -64.959302 
L 307.164585 -71.892315 
L 316.286955 -75.586887 
L 316.286955 -84.712187 
L 316.286955 -84.712187 
L 307.164585 -75.252723 
L 298.042215 -74.186568 
L 288.919845 -86.983794 
L 279.797475 -92.457158 
L 270.675105 -92.052615 
L 261.552735 -114.595671 
L 252.430365 -82.865202 
L 243.307995 -81.916451 
L 234.185625 -101.381388 
L 225.063255 -84.184387 
z
" style="stroke: #ff7f0e; stroke-opacity: 0.2"/>
    </defs>
    <g clip-path="url(#pd154c3041c)">
     <use xlink:href="#m87eee5fe31" x="0" y="403.2" style="fill: #ff7f0e; fill-opacity: 0.2; stroke: #ff7f0e; stroke-opacity: 0.2"/>
    </g>
   </g>
   <g id="matplotlib.axis_15">
    <g id="xtick_22">
     <g id="line2d_55">
      <g>
       <use xlink:href="#madc06ee125" x="224.151018" y="357.548" style="stroke: #000000; stroke-width: 0.8"/>
      </g>
     </g>
     <g id="text_38">
      <!-- 0 -->
      <g transform="translate(220.969768 372.146437) scale(0.1 -0.1)">
       <use xlink:href="#DejaVuSans-30"/>
      </g>
     </g>
    </g>
    <g id="xtick_23">
     <g id="line2d_56">
      <g>
       <use xlink:href="#madc06ee125" x="269.762868" y="357.548" style="stroke: #000000; stroke-width: 0.8"/>
      </g>
     </g>
     <g id="text_39">
      <!-- 50 -->
      <g transform="translate(263.400368 372.146437) scale(0.1 -0.1)">
       <use xlink:href="#DejaVuSans-35"/>
       <use xlink:href="#DejaVuSans-30" x="63.623047"/>
      </g>
     </g>
    </g>
    <g id="xtick_24">
     <g id="line2d_57">
      <g>
       <use xlink:href="#madc06ee125" x="315.374718" y="357.548" style="stroke: #000000; stroke-width: 0.8"/>
      </g>
     </g>
     <g id="text_40">
      <!-- 100 -->
      <g transform="translate(305.830968 372.146437) scale(0.1 -0.1)">
       <use xlink:href="#DejaVuSans-31"/>
       <use xlink:href="#DejaVuSans-30" x="63.623047"/>
       <use xlink:href="#DejaVuSans-30" x="127.246094"/>
      </g>
     </g>
    </g>
    <g id="text_41">
     <!-- time (units of $\omega_\mathrm{r}^{-1}$) -->
     <g transform="translate(223.875105 384.726125) scale(0.1 -0.1)">
      <use xlink:href="#DejaVuSans-74" transform="translate(0 0.684375)"/>
      <use xlink:href="#DejaVuSans-69" transform="translate(39.208984 0.684375)"/>
      <use xlink:href="#DejaVuSans-6d" transform="translate(66.992188 0.684375)"/>
      <use xlink:href="#DejaVuSans-65" transform="translate(164.404297 0.684375)"/>
      <use xlink:href="#DejaVuSans-20" transform="translate(225.927734 0.684375)"/>
      <use xlink:href="#DejaVuSans-28" transform="translate(257.714844 0.684375)"/>
      <use xlink:href="#DejaVuSans-75" transform="translate(296.728516 0.684375)"/>
      <use xlink:href="#DejaVuSans-6e" transform="translate(360.107422 0.684375)"/>
      <use xlink:href="#DejaVuSans-69" transform="translate(423.486328 0.684375)"/>
      <use xlink:href="#DejaVuSans-74" transform="translate(451.269531 0.684375)"/>
      <use xlink:href="#DejaVuSans-73" transform="translate(490.478516 0.684375)"/>
      <use xlink:href="#DejaVuSans-20" transform="translate(542.578125 0.684375)"/>
      <use xlink:href="#DejaVuSans-6f" transform="translate(574.365234 0.684375)"/>
      <use xlink:href="#DejaVuSans-66" transform="translate(635.546875 0.684375)"/>
      <use xlink:href="#DejaVuSans-20" transform="translate(670.751953 0.684375)"/>
      <use xlink:href="#DejaVuSans-Oblique-3c9" transform="translate(702.539062 0.684375)"/>
      <use xlink:href="#DejaVuSans-2212" transform="translate(790.745443 38.965625) scale(0.7)"/>
      <use xlink:href="#DejaVuSans-31" transform="translate(849.397786 38.965625) scale(0.7)"/>
      <use xlink:href="#DejaVuSans-72" transform="translate(786.279297 -26.659375) scale(0.7)"/>
      <use xlink:href="#DejaVuSans-29" transform="translate(896.668294 0.684375)"/>
     </g>
    </g>
   </g>
   <g id="matplotlib.axis_16">
    <g id="ytick_20">
     <g id="line2d_58">
      <g>
       <use xlink:href="#m793a8b2793" x="220.50207" y="342.396504" style="stroke: #000000; stroke-width: 0.8"/>
      </g>
     </g>
     <g id="text_42">
      <!-- 0.45 -->
      <g transform="translate(191.236445 346.195723) scale(0.1 -0.1)">
       <defs>
        <path id="DejaVuSans-34" d="M 2419 4116 
L 825 1625 
L 2419 1625 
L 2419 4116 
z
M 2253 4666 
L 3047 4666 
L 3047 1625 
L 3713 1625 
L 3713 1100 
L 3047 1100 
L 3047 0 
L 2419 0 
L 2419 1100 
L 313 1100 
L 313 1709 
L 2253 4666 
z
" transform="scale(0.015625)"/>
       </defs>
       <use xlink:href="#DejaVuSans-30"/>
       <use xlink:href="#DejaVuSans-2e" x="63.623047"/>
       <use xlink:href="#DejaVuSans-34" x="95.410156"/>
       <use xlink:href="#DejaVuSans-35" x="159.033203"/>
      </g>
     </g>
    </g>
    <g id="ytick_21">
     <g id="line2d_59">
      <g>
       <use xlink:href="#m793a8b2793" x="220.50207" y="319.915023" style="stroke: #000000; stroke-width: 0.8"/>
      </g>
     </g>
     <g id="text_43">
      <!-- 0.50 -->
      <g transform="translate(191.236445 323.714242) scale(0.1 -0.1)">
       <use xlink:href="#DejaVuSans-30"/>
       <use xlink:href="#DejaVuSans-2e" x="63.623047"/>
       <use xlink:href="#DejaVuSans-35" x="95.410156"/>
       <use xlink:href="#DejaVuSans-30" x="159.033203"/>
      </g>
     </g>
    </g>
    <g id="ytick_22">
     <g id="line2d_60">
      <g>
       <use xlink:href="#m793a8b2793" x="220.50207" y="297.433542" style="stroke: #000000; stroke-width: 0.8"/>
      </g>
     </g>
     <g id="text_44">
      <!-- 0.55 -->
      <g transform="translate(191.236445 301.232761) scale(0.1 -0.1)">
       <use xlink:href="#DejaVuSans-30"/>
       <use xlink:href="#DejaVuSans-2e" x="63.623047"/>
       <use xlink:href="#DejaVuSans-35" x="95.410156"/>
       <use xlink:href="#DejaVuSans-35" x="159.033203"/>
      </g>
     </g>
    </g>
    <g id="text_45">
     <!-- $\mathcal{B}$ -->
     <g transform="translate(187.656758 320.292) rotate(-90) scale(0.1 -0.1)">
      <defs>
       <path id="STIXNonUnicode-Italic-e22e" d="M 2080 3341 
L 2099 3328 
Q 2810 4288 3853 4288 
Q 4154 4288 4346 4102 
Q 4538 3917 4538 3622 
Q 4538 3213 4173 2893 
Q 3808 2573 3430 2451 
Q 3866 2406 4144 2169 
Q 4422 1933 4422 1485 
Q 4422 1152 4211 857 
Q 4000 563 3677 377 
Q 3354 192 2986 86 
Q 2618 -19 2291 -19 
Q 1792 -19 1517 186 
L 1587 326 
Q 1843 198 2272 198 
Q 2854 198 3296 595 
Q 3738 992 3738 1478 
Q 3738 1798 3459 2003 
Q 3181 2208 2630 2208 
L 2208 2208 
L 2278 2451 
L 2400 2451 
Q 2611 2451 2867 2508 
Q 3123 2566 3385 2681 
Q 3648 2797 3824 3008 
Q 4000 3219 4000 3482 
Q 4000 3987 3456 3987 
Q 3245 3987 3008 3865 
Q 2771 3744 2624 3590 
Q 2349 3315 2144 2908 
Q 1939 2502 1715 1728 
L 1478 909 
Q 1344 448 1193 253 
Q 1043 58 666 13 
Q 544 0 224 0 
L 282 154 
Q 474 154 576 333 
Q 678 512 870 1190 
L 1536 3514 
Q 1555 3571 1555 3667 
Q 1555 3859 1286 3859 
L 1146 3859 
L 1171 4013 
Q 1875 4077 2355 4237 
L 2080 3341 
z
" transform="scale(0.015625)"/>
      </defs>
      <use xlink:href="#STIXNonUnicode-Italic-e22e"/>
     </g>
    </g>
   </g>
   <g id="line2d_61">
    <path d="M 225.063255 323.149009 
L 234.185625 317.283241 
L 243.307995 321.046785 
L 252.430365 313.074692 
L 261.552735 315.156747 
L 270.675105 318.880308 
L 279.797475 320.54923 
L 288.919845 315.36596 
L 298.042215 310.709814 
L 307.164585 325.847823 
L 316.286955 324.196477 
" clip-path="url(#pd154c3041c)" style="fill: none; stroke: #1f77b4; stroke-width: 1.5; stroke-linecap: square"/>
   </g>
   <g id="line2d_62">
    <path d="M 225.063255 319.714956 
L 234.185625 310.384715 
L 243.307995 323.378196 
L 252.430365 322.983173 
L 261.552735 303.114875 
L 270.675105 317.779531 
L 279.797475 312.197854 
L 288.919845 316.952578 
L 298.042215 333.627065 
L 307.164585 329.627481 
L 316.286955 323.050463 
" clip-path="url(#pd154c3041c)" style="fill: none; stroke-dasharray: 1.5,2.475; stroke-dashoffset: 0; stroke: #ff7f0e; stroke-width: 1.5"/>
   </g>
   <g id="patch_38">
    <path d="M 220.50207 357.548 
L 220.50207 275.736 
" style="fill: none; stroke: #000000; stroke-width: 0.8; stroke-linejoin: miter; stroke-linecap: square"/>
   </g>
   <g id="patch_39">
    <path d="M 320.84814 357.548 
L 320.84814 275.736 
" style="fill: none; stroke: #000000; stroke-width: 0.8; stroke-linejoin: miter; stroke-linecap: square"/>
   </g>
   <g id="patch_40">
    <path d="M 220.50207 357.548 
L 320.84814 357.548 
" style="fill: none; stroke: #000000; stroke-width: 0.8; stroke-linejoin: miter; stroke-linecap: square"/>
   </g>
   <g id="patch_41">
    <path d="M 220.50207 275.736 
L 320.84814 275.736 
" style="fill: none; stroke: #000000; stroke-width: 0.8; stroke-linejoin: miter; stroke-linecap: square"/>
   </g>
   <g id="text_46">
    <!-- (h) -->
    <g transform="translate(190.398249 286.37156) scale(0.1 -0.1)">
     <defs>
      <path id="DejaVuSans-68" d="M 3513 2113 
L 3513 0 
L 2938 0 
L 2938 2094 
Q 2938 2591 2744 2837 
Q 2550 3084 2163 3084 
Q 1697 3084 1428 2787 
Q 1159 2491 1159 1978 
L 1159 0 
L 581 0 
L 581 4863 
L 1159 4863 
L 1159 2956 
Q 1366 3272 1645 3428 
Q 1925 3584 2291 3584 
Q 2894 3584 3203 3211 
Q 3513 2838 3513 2113 
z
" transform="scale(0.015625)"/>
     </defs>
     <use xlink:href="#DejaVuSans-28"/>
     <use xlink:href="#DejaVuSans-68" x="39.013672"/>
     <use xlink:href="#DejaVuSans-29" x="102.392578"/>
    </g>
   </g>
  </g>
 </g>
 <defs>
  <clipPath id="p0f5a637a50">
   <rect x="59.61" y="10.8" width="100.34607" height="81.812"/>
  </clipPath>
  <clipPath id="pd646149fdb">
   <rect x="220.50207" y="10.8" width="100.34607" height="81.812"/>
  </clipPath>
  <clipPath id="pffc9b464d0">
   <rect x="59.61" y="99.112" width="100.34607" height="81.812"/>
  </clipPath>
  <clipPath id="pc5475dfde7">
   <rect x="220.50207" y="99.112" width="100.34607" height="81.812"/>
  </clipPath>
  <clipPath id="p2ed1b46334">
   <rect x="59.61" y="187.424" width="100.34607" height="81.812"/>
  </clipPath>
  <clipPath id="p65dc0318ef">
   <rect x="220.50207" y="187.424" width="100.34607" height="81.812"/>
  </clipPath>
  <clipPath id="p76130ab9a0">
   <rect x="59.61" y="275.736" width="100.34607" height="81.812"/>
  </clipPath>
  <clipPath id="pd154c3041c">
   <rect x="220.50207" y="275.736" width="100.34607" height="81.812"/>
  </clipPath>
 </defs>
</svg>
