<?xml version="1.0" encoding="utf-8" standalone="no"?>
<!DOCTYPE svg PUBLIC "-//W3C//DTD SVG 1.1//EN"
  "http://www.w3.org/Graphics/SVG/1.1/DTD/svg11.dtd">
<svg xmlns:xlink="http://www.w3.org/1999/xlink" width="334.8pt" height="403.2pt" viewBox="0 0 334.8 403.2" xmlns="http://www.w3.org/2000/svg" version="1.1">
 <metadata>
  <rdf:RDF xmlns:dc="http://purl.org/dc/elements/1.1/" xmlns:cc="http://creativecommons.org/ns#" xmlns:rdf="http://www.w3.org/1999/02/22-rdf-syntax-ns#">
   <cc:Work>
    <dc:type rdf:resource="http://purl.org/dc/dcmitype/StillImage"/>
    <dc:date>2023-11-07T12:57:38.635350</dc:date>
    <dc:format>image/svg+xml</dc:format>
    <dc:creator>
     <cc:Agent>
      <dc:title>Matplotlib v3.7.1, https://matplotlib.org/</dc:title>
     </cc:Agent>
    </dc:creator>
   </cc:Work>
  </rdf:RDF>
 </metadata>
 <defs>
  <style type="text/css">*{stroke-linejoin: round; stroke-linecap: butt}</style>
 </defs>
 <g id="figure_1">
  <g id="patch_1">
   <path d="M 0 403.2 
L 334.8 403.2 
L 334.8 0 
L 0 0 
z
" style="fill: #ffffff"/>
  </g>
  <g id="axes_1">
   <g id="patch_2">
    <path d="M 59.61 92.612 
L 159.95607 92.612 
L 159.95607 10.8 
L 59.61 10.8 
z
" style="fill: #ffffff"/>
   </g>
   <g id="PolyCollection_1">
    <defs>
     <path id="mf4a15591dc" d="M 64.171185 -370.52836 
L 64.171185 -368.620785 
L 73.293555 -335.792624 
L 82.415925 -332.874763 
L 91.538295 -327.484994 
L 100.660665 -325.976854 
L 109.783035 -323.195719 
L 118.905405 -325.269474 
L 128.027775 -319.458148 
L 137.150145 -318.33938 
L 146.272515 -317.10829 
L 155.394885 -314.306727 
L 155.394885 -367.028186 
L 155.394885 -367.028186 
L 146.272515 -374.452947 
L 137.150145 -372.914612 
L 128.027775 -371.297303 
L 118.905405 -375.808166 
L 109.783035 -388.681273 
L 100.660665 -374.977536 
L 91.538295 -368.208472 
L 82.415925 -378.762707 
L 73.293555 -382.102892 
L 64.171185 -370.52836 
z
" style="stroke: #1f77b4; stroke-opacity: 0.2"/>
    </defs>
    <g clip-path="url(#pbf9eb0ab3e)">
     <use xlink:href="#mf4a15591dc" x="0" y="403.2" style="fill: #1f77b4; fill-opacity: 0.2; stroke: #1f77b4; stroke-opacity: 0.2"/>
    </g>
   </g>
   <g id="PolyCollection_2">
    <defs>
     <path id="m02239915c5" d="M 64.171185 -371.383341 
L 64.171185 -367.620265 
L 73.293555 -362.899956 
L 82.415925 -360.397484 
L 91.538295 -368.869969 
L 100.660665 -361.717324 
L 109.783035 -358.139304 
L 118.905405 -362.214218 
L 128.027775 -358.371316 
L 137.150145 -365.943653 
L 146.272515 -361.032748 
L 155.394885 -370.821892 
L 155.394885 -383.465798 
L 155.394885 -383.465798 
L 146.272515 -379.495467 
L 137.150145 -381.624509 
L 128.027775 -375.893979 
L 118.905405 -373.752355 
L 109.783035 -375.827631 
L 100.660665 -374.493064 
L 91.538295 -379.641514 
L 82.415925 -375.373091 
L 73.293555 -371.039548 
L 64.171185 -371.383341 
z
" style="stroke: #ff7f0e; stroke-opacity: 0.2"/>
    </defs>
    <g clip-path="url(#pbf9eb0ab3e)">
     <use xlink:href="#m02239915c5" x="0" y="403.2" style="fill: #ff7f0e; fill-opacity: 0.2; stroke: #ff7f0e; stroke-opacity: 0.2"/>
    </g>
   </g>
   <g id="matplotlib.axis_1">
    <g id="xtick_1">
     <g id="line2d_1">
      <defs>
       <path id="m7fbb4b9977" d="M 0 0 
L 0 3.5 
" style="stroke: #000000; stroke-width: 0.8"/>
      </defs>
      <g>
       <use xlink:href="#m7fbb4b9977" x="63.258948" y="92.612" style="stroke: #000000; stroke-width: 0.8"/>
      </g>
     </g>
    </g>
    <g id="xtick_2">
     <g id="line2d_2">
      <g>
       <use xlink:href="#m7fbb4b9977" x="108.870798" y="92.612" style="stroke: #000000; stroke-width: 0.8"/>
      </g>
     </g>
    </g>
    <g id="xtick_3">
     <g id="line2d_3">
      <g>
       <use xlink:href="#m7fbb4b9977" x="154.482648" y="92.612" style="stroke: #000000; stroke-width: 0.8"/>
      </g>
     </g>
    </g>
   </g>
   <g id="matplotlib.axis_2">
    <g id="ytick_1">
     <g id="line2d_4">
      <defs>
       <path id="mc6057a8fe2" d="M 0 0 
L -3.5 0 
" style="stroke: #000000; stroke-width: 0.8"/>
      </defs>
      <g>
       <use xlink:href="#mc6057a8fe2" x="59.61" y="89.391544" style="stroke: #000000; stroke-width: 0.8"/>
      </g>
     </g>
     <g id="text_1">
      <!-- −0.4 -->
      <g transform="translate(28.327187 93.190762) scale(0.1 -0.1)">
       <defs>
        <path id="DejaVuSans-2212" d="M 678 2272 
L 4684 2272 
L 4684 1741 
L 678 1741 
L 678 2272 
z
" transform="scale(0.015625)"/>
        <path id="DejaVuSans-30" d="M 2034 4250 
Q 1547 4250 1301 3770 
Q 1056 3291 1056 2328 
Q 1056 1369 1301 889 
Q 1547 409 2034 409 
Q 2525 409 2770 889 
Q 3016 1369 3016 2328 
Q 3016 3291 2770 3770 
Q 2525 4250 2034 4250 
z
M 2034 4750 
Q 2819 4750 3233 4129 
Q 3647 3509 3647 2328 
Q 3647 1150 3233 529 
Q 2819 -91 2034 -91 
Q 1250 -91 836 529 
Q 422 1150 422 2328 
Q 422 3509 836 4129 
Q 1250 4750 2034 4750 
z
" transform="scale(0.015625)"/>
        <path id="DejaVuSans-2e" d="M 684 794 
L 1344 794 
L 1344 0 
L 684 0 
L 684 794 
z
" transform="scale(0.015625)"/>
        <path id="DejaVuSans-34" d="M 2419 4116 
L 825 1625 
L 2419 1625 
L 2419 4116 
z
M 2253 4666 
L 3047 4666 
L 3047 1625 
L 3713 1625 
L 3713 1100 
L 3047 1100 
L 3047 0 
L 2419 0 
L 2419 1100 
L 313 1100 
L 313 1709 
L 2253 4666 
z
" transform="scale(0.015625)"/>
       </defs>
       <use xlink:href="#DejaVuSans-2212"/>
       <use xlink:href="#DejaVuSans-30" x="83.789062"/>
       <use xlink:href="#DejaVuSans-2e" x="147.412109"/>
       <use xlink:href="#DejaVuSans-34" x="179.199219"/>
      </g>
     </g>
    </g>
    <g id="ytick_2">
     <g id="line2d_5">
      <g>
       <use xlink:href="#mc6057a8fe2" x="59.61" y="61.518679" style="stroke: #000000; stroke-width: 0.8"/>
      </g>
     </g>
     <g id="text_2">
      <!-- −0.2 -->
      <g transform="translate(28.327187 65.317897) scale(0.1 -0.1)">
       <defs>
        <path id="DejaVuSans-32" d="M 1228 531 
L 3431 531 
L 3431 0 
L 469 0 
L 469 531 
Q 828 903 1448 1529 
Q 2069 2156 2228 2338 
Q 2531 2678 2651 2914 
Q 2772 3150 2772 3378 
Q 2772 3750 2511 3984 
Q 2250 4219 1831 4219 
Q 1534 4219 1204 4116 
Q 875 4013 500 3803 
L 500 4441 
Q 881 4594 1212 4672 
Q 1544 4750 1819 4750 
Q 2544 4750 2975 4387 
Q 3406 4025 3406 3419 
Q 3406 3131 3298 2873 
Q 3191 2616 2906 2266 
Q 2828 2175 2409 1742 
Q 1991 1309 1228 531 
z
" transform="scale(0.015625)"/>
       </defs>
       <use xlink:href="#DejaVuSans-2212"/>
       <use xlink:href="#DejaVuSans-30" x="83.789062"/>
       <use xlink:href="#DejaVuSans-2e" x="147.412109"/>
       <use xlink:href="#DejaVuSans-32" x="179.199219"/>
      </g>
     </g>
    </g>
    <g id="ytick_3">
     <g id="line2d_6">
      <g>
       <use xlink:href="#mc6057a8fe2" x="59.61" y="33.645814" style="stroke: #000000; stroke-width: 0.8"/>
      </g>
     </g>
     <g id="text_3">
      <!-- 0.0 -->
      <g transform="translate(36.706875 37.445032) scale(0.1 -0.1)">
       <use xlink:href="#DejaVuSans-30"/>
       <use xlink:href="#DejaVuSans-2e" x="63.623047"/>
       <use xlink:href="#DejaVuSans-30" x="95.410156"/>
      </g>
     </g>
    </g>
    <g id="text_4">
     <!-- $X$ -->
     <g transform="translate(24.7475 55.156) rotate(-90) scale(0.1 -0.1)">
      <defs>
       <path id="DejaVuSans-Oblique-58" d="M 878 4666 
L 1516 4666 
L 2316 2981 
L 3763 4666 
L 4500 4666 
L 2578 2438 
L 3738 0 
L 3103 0 
L 2163 1966 
L 459 0 
L -275 0 
L 1906 2509 
L 878 4666 
z
" transform="scale(0.015625)"/>
      </defs>
      <use xlink:href="#DejaVuSans-Oblique-58" transform="translate(0 0.09375)"/>
     </g>
    </g>
   </g>
   <g id="line2d_7">
    <path d="M 64.171185 33.733384 
L 73.293555 48.307623 
L 82.415925 45.257434 
L 91.538295 57.927828 
L 100.660665 54.3899 
L 109.783035 47.156723 
L 118.905405 53.810849 
L 128.027775 56.3815 
L 137.150145 56.362758 
L 146.272515 55.379676 
L 155.394885 59.534142 
" clip-path="url(#pbf9eb0ab3e)" style="fill: none; stroke: #1f77b4; stroke-width: 1.5; stroke-linecap: square"/>
   </g>
   <g id="line2d_8">
    <path d="M 64.171185 33.592695 
L 73.293555 36.874514 
L 82.415925 33.106277 
L 91.538295 28.525872 
L 100.660665 34.966016 
L 109.783035 34.129697 
L 118.905405 34.528216 
L 128.027775 36.634572 
L 137.150145 29.559819 
L 146.272515 34.317886 
L 155.394885 26.631917 
" clip-path="url(#pbf9eb0ab3e)" style="fill: none; stroke-dasharray: 1.5,2.475; stroke-dashoffset: 0; stroke: #ff7f0e; stroke-width: 1.5"/>
   </g>
   <g id="patch_3">
    <path d="M 59.61 92.612 
L 59.61 10.8 
" style="fill: none; stroke: #000000; stroke-width: 0.8; stroke-linejoin: miter; stroke-linecap: square"/>
   </g>
   <g id="patch_4">
    <path d="M 159.95607 92.612 
L 159.95607 10.8 
" style="fill: none; stroke: #000000; stroke-width: 0.8; stroke-linejoin: miter; stroke-linecap: square"/>
   </g>
   <g id="patch_5">
    <path d="M 59.61 92.612 
L 159.95607 92.612 
" style="fill: none; stroke: #000000; stroke-width: 0.8; stroke-linejoin: miter; stroke-linecap: square"/>
   </g>
   <g id="patch_6">
    <path d="M 59.61 10.8 
L 159.95607 10.8 
" style="fill: none; stroke: #000000; stroke-width: 0.8; stroke-linejoin: miter; stroke-linecap: square"/>
   </g>
   <g id="text_5">
    <!-- (a) -->
    <g transform="translate(29.506179 21.43556) scale(0.1 -0.1)">
     <defs>
      <path id="DejaVuSans-28" d="M 1984 4856 
Q 1566 4138 1362 3434 
Q 1159 2731 1159 2009 
Q 1159 1288 1364 580 
Q 1569 -128 1984 -844 
L 1484 -844 
Q 1016 -109 783 600 
Q 550 1309 550 2009 
Q 550 2706 781 3412 
Q 1013 4119 1484 4856 
L 1984 4856 
z
" transform="scale(0.015625)"/>
      <path id="DejaVuSans-61" d="M 2194 1759 
Q 1497 1759 1228 1600 
Q 959 1441 959 1056 
Q 959 750 1161 570 
Q 1363 391 1709 391 
Q 2188 391 2477 730 
Q 2766 1069 2766 1631 
L 2766 1759 
L 2194 1759 
z
M 3341 1997 
L 3341 0 
L 2766 0 
L 2766 531 
Q 2569 213 2275 61 
Q 1981 -91 1556 -91 
Q 1019 -91 701 211 
Q 384 513 384 1019 
Q 384 1609 779 1909 
Q 1175 2209 1959 2209 
L 2766 2209 
L 2766 2266 
Q 2766 2663 2505 2880 
Q 2244 3097 1772 3097 
Q 1472 3097 1187 3025 
Q 903 2953 641 2809 
L 641 3341 
Q 956 3463 1253 3523 
Q 1550 3584 1831 3584 
Q 2591 3584 2966 3190 
Q 3341 2797 3341 1997 
z
" transform="scale(0.015625)"/>
      <path id="DejaVuSans-29" d="M 513 4856 
L 1013 4856 
Q 1481 4119 1714 3412 
Q 1947 2706 1947 2009 
Q 1947 1309 1714 600 
Q 1481 -109 1013 -844 
L 513 -844 
Q 928 -128 1133 580 
Q 1338 1288 1338 2009 
Q 1338 2731 1133 3434 
Q 928 4138 513 4856 
z
" transform="scale(0.015625)"/>
     </defs>
     <use xlink:href="#DejaVuSans-28"/>
     <use xlink:href="#DejaVuSans-61" x="39.013672"/>
     <use xlink:href="#DejaVuSans-29" x="100.292969"/>
    </g>
   </g>
  </g>
  <g id="axes_2">
   <g id="patch_7">
    <path d="M 220.50207 92.612 
L 320.84814 92.612 
L 320.84814 10.8 
L 220.50207 10.8 
z
" style="fill: #ffffff"/>
   </g>
   <g id="PolyCollection_3">
    <defs>
     <path id="m4ddee267d0" d="M 225.063255 -371.119021 
L 225.063255 -368.63914 
L 234.185625 -364.059144 
L 243.307995 -368.51461 
L 252.430365 -365.000177 
L 261.552735 -367.539586 
L 270.675105 -360.219254 
L 279.797475 -362.476177 
L 288.919845 -357.445862 
L 298.042215 -359.228031 
L 307.164585 -361.583843 
L 316.286955 -374.062185 
L 316.286955 -380.054773 
L 316.286955 -380.054773 
L 307.164585 -378.395464 
L 298.042215 -377.846595 
L 288.919845 -372.714609 
L 279.797475 -376.651625 
L 270.675105 -373.596991 
L 261.552735 -378.01798 
L 252.430365 -374.297559 
L 243.307995 -380.270131 
L 234.185625 -379.436993 
L 225.063255 -371.119021 
z
" style="stroke: #1f77b4; stroke-opacity: 0.2"/>
    </defs>
    <g clip-path="url(#pe54663a3d5)">
     <use xlink:href="#m4ddee267d0" x="0" y="403.2" style="fill: #1f77b4; fill-opacity: 0.2; stroke: #1f77b4; stroke-opacity: 0.2"/>
    </g>
   </g>
   <g id="PolyCollection_4">
    <defs>
     <path id="m3d865cff05" d="M 225.063255 -371.440235 
L 225.063255 -368.608777 
L 234.185625 -362.732724 
L 243.307995 -364.285968 
L 252.430365 -363.942419 
L 261.552735 -359.898735 
L 270.675105 -362.942566 
L 279.797475 -363.041354 
L 288.919845 -368.074297 
L 298.042215 -359.408546 
L 307.164585 -364.86272 
L 316.286955 -357.324685 
L 316.286955 -369.235551 
L 316.286955 -369.235551 
L 307.164585 -377.914689 
L 298.042215 -372.588053 
L 288.919845 -386.169676 
L 279.797475 -369.50638 
L 270.675105 -376.337083 
L 261.552735 -380.94145 
L 252.430365 -373.536384 
L 243.307995 -376.554289 
L 234.185625 -370.605499 
L 225.063255 -371.440235 
z
" style="stroke: #ff7f0e; stroke-opacity: 0.2"/>
    </defs>
    <g clip-path="url(#pe54663a3d5)">
     <use xlink:href="#m3d865cff05" x="0" y="403.2" style="fill: #ff7f0e; fill-opacity: 0.2; stroke: #ff7f0e; stroke-opacity: 0.2"/>
    </g>
   </g>
   <g id="matplotlib.axis_3">
    <g id="xtick_4">
     <g id="line2d_9">
      <g>
       <use xlink:href="#m7fbb4b9977" x="224.151018" y="92.612" style="stroke: #000000; stroke-width: 0.8"/>
      </g>
     </g>
    </g>
    <g id="xtick_5">
     <g id="line2d_10">
      <g>
       <use xlink:href="#m7fbb4b9977" x="269.762868" y="92.612" style="stroke: #000000; stroke-width: 0.8"/>
      </g>
     </g>
    </g>
    <g id="xtick_6">
     <g id="line2d_11">
      <g>
       <use xlink:href="#m7fbb4b9977" x="315.374718" y="92.612" style="stroke: #000000; stroke-width: 0.8"/>
      </g>
     </g>
    </g>
   </g>
   <g id="matplotlib.axis_4">
    <g id="ytick_4">
     <g id="line2d_12">
      <g>
       <use xlink:href="#mc6057a8fe2" x="220.50207" y="89.391544" style="stroke: #000000; stroke-width: 0.8"/>
      </g>
     </g>
     <g id="text_6">
      <!-- −0.4 -->
      <g transform="translate(189.219258 93.190762) scale(0.1 -0.1)">
       <use xlink:href="#DejaVuSans-2212"/>
       <use xlink:href="#DejaVuSans-30" x="83.789062"/>
       <use xlink:href="#DejaVuSans-2e" x="147.412109"/>
       <use xlink:href="#DejaVuSans-34" x="179.199219"/>
      </g>
     </g>
    </g>
    <g id="ytick_5">
     <g id="line2d_13">
      <g>
       <use xlink:href="#mc6057a8fe2" x="220.50207" y="61.518679" style="stroke: #000000; stroke-width: 0.8"/>
      </g>
     </g>
     <g id="text_7">
      <!-- −0.2 -->
      <g transform="translate(189.219258 65.317897) scale(0.1 -0.1)">
       <use xlink:href="#DejaVuSans-2212"/>
       <use xlink:href="#DejaVuSans-30" x="83.789062"/>
       <use xlink:href="#DejaVuSans-2e" x="147.412109"/>
       <use xlink:href="#DejaVuSans-32" x="179.199219"/>
      </g>
     </g>
    </g>
    <g id="ytick_6">
     <g id="line2d_14">
      <g>
       <use xlink:href="#mc6057a8fe2" x="220.50207" y="33.645814" style="stroke: #000000; stroke-width: 0.8"/>
      </g>
     </g>
     <g id="text_8">
      <!-- 0.0 -->
      <g transform="translate(197.598945 37.445032) scale(0.1 -0.1)">
       <use xlink:href="#DejaVuSans-30"/>
       <use xlink:href="#DejaVuSans-2e" x="63.623047"/>
       <use xlink:href="#DejaVuSans-30" x="95.410156"/>
      </g>
     </g>
    </g>
    <g id="text_9">
     <!-- $Y$ -->
     <g transform="translate(185.63957 54.806) rotate(-90) scale(0.1 -0.1)">
      <defs>
       <path id="DejaVuSans-Oblique-59" d="M 403 4666 
L 1081 4666 
L 1953 2747 
L 3616 4666 
L 4325 4666 
L 2209 2222 
L 1778 0 
L 1147 0 
L 1575 2222 
L 403 4666 
z
" transform="scale(0.015625)"/>
      </defs>
      <use xlink:href="#DejaVuSans-Oblique-59" transform="translate(0 0.09375)"/>
     </g>
    </g>
   </g>
   <g id="line2d_15">
    <path d="M 225.063255 33.467687 
L 234.185625 30.48623 
L 243.307995 29.220071 
L 252.430365 33.018767 
L 261.552735 30.278823 
L 270.675105 35.59137 
L 279.797475 34.743222 
L 288.919845 36.518775 
L 298.042215 33.095751 
L 307.164585 33.588857 
L 316.286955 26.052552 
" clip-path="url(#pe54663a3d5)" style="fill: none; stroke: #1f77b4; stroke-width: 1.5; stroke-linecap: square"/>
   </g>
   <g id="line2d_16">
    <path d="M 225.063255 33.040511 
L 234.185625 36.583861 
L 243.307995 33.014936 
L 252.430365 35.200744 
L 261.552735 32.717321 
L 270.675105 33.445571 
L 279.797475 36.770096 
L 288.919845 27.453749 
L 298.042215 37.780917 
L 307.164585 31.25645 
L 316.286955 38.9812 
" clip-path="url(#pe54663a3d5)" style="fill: none; stroke-dasharray: 1.5,2.475; stroke-dashoffset: 0; stroke: #ff7f0e; stroke-width: 1.5"/>
   </g>
   <g id="patch_8">
    <path d="M 220.50207 92.612 
L 220.50207 10.8 
" style="fill: none; stroke: #000000; stroke-width: 0.8; stroke-linejoin: miter; stroke-linecap: square"/>
   </g>
   <g id="patch_9">
    <path d="M 320.84814 92.612 
L 320.84814 10.8 
" style="fill: none; stroke: #000000; stroke-width: 0.8; stroke-linejoin: miter; stroke-linecap: square"/>
   </g>
   <g id="patch_10">
    <path d="M 220.50207 92.612 
L 320.84814 92.612 
" style="fill: none; stroke: #000000; stroke-width: 0.8; stroke-linejoin: miter; stroke-linecap: square"/>
   </g>
   <g id="patch_11">
    <path d="M 220.50207 10.8 
L 320.84814 10.8 
" style="fill: none; stroke: #000000; stroke-width: 0.8; stroke-linejoin: miter; stroke-linecap: square"/>
   </g>
   <g id="text_10">
    <!-- (b) -->
    <g transform="translate(190.398249 21.43556) scale(0.1 -0.1)">
     <defs>
      <path id="DejaVuSans-62" d="M 3116 1747 
Q 3116 2381 2855 2742 
Q 2594 3103 2138 3103 
Q 1681 3103 1420 2742 
Q 1159 2381 1159 1747 
Q 1159 1113 1420 752 
Q 1681 391 2138 391 
Q 2594 391 2855 752 
Q 3116 1113 3116 1747 
z
M 1159 2969 
Q 1341 3281 1617 3432 
Q 1894 3584 2278 3584 
Q 2916 3584 3314 3078 
Q 3713 2572 3713 1747 
Q 3713 922 3314 415 
Q 2916 -91 2278 -91 
Q 1894 -91 1617 61 
Q 1341 213 1159 525 
L 1159 0 
L 581 0 
L 581 4863 
L 1159 4863 
L 1159 2969 
z
" transform="scale(0.015625)"/>
     </defs>
     <use xlink:href="#DejaVuSans-28"/>
     <use xlink:href="#DejaVuSans-62" x="39.013672"/>
     <use xlink:href="#DejaVuSans-29" x="102.490234"/>
    </g>
   </g>
  </g>
  <g id="axes_3">
   <g id="patch_12">
    <path d="M 59.61 180.924 
L 159.95607 180.924 
L 159.95607 99.112 
L 59.61 99.112 
z
" style="fill: #ffffff"/>
   </g>
   <g id="PolyCollection_5">
    <defs>
     <path id="m9ec1ca0b68" d="M 64.171185 -251.517938 
L 64.171185 -251.517938 
L 73.293555 -243.250864 
L 82.415925 -239.602075 
L 91.538295 -251.879337 
L 100.660665 -251.605662 
L 109.783035 -249.512787 
L 118.905405 -253.112631 
L 128.027775 -245.406245 
L 137.150145 -247.200474 
L 146.272515 -251.452925 
L 155.394885 -252.421589 
L 155.394885 -285.393637 
L 155.394885 -285.393637 
L 146.272515 -296.417494 
L 137.150145 -285.878866 
L 128.027775 -285.879024 
L 118.905405 -278.876598 
L 109.783035 -282.506559 
L 100.660665 -281.28785 
L 91.538295 -281.538563 
L 82.415925 -291.983639 
L 73.293555 -275.834878 
L 64.171185 -251.517938 
z
" style="stroke: #1f77b4; stroke-opacity: 0.2"/>
    </defs>
    <g clip-path="url(#pe8b74925a8)">
     <use xlink:href="#m9ec1ca0b68" x="0" y="403.2" style="fill: #1f77b4; fill-opacity: 0.2; stroke: #1f77b4; stroke-opacity: 0.2"/>
    </g>
   </g>
   <g id="PolyCollection_6">
    <defs>
     <path id="me7363642dc" d="M 64.171185 -251.517938 
L 64.171185 -251.517938 
L 73.293555 -237.908824 
L 82.415925 -247.191851 
L 91.538295 -237.378987 
L 100.660665 -241.911452 
L 109.783035 -234.121978 
L 118.905405 -244.885225 
L 128.027775 -231.888146 
L 137.150145 -241.666896 
L 146.272515 -239.045249 
L 155.394885 -225.994727 
L 155.394885 -248.707386 
L 155.394885 -248.707386 
L 146.272515 -257.182083 
L 137.150145 -258.097257 
L 128.027775 -290.091944 
L 118.905405 -264.542851 
L 109.783035 -261.099127 
L 100.660665 -257.126937 
L 91.538295 -250.197756 
L 82.415925 -253.148965 
L 73.293555 -269.524807 
L 64.171185 -251.517938 
z
" style="stroke: #ff7f0e; stroke-opacity: 0.2"/>
    </defs>
    <g clip-path="url(#pe8b74925a8)">
     <use xlink:href="#me7363642dc" x="0" y="403.2" style="fill: #ff7f0e; fill-opacity: 0.2; stroke: #ff7f0e; stroke-opacity: 0.2"/>
    </g>
   </g>
   <g id="matplotlib.axis_5">
    <g id="xtick_7">
     <g id="line2d_17">
      <g>
       <use xlink:href="#m7fbb4b9977" x="63.258948" y="180.924" style="stroke: #000000; stroke-width: 0.8"/>
      </g>
     </g>
    </g>
    <g id="xtick_8">
     <g id="line2d_18">
      <g>
       <use xlink:href="#m7fbb4b9977" x="108.870798" y="180.924" style="stroke: #000000; stroke-width: 0.8"/>
      </g>
     </g>
    </g>
    <g id="xtick_9">
     <g id="line2d_19">
      <g>
       <use xlink:href="#m7fbb4b9977" x="154.482648" y="180.924" style="stroke: #000000; stroke-width: 0.8"/>
      </g>
     </g>
    </g>
   </g>
   <g id="matplotlib.axis_6">
    <g id="ytick_7">
     <g id="line2d_20">
      <g>
       <use xlink:href="#mc6057a8fe2" x="59.61" y="174.337689" style="stroke: #000000; stroke-width: 0.8"/>
      </g>
     </g>
     <g id="text_11">
      <!-- −5 -->
      <g transform="translate(37.867812 178.136908) scale(0.1 -0.1)">
       <defs>
        <path id="DejaVuSans-35" d="M 691 4666 
L 3169 4666 
L 3169 4134 
L 1269 4134 
L 1269 2991 
Q 1406 3038 1543 3061 
Q 1681 3084 1819 3084 
Q 2600 3084 3056 2656 
Q 3513 2228 3513 1497 
Q 3513 744 3044 326 
Q 2575 -91 1722 -91 
Q 1428 -91 1123 -41 
Q 819 9 494 109 
L 494 744 
Q 775 591 1075 516 
Q 1375 441 1709 441 
Q 2250 441 2565 725 
Q 2881 1009 2881 1497 
Q 2881 1984 2565 2268 
Q 2250 2553 1709 2553 
Q 1456 2553 1204 2497 
Q 953 2441 691 2322 
L 691 4666 
z
" transform="scale(0.015625)"/>
       </defs>
       <use xlink:href="#DejaVuSans-2212"/>
       <use xlink:href="#DejaVuSans-35" x="83.789062"/>
      </g>
     </g>
    </g>
    <g id="ytick_8">
     <g id="line2d_21">
      <g>
       <use xlink:href="#mc6057a8fe2" x="59.61" y="151.682062" style="stroke: #000000; stroke-width: 0.8"/>
      </g>
     </g>
     <g id="text_12">
      <!-- 0 -->
      <g transform="translate(46.2475 155.481281) scale(0.1 -0.1)">
       <use xlink:href="#DejaVuSans-30"/>
      </g>
     </g>
    </g>
    <g id="ytick_9">
     <g id="line2d_22">
      <g>
       <use xlink:href="#mc6057a8fe2" x="59.61" y="129.026435" style="stroke: #000000; stroke-width: 0.8"/>
      </g>
     </g>
     <g id="text_13">
      <!-- 5 -->
      <g transform="translate(46.2475 132.825654) scale(0.1 -0.1)">
       <use xlink:href="#DejaVuSans-35"/>
      </g>
     </g>
    </g>
    <g id="ytick_10">
     <g id="line2d_23">
      <g>
       <use xlink:href="#mc6057a8fe2" x="59.61" y="106.370808" style="stroke: #000000; stroke-width: 0.8"/>
      </g>
     </g>
     <g id="text_14">
      <!-- 10 -->
      <g transform="translate(39.885 110.170027) scale(0.1 -0.1)">
       <defs>
        <path id="DejaVuSans-31" d="M 794 531 
L 1825 531 
L 1825 4091 
L 703 3866 
L 703 4441 
L 1819 4666 
L 2450 4666 
L 2450 531 
L 3481 531 
L 3481 0 
L 794 0 
L 794 531 
z
" transform="scale(0.015625)"/>
       </defs>
       <use xlink:href="#DejaVuSans-31"/>
       <use xlink:href="#DejaVuSans-30" x="63.623047"/>
      </g>
     </g>
    </g>
    <g id="text_15">
     <!-- $\langle \hat{a}_{\mathrm{r}} \rangle$ -->
     <g transform="translate(34.288125 148.618) rotate(-90) scale(0.1 -0.1)">
      <defs>
       <path id="DejaVuSans-27e8" d="M 572 2006 
L 1453 4856 
L 1984 4856 
L 1103 2006 
L 1984 -844 
L 1453 -844 
L 572 2006 
z
" transform="scale(0.015625)"/>
       <path id="DejaVuSans-302" d="M -1831 5119 
L -1369 5119 
L -603 3944 
L -1038 3944 
L -1600 4709 
L -2163 3944 
L -2597 3944 
L -1831 5119 
z
M -1600 3584 
L -1600 3584 
z
" transform="scale(0.015625)"/>
       <path id="DejaVuSans-Oblique-61" d="M 3438 1997 
L 3047 0 
L 2472 0 
L 2578 531 
Q 2325 219 2001 64 
Q 1678 -91 1281 -91 
Q 834 -91 548 182 
Q 263 456 263 884 
Q 263 1497 752 1853 
Q 1241 2209 2100 2209 
L 2900 2209 
L 2931 2363 
Q 2938 2388 2941 2417 
Q 2944 2447 2944 2509 
Q 2944 2788 2717 2942 
Q 2491 3097 2081 3097 
Q 1800 3097 1504 3025 
Q 1209 2953 897 2809 
L 997 3341 
Q 1322 3463 1633 3523 
Q 1944 3584 2234 3584 
Q 2853 3584 3176 3315 
Q 3500 3047 3500 2534 
Q 3500 2431 3484 2292 
Q 3469 2153 3438 1997 
z
M 2816 1759 
L 2241 1759 
Q 1534 1759 1195 1570 
Q 856 1381 856 984 
Q 856 709 1029 553 
Q 1203 397 1509 397 
Q 1978 397 2328 733 
Q 2678 1069 2791 1631 
L 2816 1759 
z
" transform="scale(0.015625)"/>
       <path id="DejaVuSans-72" d="M 2631 2963 
Q 2534 3019 2420 3045 
Q 2306 3072 2169 3072 
Q 1681 3072 1420 2755 
Q 1159 2438 1159 1844 
L 1159 0 
L 581 0 
L 581 3500 
L 1159 3500 
L 1159 2956 
Q 1341 3275 1631 3429 
Q 1922 3584 2338 3584 
Q 2397 3584 2469 3576 
Q 2541 3569 2628 3553 
L 2631 2963 
z
" transform="scale(0.015625)"/>
       <path id="DejaVuSans-27e9" d="M 1925 2006 
L 1044 -844 
L 513 -844 
L 1394 2006 
L 513 4856 
L 1044 4856 
L 1925 2006 
z
" transform="scale(0.015625)"/>
      </defs>
      <use xlink:href="#DejaVuSans-27e8" transform="translate(0 0.515625)"/>
      <use xlink:href="#DejaVuSans-302" transform="translate(101.911621 13.015625)"/>
      <use xlink:href="#DejaVuSans-Oblique-61" transform="translate(39.013672 0.515625)"/>
      <use xlink:href="#DejaVuSans-72" transform="translate(101.25 -15.890625) scale(0.7)"/>
      <use xlink:href="#DejaVuSans-27e9" transform="translate(132.763672 0.515625)"/>
     </g>
    </g>
   </g>
   <g id="line2d_24">
    <path d="M 64.171185 151.682062 
L 73.293555 141.281918 
L 82.415925 139.76604 
L 91.538295 132.333459 
L 100.660665 136.358278 
L 109.783035 138.302396 
L 118.905405 133.959029 
L 128.027775 137.326385 
L 137.150145 138.086007 
L 146.272515 128.728833 
L 155.394885 132.4033 
" clip-path="url(#pe8b74925a8)" style="fill: none; stroke: #1f77b4; stroke-width: 1.5; stroke-linecap: square"/>
   </g>
   <g id="line2d_25">
    <path d="M 64.171185 151.682062 
L 73.293555 148.916246 
L 82.415925 153.379201 
L 91.538295 159.071597 
L 100.660665 152.087464 
L 109.783035 152.755642 
L 118.905405 148.690047 
L 128.027775 143.033611 
L 137.150145 153.114322 
L 146.272515 154.372157 
L 155.394885 162.979816 
" clip-path="url(#pe8b74925a8)" style="fill: none; stroke-dasharray: 1.5,2.475; stroke-dashoffset: 0; stroke: #ff7f0e; stroke-width: 1.5"/>
   </g>
   <g id="patch_13">
    <path d="M 59.61 180.924 
L 59.61 99.112 
" style="fill: none; stroke: #000000; stroke-width: 0.8; stroke-linejoin: miter; stroke-linecap: square"/>
   </g>
   <g id="patch_14">
    <path d="M 159.95607 180.924 
L 159.95607 99.112 
" style="fill: none; stroke: #000000; stroke-width: 0.8; stroke-linejoin: miter; stroke-linecap: square"/>
   </g>
   <g id="patch_15">
    <path d="M 59.61 180.924 
L 159.95607 180.924 
" style="fill: none; stroke: #000000; stroke-width: 0.8; stroke-linejoin: miter; stroke-linecap: square"/>
   </g>
   <g id="patch_16">
    <path d="M 59.61 99.112 
L 159.95607 99.112 
" style="fill: none; stroke: #000000; stroke-width: 0.8; stroke-linejoin: miter; stroke-linecap: square"/>
   </g>
   <g id="text_16">
    <!-- (c) -->
    <g transform="translate(29.506179 109.74756) scale(0.1 -0.1)">
     <defs>
      <path id="DejaVuSans-63" d="M 3122 3366 
L 3122 2828 
Q 2878 2963 2633 3030 
Q 2388 3097 2138 3097 
Q 1578 3097 1268 2742 
Q 959 2388 959 1747 
Q 959 1106 1268 751 
Q 1578 397 2138 397 
Q 2388 397 2633 464 
Q 2878 531 3122 666 
L 3122 134 
Q 2881 22 2623 -34 
Q 2366 -91 2075 -91 
Q 1284 -91 818 406 
Q 353 903 353 1747 
Q 353 2603 823 3093 
Q 1294 3584 2113 3584 
Q 2378 3584 2631 3529 
Q 2884 3475 3122 3366 
z
" transform="scale(0.015625)"/>
     </defs>
     <use xlink:href="#DejaVuSans-28"/>
     <use xlink:href="#DejaVuSans-63" x="39.013672"/>
     <use xlink:href="#DejaVuSans-29" x="93.994141"/>
    </g>
   </g>
  </g>
  <g id="axes_4">
   <g id="patch_17">
    <path d="M 220.50207 180.924 
L 320.84814 180.924 
L 320.84814 99.112 
L 220.50207 99.112 
z
" style="fill: #ffffff"/>
   </g>
   <g id="PolyCollection_7">
    <defs>
     <path id="m0ea83c3c2e" d="M 225.063255 -251.517938 
L 225.063255 -251.517938 
L 234.185625 -276.854451 
L 243.307995 -279.985049 
L 252.430365 -286.545283 
L 261.552735 -282.843718 
L 270.675105 -287.274075 
L 279.797475 -281.399339 
L 288.919845 -285.326437 
L 298.042215 -281.146273 
L 307.164585 -300.369273 
L 316.286955 -290.985815 
L 316.286955 -226.224571 
L 316.286955 -226.224571 
L 307.164585 -249.052455 
L 298.042215 -249.608793 
L 288.919845 -255.745472 
L 279.797475 -247.076437 
L 270.675105 -249.070241 
L 261.552735 -244.604997 
L 252.430365 -242.110118 
L 243.307995 -247.375943 
L 234.185625 -239.191619 
L 225.063255 -251.517938 
z
" style="stroke: #1f77b4; stroke-opacity: 0.2"/>
    </defs>
    <g clip-path="url(#p9d521d20c5)">
     <use xlink:href="#m0ea83c3c2e" x="0" y="403.2" style="fill: #1f77b4; fill-opacity: 0.2; stroke: #1f77b4; stroke-opacity: 0.2"/>
    </g>
   </g>
   <g id="PolyCollection_8">
    <defs>
     <path id="m551e28ae9b" d="M 225.063255 -251.517938 
L 225.063255 -251.517938 
L 234.185625 -285.439302 
L 243.307995 -263.119679 
L 252.430365 -252.211253 
L 261.552735 -259.294323 
L 270.675105 -257.909784 
L 279.797475 -282.752554 
L 288.919845 -280.610009 
L 298.042215 -257.674615 
L 307.164585 -262.338335 
L 316.286955 -250.459011 
L 316.286955 -234.070413 
L 316.286955 -234.070413 
L 307.164585 -243.330233 
L 298.042215 -239.424418 
L 288.919845 -236.698335 
L 279.797475 -241.971824 
L 270.675105 -247.535772 
L 261.552735 -238.426253 
L 252.430365 -238.000147 
L 243.307995 -246.440262 
L 234.185625 -242.10327 
L 225.063255 -251.517938 
z
" style="stroke: #ff7f0e; stroke-opacity: 0.2"/>
    </defs>
    <g clip-path="url(#p9d521d20c5)">
     <use xlink:href="#m551e28ae9b" x="0" y="403.2" style="fill: #ff7f0e; fill-opacity: 0.2; stroke: #ff7f0e; stroke-opacity: 0.2"/>
    </g>
   </g>
   <g id="matplotlib.axis_7">
    <g id="xtick_10">
     <g id="line2d_26">
      <g>
       <use xlink:href="#m7fbb4b9977" x="224.151018" y="180.924" style="stroke: #000000; stroke-width: 0.8"/>
      </g>
     </g>
    </g>
    <g id="xtick_11">
     <g id="line2d_27">
      <g>
       <use xlink:href="#m7fbb4b9977" x="269.762868" y="180.924" style="stroke: #000000; stroke-width: 0.8"/>
      </g>
     </g>
    </g>
    <g id="xtick_12">
     <g id="line2d_28">
      <g>
       <use xlink:href="#m7fbb4b9977" x="315.374718" y="180.924" style="stroke: #000000; stroke-width: 0.8"/>
      </g>
     </g>
    </g>
   </g>
   <g id="matplotlib.axis_8">
    <g id="ytick_11">
     <g id="line2d_29">
      <g>
       <use xlink:href="#mc6057a8fe2" x="220.50207" y="174.337689" style="stroke: #000000; stroke-width: 0.8"/>
      </g>
     </g>
     <g id="text_17">
      <!-- −5 -->
      <g transform="translate(198.759883 178.136908) scale(0.1 -0.1)">
       <use xlink:href="#DejaVuSans-2212"/>
       <use xlink:href="#DejaVuSans-35" x="83.789062"/>
      </g>
     </g>
    </g>
    <g id="ytick_12">
     <g id="line2d_30">
      <g>
       <use xlink:href="#mc6057a8fe2" x="220.50207" y="151.682062" style="stroke: #000000; stroke-width: 0.8"/>
      </g>
     </g>
     <g id="text_18">
      <!-- 0 -->
      <g transform="translate(207.13957 155.481281) scale(0.1 -0.1)">
       <use xlink:href="#DejaVuSans-30"/>
      </g>
     </g>
    </g>
    <g id="ytick_13">
     <g id="line2d_31">
      <g>
       <use xlink:href="#mc6057a8fe2" x="220.50207" y="129.026435" style="stroke: #000000; stroke-width: 0.8"/>
      </g>
     </g>
     <g id="text_19">
      <!-- 5 -->
      <g transform="translate(207.13957 132.825654) scale(0.1 -0.1)">
       <use xlink:href="#DejaVuSans-35"/>
      </g>
     </g>
    </g>
    <g id="ytick_14">
     <g id="line2d_32">
      <g>
       <use xlink:href="#mc6057a8fe2" x="220.50207" y="106.370808" style="stroke: #000000; stroke-width: 0.8"/>
      </g>
     </g>
     <g id="text_20">
      <!-- 10 -->
      <g transform="translate(200.77707 110.170027) scale(0.1 -0.1)">
       <use xlink:href="#DejaVuSans-31"/>
       <use xlink:href="#DejaVuSans-30" x="63.623047"/>
      </g>
     </g>
    </g>
    <g id="text_21">
     <!-- $\langle \hat{a}_{\mathrm{i}} \rangle$ -->
     <g transform="translate(195.180195 148.168) rotate(-90) scale(0.1 -0.1)">
      <defs>
       <path id="DejaVuSans-69" d="M 603 3500 
L 1178 3500 
L 1178 0 
L 603 0 
L 603 3500 
z
M 603 4863 
L 1178 4863 
L 1178 4134 
L 603 4134 
L 603 4863 
z
" transform="scale(0.015625)"/>
      </defs>
      <use xlink:href="#DejaVuSans-27e8" transform="translate(0 0.515625)"/>
      <use xlink:href="#DejaVuSans-302" transform="translate(101.911621 13.015625)"/>
      <use xlink:href="#DejaVuSans-Oblique-61" transform="translate(39.013672 0.515625)"/>
      <use xlink:href="#DejaVuSans-69" transform="translate(101.25 -15.890625) scale(0.7)"/>
      <use xlink:href="#DejaVuSans-27e9" transform="translate(123.432617 0.515625)"/>
     </g>
    </g>
   </g>
   <g id="line2d_33">
    <path d="M 225.063255 151.682062 
L 234.185625 143.819109 
L 243.307995 136.386184 
L 252.430365 137.154841 
L 261.552735 140.294666 
L 270.675105 137.194527 
L 279.797475 135.252091 
L 288.919845 134.548889 
L 298.042215 138.509706 
L 307.164585 128.39375 
L 316.286955 142.298788 
" clip-path="url(#p9d521d20c5)" style="fill: none; stroke: #1f77b4; stroke-width: 1.5; stroke-linecap: square"/>
   </g>
   <g id="line2d_34">
    <path d="M 225.063255 151.682062 
L 234.185625 145.703406 
L 243.307995 151.503301 
L 252.430365 158.706486 
L 261.552735 154.856262 
L 270.675105 150.39086 
L 279.797475 145.450569 
L 288.919845 145.715137 
L 298.042215 153.994383 
L 307.164585 150.122171 
L 316.286955 160.246469 
" clip-path="url(#p9d521d20c5)" style="fill: none; stroke-dasharray: 1.5,2.475; stroke-dashoffset: 0; stroke: #ff7f0e; stroke-width: 1.5"/>
   </g>
   <g id="patch_18">
    <path d="M 220.50207 180.924 
L 220.50207 99.112 
" style="fill: none; stroke: #000000; stroke-width: 0.8; stroke-linejoin: miter; stroke-linecap: square"/>
   </g>
   <g id="patch_19">
    <path d="M 320.84814 180.924 
L 320.84814 99.112 
" style="fill: none; stroke: #000000; stroke-width: 0.8; stroke-linejoin: miter; stroke-linecap: square"/>
   </g>
   <g id="patch_20">
    <path d="M 220.50207 180.924 
L 320.84814 180.924 
" style="fill: none; stroke: #000000; stroke-width: 0.8; stroke-linejoin: miter; stroke-linecap: square"/>
   </g>
   <g id="patch_21">
    <path d="M 220.50207 99.112 
L 320.84814 99.112 
" style="fill: none; stroke: #000000; stroke-width: 0.8; stroke-linejoin: miter; stroke-linecap: square"/>
   </g>
   <g id="text_22">
    <!-- (d) -->
    <g transform="translate(190.398249 109.74756) scale(0.1 -0.1)">
     <defs>
      <path id="DejaVuSans-64" d="M 2906 2969 
L 2906 4863 
L 3481 4863 
L 3481 0 
L 2906 0 
L 2906 525 
Q 2725 213 2448 61 
Q 2172 -91 1784 -91 
Q 1150 -91 751 415 
Q 353 922 353 1747 
Q 353 2572 751 3078 
Q 1150 3584 1784 3584 
Q 2172 3584 2448 3432 
Q 2725 3281 2906 2969 
z
M 947 1747 
Q 947 1113 1208 752 
Q 1469 391 1925 391 
Q 2381 391 2643 752 
Q 2906 1113 2906 1747 
Q 2906 2381 2643 2742 
Q 2381 3103 1925 3103 
Q 1469 3103 1208 2742 
Q 947 2381 947 1747 
z
" transform="scale(0.015625)"/>
     </defs>
     <use xlink:href="#DejaVuSans-28"/>
     <use xlink:href="#DejaVuSans-64" x="39.013672"/>
     <use xlink:href="#DejaVuSans-29" x="102.490234"/>
    </g>
   </g>
  </g>
  <g id="axes_5">
   <g id="patch_22">
    <path d="M 59.61 269.236 
L 159.95607 269.236 
L 159.95607 187.424 
L 59.61 187.424 
z
" style="fill: #ffffff"/>
   </g>
   <g id="PolyCollection_9">
    <defs>
     <path id="m983c0d137a" d="M 64.171185 -176.072498 
L 64.171185 -171.323587 
L 73.293555 -163.030115 
L 82.415925 -163.245568 
L 91.538295 -152.555057 
L 100.660665 -142.293854 
L 109.783035 -159.674514 
L 118.905405 -161.363291 
L 128.027775 -154.507346 
L 137.150145 -161.137173 
L 146.272515 -159.701699 
L 155.394885 -148.640247 
L 155.394885 -197.863451 
L 155.394885 -197.863451 
L 146.272515 -194.221248 
L 137.150145 -199.857384 
L 128.027775 -181.534453 
L 118.905405 -190.347577 
L 109.783035 -188.408085 
L 100.660665 -182.916211 
L 91.538295 -181.072306 
L 82.415925 -186.305372 
L 73.293555 -188.314228 
L 64.171185 -176.072498 
z
" style="stroke: #1f77b4; stroke-opacity: 0.2"/>
    </defs>
    <g clip-path="url(#pba253dc88b)">
     <use xlink:href="#m983c0d137a" x="0" y="403.2" style="fill: #1f77b4; fill-opacity: 0.2; stroke: #1f77b4; stroke-opacity: 0.2"/>
    </g>
   </g>
   <g id="PolyCollection_10">
    <defs>
     <path id="mc496e1acf1" d="M 64.171185 -176.333352 
L 64.171185 -172.473533 
L 73.293555 -146.29978 
L 82.415925 -160.382721 
L 91.538295 -174.847895 
L 100.660665 -158.72528 
L 109.783035 -166.394381 
L 118.905405 -141.6841 
L 128.027775 -157.609792 
L 137.150145 -160.479622 
L 146.272515 -156.216677 
L 155.394885 -144.012308 
L 155.394885 -188.889538 
L 155.394885 -188.889538 
L 146.272515 -199.392216 
L 137.150145 -182.398423 
L 128.027775 -199.760497 
L 118.905405 -196.267772 
L 109.783035 -195.882897 
L 100.660665 -187.456463 
L 91.538295 -183.287342 
L 82.415925 -190.63038 
L 73.293555 -187.682539 
L 64.171185 -176.333352 
z
" style="stroke: #ff7f0e; stroke-opacity: 0.2"/>
    </defs>
    <g clip-path="url(#pba253dc88b)">
     <use xlink:href="#mc496e1acf1" x="0" y="403.2" style="fill: #ff7f0e; fill-opacity: 0.2; stroke: #ff7f0e; stroke-opacity: 0.2"/>
    </g>
   </g>
   <g id="matplotlib.axis_9">
    <g id="xtick_13">
     <g id="line2d_35">
      <g>
       <use xlink:href="#m7fbb4b9977" x="63.258948" y="269.236" style="stroke: #000000; stroke-width: 0.8"/>
      </g>
     </g>
    </g>
    <g id="xtick_14">
     <g id="line2d_36">
      <g>
       <use xlink:href="#m7fbb4b9977" x="108.870798" y="269.236" style="stroke: #000000; stroke-width: 0.8"/>
      </g>
     </g>
    </g>
    <g id="xtick_15">
     <g id="line2d_37">
      <g>
       <use xlink:href="#m7fbb4b9977" x="154.482648" y="269.236" style="stroke: #000000; stroke-width: 0.8"/>
      </g>
     </g>
    </g>
   </g>
   <g id="matplotlib.axis_10">
    <g id="ytick_15">
     <g id="line2d_38">
      <g>
       <use xlink:href="#mc6057a8fe2" x="59.61" y="252.386978" style="stroke: #000000; stroke-width: 0.8"/>
      </g>
     </g>
     <g id="text_23">
      <!-- −0.1 -->
      <g transform="translate(28.327187 256.186196) scale(0.1 -0.1)">
       <use xlink:href="#DejaVuSans-2212"/>
       <use xlink:href="#DejaVuSans-30" x="83.789062"/>
       <use xlink:href="#DejaVuSans-2e" x="147.412109"/>
       <use xlink:href="#DejaVuSans-31" x="179.199219"/>
      </g>
     </g>
    </g>
    <g id="ytick_16">
     <g id="line2d_39">
      <g>
       <use xlink:href="#mc6057a8fe2" x="59.61" y="228.151964" style="stroke: #000000; stroke-width: 0.8"/>
      </g>
     </g>
     <g id="text_24">
      <!-- 0.0 -->
      <g transform="translate(36.706875 231.951183) scale(0.1 -0.1)">
       <use xlink:href="#DejaVuSans-30"/>
       <use xlink:href="#DejaVuSans-2e" x="63.623047"/>
       <use xlink:href="#DejaVuSans-30" x="95.410156"/>
      </g>
     </g>
    </g>
    <g id="ytick_17">
     <g id="line2d_40">
      <g>
       <use xlink:href="#mc6057a8fe2" x="59.61" y="203.91695" style="stroke: #000000; stroke-width: 0.8"/>
      </g>
     </g>
     <g id="text_25">
      <!-- 0.1 -->
      <g transform="translate(36.706875 207.716169) scale(0.1 -0.1)">
       <use xlink:href="#DejaVuSans-30"/>
       <use xlink:href="#DejaVuSans-2e" x="63.623047"/>
       <use xlink:href="#DejaVuSans-31" x="95.410156"/>
      </g>
     </g>
    </g>
    <g id="text_26">
     <!-- $\langle \hat J_x \rangle$ -->
     <g transform="translate(24.727187 236.68) rotate(-90) scale(0.1 -0.1)">
      <defs>
       <path id="DejaVuSans-Oblique-4a" d="M 1069 4666 
L 1703 4666 
L 856 325 
Q 691 -522 298 -901 
Q -94 -1281 -800 -1281 
L -1050 -1281 
L -947 -750 
L -750 -750 
Q -328 -750 -109 -509 
Q 109 -269 225 325 
L 1069 4666 
z
" transform="scale(0.015625)"/>
       <path id="DejaVuSans-Oblique-78" d="M 3841 3500 
L 2234 1784 
L 3219 0 
L 2559 0 
L 1819 1388 
L 531 0 
L -166 0 
L 1556 1844 
L 641 3500 
L 1300 3500 
L 1972 2234 
L 3144 3500 
L 3841 3500 
z
" transform="scale(0.015625)"/>
      </defs>
      <use xlink:href="#DejaVuSans-27e8" transform="translate(0 0.609375)"/>
      <use xlink:href="#DejaVuSans-302" transform="translate(91.345703 30.015625)"/>
      <use xlink:href="#DejaVuSans-Oblique-4a" transform="translate(39.013672 0.609375)"/>
      <use xlink:href="#DejaVuSans-Oblique-78" transform="translate(82.986328 -15.796875) scale(0.7)"/>
      <use xlink:href="#DejaVuSans-27e9" transform="translate(127.146484 0.609375)"/>
     </g>
    </g>
   </g>
   <g id="line2d_41">
    <path d="M 64.171185 229.44567 
L 73.293555 228.209165 
L 82.415925 227.451335 
L 91.538295 235.794898 
L 100.660665 241.877405 
L 109.783035 227.117414 
L 118.905405 227.37366 
L 128.027775 232.087933 
L 137.150145 225.363276 
L 146.272515 227.541729 
L 155.394885 233.695014 
" clip-path="url(#pba253dc88b)" style="fill: none; stroke: #1f77b4; stroke-width: 1.5; stroke-linecap: square"/>
   </g>
   <g id="line2d_42">
    <path d="M 64.171185 229.09681 
L 73.293555 238.708345 
L 82.415925 230.130327 
L 91.538295 223.514443 
L 100.660665 232.349712 
L 109.783035 222.08587 
L 118.905405 229.211509 
L 128.027775 226.639996 
L 137.150145 230.295867 
L 146.272515 225.830205 
L 155.394885 240.34179 
" clip-path="url(#pba253dc88b)" style="fill: none; stroke-dasharray: 1.5,2.475; stroke-dashoffset: 0; stroke: #ff7f0e; stroke-width: 1.5"/>
   </g>
   <g id="patch_23">
    <path d="M 59.61 269.236 
L 59.61 187.424 
" style="fill: none; stroke: #000000; stroke-width: 0.8; stroke-linejoin: miter; stroke-linecap: square"/>
   </g>
   <g id="patch_24">
    <path d="M 159.95607 269.236 
L 159.95607 187.424 
" style="fill: none; stroke: #000000; stroke-width: 0.8; stroke-linejoin: miter; stroke-linecap: square"/>
   </g>
   <g id="patch_25">
    <path d="M 59.61 269.236 
L 159.95607 269.236 
" style="fill: none; stroke: #000000; stroke-width: 0.8; stroke-linejoin: miter; stroke-linecap: square"/>
   </g>
   <g id="patch_26">
    <path d="M 59.61 187.424 
L 159.95607 187.424 
" style="fill: none; stroke: #000000; stroke-width: 0.8; stroke-linejoin: miter; stroke-linecap: square"/>
   </g>
   <g id="text_27">
    <!-- (e) -->
    <g transform="translate(29.506179 198.05956) scale(0.1 -0.1)">
     <defs>
      <path id="DejaVuSans-65" d="M 3597 1894 
L 3597 1613 
L 953 1613 
Q 991 1019 1311 708 
Q 1631 397 2203 397 
Q 2534 397 2845 478 
Q 3156 559 3463 722 
L 3463 178 
Q 3153 47 2828 -22 
Q 2503 -91 2169 -91 
Q 1331 -91 842 396 
Q 353 884 353 1716 
Q 353 2575 817 3079 
Q 1281 3584 2069 3584 
Q 2775 3584 3186 3129 
Q 3597 2675 3597 1894 
z
M 3022 2063 
Q 3016 2534 2758 2815 
Q 2500 3097 2075 3097 
Q 1594 3097 1305 2825 
Q 1016 2553 972 2059 
L 3022 2063 
z
" transform="scale(0.015625)"/>
     </defs>
     <use xlink:href="#DejaVuSans-28"/>
     <use xlink:href="#DejaVuSans-65" x="39.013672"/>
     <use xlink:href="#DejaVuSans-29" x="100.537109"/>
    </g>
   </g>
  </g>
  <g id="axes_6">
   <g id="patch_27">
    <path d="M 220.50207 269.236 
L 320.84814 269.236 
L 320.84814 187.424 
L 220.50207 187.424 
z
" style="fill: #ffffff"/>
   </g>
   <g id="PolyCollection_11">
    <defs>
     <path id="me0ac5608b0" d="M 225.063255 -177.702888 
L 225.063255 -174.7707 
L 234.185625 -156.897337 
L 243.307995 -154.811899 
L 252.430365 -145.148072 
L 261.552735 -152.625265 
L 270.675105 -164.989104 
L 279.797475 -162.514173 
L 288.919845 -162.637606 
L 298.042215 -137.682727 
L 307.164585 -161.78392 
L 316.286955 -162.090576 
L 316.286955 -193.063039 
L 316.286955 -193.063039 
L 307.164585 -207.224103 
L 298.042215 -176.220739 
L 288.919845 -196.147258 
L 279.797475 -198.43866 
L 270.675105 -183.047868 
L 261.552735 -190.748744 
L 252.430365 -190.527234 
L 243.307995 -188.351887 
L 234.185625 -183.879597 
L 225.063255 -177.702888 
z
" style="stroke: #1f77b4; stroke-opacity: 0.2"/>
    </defs>
    <g clip-path="url(#pc2ea76c82b)">
     <use xlink:href="#me0ac5608b0" x="0" y="403.2" style="fill: #1f77b4; fill-opacity: 0.2; stroke: #1f77b4; stroke-opacity: 0.2"/>
    </g>
   </g>
   <g id="PolyCollection_12">
    <defs>
     <path id="m204d7193b6" d="M 225.063255 -180.06004 
L 225.063255 -173.142468 
L 234.185625 -159.51262 
L 243.307995 -151.391719 
L 252.430365 -157.041709 
L 261.552735 -145.494653 
L 270.675105 -156.634416 
L 279.797475 -161.04994 
L 288.919845 -160.917405 
L 298.042215 -157.775249 
L 307.164585 -146.217138 
L 316.286955 -142.280786 
L 316.286955 -212.057273 
L 316.286955 -212.057273 
L 307.164585 -208.418916 
L 298.042215 -209.041273 
L 288.919845 -180.051641 
L 279.797475 -200.494764 
L 270.675105 -182.761761 
L 261.552735 -178.34788 
L 252.430365 -198.472627 
L 243.307995 -203.498645 
L 234.185625 -189.489762 
L 225.063255 -180.06004 
z
" style="stroke: #ff7f0e; stroke-opacity: 0.2"/>
    </defs>
    <g clip-path="url(#pc2ea76c82b)">
     <use xlink:href="#m204d7193b6" x="0" y="403.2" style="fill: #ff7f0e; fill-opacity: 0.2; stroke: #ff7f0e; stroke-opacity: 0.2"/>
    </g>
   </g>
   <g id="matplotlib.axis_11">
    <g id="xtick_16">
     <g id="line2d_43">
      <g>
       <use xlink:href="#m7fbb4b9977" x="224.151018" y="269.236" style="stroke: #000000; stroke-width: 0.8"/>
      </g>
     </g>
    </g>
    <g id="xtick_17">
     <g id="line2d_44">
      <g>
       <use xlink:href="#m7fbb4b9977" x="269.762868" y="269.236" style="stroke: #000000; stroke-width: 0.8"/>
      </g>
     </g>
    </g>
    <g id="xtick_18">
     <g id="line2d_45">
      <g>
       <use xlink:href="#m7fbb4b9977" x="315.374718" y="269.236" style="stroke: #000000; stroke-width: 0.8"/>
      </g>
     </g>
    </g>
   </g>
   <g id="matplotlib.axis_12">
    <g id="ytick_18">
     <g id="line2d_46">
      <g>
       <use xlink:href="#mc6057a8fe2" x="220.50207" y="252.386978" style="stroke: #000000; stroke-width: 0.8"/>
      </g>
     </g>
     <g id="text_28">
      <!-- −0.1 -->
      <g transform="translate(189.219258 256.186196) scale(0.1 -0.1)">
       <use xlink:href="#DejaVuSans-2212"/>
       <use xlink:href="#DejaVuSans-30" x="83.789062"/>
       <use xlink:href="#DejaVuSans-2e" x="147.412109"/>
       <use xlink:href="#DejaVuSans-31" x="179.199219"/>
      </g>
     </g>
    </g>
    <g id="ytick_19">
     <g id="line2d_47">
      <g>
       <use xlink:href="#mc6057a8fe2" x="220.50207" y="228.151964" style="stroke: #000000; stroke-width: 0.8"/>
      </g>
     </g>
     <g id="text_29">
      <!-- 0.0 -->
      <g transform="translate(197.598945 231.951183) scale(0.1 -0.1)">
       <use xlink:href="#DejaVuSans-30"/>
       <use xlink:href="#DejaVuSans-2e" x="63.623047"/>
       <use xlink:href="#DejaVuSans-30" x="95.410156"/>
      </g>
     </g>
    </g>
    <g id="ytick_20">
     <g id="line2d_48">
      <g>
       <use xlink:href="#mc6057a8fe2" x="220.50207" y="203.91695" style="stroke: #000000; stroke-width: 0.8"/>
      </g>
     </g>
     <g id="text_30">
      <!-- 0.1 -->
      <g transform="translate(197.598945 207.716169) scale(0.1 -0.1)">
       <use xlink:href="#DejaVuSans-30"/>
       <use xlink:href="#DejaVuSans-2e" x="63.623047"/>
       <use xlink:href="#DejaVuSans-31" x="95.410156"/>
      </g>
     </g>
    </g>
    <g id="text_31">
     <!-- $\langle \hat J_y \rangle$ -->
     <g transform="translate(184.619258 236.68) rotate(-90) scale(0.1 -0.1)">
      <defs>
       <path id="DejaVuSans-Oblique-79" d="M 1588 -325 
Q 1188 -997 936 -1164 
Q 684 -1331 294 -1331 
L -159 -1331 
L -63 -850 
L 269 -850 
Q 509 -850 678 -719 
Q 847 -588 1056 -206 
L 1234 128 
L 459 3500 
L 1069 3500 
L 1650 819 
L 3256 3500 
L 3859 3500 
L 1588 -325 
z
" transform="scale(0.015625)"/>
      </defs>
      <use xlink:href="#DejaVuSans-27e8" transform="translate(0 0.609375)"/>
      <use xlink:href="#DejaVuSans-302" transform="translate(91.345703 30.015625)"/>
      <use xlink:href="#DejaVuSans-Oblique-4a" transform="translate(39.013672 0.609375)"/>
      <use xlink:href="#DejaVuSans-Oblique-79" transform="translate(82.986328 -15.796875) scale(0.7)"/>
      <use xlink:href="#DejaVuSans-27e9" transform="translate(127.146484 0.609375)"/>
     </g>
    </g>
   </g>
   <g id="line2d_49">
    <path d="M 225.063255 227.073699 
L 234.185625 232.660786 
L 243.307995 231.967883 
L 252.430365 234.950285 
L 261.552735 229.837094 
L 270.675105 227.424672 
L 279.797475 227.337009 
L 288.919845 222.20067 
L 298.042215 245.177542 
L 307.164585 221.062974 
L 316.286955 226.745922 
" clip-path="url(#pc2ea76c82b)" style="fill: none; stroke: #1f77b4; stroke-width: 1.5; stroke-linecap: square"/>
   </g>
   <g id="line2d_50">
    <path d="M 225.063255 227.256562 
L 234.185625 226.712163 
L 243.307995 225.843944 
L 252.430365 230.326421 
L 261.552735 238.666505 
L 270.675105 232.04145 
L 279.797475 225.828434 
L 288.919845 232.101954 
L 298.042215 215.927409 
L 307.164585 229.261589 
L 316.286955 227.633318 
" clip-path="url(#pc2ea76c82b)" style="fill: none; stroke-dasharray: 1.5,2.475; stroke-dashoffset: 0; stroke: #ff7f0e; stroke-width: 1.5"/>
   </g>
   <g id="patch_28">
    <path d="M 220.50207 269.236 
L 220.50207 187.424 
" style="fill: none; stroke: #000000; stroke-width: 0.8; stroke-linejoin: miter; stroke-linecap: square"/>
   </g>
   <g id="patch_29">
    <path d="M 320.84814 269.236 
L 320.84814 187.424 
" style="fill: none; stroke: #000000; stroke-width: 0.8; stroke-linejoin: miter; stroke-linecap: square"/>
   </g>
   <g id="patch_30">
    <path d="M 220.50207 269.236 
L 320.84814 269.236 
" style="fill: none; stroke: #000000; stroke-width: 0.8; stroke-linejoin: miter; stroke-linecap: square"/>
   </g>
   <g id="patch_31">
    <path d="M 220.50207 187.424 
L 320.84814 187.424 
" style="fill: none; stroke: #000000; stroke-width: 0.8; stroke-linejoin: miter; stroke-linecap: square"/>
   </g>
   <g id="text_32">
    <!-- (f) -->
    <g transform="translate(190.398249 198.05956) scale(0.1 -0.1)">
     <defs>
      <path id="DejaVuSans-66" d="M 2375 4863 
L 2375 4384 
L 1825 4384 
Q 1516 4384 1395 4259 
Q 1275 4134 1275 3809 
L 1275 3500 
L 2222 3500 
L 2222 3053 
L 1275 3053 
L 1275 0 
L 697 0 
L 697 3053 
L 147 3053 
L 147 3500 
L 697 3500 
L 697 3744 
Q 697 4328 969 4595 
Q 1241 4863 1831 4863 
L 2375 4863 
z
" transform="scale(0.015625)"/>
     </defs>
     <use xlink:href="#DejaVuSans-28"/>
     <use xlink:href="#DejaVuSans-66" x="39.013672"/>
     <use xlink:href="#DejaVuSans-29" x="74.21875"/>
    </g>
   </g>
  </g>
  <g id="axes_7">
   <g id="patch_32">
    <path d="M 59.61 357.548 
L 159.95607 357.548 
L 159.95607 275.736 
L 59.61 275.736 
z
" style="fill: #ffffff"/>
   </g>
   <g id="PolyCollection_13">
    <defs>
     <path id="mb9b5a3c437" d="M 64.171185 -49.370727 
L 64.171185 -49.370727 
L 73.293555 -111.41961 
L 82.415925 -108.782222 
L 91.538295 -111.278187 
L 100.660665 -112.455617 
L 109.783035 -106.997438 
L 118.905405 -112.618941 
L 128.027775 -110.201355 
L 137.150145 -108.640278 
L 146.272515 -110.856766 
L 155.394885 -110.66976 
L 155.394885 -121.902369 
L 155.394885 -121.902369 
L 146.272515 -116.785548 
L 137.150145 -118.103339 
L 128.027775 -116.125911 
L 118.905405 -116.434733 
L 109.783035 -117.331728 
L 100.660665 -123.745273 
L 91.538295 -120.33487 
L 82.415925 -118.629861 
L 73.293555 -119.80667 
L 64.171185 -49.370727 
z
" style="stroke: #1f77b4; stroke-opacity: 0.2"/>
    </defs>
    <g clip-path="url(#pe381315660)">
     <use xlink:href="#mb9b5a3c437" x="0" y="403.2" style="fill: #1f77b4; fill-opacity: 0.2; stroke: #1f77b4; stroke-opacity: 0.2"/>
    </g>
   </g>
   <g id="PolyCollection_14">
    <defs>
     <path id="mde1176d6d2" d="M 64.171185 -49.370727 
L 64.171185 -49.370727 
L 73.293555 -111.119266 
L 82.415925 -109.731471 
L 91.538295 -109.932967 
L 100.660665 -108.382769 
L 109.783035 -112.513812 
L 118.905405 -109.339021 
L 128.027775 -113.141425 
L 137.150145 -109.62493 
L 146.272515 -106.831723 
L 155.394885 -110.724855 
L 155.394885 -117.391862 
L 155.394885 -117.391862 
L 146.272515 -120.150235 
L 137.150145 -118.09333 
L 128.027775 -121.43062 
L 118.905405 -119.287739 
L 109.783035 -119.383248 
L 100.660665 -119.842172 
L 91.538295 -116.507505 
L 82.415925 -122.26328 
L 73.293555 -117.164968 
L 64.171185 -49.370727 
z
" style="stroke: #ff7f0e; stroke-opacity: 0.2"/>
    </defs>
    <g clip-path="url(#pe381315660)">
     <use xlink:href="#mde1176d6d2" x="0" y="403.2" style="fill: #ff7f0e; fill-opacity: 0.2; stroke: #ff7f0e; stroke-opacity: 0.2"/>
    </g>
   </g>
   <g id="matplotlib.axis_13">
    <g id="xtick_19">
     <g id="line2d_51">
      <g>
       <use xlink:href="#m7fbb4b9977" x="63.258948" y="357.548" style="stroke: #000000; stroke-width: 0.8"/>
      </g>
     </g>
     <g id="text_33">
      <!-- 0 -->
      <g transform="translate(60.077698 372.146437) scale(0.1 -0.1)">
       <use xlink:href="#DejaVuSans-30"/>
      </g>
     </g>
    </g>
    <g id="xtick_20">
     <g id="line2d_52">
      <g>
       <use xlink:href="#m7fbb4b9977" x="108.870798" y="357.548" style="stroke: #000000; stroke-width: 0.8"/>
      </g>
     </g>
     <g id="text_34">
      <!-- 50 -->
      <g transform="translate(102.508298 372.146437) scale(0.1 -0.1)">
       <use xlink:href="#DejaVuSans-35"/>
       <use xlink:href="#DejaVuSans-30" x="63.623047"/>
      </g>
     </g>
    </g>
    <g id="xtick_21">
     <g id="line2d_53">
      <g>
       <use xlink:href="#m7fbb4b9977" x="154.482648" y="357.548" style="stroke: #000000; stroke-width: 0.8"/>
      </g>
     </g>
     <g id="text_35">
      <!-- 100 -->
      <g transform="translate(144.938898 372.146437) scale(0.1 -0.1)">
       <use xlink:href="#DejaVuSans-31"/>
       <use xlink:href="#DejaVuSans-30" x="63.623047"/>
       <use xlink:href="#DejaVuSans-30" x="127.246094"/>
      </g>
     </g>
    </g>
    <g id="text_36">
     <!-- time (units of $\omega_\mathrm{r}^{-1}$) -->
     <g transform="translate(62.983035 384.726125) scale(0.1 -0.1)">
      <defs>
       <path id="DejaVuSans-74" d="M 1172 4494 
L 1172 3500 
L 2356 3500 
L 2356 3053 
L 1172 3053 
L 1172 1153 
Q 1172 725 1289 603 
Q 1406 481 1766 481 
L 2356 481 
L 2356 0 
L 1766 0 
Q 1100 0 847 248 
Q 594 497 594 1153 
L 594 3053 
L 172 3053 
L 172 3500 
L 594 3500 
L 594 4494 
L 1172 4494 
z
" transform="scale(0.015625)"/>
       <path id="DejaVuSans-6d" d="M 3328 2828 
Q 3544 3216 3844 3400 
Q 4144 3584 4550 3584 
Q 5097 3584 5394 3201 
Q 5691 2819 5691 2113 
L 5691 0 
L 5113 0 
L 5113 2094 
Q 5113 2597 4934 2840 
Q 4756 3084 4391 3084 
Q 3944 3084 3684 2787 
Q 3425 2491 3425 1978 
L 3425 0 
L 2847 0 
L 2847 2094 
Q 2847 2600 2669 2842 
Q 2491 3084 2119 3084 
Q 1678 3084 1418 2786 
Q 1159 2488 1159 1978 
L 1159 0 
L 581 0 
L 581 3500 
L 1159 3500 
L 1159 2956 
Q 1356 3278 1631 3431 
Q 1906 3584 2284 3584 
Q 2666 3584 2933 3390 
Q 3200 3197 3328 2828 
z
" transform="scale(0.015625)"/>
       <path id="DejaVuSans-20" transform="scale(0.015625)"/>
       <path id="DejaVuSans-75" d="M 544 1381 
L 544 3500 
L 1119 3500 
L 1119 1403 
Q 1119 906 1312 657 
Q 1506 409 1894 409 
Q 2359 409 2629 706 
Q 2900 1003 2900 1516 
L 2900 3500 
L 3475 3500 
L 3475 0 
L 2900 0 
L 2900 538 
Q 2691 219 2414 64 
Q 2138 -91 1772 -91 
Q 1169 -91 856 284 
Q 544 659 544 1381 
z
M 1991 3584 
L 1991 3584 
z
" transform="scale(0.015625)"/>
       <path id="DejaVuSans-6e" d="M 3513 2113 
L 3513 0 
L 2938 0 
L 2938 2094 
Q 2938 2591 2744 2837 
Q 2550 3084 2163 3084 
Q 1697 3084 1428 2787 
Q 1159 2491 1159 1978 
L 1159 0 
L 581 0 
L 581 3500 
L 1159 3500 
L 1159 2956 
Q 1366 3272 1645 3428 
Q 1925 3584 2291 3584 
Q 2894 3584 3203 3211 
Q 3513 2838 3513 2113 
z
" transform="scale(0.015625)"/>
       <path id="DejaVuSans-73" d="M 2834 3397 
L 2834 2853 
Q 2591 2978 2328 3040 
Q 2066 3103 1784 3103 
Q 1356 3103 1142 2972 
Q 928 2841 928 2578 
Q 928 2378 1081 2264 
Q 1234 2150 1697 2047 
L 1894 2003 
Q 2506 1872 2764 1633 
Q 3022 1394 3022 966 
Q 3022 478 2636 193 
Q 2250 -91 1575 -91 
Q 1294 -91 989 -36 
Q 684 19 347 128 
L 347 722 
Q 666 556 975 473 
Q 1284 391 1588 391 
Q 1994 391 2212 530 
Q 2431 669 2431 922 
Q 2431 1156 2273 1281 
Q 2116 1406 1581 1522 
L 1381 1569 
Q 847 1681 609 1914 
Q 372 2147 372 2553 
Q 372 3047 722 3315 
Q 1072 3584 1716 3584 
Q 2034 3584 2315 3537 
Q 2597 3491 2834 3397 
z
" transform="scale(0.015625)"/>
       <path id="DejaVuSans-6f" d="M 1959 3097 
Q 1497 3097 1228 2736 
Q 959 2375 959 1747 
Q 959 1119 1226 758 
Q 1494 397 1959 397 
Q 2419 397 2687 759 
Q 2956 1122 2956 1747 
Q 2956 2369 2687 2733 
Q 2419 3097 1959 3097 
z
M 1959 3584 
Q 2709 3584 3137 3096 
Q 3566 2609 3566 1747 
Q 3566 888 3137 398 
Q 2709 -91 1959 -91 
Q 1206 -91 779 398 
Q 353 888 353 1747 
Q 353 2609 779 3096 
Q 1206 3584 1959 3584 
z
" transform="scale(0.015625)"/>
       <path id="DejaVuSans-Oblique-3c9" d="M 1369 -91 
Q 72 -91 434 1766 
Q 575 2500 1256 3500 
L 1875 3500 
Q 1231 2500 1088 1750 
Q 819 397 1519 397 
Q 2166 397 2478 2078 
L 3009 2078 
Q 2669 388 3316 397 
Q 4013 403 4275 1750 
Q 4419 2500 4169 3500 
L 4788 3500 
Q 5075 2500 4934 1766 
Q 4578 -94 3278 -91 
Q 2428 -88 2503 844 
Q 2194 -91 1369 -91 
z
" transform="scale(0.015625)"/>
      </defs>
      <use xlink:href="#DejaVuSans-74" transform="translate(0 0.684375)"/>
      <use xlink:href="#DejaVuSans-69" transform="translate(39.208984 0.684375)"/>
      <use xlink:href="#DejaVuSans-6d" transform="translate(66.992188 0.684375)"/>
      <use xlink:href="#DejaVuSans-65" transform="translate(164.404297 0.684375)"/>
      <use xlink:href="#DejaVuSans-20" transform="translate(225.927734 0.684375)"/>
      <use xlink:href="#DejaVuSans-28" transform="translate(257.714844 0.684375)"/>
      <use xlink:href="#DejaVuSans-75" transform="translate(296.728516 0.684375)"/>
      <use xlink:href="#DejaVuSans-6e" transform="translate(360.107422 0.684375)"/>
      <use xlink:href="#DejaVuSans-69" transform="translate(423.486328 0.684375)"/>
      <use xlink:href="#DejaVuSans-74" transform="translate(451.269531 0.684375)"/>
      <use xlink:href="#DejaVuSans-73" transform="translate(490.478516 0.684375)"/>
      <use xlink:href="#DejaVuSans-20" transform="translate(542.578125 0.684375)"/>
      <use xlink:href="#DejaVuSans-6f" transform="translate(574.365234 0.684375)"/>
      <use xlink:href="#DejaVuSans-66" transform="translate(635.546875 0.684375)"/>
      <use xlink:href="#DejaVuSans-20" transform="translate(670.751953 0.684375)"/>
      <use xlink:href="#DejaVuSans-Oblique-3c9" transform="translate(702.539062 0.684375)"/>
      <use xlink:href="#DejaVuSans-2212" transform="translate(790.745443 38.965625) scale(0.7)"/>
      <use xlink:href="#DejaVuSans-31" transform="translate(849.397786 38.965625) scale(0.7)"/>
      <use xlink:href="#DejaVuSans-72" transform="translate(786.279297 -26.659375) scale(0.7)"/>
      <use xlink:href="#DejaVuSans-29" transform="translate(896.668294 0.684375)"/>
     </g>
    </g>
   </g>
   <g id="matplotlib.axis_14">
    <g id="ytick_21">
     <g id="line2d_54">
      <g>
       <use xlink:href="#mc6057a8fe2" x="59.61" y="353.829273" style="stroke: #000000; stroke-width: 0.8"/>
      </g>
     </g>
     <g id="text_37">
      <!-- −1.0 -->
      <g transform="translate(28.327187 357.628491) scale(0.1 -0.1)">
       <use xlink:href="#DejaVuSans-2212"/>
       <use xlink:href="#DejaVuSans-31" x="83.789062"/>
       <use xlink:href="#DejaVuSans-2e" x="147.412109"/>
       <use xlink:href="#DejaVuSans-30" x="179.199219"/>
      </g>
     </g>
    </g>
    <g id="ytick_22">
     <g id="line2d_55">
      <g>
       <use xlink:href="#mc6057a8fe2" x="59.61" y="321.384096" style="stroke: #000000; stroke-width: 0.8"/>
      </g>
     </g>
     <g id="text_38">
      <!-- −0.5 -->
      <g transform="translate(28.327187 325.183315) scale(0.1 -0.1)">
       <use xlink:href="#DejaVuSans-2212"/>
       <use xlink:href="#DejaVuSans-30" x="83.789062"/>
       <use xlink:href="#DejaVuSans-2e" x="147.412109"/>
       <use xlink:href="#DejaVuSans-35" x="179.199219"/>
      </g>
     </g>
    </g>
    <g id="ytick_23">
     <g id="line2d_56">
      <g>
       <use xlink:href="#mc6057a8fe2" x="59.61" y="288.93892" style="stroke: #000000; stroke-width: 0.8"/>
      </g>
     </g>
     <g id="text_39">
      <!-- 0.0 -->
      <g transform="translate(36.706875 292.738139) scale(0.1 -0.1)">
       <use xlink:href="#DejaVuSans-30"/>
       <use xlink:href="#DejaVuSans-2e" x="63.623047"/>
       <use xlink:href="#DejaVuSans-30" x="95.410156"/>
      </g>
     </g>
    </g>
    <g id="text_40">
     <!-- $\langle \hat J_z \rangle$ -->
     <g transform="translate(24.727187 324.742) rotate(-90) scale(0.1 -0.1)">
      <defs>
       <path id="DejaVuSans-Oblique-7a" d="M 744 3500 
L 3475 3500 
L 3372 2975 
L 738 459 
L 2913 459 
L 2822 0 
L -19 0 
L 84 525 
L 2719 3041 
L 653 3041 
L 744 3500 
z
" transform="scale(0.015625)"/>
      </defs>
      <use xlink:href="#DejaVuSans-27e8" transform="translate(0 0.609375)"/>
      <use xlink:href="#DejaVuSans-302" transform="translate(91.345703 30.015625)"/>
      <use xlink:href="#DejaVuSans-Oblique-4a" transform="translate(39.013672 0.609375)"/>
      <use xlink:href="#DejaVuSans-Oblique-7a" transform="translate(82.986328 -15.796875) scale(0.7)"/>
      <use xlink:href="#DejaVuSans-27e9" transform="translate(122.463867 0.609375)"/>
     </g>
    </g>
   </g>
   <g id="line2d_57">
    <path d="M 64.171185 353.829273 
L 73.293555 288.864123 
L 82.415925 289.37236 
L 91.538295 287.131908 
L 100.660665 286.121438 
L 109.783035 290.588908 
L 118.905405 288.646507 
L 128.027775 289.885374 
L 137.150145 289.825958 
L 146.272515 288.93506 
L 155.394885 288.035654 
" clip-path="url(#pe381315660)" style="fill: none; stroke: #1f77b4; stroke-width: 1.5; stroke-linecap: square"/>
   </g>
   <g id="line2d_58">
    <path d="M 64.171185 353.829273 
L 73.293555 288.477448 
L 82.415925 286.916898 
L 91.538295 289.595573 
L 100.660665 287.631798 
L 109.783035 286.426988 
L 118.905405 288.64271 
L 128.027775 285.931896 
L 137.150145 289.686399 
L 146.272515 288.811145 
L 155.394885 288.791351 
" clip-path="url(#pe381315660)" style="fill: none; stroke-dasharray: 1.5,2.475; stroke-dashoffset: 0; stroke: #ff7f0e; stroke-width: 1.5"/>
   </g>
   <g id="patch_33">
    <path d="M 59.61 357.548 
L 59.61 275.736 
" style="fill: none; stroke: #000000; stroke-width: 0.8; stroke-linejoin: miter; stroke-linecap: square"/>
   </g>
   <g id="patch_34">
    <path d="M 159.95607 357.548 
L 159.95607 275.736 
" style="fill: none; stroke: #000000; stroke-width: 0.8; stroke-linejoin: miter; stroke-linecap: square"/>
   </g>
   <g id="patch_35">
    <path d="M 59.61 357.548 
L 159.95607 357.548 
" style="fill: none; stroke: #000000; stroke-width: 0.8; stroke-linejoin: miter; stroke-linecap: square"/>
   </g>
   <g id="patch_36">
    <path d="M 59.61 275.736 
L 159.95607 275.736 
" style="fill: none; stroke: #000000; stroke-width: 0.8; stroke-linejoin: miter; stroke-linecap: square"/>
   </g>
   <g id="text_41">
    <!-- (g) -->
    <g transform="translate(29.506179 286.37156) scale(0.1 -0.1)">
     <defs>
      <path id="DejaVuSans-67" d="M 2906 1791 
Q 2906 2416 2648 2759 
Q 2391 3103 1925 3103 
Q 1463 3103 1205 2759 
Q 947 2416 947 1791 
Q 947 1169 1205 825 
Q 1463 481 1925 481 
Q 2391 481 2648 825 
Q 2906 1169 2906 1791 
z
M 3481 434 
Q 3481 -459 3084 -895 
Q 2688 -1331 1869 -1331 
Q 1566 -1331 1297 -1286 
Q 1028 -1241 775 -1147 
L 775 -588 
Q 1028 -725 1275 -790 
Q 1522 -856 1778 -856 
Q 2344 -856 2625 -561 
Q 2906 -266 2906 331 
L 2906 616 
Q 2728 306 2450 153 
Q 2172 0 1784 0 
Q 1141 0 747 490 
Q 353 981 353 1791 
Q 353 2603 747 3093 
Q 1141 3584 1784 3584 
Q 2172 3584 2450 3431 
Q 2728 3278 2906 2969 
L 2906 3500 
L 3481 3500 
L 3481 434 
z
" transform="scale(0.015625)"/>
     </defs>
     <use xlink:href="#DejaVuSans-28"/>
     <use xlink:href="#DejaVuSans-67" x="39.013672"/>
     <use xlink:href="#DejaVuSans-29" x="102.490234"/>
    </g>
   </g>
  </g>
  <g id="axes_8">
   <g id="patch_37">
    <path d="M 220.50207 357.548 
L 320.84814 357.548 
L 320.84814 275.736 
L 220.50207 275.736 
z
" style="fill: #ffffff"/>
   </g>
   <g id="PolyCollection_15">
    <defs>
     <path id="m0a91ab88af" d="M 225.063255 -85.961587 
L 225.063255 -68.378694 
L 234.185625 -56.06233 
L 243.307995 -49.370727 
L 252.430365 -56.151977 
L 261.552735 -64.252173 
L 270.675105 -61.983753 
L 279.797475 -80.194878 
L 288.919845 -67.710317 
L 298.042215 -67.195998 
L 307.164585 -64.467909 
L 316.286955 -69.015856 
L 316.286955 -106.10516 
L 316.286955 -106.10516 
L 307.164585 -106.840766 
L 298.042215 -123.745273 
L 288.919845 -105.227163 
L 279.797475 -108.809449 
L 270.675105 -110.464159 
L 261.552735 -94.085907 
L 252.430365 -101.207011 
L 243.307995 -99.486042 
L 234.185625 -97.516573 
L 225.063255 -85.961587 
z
" style="stroke: #1f77b4; stroke-opacity: 0.2"/>
    </defs>
    <g clip-path="url(#pc660aec4e5)">
     <use xlink:href="#m0a91ab88af" x="0" y="403.2" style="fill: #1f77b4; fill-opacity: 0.2; stroke: #1f77b4; stroke-opacity: 0.2"/>
    </g>
   </g>
   <g id="PolyCollection_16">
    <defs>
     <path id="mc4f9e0add3" d="M 225.063255 -89.807164 
L 225.063255 -57.188848 
L 234.185625 -52.549398 
L 243.307995 -57.847545 
L 252.430365 -63.057925 
L 261.552735 -60.997779 
L 270.675105 -58.156381 
L 279.797475 -50.582547 
L 288.919845 -61.29782 
L 298.042215 -62.260033 
L 307.164585 -66.705544 
L 316.286955 -66.262735 
L 316.286955 -91.323195 
L 316.286955 -91.323195 
L 307.164585 -84.373397 
L 298.042215 -92.092114 
L 288.919845 -96.022534 
L 279.797475 -80.190954 
L 270.675105 -87.680683 
L 261.552735 -100.008804 
L 252.430365 -90.3501 
L 243.307995 -88.469241 
L 234.185625 -92.789315 
L 225.063255 -89.807164 
z
" style="stroke: #ff7f0e; stroke-opacity: 0.2"/>
    </defs>
    <g clip-path="url(#pc660aec4e5)">
     <use xlink:href="#mc4f9e0add3" x="0" y="403.2" style="fill: #ff7f0e; fill-opacity: 0.2; stroke: #ff7f0e; stroke-opacity: 0.2"/>
    </g>
   </g>
   <g id="matplotlib.axis_15">
    <g id="xtick_22">
     <g id="line2d_59">
      <g>
       <use xlink:href="#m7fbb4b9977" x="224.151018" y="357.548" style="stroke: #000000; stroke-width: 0.8"/>
      </g>
     </g>
     <g id="text_42">
      <!-- 0 -->
      <g transform="translate(220.969768 372.146437) scale(0.1 -0.1)">
       <use xlink:href="#DejaVuSans-30"/>
      </g>
     </g>
    </g>
    <g id="xtick_23">
     <g id="line2d_60">
      <g>
       <use xlink:href="#m7fbb4b9977" x="269.762868" y="357.548" style="stroke: #000000; stroke-width: 0.8"/>
      </g>
     </g>
     <g id="text_43">
      <!-- 50 -->
      <g transform="translate(263.400368 372.146437) scale(0.1 -0.1)">
       <use xlink:href="#DejaVuSans-35"/>
       <use xlink:href="#DejaVuSans-30" x="63.623047"/>
      </g>
     </g>
    </g>
    <g id="xtick_24">
     <g id="line2d_61">
      <g>
       <use xlink:href="#m7fbb4b9977" x="315.374718" y="357.548" style="stroke: #000000; stroke-width: 0.8"/>
      </g>
     </g>
     <g id="text_44">
      <!-- 100 -->
      <g transform="translate(305.830968 372.146437) scale(0.1 -0.1)">
       <use xlink:href="#DejaVuSans-31"/>
       <use xlink:href="#DejaVuSans-30" x="63.623047"/>
       <use xlink:href="#DejaVuSans-30" x="127.246094"/>
      </g>
     </g>
    </g>
    <g id="text_45">
     <!-- time (units of $\omega_\mathrm{r}^{-1}$) -->
     <g transform="translate(223.875105 384.726125) scale(0.1 -0.1)">
      <use xlink:href="#DejaVuSans-74" transform="translate(0 0.684375)"/>
      <use xlink:href="#DejaVuSans-69" transform="translate(39.208984 0.684375)"/>
      <use xlink:href="#DejaVuSans-6d" transform="translate(66.992188 0.684375)"/>
      <use xlink:href="#DejaVuSans-65" transform="translate(164.404297 0.684375)"/>
      <use xlink:href="#DejaVuSans-20" transform="translate(225.927734 0.684375)"/>
      <use xlink:href="#DejaVuSans-28" transform="translate(257.714844 0.684375)"/>
      <use xlink:href="#DejaVuSans-75" transform="translate(296.728516 0.684375)"/>
      <use xlink:href="#DejaVuSans-6e" transform="translate(360.107422 0.684375)"/>
      <use xlink:href="#DejaVuSans-69" transform="translate(423.486328 0.684375)"/>
      <use xlink:href="#DejaVuSans-74" transform="translate(451.269531 0.684375)"/>
      <use xlink:href="#DejaVuSans-73" transform="translate(490.478516 0.684375)"/>
      <use xlink:href="#DejaVuSans-20" transform="translate(542.578125 0.684375)"/>
      <use xlink:href="#DejaVuSans-6f" transform="translate(574.365234 0.684375)"/>
      <use xlink:href="#DejaVuSans-66" transform="translate(635.546875 0.684375)"/>
      <use xlink:href="#DejaVuSans-20" transform="translate(670.751953 0.684375)"/>
      <use xlink:href="#DejaVuSans-Oblique-3c9" transform="translate(702.539062 0.684375)"/>
      <use xlink:href="#DejaVuSans-2212" transform="translate(790.745443 38.965625) scale(0.7)"/>
      <use xlink:href="#DejaVuSans-31" transform="translate(849.397786 38.965625) scale(0.7)"/>
      <use xlink:href="#DejaVuSans-72" transform="translate(786.279297 -26.659375) scale(0.7)"/>
      <use xlink:href="#DejaVuSans-29" transform="translate(896.668294 0.684375)"/>
     </g>
    </g>
   </g>
   <g id="matplotlib.axis_16">
    <g id="ytick_24">
     <g id="line2d_62">
      <g>
       <use xlink:href="#mc6057a8fe2" x="220.50207" y="328.177457" style="stroke: #000000; stroke-width: 0.8"/>
      </g>
     </g>
     <g id="text_46">
      <!-- 0.5 -->
      <g transform="translate(197.598945 331.976675) scale(0.1 -0.1)">
       <use xlink:href="#DejaVuSans-30"/>
       <use xlink:href="#DejaVuSans-2e" x="63.623047"/>
       <use xlink:href="#DejaVuSans-35" x="95.410156"/>
      </g>
     </g>
    </g>
    <g id="ytick_25">
     <g id="line2d_63">
      <g>
       <use xlink:href="#mc6057a8fe2" x="220.50207" y="288.649691" style="stroke: #000000; stroke-width: 0.8"/>
      </g>
     </g>
     <g id="text_47">
      <!-- 0.6 -->
      <g transform="translate(197.598945 292.44891) scale(0.1 -0.1)">
       <defs>
        <path id="DejaVuSans-36" d="M 2113 2584 
Q 1688 2584 1439 2293 
Q 1191 2003 1191 1497 
Q 1191 994 1439 701 
Q 1688 409 2113 409 
Q 2538 409 2786 701 
Q 3034 994 3034 1497 
Q 3034 2003 2786 2293 
Q 2538 2584 2113 2584 
z
M 3366 4563 
L 3366 3988 
Q 3128 4100 2886 4159 
Q 2644 4219 2406 4219 
Q 1781 4219 1451 3797 
Q 1122 3375 1075 2522 
Q 1259 2794 1537 2939 
Q 1816 3084 2150 3084 
Q 2853 3084 3261 2657 
Q 3669 2231 3669 1497 
Q 3669 778 3244 343 
Q 2819 -91 2113 -91 
Q 1303 -91 875 529 
Q 447 1150 447 2328 
Q 447 3434 972 4092 
Q 1497 4750 2381 4750 
Q 2619 4750 2861 4703 
Q 3103 4656 3366 4563 
z
" transform="scale(0.015625)"/>
       </defs>
       <use xlink:href="#DejaVuSans-30"/>
       <use xlink:href="#DejaVuSans-2e" x="63.623047"/>
       <use xlink:href="#DejaVuSans-36" x="95.410156"/>
      </g>
     </g>
    </g>
    <g id="text_48">
     <!-- $\mathcal{B}$ -->
     <g transform="translate(194.019258 320.292) rotate(-90) scale(0.1 -0.1)">
      <defs>
       <path id="STIXNonUnicode-Italic-e22e" d="M 2080 3341 
L 2099 3328 
Q 2810 4288 3853 4288 
Q 4154 4288 4346 4102 
Q 4538 3917 4538 3622 
Q 4538 3213 4173 2893 
Q 3808 2573 3430 2451 
Q 3866 2406 4144 2169 
Q 4422 1933 4422 1485 
Q 4422 1152 4211 857 
Q 4000 563 3677 377 
Q 3354 192 2986 86 
Q 2618 -19 2291 -19 
Q 1792 -19 1517 186 
L 1587 326 
Q 1843 198 2272 198 
Q 2854 198 3296 595 
Q 3738 992 3738 1478 
Q 3738 1798 3459 2003 
Q 3181 2208 2630 2208 
L 2208 2208 
L 2278 2451 
L 2400 2451 
Q 2611 2451 2867 2508 
Q 3123 2566 3385 2681 
Q 3648 2797 3824 3008 
Q 4000 3219 4000 3482 
Q 4000 3987 3456 3987 
Q 3245 3987 3008 3865 
Q 2771 3744 2624 3590 
Q 2349 3315 2144 2908 
Q 1939 2502 1715 1728 
L 1478 909 
Q 1344 448 1193 253 
Q 1043 58 666 13 
Q 544 0 224 0 
L 282 154 
Q 474 154 576 333 
Q 678 512 870 1190 
L 1536 3514 
Q 1555 3571 1555 3667 
Q 1555 3859 1286 3859 
L 1146 3859 
L 1171 4013 
Q 1875 4077 2355 4237 
L 2080 3341 
z
" transform="scale(0.015625)"/>
      </defs>
      <use xlink:href="#STIXNonUnicode-Italic-e22e"/>
     </g>
    </g>
   </g>
   <g id="line2d_64">
    <path d="M 225.063255 325.724305 
L 234.185625 325.720609 
L 243.307995 327.367382 
L 252.430365 320.471182 
L 261.552735 321.888034 
L 270.675105 319.615805 
L 279.797475 309.903004 
L 288.919845 318.201307 
L 298.042215 310.99661 
L 307.164585 317.483735 
L 316.286955 316.43707 
" clip-path="url(#pc660aec4e5)" style="fill: none; stroke: #1f77b4; stroke-width: 1.5; stroke-linecap: square"/>
   </g>
   <g id="line2d_65">
    <path d="M 225.063255 331.134058 
L 234.185625 329.989332 
L 243.307995 327.870224 
L 252.430365 329.954574 
L 261.552735 324.468224 
L 270.675105 326.793415 
L 279.797475 338.144381 
L 288.919845 326.863944 
L 298.042215 328.126851 
L 307.164585 330.796963 
L 316.286955 320.937328 
" clip-path="url(#pc660aec4e5)" style="fill: none; stroke-dasharray: 1.5,2.475; stroke-dashoffset: 0; stroke: #ff7f0e; stroke-width: 1.5"/>
   </g>
   <g id="patch_38">
    <path d="M 220.50207 357.548 
L 220.50207 275.736 
" style="fill: none; stroke: #000000; stroke-width: 0.8; stroke-linejoin: miter; stroke-linecap: square"/>
   </g>
   <g id="patch_39">
    <path d="M 320.84814 357.548 
L 320.84814 275.736 
" style="fill: none; stroke: #000000; stroke-width: 0.8; stroke-linejoin: miter; stroke-linecap: square"/>
   </g>
   <g id="patch_40">
    <path d="M 220.50207 357.548 
L 320.84814 357.548 
" style="fill: none; stroke: #000000; stroke-width: 0.8; stroke-linejoin: miter; stroke-linecap: square"/>
   </g>
   <g id="patch_41">
    <path d="M 220.50207 275.736 
L 320.84814 275.736 
" style="fill: none; stroke: #000000; stroke-width: 0.8; stroke-linejoin: miter; stroke-linecap: square"/>
   </g>
   <g id="text_49">
    <!-- (h) -->
    <g transform="translate(190.398249 286.37156) scale(0.1 -0.1)">
     <defs>
      <path id="DejaVuSans-68" d="M 3513 2113 
L 3513 0 
L 2938 0 
L 2938 2094 
Q 2938 2591 2744 2837 
Q 2550 3084 2163 3084 
Q 1697 3084 1428 2787 
Q 1159 2491 1159 1978 
L 1159 0 
L 581 0 
L 581 4863 
L 1159 4863 
L 1159 2956 
Q 1366 3272 1645 3428 
Q 1925 3584 2291 3584 
Q 2894 3584 3203 3211 
Q 3513 2838 3513 2113 
z
" transform="scale(0.015625)"/>
     </defs>
     <use xlink:href="#DejaVuSans-28"/>
     <use xlink:href="#DejaVuSans-68" x="39.013672"/>
     <use xlink:href="#DejaVuSans-29" x="102.392578"/>
    </g>
   </g>
  </g>
 </g>
 <defs>
  <clipPath id="pbf9eb0ab3e">
   <rect x="59.61" y="10.8" width="100.34607" height="81.812"/>
  </clipPath>
  <clipPath id="pe54663a3d5">
   <rect x="220.50207" y="10.8" width="100.34607" height="81.812"/>
  </clipPath>
  <clipPath id="pe8b74925a8">
   <rect x="59.61" y="99.112" width="100.34607" height="81.812"/>
  </clipPath>
  <clipPath id="p9d521d20c5">
   <rect x="220.50207" y="99.112" width="100.34607" height="81.812"/>
  </clipPath>
  <clipPath id="pba253dc88b">
   <rect x="59.61" y="187.424" width="100.34607" height="81.812"/>
  </clipPath>
  <clipPath id="pc2ea76c82b">
   <rect x="220.50207" y="187.424" width="100.34607" height="81.812"/>
  </clipPath>
  <clipPath id="pe381315660">
   <rect x="59.61" y="275.736" width="100.34607" height="81.812"/>
  </clipPath>
  <clipPath id="pc660aec4e5">
   <rect x="220.50207" y="275.736" width="100.34607" height="81.812"/>
  </clipPath>
 </defs>
</svg>
