<?xml version="1.0" encoding="utf-8" standalone="no"?>
<!DOCTYPE svg PUBLIC "-//W3C//DTD SVG 1.1//EN"
  "http://www.w3.org/Graphics/SVG/1.1/DTD/svg11.dtd">
<svg xmlns:xlink="http://www.w3.org/1999/xlink" width="334.8pt" height="403.2pt" viewBox="0 0 334.8 403.2" xmlns="http://www.w3.org/2000/svg" version="1.1">
 <metadata>
  <rdf:RDF xmlns:dc="http://purl.org/dc/elements/1.1/" xmlns:cc="http://creativecommons.org/ns#" xmlns:rdf="http://www.w3.org/1999/02/22-rdf-syntax-ns#">
   <cc:Work>
    <dc:type rdf:resource="http://purl.org/dc/dcmitype/StillImage"/>
    <dc:date>2023-11-07T12:57:39.402298</dc:date>
    <dc:format>image/svg+xml</dc:format>
    <dc:creator>
     <cc:Agent>
      <dc:title>Matplotlib v3.7.1, https://matplotlib.org/</dc:title>
     </cc:Agent>
    </dc:creator>
   </cc:Work>
  </rdf:RDF>
 </metadata>
 <defs>
  <style type="text/css">*{stroke-linejoin: round; stroke-linecap: butt}</style>
 </defs>
 <g id="figure_1">
  <g id="patch_1">
   <path d="M 0 403.2 
L 334.8 403.2 
L 334.8 0 
L 0 0 
z
" style="fill: #ffffff"/>
  </g>
  <g id="axes_1">
   <g id="patch_2">
    <path d="M 60.07 92.612 
L 160.18607 92.612 
L 160.18607 10.8 
L 60.07 10.8 
z
" style="fill: #ffffff"/>
   </g>
   <g id="PolyCollection_1">
    <defs>
     <path id="m418bad466c" d="M 64.62073 -349.626802 
L 64.62073 -348.109753 
L 73.722191 -327.404873 
L 82.823652 -326.129807 
L 91.925113 -333.140551 
L 101.026574 -326.778094 
L 110.128035 -323.743387 
L 119.229496 -317.827268 
L 128.330957 -320.060187 
L 137.432418 -319.15383 
L 146.533879 -315.938702 
L 155.63534 -314.306727 
L 155.63534 -346.451871 
L 155.63534 -346.451871 
L 146.533879 -348.740956 
L 137.432418 -352.011914 
L 128.330957 -350.757184 
L 119.229496 -353.940968 
L 110.128035 -347.187017 
L 101.026574 -348.209811 
L 91.925113 -357.750625 
L 82.823652 -351.153471 
L 73.722191 -348.442811 
L 64.62073 -349.626802 
z
" style="stroke: #1f77b4; stroke-opacity: 0.2"/>
    </defs>
    <g clip-path="url(#p53d541e2cf)">
     <use xlink:href="#m418bad466c" x="0" y="403.2" style="fill: #1f77b4; fill-opacity: 0.2; stroke: #1f77b4; stroke-opacity: 0.2"/>
    </g>
   </g>
   <g id="PolyCollection_2">
    <defs>
     <path id="m0a7a85a2ed" d="M 64.62073 -348.359908 
L 64.62073 -347.855832 
L 73.722191 -339.742976 
L 82.823652 -346.40283 
L 91.925113 -341.794402 
L 101.026574 -348.143269 
L 110.128035 -346.375525 
L 119.229496 -344.402256 
L 128.330957 -342.128097 
L 137.432418 -347.64842 
L 146.533879 -345.043478 
L 155.63534 -349.284142 
L 155.63534 -388.681273 
L 155.63534 -388.681273 
L 146.533879 -383.651702 
L 137.432418 -387.553234 
L 128.330957 -377.939822 
L 119.229496 -382.169133 
L 110.128035 -374.501681 
L 101.026574 -377.611983 
L 91.925113 -369.330177 
L 82.823652 -372.169318 
L 73.722191 -360.991055 
L 64.62073 -348.359908 
z
" style="stroke: #ff7f0e; stroke-opacity: 0.2"/>
    </defs>
    <g clip-path="url(#p53d541e2cf)">
     <use xlink:href="#m0a7a85a2ed" x="0" y="403.2" style="fill: #ff7f0e; fill-opacity: 0.2; stroke: #ff7f0e; stroke-opacity: 0.2"/>
    </g>
   </g>
   <g id="matplotlib.axis_1">
    <g id="xtick_1">
     <g id="line2d_1">
      <defs>
       <path id="m7333a1c4de" d="M 0 0 
L 0 3.5 
" style="stroke: #000000; stroke-width: 0.8"/>
      </defs>
      <g>
       <use xlink:href="#m7333a1c4de" x="63.710584" y="92.612" style="stroke: #000000; stroke-width: 0.8"/>
      </g>
     </g>
    </g>
    <g id="xtick_2">
     <g id="line2d_2">
      <g>
       <use xlink:href="#m7333a1c4de" x="109.217889" y="92.612" style="stroke: #000000; stroke-width: 0.8"/>
      </g>
     </g>
    </g>
    <g id="xtick_3">
     <g id="line2d_3">
      <g>
       <use xlink:href="#m7333a1c4de" x="154.725194" y="92.612" style="stroke: #000000; stroke-width: 0.8"/>
      </g>
     </g>
    </g>
   </g>
   <g id="matplotlib.axis_2">
    <g id="ytick_1">
     <g id="line2d_4">
      <defs>
       <path id="m650e8a680d" d="M 0 0 
L -3.5 0 
" style="stroke: #000000; stroke-width: 0.8"/>
      </defs>
      <g>
       <use xlink:href="#m650e8a680d" x="60.07" y="79.289257" style="stroke: #000000; stroke-width: 0.8"/>
      </g>
     </g>
     <g id="text_1">
      <!-- −0.25 -->
      <g transform="translate(22.424687 83.088476) scale(0.1 -0.1)">
       <defs>
        <path id="DejaVuSans-2212" d="M 678 2272 
L 4684 2272 
L 4684 1741 
L 678 1741 
L 678 2272 
z
" transform="scale(0.015625)"/>
        <path id="DejaVuSans-30" d="M 2034 4250 
Q 1547 4250 1301 3770 
Q 1056 3291 1056 2328 
Q 1056 1369 1301 889 
Q 1547 409 2034 409 
Q 2525 409 2770 889 
Q 3016 1369 3016 2328 
Q 3016 3291 2770 3770 
Q 2525 4250 2034 4250 
z
M 2034 4750 
Q 2819 4750 3233 4129 
Q 3647 3509 3647 2328 
Q 3647 1150 3233 529 
Q 2819 -91 2034 -91 
Q 1250 -91 836 529 
Q 422 1150 422 2328 
Q 422 3509 836 4129 
Q 1250 4750 2034 4750 
z
" transform="scale(0.015625)"/>
        <path id="DejaVuSans-2e" d="M 684 794 
L 1344 794 
L 1344 0 
L 684 0 
L 684 794 
z
" transform="scale(0.015625)"/>
        <path id="DejaVuSans-32" d="M 1228 531 
L 3431 531 
L 3431 0 
L 469 0 
L 469 531 
Q 828 903 1448 1529 
Q 2069 2156 2228 2338 
Q 2531 2678 2651 2914 
Q 2772 3150 2772 3378 
Q 2772 3750 2511 3984 
Q 2250 4219 1831 4219 
Q 1534 4219 1204 4116 
Q 875 4013 500 3803 
L 500 4441 
Q 881 4594 1212 4672 
Q 1544 4750 1819 4750 
Q 2544 4750 2975 4387 
Q 3406 4025 3406 3419 
Q 3406 3131 3298 2873 
Q 3191 2616 2906 2266 
Q 2828 2175 2409 1742 
Q 1991 1309 1228 531 
z
" transform="scale(0.015625)"/>
        <path id="DejaVuSans-35" d="M 691 4666 
L 3169 4666 
L 3169 4134 
L 1269 4134 
L 1269 2991 
Q 1406 3038 1543 3061 
Q 1681 3084 1819 3084 
Q 2600 3084 3056 2656 
Q 3513 2228 3513 1497 
Q 3513 744 3044 326 
Q 2575 -91 1722 -91 
Q 1428 -91 1123 -41 
Q 819 9 494 109 
L 494 744 
Q 775 591 1075 516 
Q 1375 441 1709 441 
Q 2250 441 2565 725 
Q 2881 1009 2881 1497 
Q 2881 1984 2565 2268 
Q 2250 2553 1709 2553 
Q 1456 2553 1204 2497 
Q 953 2441 691 2322 
L 691 4666 
z
" transform="scale(0.015625)"/>
       </defs>
       <use xlink:href="#DejaVuSans-2212"/>
       <use xlink:href="#DejaVuSans-30" x="83.789062"/>
       <use xlink:href="#DejaVuSans-2e" x="147.412109"/>
       <use xlink:href="#DejaVuSans-32" x="179.199219"/>
       <use xlink:href="#DejaVuSans-35" x="242.822266"/>
      </g>
     </g>
    </g>
    <g id="ytick_2">
     <g id="line2d_5">
      <g>
       <use xlink:href="#m650e8a680d" x="60.07" y="54.797077" style="stroke: #000000; stroke-width: 0.8"/>
      </g>
     </g>
     <g id="text_2">
      <!-- 0.00 -->
      <g transform="translate(30.804375 58.596296) scale(0.1 -0.1)">
       <use xlink:href="#DejaVuSans-30"/>
       <use xlink:href="#DejaVuSans-2e" x="63.623047"/>
       <use xlink:href="#DejaVuSans-30" x="95.410156"/>
       <use xlink:href="#DejaVuSans-30" x="159.033203"/>
      </g>
     </g>
    </g>
    <g id="ytick_3">
     <g id="line2d_6">
      <g>
       <use xlink:href="#m650e8a680d" x="60.07" y="30.304898" style="stroke: #000000; stroke-width: 0.8"/>
      </g>
     </g>
     <g id="text_3">
      <!-- 0.25 -->
      <g transform="translate(30.804375 34.104117) scale(0.1 -0.1)">
       <use xlink:href="#DejaVuSans-30"/>
       <use xlink:href="#DejaVuSans-2e" x="63.623047"/>
       <use xlink:href="#DejaVuSans-32" x="95.410156"/>
       <use xlink:href="#DejaVuSans-35" x="159.033203"/>
      </g>
     </g>
    </g>
    <g id="text_4">
     <!-- $X$ -->
     <g transform="translate(18.845 55.156) rotate(-90) scale(0.1 -0.1)">
      <defs>
       <path id="DejaVuSans-Oblique-58" d="M 878 4666 
L 1516 4666 
L 2316 2981 
L 3763 4666 
L 4500 4666 
L 2578 2438 
L 3738 0 
L 3103 0 
L 2163 1966 
L 459 0 
L -275 0 
L 1906 2509 
L 878 4666 
z
" transform="scale(0.015625)"/>
      </defs>
      <use xlink:href="#DejaVuSans-Oblique-58" transform="translate(0 0.09375)"/>
     </g>
    </g>
   </g>
   <g id="line2d_7">
    <path d="M 64.62073 54.449699 
L 73.722191 61.721935 
L 82.823652 61.298282 
L 91.925113 56.86823 
L 101.026574 63.137349 
L 110.128035 63.657452 
L 119.229496 61.828937 
L 128.330957 64.296293 
L 137.432418 62.019628 
L 146.533879 64.86728 
L 155.63534 65.887178 
" clip-path="url(#p53d541e2cf)" style="fill: none; stroke: #1f77b4; stroke-width: 1.5; stroke-linecap: square"/>
   </g>
   <g id="line2d_8">
    <path d="M 64.62073 55.163579 
L 73.722191 54.199565 
L 82.823652 47.689 
L 91.925113 50.818319 
L 101.026574 43.492403 
L 110.128035 47.396063 
L 119.229496 46.65796 
L 128.330957 49.089138 
L 137.432418 42.792368 
L 146.533879 46.251422 
L 155.63534 40.547525 
" clip-path="url(#p53d541e2cf)" style="fill: none; stroke-dasharray: 1.5,2.475; stroke-dashoffset: 0; stroke: #ff7f0e; stroke-width: 1.5"/>
   </g>
   <g id="patch_3">
    <path d="M 60.07 92.612 
L 60.07 10.8 
" style="fill: none; stroke: #000000; stroke-width: 0.8; stroke-linejoin: miter; stroke-linecap: square"/>
   </g>
   <g id="patch_4">
    <path d="M 160.18607 92.612 
L 160.18607 10.8 
" style="fill: none; stroke: #000000; stroke-width: 0.8; stroke-linejoin: miter; stroke-linecap: square"/>
   </g>
   <g id="patch_5">
    <path d="M 60.07 92.612 
L 160.18607 92.612 
" style="fill: none; stroke: #000000; stroke-width: 0.8; stroke-linejoin: miter; stroke-linecap: square"/>
   </g>
   <g id="patch_6">
    <path d="M 60.07 10.8 
L 160.18607 10.8 
" style="fill: none; stroke: #000000; stroke-width: 0.8; stroke-linejoin: miter; stroke-linecap: square"/>
   </g>
   <g id="text_5">
    <!-- (a) -->
    <g transform="translate(30.035179 21.43556) scale(0.1 -0.1)">
     <defs>
      <path id="DejaVuSans-28" d="M 1984 4856 
Q 1566 4138 1362 3434 
Q 1159 2731 1159 2009 
Q 1159 1288 1364 580 
Q 1569 -128 1984 -844 
L 1484 -844 
Q 1016 -109 783 600 
Q 550 1309 550 2009 
Q 550 2706 781 3412 
Q 1013 4119 1484 4856 
L 1984 4856 
z
" transform="scale(0.015625)"/>
      <path id="DejaVuSans-61" d="M 2194 1759 
Q 1497 1759 1228 1600 
Q 959 1441 959 1056 
Q 959 750 1161 570 
Q 1363 391 1709 391 
Q 2188 391 2477 730 
Q 2766 1069 2766 1631 
L 2766 1759 
L 2194 1759 
z
M 3341 1997 
L 3341 0 
L 2766 0 
L 2766 531 
Q 2569 213 2275 61 
Q 1981 -91 1556 -91 
Q 1019 -91 701 211 
Q 384 513 384 1019 
Q 384 1609 779 1909 
Q 1175 2209 1959 2209 
L 2766 2209 
L 2766 2266 
Q 2766 2663 2505 2880 
Q 2244 3097 1772 3097 
Q 1472 3097 1187 3025 
Q 903 2953 641 2809 
L 641 3341 
Q 956 3463 1253 3523 
Q 1550 3584 1831 3584 
Q 2591 3584 2966 3190 
Q 3341 2797 3341 1997 
z
" transform="scale(0.015625)"/>
      <path id="DejaVuSans-29" d="M 513 4856 
L 1013 4856 
Q 1481 4119 1714 3412 
Q 1947 2706 1947 2009 
Q 1947 1309 1714 600 
Q 1481 -109 1013 -844 
L 513 -844 
Q 928 -128 1133 580 
Q 1338 1288 1338 2009 
Q 1338 2731 1133 3434 
Q 928 4138 513 4856 
z
" transform="scale(0.015625)"/>
     </defs>
     <use xlink:href="#DejaVuSans-28"/>
     <use xlink:href="#DejaVuSans-61" x="39.013672"/>
     <use xlink:href="#DejaVuSans-29" x="100.292969"/>
    </g>
   </g>
  </g>
  <g id="axes_2">
   <g id="patch_7">
    <path d="M 220.73207 92.612 
L 320.84814 92.612 
L 320.84814 10.8 
L 220.73207 10.8 
z
" style="fill: #ffffff"/>
   </g>
   <g id="PolyCollection_3">
    <defs>
     <path id="m9e37f2a92a" d="M 225.282801 -349.163148 
L 225.282801 -348.179049 
L 234.384262 -342.826306 
L 243.485723 -349.610475 
L 252.587184 -343.105958 
L 261.688644 -342.796529 
L 270.790105 -347.360411 
L 279.891566 -344.045204 
L 288.993027 -348.7705 
L 298.094488 -344.49834 
L 307.195949 -343.440525 
L 316.29741 -351.580081 
L 316.29741 -354.839882 
L 316.29741 -354.839882 
L 307.195949 -353.642473 
L 298.094488 -356.044787 
L 288.993027 -354.182677 
L 279.891566 -354.298503 
L 270.790105 -353.782546 
L 261.688644 -350.727554 
L 252.587184 -357.465783 
L 243.485723 -353.461795 
L 234.384262 -352.566695 
L 225.282801 -349.163148 
z
" style="stroke: #1f77b4; stroke-opacity: 0.2"/>
    </defs>
    <g clip-path="url(#pe7287194f5)">
     <use xlink:href="#m9e37f2a92a" x="0" y="403.2" style="fill: #1f77b4; fill-opacity: 0.2; stroke: #1f77b4; stroke-opacity: 0.2"/>
    </g>
   </g>
   <g id="PolyCollection_4">
    <defs>
     <path id="m805a122f07" d="M 225.282801 -350.964138 
L 225.282801 -346.56576 
L 234.384262 -344.613756 
L 243.485723 -341.129321 
L 252.587184 -342.918502 
L 261.688644 -343.878975 
L 270.790105 -347.065419 
L 279.891566 -349.677709 
L 288.993027 -347.099671 
L 298.094488 -345.165725 
L 307.195949 -346.369301 
L 316.29741 -342.879469 
L 316.29741 -346.810856 
L 316.29741 -346.810856 
L 307.195949 -351.99097 
L 298.094488 -353.969316 
L 288.993027 -354.677546 
L 279.891566 -359.403342 
L 270.790105 -353.548075 
L 261.688644 -356.364305 
L 252.587184 -353.208408 
L 243.485723 -349.913711 
L 234.384262 -355.496149 
L 225.282801 -350.964138 
z
" style="stroke: #ff7f0e; stroke-opacity: 0.2"/>
    </defs>
    <g clip-path="url(#pe7287194f5)">
     <use xlink:href="#m805a122f07" x="0" y="403.2" style="fill: #ff7f0e; fill-opacity: 0.2; stroke: #ff7f0e; stroke-opacity: 0.2"/>
    </g>
   </g>
   <g id="matplotlib.axis_3">
    <g id="xtick_4">
     <g id="line2d_9">
      <g>
       <use xlink:href="#m7333a1c4de" x="224.372655" y="92.612" style="stroke: #000000; stroke-width: 0.8"/>
      </g>
     </g>
    </g>
    <g id="xtick_5">
     <g id="line2d_10">
      <g>
       <use xlink:href="#m7333a1c4de" x="269.879959" y="92.612" style="stroke: #000000; stroke-width: 0.8"/>
      </g>
     </g>
    </g>
    <g id="xtick_6">
     <g id="line2d_11">
      <g>
       <use xlink:href="#m7333a1c4de" x="315.387264" y="92.612" style="stroke: #000000; stroke-width: 0.8"/>
      </g>
     </g>
    </g>
   </g>
   <g id="matplotlib.axis_4">
    <g id="ytick_4">
     <g id="line2d_12">
      <g>
       <use xlink:href="#m650e8a680d" x="220.73207" y="79.289257" style="stroke: #000000; stroke-width: 0.8"/>
      </g>
     </g>
     <g id="text_6">
      <!-- −0.25 -->
      <g transform="translate(183.086758 83.088476) scale(0.1 -0.1)">
       <use xlink:href="#DejaVuSans-2212"/>
       <use xlink:href="#DejaVuSans-30" x="83.789062"/>
       <use xlink:href="#DejaVuSans-2e" x="147.412109"/>
       <use xlink:href="#DejaVuSans-32" x="179.199219"/>
       <use xlink:href="#DejaVuSans-35" x="242.822266"/>
      </g>
     </g>
    </g>
    <g id="ytick_5">
     <g id="line2d_13">
      <g>
       <use xlink:href="#m650e8a680d" x="220.73207" y="54.797077" style="stroke: #000000; stroke-width: 0.8"/>
      </g>
     </g>
     <g id="text_7">
      <!-- 0.00 -->
      <g transform="translate(191.466445 58.596296) scale(0.1 -0.1)">
       <use xlink:href="#DejaVuSans-30"/>
       <use xlink:href="#DejaVuSans-2e" x="63.623047"/>
       <use xlink:href="#DejaVuSans-30" x="95.410156"/>
       <use xlink:href="#DejaVuSans-30" x="159.033203"/>
      </g>
     </g>
    </g>
    <g id="ytick_6">
     <g id="line2d_14">
      <g>
       <use xlink:href="#m650e8a680d" x="220.73207" y="30.304898" style="stroke: #000000; stroke-width: 0.8"/>
      </g>
     </g>
     <g id="text_8">
      <!-- 0.25 -->
      <g transform="translate(191.466445 34.104117) scale(0.1 -0.1)">
       <use xlink:href="#DejaVuSans-30"/>
       <use xlink:href="#DejaVuSans-2e" x="63.623047"/>
       <use xlink:href="#DejaVuSans-32" x="95.410156"/>
       <use xlink:href="#DejaVuSans-35" x="159.033203"/>
      </g>
     </g>
    </g>
    <g id="text_9">
     <!-- $Y$ -->
     <g transform="translate(179.50707 54.806) rotate(-90) scale(0.1 -0.1)">
      <defs>
       <path id="DejaVuSans-Oblique-59" d="M 403 4666 
L 1081 4666 
L 1953 2747 
L 3616 4666 
L 4325 4666 
L 2209 2222 
L 1778 0 
L 1147 0 
L 1575 2222 
L 403 4666 
z
" transform="scale(0.015625)"/>
      </defs>
      <use xlink:href="#DejaVuSans-Oblique-59" transform="translate(0 0.09375)"/>
     </g>
    </g>
   </g>
   <g id="line2d_15">
    <path d="M 225.282801 54.508634 
L 234.384262 55.000686 
L 243.485723 51.785081 
L 252.587184 54.054322 
L 261.688644 56.166601 
L 270.790105 52.992937 
L 279.891566 53.071475 
L 288.993027 51.754113 
L 298.094488 53.854357 
L 307.195949 54.494429 
L 316.29741 50.374612 
" clip-path="url(#pe7287194f5)" style="fill: none; stroke: #1f77b4; stroke-width: 1.5; stroke-linecap: square"/>
   </g>
   <g id="line2d_16">
    <path d="M 225.282801 54.468233 
L 234.384262 53.719654 
L 243.485723 56.941165 
L 252.587184 55.452695 
L 261.688644 53.11593 
L 270.790105 53.333163 
L 279.891566 47.8693 
L 288.993027 52.571652 
L 298.094488 54.144358 
L 307.195949 54.809044 
L 316.29741 58.378755 
" clip-path="url(#pe7287194f5)" style="fill: none; stroke-dasharray: 1.5,2.475; stroke-dashoffset: 0; stroke: #ff7f0e; stroke-width: 1.5"/>
   </g>
   <g id="patch_8">
    <path d="M 220.73207 92.612 
L 220.73207 10.8 
" style="fill: none; stroke: #000000; stroke-width: 0.8; stroke-linejoin: miter; stroke-linecap: square"/>
   </g>
   <g id="patch_9">
    <path d="M 320.84814 92.612 
L 320.84814 10.8 
" style="fill: none; stroke: #000000; stroke-width: 0.8; stroke-linejoin: miter; stroke-linecap: square"/>
   </g>
   <g id="patch_10">
    <path d="M 220.73207 92.612 
L 320.84814 92.612 
" style="fill: none; stroke: #000000; stroke-width: 0.8; stroke-linejoin: miter; stroke-linecap: square"/>
   </g>
   <g id="patch_11">
    <path d="M 220.73207 10.8 
L 320.84814 10.8 
" style="fill: none; stroke: #000000; stroke-width: 0.8; stroke-linejoin: miter; stroke-linecap: square"/>
   </g>
   <g id="text_10">
    <!-- (b) -->
    <g transform="translate(190.697249 21.43556) scale(0.1 -0.1)">
     <defs>
      <path id="DejaVuSans-62" d="M 3116 1747 
Q 3116 2381 2855 2742 
Q 2594 3103 2138 3103 
Q 1681 3103 1420 2742 
Q 1159 2381 1159 1747 
Q 1159 1113 1420 752 
Q 1681 391 2138 391 
Q 2594 391 2855 752 
Q 3116 1113 3116 1747 
z
M 1159 2969 
Q 1341 3281 1617 3432 
Q 1894 3584 2278 3584 
Q 2916 3584 3314 3078 
Q 3713 2572 3713 1747 
Q 3713 922 3314 415 
Q 2916 -91 2278 -91 
Q 1894 -91 1617 61 
Q 1341 213 1159 525 
L 1159 0 
L 581 0 
L 581 4863 
L 1159 4863 
L 1159 2969 
z
" transform="scale(0.015625)"/>
     </defs>
     <use xlink:href="#DejaVuSans-28"/>
     <use xlink:href="#DejaVuSans-62" x="39.013672"/>
     <use xlink:href="#DejaVuSans-29" x="102.490234"/>
    </g>
   </g>
  </g>
  <g id="axes_3">
   <g id="patch_12">
    <path d="M 60.07 180.924 
L 160.18607 180.924 
L 160.18607 99.112 
L 60.07 99.112 
z
" style="fill: #ffffff"/>
   </g>
   <g id="PolyCollection_5">
    <defs>
     <path id="mda3b9d32fa" d="M 64.62073 -249.837238 
L 64.62073 -249.837238 
L 73.722191 -247.570805 
L 82.823652 -246.486707 
L 91.925113 -246.20831 
L 101.026574 -249.186306 
L 110.128035 -246.897783 
L 119.229496 -240.143899 
L 128.330957 -247.444898 
L 137.432418 -245.269897 
L 146.533879 -246.834925 
L 155.63534 -248.712262 
L 155.63534 -300.369273 
L 155.63534 -300.369273 
L 146.533879 -265.80008 
L 137.432418 -263.683975 
L 128.330957 -263.297801 
L 119.229496 -265.1612 
L 110.128035 -266.097528 
L 101.026574 -260.107529 
L 91.925113 -258.395328 
L 82.823652 -260.754094 
L 73.722191 -265.190225 
L 64.62073 -249.837238 
z
" style="stroke: #1f77b4; stroke-opacity: 0.2"/>
    </defs>
    <g clip-path="url(#p3cb5be7a26)">
     <use xlink:href="#mda3b9d32fa" x="0" y="403.2" style="fill: #1f77b4; fill-opacity: 0.2; stroke: #1f77b4; stroke-opacity: 0.2"/>
    </g>
   </g>
   <g id="PolyCollection_6">
    <defs>
     <path id="mab430f5ae9" d="M 64.62073 -249.837238 
L 64.62073 -249.837238 
L 73.722191 -245.240572 
L 82.823652 -232.845894 
L 91.925113 -238.695025 
L 101.026574 -234.914638 
L 110.128035 -235.901478 
L 119.229496 -232.744074 
L 128.330957 -228.878482 
L 137.432418 -229.680763 
L 146.533879 -229.208298 
L 155.63534 -229.321019 
L 155.63534 -247.638354 
L 155.63534 -247.638354 
L 146.533879 -266.02131 
L 137.432418 -254.523067 
L 128.330957 -252.605357 
L 119.229496 -255.518466 
L 110.128035 -253.601002 
L 101.026574 -248.972786 
L 91.925113 -249.16196 
L 82.823652 -252.726817 
L 73.722191 -254.195892 
L 64.62073 -249.837238 
z
" style="stroke: #ff7f0e; stroke-opacity: 0.2"/>
    </defs>
    <g clip-path="url(#p3cb5be7a26)">
     <use xlink:href="#mab430f5ae9" x="0" y="403.2" style="fill: #ff7f0e; fill-opacity: 0.2; stroke: #ff7f0e; stroke-opacity: 0.2"/>
    </g>
   </g>
   <g id="matplotlib.axis_5">
    <g id="xtick_7">
     <g id="line2d_17">
      <g>
       <use xlink:href="#m7333a1c4de" x="63.710584" y="180.924" style="stroke: #000000; stroke-width: 0.8"/>
      </g>
     </g>
    </g>
    <g id="xtick_8">
     <g id="line2d_18">
      <g>
       <use xlink:href="#m7333a1c4de" x="109.217889" y="180.924" style="stroke: #000000; stroke-width: 0.8"/>
      </g>
     </g>
    </g>
    <g id="xtick_9">
     <g id="line2d_19">
      <g>
       <use xlink:href="#m7333a1c4de" x="154.725194" y="180.924" style="stroke: #000000; stroke-width: 0.8"/>
      </g>
     </g>
    </g>
   </g>
   <g id="matplotlib.axis_6">
    <g id="ytick_7">
     <g id="line2d_20">
      <g>
       <use xlink:href="#m650e8a680d" x="60.07" y="177.802936" style="stroke: #000000; stroke-width: 0.8"/>
      </g>
     </g>
     <g id="text_11">
      <!-- −10 -->
      <g transform="translate(31.965312 181.602155) scale(0.1 -0.1)">
       <defs>
        <path id="DejaVuSans-31" d="M 794 531 
L 1825 531 
L 1825 4091 
L 703 3866 
L 703 4441 
L 1819 4666 
L 2450 4666 
L 2450 531 
L 3481 531 
L 3481 0 
L 794 0 
L 794 531 
z
" transform="scale(0.015625)"/>
       </defs>
       <use xlink:href="#DejaVuSans-2212"/>
       <use xlink:href="#DejaVuSans-31" x="83.789062"/>
       <use xlink:href="#DejaVuSans-30" x="147.412109"/>
      </g>
     </g>
    </g>
    <g id="ytick_8">
     <g id="line2d_21">
      <g>
       <use xlink:href="#m650e8a680d" x="60.07" y="153.362762" style="stroke: #000000; stroke-width: 0.8"/>
      </g>
     </g>
     <g id="text_12">
      <!-- 0 -->
      <g transform="translate(46.7075 157.16198) scale(0.1 -0.1)">
       <use xlink:href="#DejaVuSans-30"/>
      </g>
     </g>
    </g>
    <g id="ytick_9">
     <g id="line2d_22">
      <g>
       <use xlink:href="#m650e8a680d" x="60.07" y="128.922587" style="stroke: #000000; stroke-width: 0.8"/>
      </g>
     </g>
     <g id="text_13">
      <!-- 10 -->
      <g transform="translate(40.345 132.721806) scale(0.1 -0.1)">
       <use xlink:href="#DejaVuSans-31"/>
       <use xlink:href="#DejaVuSans-30" x="63.623047"/>
      </g>
     </g>
    </g>
    <g id="ytick_10">
     <g id="line2d_23">
      <g>
       <use xlink:href="#m650e8a680d" x="60.07" y="104.482413" style="stroke: #000000; stroke-width: 0.8"/>
      </g>
     </g>
     <g id="text_14">
      <!-- 20 -->
      <g transform="translate(40.345 108.281632) scale(0.1 -0.1)">
       <use xlink:href="#DejaVuSans-32"/>
       <use xlink:href="#DejaVuSans-30" x="63.623047"/>
      </g>
     </g>
    </g>
    <g id="text_15">
     <!-- $\langle \hat{a}_{\mathrm{r}} \rangle$ -->
     <g transform="translate(28.385625 148.618) rotate(-90) scale(0.1 -0.1)">
      <defs>
       <path id="DejaVuSans-27e8" d="M 572 2006 
L 1453 4856 
L 1984 4856 
L 1103 2006 
L 1984 -844 
L 1453 -844 
L 572 2006 
z
" transform="scale(0.015625)"/>
       <path id="DejaVuSans-302" d="M -1831 5119 
L -1369 5119 
L -603 3944 
L -1038 3944 
L -1600 4709 
L -2163 3944 
L -2597 3944 
L -1831 5119 
z
M -1600 3584 
L -1600 3584 
z
" transform="scale(0.015625)"/>
       <path id="DejaVuSans-Oblique-61" d="M 3438 1997 
L 3047 0 
L 2472 0 
L 2578 531 
Q 2325 219 2001 64 
Q 1678 -91 1281 -91 
Q 834 -91 548 182 
Q 263 456 263 884 
Q 263 1497 752 1853 
Q 1241 2209 2100 2209 
L 2900 2209 
L 2931 2363 
Q 2938 2388 2941 2417 
Q 2944 2447 2944 2509 
Q 2944 2788 2717 2942 
Q 2491 3097 2081 3097 
Q 1800 3097 1504 3025 
Q 1209 2953 897 2809 
L 997 3341 
Q 1322 3463 1633 3523 
Q 1944 3584 2234 3584 
Q 2853 3584 3176 3315 
Q 3500 3047 3500 2534 
Q 3500 2431 3484 2292 
Q 3469 2153 3438 1997 
z
M 2816 1759 
L 2241 1759 
Q 1534 1759 1195 1570 
Q 856 1381 856 984 
Q 856 709 1029 553 
Q 1203 397 1509 397 
Q 1978 397 2328 733 
Q 2678 1069 2791 1631 
L 2816 1759 
z
" transform="scale(0.015625)"/>
       <path id="DejaVuSans-72" d="M 2631 2963 
Q 2534 3019 2420 3045 
Q 2306 3072 2169 3072 
Q 1681 3072 1420 2755 
Q 1159 2438 1159 1844 
L 1159 0 
L 581 0 
L 581 3500 
L 1159 3500 
L 1159 2956 
Q 1341 3275 1631 3429 
Q 1922 3584 2338 3584 
Q 2397 3584 2469 3576 
Q 2541 3569 2628 3553 
L 2631 2963 
z
" transform="scale(0.015625)"/>
       <path id="DejaVuSans-27e9" d="M 1925 2006 
L 1044 -844 
L 513 -844 
L 1394 2006 
L 513 4856 
L 1044 4856 
L 1925 2006 
z
" transform="scale(0.015625)"/>
      </defs>
      <use xlink:href="#DejaVuSans-27e8" transform="translate(0 0.515625)"/>
      <use xlink:href="#DejaVuSans-302" transform="translate(101.911621 13.015625)"/>
      <use xlink:href="#DejaVuSans-Oblique-61" transform="translate(39.013672 0.515625)"/>
      <use xlink:href="#DejaVuSans-72" transform="translate(101.25 -15.890625) scale(0.7)"/>
      <use xlink:href="#DejaVuSans-27e9" transform="translate(132.763672 0.515625)"/>
     </g>
    </g>
   </g>
   <g id="line2d_24">
    <path d="M 64.62073 153.362762 
L 73.722191 149.657853 
L 82.823652 151.450455 
L 91.925113 151.671594 
L 101.026574 147.715832 
L 110.128035 149.554682 
L 119.229496 151.757566 
L 128.330957 149.183289 
L 137.432418 148.739947 
L 146.533879 148.33738 
L 155.63534 137.319872 
" clip-path="url(#p3cb5be7a26)" style="fill: none; stroke: #1f77b4; stroke-width: 1.5; stroke-linecap: square"/>
   </g>
   <g id="line2d_25">
    <path d="M 64.62073 153.362762 
L 73.722191 153.146737 
L 82.823652 158.199931 
L 91.925113 157.19356 
L 101.026574 158.570048 
L 110.128035 156.26404 
L 119.229496 157.04645 
L 128.330957 158.943293 
L 137.432418 159.260233 
L 146.533879 155.276174 
L 155.63534 161.670528 
" clip-path="url(#p3cb5be7a26)" style="fill: none; stroke-dasharray: 1.5,2.475; stroke-dashoffset: 0; stroke: #ff7f0e; stroke-width: 1.5"/>
   </g>
   <g id="patch_13">
    <path d="M 60.07 180.924 
L 60.07 99.112 
" style="fill: none; stroke: #000000; stroke-width: 0.8; stroke-linejoin: miter; stroke-linecap: square"/>
   </g>
   <g id="patch_14">
    <path d="M 160.18607 180.924 
L 160.18607 99.112 
" style="fill: none; stroke: #000000; stroke-width: 0.8; stroke-linejoin: miter; stroke-linecap: square"/>
   </g>
   <g id="patch_15">
    <path d="M 60.07 180.924 
L 160.18607 180.924 
" style="fill: none; stroke: #000000; stroke-width: 0.8; stroke-linejoin: miter; stroke-linecap: square"/>
   </g>
   <g id="patch_16">
    <path d="M 60.07 99.112 
L 160.18607 99.112 
" style="fill: none; stroke: #000000; stroke-width: 0.8; stroke-linejoin: miter; stroke-linecap: square"/>
   </g>
   <g id="text_16">
    <!-- (c) -->
    <g transform="translate(30.035179 109.74756) scale(0.1 -0.1)">
     <defs>
      <path id="DejaVuSans-63" d="M 3122 3366 
L 3122 2828 
Q 2878 2963 2633 3030 
Q 2388 3097 2138 3097 
Q 1578 3097 1268 2742 
Q 959 2388 959 1747 
Q 959 1106 1268 751 
Q 1578 397 2138 397 
Q 2388 397 2633 464 
Q 2878 531 3122 666 
L 3122 134 
Q 2881 22 2623 -34 
Q 2366 -91 2075 -91 
Q 1284 -91 818 406 
Q 353 903 353 1747 
Q 353 2603 823 3093 
Q 1294 3584 2113 3584 
Q 2378 3584 2631 3529 
Q 2884 3475 3122 3366 
z
" transform="scale(0.015625)"/>
     </defs>
     <use xlink:href="#DejaVuSans-28"/>
     <use xlink:href="#DejaVuSans-63" x="39.013672"/>
     <use xlink:href="#DejaVuSans-29" x="93.994141"/>
    </g>
   </g>
  </g>
  <g id="axes_4">
   <g id="patch_17">
    <path d="M 220.73207 180.924 
L 320.84814 180.924 
L 320.84814 99.112 
L 220.73207 99.112 
z
" style="fill: #ffffff"/>
   </g>
   <g id="PolyCollection_7">
    <defs>
     <path id="ma70d5c2481" d="M 225.282801 -249.837238 
L 225.282801 -249.837238 
L 234.384262 -261.646839 
L 243.485723 -259.744637 
L 252.587184 -258.897175 
L 261.688644 -265.019136 
L 270.790105 -263.383984 
L 279.891566 -267.666739 
L 288.993027 -264.175575 
L 298.094488 -267.200089 
L 307.195949 -267.660795 
L 316.29741 -271.456033 
L 316.29741 -246.834357 
L 316.29741 -246.834357 
L 307.195949 -248.770151 
L 298.094488 -225.994727 
L 288.993027 -246.387558 
L 279.891566 -245.06515 
L 270.790105 -246.538067 
L 261.688644 -251.511014 
L 252.587184 -246.601793 
L 243.485723 -249.063435 
L 234.384262 -247.896859 
L 225.282801 -249.837238 
z
" style="stroke: #1f77b4; stroke-opacity: 0.2"/>
    </defs>
    <g clip-path="url(#pf9262d10b1)">
     <use xlink:href="#ma70d5c2481" x="0" y="403.2" style="fill: #1f77b4; fill-opacity: 0.2; stroke: #1f77b4; stroke-opacity: 0.2"/>
    </g>
   </g>
   <g id="PolyCollection_8">
    <defs>
     <path id="mc13e16c1b9" d="M 225.282801 -249.837238 
L 225.282801 -249.837238 
L 234.384262 -252.843548 
L 243.485723 -255.580455 
L 252.587184 -251.560355 
L 261.688644 -249.447547 
L 270.790105 -254.378494 
L 279.891566 -252.004613 
L 288.993027 -253.515475 
L 298.094488 -248.638026 
L 307.195949 -264.099822 
L 316.29741 -252.143254 
L 316.29741 -229.729901 
L 316.29741 -229.729901 
L 307.195949 -230.885855 
L 298.094488 -228.398328 
L 288.993027 -230.80825 
L 279.891566 -230.899264 
L 270.790105 -234.613276 
L 261.688644 -235.738196 
L 252.587184 -238.88076 
L 243.485723 -238.167744 
L 234.384262 -244.688238 
L 225.282801 -249.837238 
z
" style="stroke: #ff7f0e; stroke-opacity: 0.2"/>
    </defs>
    <g clip-path="url(#pf9262d10b1)">
     <use xlink:href="#mc13e16c1b9" x="0" y="403.2" style="fill: #ff7f0e; fill-opacity: 0.2; stroke: #ff7f0e; stroke-opacity: 0.2"/>
    </g>
   </g>
   <g id="matplotlib.axis_7">
    <g id="xtick_10">
     <g id="line2d_26">
      <g>
       <use xlink:href="#m7333a1c4de" x="224.372655" y="180.924" style="stroke: #000000; stroke-width: 0.8"/>
      </g>
     </g>
    </g>
    <g id="xtick_11">
     <g id="line2d_27">
      <g>
       <use xlink:href="#m7333a1c4de" x="269.879959" y="180.924" style="stroke: #000000; stroke-width: 0.8"/>
      </g>
     </g>
    </g>
    <g id="xtick_12">
     <g id="line2d_28">
      <g>
       <use xlink:href="#m7333a1c4de" x="315.387264" y="180.924" style="stroke: #000000; stroke-width: 0.8"/>
      </g>
     </g>
    </g>
   </g>
   <g id="matplotlib.axis_8">
    <g id="ytick_11">
     <g id="line2d_29">
      <g>
       <use xlink:href="#m650e8a680d" x="220.73207" y="177.802936" style="stroke: #000000; stroke-width: 0.8"/>
      </g>
     </g>
     <g id="text_17">
      <!-- −10 -->
      <g transform="translate(192.627383 181.602155) scale(0.1 -0.1)">
       <use xlink:href="#DejaVuSans-2212"/>
       <use xlink:href="#DejaVuSans-31" x="83.789062"/>
       <use xlink:href="#DejaVuSans-30" x="147.412109"/>
      </g>
     </g>
    </g>
    <g id="ytick_12">
     <g id="line2d_30">
      <g>
       <use xlink:href="#m650e8a680d" x="220.73207" y="153.362762" style="stroke: #000000; stroke-width: 0.8"/>
      </g>
     </g>
     <g id="text_18">
      <!-- 0 -->
      <g transform="translate(207.36957 157.16198) scale(0.1 -0.1)">
       <use xlink:href="#DejaVuSans-30"/>
      </g>
     </g>
    </g>
    <g id="ytick_13">
     <g id="line2d_31">
      <g>
       <use xlink:href="#m650e8a680d" x="220.73207" y="128.922587" style="stroke: #000000; stroke-width: 0.8"/>
      </g>
     </g>
     <g id="text_19">
      <!-- 10 -->
      <g transform="translate(201.00707 132.721806) scale(0.1 -0.1)">
       <use xlink:href="#DejaVuSans-31"/>
       <use xlink:href="#DejaVuSans-30" x="63.623047"/>
      </g>
     </g>
    </g>
    <g id="ytick_14">
     <g id="line2d_32">
      <g>
       <use xlink:href="#m650e8a680d" x="220.73207" y="104.482413" style="stroke: #000000; stroke-width: 0.8"/>
      </g>
     </g>
     <g id="text_20">
      <!-- 20 -->
      <g transform="translate(201.00707 108.281632) scale(0.1 -0.1)">
       <use xlink:href="#DejaVuSans-32"/>
       <use xlink:href="#DejaVuSans-30" x="63.623047"/>
      </g>
     </g>
    </g>
    <g id="text_21">
     <!-- $\langle \hat{a}_{\mathrm{i}} \rangle$ -->
     <g transform="translate(189.047695 148.168) rotate(-90) scale(0.1 -0.1)">
      <defs>
       <path id="DejaVuSans-69" d="M 603 3500 
L 1178 3500 
L 1178 0 
L 603 0 
L 603 3500 
z
M 603 4863 
L 1178 4863 
L 1178 4134 
L 603 4134 
L 603 4863 
z
" transform="scale(0.015625)"/>
      </defs>
      <use xlink:href="#DejaVuSans-27e8" transform="translate(0 0.515625)"/>
      <use xlink:href="#DejaVuSans-302" transform="translate(101.911621 13.015625)"/>
      <use xlink:href="#DejaVuSans-Oblique-61" transform="translate(39.013672 0.515625)"/>
      <use xlink:href="#DejaVuSans-69" transform="translate(101.25 -15.890625) scale(0.7)"/>
      <use xlink:href="#DejaVuSans-27e9" transform="translate(123.432617 0.515625)"/>
     </g>
    </g>
   </g>
   <g id="line2d_33">
    <path d="M 225.282801 153.362762 
L 234.384262 148.914878 
L 243.485723 149.41424 
L 252.587184 151.297219 
L 261.688644 146.324127 
L 270.790105 149.753199 
L 279.891566 149.271395 
L 288.993027 151.139305 
L 298.094488 154.836535 
L 307.195949 146.526201 
L 316.29741 147.685135 
" clip-path="url(#pf9262d10b1)" style="fill: none; stroke: #1f77b4; stroke-width: 1.5; stroke-linecap: square"/>
   </g>
   <g id="line2d_34">
    <path d="M 225.282801 153.362762 
L 234.384262 154.36222 
L 243.485723 154.439678 
L 252.587184 156.134261 
L 261.688644 158.886 
L 270.790105 156.396231 
L 279.891566 158.284105 
L 288.993027 158.405229 
L 298.094488 161.761284 
L 307.195949 154.265661 
L 316.29741 159.136794 
" clip-path="url(#pf9262d10b1)" style="fill: none; stroke-dasharray: 1.5,2.475; stroke-dashoffset: 0; stroke: #ff7f0e; stroke-width: 1.5"/>
   </g>
   <g id="patch_18">
    <path d="M 220.73207 180.924 
L 220.73207 99.112 
" style="fill: none; stroke: #000000; stroke-width: 0.8; stroke-linejoin: miter; stroke-linecap: square"/>
   </g>
   <g id="patch_19">
    <path d="M 320.84814 180.924 
L 320.84814 99.112 
" style="fill: none; stroke: #000000; stroke-width: 0.8; stroke-linejoin: miter; stroke-linecap: square"/>
   </g>
   <g id="patch_20">
    <path d="M 220.73207 180.924 
L 320.84814 180.924 
" style="fill: none; stroke: #000000; stroke-width: 0.8; stroke-linejoin: miter; stroke-linecap: square"/>
   </g>
   <g id="patch_21">
    <path d="M 220.73207 99.112 
L 320.84814 99.112 
" style="fill: none; stroke: #000000; stroke-width: 0.8; stroke-linejoin: miter; stroke-linecap: square"/>
   </g>
   <g id="text_22">
    <!-- (d) -->
    <g transform="translate(190.697249 109.74756) scale(0.1 -0.1)">
     <defs>
      <path id="DejaVuSans-64" d="M 2906 2969 
L 2906 4863 
L 3481 4863 
L 3481 0 
L 2906 0 
L 2906 525 
Q 2725 213 2448 61 
Q 2172 -91 1784 -91 
Q 1150 -91 751 415 
Q 353 922 353 1747 
Q 353 2572 751 3078 
Q 1150 3584 1784 3584 
Q 2172 3584 2448 3432 
Q 2725 3281 2906 2969 
z
M 947 1747 
Q 947 1113 1208 752 
Q 1469 391 1925 391 
Q 2381 391 2643 752 
Q 2906 1113 2906 1747 
Q 2906 2381 2643 2742 
Q 2381 3103 1925 3103 
Q 1469 3103 1208 2742 
Q 947 2381 947 1747 
z
" transform="scale(0.015625)"/>
     </defs>
     <use xlink:href="#DejaVuSans-28"/>
     <use xlink:href="#DejaVuSans-64" x="39.013672"/>
     <use xlink:href="#DejaVuSans-29" x="102.490234"/>
    </g>
   </g>
  </g>
  <g id="axes_5">
   <g id="patch_22">
    <path d="M 60.07 269.236 
L 160.18607 269.236 
L 160.18607 187.424 
L 60.07 187.424 
z
" style="fill: #ffffff"/>
   </g>
   <g id="PolyCollection_9">
    <defs>
     <path id="mca5f0b1173" d="M 64.62073 -173.743488 
L 64.62073 -165.481608 
L 73.722191 -141.622846 
L 82.823652 -143.330671 
L 91.925113 -154.681372 
L 101.026574 -148.881806 
L 110.128035 -153.67762 
L 119.229496 -147.019663 
L 128.330957 -171.027582 
L 137.432418 -146.537991 
L 146.533879 -152.285058 
L 155.63534 -150.936952 
L 155.63534 -199.452549 
L 155.63534 -199.452549 
L 146.533879 -194.35606 
L 137.432418 -185.34996 
L 128.330957 -186.051243 
L 119.229496 -188.247634 
L 110.128035 -204.010007 
L 101.026574 -180.594926 
L 91.925113 -166.512414 
L 82.823652 -187.844856 
L 73.722191 -179.116021 
L 64.62073 -173.743488 
z
" style="stroke: #1f77b4; stroke-opacity: 0.2"/>
    </defs>
    <g clip-path="url(#p0a29bd3d47)">
     <use xlink:href="#mca5f0b1173" x="0" y="403.2" style="fill: #1f77b4; fill-opacity: 0.2; stroke: #1f77b4; stroke-opacity: 0.2"/>
    </g>
   </g>
   <g id="PolyCollection_10">
    <defs>
     <path id="m43e9d5deb0" d="M 64.62073 -175.216791 
L 64.62073 -169.919861 
L 73.722191 -158.015406 
L 82.823652 -143.547505 
L 91.925113 -156.853348 
L 101.026574 -153.093619 
L 110.128035 -137.682727 
L 119.229496 -156.773487 
L 128.330957 -164.897973 
L 137.432418 -160.126445 
L 146.533879 -166.486737 
L 155.63534 -168.568018 
L 155.63534 -184.550551 
L 155.63534 -184.550551 
L 146.533879 -212.057273 
L 137.432418 -174.426301 
L 128.330957 -186.802464 
L 119.229496 -182.135346 
L 110.128035 -191.811081 
L 101.026574 -176.41088 
L 91.925113 -175.07879 
L 82.823652 -193.137985 
L 73.722191 -174.43515 
L 64.62073 -175.216791 
z
" style="stroke: #ff7f0e; stroke-opacity: 0.2"/>
    </defs>
    <g clip-path="url(#p0a29bd3d47)">
     <use xlink:href="#m43e9d5deb0" x="0" y="403.2" style="fill: #ff7f0e; fill-opacity: 0.2; stroke: #ff7f0e; stroke-opacity: 0.2"/>
    </g>
   </g>
   <g id="matplotlib.axis_9">
    <g id="xtick_13">
     <g id="line2d_35">
      <g>
       <use xlink:href="#m7333a1c4de" x="63.710584" y="269.236" style="stroke: #000000; stroke-width: 0.8"/>
      </g>
     </g>
    </g>
    <g id="xtick_14">
     <g id="line2d_36">
      <g>
       <use xlink:href="#m7333a1c4de" x="109.217889" y="269.236" style="stroke: #000000; stroke-width: 0.8"/>
      </g>
     </g>
    </g>
    <g id="xtick_15">
     <g id="line2d_37">
      <g>
       <use xlink:href="#m7333a1c4de" x="154.725194" y="269.236" style="stroke: #000000; stroke-width: 0.8"/>
      </g>
     </g>
    </g>
   </g>
   <g id="matplotlib.axis_10">
    <g id="ytick_15">
     <g id="line2d_38">
      <g>
       <use xlink:href="#m650e8a680d" x="60.07" y="259.25128" style="stroke: #000000; stroke-width: 0.8"/>
      </g>
     </g>
     <g id="text_23">
      <!-- −0.1 -->
      <g transform="translate(28.787187 263.050499) scale(0.1 -0.1)">
       <use xlink:href="#DejaVuSans-2212"/>
       <use xlink:href="#DejaVuSans-30" x="83.789062"/>
       <use xlink:href="#DejaVuSans-2e" x="147.412109"/>
       <use xlink:href="#DejaVuSans-31" x="179.199219"/>
      </g>
     </g>
    </g>
    <g id="ytick_16">
     <g id="line2d_39">
      <g>
       <use xlink:href="#m650e8a680d" x="60.07" y="231.111628" style="stroke: #000000; stroke-width: 0.8"/>
      </g>
     </g>
     <g id="text_24">
      <!-- 0.0 -->
      <g transform="translate(37.166875 234.910846) scale(0.1 -0.1)">
       <use xlink:href="#DejaVuSans-30"/>
       <use xlink:href="#DejaVuSans-2e" x="63.623047"/>
       <use xlink:href="#DejaVuSans-30" x="95.410156"/>
      </g>
     </g>
    </g>
    <g id="ytick_17">
     <g id="line2d_40">
      <g>
       <use xlink:href="#m650e8a680d" x="60.07" y="202.971975" style="stroke: #000000; stroke-width: 0.8"/>
      </g>
     </g>
     <g id="text_25">
      <!-- 0.1 -->
      <g transform="translate(37.166875 206.771194) scale(0.1 -0.1)">
       <use xlink:href="#DejaVuSans-30"/>
       <use xlink:href="#DejaVuSans-2e" x="63.623047"/>
       <use xlink:href="#DejaVuSans-31" x="95.410156"/>
      </g>
     </g>
    </g>
    <g id="text_26">
     <!-- $\langle \hat J_x \rangle$ -->
     <g transform="translate(25.187188 236.68) rotate(-90) scale(0.1 -0.1)">
      <defs>
       <path id="DejaVuSans-Oblique-4a" d="M 1069 4666 
L 1703 4666 
L 856 325 
Q 691 -522 298 -901 
Q -94 -1281 -800 -1281 
L -1050 -1281 
L -947 -750 
L -750 -750 
Q -328 -750 -109 -509 
Q 109 -269 225 325 
L 1069 4666 
z
" transform="scale(0.015625)"/>
       <path id="DejaVuSans-Oblique-78" d="M 3841 3500 
L 2234 1784 
L 3219 0 
L 2559 0 
L 1819 1388 
L 531 0 
L -166 0 
L 1556 1844 
L 641 3500 
L 1300 3500 
L 1972 2234 
L 3144 3500 
L 3841 3500 
z
" transform="scale(0.015625)"/>
      </defs>
      <use xlink:href="#DejaVuSans-27e8" transform="translate(0 0.609375)"/>
      <use xlink:href="#DejaVuSans-302" transform="translate(91.345703 30.015625)"/>
      <use xlink:href="#DejaVuSans-Oblique-4a" transform="translate(39.013672 0.609375)"/>
      <use xlink:href="#DejaVuSans-Oblique-78" transform="translate(82.986328 -15.796875) scale(0.7)"/>
      <use xlink:href="#DejaVuSans-27e9" transform="translate(127.146484 0.609375)"/>
     </g>
    </g>
   </g>
   <g id="line2d_41">
    <path d="M 64.62073 234.035407 
L 73.722191 235.344846 
L 82.823652 239.485015 
L 91.925113 241.525108 
L 101.026574 236.549339 
L 110.128035 225.466351 
L 119.229496 233.055525 
L 128.330957 226.202623 
L 137.432418 238.510136 
L 146.533879 227.587935 
L 155.63534 225.362886 
" clip-path="url(#p0a29bd3d47)" style="fill: none; stroke: #1f77b4; stroke-width: 1.5; stroke-linecap: square"/>
   </g>
   <g id="line2d_42">
    <path d="M 64.62073 231.028995 
L 73.722191 234.63207 
L 82.823652 234.057106 
L 91.925113 237.526938 
L 101.026574 236.724534 
L 110.128035 235.014741 
L 119.229496 234.526821 
L 128.330957 224.360786 
L 137.432418 235.540824 
L 146.533879 217.514464 
L 155.63534 228.506662 
" clip-path="url(#p0a29bd3d47)" style="fill: none; stroke-dasharray: 1.5,2.475; stroke-dashoffset: 0; stroke: #ff7f0e; stroke-width: 1.5"/>
   </g>
   <g id="patch_23">
    <path d="M 60.07 269.236 
L 60.07 187.424 
" style="fill: none; stroke: #000000; stroke-width: 0.8; stroke-linejoin: miter; stroke-linecap: square"/>
   </g>
   <g id="patch_24">
    <path d="M 160.18607 269.236 
L 160.18607 187.424 
" style="fill: none; stroke: #000000; stroke-width: 0.8; stroke-linejoin: miter; stroke-linecap: square"/>
   </g>
   <g id="patch_25">
    <path d="M 60.07 269.236 
L 160.18607 269.236 
" style="fill: none; stroke: #000000; stroke-width: 0.8; stroke-linejoin: miter; stroke-linecap: square"/>
   </g>
   <g id="patch_26">
    <path d="M 60.07 187.424 
L 160.18607 187.424 
" style="fill: none; stroke: #000000; stroke-width: 0.8; stroke-linejoin: miter; stroke-linecap: square"/>
   </g>
   <g id="text_27">
    <!-- (e) -->
    <g transform="translate(30.035179 198.05956) scale(0.1 -0.1)">
     <defs>
      <path id="DejaVuSans-65" d="M 3597 1894 
L 3597 1613 
L 953 1613 
Q 991 1019 1311 708 
Q 1631 397 2203 397 
Q 2534 397 2845 478 
Q 3156 559 3463 722 
L 3463 178 
Q 3153 47 2828 -22 
Q 2503 -91 2169 -91 
Q 1331 -91 842 396 
Q 353 884 353 1716 
Q 353 2575 817 3079 
Q 1281 3584 2069 3584 
Q 2775 3584 3186 3129 
Q 3597 2675 3597 1894 
z
M 3022 2063 
Q 3016 2534 2758 2815 
Q 2500 3097 2075 3097 
Q 1594 3097 1305 2825 
Q 1016 2553 972 2059 
L 3022 2063 
z
" transform="scale(0.015625)"/>
     </defs>
     <use xlink:href="#DejaVuSans-28"/>
     <use xlink:href="#DejaVuSans-65" x="39.013672"/>
     <use xlink:href="#DejaVuSans-29" x="100.537109"/>
    </g>
   </g>
  </g>
  <g id="axes_6">
   <g id="patch_27">
    <path d="M 220.73207 269.236 
L 320.84814 269.236 
L 320.84814 187.424 
L 220.73207 187.424 
z
" style="fill: #ffffff"/>
   </g>
   <g id="PolyCollection_11">
    <defs>
     <path id="ma1a4252b88" d="M 225.282801 -175.248542 
L 225.282801 -165.951254 
L 234.384262 -169.806516 
L 243.485723 -168.42674 
L 252.587184 -143.277179 
L 261.688644 -155.397069 
L 270.790105 -154.833722 
L 279.891566 -155.979172 
L 288.993027 -149.359261 
L 298.094488 -168.087337 
L 307.195949 -144.033778 
L 316.29741 -160.705233 
L 316.29741 -195.902683 
L 316.29741 -195.902683 
L 307.195949 -191.628291 
L 298.094488 -189.688451 
L 288.993027 -198.125378 
L 279.891566 -173.210886 
L 270.790105 -178.061109 
L 261.688644 -201.107065 
L 252.587184 -188.904904 
L 243.485723 -187.171571 
L 234.384262 -197.859511 
L 225.282801 -175.248542 
z
" style="stroke: #1f77b4; stroke-opacity: 0.2"/>
    </defs>
    <g clip-path="url(#p1870f08f69)">
     <use xlink:href="#ma1a4252b88" x="0" y="403.2" style="fill: #1f77b4; fill-opacity: 0.2; stroke: #1f77b4; stroke-opacity: 0.2"/>
    </g>
   </g>
   <g id="PolyCollection_12">
    <defs>
     <path id="mc137a4e7b2" d="M 225.282801 -175.748126 
L 225.282801 -169.614396 
L 234.384262 -153.59754 
L 243.485723 -161.372641 
L 252.587184 -163.576967 
L 261.688644 -178.760744 
L 270.790105 -154.884235 
L 279.891566 -149.673764 
L 288.993027 -154.707844 
L 298.094488 -154.050696 
L 307.195949 -146.717147 
L 316.29741 -163.227016 
L 316.29741 -203.045103 
L 316.29741 -203.045103 
L 307.195949 -181.422094 
L 298.094488 -173.779799 
L 288.993027 -177.985201 
L 279.891566 -178.882067 
L 270.790105 -192.486288 
L 261.688644 -198.642096 
L 252.587184 -182.698469 
L 243.485723 -192.965188 
L 234.384262 -195.604546 
L 225.282801 -175.748126 
z
" style="stroke: #ff7f0e; stroke-opacity: 0.2"/>
    </defs>
    <g clip-path="url(#p1870f08f69)">
     <use xlink:href="#mc137a4e7b2" x="0" y="403.2" style="fill: #ff7f0e; fill-opacity: 0.2; stroke: #ff7f0e; stroke-opacity: 0.2"/>
    </g>
   </g>
   <g id="matplotlib.axis_11">
    <g id="xtick_16">
     <g id="line2d_43">
      <g>
       <use xlink:href="#m7333a1c4de" x="224.372655" y="269.236" style="stroke: #000000; stroke-width: 0.8"/>
      </g>
     </g>
    </g>
    <g id="xtick_17">
     <g id="line2d_44">
      <g>
       <use xlink:href="#m7333a1c4de" x="269.879959" y="269.236" style="stroke: #000000; stroke-width: 0.8"/>
      </g>
     </g>
    </g>
    <g id="xtick_18">
     <g id="line2d_45">
      <g>
       <use xlink:href="#m7333a1c4de" x="315.387264" y="269.236" style="stroke: #000000; stroke-width: 0.8"/>
      </g>
     </g>
    </g>
   </g>
   <g id="matplotlib.axis_12">
    <g id="ytick_18">
     <g id="line2d_46">
      <g>
       <use xlink:href="#m650e8a680d" x="220.73207" y="259.25128" style="stroke: #000000; stroke-width: 0.8"/>
      </g>
     </g>
     <g id="text_28">
      <!-- −0.1 -->
      <g transform="translate(189.449258 263.050499) scale(0.1 -0.1)">
       <use xlink:href="#DejaVuSans-2212"/>
       <use xlink:href="#DejaVuSans-30" x="83.789062"/>
       <use xlink:href="#DejaVuSans-2e" x="147.412109"/>
       <use xlink:href="#DejaVuSans-31" x="179.199219"/>
      </g>
     </g>
    </g>
    <g id="ytick_19">
     <g id="line2d_47">
      <g>
       <use xlink:href="#m650e8a680d" x="220.73207" y="231.111628" style="stroke: #000000; stroke-width: 0.8"/>
      </g>
     </g>
     <g id="text_29">
      <!-- 0.0 -->
      <g transform="translate(197.828945 234.910846) scale(0.1 -0.1)">
       <use xlink:href="#DejaVuSans-30"/>
       <use xlink:href="#DejaVuSans-2e" x="63.623047"/>
       <use xlink:href="#DejaVuSans-30" x="95.410156"/>
      </g>
     </g>
    </g>
    <g id="ytick_20">
     <g id="line2d_48">
      <g>
       <use xlink:href="#m650e8a680d" x="220.73207" y="202.971975" style="stroke: #000000; stroke-width: 0.8"/>
      </g>
     </g>
     <g id="text_30">
      <!-- 0.1 -->
      <g transform="translate(197.828945 206.771194) scale(0.1 -0.1)">
       <use xlink:href="#DejaVuSans-30"/>
       <use xlink:href="#DejaVuSans-2e" x="63.623047"/>
       <use xlink:href="#DejaVuSans-31" x="95.410156"/>
      </g>
     </g>
    </g>
    <g id="text_31">
     <!-- $\langle \hat J_y \rangle$ -->
     <g transform="translate(184.849258 236.68) rotate(-90) scale(0.1 -0.1)">
      <defs>
       <path id="DejaVuSans-Oblique-79" d="M 1588 -325 
Q 1188 -997 936 -1164 
Q 684 -1331 294 -1331 
L -159 -1331 
L -63 -850 
L 269 -850 
Q 509 -850 678 -719 
Q 847 -588 1056 -206 
L 1234 128 
L 459 3500 
L 1069 3500 
L 1650 819 
L 3256 3500 
L 3859 3500 
L 1588 -325 
z
" transform="scale(0.015625)"/>
      </defs>
      <use xlink:href="#DejaVuSans-27e8" transform="translate(0 0.609375)"/>
      <use xlink:href="#DejaVuSans-302" transform="translate(91.345703 30.015625)"/>
      <use xlink:href="#DejaVuSans-Oblique-4a" transform="translate(39.013672 0.609375)"/>
      <use xlink:href="#DejaVuSans-Oblique-79" transform="translate(82.986328 -15.796875) scale(0.7)"/>
      <use xlink:href="#DejaVuSans-27e9" transform="translate(127.146484 0.609375)"/>
     </g>
    </g>
   </g>
   <g id="line2d_49">
    <path d="M 225.282801 231.710297 
L 234.384262 221.443222 
L 243.485723 226.333977 
L 252.587184 239.068402 
L 261.688644 227.931081 
L 270.790105 236.451295 
L 279.891566 236.805957 
L 288.993027 228.227096 
L 298.094488 223.456935 
L 307.195949 231.253767 
L 316.29741 228.299614 
" clip-path="url(#p1870f08f69)" style="fill: none; stroke: #1f77b4; stroke-width: 1.5; stroke-linecap: square"/>
   </g>
   <g id="line2d_50">
    <path d="M 225.282801 230.7397 
L 234.384262 228.647333 
L 243.485723 229.053726 
L 252.587184 229.775683 
L 261.688644 213.318037 
L 270.790105 229.554191 
L 279.891566 238.713785 
L 288.993027 237.791755 
L 298.094488 240.729208 
L 307.195949 239.355257 
L 316.29741 215.063056 
" clip-path="url(#p1870f08f69)" style="fill: none; stroke-dasharray: 1.5,2.475; stroke-dashoffset: 0; stroke: #ff7f0e; stroke-width: 1.5"/>
   </g>
   <g id="patch_28">
    <path d="M 220.73207 269.236 
L 220.73207 187.424 
" style="fill: none; stroke: #000000; stroke-width: 0.8; stroke-linejoin: miter; stroke-linecap: square"/>
   </g>
   <g id="patch_29">
    <path d="M 320.84814 269.236 
L 320.84814 187.424 
" style="fill: none; stroke: #000000; stroke-width: 0.8; stroke-linejoin: miter; stroke-linecap: square"/>
   </g>
   <g id="patch_30">
    <path d="M 220.73207 269.236 
L 320.84814 269.236 
" style="fill: none; stroke: #000000; stroke-width: 0.8; stroke-linejoin: miter; stroke-linecap: square"/>
   </g>
   <g id="patch_31">
    <path d="M 220.73207 187.424 
L 320.84814 187.424 
" style="fill: none; stroke: #000000; stroke-width: 0.8; stroke-linejoin: miter; stroke-linecap: square"/>
   </g>
   <g id="text_32">
    <!-- (f) -->
    <g transform="translate(190.697249 198.05956) scale(0.1 -0.1)">
     <defs>
      <path id="DejaVuSans-66" d="M 2375 4863 
L 2375 4384 
L 1825 4384 
Q 1516 4384 1395 4259 
Q 1275 4134 1275 3809 
L 1275 3500 
L 2222 3500 
L 2222 3053 
L 1275 3053 
L 1275 0 
L 697 0 
L 697 3053 
L 147 3053 
L 147 3500 
L 697 3500 
L 697 3744 
Q 697 4328 969 4595 
Q 1241 4863 1831 4863 
L 2375 4863 
z
" transform="scale(0.015625)"/>
     </defs>
     <use xlink:href="#DejaVuSans-28"/>
     <use xlink:href="#DejaVuSans-66" x="39.013672"/>
     <use xlink:href="#DejaVuSans-29" x="74.21875"/>
    </g>
   </g>
  </g>
  <g id="axes_7">
   <g id="patch_32">
    <path d="M 60.07 357.548 
L 160.18607 357.548 
L 160.18607 275.736 
L 60.07 275.736 
z
" style="fill: #ffffff"/>
   </g>
   <g id="PolyCollection_13">
    <defs>
     <path id="mac6d91b284" d="M 64.62073 -49.370727 
L 64.62073 -49.370727 
L 73.722191 -107.797238 
L 82.823652 -109.608898 
L 91.925113 -111.590469 
L 101.026574 -108.103599 
L 110.128035 -105.875971 
L 119.229496 -110.101742 
L 128.330957 -116.936565 
L 137.432418 -106.300496 
L 146.533879 -110.105337 
L 155.63534 -113.612498 
L 155.63534 -117.857006 
L 155.63534 -117.857006 
L 146.533879 -119.207831 
L 137.432418 -117.05819 
L 128.330957 -122.972967 
L 119.229496 -113.303764 
L 110.128035 -120.379406 
L 101.026574 -120.942529 
L 91.925113 -115.926844 
L 82.823652 -118.519477 
L 73.722191 -114.611774 
L 64.62073 -49.370727 
z
" style="stroke: #1f77b4; stroke-opacity: 0.2"/>
    </defs>
    <g clip-path="url(#p5151df12f0)">
     <use xlink:href="#mac6d91b284" x="0" y="403.2" style="fill: #1f77b4; fill-opacity: 0.2; stroke: #1f77b4; stroke-opacity: 0.2"/>
    </g>
   </g>
   <g id="PolyCollection_14">
    <defs>
     <path id="m226c1b9f82" d="M 64.62073 -49.370727 
L 64.62073 -49.370727 
L 73.722191 -109.889369 
L 82.823652 -107.527563 
L 91.925113 -112.500012 
L 101.026574 -112.547217 
L 110.128035 -110.998712 
L 119.229496 -111.446481 
L 128.330957 -111.571901 
L 137.432418 -109.952928 
L 146.533879 -110.690355 
L 155.63534 -110.509378 
L 155.63534 -116.131935 
L 155.63534 -116.131935 
L 146.533879 -116.846981 
L 137.432418 -121.480116 
L 128.330957 -116.250075 
L 119.229496 -120.96712 
L 110.128035 -116.22347 
L 101.026574 -118.686324 
L 91.925113 -120.034077 
L 82.823652 -116.840273 
L 73.722191 -123.745273 
L 64.62073 -49.370727 
z
" style="stroke: #ff7f0e; stroke-opacity: 0.2"/>
    </defs>
    <g clip-path="url(#p5151df12f0)">
     <use xlink:href="#m226c1b9f82" x="0" y="403.2" style="fill: #ff7f0e; fill-opacity: 0.2; stroke: #ff7f0e; stroke-opacity: 0.2"/>
    </g>
   </g>
   <g id="matplotlib.axis_13">
    <g id="xtick_19">
     <g id="line2d_51">
      <g>
       <use xlink:href="#m7333a1c4de" x="63.710584" y="357.548" style="stroke: #000000; stroke-width: 0.8"/>
      </g>
     </g>
     <g id="text_33">
      <!-- 0 -->
      <g transform="translate(60.529334 372.146437) scale(0.1 -0.1)">
       <use xlink:href="#DejaVuSans-30"/>
      </g>
     </g>
    </g>
    <g id="xtick_20">
     <g id="line2d_52">
      <g>
       <use xlink:href="#m7333a1c4de" x="109.217889" y="357.548" style="stroke: #000000; stroke-width: 0.8"/>
      </g>
     </g>
     <g id="text_34">
      <!-- 50 -->
      <g transform="translate(102.855389 372.146437) scale(0.1 -0.1)">
       <use xlink:href="#DejaVuSans-35"/>
       <use xlink:href="#DejaVuSans-30" x="63.623047"/>
      </g>
     </g>
    </g>
    <g id="xtick_21">
     <g id="line2d_53">
      <g>
       <use xlink:href="#m7333a1c4de" x="154.725194" y="357.548" style="stroke: #000000; stroke-width: 0.8"/>
      </g>
     </g>
     <g id="text_35">
      <!-- 100 -->
      <g transform="translate(145.181444 372.146437) scale(0.1 -0.1)">
       <use xlink:href="#DejaVuSans-31"/>
       <use xlink:href="#DejaVuSans-30" x="63.623047"/>
       <use xlink:href="#DejaVuSans-30" x="127.246094"/>
      </g>
     </g>
    </g>
    <g id="text_36">
     <!-- time (units of $\omega_\mathrm{r}^{-1}$) -->
     <g transform="translate(63.328035 384.726125) scale(0.1 -0.1)">
      <defs>
       <path id="DejaVuSans-74" d="M 1172 4494 
L 1172 3500 
L 2356 3500 
L 2356 3053 
L 1172 3053 
L 1172 1153 
Q 1172 725 1289 603 
Q 1406 481 1766 481 
L 2356 481 
L 2356 0 
L 1766 0 
Q 1100 0 847 248 
Q 594 497 594 1153 
L 594 3053 
L 172 3053 
L 172 3500 
L 594 3500 
L 594 4494 
L 1172 4494 
z
" transform="scale(0.015625)"/>
       <path id="DejaVuSans-6d" d="M 3328 2828 
Q 3544 3216 3844 3400 
Q 4144 3584 4550 3584 
Q 5097 3584 5394 3201 
Q 5691 2819 5691 2113 
L 5691 0 
L 5113 0 
L 5113 2094 
Q 5113 2597 4934 2840 
Q 4756 3084 4391 3084 
Q 3944 3084 3684 2787 
Q 3425 2491 3425 1978 
L 3425 0 
L 2847 0 
L 2847 2094 
Q 2847 2600 2669 2842 
Q 2491 3084 2119 3084 
Q 1678 3084 1418 2786 
Q 1159 2488 1159 1978 
L 1159 0 
L 581 0 
L 581 3500 
L 1159 3500 
L 1159 2956 
Q 1356 3278 1631 3431 
Q 1906 3584 2284 3584 
Q 2666 3584 2933 3390 
Q 3200 3197 3328 2828 
z
" transform="scale(0.015625)"/>
       <path id="DejaVuSans-20" transform="scale(0.015625)"/>
       <path id="DejaVuSans-75" d="M 544 1381 
L 544 3500 
L 1119 3500 
L 1119 1403 
Q 1119 906 1312 657 
Q 1506 409 1894 409 
Q 2359 409 2629 706 
Q 2900 1003 2900 1516 
L 2900 3500 
L 3475 3500 
L 3475 0 
L 2900 0 
L 2900 538 
Q 2691 219 2414 64 
Q 2138 -91 1772 -91 
Q 1169 -91 856 284 
Q 544 659 544 1381 
z
M 1991 3584 
L 1991 3584 
z
" transform="scale(0.015625)"/>
       <path id="DejaVuSans-6e" d="M 3513 2113 
L 3513 0 
L 2938 0 
L 2938 2094 
Q 2938 2591 2744 2837 
Q 2550 3084 2163 3084 
Q 1697 3084 1428 2787 
Q 1159 2491 1159 1978 
L 1159 0 
L 581 0 
L 581 3500 
L 1159 3500 
L 1159 2956 
Q 1366 3272 1645 3428 
Q 1925 3584 2291 3584 
Q 2894 3584 3203 3211 
Q 3513 2838 3513 2113 
z
" transform="scale(0.015625)"/>
       <path id="DejaVuSans-73" d="M 2834 3397 
L 2834 2853 
Q 2591 2978 2328 3040 
Q 2066 3103 1784 3103 
Q 1356 3103 1142 2972 
Q 928 2841 928 2578 
Q 928 2378 1081 2264 
Q 1234 2150 1697 2047 
L 1894 2003 
Q 2506 1872 2764 1633 
Q 3022 1394 3022 966 
Q 3022 478 2636 193 
Q 2250 -91 1575 -91 
Q 1294 -91 989 -36 
Q 684 19 347 128 
L 347 722 
Q 666 556 975 473 
Q 1284 391 1588 391 
Q 1994 391 2212 530 
Q 2431 669 2431 922 
Q 2431 1156 2273 1281 
Q 2116 1406 1581 1522 
L 1381 1569 
Q 847 1681 609 1914 
Q 372 2147 372 2553 
Q 372 3047 722 3315 
Q 1072 3584 1716 3584 
Q 2034 3584 2315 3537 
Q 2597 3491 2834 3397 
z
" transform="scale(0.015625)"/>
       <path id="DejaVuSans-6f" d="M 1959 3097 
Q 1497 3097 1228 2736 
Q 959 2375 959 1747 
Q 959 1119 1226 758 
Q 1494 397 1959 397 
Q 2419 397 2687 759 
Q 2956 1122 2956 1747 
Q 2956 2369 2687 2733 
Q 2419 3097 1959 3097 
z
M 1959 3584 
Q 2709 3584 3137 3096 
Q 3566 2609 3566 1747 
Q 3566 888 3137 398 
Q 2709 -91 1959 -91 
Q 1206 -91 779 398 
Q 353 888 353 1747 
Q 353 2609 779 3096 
Q 1206 3584 1959 3584 
z
" transform="scale(0.015625)"/>
       <path id="DejaVuSans-Oblique-3c9" d="M 1369 -91 
Q 72 -91 434 1766 
Q 575 2500 1256 3500 
L 1875 3500 
Q 1231 2500 1088 1750 
Q 819 397 1519 397 
Q 2166 397 2478 2078 
L 3009 2078 
Q 2669 388 3316 397 
Q 4013 403 4275 1750 
Q 4419 2500 4169 3500 
L 4788 3500 
Q 5075 2500 4934 1766 
Q 4578 -94 3278 -91 
Q 2428 -88 2503 844 
Q 2194 -91 1369 -91 
z
" transform="scale(0.015625)"/>
      </defs>
      <use xlink:href="#DejaVuSans-74" transform="translate(0 0.684375)"/>
      <use xlink:href="#DejaVuSans-69" transform="translate(39.208984 0.684375)"/>
      <use xlink:href="#DejaVuSans-6d" transform="translate(66.992188 0.684375)"/>
      <use xlink:href="#DejaVuSans-65" transform="translate(164.404297 0.684375)"/>
      <use xlink:href="#DejaVuSans-20" transform="translate(225.927734 0.684375)"/>
      <use xlink:href="#DejaVuSans-28" transform="translate(257.714844 0.684375)"/>
      <use xlink:href="#DejaVuSans-75" transform="translate(296.728516 0.684375)"/>
      <use xlink:href="#DejaVuSans-6e" transform="translate(360.107422 0.684375)"/>
      <use xlink:href="#DejaVuSans-69" transform="translate(423.486328 0.684375)"/>
      <use xlink:href="#DejaVuSans-74" transform="translate(451.269531 0.684375)"/>
      <use xlink:href="#DejaVuSans-73" transform="translate(490.478516 0.684375)"/>
      <use xlink:href="#DejaVuSans-20" transform="translate(542.578125 0.684375)"/>
      <use xlink:href="#DejaVuSans-6f" transform="translate(574.365234 0.684375)"/>
      <use xlink:href="#DejaVuSans-66" transform="translate(635.546875 0.684375)"/>
      <use xlink:href="#DejaVuSans-20" transform="translate(670.751953 0.684375)"/>
      <use xlink:href="#DejaVuSans-Oblique-3c9" transform="translate(702.539062 0.684375)"/>
      <use xlink:href="#DejaVuSans-2212" transform="translate(790.745443 38.965625) scale(0.7)"/>
      <use xlink:href="#DejaVuSans-31" transform="translate(849.397786 38.965625) scale(0.7)"/>
      <use xlink:href="#DejaVuSans-72" transform="translate(786.279297 -26.659375) scale(0.7)"/>
      <use xlink:href="#DejaVuSans-29" transform="translate(896.668294 0.684375)"/>
     </g>
    </g>
   </g>
   <g id="matplotlib.axis_14">
    <g id="ytick_21">
     <g id="line2d_54">
      <g>
       <use xlink:href="#m650e8a680d" x="60.07" y="353.829273" style="stroke: #000000; stroke-width: 0.8"/>
      </g>
     </g>
     <g id="text_37">
      <!-- −1.0 -->
      <g transform="translate(28.787187 357.628491) scale(0.1 -0.1)">
       <use xlink:href="#DejaVuSans-2212"/>
       <use xlink:href="#DejaVuSans-31" x="83.789062"/>
       <use xlink:href="#DejaVuSans-2e" x="147.412109"/>
       <use xlink:href="#DejaVuSans-30" x="179.199219"/>
      </g>
     </g>
    </g>
    <g id="ytick_22">
     <g id="line2d_55">
      <g>
       <use xlink:href="#m650e8a680d" x="60.07" y="320.951926" style="stroke: #000000; stroke-width: 0.8"/>
      </g>
     </g>
     <g id="text_38">
      <!-- −0.5 -->
      <g transform="translate(28.787187 324.751145) scale(0.1 -0.1)">
       <use xlink:href="#DejaVuSans-2212"/>
       <use xlink:href="#DejaVuSans-30" x="83.789062"/>
       <use xlink:href="#DejaVuSans-2e" x="147.412109"/>
       <use xlink:href="#DejaVuSans-35" x="179.199219"/>
      </g>
     </g>
    </g>
    <g id="ytick_23">
     <g id="line2d_56">
      <g>
       <use xlink:href="#m650e8a680d" x="60.07" y="288.07458" style="stroke: #000000; stroke-width: 0.8"/>
      </g>
     </g>
     <g id="text_39">
      <!-- 0.0 -->
      <g transform="translate(37.166875 291.873798) scale(0.1 -0.1)">
       <use xlink:href="#DejaVuSans-30"/>
       <use xlink:href="#DejaVuSans-2e" x="63.623047"/>
       <use xlink:href="#DejaVuSans-30" x="95.410156"/>
      </g>
     </g>
    </g>
    <g id="text_40">
     <!-- $\langle \hat J_z \rangle$ -->
     <g transform="translate(25.187188 324.742) rotate(-90) scale(0.1 -0.1)">
      <defs>
       <path id="DejaVuSans-Oblique-7a" d="M 744 3500 
L 3475 3500 
L 3372 2975 
L 738 459 
L 2913 459 
L 2822 0 
L -19 0 
L 84 525 
L 2719 3041 
L 653 3041 
L 744 3500 
z
" transform="scale(0.015625)"/>
      </defs>
      <use xlink:href="#DejaVuSans-27e8" transform="translate(0 0.609375)"/>
      <use xlink:href="#DejaVuSans-302" transform="translate(91.345703 30.015625)"/>
      <use xlink:href="#DejaVuSans-Oblique-4a" transform="translate(39.013672 0.609375)"/>
      <use xlink:href="#DejaVuSans-Oblique-7a" transform="translate(82.986328 -15.796875) scale(0.7)"/>
      <use xlink:href="#DejaVuSans-27e9" transform="translate(122.463867 0.609375)"/>
     </g>
    </g>
   </g>
   <g id="line2d_57">
    <path d="M 64.62073 353.829273 
L 73.722191 292.162998 
L 82.823652 289.535169 
L 91.925113 289.662386 
L 101.026574 288.940381 
L 110.128035 290.331699 
L 119.229496 291.140568 
L 128.330957 283.377798 
L 137.432418 290.88551 
L 146.533879 288.887121 
L 155.63534 287.481165 
" clip-path="url(#p5151df12f0)" style="fill: none; stroke: #1f77b4; stroke-width: 1.5; stroke-linecap: square"/>
   </g>
   <g id="line2d_58">
    <path d="M 64.62073 353.829273 
L 73.722191 287.598756 
L 82.823652 290.947634 
L 91.925113 287.538184 
L 101.026574 288.325711 
L 110.128035 289.186166 
L 119.229496 288.686355 
L 128.330957 289.165787 
L 137.432418 288.66145 
L 146.533879 289.619124 
L 155.63534 289.470561 
" clip-path="url(#p5151df12f0)" style="fill: none; stroke-dasharray: 1.5,2.475; stroke-dashoffset: 0; stroke: #ff7f0e; stroke-width: 1.5"/>
   </g>
   <g id="patch_33">
    <path d="M 60.07 357.548 
L 60.07 275.736 
" style="fill: none; stroke: #000000; stroke-width: 0.8; stroke-linejoin: miter; stroke-linecap: square"/>
   </g>
   <g id="patch_34">
    <path d="M 160.18607 357.548 
L 160.18607 275.736 
" style="fill: none; stroke: #000000; stroke-width: 0.8; stroke-linejoin: miter; stroke-linecap: square"/>
   </g>
   <g id="patch_35">
    <path d="M 60.07 357.548 
L 160.18607 357.548 
" style="fill: none; stroke: #000000; stroke-width: 0.8; stroke-linejoin: miter; stroke-linecap: square"/>
   </g>
   <g id="patch_36">
    <path d="M 60.07 275.736 
L 160.18607 275.736 
" style="fill: none; stroke: #000000; stroke-width: 0.8; stroke-linejoin: miter; stroke-linecap: square"/>
   </g>
   <g id="text_41">
    <!-- (g) -->
    <g transform="translate(30.035179 286.37156) scale(0.1 -0.1)">
     <defs>
      <path id="DejaVuSans-67" d="M 2906 1791 
Q 2906 2416 2648 2759 
Q 2391 3103 1925 3103 
Q 1463 3103 1205 2759 
Q 947 2416 947 1791 
Q 947 1169 1205 825 
Q 1463 481 1925 481 
Q 2391 481 2648 825 
Q 2906 1169 2906 1791 
z
M 3481 434 
Q 3481 -459 3084 -895 
Q 2688 -1331 1869 -1331 
Q 1566 -1331 1297 -1286 
Q 1028 -1241 775 -1147 
L 775 -588 
Q 1028 -725 1275 -790 
Q 1522 -856 1778 -856 
Q 2344 -856 2625 -561 
Q 2906 -266 2906 331 
L 2906 616 
Q 2728 306 2450 153 
Q 2172 0 1784 0 
Q 1141 0 747 490 
Q 353 981 353 1791 
Q 353 2603 747 3093 
Q 1141 3584 1784 3584 
Q 2172 3584 2450 3431 
Q 2728 3278 2906 2969 
L 2906 3500 
L 3481 3500 
L 3481 434 
z
" transform="scale(0.015625)"/>
     </defs>
     <use xlink:href="#DejaVuSans-28"/>
     <use xlink:href="#DejaVuSans-67" x="39.013672"/>
     <use xlink:href="#DejaVuSans-29" x="102.490234"/>
    </g>
   </g>
  </g>
  <g id="axes_8">
   <g id="patch_37">
    <path d="M 220.73207 357.548 
L 320.84814 357.548 
L 320.84814 275.736 
L 220.73207 275.736 
z
" style="fill: #ffffff"/>
   </g>
   <g id="PolyCollection_15">
    <defs>
     <path id="mdbb43a9f79" d="M 225.282801 -81.544008 
L 225.282801 -60.068715 
L 234.384262 -64.533299 
L 243.485723 -58.200904 
L 252.587184 -64.456949 
L 261.688644 -52.832786 
L 270.790105 -51.541946 
L 279.891566 -62.741051 
L 288.993027 -65.61022 
L 298.094488 -62.65081 
L 307.195949 -56.9791 
L 316.29741 -65.000211 
L 316.29741 -103.036004 
L 316.29741 -103.036004 
L 307.195949 -94.844205 
L 298.094488 -95.604137 
L 288.993027 -85.015958 
L 279.891566 -97.746476 
L 270.790105 -106.666323 
L 261.688644 -94.783775 
L 252.587184 -88.740739 
L 243.485723 -81.624832 
L 234.384262 -91.786894 
L 225.282801 -81.544008 
z
" style="stroke: #1f77b4; stroke-opacity: 0.2"/>
    </defs>
    <g clip-path="url(#p1d66cf7dce)">
     <use xlink:href="#mdbb43a9f79" x="0" y="403.2" style="fill: #1f77b4; fill-opacity: 0.2; stroke: #1f77b4; stroke-opacity: 0.2"/>
    </g>
   </g>
   <g id="PolyCollection_16">
    <defs>
     <path id="ma1d9e5cf94" d="M 225.282801 -87.307954 
L 225.282801 -68.128092 
L 234.384262 -74.999738 
L 243.485723 -71.517841 
L 252.587184 -49.370727 
L 261.688644 -72.277527 
L 270.790105 -71.105538 
L 279.891566 -61.903939 
L 288.993027 -56.206094 
L 298.094488 -71.877616 
L 307.195949 -67.779382 
L 316.29741 -58.352599 
L 316.29741 -107.207335 
L 316.29741 -107.207335 
L 307.195949 -103.175854 
L 298.094488 -123.745273 
L 288.993027 -95.794772 
L 279.891566 -90.328898 
L 270.790105 -88.814217 
L 261.688644 -103.738425 
L 252.587184 -75.886887 
L 243.485723 -97.480838 
L 234.384262 -105.715068 
L 225.282801 -87.307954 
z
" style="stroke: #ff7f0e; stroke-opacity: 0.2"/>
    </defs>
    <g clip-path="url(#p1d66cf7dce)">
     <use xlink:href="#ma1d9e5cf94" x="0" y="403.2" style="fill: #ff7f0e; fill-opacity: 0.2; stroke: #ff7f0e; stroke-opacity: 0.2"/>
    </g>
   </g>
   <g id="matplotlib.axis_15">
    <g id="xtick_22">
     <g id="line2d_59">
      <g>
       <use xlink:href="#m7333a1c4de" x="224.372655" y="357.548" style="stroke: #000000; stroke-width: 0.8"/>
      </g>
     </g>
     <g id="text_42">
      <!-- 0 -->
      <g transform="translate(221.191405 372.146437) scale(0.1 -0.1)">
       <use xlink:href="#DejaVuSans-30"/>
      </g>
     </g>
    </g>
    <g id="xtick_23">
     <g id="line2d_60">
      <g>
       <use xlink:href="#m7333a1c4de" x="269.879959" y="357.548" style="stroke: #000000; stroke-width: 0.8"/>
      </g>
     </g>
     <g id="text_43">
      <!-- 50 -->
      <g transform="translate(263.517459 372.146437) scale(0.1 -0.1)">
       <use xlink:href="#DejaVuSans-35"/>
       <use xlink:href="#DejaVuSans-30" x="63.623047"/>
      </g>
     </g>
    </g>
    <g id="xtick_24">
     <g id="line2d_61">
      <g>
       <use xlink:href="#m7333a1c4de" x="315.387264" y="357.548" style="stroke: #000000; stroke-width: 0.8"/>
      </g>
     </g>
     <g id="text_44">
      <!-- 100 -->
      <g transform="translate(305.843514 372.146437) scale(0.1 -0.1)">
       <use xlink:href="#DejaVuSans-31"/>
       <use xlink:href="#DejaVuSans-30" x="63.623047"/>
       <use xlink:href="#DejaVuSans-30" x="127.246094"/>
      </g>
     </g>
    </g>
    <g id="text_45">
     <!-- time (units of $\omega_\mathrm{r}^{-1}$) -->
     <g transform="translate(223.990105 384.726125) scale(0.1 -0.1)">
      <use xlink:href="#DejaVuSans-74" transform="translate(0 0.684375)"/>
      <use xlink:href="#DejaVuSans-69" transform="translate(39.208984 0.684375)"/>
      <use xlink:href="#DejaVuSans-6d" transform="translate(66.992188 0.684375)"/>
      <use xlink:href="#DejaVuSans-65" transform="translate(164.404297 0.684375)"/>
      <use xlink:href="#DejaVuSans-20" transform="translate(225.927734 0.684375)"/>
      <use xlink:href="#DejaVuSans-28" transform="translate(257.714844 0.684375)"/>
      <use xlink:href="#DejaVuSans-75" transform="translate(296.728516 0.684375)"/>
      <use xlink:href="#DejaVuSans-6e" transform="translate(360.107422 0.684375)"/>
      <use xlink:href="#DejaVuSans-69" transform="translate(423.486328 0.684375)"/>
      <use xlink:href="#DejaVuSans-74" transform="translate(451.269531 0.684375)"/>
      <use xlink:href="#DejaVuSans-73" transform="translate(490.478516 0.684375)"/>
      <use xlink:href="#DejaVuSans-20" transform="translate(542.578125 0.684375)"/>
      <use xlink:href="#DejaVuSans-6f" transform="translate(574.365234 0.684375)"/>
      <use xlink:href="#DejaVuSans-66" transform="translate(635.546875 0.684375)"/>
      <use xlink:href="#DejaVuSans-20" transform="translate(670.751953 0.684375)"/>
      <use xlink:href="#DejaVuSans-Oblique-3c9" transform="translate(702.539062 0.684375)"/>
      <use xlink:href="#DejaVuSans-2212" transform="translate(790.745443 38.965625) scale(0.7)"/>
      <use xlink:href="#DejaVuSans-31" transform="translate(849.397786 38.965625) scale(0.7)"/>
      <use xlink:href="#DejaVuSans-72" transform="translate(786.279297 -26.659375) scale(0.7)"/>
      <use xlink:href="#DejaVuSans-29" transform="translate(896.668294 0.684375)"/>
     </g>
    </g>
   </g>
   <g id="matplotlib.axis_16">
    <g id="ytick_24">
     <g id="line2d_62">
      <g>
       <use xlink:href="#m650e8a680d" x="220.73207" y="328.265809" style="stroke: #000000; stroke-width: 0.8"/>
      </g>
     </g>
     <g id="text_46">
      <!-- 0.5 -->
      <g transform="translate(197.828945 332.065028) scale(0.1 -0.1)">
       <use xlink:href="#DejaVuSans-30"/>
       <use xlink:href="#DejaVuSans-2e" x="63.623047"/>
       <use xlink:href="#DejaVuSans-35" x="95.410156"/>
      </g>
     </g>
    </g>
    <g id="ytick_25">
     <g id="line2d_63">
      <g>
       <use xlink:href="#m650e8a680d" x="220.73207" y="297.446331" style="stroke: #000000; stroke-width: 0.8"/>
      </g>
     </g>
     <g id="text_47">
      <!-- 0.6 -->
      <g transform="translate(197.828945 301.245549) scale(0.1 -0.1)">
       <defs>
        <path id="DejaVuSans-36" d="M 2113 2584 
Q 1688 2584 1439 2293 
Q 1191 2003 1191 1497 
Q 1191 994 1439 701 
Q 1688 409 2113 409 
Q 2538 409 2786 701 
Q 3034 994 3034 1497 
Q 3034 2003 2786 2293 
Q 2538 2584 2113 2584 
z
M 3366 4563 
L 3366 3988 
Q 3128 4100 2886 4159 
Q 2644 4219 2406 4219 
Q 1781 4219 1451 3797 
Q 1122 3375 1075 2522 
Q 1259 2794 1537 2939 
Q 1816 3084 2150 3084 
Q 2853 3084 3261 2657 
Q 3669 2231 3669 1497 
Q 3669 778 3244 343 
Q 2819 -91 2113 -91 
Q 1303 -91 875 529 
Q 447 1150 447 2328 
Q 447 3434 972 4092 
Q 1497 4750 2381 4750 
Q 2619 4750 2861 4703 
Q 3103 4656 3366 4563 
z
" transform="scale(0.015625)"/>
       </defs>
       <use xlink:href="#DejaVuSans-30"/>
       <use xlink:href="#DejaVuSans-2e" x="63.623047"/>
       <use xlink:href="#DejaVuSans-36" x="95.410156"/>
      </g>
     </g>
    </g>
    <g id="text_48">
     <!-- $\mathcal{B}$ -->
     <g transform="translate(194.249258 320.292) rotate(-90) scale(0.1 -0.1)">
      <defs>
       <path id="STIXNonUnicode-Italic-e22e" d="M 2080 3341 
L 2099 3328 
Q 2810 4288 3853 4288 
Q 4154 4288 4346 4102 
Q 4538 3917 4538 3622 
Q 4538 3213 4173 2893 
Q 3808 2573 3430 2451 
Q 3866 2406 4144 2169 
Q 4422 1933 4422 1485 
Q 4422 1152 4211 857 
Q 4000 563 3677 377 
Q 3354 192 2986 86 
Q 2618 -19 2291 -19 
Q 1792 -19 1517 186 
L 1587 326 
Q 1843 198 2272 198 
Q 2854 198 3296 595 
Q 3738 992 3738 1478 
Q 3738 1798 3459 2003 
Q 3181 2208 2630 2208 
L 2208 2208 
L 2278 2451 
L 2400 2451 
Q 2611 2451 2867 2508 
Q 3123 2566 3385 2681 
Q 3648 2797 3824 3008 
Q 4000 3219 4000 3482 
Q 4000 3987 3456 3987 
Q 3245 3987 3008 3865 
Q 2771 3744 2624 3590 
Q 2349 3315 2144 2908 
Q 1939 2502 1715 1728 
L 1478 909 
Q 1344 448 1193 253 
Q 1043 58 666 13 
Q 544 0 224 0 
L 282 154 
Q 474 154 576 333 
Q 678 512 870 1190 
L 1536 3514 
Q 1555 3571 1555 3667 
Q 1555 3859 1286 3859 
L 1146 3859 
L 1171 4013 
Q 1875 4077 2355 4237 
L 2080 3341 
z
" transform="scale(0.015625)"/>
      </defs>
      <use xlink:href="#STIXNonUnicode-Italic-e22e"/>
     </g>
    </g>
   </g>
   <g id="line2d_64">
    <path d="M 225.282801 335.057558 
L 234.384262 324.775782 
L 243.485723 332.012888 
L 252.587184 326.282215 
L 261.688644 331.833201 
L 270.790105 322.296362 
L 279.891566 325.689874 
L 288.993027 326.946219 
L 298.094488 330.101611 
L 307.195949 327.048445 
L 316.29741 324.484448 
" clip-path="url(#p1d66cf7dce)" style="fill: none; stroke: #1f77b4; stroke-width: 1.5; stroke-linecap: square"/>
   </g>
   <g id="line2d_65">
    <path d="M 225.282801 326.223236 
L 234.384262 316.50175 
L 243.485723 318.296118 
L 252.587184 341.109641 
L 261.688644 311.049406 
L 270.790105 323.643551 
L 279.891566 326.442729 
L 288.993027 326.933063 
L 298.094488 315.012863 
L 307.195949 317.862037 
L 316.29741 324.327773 
" clip-path="url(#p1d66cf7dce)" style="fill: none; stroke-dasharray: 1.5,2.475; stroke-dashoffset: 0; stroke: #ff7f0e; stroke-width: 1.5"/>
   </g>
   <g id="patch_38">
    <path d="M 220.73207 357.548 
L 220.73207 275.736 
" style="fill: none; stroke: #000000; stroke-width: 0.8; stroke-linejoin: miter; stroke-linecap: square"/>
   </g>
   <g id="patch_39">
    <path d="M 320.84814 357.548 
L 320.84814 275.736 
" style="fill: none; stroke: #000000; stroke-width: 0.8; stroke-linejoin: miter; stroke-linecap: square"/>
   </g>
   <g id="patch_40">
    <path d="M 220.73207 357.548 
L 320.84814 357.548 
" style="fill: none; stroke: #000000; stroke-width: 0.8; stroke-linejoin: miter; stroke-linecap: square"/>
   </g>
   <g id="patch_41">
    <path d="M 220.73207 275.736 
L 320.84814 275.736 
" style="fill: none; stroke: #000000; stroke-width: 0.8; stroke-linejoin: miter; stroke-linecap: square"/>
   </g>
   <g id="text_49">
    <!-- (h) -->
    <g transform="translate(190.697249 286.37156) scale(0.1 -0.1)">
     <defs>
      <path id="DejaVuSans-68" d="M 3513 2113 
L 3513 0 
L 2938 0 
L 2938 2094 
Q 2938 2591 2744 2837 
Q 2550 3084 2163 3084 
Q 1697 3084 1428 2787 
Q 1159 2491 1159 1978 
L 1159 0 
L 581 0 
L 581 4863 
L 1159 4863 
L 1159 2956 
Q 1366 3272 1645 3428 
Q 1925 3584 2291 3584 
Q 2894 3584 3203 3211 
Q 3513 2838 3513 2113 
z
" transform="scale(0.015625)"/>
     </defs>
     <use xlink:href="#DejaVuSans-28"/>
     <use xlink:href="#DejaVuSans-68" x="39.013672"/>
     <use xlink:href="#DejaVuSans-29" x="102.392578"/>
    </g>
   </g>
  </g>
 </g>
 <defs>
  <clipPath id="p53d541e2cf">
   <rect x="60.07" y="10.8" width="100.11607" height="81.812"/>
  </clipPath>
  <clipPath id="pe7287194f5">
   <rect x="220.73207" y="10.8" width="100.11607" height="81.812"/>
  </clipPath>
  <clipPath id="p3cb5be7a26">
   <rect x="60.07" y="99.112" width="100.11607" height="81.812"/>
  </clipPath>
  <clipPath id="pf9262d10b1">
   <rect x="220.73207" y="99.112" width="100.11607" height="81.812"/>
  </clipPath>
  <clipPath id="p0a29bd3d47">
   <rect x="60.07" y="187.424" width="100.11607" height="81.812"/>
  </clipPath>
  <clipPath id="p1870f08f69">
   <rect x="220.73207" y="187.424" width="100.11607" height="81.812"/>
  </clipPath>
  <clipPath id="p5151df12f0">
   <rect x="60.07" y="275.736" width="100.11607" height="81.812"/>
  </clipPath>
  <clipPath id="p1d66cf7dce">
   <rect x="220.73207" y="275.736" width="100.11607" height="81.812"/>
  </clipPath>
 </defs>
</svg>
