<?xml version="1.0" encoding="utf-8" standalone="no"?>
<!DOCTYPE svg PUBLIC "-//W3C//DTD SVG 1.1//EN"
  "http://www.w3.org/Graphics/SVG/1.1/DTD/svg11.dtd">
<svg xmlns:xlink="http://www.w3.org/1999/xlink" width="334.8pt" height="403.2pt" viewBox="0 0 334.8 403.2" xmlns="http://www.w3.org/2000/svg" version="1.1">
 <metadata>
  <rdf:RDF xmlns:dc="http://purl.org/dc/elements/1.1/" xmlns:cc="http://creativecommons.org/ns#" xmlns:rdf="http://www.w3.org/1999/02/22-rdf-syntax-ns#">
   <cc:Work>
    <dc:type rdf:resource="http://purl.org/dc/dcmitype/StillImage"/>
    <dc:date>2023-11-07T12:57:33.535451</dc:date>
    <dc:format>image/svg+xml</dc:format>
    <dc:creator>
     <cc:Agent>
      <dc:title>Matplotlib v3.7.1, https://matplotlib.org/</dc:title>
     </cc:Agent>
    </dc:creator>
   </cc:Work>
  </rdf:RDF>
 </metadata>
 <defs>
  <style type="text/css">*{stroke-linejoin: round; stroke-linecap: butt}</style>
 </defs>
 <g id="figure_1">
  <g id="patch_1">
   <path d="M 0 403.2 
L 334.8 403.2 
L 334.8 0 
L 0 0 
z
" style="fill: #ffffff"/>
  </g>
  <g id="axes_1">
   <g id="patch_2">
    <path d="M 59.61 92.343901 
L 159.95607 92.343901 
L 159.95607 10.8 
L 59.61 10.8 
z
" style="fill: #ffffff"/>
   </g>
   <g id="PolyCollection_1">
    <defs>
     <path id="m570adb3c0c" d="M 64.171185 -360.954537 
L 64.171185 -357.518694 
L 73.293555 -349.018526 
L 82.415925 -359.204326 
L 91.538295 -357.184687 
L 100.660665 -360.187067 
L 109.783035 -337.369693 
L 118.905405 -352.203686 
L 128.027775 -345.759819 
L 137.150145 -352.839658 
L 146.272515 -339.820526 
L 155.394885 -334.933267 
L 155.394885 -351.891981 
L 155.394885 -351.891981 
L 146.272515 -373.069784 
L 137.150145 -383.625924 
L 128.027775 -363.456661 
L 118.905405 -364.158182 
L 109.783035 -369.197562 
L 100.660665 -363.15759 
L 91.538295 -371.954103 
L 82.415925 -368.204765 
L 73.293555 -361.861162 
L 64.171185 -360.954537 
z
" style="stroke: #1f77b4; stroke-opacity: 0.2"/>
    </defs>
    <g clip-path="url(#p30d54194f2)">
     <use xlink:href="#m570adb3c0c" x="0" y="403.2" style="fill: #1f77b4; fill-opacity: 0.2; stroke: #1f77b4; stroke-opacity: 0.2"/>
    </g>
   </g>
   <g id="PolyCollection_2">
    <defs>
     <path id="maf176b4a82" d="M 64.171185 -361.493553 
L 64.171185 -357.47588 
L 73.293555 -314.56264 
L 82.415925 -318.338438 
L 91.538295 -318.40547 
L 100.660665 -340.896259 
L 109.783035 -347.994659 
L 118.905405 -335.129723 
L 128.027775 -333.849733 
L 137.150145 -351.573958 
L 146.272515 -349.578152 
L 155.394885 -360.846983 
L 155.394885 -381.010788 
L 155.394885 -381.010788 
L 146.272515 -373.424941 
L 137.150145 -388.693459 
L 128.027775 -373.502484 
L 118.905405 -381.847436 
L 109.783035 -370.176684 
L 100.660665 -384.387235 
L 91.538295 -365.811868 
L 82.415925 -369.069859 
L 73.293555 -370.511345 
L 64.171185 -361.493553 
z
" style="stroke: #ff7f0e; stroke-opacity: 0.2"/>
    </defs>
    <g clip-path="url(#p30d54194f2)">
     <use xlink:href="#maf176b4a82" x="0" y="403.2" style="fill: #ff7f0e; fill-opacity: 0.2; stroke: #ff7f0e; stroke-opacity: 0.2"/>
    </g>
   </g>
   <g id="matplotlib.axis_1">
    <g id="xtick_1">
     <g id="line2d_1">
      <defs>
       <path id="m99f11d7101" d="M 0 0 
L 0 3.5 
" style="stroke: #000000; stroke-width: 0.8"/>
      </defs>
      <g>
       <use xlink:href="#m99f11d7101" x="63.258948" y="92.343901" style="stroke: #000000; stroke-width: 0.8"/>
      </g>
     </g>
    </g>
    <g id="xtick_2">
     <g id="line2d_2">
      <g>
       <use xlink:href="#m99f11d7101" x="108.870798" y="92.343901" style="stroke: #000000; stroke-width: 0.8"/>
      </g>
     </g>
    </g>
    <g id="xtick_3">
     <g id="line2d_3">
      <g>
       <use xlink:href="#m99f11d7101" x="154.482648" y="92.343901" style="stroke: #000000; stroke-width: 0.8"/>
      </g>
     </g>
    </g>
   </g>
   <g id="matplotlib.axis_2">
    <g id="ytick_1">
     <g id="line2d_4">
      <defs>
       <path id="mf9e9ea7450" d="M 0 0 
L -3.5 0 
" style="stroke: #000000; stroke-width: 0.8"/>
      </defs>
      <g>
       <use xlink:href="#mf9e9ea7450" x="59.61" y="72.93958" style="stroke: #000000; stroke-width: 0.8"/>
      </g>
     </g>
     <g id="text_1">
      <!-- −0.1 -->
      <g transform="translate(28.327187 76.738799) scale(0.1 -0.1)">
       <defs>
        <path id="DejaVuSans-2212" d="M 678 2272 
L 4684 2272 
L 4684 1741 
L 678 1741 
L 678 2272 
z
" transform="scale(0.015625)"/>
        <path id="DejaVuSans-30" d="M 2034 4250 
Q 1547 4250 1301 3770 
Q 1056 3291 1056 2328 
Q 1056 1369 1301 889 
Q 1547 409 2034 409 
Q 2525 409 2770 889 
Q 3016 1369 3016 2328 
Q 3016 3291 2770 3770 
Q 2525 4250 2034 4250 
z
M 2034 4750 
Q 2819 4750 3233 4129 
Q 3647 3509 3647 2328 
Q 3647 1150 3233 529 
Q 2819 -91 2034 -91 
Q 1250 -91 836 529 
Q 422 1150 422 2328 
Q 422 3509 836 4129 
Q 1250 4750 2034 4750 
z
" transform="scale(0.015625)"/>
        <path id="DejaVuSans-2e" d="M 684 794 
L 1344 794 
L 1344 0 
L 684 0 
L 684 794 
z
" transform="scale(0.015625)"/>
        <path id="DejaVuSans-31" d="M 794 531 
L 1825 531 
L 1825 4091 
L 703 3866 
L 703 4441 
L 1819 4666 
L 2450 4666 
L 2450 531 
L 3481 531 
L 3481 0 
L 794 0 
L 794 531 
z
" transform="scale(0.015625)"/>
       </defs>
       <use xlink:href="#DejaVuSans-2212"/>
       <use xlink:href="#DejaVuSans-30" x="83.789062"/>
       <use xlink:href="#DejaVuSans-2e" x="147.412109"/>
       <use xlink:href="#DejaVuSans-31" x="179.199219"/>
      </g>
     </g>
    </g>
    <g id="ytick_2">
     <g id="line2d_5">
      <g>
       <use xlink:href="#mf9e9ea7450" x="59.61" y="44.59037" style="stroke: #000000; stroke-width: 0.8"/>
      </g>
     </g>
     <g id="text_2">
      <!-- 0.0 -->
      <g transform="translate(36.706875 48.389589) scale(0.1 -0.1)">
       <use xlink:href="#DejaVuSans-30"/>
       <use xlink:href="#DejaVuSans-2e" x="63.623047"/>
       <use xlink:href="#DejaVuSans-30" x="95.410156"/>
      </g>
     </g>
    </g>
    <g id="ytick_3">
     <g id="line2d_6">
      <g>
       <use xlink:href="#mf9e9ea7450" x="59.61" y="16.241159" style="stroke: #000000; stroke-width: 0.8"/>
      </g>
     </g>
     <g id="text_3">
      <!-- 0.1 -->
      <g transform="translate(36.706875 20.040378) scale(0.1 -0.1)">
       <use xlink:href="#DejaVuSans-30"/>
       <use xlink:href="#DejaVuSans-2e" x="63.623047"/>
       <use xlink:href="#DejaVuSans-31" x="95.410156"/>
      </g>
     </g>
    </g>
    <g id="text_4">
     <!-- $X$ -->
     <g transform="translate(24.7475 55.021951) rotate(-90) scale(0.1 -0.1)">
      <defs>
       <path id="DejaVuSans-Oblique-58" d="M 878 4666 
L 1516 4666 
L 2316 2981 
L 3763 4666 
L 4500 4666 
L 2578 2438 
L 3738 0 
L 3103 0 
L 2163 1966 
L 459 0 
L -275 0 
L 1906 2509 
L 878 4666 
z
" transform="scale(0.015625)"/>
      </defs>
      <use xlink:href="#DejaVuSans-Oblique-58" transform="translate(0 0.09375)"/>
     </g>
    </g>
   </g>
   <g id="line2d_7">
    <path d="M 64.171185 44.157358 
L 73.293555 47.69111 
L 82.415925 38.926143 
L 91.538295 37.91424 
L 100.660665 41.870008 
L 109.783035 50.72748 
L 118.905405 46.77827 
L 128.027775 48.39731 
L 137.150145 35.142376 
L 146.272515 46.263548 
L 155.394885 60.613966 
" clip-path="url(#p30d54194f2)" style="fill: none; stroke: #1f77b4; stroke-width: 1.5; stroke-linecap: square"/>
   </g>
   <g id="line2d_8">
    <path d="M 64.171185 44.026676 
L 73.293555 56.821291 
L 82.415925 53.246664 
L 91.538295 55.055073 
L 100.660665 37.827107 
L 109.783035 48.600296 
L 118.905405 40.4168 
L 128.027775 47.535432 
L 137.150145 32.800943 
L 146.272515 40.653114 
L 155.394885 35.836444 
" clip-path="url(#p30d54194f2)" style="fill: none; stroke-dasharray: 1.5,2.475; stroke-dashoffset: 0; stroke: #ff7f0e; stroke-width: 1.5"/>
   </g>
   <g id="patch_3">
    <path d="M 59.61 92.343901 
L 59.61 10.8 
" style="fill: none; stroke: #000000; stroke-width: 0.8; stroke-linejoin: miter; stroke-linecap: square"/>
   </g>
   <g id="patch_4">
    <path d="M 159.95607 92.343901 
L 159.95607 10.8 
" style="fill: none; stroke: #000000; stroke-width: 0.8; stroke-linejoin: miter; stroke-linecap: square"/>
   </g>
   <g id="patch_5">
    <path d="M 59.61 92.343901 
L 159.95607 92.343901 
" style="fill: none; stroke: #000000; stroke-width: 0.8; stroke-linejoin: miter; stroke-linecap: square"/>
   </g>
   <g id="patch_6">
    <path d="M 59.61 10.8 
L 159.95607 10.8 
" style="fill: none; stroke: #000000; stroke-width: 0.8; stroke-linejoin: miter; stroke-linecap: square"/>
   </g>
   <g id="text_5">
    <!-- (a) -->
    <g transform="translate(29.506179 21.400707) scale(0.1 -0.1)">
     <defs>
      <path id="DejaVuSans-28" d="M 1984 4856 
Q 1566 4138 1362 3434 
Q 1159 2731 1159 2009 
Q 1159 1288 1364 580 
Q 1569 -128 1984 -844 
L 1484 -844 
Q 1016 -109 783 600 
Q 550 1309 550 2009 
Q 550 2706 781 3412 
Q 1013 4119 1484 4856 
L 1984 4856 
z
" transform="scale(0.015625)"/>
      <path id="DejaVuSans-61" d="M 2194 1759 
Q 1497 1759 1228 1600 
Q 959 1441 959 1056 
Q 959 750 1161 570 
Q 1363 391 1709 391 
Q 2188 391 2477 730 
Q 2766 1069 2766 1631 
L 2766 1759 
L 2194 1759 
z
M 3341 1997 
L 3341 0 
L 2766 0 
L 2766 531 
Q 2569 213 2275 61 
Q 1981 -91 1556 -91 
Q 1019 -91 701 211 
Q 384 513 384 1019 
Q 384 1609 779 1909 
Q 1175 2209 1959 2209 
L 2766 2209 
L 2766 2266 
Q 2766 2663 2505 2880 
Q 2244 3097 1772 3097 
Q 1472 3097 1187 3025 
Q 903 2953 641 2809 
L 641 3341 
Q 956 3463 1253 3523 
Q 1550 3584 1831 3584 
Q 2591 3584 2966 3190 
Q 3341 2797 3341 1997 
z
" transform="scale(0.015625)"/>
      <path id="DejaVuSans-29" d="M 513 4856 
L 1013 4856 
Q 1481 4119 1714 3412 
Q 1947 2706 1947 2009 
Q 1947 1309 1714 600 
Q 1481 -109 1013 -844 
L 513 -844 
Q 928 -128 1133 580 
Q 1338 1288 1338 2009 
Q 1338 2731 1133 3434 
Q 928 4138 513 4856 
z
" transform="scale(0.015625)"/>
     </defs>
     <use xlink:href="#DejaVuSans-28"/>
     <use xlink:href="#DejaVuSans-61" x="39.013672"/>
     <use xlink:href="#DejaVuSans-29" x="100.292969"/>
    </g>
   </g>
  </g>
  <g id="axes_2">
   <g id="patch_7">
    <path d="M 220.50207 92.343901 
L 320.84814 92.343901 
L 320.84814 10.8 
L 220.50207 10.8 
z
" style="fill: #ffffff"/>
   </g>
   <g id="PolyCollection_3">
    <defs>
     <path id="m6532693cc2" d="M 225.063255 -360.208024 
L 225.063255 -357.078886 
L 234.185625 -335.865249 
L 243.307995 -341.43284 
L 252.430365 -356.91725 
L 261.552735 -327.125047 
L 270.675105 -353.339201 
L 279.797475 -366.107037 
L 288.919845 -341.016267 
L 298.042215 -337.652583 
L 307.164585 -352.224259 
L 316.286955 -360.375837 
L 316.286955 -367.615754 
L 316.286955 -367.615754 
L 307.164585 -361.805794 
L 298.042215 -357.299492 
L 288.919845 -371.779959 
L 279.797475 -378.660387 
L 270.675105 -365.537572 
L 261.552735 -366.377541 
L 252.430365 -371.198008 
L 243.307995 -364.016274 
L 234.185625 -358.937838 
L 225.063255 -360.208024 
z
" style="stroke: #1f77b4; stroke-opacity: 0.2"/>
    </defs>
    <g clip-path="url(#p20a1e39c73)">
     <use xlink:href="#m6532693cc2" x="0" y="403.2" style="fill: #1f77b4; fill-opacity: 0.2; stroke: #1f77b4; stroke-opacity: 0.2"/>
    </g>
   </g>
   <g id="PolyCollection_4">
    <defs>
     <path id="m2b81a1454a" d="M 225.063255 -361.687349 
L 225.063255 -355.489989 
L 234.185625 -345.107712 
L 243.307995 -338.711613 
L 252.430365 -336.25487 
L 261.552735 -343.443843 
L 270.675105 -341.972895 
L 279.797475 -343.928833 
L 288.919845 -345.32226 
L 298.042215 -356.217241 
L 307.164585 -342.969967 
L 316.286955 -340.983851 
L 316.286955 -356.47737 
L 316.286955 -356.47737 
L 307.164585 -367.184803 
L 298.042215 -380.447809 
L 288.919845 -370.859493 
L 279.797475 -380.402951 
L 270.675105 -369.266768 
L 261.552735 -376.122886 
L 252.430365 -367.073507 
L 243.307995 -369.678322 
L 234.185625 -382.368249 
L 225.063255 -361.687349 
z
" style="stroke: #ff7f0e; stroke-opacity: 0.2"/>
    </defs>
    <g clip-path="url(#p20a1e39c73)">
     <use xlink:href="#m2b81a1454a" x="0" y="403.2" style="fill: #ff7f0e; fill-opacity: 0.2; stroke: #ff7f0e; stroke-opacity: 0.2"/>
    </g>
   </g>
   <g id="matplotlib.axis_3">
    <g id="xtick_4">
     <g id="line2d_9">
      <g>
       <use xlink:href="#m99f11d7101" x="224.151018" y="92.343901" style="stroke: #000000; stroke-width: 0.8"/>
      </g>
     </g>
    </g>
    <g id="xtick_5">
     <g id="line2d_10">
      <g>
       <use xlink:href="#m99f11d7101" x="269.762868" y="92.343901" style="stroke: #000000; stroke-width: 0.8"/>
      </g>
     </g>
    </g>
    <g id="xtick_6">
     <g id="line2d_11">
      <g>
       <use xlink:href="#m99f11d7101" x="315.374718" y="92.343901" style="stroke: #000000; stroke-width: 0.8"/>
      </g>
     </g>
    </g>
   </g>
   <g id="matplotlib.axis_4">
    <g id="ytick_4">
     <g id="line2d_12">
      <g>
       <use xlink:href="#mf9e9ea7450" x="220.50207" y="72.93958" style="stroke: #000000; stroke-width: 0.8"/>
      </g>
     </g>
     <g id="text_6">
      <!-- −0.1 -->
      <g transform="translate(189.219258 76.738799) scale(0.1 -0.1)">
       <use xlink:href="#DejaVuSans-2212"/>
       <use xlink:href="#DejaVuSans-30" x="83.789062"/>
       <use xlink:href="#DejaVuSans-2e" x="147.412109"/>
       <use xlink:href="#DejaVuSans-31" x="179.199219"/>
      </g>
     </g>
    </g>
    <g id="ytick_5">
     <g id="line2d_13">
      <g>
       <use xlink:href="#mf9e9ea7450" x="220.50207" y="44.59037" style="stroke: #000000; stroke-width: 0.8"/>
      </g>
     </g>
     <g id="text_7">
      <!-- 0.0 -->
      <g transform="translate(197.598945 48.389589) scale(0.1 -0.1)">
       <use xlink:href="#DejaVuSans-30"/>
       <use xlink:href="#DejaVuSans-2e" x="63.623047"/>
       <use xlink:href="#DejaVuSans-30" x="95.410156"/>
      </g>
     </g>
    </g>
    <g id="ytick_6">
     <g id="line2d_14">
      <g>
       <use xlink:href="#mf9e9ea7450" x="220.50207" y="16.241159" style="stroke: #000000; stroke-width: 0.8"/>
      </g>
     </g>
     <g id="text_8">
      <!-- 0.1 -->
      <g transform="translate(197.598945 20.040378) scale(0.1 -0.1)">
       <use xlink:href="#DejaVuSans-30"/>
       <use xlink:href="#DejaVuSans-2e" x="63.623047"/>
       <use xlink:href="#DejaVuSans-31" x="95.410156"/>
      </g>
     </g>
    </g>
    <g id="text_9">
     <!-- $Y$ -->
     <g transform="translate(185.63957 54.671951) rotate(-90) scale(0.1 -0.1)">
      <defs>
       <path id="DejaVuSans-Oblique-59" d="M 403 4666 
L 1081 4666 
L 1953 2747 
L 3616 4666 
L 4325 4666 
L 2209 2222 
L 1778 0 
L 1147 0 
L 1575 2222 
L 403 4666 
z
" transform="scale(0.015625)"/>
      </defs>
      <use xlink:href="#DejaVuSans-Oblique-59" transform="translate(0 0.09375)"/>
     </g>
    </g>
   </g>
   <g id="line2d_15">
    <path d="M 225.063255 44.285185 
L 234.185625 54.259841 
L 243.307995 50.340346 
L 252.430365 41.422737 
L 261.552735 53.466606 
L 270.675105 44.923398 
L 279.797475 32.507614 
L 288.919845 44.507961 
L 298.042215 56.165616 
L 307.164585 47.049107 
L 316.286955 38.876738 
" clip-path="url(#p20a1e39c73)" style="fill: none; stroke: #1f77b4; stroke-width: 1.5; stroke-linecap: square"/>
   </g>
   <g id="line2d_16">
    <path d="M 225.063255 44.920631 
L 234.185625 38.320545 
L 243.307995 50.395335 
L 252.430365 49.847469 
L 261.552735 42.163883 
L 270.675105 45.683747 
L 279.797475 42.106109 
L 288.919845 45.723188 
L 298.042215 37.118737 
L 307.164585 49.458953 
L 316.286955 54.149295 
" clip-path="url(#p20a1e39c73)" style="fill: none; stroke-dasharray: 1.5,2.475; stroke-dashoffset: 0; stroke: #ff7f0e; stroke-width: 1.5"/>
   </g>
   <g id="patch_8">
    <path d="M 220.50207 92.343901 
L 220.50207 10.8 
" style="fill: none; stroke: #000000; stroke-width: 0.8; stroke-linejoin: miter; stroke-linecap: square"/>
   </g>
   <g id="patch_9">
    <path d="M 320.84814 92.343901 
L 320.84814 10.8 
" style="fill: none; stroke: #000000; stroke-width: 0.8; stroke-linejoin: miter; stroke-linecap: square"/>
   </g>
   <g id="patch_10">
    <path d="M 220.50207 92.343901 
L 320.84814 92.343901 
" style="fill: none; stroke: #000000; stroke-width: 0.8; stroke-linejoin: miter; stroke-linecap: square"/>
   </g>
   <g id="patch_11">
    <path d="M 220.50207 10.8 
L 320.84814 10.8 
" style="fill: none; stroke: #000000; stroke-width: 0.8; stroke-linejoin: miter; stroke-linecap: square"/>
   </g>
   <g id="text_10">
    <!-- (b) -->
    <g transform="translate(190.398249 21.400707) scale(0.1 -0.1)">
     <defs>
      <path id="DejaVuSans-62" d="M 3116 1747 
Q 3116 2381 2855 2742 
Q 2594 3103 2138 3103 
Q 1681 3103 1420 2742 
Q 1159 2381 1159 1747 
Q 1159 1113 1420 752 
Q 1681 391 2138 391 
Q 2594 391 2855 752 
Q 3116 1113 3116 1747 
z
M 1159 2969 
Q 1341 3281 1617 3432 
Q 1894 3584 2278 3584 
Q 2916 3584 3314 3078 
Q 3713 2572 3713 1747 
Q 3713 922 3314 415 
Q 2916 -91 2278 -91 
Q 1894 -91 1617 61 
Q 1341 213 1159 525 
L 1159 0 
L 581 0 
L 581 4863 
L 1159 4863 
L 1159 2969 
z
" transform="scale(0.015625)"/>
     </defs>
     <use xlink:href="#DejaVuSans-28"/>
     <use xlink:href="#DejaVuSans-62" x="39.013672"/>
     <use xlink:href="#DejaVuSans-29" x="102.490234"/>
    </g>
   </g>
  </g>
  <g id="axes_3">
   <g id="patch_12">
    <path d="M 59.61 180.745268 
L 159.95607 180.745268 
L 159.95607 99.201366 
L 59.61 99.201366 
z
" style="fill: #ffffff"/>
   </g>
   <g id="PolyCollection_5">
    <defs>
     <path id="m0915b58d4b" d="M 64.171185 -265.045553 
L 64.171185 -265.045553 
L 73.293555 -257.66298 
L 82.415925 -256.257818 
L 91.538295 -250.568661 
L 100.660665 -258.840931 
L 109.783035 -255.926541 
L 118.905405 -261.085376 
L 128.027775 -264.055867 
L 137.150145 -254.325145 
L 146.272515 -264.009505 
L 155.394885 -262.511036 
L 155.394885 -268.428664 
L 155.394885 -268.428664 
L 146.272515 -278.047415 
L 137.150145 -271.733194 
L 128.027775 -273.013248 
L 118.905405 -282.778755 
L 109.783035 -271.108633 
L 100.660665 -267.6029 
L 91.538295 -269.276386 
L 82.415925 -266.765546 
L 73.293555 -284.193798 
L 64.171185 -265.045553 
z
" style="stroke: #1f77b4; stroke-opacity: 0.2"/>
    </defs>
    <g clip-path="url(#p9fef094039)">
     <use xlink:href="#m0915b58d4b" x="0" y="403.2" style="fill: #1f77b4; fill-opacity: 0.2; stroke: #1f77b4; stroke-opacity: 0.2"/>
    </g>
   </g>
   <g id="PolyCollection_6">
    <defs>
     <path id="m1794b8541b" d="M 64.171185 -265.045553 
L 64.171185 -265.045553 
L 73.293555 -254.619717 
L 82.415925 -261.049876 
L 91.538295 -262.034544 
L 100.660665 -260.90419 
L 109.783035 -258.543596 
L 118.905405 -259.983293 
L 128.027775 -260.875132 
L 137.150145 -254.690219 
L 146.272515 -229.290653 
L 155.394885 -254.392243 
L 155.394885 -269.176189 
L 155.394885 -269.176189 
L 146.272515 -269.659988 
L 137.150145 -267.238398 
L 128.027775 -290.328667 
L 118.905405 -271.243234 
L 109.783035 -273.014774 
L 100.660665 -268.542258 
L 91.538295 -272.950003 
L 82.415925 -283.183716 
L 73.293555 -276.196568 
L 64.171185 -265.045553 
z
" style="stroke: #ff7f0e; stroke-opacity: 0.2"/>
    </defs>
    <g clip-path="url(#p9fef094039)">
     <use xlink:href="#m1794b8541b" x="0" y="403.2" style="fill: #ff7f0e; fill-opacity: 0.2; stroke: #ff7f0e; stroke-opacity: 0.2"/>
    </g>
   </g>
   <g id="matplotlib.axis_5">
    <g id="xtick_7">
     <g id="line2d_17">
      <g>
       <use xlink:href="#m99f11d7101" x="63.258948" y="180.745268" style="stroke: #000000; stroke-width: 0.8"/>
      </g>
     </g>
    </g>
    <g id="xtick_8">
     <g id="line2d_18">
      <g>
       <use xlink:href="#m99f11d7101" x="108.870798" y="180.745268" style="stroke: #000000; stroke-width: 0.8"/>
      </g>
     </g>
    </g>
    <g id="xtick_9">
     <g id="line2d_19">
      <g>
       <use xlink:href="#m99f11d7101" x="154.482648" y="180.745268" style="stroke: #000000; stroke-width: 0.8"/>
      </g>
     </g>
    </g>
   </g>
   <g id="matplotlib.axis_6">
    <g id="ytick_7">
     <g id="line2d_20">
      <g>
       <use xlink:href="#mf9e9ea7450" x="59.61" y="178.011677" style="stroke: #000000; stroke-width: 0.8"/>
      </g>
     </g>
     <g id="text_11">
      <!-- −10 -->
      <g transform="translate(31.505312 181.810896) scale(0.1 -0.1)">
       <use xlink:href="#DejaVuSans-2212"/>
       <use xlink:href="#DejaVuSans-31" x="83.789062"/>
       <use xlink:href="#DejaVuSans-30" x="147.412109"/>
      </g>
     </g>
    </g>
    <g id="ytick_8">
     <g id="line2d_21">
      <g>
       <use xlink:href="#mf9e9ea7450" x="59.61" y="138.154447" style="stroke: #000000; stroke-width: 0.8"/>
      </g>
     </g>
     <g id="text_12">
      <!-- 0 -->
      <g transform="translate(46.2475 141.953666) scale(0.1 -0.1)">
       <use xlink:href="#DejaVuSans-30"/>
      </g>
     </g>
    </g>
    <g id="text_13">
     <!-- $\langle \hat{a}_{\mathrm{r}} \rangle$ -->
     <g transform="translate(27.925625 148.573317) rotate(-90) scale(0.1 -0.1)">
      <defs>
       <path id="DejaVuSans-27e8" d="M 572 2006 
L 1453 4856 
L 1984 4856 
L 1103 2006 
L 1984 -844 
L 1453 -844 
L 572 2006 
z
" transform="scale(0.015625)"/>
       <path id="DejaVuSans-302" d="M -1831 5119 
L -1369 5119 
L -603 3944 
L -1038 3944 
L -1600 4709 
L -2163 3944 
L -2597 3944 
L -1831 5119 
z
M -1600 3584 
L -1600 3584 
z
" transform="scale(0.015625)"/>
       <path id="DejaVuSans-Oblique-61" d="M 3438 1997 
L 3047 0 
L 2472 0 
L 2578 531 
Q 2325 219 2001 64 
Q 1678 -91 1281 -91 
Q 834 -91 548 182 
Q 263 456 263 884 
Q 263 1497 752 1853 
Q 1241 2209 2100 2209 
L 2900 2209 
L 2931 2363 
Q 2938 2388 2941 2417 
Q 2944 2447 2944 2509 
Q 2944 2788 2717 2942 
Q 2491 3097 2081 3097 
Q 1800 3097 1504 3025 
Q 1209 2953 897 2809 
L 997 3341 
Q 1322 3463 1633 3523 
Q 1944 3584 2234 3584 
Q 2853 3584 3176 3315 
Q 3500 3047 3500 2534 
Q 3500 2431 3484 2292 
Q 3469 2153 3438 1997 
z
M 2816 1759 
L 2241 1759 
Q 1534 1759 1195 1570 
Q 856 1381 856 984 
Q 856 709 1029 553 
Q 1203 397 1509 397 
Q 1978 397 2328 733 
Q 2678 1069 2791 1631 
L 2816 1759 
z
" transform="scale(0.015625)"/>
       <path id="DejaVuSans-72" d="M 2631 2963 
Q 2534 3019 2420 3045 
Q 2306 3072 2169 3072 
Q 1681 3072 1420 2755 
Q 1159 2438 1159 1844 
L 1159 0 
L 581 0 
L 581 3500 
L 1159 3500 
L 1159 2956 
Q 1341 3275 1631 3429 
Q 1922 3584 2338 3584 
Q 2397 3584 2469 3576 
Q 2541 3569 2628 3553 
L 2631 2963 
z
" transform="scale(0.015625)"/>
       <path id="DejaVuSans-27e9" d="M 1925 2006 
L 1044 -844 
L 513 -844 
L 1394 2006 
L 513 4856 
L 1044 4856 
L 1925 2006 
z
" transform="scale(0.015625)"/>
      </defs>
      <use xlink:href="#DejaVuSans-27e8" transform="translate(0 0.515625)"/>
      <use xlink:href="#DejaVuSans-302" transform="translate(101.911621 13.015625)"/>
      <use xlink:href="#DejaVuSans-Oblique-61" transform="translate(39.013672 0.515625)"/>
      <use xlink:href="#DejaVuSans-72" transform="translate(101.25 -15.890625) scale(0.7)"/>
      <use xlink:href="#DejaVuSans-27e9" transform="translate(132.763672 0.515625)"/>
     </g>
    </g>
   </g>
   <g id="line2d_22">
    <path d="M 64.171185 138.154447 
L 73.293555 133.471018 
L 82.415925 142.208121 
L 91.538295 142.774567 
L 100.660665 139.805207 
L 109.783035 138.442018 
L 118.905405 133.743736 
L 128.027775 134.062797 
L 137.150145 141.880618 
L 146.272515 134.079324 
L 155.394885 137.653927 
" clip-path="url(#p9fef094039)" style="fill: none; stroke: #1f77b4; stroke-width: 1.5; stroke-linecap: square"/>
   </g>
   <g id="line2d_23">
    <path d="M 64.171185 138.154447 
L 73.293555 134.822903 
L 82.415925 135.160344 
L 91.538295 136.489651 
L 100.660665 139.599746 
L 109.783035 138.546168 
L 118.905405 138.323989 
L 128.027775 134.313084 
L 137.150145 142.096779 
L 146.272515 146.073753 
L 155.394885 142.290043 
" clip-path="url(#p9fef094039)" style="fill: none; stroke-dasharray: 1.5,2.475; stroke-dashoffset: 0; stroke: #ff7f0e; stroke-width: 1.5"/>
   </g>
   <g id="patch_13">
    <path d="M 59.61 180.745268 
L 59.61 99.201366 
" style="fill: none; stroke: #000000; stroke-width: 0.8; stroke-linejoin: miter; stroke-linecap: square"/>
   </g>
   <g id="patch_14">
    <path d="M 159.95607 180.745268 
L 159.95607 99.201366 
" style="fill: none; stroke: #000000; stroke-width: 0.8; stroke-linejoin: miter; stroke-linecap: square"/>
   </g>
   <g id="patch_15">
    <path d="M 59.61 180.745268 
L 159.95607 180.745268 
" style="fill: none; stroke: #000000; stroke-width: 0.8; stroke-linejoin: miter; stroke-linecap: square"/>
   </g>
   <g id="patch_16">
    <path d="M 59.61 99.201366 
L 159.95607 99.201366 
" style="fill: none; stroke: #000000; stroke-width: 0.8; stroke-linejoin: miter; stroke-linecap: square"/>
   </g>
   <g id="text_14">
    <!-- (c) -->
    <g transform="translate(29.506179 109.802073) scale(0.1 -0.1)">
     <defs>
      <path id="DejaVuSans-63" d="M 3122 3366 
L 3122 2828 
Q 2878 2963 2633 3030 
Q 2388 3097 2138 3097 
Q 1578 3097 1268 2742 
Q 959 2388 959 1747 
Q 959 1106 1268 751 
Q 1578 397 2138 397 
Q 2388 397 2633 464 
Q 2878 531 3122 666 
L 3122 134 
Q 2881 22 2623 -34 
Q 2366 -91 2075 -91 
Q 1284 -91 818 406 
Q 353 903 353 1747 
Q 353 2603 823 3093 
Q 1294 3584 2113 3584 
Q 2378 3584 2631 3529 
Q 2884 3475 3122 3366 
z
" transform="scale(0.015625)"/>
     </defs>
     <use xlink:href="#DejaVuSans-28"/>
     <use xlink:href="#DejaVuSans-63" x="39.013672"/>
     <use xlink:href="#DejaVuSans-29" x="93.994141"/>
    </g>
   </g>
  </g>
  <g id="axes_4">
   <g id="patch_17">
    <path d="M 220.50207 180.745268 
L 320.84814 180.745268 
L 320.84814 99.201366 
L 220.50207 99.201366 
z
" style="fill: #ffffff"/>
   </g>
   <g id="PolyCollection_7">
    <defs>
     <path id="m8dda479439" d="M 225.063255 -265.045553 
L 225.063255 -265.045553 
L 234.185625 -300.292093 
L 243.307995 -268.313771 
L 252.430365 -267.42647 
L 261.552735 -266.177834 
L 270.675105 -270.303845 
L 279.797475 -269.424344 
L 288.919845 -272.265508 
L 298.042215 -270.283865 
L 307.164585 -267.606032 
L 316.286955 -270.056567 
L 316.286955 -260.787777 
L 316.286955 -260.787777 
L 307.164585 -259.291018 
L 298.042215 -259.45775 
L 288.919845 -257.706974 
L 279.797475 -262.954584 
L 270.675105 -260.97541 
L 261.552735 -262.040226 
L 252.430365 -255.536345 
L 243.307995 -262.467321 
L 234.185625 -247.421505 
L 225.063255 -265.045553 
z
" style="stroke: #1f77b4; stroke-opacity: 0.2"/>
    </defs>
    <g clip-path="url(#pb03e916a89)">
     <use xlink:href="#m8dda479439" x="0" y="403.2" style="fill: #1f77b4; fill-opacity: 0.2; stroke: #1f77b4; stroke-opacity: 0.2"/>
    </g>
   </g>
   <g id="PolyCollection_8">
    <defs>
     <path id="ma88fd747f1" d="M 225.063255 -265.045553 
L 225.063255 -265.045553 
L 234.185625 -279.00851 
L 243.307995 -278.722528 
L 252.430365 -279.39412 
L 261.552735 -266.395212 
L 270.675105 -274.056366 
L 279.797475 -270.847375 
L 288.919845 -273.046629 
L 298.042215 -273.51913 
L 307.164585 -267.974764 
L 316.286955 -268.490967 
L 316.286955 -254.75474 
L 316.286955 -254.75474 
L 307.164585 -242.233187 
L 298.042215 -226.161273 
L 288.919845 -257.047143 
L 279.797475 -256.403497 
L 270.675105 -258.110263 
L 261.552735 -254.692961 
L 252.430365 -264.526823 
L 243.307995 -256.068836 
L 234.185625 -259.564868 
L 225.063255 -265.045553 
z
" style="stroke: #ff7f0e; stroke-opacity: 0.2"/>
    </defs>
    <g clip-path="url(#pb03e916a89)">
     <use xlink:href="#ma88fd747f1" x="0" y="403.2" style="fill: #ff7f0e; fill-opacity: 0.2; stroke: #ff7f0e; stroke-opacity: 0.2"/>
    </g>
   </g>
   <g id="matplotlib.axis_7">
    <g id="xtick_10">
     <g id="line2d_24">
      <g>
       <use xlink:href="#m99f11d7101" x="224.151018" y="180.745268" style="stroke: #000000; stroke-width: 0.8"/>
      </g>
     </g>
    </g>
    <g id="xtick_11">
     <g id="line2d_25">
      <g>
       <use xlink:href="#m99f11d7101" x="269.762868" y="180.745268" style="stroke: #000000; stroke-width: 0.8"/>
      </g>
     </g>
    </g>
    <g id="xtick_12">
     <g id="line2d_26">
      <g>
       <use xlink:href="#m99f11d7101" x="315.374718" y="180.745268" style="stroke: #000000; stroke-width: 0.8"/>
      </g>
     </g>
    </g>
   </g>
   <g id="matplotlib.axis_8">
    <g id="ytick_9">
     <g id="line2d_27">
      <g>
       <use xlink:href="#mf9e9ea7450" x="220.50207" y="178.011677" style="stroke: #000000; stroke-width: 0.8"/>
      </g>
     </g>
     <g id="text_15">
      <!-- −10 -->
      <g transform="translate(192.397383 181.810896) scale(0.1 -0.1)">
       <use xlink:href="#DejaVuSans-2212"/>
       <use xlink:href="#DejaVuSans-31" x="83.789062"/>
       <use xlink:href="#DejaVuSans-30" x="147.412109"/>
      </g>
     </g>
    </g>
    <g id="ytick_10">
     <g id="line2d_28">
      <g>
       <use xlink:href="#mf9e9ea7450" x="220.50207" y="138.154447" style="stroke: #000000; stroke-width: 0.8"/>
      </g>
     </g>
     <g id="text_16">
      <!-- 0 -->
      <g transform="translate(207.13957 141.953666) scale(0.1 -0.1)">
       <use xlink:href="#DejaVuSans-30"/>
      </g>
     </g>
    </g>
    <g id="text_17">
     <!-- $\langle \hat{a}_{\mathrm{i}} \rangle$ -->
     <g transform="translate(188.817695 148.123317) rotate(-90) scale(0.1 -0.1)">
      <defs>
       <path id="DejaVuSans-69" d="M 603 3500 
L 1178 3500 
L 1178 0 
L 603 0 
L 603 3500 
z
M 603 4863 
L 1178 4863 
L 1178 4134 
L 603 4134 
L 603 4863 
z
" transform="scale(0.015625)"/>
      </defs>
      <use xlink:href="#DejaVuSans-27e8" transform="translate(0 0.515625)"/>
      <use xlink:href="#DejaVuSans-302" transform="translate(101.911621 13.015625)"/>
      <use xlink:href="#DejaVuSans-Oblique-61" transform="translate(39.013672 0.515625)"/>
      <use xlink:href="#DejaVuSans-69" transform="translate(101.25 -15.890625) scale(0.7)"/>
      <use xlink:href="#DejaVuSans-27e9" transform="translate(123.432617 0.515625)"/>
     </g>
    </g>
   </g>
   <g id="line2d_29">
    <path d="M 225.063255 138.154447 
L 234.185625 132.48049 
L 243.307995 138.125257 
L 252.430365 142.619076 
L 261.552735 139.446367 
L 270.675105 138.322554 
L 279.797475 136.401704 
L 288.919845 139.068749 
L 298.042215 138.37738 
L 307.164585 139.778569 
L 316.286955 137.263835 
" clip-path="url(#pb03e916a89)" style="fill: none; stroke: #1f77b4; stroke-width: 1.5; stroke-linecap: square"/>
   </g>
   <g id="line2d_30">
    <path d="M 225.063255 138.154447 
L 234.185625 134.351861 
L 243.307995 135.473754 
L 252.430365 131.461644 
L 261.552735 142.70995 
L 270.675105 136.54398 
L 279.797475 140.480979 
L 288.919845 139.362162 
L 298.042215 144.668246 
L 307.164585 143.215877 
L 316.286955 139.539882 
" clip-path="url(#pb03e916a89)" style="fill: none; stroke-dasharray: 1.5,2.475; stroke-dashoffset: 0; stroke: #ff7f0e; stroke-width: 1.5"/>
   </g>
   <g id="patch_18">
    <path d="M 220.50207 180.745268 
L 220.50207 99.201366 
" style="fill: none; stroke: #000000; stroke-width: 0.8; stroke-linejoin: miter; stroke-linecap: square"/>
   </g>
   <g id="patch_19">
    <path d="M 320.84814 180.745268 
L 320.84814 99.201366 
" style="fill: none; stroke: #000000; stroke-width: 0.8; stroke-linejoin: miter; stroke-linecap: square"/>
   </g>
   <g id="patch_20">
    <path d="M 220.50207 180.745268 
L 320.84814 180.745268 
" style="fill: none; stroke: #000000; stroke-width: 0.8; stroke-linejoin: miter; stroke-linecap: square"/>
   </g>
   <g id="patch_21">
    <path d="M 220.50207 99.201366 
L 320.84814 99.201366 
" style="fill: none; stroke: #000000; stroke-width: 0.8; stroke-linejoin: miter; stroke-linecap: square"/>
   </g>
   <g id="text_18">
    <!-- (d) -->
    <g transform="translate(190.398249 109.802073) scale(0.1 -0.1)">
     <defs>
      <path id="DejaVuSans-64" d="M 2906 2969 
L 2906 4863 
L 3481 4863 
L 3481 0 
L 2906 0 
L 2906 525 
Q 2725 213 2448 61 
Q 2172 -91 1784 -91 
Q 1150 -91 751 415 
Q 353 922 353 1747 
Q 353 2572 751 3078 
Q 1150 3584 1784 3584 
Q 2172 3584 2448 3432 
Q 2725 3281 2906 2969 
z
M 947 1747 
Q 947 1113 1208 752 
Q 1469 391 1925 391 
Q 2381 391 2643 752 
Q 2906 1113 2906 1747 
Q 2906 2381 2643 2742 
Q 2381 3103 1925 3103 
Q 1469 3103 1208 2742 
Q 947 2381 947 1747 
z
" transform="scale(0.015625)"/>
     </defs>
     <use xlink:href="#DejaVuSans-28"/>
     <use xlink:href="#DejaVuSans-64" x="39.013672"/>
     <use xlink:href="#DejaVuSans-29" x="102.490234"/>
    </g>
   </g>
  </g>
  <g id="axes_5">
   <g id="patch_22">
    <path d="M 59.61 269.146634 
L 159.95607 269.146634 
L 159.95607 187.602732 
L 59.61 187.602732 
z
" style="fill: #ffffff"/>
   </g>
   <g id="PolyCollection_9">
    <defs>
     <path id="mf9e06b5f9e" d="M 64.171185 -177.797289 
L 64.171185 -170.403897 
L 73.293555 -146.031592 
L 82.415925 -171.798946 
L 91.538295 -151.963738 
L 100.660665 -165.07461 
L 109.783035 -161.127579 
L 118.905405 -150.658419 
L 128.027775 -158.471852 
L 137.150145 -163.734917 
L 146.272515 -156.674811 
L 155.394885 -151.249897 
L 155.394885 -164.990804 
L 155.394885 -164.990804 
L 146.272515 -180.640535 
L 137.150145 -187.077089 
L 128.027775 -187.408524 
L 118.905405 -188.448128 
L 109.783035 -182.912795 
L 100.660665 -182.367996 
L 91.538295 -162.734446 
L 82.415925 -175.275289 
L 73.293555 -186.30632 
L 64.171185 -177.797289 
z
" style="stroke: #1f77b4; stroke-opacity: 0.2"/>
    </defs>
    <g clip-path="url(#p796639442d)">
     <use xlink:href="#mf9e06b5f9e" x="0" y="403.2" style="fill: #1f77b4; fill-opacity: 0.2; stroke: #1f77b4; stroke-opacity: 0.2"/>
    </g>
   </g>
   <g id="PolyCollection_10">
    <defs>
     <path id="mb39253a3b7" d="M 64.171185 -174.408174 
L 64.171185 -167.336525 
L 73.293555 -161.347714 
L 82.415925 -167.98834 
L 91.538295 -149.938971 
L 100.660665 -155.862909 
L 109.783035 -152.478071 
L 118.905405 -151.271646 
L 128.027775 -157.870672 
L 137.150145 -158.746241 
L 146.272515 -141.596364 
L 155.394885 -158.158085 
L 155.394885 -188.964772 
L 155.394885 -188.964772 
L 146.272515 -177.247601 
L 137.150145 -204.706687 
L 128.027775 -189.228476 
L 118.905405 -184.508188 
L 109.783035 -194.286872 
L 100.660665 -189.141146 
L 91.538295 -192.128952 
L 82.415925 -198.307624 
L 73.293555 -193.819419 
L 64.171185 -174.408174 
z
" style="stroke: #ff7f0e; stroke-opacity: 0.2"/>
    </defs>
    <g clip-path="url(#p796639442d)">
     <use xlink:href="#mb39253a3b7" x="0" y="403.2" style="fill: #ff7f0e; fill-opacity: 0.2; stroke: #ff7f0e; stroke-opacity: 0.2"/>
    </g>
   </g>
   <g id="matplotlib.axis_9">
    <g id="xtick_13">
     <g id="line2d_31">
      <g>
       <use xlink:href="#m99f11d7101" x="63.258948" y="269.146634" style="stroke: #000000; stroke-width: 0.8"/>
      </g>
     </g>
    </g>
    <g id="xtick_14">
     <g id="line2d_32">
      <g>
       <use xlink:href="#m99f11d7101" x="108.870798" y="269.146634" style="stroke: #000000; stroke-width: 0.8"/>
      </g>
     </g>
    </g>
    <g id="xtick_15">
     <g id="line2d_33">
      <g>
       <use xlink:href="#m99f11d7101" x="154.482648" y="269.146634" style="stroke: #000000; stroke-width: 0.8"/>
      </g>
     </g>
    </g>
   </g>
   <g id="matplotlib.axis_10">
    <g id="ytick_11">
     <g id="line2d_34">
      <g>
       <use xlink:href="#mf9e9ea7450" x="59.61" y="256.863929" style="stroke: #000000; stroke-width: 0.8"/>
      </g>
     </g>
     <g id="text_19">
      <!-- −0.1 -->
      <g transform="translate(28.327187 260.663147) scale(0.1 -0.1)">
       <use xlink:href="#DejaVuSans-2212"/>
       <use xlink:href="#DejaVuSans-30" x="83.789062"/>
       <use xlink:href="#DejaVuSans-2e" x="147.412109"/>
       <use xlink:href="#DejaVuSans-31" x="179.199219"/>
      </g>
     </g>
    </g>
    <g id="ytick_12">
     <g id="line2d_35">
      <g>
       <use xlink:href="#mf9e9ea7450" x="59.61" y="231.369276" style="stroke: #000000; stroke-width: 0.8"/>
      </g>
     </g>
     <g id="text_20">
      <!-- 0.0 -->
      <g transform="translate(36.706875 235.168495) scale(0.1 -0.1)">
       <use xlink:href="#DejaVuSans-30"/>
       <use xlink:href="#DejaVuSans-2e" x="63.623047"/>
       <use xlink:href="#DejaVuSans-30" x="95.410156"/>
      </g>
     </g>
    </g>
    <g id="ytick_13">
     <g id="line2d_36">
      <g>
       <use xlink:href="#mf9e9ea7450" x="59.61" y="205.874623" style="stroke: #000000; stroke-width: 0.8"/>
      </g>
     </g>
     <g id="text_21">
      <!-- 0.1 -->
      <g transform="translate(36.706875 209.673842) scale(0.1 -0.1)">
       <use xlink:href="#DejaVuSans-30"/>
       <use xlink:href="#DejaVuSans-2e" x="63.623047"/>
       <use xlink:href="#DejaVuSans-31" x="95.410156"/>
      </g>
     </g>
    </g>
    <g id="text_22">
     <!-- $\langle \hat J_x \rangle$ -->
     <g transform="translate(24.727187 236.724683) rotate(-90) scale(0.1 -0.1)">
      <defs>
       <path id="DejaVuSans-Oblique-4a" d="M 1069 4666 
L 1703 4666 
L 856 325 
Q 691 -522 298 -901 
Q -94 -1281 -800 -1281 
L -1050 -1281 
L -947 -750 
L -750 -750 
Q -328 -750 -109 -509 
Q 109 -269 225 325 
L 1069 4666 
z
" transform="scale(0.015625)"/>
       <path id="DejaVuSans-Oblique-78" d="M 3841 3500 
L 2234 1784 
L 3219 0 
L 2559 0 
L 1819 1388 
L 531 0 
L -166 0 
L 1556 1844 
L 641 3500 
L 1300 3500 
L 1972 2234 
L 3144 3500 
L 3841 3500 
z
" transform="scale(0.015625)"/>
      </defs>
      <use xlink:href="#DejaVuSans-27e8" transform="translate(0 0.609375)"/>
      <use xlink:href="#DejaVuSans-302" transform="translate(91.345703 30.015625)"/>
      <use xlink:href="#DejaVuSans-Oblique-4a" transform="translate(39.013672 0.609375)"/>
      <use xlink:href="#DejaVuSans-Oblique-78" transform="translate(82.986328 -15.796875) scale(0.7)"/>
      <use xlink:href="#DejaVuSans-27e9" transform="translate(127.146484 0.609375)"/>
     </g>
    </g>
   </g>
   <g id="line2d_37">
    <path d="M 64.171185 229.488578 
L 73.293555 232.510059 
L 82.415925 229.796411 
L 91.538295 246.062073 
L 100.660665 229.383994 
L 109.783035 229.205064 
L 118.905405 233.13294 
L 128.027775 231.342342 
L 137.150145 226.154345 
L 146.272515 233.943392 
L 155.394885 247.443301 
" clip-path="url(#p796639442d)" style="fill: none; stroke: #1f77b4; stroke-width: 1.5; stroke-linecap: square"/>
   </g>
   <g id="line2d_38">
    <path d="M 64.171185 232.935847 
L 73.293555 227.980664 
L 82.415925 221.783666 
L 91.538295 233.108586 
L 100.660665 231.124822 
L 109.783035 231.999758 
L 118.905405 235.586666 
L 128.027775 230.239586 
L 137.150145 228.24071 
L 146.272515 240.661274 
L 155.394885 227.739643 
" clip-path="url(#p796639442d)" style="fill: none; stroke-dasharray: 1.5,2.475; stroke-dashoffset: 0; stroke: #ff7f0e; stroke-width: 1.5"/>
   </g>
   <g id="patch_23">
    <path d="M 59.61 269.146634 
L 59.61 187.602732 
" style="fill: none; stroke: #000000; stroke-width: 0.8; stroke-linejoin: miter; stroke-linecap: square"/>
   </g>
   <g id="patch_24">
    <path d="M 159.95607 269.146634 
L 159.95607 187.602732 
" style="fill: none; stroke: #000000; stroke-width: 0.8; stroke-linejoin: miter; stroke-linecap: square"/>
   </g>
   <g id="patch_25">
    <path d="M 59.61 269.146634 
L 159.95607 269.146634 
" style="fill: none; stroke: #000000; stroke-width: 0.8; stroke-linejoin: miter; stroke-linecap: square"/>
   </g>
   <g id="patch_26">
    <path d="M 59.61 187.602732 
L 159.95607 187.602732 
" style="fill: none; stroke: #000000; stroke-width: 0.8; stroke-linejoin: miter; stroke-linecap: square"/>
   </g>
   <g id="text_23">
    <!-- (e) -->
    <g transform="translate(29.506179 198.20344) scale(0.1 -0.1)">
     <defs>
      <path id="DejaVuSans-65" d="M 3597 1894 
L 3597 1613 
L 953 1613 
Q 991 1019 1311 708 
Q 1631 397 2203 397 
Q 2534 397 2845 478 
Q 3156 559 3463 722 
L 3463 178 
Q 3153 47 2828 -22 
Q 2503 -91 2169 -91 
Q 1331 -91 842 396 
Q 353 884 353 1716 
Q 353 2575 817 3079 
Q 1281 3584 2069 3584 
Q 2775 3584 3186 3129 
Q 3597 2675 3597 1894 
z
M 3022 2063 
Q 3016 2534 2758 2815 
Q 2500 3097 2075 3097 
Q 1594 3097 1305 2825 
Q 1016 2553 972 2059 
L 3022 2063 
z
" transform="scale(0.015625)"/>
     </defs>
     <use xlink:href="#DejaVuSans-28"/>
     <use xlink:href="#DejaVuSans-65" x="39.013672"/>
     <use xlink:href="#DejaVuSans-29" x="100.537109"/>
    </g>
   </g>
  </g>
  <g id="axes_6">
   <g id="patch_27">
    <path d="M 220.50207 269.146634 
L 320.84814 269.146634 
L 320.84814 187.602732 
L 220.50207 187.602732 
z
" style="fill: #ffffff"/>
   </g>
   <g id="PolyCollection_11">
    <defs>
     <path id="m55783be9b4" d="M 225.063255 -177.342368 
L 225.063255 -169.254198 
L 234.185625 -156.598025 
L 243.307995 -142.426626 
L 252.430365 -150.928916 
L 261.552735 -147.464307 
L 270.675105 -158.176752 
L 279.797475 -154.923458 
L 288.919845 -155.174966 
L 298.042215 -155.647597 
L 307.164585 -137.759907 
L 316.286955 -156.725987 
L 316.286955 -209.089152 
L 316.286955 -209.089152 
L 307.164585 -181.673168 
L 298.042215 -174.769501 
L 288.919845 -176.613447 
L 279.797475 -172.047359 
L 270.675105 -204.239856 
L 261.552735 -189.001285 
L 252.430365 -194.333685 
L 243.307995 -166.892336 
L 234.185625 -185.905473 
L 225.063255 -177.342368 
z
" style="stroke: #1f77b4; stroke-opacity: 0.2"/>
    </defs>
    <g clip-path="url(#pd38b4f468f)">
     <use xlink:href="#m55783be9b4" x="0" y="403.2" style="fill: #1f77b4; fill-opacity: 0.2; stroke: #1f77b4; stroke-opacity: 0.2"/>
    </g>
   </g>
   <g id="PolyCollection_12">
    <defs>
     <path id="mb3c6acfc1f" d="M 225.063255 -177.964633 
L 225.063255 -168.814404 
L 234.185625 -158.115237 
L 243.307995 -144.344459 
L 252.430365 -142.887947 
L 261.552735 -158.840282 
L 270.675105 -154.033063 
L 279.797475 -155.697304 
L 288.919845 -142.447265 
L 298.042215 -162.655696 
L 307.164585 -155.180134 
L 316.286955 -162.383443 
L 316.286955 -200.61946 
L 316.286955 -200.61946 
L 307.164585 -206.253598 
L 298.042215 -211.890727 
L 288.919845 -182.628317 
L 279.797475 -186.119922 
L 270.675105 -190.260747 
L 261.552735 -192.94957 
L 252.430365 -194.87395 
L 243.307995 -179.770844 
L 234.185625 -196.038772 
L 225.063255 -177.964633 
z
" style="stroke: #ff7f0e; stroke-opacity: 0.2"/>
    </defs>
    <g clip-path="url(#pd38b4f468f)">
     <use xlink:href="#mb3c6acfc1f" x="0" y="403.2" style="fill: #ff7f0e; fill-opacity: 0.2; stroke: #ff7f0e; stroke-opacity: 0.2"/>
    </g>
   </g>
   <g id="matplotlib.axis_11">
    <g id="xtick_16">
     <g id="line2d_39">
      <g>
       <use xlink:href="#m99f11d7101" x="224.151018" y="269.146634" style="stroke: #000000; stroke-width: 0.8"/>
      </g>
     </g>
    </g>
    <g id="xtick_17">
     <g id="line2d_40">
      <g>
       <use xlink:href="#m99f11d7101" x="269.762868" y="269.146634" style="stroke: #000000; stroke-width: 0.8"/>
      </g>
     </g>
    </g>
    <g id="xtick_18">
     <g id="line2d_41">
      <g>
       <use xlink:href="#m99f11d7101" x="315.374718" y="269.146634" style="stroke: #000000; stroke-width: 0.8"/>
      </g>
     </g>
    </g>
   </g>
   <g id="matplotlib.axis_12">
    <g id="ytick_14">
     <g id="line2d_42">
      <g>
       <use xlink:href="#mf9e9ea7450" x="220.50207" y="256.863929" style="stroke: #000000; stroke-width: 0.8"/>
      </g>
     </g>
     <g id="text_24">
      <!-- −0.1 -->
      <g transform="translate(189.219258 260.663147) scale(0.1 -0.1)">
       <use xlink:href="#DejaVuSans-2212"/>
       <use xlink:href="#DejaVuSans-30" x="83.789062"/>
       <use xlink:href="#DejaVuSans-2e" x="147.412109"/>
       <use xlink:href="#DejaVuSans-31" x="179.199219"/>
      </g>
     </g>
    </g>
    <g id="ytick_15">
     <g id="line2d_43">
      <g>
       <use xlink:href="#mf9e9ea7450" x="220.50207" y="231.369276" style="stroke: #000000; stroke-width: 0.8"/>
      </g>
     </g>
     <g id="text_25">
      <!-- 0.0 -->
      <g transform="translate(197.598945 235.168495) scale(0.1 -0.1)">
       <use xlink:href="#DejaVuSans-30"/>
       <use xlink:href="#DejaVuSans-2e" x="63.623047"/>
       <use xlink:href="#DejaVuSans-30" x="95.410156"/>
      </g>
     </g>
    </g>
    <g id="ytick_16">
     <g id="line2d_44">
      <g>
       <use xlink:href="#mf9e9ea7450" x="220.50207" y="205.874623" style="stroke: #000000; stroke-width: 0.8"/>
      </g>
     </g>
     <g id="text_26">
      <!-- 0.1 -->
      <g transform="translate(197.598945 209.673842) scale(0.1 -0.1)">
       <use xlink:href="#DejaVuSans-30"/>
       <use xlink:href="#DejaVuSans-2e" x="63.623047"/>
       <use xlink:href="#DejaVuSans-31" x="95.410156"/>
      </g>
     </g>
    </g>
    <g id="text_27">
     <!-- $\langle \hat J_y \rangle$ -->
     <g transform="translate(184.619258 236.724683) rotate(-90) scale(0.1 -0.1)">
      <defs>
       <path id="DejaVuSans-Oblique-79" d="M 1588 -325 
Q 1188 -997 936 -1164 
Q 684 -1331 294 -1331 
L -159 -1331 
L -63 -850 
L 269 -850 
Q 509 -850 678 -719 
Q 847 -588 1056 -206 
L 1234 128 
L 459 3500 
L 1069 3500 
L 1650 819 
L 3256 3500 
L 3859 3500 
L 1588 -325 
z
" transform="scale(0.015625)"/>
      </defs>
      <use xlink:href="#DejaVuSans-27e8" transform="translate(0 0.609375)"/>
      <use xlink:href="#DejaVuSans-302" transform="translate(91.345703 30.015625)"/>
      <use xlink:href="#DejaVuSans-Oblique-4a" transform="translate(39.013672 0.609375)"/>
      <use xlink:href="#DejaVuSans-Oblique-79" transform="translate(82.986328 -15.796875) scale(0.7)"/>
      <use xlink:href="#DejaVuSans-27e9" transform="translate(127.146484 0.609375)"/>
     </g>
    </g>
   </g>
   <g id="line2d_45">
    <path d="M 225.063255 229.641193 
L 234.185625 235.166434 
L 243.307995 245.830876 
L 252.430365 232.445734 
L 261.552735 233.511295 
L 270.675105 221.655338 
L 279.797475 237.254025 
L 288.919845 236.883849 
L 298.042215 240.077843 
L 307.164585 242.130737 
L 316.286955 220.309394 
" clip-path="url(#pd38b4f468f)" style="fill: none; stroke: #1f77b4; stroke-width: 1.5; stroke-linecap: square"/>
   </g>
   <g id="line2d_46">
    <path d="M 225.063255 230.248484 
L 234.185625 231.713311 
L 243.307995 236.486546 
L 252.430365 233.311334 
L 261.552735 232.069375 
L 270.675105 235.439351 
L 279.797475 231.136651 
L 288.919845 240.131711 
L 298.042215 221.686257 
L 307.164585 222.799169 
L 316.286955 220.689798 
" clip-path="url(#pd38b4f468f)" style="fill: none; stroke-dasharray: 1.5,2.475; stroke-dashoffset: 0; stroke: #ff7f0e; stroke-width: 1.5"/>
   </g>
   <g id="patch_28">
    <path d="M 220.50207 269.146634 
L 220.50207 187.602732 
" style="fill: none; stroke: #000000; stroke-width: 0.8; stroke-linejoin: miter; stroke-linecap: square"/>
   </g>
   <g id="patch_29">
    <path d="M 320.84814 269.146634 
L 320.84814 187.602732 
" style="fill: none; stroke: #000000; stroke-width: 0.8; stroke-linejoin: miter; stroke-linecap: square"/>
   </g>
   <g id="patch_30">
    <path d="M 220.50207 269.146634 
L 320.84814 269.146634 
" style="fill: none; stroke: #000000; stroke-width: 0.8; stroke-linejoin: miter; stroke-linecap: square"/>
   </g>
   <g id="patch_31">
    <path d="M 220.50207 187.602732 
L 320.84814 187.602732 
" style="fill: none; stroke: #000000; stroke-width: 0.8; stroke-linejoin: miter; stroke-linecap: square"/>
   </g>
   <g id="text_28">
    <!-- (f) -->
    <g transform="translate(190.398249 198.20344) scale(0.1 -0.1)">
     <defs>
      <path id="DejaVuSans-66" d="M 2375 4863 
L 2375 4384 
L 1825 4384 
Q 1516 4384 1395 4259 
Q 1275 4134 1275 3809 
L 1275 3500 
L 2222 3500 
L 2222 3053 
L 1275 3053 
L 1275 0 
L 697 0 
L 697 3053 
L 147 3053 
L 147 3500 
L 697 3500 
L 697 3744 
Q 697 4328 969 4595 
Q 1241 4863 1831 4863 
L 2375 4863 
z
" transform="scale(0.015625)"/>
     </defs>
     <use xlink:href="#DejaVuSans-28"/>
     <use xlink:href="#DejaVuSans-66" x="39.013672"/>
     <use xlink:href="#DejaVuSans-29" x="74.21875"/>
    </g>
   </g>
  </g>
  <g id="axes_7">
   <g id="patch_32">
    <path d="M 59.61 357.548 
L 159.95607 357.548 
L 159.95607 276.004099 
L 59.61 276.004099 
z
" style="fill: #ffffff"/>
   </g>
   <g id="PolyCollection_13">
    <defs>
     <path id="mdcbb6736e2" d="M 64.171185 -49.358541 
L 64.171185 -49.358541 
L 73.293555 -106.155971 
L 82.415925 -108.269382 
L 91.538295 -109.770006 
L 100.660665 -110.548285 
L 109.783035 -110.441433 
L 118.905405 -109.559276 
L 128.027775 -109.56436 
L 137.150145 -112.959049 
L 146.272515 -109.959257 
L 155.394885 -110.265875 
L 155.394885 -118.77968 
L 155.394885 -118.77968 
L 146.272515 -115.287173 
L 137.150145 -117.500543 
L 128.027775 -114.93552 
L 118.905405 -113.965144 
L 109.783035 -115.125769 
L 100.660665 -116.894021 
L 91.538295 -113.412027 
L 82.415925 -123.48936 
L 73.293555 -113.395223 
L 64.171185 -49.358541 
z
" style="stroke: #1f77b4; stroke-opacity: 0.2"/>
    </defs>
    <g clip-path="url(#pfc00ba0da4)">
     <use xlink:href="#mdcbb6736e2" x="0" y="403.2" style="fill: #1f77b4; fill-opacity: 0.2; stroke: #1f77b4; stroke-opacity: 0.2"/>
    </g>
   </g>
   <g id="PolyCollection_14">
    <defs>
     <path id="m136d1cac61" d="M 64.171185 -49.358541 
L 64.171185 -49.358541 
L 73.293555 -107.460917 
L 82.415925 -103.141874 
L 91.538295 -104.556944 
L 100.660665 -107.689752 
L 109.783035 -107.154222 
L 118.905405 -104.506853 
L 128.027775 -106.518195 
L 137.150145 -103.968656 
L 146.272515 -107.117813 
L 155.394885 -108.871888 
L 155.394885 -117.10136 
L 155.394885 -117.10136 
L 146.272515 -115.421219 
L 137.150145 -115.925791 
L 128.027775 -119.439649 
L 118.905405 -115.321148 
L 109.783035 -116.374915 
L 100.660665 -117.231246 
L 91.538295 -120.384922 
L 82.415925 -116.601786 
L 73.293555 -119.654639 
L 64.171185 -49.358541 
z
" style="stroke: #ff7f0e; stroke-opacity: 0.2"/>
    </defs>
    <g clip-path="url(#pfc00ba0da4)">
     <use xlink:href="#m136d1cac61" x="0" y="403.2" style="fill: #ff7f0e; fill-opacity: 0.2; stroke: #ff7f0e; stroke-opacity: 0.2"/>
    </g>
   </g>
   <g id="matplotlib.axis_13">
    <g id="xtick_19">
     <g id="line2d_47">
      <g>
       <use xlink:href="#m99f11d7101" x="63.258948" y="357.548" style="stroke: #000000; stroke-width: 0.8"/>
      </g>
     </g>
     <g id="text_29">
      <!-- 0 -->
      <g transform="translate(60.077698 372.146438) scale(0.1 -0.1)">
       <use xlink:href="#DejaVuSans-30"/>
      </g>
     </g>
    </g>
    <g id="xtick_20">
     <g id="line2d_48">
      <g>
       <use xlink:href="#m99f11d7101" x="108.870798" y="357.548" style="stroke: #000000; stroke-width: 0.8"/>
      </g>
     </g>
     <g id="text_30">
      <!-- 50 -->
      <g transform="translate(102.508298 372.146438) scale(0.1 -0.1)">
       <defs>
        <path id="DejaVuSans-35" d="M 691 4666 
L 3169 4666 
L 3169 4134 
L 1269 4134 
L 1269 2991 
Q 1406 3038 1543 3061 
Q 1681 3084 1819 3084 
Q 2600 3084 3056 2656 
Q 3513 2228 3513 1497 
Q 3513 744 3044 326 
Q 2575 -91 1722 -91 
Q 1428 -91 1123 -41 
Q 819 9 494 109 
L 494 744 
Q 775 591 1075 516 
Q 1375 441 1709 441 
Q 2250 441 2565 725 
Q 2881 1009 2881 1497 
Q 2881 1984 2565 2268 
Q 2250 2553 1709 2553 
Q 1456 2553 1204 2497 
Q 953 2441 691 2322 
L 691 4666 
z
" transform="scale(0.015625)"/>
       </defs>
       <use xlink:href="#DejaVuSans-35"/>
       <use xlink:href="#DejaVuSans-30" x="63.623047"/>
      </g>
     </g>
    </g>
    <g id="xtick_21">
     <g id="line2d_49">
      <g>
       <use xlink:href="#m99f11d7101" x="154.482648" y="357.548" style="stroke: #000000; stroke-width: 0.8"/>
      </g>
     </g>
     <g id="text_31">
      <!-- 100 -->
      <g transform="translate(144.938898 372.146438) scale(0.1 -0.1)">
       <use xlink:href="#DejaVuSans-31"/>
       <use xlink:href="#DejaVuSans-30" x="63.623047"/>
       <use xlink:href="#DejaVuSans-30" x="127.246094"/>
      </g>
     </g>
    </g>
    <g id="text_32">
     <!-- time (units of $\omega_\mathrm{r}^{-1}$) -->
     <g transform="translate(62.983035 384.726125) scale(0.1 -0.1)">
      <defs>
       <path id="DejaVuSans-74" d="M 1172 4494 
L 1172 3500 
L 2356 3500 
L 2356 3053 
L 1172 3053 
L 1172 1153 
Q 1172 725 1289 603 
Q 1406 481 1766 481 
L 2356 481 
L 2356 0 
L 1766 0 
Q 1100 0 847 248 
Q 594 497 594 1153 
L 594 3053 
L 172 3053 
L 172 3500 
L 594 3500 
L 594 4494 
L 1172 4494 
z
" transform="scale(0.015625)"/>
       <path id="DejaVuSans-6d" d="M 3328 2828 
Q 3544 3216 3844 3400 
Q 4144 3584 4550 3584 
Q 5097 3584 5394 3201 
Q 5691 2819 5691 2113 
L 5691 0 
L 5113 0 
L 5113 2094 
Q 5113 2597 4934 2840 
Q 4756 3084 4391 3084 
Q 3944 3084 3684 2787 
Q 3425 2491 3425 1978 
L 3425 0 
L 2847 0 
L 2847 2094 
Q 2847 2600 2669 2842 
Q 2491 3084 2119 3084 
Q 1678 3084 1418 2786 
Q 1159 2488 1159 1978 
L 1159 0 
L 581 0 
L 581 3500 
L 1159 3500 
L 1159 2956 
Q 1356 3278 1631 3431 
Q 1906 3584 2284 3584 
Q 2666 3584 2933 3390 
Q 3200 3197 3328 2828 
z
" transform="scale(0.015625)"/>
       <path id="DejaVuSans-20" transform="scale(0.015625)"/>
       <path id="DejaVuSans-75" d="M 544 1381 
L 544 3500 
L 1119 3500 
L 1119 1403 
Q 1119 906 1312 657 
Q 1506 409 1894 409 
Q 2359 409 2629 706 
Q 2900 1003 2900 1516 
L 2900 3500 
L 3475 3500 
L 3475 0 
L 2900 0 
L 2900 538 
Q 2691 219 2414 64 
Q 2138 -91 1772 -91 
Q 1169 -91 856 284 
Q 544 659 544 1381 
z
M 1991 3584 
L 1991 3584 
z
" transform="scale(0.015625)"/>
       <path id="DejaVuSans-6e" d="M 3513 2113 
L 3513 0 
L 2938 0 
L 2938 2094 
Q 2938 2591 2744 2837 
Q 2550 3084 2163 3084 
Q 1697 3084 1428 2787 
Q 1159 2491 1159 1978 
L 1159 0 
L 581 0 
L 581 3500 
L 1159 3500 
L 1159 2956 
Q 1366 3272 1645 3428 
Q 1925 3584 2291 3584 
Q 2894 3584 3203 3211 
Q 3513 2838 3513 2113 
z
" transform="scale(0.015625)"/>
       <path id="DejaVuSans-73" d="M 2834 3397 
L 2834 2853 
Q 2591 2978 2328 3040 
Q 2066 3103 1784 3103 
Q 1356 3103 1142 2972 
Q 928 2841 928 2578 
Q 928 2378 1081 2264 
Q 1234 2150 1697 2047 
L 1894 2003 
Q 2506 1872 2764 1633 
Q 3022 1394 3022 966 
Q 3022 478 2636 193 
Q 2250 -91 1575 -91 
Q 1294 -91 989 -36 
Q 684 19 347 128 
L 347 722 
Q 666 556 975 473 
Q 1284 391 1588 391 
Q 1994 391 2212 530 
Q 2431 669 2431 922 
Q 2431 1156 2273 1281 
Q 2116 1406 1581 1522 
L 1381 1569 
Q 847 1681 609 1914 
Q 372 2147 372 2553 
Q 372 3047 722 3315 
Q 1072 3584 1716 3584 
Q 2034 3584 2315 3537 
Q 2597 3491 2834 3397 
z
" transform="scale(0.015625)"/>
       <path id="DejaVuSans-6f" d="M 1959 3097 
Q 1497 3097 1228 2736 
Q 959 2375 959 1747 
Q 959 1119 1226 758 
Q 1494 397 1959 397 
Q 2419 397 2687 759 
Q 2956 1122 2956 1747 
Q 2956 2369 2687 2733 
Q 2419 3097 1959 3097 
z
M 1959 3584 
Q 2709 3584 3137 3096 
Q 3566 2609 3566 1747 
Q 3566 888 3137 398 
Q 2709 -91 1959 -91 
Q 1206 -91 779 398 
Q 353 888 353 1747 
Q 353 2609 779 3096 
Q 1206 3584 1959 3584 
z
" transform="scale(0.015625)"/>
       <path id="DejaVuSans-Oblique-3c9" d="M 1369 -91 
Q 72 -91 434 1766 
Q 575 2500 1256 3500 
L 1875 3500 
Q 1231 2500 1088 1750 
Q 819 397 1519 397 
Q 2166 397 2478 2078 
L 3009 2078 
Q 2669 388 3316 397 
Q 4013 403 4275 1750 
Q 4419 2500 4169 3500 
L 4788 3500 
Q 5075 2500 4934 1766 
Q 4578 -94 3278 -91 
Q 2428 -88 2503 844 
Q 2194 -91 1369 -91 
z
" transform="scale(0.015625)"/>
      </defs>
      <use xlink:href="#DejaVuSans-74" transform="translate(0 0.684375)"/>
      <use xlink:href="#DejaVuSans-69" transform="translate(39.208984 0.684375)"/>
      <use xlink:href="#DejaVuSans-6d" transform="translate(66.992188 0.684375)"/>
      <use xlink:href="#DejaVuSans-65" transform="translate(164.404297 0.684375)"/>
      <use xlink:href="#DejaVuSans-20" transform="translate(225.927734 0.684375)"/>
      <use xlink:href="#DejaVuSans-28" transform="translate(257.714844 0.684375)"/>
      <use xlink:href="#DejaVuSans-75" transform="translate(296.728516 0.684375)"/>
      <use xlink:href="#DejaVuSans-6e" transform="translate(360.107422 0.684375)"/>
      <use xlink:href="#DejaVuSans-69" transform="translate(423.486328 0.684375)"/>
      <use xlink:href="#DejaVuSans-74" transform="translate(451.269531 0.684375)"/>
      <use xlink:href="#DejaVuSans-73" transform="translate(490.478516 0.684375)"/>
      <use xlink:href="#DejaVuSans-20" transform="translate(542.578125 0.684375)"/>
      <use xlink:href="#DejaVuSans-6f" transform="translate(574.365234 0.684375)"/>
      <use xlink:href="#DejaVuSans-66" transform="translate(635.546875 0.684375)"/>
      <use xlink:href="#DejaVuSans-20" transform="translate(670.751953 0.684375)"/>
      <use xlink:href="#DejaVuSans-Oblique-3c9" transform="translate(702.539062 0.684375)"/>
      <use xlink:href="#DejaVuSans-2212" transform="translate(790.745443 38.965625) scale(0.7)"/>
      <use xlink:href="#DejaVuSans-31" transform="translate(849.397786 38.965625) scale(0.7)"/>
      <use xlink:href="#DejaVuSans-72" transform="translate(786.279297 -26.659375) scale(0.7)"/>
      <use xlink:href="#DejaVuSans-29" transform="translate(896.668294 0.684375)"/>
     </g>
    </g>
   </g>
   <g id="matplotlib.axis_14">
    <g id="ytick_17">
     <g id="line2d_50">
      <g>
       <use xlink:href="#mf9e9ea7450" x="59.61" y="353.841459" style="stroke: #000000; stroke-width: 0.8"/>
      </g>
     </g>
     <g id="text_33">
      <!-- −1.0 -->
      <g transform="translate(28.327187 357.640678) scale(0.1 -0.1)">
       <use xlink:href="#DejaVuSans-2212"/>
       <use xlink:href="#DejaVuSans-31" x="83.789062"/>
       <use xlink:href="#DejaVuSans-2e" x="147.412109"/>
       <use xlink:href="#DejaVuSans-30" x="179.199219"/>
      </g>
     </g>
    </g>
    <g id="ytick_18">
     <g id="line2d_51">
      <g>
       <use xlink:href="#mf9e9ea7450" x="59.61" y="322.516705" style="stroke: #000000; stroke-width: 0.8"/>
      </g>
     </g>
     <g id="text_34">
      <!-- −0.5 -->
      <g transform="translate(28.327187 326.315924) scale(0.1 -0.1)">
       <use xlink:href="#DejaVuSans-2212"/>
       <use xlink:href="#DejaVuSans-30" x="83.789062"/>
       <use xlink:href="#DejaVuSans-2e" x="147.412109"/>
       <use xlink:href="#DejaVuSans-35" x="179.199219"/>
      </g>
     </g>
    </g>
    <g id="ytick_19">
     <g id="line2d_52">
      <g>
       <use xlink:href="#mf9e9ea7450" x="59.61" y="291.191951" style="stroke: #000000; stroke-width: 0.8"/>
      </g>
     </g>
     <g id="text_35">
      <!-- 0.0 -->
      <g transform="translate(36.706875 294.99117) scale(0.1 -0.1)">
       <use xlink:href="#DejaVuSans-30"/>
       <use xlink:href="#DejaVuSans-2e" x="63.623047"/>
       <use xlink:href="#DejaVuSans-30" x="95.410156"/>
      </g>
     </g>
    </g>
    <g id="text_36">
     <!-- $\langle \hat J_z \rangle$ -->
     <g transform="translate(24.727187 324.876049) rotate(-90) scale(0.1 -0.1)">
      <defs>
       <path id="DejaVuSans-Oblique-7a" d="M 744 3500 
L 3475 3500 
L 3372 2975 
L 738 459 
L 2913 459 
L 2822 0 
L -19 0 
L 84 525 
L 2719 3041 
L 653 3041 
L 744 3500 
z
" transform="scale(0.015625)"/>
      </defs>
      <use xlink:href="#DejaVuSans-27e8" transform="translate(0 0.609375)"/>
      <use xlink:href="#DejaVuSans-302" transform="translate(91.345703 30.015625)"/>
      <use xlink:href="#DejaVuSans-Oblique-4a" transform="translate(39.013672 0.609375)"/>
      <use xlink:href="#DejaVuSans-Oblique-7a" transform="translate(82.986328 -15.796875) scale(0.7)"/>
      <use xlink:href="#DejaVuSans-27e9" transform="translate(122.463867 0.609375)"/>
     </g>
    </g>
   </g>
   <g id="line2d_53">
    <path d="M 64.171185 353.841459 
L 73.293555 292.987377 
L 82.415925 288.46296 
L 91.538295 291.775641 
L 100.660665 288.991164 
L 109.783035 289.669868 
L 118.905405 291.192824 
L 128.027775 290.077882 
L 137.150145 288.308252 
L 146.272515 290.956257 
L 155.394885 289.071544 
" clip-path="url(#pfc00ba0da4)" style="fill: none; stroke: #1f77b4; stroke-width: 1.5; stroke-linecap: square"/>
   </g>
   <g id="line2d_54">
    <path d="M 64.171185 353.841459 
L 73.293555 290.227799 
L 82.415925 292.50901 
L 91.538295 290.56784 
L 100.660665 291.460266 
L 109.783035 290.476924 
L 118.905405 293.264116 
L 128.027775 291.855227 
L 137.150145 294.446584 
L 146.272515 292.061038 
L 155.394885 290.741697 
" clip-path="url(#pfc00ba0da4)" style="fill: none; stroke-dasharray: 1.5,2.475; stroke-dashoffset: 0; stroke: #ff7f0e; stroke-width: 1.5"/>
   </g>
   <g id="patch_33">
    <path d="M 59.61 357.548 
L 59.61 276.004099 
" style="fill: none; stroke: #000000; stroke-width: 0.8; stroke-linejoin: miter; stroke-linecap: square"/>
   </g>
   <g id="patch_34">
    <path d="M 159.95607 357.548 
L 159.95607 276.004099 
" style="fill: none; stroke: #000000; stroke-width: 0.8; stroke-linejoin: miter; stroke-linecap: square"/>
   </g>
   <g id="patch_35">
    <path d="M 59.61 357.548 
L 159.95607 357.548 
" style="fill: none; stroke: #000000; stroke-width: 0.8; stroke-linejoin: miter; stroke-linecap: square"/>
   </g>
   <g id="patch_36">
    <path d="M 59.61 276.004099 
L 159.95607 276.004099 
" style="fill: none; stroke: #000000; stroke-width: 0.8; stroke-linejoin: miter; stroke-linecap: square"/>
   </g>
   <g id="text_37">
    <!-- (g) -->
    <g transform="translate(29.506179 286.604806) scale(0.1 -0.1)">
     <defs>
      <path id="DejaVuSans-67" d="M 2906 1791 
Q 2906 2416 2648 2759 
Q 2391 3103 1925 3103 
Q 1463 3103 1205 2759 
Q 947 2416 947 1791 
Q 947 1169 1205 825 
Q 1463 481 1925 481 
Q 2391 481 2648 825 
Q 2906 1169 2906 1791 
z
M 3481 434 
Q 3481 -459 3084 -895 
Q 2688 -1331 1869 -1331 
Q 1566 -1331 1297 -1286 
Q 1028 -1241 775 -1147 
L 775 -588 
Q 1028 -725 1275 -790 
Q 1522 -856 1778 -856 
Q 2344 -856 2625 -561 
Q 2906 -266 2906 331 
L 2906 616 
Q 2728 306 2450 153 
Q 2172 0 1784 0 
Q 1141 0 747 490 
Q 353 981 353 1791 
Q 353 2603 747 3093 
Q 1141 3584 1784 3584 
Q 2172 3584 2450 3431 
Q 2728 3278 2906 2969 
L 2906 3500 
L 3481 3500 
L 3481 434 
z
" transform="scale(0.015625)"/>
     </defs>
     <use xlink:href="#DejaVuSans-28"/>
     <use xlink:href="#DejaVuSans-67" x="39.013672"/>
     <use xlink:href="#DejaVuSans-29" x="102.490234"/>
    </g>
   </g>
  </g>
  <g id="axes_8">
   <g id="patch_37">
    <path d="M 220.50207 357.548 
L 320.84814 357.548 
L 320.84814 276.004099 
L 220.50207 276.004099 
z
" style="fill: #ffffff"/>
   </g>
   <g id="PolyCollection_15">
    <defs>
     <path id="m39aed0b509" d="M 225.063255 -81.505055 
L 225.063255 -65.537132 
L 234.185625 -67.136548 
L 243.307995 -63.059617 
L 252.430365 -61.765485 
L 261.552735 -75.061155 
L 270.675105 -59.764955 
L 279.797475 -64.472146 
L 288.919845 -71.53672 
L 298.042215 -87.603732 
L 307.164585 -75.246471 
L 316.286955 -77.677196 
L 316.286955 -94.31644 
L 316.286955 -94.31644 
L 307.164585 -102.474171 
L 298.042215 -97.95538 
L 288.919845 -103.373739 
L 279.797475 -103.004479 
L 270.675105 -71.015684 
L 261.552735 -94.293425 
L 252.430365 -90.261205 
L 243.307995 -89.651009 
L 234.185625 -105.661369 
L 225.063255 -81.505055 
z
" style="stroke: #1f77b4; stroke-opacity: 0.2"/>
    </defs>
    <g clip-path="url(#p37c4025a55)">
     <use xlink:href="#m39aed0b509" x="0" y="403.2" style="fill: #1f77b4; fill-opacity: 0.2; stroke: #1f77b4; stroke-opacity: 0.2"/>
    </g>
   </g>
   <g id="PolyCollection_16">
    <defs>
     <path id="mf225ee646a" d="M 225.063255 -120.104317 
L 225.063255 -70.306844 
L 234.185625 -49.358541 
L 243.307995 -54.870877 
L 252.430365 -64.42995 
L 261.552735 -62.067157 
L 270.675105 -61.434014 
L 279.797475 -72.759707 
L 288.919845 -63.757415 
L 298.042215 -59.155655 
L 307.164585 -54.469954 
L 316.286955 -74.690119 
L 316.286955 -113.45652 
L 316.286955 -113.45652 
L 307.164585 -101.308236 
L 298.042215 -109.271158 
L 288.919845 -121.820114 
L 279.797475 -103.037347 
L 270.675105 -117.604627 
L 261.552735 -115.79633 
L 252.430365 -123.48936 
L 243.307995 -100.191653 
L 234.185625 -110.437071 
L 225.063255 -120.104317 
z
" style="stroke: #ff7f0e; stroke-opacity: 0.2"/>
    </defs>
    <g clip-path="url(#p37c4025a55)">
     <use xlink:href="#mf225ee646a" x="0" y="403.2" style="fill: #ff7f0e; fill-opacity: 0.2; stroke: #ff7f0e; stroke-opacity: 0.2"/>
    </g>
   </g>
   <g id="matplotlib.axis_15">
    <g id="xtick_22">
     <g id="line2d_55">
      <g>
       <use xlink:href="#m99f11d7101" x="224.151018" y="357.548" style="stroke: #000000; stroke-width: 0.8"/>
      </g>
     </g>
     <g id="text_38">
      <!-- 0 -->
      <g transform="translate(220.969768 372.146438) scale(0.1 -0.1)">
       <use xlink:href="#DejaVuSans-30"/>
      </g>
     </g>
    </g>
    <g id="xtick_23">
     <g id="line2d_56">
      <g>
       <use xlink:href="#m99f11d7101" x="269.762868" y="357.548" style="stroke: #000000; stroke-width: 0.8"/>
      </g>
     </g>
     <g id="text_39">
      <!-- 50 -->
      <g transform="translate(263.400368 372.146438) scale(0.1 -0.1)">
       <use xlink:href="#DejaVuSans-35"/>
       <use xlink:href="#DejaVuSans-30" x="63.623047"/>
      </g>
     </g>
    </g>
    <g id="xtick_24">
     <g id="line2d_57">
      <g>
       <use xlink:href="#m99f11d7101" x="315.374718" y="357.548" style="stroke: #000000; stroke-width: 0.8"/>
      </g>
     </g>
     <g id="text_40">
      <!-- 100 -->
      <g transform="translate(305.830968 372.146438) scale(0.1 -0.1)">
       <use xlink:href="#DejaVuSans-31"/>
       <use xlink:href="#DejaVuSans-30" x="63.623047"/>
       <use xlink:href="#DejaVuSans-30" x="127.246094"/>
      </g>
     </g>
    </g>
    <g id="text_41">
     <!-- time (units of $\omega_\mathrm{r}^{-1}$) -->
     <g transform="translate(223.875105 384.726125) scale(0.1 -0.1)">
      <use xlink:href="#DejaVuSans-74" transform="translate(0 0.684375)"/>
      <use xlink:href="#DejaVuSans-69" transform="translate(39.208984 0.684375)"/>
      <use xlink:href="#DejaVuSans-6d" transform="translate(66.992188 0.684375)"/>
      <use xlink:href="#DejaVuSans-65" transform="translate(164.404297 0.684375)"/>
      <use xlink:href="#DejaVuSans-20" transform="translate(225.927734 0.684375)"/>
      <use xlink:href="#DejaVuSans-28" transform="translate(257.714844 0.684375)"/>
      <use xlink:href="#DejaVuSans-75" transform="translate(296.728516 0.684375)"/>
      <use xlink:href="#DejaVuSans-6e" transform="translate(360.107422 0.684375)"/>
      <use xlink:href="#DejaVuSans-69" transform="translate(423.486328 0.684375)"/>
      <use xlink:href="#DejaVuSans-74" transform="translate(451.269531 0.684375)"/>
      <use xlink:href="#DejaVuSans-73" transform="translate(490.478516 0.684375)"/>
      <use xlink:href="#DejaVuSans-20" transform="translate(542.578125 0.684375)"/>
      <use xlink:href="#DejaVuSans-6f" transform="translate(574.365234 0.684375)"/>
      <use xlink:href="#DejaVuSans-66" transform="translate(635.546875 0.684375)"/>
      <use xlink:href="#DejaVuSans-20" transform="translate(670.751953 0.684375)"/>
      <use xlink:href="#DejaVuSans-Oblique-3c9" transform="translate(702.539062 0.684375)"/>
      <use xlink:href="#DejaVuSans-2212" transform="translate(790.745443 38.965625) scale(0.7)"/>
      <use xlink:href="#DejaVuSans-31" transform="translate(849.397786 38.965625) scale(0.7)"/>
      <use xlink:href="#DejaVuSans-72" transform="translate(786.279297 -26.659375) scale(0.7)"/>
      <use xlink:href="#DejaVuSans-29" transform="translate(896.668294 0.684375)"/>
     </g>
    </g>
   </g>
   <g id="matplotlib.axis_16">
    <g id="ytick_20">
     <g id="line2d_58">
      <g>
       <use xlink:href="#mf9e9ea7450" x="220.50207" y="345.86319" style="stroke: #000000; stroke-width: 0.8"/>
      </g>
     </g>
     <g id="text_42">
      <!-- 0.45 -->
      <g transform="translate(191.236445 349.662409) scale(0.1 -0.1)">
       <defs>
        <path id="DejaVuSans-34" d="M 2419 4116 
L 825 1625 
L 2419 1625 
L 2419 4116 
z
M 2253 4666 
L 3047 4666 
L 3047 1625 
L 3713 1625 
L 3713 1100 
L 3047 1100 
L 3047 0 
L 2419 0 
L 2419 1100 
L 313 1100 
L 313 1709 
L 2253 4666 
z
" transform="scale(0.015625)"/>
       </defs>
       <use xlink:href="#DejaVuSans-30"/>
       <use xlink:href="#DejaVuSans-2e" x="63.623047"/>
       <use xlink:href="#DejaVuSans-34" x="95.410156"/>
       <use xlink:href="#DejaVuSans-35" x="159.033203"/>
      </g>
     </g>
    </g>
    <g id="ytick_21">
     <g id="line2d_59">
      <g>
       <use xlink:href="#mf9e9ea7450" x="220.50207" y="321.207153" style="stroke: #000000; stroke-width: 0.8"/>
      </g>
     </g>
     <g id="text_43">
      <!-- 0.50 -->
      <g transform="translate(191.236445 325.006371) scale(0.1 -0.1)">
       <use xlink:href="#DejaVuSans-30"/>
       <use xlink:href="#DejaVuSans-2e" x="63.623047"/>
       <use xlink:href="#DejaVuSans-35" x="95.410156"/>
       <use xlink:href="#DejaVuSans-30" x="159.033203"/>
      </g>
     </g>
    </g>
    <g id="ytick_22">
     <g id="line2d_60">
      <g>
       <use xlink:href="#mf9e9ea7450" x="220.50207" y="296.551115" style="stroke: #000000; stroke-width: 0.8"/>
      </g>
     </g>
     <g id="text_44">
      <!-- 0.55 -->
      <g transform="translate(191.236445 300.350334) scale(0.1 -0.1)">
       <use xlink:href="#DejaVuSans-30"/>
       <use xlink:href="#DejaVuSans-2e" x="63.623047"/>
       <use xlink:href="#DejaVuSans-35" x="95.410156"/>
       <use xlink:href="#DejaVuSans-35" x="159.033203"/>
      </g>
     </g>
    </g>
    <g id="text_45">
     <!-- $\mathcal{B}$ -->
     <g transform="translate(187.656758 320.426049) rotate(-90) scale(0.1 -0.1)">
      <defs>
       <path id="STIXNonUnicode-Italic-e22e" d="M 2080 3341 
L 2099 3328 
Q 2810 4288 3853 4288 
Q 4154 4288 4346 4102 
Q 4538 3917 4538 3622 
Q 4538 3213 4173 2893 
Q 3808 2573 3430 2451 
Q 3866 2406 4144 2169 
Q 4422 1933 4422 1485 
Q 4422 1152 4211 857 
Q 4000 563 3677 377 
Q 3354 192 2986 86 
Q 2618 -19 2291 -19 
Q 1792 -19 1517 186 
L 1587 326 
Q 1843 198 2272 198 
Q 2854 198 3296 595 
Q 3738 992 3738 1478 
Q 3738 1798 3459 2003 
Q 3181 2208 2630 2208 
L 2208 2208 
L 2278 2451 
L 2400 2451 
Q 2611 2451 2867 2508 
Q 3123 2566 3385 2681 
Q 3648 2797 3824 3008 
Q 4000 3219 4000 3482 
Q 4000 3987 3456 3987 
Q 3245 3987 3008 3865 
Q 2771 3744 2624 3590 
Q 2349 3315 2144 2908 
Q 1939 2502 1715 1728 
L 1478 909 
Q 1344 448 1193 253 
Q 1043 58 666 13 
Q 544 0 224 0 
L 282 154 
Q 474 154 576 333 
Q 678 512 870 1190 
L 1536 3514 
Q 1555 3571 1555 3667 
Q 1555 3859 1286 3859 
L 1146 3859 
L 1171 4013 
Q 1875 4077 2355 4237 
L 2080 3341 
z
" transform="scale(0.015625)"/>
      </defs>
      <use xlink:href="#STIXNonUnicode-Italic-e22e"/>
     </g>
    </g>
   </g>
   <g id="line2d_61">
    <path d="M 225.063255 328.410312 
L 234.185625 319.03326 
L 243.307995 325.261359 
L 252.430365 327.719248 
L 261.552735 320.250599 
L 270.675105 336.886283 
L 279.797475 317.687972 
L 288.919845 316.344991 
L 298.042215 311.808798 
L 307.164585 318.150907 
L 316.286955 317.24062 
" clip-path="url(#p37c4025a55)" style="fill: none; stroke: #1f77b4; stroke-width: 1.5; stroke-linecap: square"/>
   </g>
   <g id="line2d_62">
    <path d="M 225.063255 308.697286 
L 234.185625 325.233319 
L 243.307995 328.358781 
L 252.430365 317.556191 
L 261.552735 311.851452 
L 270.675105 317.71597 
L 279.797475 315.635911 
L 288.919845 312.938731 
L 298.042215 313.757094 
L 307.164585 319.778507 
L 316.286955 309.901384 
" clip-path="url(#p37c4025a55)" style="fill: none; stroke-dasharray: 1.5,2.475; stroke-dashoffset: 0; stroke: #ff7f0e; stroke-width: 1.5"/>
   </g>
   <g id="patch_38">
    <path d="M 220.50207 357.548 
L 220.50207 276.004099 
" style="fill: none; stroke: #000000; stroke-width: 0.8; stroke-linejoin: miter; stroke-linecap: square"/>
   </g>
   <g id="patch_39">
    <path d="M 320.84814 357.548 
L 320.84814 276.004099 
" style="fill: none; stroke: #000000; stroke-width: 0.8; stroke-linejoin: miter; stroke-linecap: square"/>
   </g>
   <g id="patch_40">
    <path d="M 220.50207 357.548 
L 320.84814 357.548 
" style="fill: none; stroke: #000000; stroke-width: 0.8; stroke-linejoin: miter; stroke-linecap: square"/>
   </g>
   <g id="patch_41">
    <path d="M 220.50207 276.004099 
L 320.84814 276.004099 
" style="fill: none; stroke: #000000; stroke-width: 0.8; stroke-linejoin: miter; stroke-linecap: square"/>
   </g>
   <g id="text_46">
    <!-- (h) -->
    <g transform="translate(190.398249 286.604806) scale(0.1 -0.1)">
     <defs>
      <path id="DejaVuSans-68" d="M 3513 2113 
L 3513 0 
L 2938 0 
L 2938 2094 
Q 2938 2591 2744 2837 
Q 2550 3084 2163 3084 
Q 1697 3084 1428 2787 
Q 1159 2491 1159 1978 
L 1159 0 
L 581 0 
L 581 4863 
L 1159 4863 
L 1159 2956 
Q 1366 3272 1645 3428 
Q 1925 3584 2291 3584 
Q 2894 3584 3203 3211 
Q 3513 2838 3513 2113 
z
" transform="scale(0.015625)"/>
     </defs>
     <use xlink:href="#DejaVuSans-28"/>
     <use xlink:href="#DejaVuSans-68" x="39.013672"/>
     <use xlink:href="#DejaVuSans-29" x="102.392578"/>
    </g>
   </g>
  </g>
 </g>
 <defs>
  <clipPath id="p30d54194f2">
   <rect x="59.61" y="10.8" width="100.34607" height="81.543901"/>
  </clipPath>
  <clipPath id="p20a1e39c73">
   <rect x="220.50207" y="10.8" width="100.34607" height="81.543901"/>
  </clipPath>
  <clipPath id="p9fef094039">
   <rect x="59.61" y="99.201366" width="100.34607" height="81.543901"/>
  </clipPath>
  <clipPath id="pb03e916a89">
   <rect x="220.50207" y="99.201366" width="100.34607" height="81.543901"/>
  </clipPath>
  <clipPath id="p796639442d">
   <rect x="59.61" y="187.602732" width="100.34607" height="81.543901"/>
  </clipPath>
  <clipPath id="pd38b4f468f">
   <rect x="220.50207" y="187.602732" width="100.34607" height="81.543901"/>
  </clipPath>
  <clipPath id="pfc00ba0da4">
   <rect x="59.61" y="276.004099" width="100.34607" height="81.543901"/>
  </clipPath>
  <clipPath id="p37c4025a55">
   <rect x="220.50207" y="276.004099" width="100.34607" height="81.543901"/>
  </clipPath>
 </defs>
</svg>
