<?xml version="1.0" encoding="utf-8" standalone="no"?>
<!DOCTYPE svg PUBLIC "-//W3C//DTD SVG 1.1//EN"
  "http://www.w3.org/Graphics/SVG/1.1/DTD/svg11.dtd">
<svg xmlns:xlink="http://www.w3.org/1999/xlink" width="334.8pt" height="259.2pt" viewBox="0 0 334.8 259.2" xmlns="http://www.w3.org/2000/svg" version="1.1">
 <metadata>
  <rdf:RDF xmlns:dc="http://purl.org/dc/elements/1.1/" xmlns:cc="http://creativecommons.org/ns#" xmlns:rdf="http://www.w3.org/1999/02/22-rdf-syntax-ns#">
   <cc:Work>
    <dc:type rdf:resource="http://purl.org/dc/dcmitype/StillImage"/>
    <dc:date>2023-11-02T12:33:10.144604</dc:date>
    <dc:format>image/svg+xml</dc:format>
    <dc:creator>
     <cc:Agent>
      <dc:title>Matplotlib v3.7.1, https://matplotlib.org/</dc:title>
     </cc:Agent>
    </dc:creator>
   </cc:Work>
  </rdf:RDF>
 </metadata>
 <defs>
  <style type="text/css">*{stroke-linejoin: round; stroke-linecap: butt}</style>
 </defs>
 <g id="figure_1">
  <g id="patch_1">
   <path d="M 0 259.2 
L 334.8 259.2 
L 334.8 0 
L 0 0 
z
" style="fill: #ffffff"/>
  </g>
  <g id="axes_1">
   <g id="patch_2">
    <path d="M 45.31 93.84 
L 158.731063 93.84 
L 158.731063 10.8 
L 45.31 10.8 
z
" style="fill: #ffffff"/>
   </g>
   <g id="matplotlib.axis_1">
    <g id="xtick_1">
     <g id="line2d_1">
      <defs>
       <path id="mb731611f96" d="M 0 0 
L 0 3.5 
" style="stroke: #000000; stroke-width: 0.8"/>
      </defs>
      <g>
       <use xlink:href="#mb731611f96" x="50.465503" y="93.84" style="stroke: #000000; stroke-width: 0.8"/>
      </g>
     </g>
     <g id="text_1">
      <!-- $0$ -->
      <g transform="translate(47.265503 108.438437) scale(0.1 -0.1)">
       <defs>
        <path id="DejaVuSans-30" d="M 2034 4250 
Q 1547 4250 1301 3770 
Q 1056 3291 1056 2328 
Q 1056 1369 1301 889 
Q 1547 409 2034 409 
Q 2525 409 2770 889 
Q 3016 1369 3016 2328 
Q 3016 3291 2770 3770 
Q 2525 4250 2034 4250 
z
M 2034 4750 
Q 2819 4750 3233 4129 
Q 3647 3509 3647 2328 
Q 3647 1150 3233 529 
Q 2819 -91 2034 -91 
Q 1250 -91 836 529 
Q 422 1150 422 2328 
Q 422 3509 836 4129 
Q 1250 4750 2034 4750 
z
" transform="scale(0.015625)"/>
       </defs>
       <use xlink:href="#DejaVuSans-30" transform="translate(0 0.78125)"/>
      </g>
     </g>
    </g>
    <g id="xtick_2">
     <g id="line2d_2">
      <g>
       <use xlink:href="#mb731611f96" x="76.803398" y="93.84" style="stroke: #000000; stroke-width: 0.8"/>
      </g>
     </g>
     <g id="text_2">
      <!-- $\pi/2$ -->
      <g transform="translate(69.103398 108.438437) scale(0.1 -0.1)">
       <defs>
        <path id="DejaVuSans-Oblique-3c0" d="M 584 3500 
L 3938 3500 
L 3825 2925 
L 3384 2925 
L 2966 775 
Q 2922 550 2981 450 
Q 3038 353 3209 353 
Q 3256 353 3325 363 
Q 3397 369 3419 372 
L 3338 -44 
Q 3222 -84 3103 -103 
Q 2981 -122 2866 -122 
Q 2491 -122 2388 81 
Q 2284 288 2391 838 
L 2797 2925 
L 1506 2925 
L 938 0 
L 350 0 
L 919 2925 
L 472 2925 
L 584 3500 
z
" transform="scale(0.015625)"/>
        <path id="DejaVuSans-2f" d="M 1625 4666 
L 2156 4666 
L 531 -594 
L 0 -594 
L 1625 4666 
z
" transform="scale(0.015625)"/>
        <path id="DejaVuSans-32" d="M 1228 531 
L 3431 531 
L 3431 0 
L 469 0 
L 469 531 
Q 828 903 1448 1529 
Q 2069 2156 2228 2338 
Q 2531 2678 2651 2914 
Q 2772 3150 2772 3378 
Q 2772 3750 2511 3984 
Q 2250 4219 1831 4219 
Q 1534 4219 1204 4116 
Q 875 4013 500 3803 
L 500 4441 
Q 881 4594 1212 4672 
Q 1544 4750 1819 4750 
Q 2544 4750 2975 4387 
Q 3406 4025 3406 3419 
Q 3406 3131 3298 2873 
Q 3191 2616 2906 2266 
Q 2828 2175 2409 1742 
Q 1991 1309 1228 531 
z
" transform="scale(0.015625)"/>
       </defs>
       <use xlink:href="#DejaVuSans-Oblique-3c0" transform="translate(0 0.78125)"/>
       <use xlink:href="#DejaVuSans-2f" transform="translate(60.205078 0.78125)"/>
       <use xlink:href="#DejaVuSans-32" transform="translate(90.271484 0.78125)"/>
      </g>
     </g>
    </g>
    <g id="xtick_3">
     <g id="line2d_3">
      <g>
       <use xlink:href="#mb731611f96" x="103.141293" y="93.84" style="stroke: #000000; stroke-width: 0.8"/>
      </g>
     </g>
     <g id="text_3">
      <!-- $\pi$ -->
      <g transform="translate(100.091293 108.438437) scale(0.1 -0.1)">
       <use xlink:href="#DejaVuSans-Oblique-3c0" transform="translate(0 0.3125)"/>
      </g>
     </g>
    </g>
    <g id="xtick_4">
     <g id="line2d_4">
      <g>
       <use xlink:href="#mb731611f96" x="129.479188" y="93.84" style="stroke: #000000; stroke-width: 0.8"/>
      </g>
     </g>
     <g id="text_4">
      <!-- $3\pi/2$ -->
      <g transform="translate(118.579188 108.438437) scale(0.1 -0.1)">
       <defs>
        <path id="DejaVuSans-33" d="M 2597 2516 
Q 3050 2419 3304 2112 
Q 3559 1806 3559 1356 
Q 3559 666 3084 287 
Q 2609 -91 1734 -91 
Q 1441 -91 1130 -33 
Q 819 25 488 141 
L 488 750 
Q 750 597 1062 519 
Q 1375 441 1716 441 
Q 2309 441 2620 675 
Q 2931 909 2931 1356 
Q 2931 1769 2642 2001 
Q 2353 2234 1838 2234 
L 1294 2234 
L 1294 2753 
L 1863 2753 
Q 2328 2753 2575 2939 
Q 2822 3125 2822 3475 
Q 2822 3834 2567 4026 
Q 2313 4219 1838 4219 
Q 1578 4219 1281 4162 
Q 984 4106 628 3988 
L 628 4550 
Q 988 4650 1302 4700 
Q 1616 4750 1894 4750 
Q 2613 4750 3031 4423 
Q 3450 4097 3450 3541 
Q 3450 3153 3228 2886 
Q 3006 2619 2597 2516 
z
" transform="scale(0.015625)"/>
       </defs>
       <use xlink:href="#DejaVuSans-33" transform="translate(0 0.78125)"/>
       <use xlink:href="#DejaVuSans-Oblique-3c0" transform="translate(63.623047 0.78125)"/>
       <use xlink:href="#DejaVuSans-2f" transform="translate(123.828125 0.78125)"/>
       <use xlink:href="#DejaVuSans-32" transform="translate(153.894531 0.78125)"/>
      </g>
     </g>
    </g>
    <g id="xtick_5">
     <g id="line2d_5">
      <g>
       <use xlink:href="#mb731611f96" x="155.817083" y="93.84" style="stroke: #000000; stroke-width: 0.8"/>
      </g>
     </g>
     <g id="text_5">
      <!-- $2\pi$ -->
      <g transform="translate(149.617083 108.438437) scale(0.1 -0.1)">
       <use xlink:href="#DejaVuSans-32" transform="translate(0 0.78125)"/>
       <use xlink:href="#DejaVuSans-Oblique-3c0" transform="translate(63.623047 0.78125)"/>
      </g>
     </g>
    </g>
    <g id="text_6">
     <!-- atom position $x$ -->
     <g transform="translate(63.120531 119.618125) scale(0.1 -0.1)">
      <defs>
       <path id="DejaVuSans-61" d="M 2194 1759 
Q 1497 1759 1228 1600 
Q 959 1441 959 1056 
Q 959 750 1161 570 
Q 1363 391 1709 391 
Q 2188 391 2477 730 
Q 2766 1069 2766 1631 
L 2766 1759 
L 2194 1759 
z
M 3341 1997 
L 3341 0 
L 2766 0 
L 2766 531 
Q 2569 213 2275 61 
Q 1981 -91 1556 -91 
Q 1019 -91 701 211 
Q 384 513 384 1019 
Q 384 1609 779 1909 
Q 1175 2209 1959 2209 
L 2766 2209 
L 2766 2266 
Q 2766 2663 2505 2880 
Q 2244 3097 1772 3097 
Q 1472 3097 1187 3025 
Q 903 2953 641 2809 
L 641 3341 
Q 956 3463 1253 3523 
Q 1550 3584 1831 3584 
Q 2591 3584 2966 3190 
Q 3341 2797 3341 1997 
z
" transform="scale(0.015625)"/>
       <path id="DejaVuSans-74" d="M 1172 4494 
L 1172 3500 
L 2356 3500 
L 2356 3053 
L 1172 3053 
L 1172 1153 
Q 1172 725 1289 603 
Q 1406 481 1766 481 
L 2356 481 
L 2356 0 
L 1766 0 
Q 1100 0 847 248 
Q 594 497 594 1153 
L 594 3053 
L 172 3053 
L 172 3500 
L 594 3500 
L 594 4494 
L 1172 4494 
z
" transform="scale(0.015625)"/>
       <path id="DejaVuSans-6f" d="M 1959 3097 
Q 1497 3097 1228 2736 
Q 959 2375 959 1747 
Q 959 1119 1226 758 
Q 1494 397 1959 397 
Q 2419 397 2687 759 
Q 2956 1122 2956 1747 
Q 2956 2369 2687 2733 
Q 2419 3097 1959 3097 
z
M 1959 3584 
Q 2709 3584 3137 3096 
Q 3566 2609 3566 1747 
Q 3566 888 3137 398 
Q 2709 -91 1959 -91 
Q 1206 -91 779 398 
Q 353 888 353 1747 
Q 353 2609 779 3096 
Q 1206 3584 1959 3584 
z
" transform="scale(0.015625)"/>
       <path id="DejaVuSans-6d" d="M 3328 2828 
Q 3544 3216 3844 3400 
Q 4144 3584 4550 3584 
Q 5097 3584 5394 3201 
Q 5691 2819 5691 2113 
L 5691 0 
L 5113 0 
L 5113 2094 
Q 5113 2597 4934 2840 
Q 4756 3084 4391 3084 
Q 3944 3084 3684 2787 
Q 3425 2491 3425 1978 
L 3425 0 
L 2847 0 
L 2847 2094 
Q 2847 2600 2669 2842 
Q 2491 3084 2119 3084 
Q 1678 3084 1418 2786 
Q 1159 2488 1159 1978 
L 1159 0 
L 581 0 
L 581 3500 
L 1159 3500 
L 1159 2956 
Q 1356 3278 1631 3431 
Q 1906 3584 2284 3584 
Q 2666 3584 2933 3390 
Q 3200 3197 3328 2828 
z
" transform="scale(0.015625)"/>
       <path id="DejaVuSans-20" transform="scale(0.015625)"/>
       <path id="DejaVuSans-70" d="M 1159 525 
L 1159 -1331 
L 581 -1331 
L 581 3500 
L 1159 3500 
L 1159 2969 
Q 1341 3281 1617 3432 
Q 1894 3584 2278 3584 
Q 2916 3584 3314 3078 
Q 3713 2572 3713 1747 
Q 3713 922 3314 415 
Q 2916 -91 2278 -91 
Q 1894 -91 1617 61 
Q 1341 213 1159 525 
z
M 3116 1747 
Q 3116 2381 2855 2742 
Q 2594 3103 2138 3103 
Q 1681 3103 1420 2742 
Q 1159 2381 1159 1747 
Q 1159 1113 1420 752 
Q 1681 391 2138 391 
Q 2594 391 2855 752 
Q 3116 1113 3116 1747 
z
" transform="scale(0.015625)"/>
       <path id="DejaVuSans-73" d="M 2834 3397 
L 2834 2853 
Q 2591 2978 2328 3040 
Q 2066 3103 1784 3103 
Q 1356 3103 1142 2972 
Q 928 2841 928 2578 
Q 928 2378 1081 2264 
Q 1234 2150 1697 2047 
L 1894 2003 
Q 2506 1872 2764 1633 
Q 3022 1394 3022 966 
Q 3022 478 2636 193 
Q 2250 -91 1575 -91 
Q 1294 -91 989 -36 
Q 684 19 347 128 
L 347 722 
Q 666 556 975 473 
Q 1284 391 1588 391 
Q 1994 391 2212 530 
Q 2431 669 2431 922 
Q 2431 1156 2273 1281 
Q 2116 1406 1581 1522 
L 1381 1569 
Q 847 1681 609 1914 
Q 372 2147 372 2553 
Q 372 3047 722 3315 
Q 1072 3584 1716 3584 
Q 2034 3584 2315 3537 
Q 2597 3491 2834 3397 
z
" transform="scale(0.015625)"/>
       <path id="DejaVuSans-69" d="M 603 3500 
L 1178 3500 
L 1178 0 
L 603 0 
L 603 3500 
z
M 603 4863 
L 1178 4863 
L 1178 4134 
L 603 4134 
L 603 4863 
z
" transform="scale(0.015625)"/>
       <path id="DejaVuSans-6e" d="M 3513 2113 
L 3513 0 
L 2938 0 
L 2938 2094 
Q 2938 2591 2744 2837 
Q 2550 3084 2163 3084 
Q 1697 3084 1428 2787 
Q 1159 2491 1159 1978 
L 1159 0 
L 581 0 
L 581 3500 
L 1159 3500 
L 1159 2956 
Q 1366 3272 1645 3428 
Q 1925 3584 2291 3584 
Q 2894 3584 3203 3211 
Q 3513 2838 3513 2113 
z
" transform="scale(0.015625)"/>
       <path id="DejaVuSans-Oblique-78" d="M 3841 3500 
L 2234 1784 
L 3219 0 
L 2559 0 
L 1819 1388 
L 531 0 
L -166 0 
L 1556 1844 
L 641 3500 
L 1300 3500 
L 1972 2234 
L 3144 3500 
L 3841 3500 
z
" transform="scale(0.015625)"/>
      </defs>
      <use xlink:href="#DejaVuSans-61" transform="translate(0 0.015625)"/>
      <use xlink:href="#DejaVuSans-74" transform="translate(61.279297 0.015625)"/>
      <use xlink:href="#DejaVuSans-6f" transform="translate(100.488281 0.015625)"/>
      <use xlink:href="#DejaVuSans-6d" transform="translate(161.669922 0.015625)"/>
      <use xlink:href="#DejaVuSans-20" transform="translate(259.082031 0.015625)"/>
      <use xlink:href="#DejaVuSans-70" transform="translate(290.869141 0.015625)"/>
      <use xlink:href="#DejaVuSans-6f" transform="translate(354.345703 0.015625)"/>
      <use xlink:href="#DejaVuSans-73" transform="translate(415.527344 0.015625)"/>
      <use xlink:href="#DejaVuSans-69" transform="translate(467.626953 0.015625)"/>
      <use xlink:href="#DejaVuSans-74" transform="translate(495.410156 0.015625)"/>
      <use xlink:href="#DejaVuSans-69" transform="translate(534.619141 0.015625)"/>
      <use xlink:href="#DejaVuSans-6f" transform="translate(562.402344 0.015625)"/>
      <use xlink:href="#DejaVuSans-6e" transform="translate(623.583984 0.015625)"/>
      <use xlink:href="#DejaVuSans-20" transform="translate(686.962891 0.015625)"/>
      <use xlink:href="#DejaVuSans-Oblique-78" transform="translate(718.75 0.015625)"/>
     </g>
    </g>
   </g>
   <g id="matplotlib.axis_2">
    <g id="ytick_1">
     <g id="line2d_6">
      <defs>
       <path id="m082e2084e9" d="M 0 0 
L -3.5 0 
" style="stroke: #000000; stroke-width: 0.8"/>
      </defs>
      <g>
       <use xlink:href="#m082e2084e9" x="45.31" y="93.84" style="stroke: #000000; stroke-width: 0.8"/>
      </g>
     </g>
     <g id="text_7">
      <!-- 0.0 -->
      <g transform="translate(22.406875 97.639219) scale(0.1 -0.1)">
       <defs>
        <path id="DejaVuSans-2e" d="M 684 794 
L 1344 794 
L 1344 0 
L 684 0 
L 684 794 
z
" transform="scale(0.015625)"/>
       </defs>
       <use xlink:href="#DejaVuSans-30"/>
       <use xlink:href="#DejaVuSans-2e" x="63.623047"/>
       <use xlink:href="#DejaVuSans-30" x="95.410156"/>
      </g>
     </g>
    </g>
    <g id="ytick_2">
     <g id="line2d_7">
      <g>
       <use xlink:href="#m082e2084e9" x="45.31" y="57.6896" style="stroke: #000000; stroke-width: 0.8"/>
      </g>
     </g>
     <g id="text_8">
      <!-- 0.1 -->
      <g transform="translate(22.406875 61.488819) scale(0.1 -0.1)">
       <defs>
        <path id="DejaVuSans-31" d="M 794 531 
L 1825 531 
L 1825 4091 
L 703 3866 
L 703 4441 
L 1819 4666 
L 2450 4666 
L 2450 531 
L 3481 531 
L 3481 0 
L 794 0 
L 794 531 
z
" transform="scale(0.015625)"/>
       </defs>
       <use xlink:href="#DejaVuSans-30"/>
       <use xlink:href="#DejaVuSans-2e" x="63.623047"/>
       <use xlink:href="#DejaVuSans-31" x="95.410156"/>
      </g>
     </g>
    </g>
    <g id="ytick_3">
     <g id="line2d_8">
      <g>
       <use xlink:href="#m082e2084e9" x="45.31" y="21.5392" style="stroke: #000000; stroke-width: 0.8"/>
      </g>
     </g>
     <g id="text_9">
      <!-- 0.2 -->
      <g transform="translate(22.406875 25.338419) scale(0.1 -0.1)">
       <use xlink:href="#DejaVuSans-30"/>
       <use xlink:href="#DejaVuSans-2e" x="63.623047"/>
       <use xlink:href="#DejaVuSans-32" x="95.410156"/>
      </g>
     </g>
    </g>
    <g id="text_10">
     <!-- distribution -->
     <g transform="translate(18.827187 80.812969) rotate(-90) scale(0.1 -0.1)">
      <defs>
       <path id="DejaVuSans-64" d="M 2906 2969 
L 2906 4863 
L 3481 4863 
L 3481 0 
L 2906 0 
L 2906 525 
Q 2725 213 2448 61 
Q 2172 -91 1784 -91 
Q 1150 -91 751 415 
Q 353 922 353 1747 
Q 353 2572 751 3078 
Q 1150 3584 1784 3584 
Q 2172 3584 2448 3432 
Q 2725 3281 2906 2969 
z
M 947 1747 
Q 947 1113 1208 752 
Q 1469 391 1925 391 
Q 2381 391 2643 752 
Q 2906 1113 2906 1747 
Q 2906 2381 2643 2742 
Q 2381 3103 1925 3103 
Q 1469 3103 1208 2742 
Q 947 2381 947 1747 
z
" transform="scale(0.015625)"/>
       <path id="DejaVuSans-72" d="M 2631 2963 
Q 2534 3019 2420 3045 
Q 2306 3072 2169 3072 
Q 1681 3072 1420 2755 
Q 1159 2438 1159 1844 
L 1159 0 
L 581 0 
L 581 3500 
L 1159 3500 
L 1159 2956 
Q 1341 3275 1631 3429 
Q 1922 3584 2338 3584 
Q 2397 3584 2469 3576 
Q 2541 3569 2628 3553 
L 2631 2963 
z
" transform="scale(0.015625)"/>
       <path id="DejaVuSans-62" d="M 3116 1747 
Q 3116 2381 2855 2742 
Q 2594 3103 2138 3103 
Q 1681 3103 1420 2742 
Q 1159 2381 1159 1747 
Q 1159 1113 1420 752 
Q 1681 391 2138 391 
Q 2594 391 2855 752 
Q 3116 1113 3116 1747 
z
M 1159 2969 
Q 1341 3281 1617 3432 
Q 1894 3584 2278 3584 
Q 2916 3584 3314 3078 
Q 3713 2572 3713 1747 
Q 3713 922 3314 415 
Q 2916 -91 2278 -91 
Q 1894 -91 1617 61 
Q 1341 213 1159 525 
L 1159 0 
L 581 0 
L 581 4863 
L 1159 4863 
L 1159 2969 
z
" transform="scale(0.015625)"/>
       <path id="DejaVuSans-75" d="M 544 1381 
L 544 3500 
L 1119 3500 
L 1119 1403 
Q 1119 906 1312 657 
Q 1506 409 1894 409 
Q 2359 409 2629 706 
Q 2900 1003 2900 1516 
L 2900 3500 
L 3475 3500 
L 3475 0 
L 2900 0 
L 2900 538 
Q 2691 219 2414 64 
Q 2138 -91 1772 -91 
Q 1169 -91 856 284 
Q 544 659 544 1381 
z
M 1991 3584 
L 1991 3584 
z
" transform="scale(0.015625)"/>
      </defs>
      <use xlink:href="#DejaVuSans-64"/>
      <use xlink:href="#DejaVuSans-69" x="63.476562"/>
      <use xlink:href="#DejaVuSans-73" x="91.259766"/>
      <use xlink:href="#DejaVuSans-74" x="143.359375"/>
      <use xlink:href="#DejaVuSans-72" x="182.568359"/>
      <use xlink:href="#DejaVuSans-69" x="223.681641"/>
      <use xlink:href="#DejaVuSans-62" x="251.464844"/>
      <use xlink:href="#DejaVuSans-75" x="314.941406"/>
      <use xlink:href="#DejaVuSans-74" x="378.320312"/>
      <use xlink:href="#DejaVuSans-69" x="417.529297"/>
      <use xlink:href="#DejaVuSans-6f" x="445.3125"/>
      <use xlink:href="#DejaVuSans-6e" x="506.494141"/>
     </g>
    </g>
   </g>
   <g id="line2d_9">
    <path d="M 50.465503 37.503501 
L 52.707026 37.503501 
L 52.707026 38.630231 
L 54.948549 38.630231 
L 54.948549 48.770801 
L 57.190072 48.770801 
L 57.190072 44.263881 
L 59.431595 44.263881 
L 59.431595 23.982741 
L 61.673118 23.982741 
L 61.673118 45.390611 
L 63.914641 45.390611 
L 63.914641 26.236201 
L 66.156164 26.236201 
L 66.156164 23.982741 
L 68.397687 23.982741 
L 68.397687 39.756961 
L 70.63921 39.756961 
L 70.63921 44.263881 
L 72.880733 44.263881 
L 72.880733 36.376771 
L 75.122256 36.376771 
L 75.122256 28.489661 
L 77.363779 28.489661 
L 77.363779 18.349091 
L 79.605302 18.349091 
L 79.605302 39.756961 
L 81.846824 39.756961 
L 81.846824 27.362931 
L 84.088347 27.362931 
L 84.088347 29.616391 
L 86.32987 29.616391 
L 86.32987 48.770801 
L 88.571393 48.770801 
L 88.571393 34.123311 
L 90.812916 34.123311 
L 90.812916 40.883691 
L 93.054439 40.883691 
L 93.054439 39.756961 
L 95.295962 39.756961 
L 95.295962 52.150991 
L 97.537485 52.150991 
L 97.537485 31.869851 
L 99.779008 31.869851 
L 99.779008 34.123311 
L 102.020531 34.123311 
L 102.020531 38.630231 
L 104.262054 38.630231 
L 104.262054 30.743121 
L 106.503577 30.743121 
L 106.503577 38.630231 
L 108.7451 38.630231 
L 108.7451 42.010421 
L 110.986623 42.010421 
L 110.986623 40.883691 
L 113.228146 40.883691 
L 113.228146 29.616391 
L 115.469669 29.616391 
L 115.469669 46.517341 
L 117.711192 46.517341 
L 117.711192 31.869851 
L 119.952715 31.869851 
L 119.952715 32.996581 
L 122.194238 32.996581 
L 122.194238 37.503501 
L 124.435761 37.503501 
L 124.435761 39.756961 
L 126.677284 39.756961 
L 126.677284 27.362931 
L 128.918807 27.362931 
L 128.918807 45.390611 
L 131.16033 45.390611 
L 131.16033 38.630231 
L 133.401853 38.630231 
L 133.401853 35.250041 
L 135.643376 35.250041 
L 135.643376 35.250041 
L 137.884899 35.250041 
L 137.884899 31.869851 
L 140.126422 31.869851 
L 140.126422 44.263881 
L 142.367945 44.263881 
L 142.367945 44.263881 
L 144.609468 44.263881 
L 144.609468 26.236201 
L 146.850991 26.236201 
L 146.850991 30.743121 
L 149.092514 30.743121 
L 149.092514 36.376771 
L 151.334037 36.376771 
L 151.334037 31.869851 
L 153.57556 31.869851 
L 153.57556 35.250041 
" clip-path="url(#pf801623387)" style="fill: none; stroke: #1f77b4; stroke-width: 1.5; stroke-linecap: square"/>
   </g>
   <g id="patch_3">
    <path d="M 45.31 93.84 
L 45.31 10.8 
" style="fill: none; stroke: #000000; stroke-width: 0.8; stroke-linejoin: miter; stroke-linecap: square"/>
   </g>
   <g id="patch_4">
    <path d="M 158.731063 93.84 
L 158.731063 10.8 
" style="fill: none; stroke: #000000; stroke-width: 0.8; stroke-linejoin: miter; stroke-linecap: square"/>
   </g>
   <g id="patch_5">
    <path d="M 45.31 93.84 
L 158.731063 93.84 
" style="fill: none; stroke: #000000; stroke-width: 0.8; stroke-linejoin: miter; stroke-linecap: square"/>
   </g>
   <g id="patch_6">
    <path d="M 45.31 10.8 
L 158.731063 10.8 
" style="fill: none; stroke: #000000; stroke-width: 0.8; stroke-linejoin: miter; stroke-linecap: square"/>
   </g>
  </g>
  <g id="axes_2">
   <g id="patch_7">
    <path d="M 210.578937 93.84 
L 324 93.84 
L 324 10.8 
L 210.578937 10.8 
z
" style="fill: #ffffff"/>
   </g>
   <g id="matplotlib.axis_3">
    <g id="xtick_6">
     <g id="line2d_10">
      <g>
       <use xlink:href="#mb731611f96" x="232.914173" y="93.84" style="stroke: #000000; stroke-width: 0.8"/>
      </g>
     </g>
     <g id="text_11">
      <!-- −25 -->
      <g transform="translate(222.361829 108.438437) scale(0.1 -0.1)">
       <defs>
        <path id="DejaVuSans-2212" d="M 678 2272 
L 4684 2272 
L 4684 1741 
L 678 1741 
L 678 2272 
z
" transform="scale(0.015625)"/>
        <path id="DejaVuSans-35" d="M 691 4666 
L 3169 4666 
L 3169 4134 
L 1269 4134 
L 1269 2991 
Q 1406 3038 1543 3061 
Q 1681 3084 1819 3084 
Q 2600 3084 3056 2656 
Q 3513 2228 3513 1497 
Q 3513 744 3044 326 
Q 2575 -91 1722 -91 
Q 1428 -91 1123 -41 
Q 819 9 494 109 
L 494 744 
Q 775 591 1075 516 
Q 1375 441 1709 441 
Q 2250 441 2565 725 
Q 2881 1009 2881 1497 
Q 2881 1984 2565 2268 
Q 2250 2553 1709 2553 
Q 1456 2553 1204 2497 
Q 953 2441 691 2322 
L 691 4666 
z
" transform="scale(0.015625)"/>
       </defs>
       <use xlink:href="#DejaVuSans-2212"/>
       <use xlink:href="#DejaVuSans-32" x="83.789062"/>
       <use xlink:href="#DejaVuSans-35" x="147.412109"/>
      </g>
     </g>
    </g>
    <g id="xtick_7">
     <g id="line2d_11">
      <g>
       <use xlink:href="#mb731611f96" x="271.039052" y="93.84" style="stroke: #000000; stroke-width: 0.8"/>
      </g>
     </g>
     <g id="text_12">
      <!-- 0 -->
      <g transform="translate(267.857802 108.438437) scale(0.1 -0.1)">
       <use xlink:href="#DejaVuSans-30"/>
      </g>
     </g>
    </g>
    <g id="xtick_8">
     <g id="line2d_12">
      <g>
       <use xlink:href="#mb731611f96" x="309.163931" y="93.84" style="stroke: #000000; stroke-width: 0.8"/>
      </g>
     </g>
     <g id="text_13">
      <!-- 25 -->
      <g transform="translate(302.801431 108.438437) scale(0.1 -0.1)">
       <use xlink:href="#DejaVuSans-32"/>
       <use xlink:href="#DejaVuSans-35" x="63.623047"/>
      </g>
     </g>
    </g>
    <g id="text_14">
     <!-- atom momentum $p$ -->
     <g transform="translate(218.889469 119.59625) scale(0.1 -0.1)">
      <defs>
       <path id="DejaVuSans-65" d="M 3597 1894 
L 3597 1613 
L 953 1613 
Q 991 1019 1311 708 
Q 1631 397 2203 397 
Q 2534 397 2845 478 
Q 3156 559 3463 722 
L 3463 178 
Q 3153 47 2828 -22 
Q 2503 -91 2169 -91 
Q 1331 -91 842 396 
Q 353 884 353 1716 
Q 353 2575 817 3079 
Q 1281 3584 2069 3584 
Q 2775 3584 3186 3129 
Q 3597 2675 3597 1894 
z
M 3022 2063 
Q 3016 2534 2758 2815 
Q 2500 3097 2075 3097 
Q 1594 3097 1305 2825 
Q 1016 2553 972 2059 
L 3022 2063 
z
" transform="scale(0.015625)"/>
       <path id="DejaVuSans-Oblique-70" d="M 3175 2156 
Q 3175 2616 2975 2859 
Q 2775 3103 2400 3103 
Q 2144 3103 1911 2972 
Q 1678 2841 1497 2591 
Q 1319 2344 1212 1994 
Q 1106 1644 1106 1300 
Q 1106 863 1306 627 
Q 1506 391 1875 391 
Q 2147 391 2380 519 
Q 2613 647 2778 891 
Q 2956 1147 3065 1494 
Q 3175 1841 3175 2156 
z
M 1394 2969 
Q 1625 3272 1939 3428 
Q 2253 3584 2638 3584 
Q 3175 3584 3472 3232 
Q 3769 2881 3769 2247 
Q 3769 1728 3584 1258 
Q 3400 788 3053 416 
Q 2822 169 2531 39 
Q 2241 -91 1919 -91 
Q 1547 -91 1294 64 
Q 1041 219 916 525 
L 556 -1331 
L -19 -1331 
L 922 3500 
L 1497 3500 
L 1394 2969 
z
" transform="scale(0.015625)"/>
      </defs>
      <use xlink:href="#DejaVuSans-61" transform="translate(0 0.78125)"/>
      <use xlink:href="#DejaVuSans-74" transform="translate(61.279297 0.78125)"/>
      <use xlink:href="#DejaVuSans-6f" transform="translate(100.488281 0.78125)"/>
      <use xlink:href="#DejaVuSans-6d" transform="translate(161.669922 0.78125)"/>
      <use xlink:href="#DejaVuSans-20" transform="translate(259.082031 0.78125)"/>
      <use xlink:href="#DejaVuSans-6d" transform="translate(290.869141 0.78125)"/>
      <use xlink:href="#DejaVuSans-6f" transform="translate(388.28125 0.78125)"/>
      <use xlink:href="#DejaVuSans-6d" transform="translate(449.462891 0.78125)"/>
      <use xlink:href="#DejaVuSans-65" transform="translate(546.875 0.78125)"/>
      <use xlink:href="#DejaVuSans-6e" transform="translate(608.398438 0.78125)"/>
      <use xlink:href="#DejaVuSans-74" transform="translate(671.777344 0.78125)"/>
      <use xlink:href="#DejaVuSans-75" transform="translate(710.986328 0.78125)"/>
      <use xlink:href="#DejaVuSans-6d" transform="translate(774.365234 0.78125)"/>
      <use xlink:href="#DejaVuSans-20" transform="translate(871.777344 0.78125)"/>
      <use xlink:href="#DejaVuSans-Oblique-70" transform="translate(903.564453 0.78125)"/>
     </g>
    </g>
   </g>
   <g id="matplotlib.axis_4">
    <g id="ytick_4">
     <g id="line2d_13">
      <g>
       <use xlink:href="#m082e2084e9" x="210.578937" y="90.065455" style="stroke: #000000; stroke-width: 0.8"/>
      </g>
     </g>
     <g id="text_15">
      <!-- 0.00 -->
      <g transform="translate(181.313312 93.864673) scale(0.1 -0.1)">
       <use xlink:href="#DejaVuSans-30"/>
       <use xlink:href="#DejaVuSans-2e" x="63.623047"/>
       <use xlink:href="#DejaVuSans-30" x="95.410156"/>
       <use xlink:href="#DejaVuSans-30" x="159.033203"/>
      </g>
     </g>
    </g>
    <g id="ytick_5">
     <g id="line2d_14">
      <g>
       <use xlink:href="#m082e2084e9" x="210.578937" y="53.348925" style="stroke: #000000; stroke-width: 0.8"/>
      </g>
     </g>
     <g id="text_16">
      <!-- 0.02 -->
      <g transform="translate(181.313312 57.148144) scale(0.1 -0.1)">
       <use xlink:href="#DejaVuSans-30"/>
       <use xlink:href="#DejaVuSans-2e" x="63.623047"/>
       <use xlink:href="#DejaVuSans-30" x="95.410156"/>
       <use xlink:href="#DejaVuSans-32" x="159.033203"/>
      </g>
     </g>
    </g>
    <g id="ytick_6">
     <g id="line2d_15">
      <g>
       <use xlink:href="#m082e2084e9" x="210.578937" y="16.632395" style="stroke: #000000; stroke-width: 0.8"/>
      </g>
     </g>
     <g id="text_17">
      <!-- 0.04 -->
      <g transform="translate(181.313312 20.431614) scale(0.1 -0.1)">
       <defs>
        <path id="DejaVuSans-34" d="M 2419 4116 
L 825 1625 
L 2419 1625 
L 2419 4116 
z
M 2253 4666 
L 3047 4666 
L 3047 1625 
L 3713 1625 
L 3713 1100 
L 3047 1100 
L 3047 0 
L 2419 0 
L 2419 1100 
L 313 1100 
L 313 1709 
L 2253 4666 
z
" transform="scale(0.015625)"/>
       </defs>
       <use xlink:href="#DejaVuSans-30"/>
       <use xlink:href="#DejaVuSans-2e" x="63.623047"/>
       <use xlink:href="#DejaVuSans-30" x="95.410156"/>
       <use xlink:href="#DejaVuSans-34" x="159.033203"/>
      </g>
     </g>
    </g>
    <g id="text_18">
     <!-- distribution -->
     <g transform="translate(177.733625 80.812969) rotate(-90) scale(0.1 -0.1)">
      <use xlink:href="#DejaVuSans-64"/>
      <use xlink:href="#DejaVuSans-69" x="63.476562"/>
      <use xlink:href="#DejaVuSans-73" x="91.259766"/>
      <use xlink:href="#DejaVuSans-74" x="143.359375"/>
      <use xlink:href="#DejaVuSans-72" x="182.568359"/>
      <use xlink:href="#DejaVuSans-69" x="223.681641"/>
      <use xlink:href="#DejaVuSans-62" x="251.464844"/>
      <use xlink:href="#DejaVuSans-75" x="314.941406"/>
      <use xlink:href="#DejaVuSans-74" x="378.320312"/>
      <use xlink:href="#DejaVuSans-69" x="417.529297"/>
      <use xlink:href="#DejaVuSans-6f" x="445.3125"/>
      <use xlink:href="#DejaVuSans-6e" x="506.494141"/>
     </g>
    </g>
   </g>
   <g id="line2d_16">
    <path d="M 215.73444 89.544828 
L 217.975963 89.544828 
L 217.975963 90.065455 
L 220.217486 90.065455 
L 220.217486 90.065455 
L 222.459009 90.065455 
L 222.459009 90.065455 
L 224.700532 90.065455 
L 224.700532 88.503574 
L 226.942055 88.503574 
L 226.942055 88.503574 
L 229.183578 88.503574 
L 229.183578 85.900439 
L 231.425101 85.900439 
L 231.425101 87.982947 
L 233.666624 87.982947 
L 233.666624 82.776677 
L 235.908147 82.776677 
L 235.908147 83.817931 
L 238.14967 83.817931 
L 238.14967 79.652915 
L 240.391193 79.652915 
L 240.391193 81.214796 
L 242.632716 81.214796 
L 242.632716 72.884765 
L 244.874239 72.884765 
L 244.874239 71.322884 
L 247.115762 71.322884 
L 247.115762 62.472226 
L 249.357285 62.472226 
L 249.357285 62.992853 
L 251.598808 62.992853 
L 251.598808 60.389718 
L 253.840331 60.389718 
L 253.840331 40.605893 
L 256.081854 40.605893 
L 256.081854 35.920251 
L 258.323377 35.920251 
L 258.323377 38.523386 
L 260.5649 38.523386 
L 260.5649 35.399624 
L 262.806423 35.399624 
L 262.806423 19.780815 
L 265.047946 19.780815 
L 265.047946 15.615799 
L 267.289469 15.615799 
L 267.289469 24.987085 
L 269.530992 24.987085 
L 269.530992 14.574545 
L 271.772515 14.574545 
L 271.772515 24.987085 
L 274.014038 24.987085 
L 274.014038 23.425204 
L 276.255561 23.425204 
L 276.255561 30.193354 
L 278.497084 30.193354 
L 278.497084 21.863323 
L 280.738607 21.863323 
L 280.738607 29.672727 
L 282.98013 29.672727 
L 282.98013 30.713981 
L 285.221653 30.713981 
L 285.221653 41.12652 
L 287.463176 41.12652 
L 287.463176 57.786583 
L 289.704698 57.786583 
L 289.704698 61.951599 
L 291.946221 61.951599 
L 291.946221 66.116614 
L 294.187744 66.116614 
L 294.187744 69.240376 
L 296.429267 69.240376 
L 296.429267 77.570408 
L 298.67079 77.570408 
L 298.67079 75.4879 
L 300.912313 75.4879 
L 300.912313 80.173542 
L 303.153836 80.173542 
L 303.153836 84.859185 
L 305.395359 84.859185 
L 305.395359 84.338558 
L 307.636882 84.338558 
L 307.636882 84.859185 
L 309.878405 84.859185 
L 309.878405 87.982947 
L 312.119928 87.982947 
L 312.119928 87.982947 
L 314.361451 87.982947 
L 314.361451 90.065455 
L 316.602974 90.065455 
L 316.602974 90.065455 
L 318.844497 90.065455 
L 318.844497 90.065455 
" clip-path="url(#pc8cdafa995)" style="fill: none; stroke: #1f77b4; stroke-width: 1.5; stroke-linecap: square"/>
   </g>
   <g id="patch_8">
    <path d="M 210.578937 93.84 
L 210.578937 10.8 
" style="fill: none; stroke: #000000; stroke-width: 0.8; stroke-linejoin: miter; stroke-linecap: square"/>
   </g>
   <g id="patch_9">
    <path d="M 324 93.84 
L 324 10.8 
" style="fill: none; stroke: #000000; stroke-width: 0.8; stroke-linejoin: miter; stroke-linecap: square"/>
   </g>
   <g id="patch_10">
    <path d="M 210.578937 93.84 
L 324 93.84 
" style="fill: none; stroke: #000000; stroke-width: 0.8; stroke-linejoin: miter; stroke-linecap: square"/>
   </g>
   <g id="patch_11">
    <path d="M 210.578937 10.8 
L 324 10.8 
" style="fill: none; stroke: #000000; stroke-width: 0.8; stroke-linejoin: miter; stroke-linecap: square"/>
   </g>
  </g>
  <g id="axes_3">
   <g id="patch_12">
    <path d="M 45.31 216.14 
L 158.731063 216.14 
L 158.731063 133.1 
L 45.31 133.1 
z
" style="fill: #ffffff"/>
   </g>
   <g id="matplotlib.axis_5">
    <g id="xtick_9">
     <g id="line2d_17">
      <g>
       <use xlink:href="#mb731611f96" x="55.254211" y="216.14" style="stroke: #000000; stroke-width: 0.8"/>
      </g>
     </g>
     <g id="text_19">
      <!-- −1 -->
      <g transform="translate(47.883117 230.738437) scale(0.1 -0.1)">
       <use xlink:href="#DejaVuSans-2212"/>
       <use xlink:href="#DejaVuSans-31" x="83.789062"/>
      </g>
     </g>
    </g>
    <g id="xtick_10">
     <g id="line2d_18">
      <g>
       <use xlink:href="#mb731611f96" x="103.141293" y="216.14" style="stroke: #000000; stroke-width: 0.8"/>
      </g>
     </g>
     <g id="text_20">
      <!-- 0 -->
      <g transform="translate(99.960043 230.738437) scale(0.1 -0.1)">
       <use xlink:href="#DejaVuSans-30"/>
      </g>
     </g>
    </g>
    <g id="xtick_11">
     <g id="line2d_19">
      <g>
       <use xlink:href="#mb731611f96" x="151.028375" y="216.14" style="stroke: #000000; stroke-width: 0.8"/>
      </g>
     </g>
     <g id="text_21">
      <!-- 1 -->
      <g transform="translate(147.847125 230.738437) scale(0.1 -0.1)">
       <use xlink:href="#DejaVuSans-31"/>
      </g>
     </g>
    </g>
    <g id="text_22">
     <!-- spins $\sigma^x$ and $\sigma^y$ -->
     <g transform="translate(63.670531 242.018125) scale(0.1 -0.1)">
      <defs>
       <path id="DejaVuSans-Oblique-3c3" d="M 2219 3044 
Q 1744 3044 1422 2700 
Q 1081 2341 969 1747 
Q 844 1119 1044 756 
Q 1241 397 1706 397 
Q 2166 397 2503 759 
Q 2844 1122 2966 1747 
Q 3075 2319 2881 2700 
Q 2700 3044 2219 3044 
z
M 2309 3503 
L 4219 3500 
L 4106 2925 
L 3463 2925 
Q 3706 2438 3575 1747 
Q 3406 888 2884 400 
Q 2359 -91 1609 -91 
Q 856 -91 525 400 
Q 194 888 363 1747 
Q 528 2609 1050 3097 
Q 1484 3503 2309 3503 
z
" transform="scale(0.015625)"/>
       <path id="DejaVuSans-Oblique-79" d="M 1588 -325 
Q 1188 -997 936 -1164 
Q 684 -1331 294 -1331 
L -159 -1331 
L -63 -850 
L 269 -850 
Q 509 -850 678 -719 
Q 847 -588 1056 -206 
L 1234 128 
L 459 3500 
L 1069 3500 
L 1650 819 
L 3256 3500 
L 3859 3500 
L 1588 -325 
z
" transform="scale(0.015625)"/>
      </defs>
      <use xlink:href="#DejaVuSans-73" transform="translate(0 0.4375)"/>
      <use xlink:href="#DejaVuSans-70" transform="translate(52.099609 0.4375)"/>
      <use xlink:href="#DejaVuSans-69" transform="translate(115.576172 0.4375)"/>
      <use xlink:href="#DejaVuSans-6e" transform="translate(143.359375 0.4375)"/>
      <use xlink:href="#DejaVuSans-73" transform="translate(206.738281 0.4375)"/>
      <use xlink:href="#DejaVuSans-20" transform="translate(258.837891 0.4375)"/>
      <use xlink:href="#DejaVuSans-Oblique-3c3" transform="translate(290.625 0.4375)"/>
      <use xlink:href="#DejaVuSans-Oblique-78" transform="translate(358.476615 38.71875) scale(0.7)"/>
      <use xlink:href="#DejaVuSans-20" transform="translate(402.636771 0.4375)"/>
      <use xlink:href="#DejaVuSans-61" transform="translate(434.42388 0.4375)"/>
      <use xlink:href="#DejaVuSans-6e" transform="translate(495.703177 0.4375)"/>
      <use xlink:href="#DejaVuSans-64" transform="translate(559.082083 0.4375)"/>
      <use xlink:href="#DejaVuSans-20" transform="translate(622.558646 0.4375)"/>
      <use xlink:href="#DejaVuSans-Oblique-3c3" transform="translate(654.345755 0.4375)"/>
      <use xlink:href="#DejaVuSans-Oblique-79" transform="translate(722.19737 38.71875) scale(0.7)"/>
     </g>
    </g>
   </g>
   <g id="matplotlib.axis_6">
    <g id="ytick_7">
     <g id="line2d_20">
      <g>
       <use xlink:href="#m082e2084e9" x="45.31" y="212.365455" style="stroke: #000000; stroke-width: 0.8"/>
      </g>
     </g>
     <g id="text_23">
      <!-- 0 -->
      <g transform="translate(31.9475 216.164673) scale(0.1 -0.1)">
       <use xlink:href="#DejaVuSans-30"/>
      </g>
     </g>
    </g>
    <g id="ytick_8">
     <g id="line2d_21">
      <g>
       <use xlink:href="#m082e2084e9" x="45.31" y="176.657325" style="stroke: #000000; stroke-width: 0.8"/>
      </g>
     </g>
     <g id="text_24">
      <!-- 2 -->
      <g transform="translate(31.9475 180.456543) scale(0.1 -0.1)">
       <use xlink:href="#DejaVuSans-32"/>
      </g>
     </g>
    </g>
    <g id="ytick_9">
     <g id="line2d_22">
      <g>
       <use xlink:href="#m082e2084e9" x="45.31" y="140.949195" style="stroke: #000000; stroke-width: 0.8"/>
      </g>
     </g>
     <g id="text_25">
      <!-- 4 -->
      <g transform="translate(31.9475 144.748413) scale(0.1 -0.1)">
       <use xlink:href="#DejaVuSans-34"/>
      </g>
     </g>
    </g>
    <g id="text_26">
     <!-- distribution -->
     <g transform="translate(28.367812 203.112969) rotate(-90) scale(0.1 -0.1)">
      <use xlink:href="#DejaVuSans-64"/>
      <use xlink:href="#DejaVuSans-69" x="63.476562"/>
      <use xlink:href="#DejaVuSans-73" x="91.259766"/>
      <use xlink:href="#DejaVuSans-74" x="143.359375"/>
      <use xlink:href="#DejaVuSans-72" x="182.568359"/>
      <use xlink:href="#DejaVuSans-69" x="223.681641"/>
      <use xlink:href="#DejaVuSans-62" x="251.464844"/>
      <use xlink:href="#DejaVuSans-75" x="314.941406"/>
      <use xlink:href="#DejaVuSans-74" x="378.320312"/>
      <use xlink:href="#DejaVuSans-69" x="417.529297"/>
      <use xlink:href="#DejaVuSans-6f" x="445.3125"/>
      <use xlink:href="#DejaVuSans-6e" x="506.494141"/>
     </g>
    </g>
   </g>
   <g id="line2d_23">
    <path d="M 50.465503 212.365455 
L 52.707026 212.365455 
L 52.707026 212.365455 
L 54.948549 212.365455 
L 54.948549 212.365455 
L 57.190072 212.365455 
L 57.190072 212.365455 
L 59.431595 212.365455 
L 59.431595 212.365455 
L 61.673118 212.365455 
L 61.673118 212.365455 
L 63.914641 212.365455 
L 63.914641 212.365455 
L 66.156164 212.365455 
L 66.156164 212.365455 
L 68.397687 212.365455 
L 68.397687 212.365455 
L 70.63921 212.365455 
L 70.63921 212.365455 
L 72.880733 212.365455 
L 72.880733 212.365455 
L 75.122256 212.365455 
L 75.122256 212.365455 
L 77.363779 212.365455 
L 77.363779 212.365455 
L 79.605302 212.365455 
L 79.605302 212.365455 
L 81.846824 212.365455 
L 81.846824 212.365455 
L 84.088347 212.365455 
L 84.088347 212.365455 
L 86.32987 212.365455 
L 86.32987 212.047598 
L 88.571393 212.047598 
L 88.571393 210.776172 
L 90.812916 210.776172 
L 90.812916 207.438679 
L 93.054439 207.438679 
L 93.054439 199.492268 
L 95.295962 199.492268 
L 95.295962 187.254794 
L 97.537485 187.254794 
L 97.537485 162.779847 
L 99.779008 162.779847 
L 99.779008 148.635234 
L 102.020531 148.635234 
L 102.020531 136.874545 
L 104.262054 136.874545 
L 104.262054 154.674507 
L 106.503577 154.674507 
L 106.503577 167.86555 
L 108.7451 167.86555 
L 108.7451 187.731579 
L 110.986623 187.731579 
L 110.986623 199.015483 
L 113.228146 199.015483 
L 113.228146 206.802967 
L 115.469669 206.802967 
L 115.469669 210.776172 
L 117.711192 210.776172 
L 117.711192 211.88867 
L 119.952715 211.88867 
L 119.952715 212.365455 
L 122.194238 212.365455 
L 122.194238 212.365455 
L 124.435761 212.365455 
L 124.435761 212.365455 
L 126.677284 212.365455 
L 126.677284 212.365455 
L 128.918807 212.365455 
L 128.918807 212.365455 
L 131.16033 212.365455 
L 131.16033 212.365455 
L 133.401853 212.365455 
L 133.401853 212.365455 
L 135.643376 212.365455 
L 135.643376 212.365455 
L 137.884899 212.365455 
L 137.884899 212.365455 
L 140.126422 212.365455 
L 140.126422 212.365455 
L 142.367945 212.365455 
L 142.367945 212.365455 
L 144.609468 212.365455 
L 144.609468 212.365455 
L 146.850991 212.365455 
L 146.850991 212.365455 
L 149.092514 212.365455 
L 149.092514 212.365455 
L 151.334037 212.365455 
L 151.334037 212.365455 
L 153.57556 212.365455 
L 153.57556 212.365455 
" clip-path="url(#pbbdd812c71)" style="fill: none; stroke: #1f77b4; stroke-width: 1.5; stroke-linecap: square"/>
   </g>
   <g id="line2d_24">
    <path d="M 50.465503 212.365455 
L 52.707026 212.365455 
L 52.707026 212.365455 
L 54.948549 212.365455 
L 54.948549 212.365455 
L 57.190072 212.365455 
L 57.190072 212.365455 
L 59.431595 212.365455 
L 59.431595 212.365455 
L 61.673118 212.365455 
L 61.673118 212.365455 
L 63.914641 212.365455 
L 63.914641 212.365455 
L 66.156164 212.365455 
L 66.156164 212.365455 
L 68.397687 212.365455 
L 68.397687 212.365455 
L 70.63921 212.365455 
L 70.63921 212.365455 
L 72.880733 212.365455 
L 72.880733 212.365455 
L 75.122256 212.365455 
L 75.122256 212.365455 
L 77.363779 212.365455 
L 77.363779 212.365455 
L 79.605302 212.365455 
L 79.605302 212.365455 
L 81.846824 212.365455 
L 81.846824 212.365455 
L 84.088347 212.365455 
L 84.088347 212.365455 
L 86.32987 212.365455 
L 86.32987 211.570813 
L 88.571393 211.570813 
L 88.571393 210.140459 
L 90.812916 210.140459 
L 90.812916 207.120823 
L 93.054439 207.120823 
L 93.054439 201.240478 
L 95.295962 201.240478 
L 95.295962 186.619081 
L 97.537485 186.619081 
L 97.537485 164.369129 
L 99.779008 164.369129 
L 99.779008 146.887024 
L 102.020531 146.887024 
L 102.020531 137.510258 
L 104.262054 137.510258 
L 104.262054 152.290584 
L 106.503577 152.290584 
L 106.503577 168.660191 
L 108.7451 168.660191 
L 108.7451 188.208364 
L 110.986623 188.208364 
L 110.986623 198.220842 
L 113.228146 198.220842 
L 113.228146 207.756536 
L 115.469669 207.756536 
L 115.469669 211.570813 
L 117.711192 211.570813 
L 117.711192 211.88867 
L 119.952715 211.88867 
L 119.952715 212.365455 
L 122.194238 212.365455 
L 122.194238 212.365455 
L 124.435761 212.365455 
L 124.435761 212.365455 
L 126.677284 212.365455 
L 126.677284 212.365455 
L 128.918807 212.365455 
L 128.918807 212.365455 
L 131.16033 212.365455 
L 131.16033 212.365455 
L 133.401853 212.365455 
L 133.401853 212.365455 
L 135.643376 212.365455 
L 135.643376 212.365455 
L 137.884899 212.365455 
L 137.884899 212.365455 
L 140.126422 212.365455 
L 140.126422 212.365455 
L 142.367945 212.365455 
L 142.367945 212.365455 
L 144.609468 212.365455 
L 144.609468 212.365455 
L 146.850991 212.365455 
L 146.850991 212.365455 
L 149.092514 212.365455 
L 149.092514 212.365455 
L 151.334037 212.365455 
L 151.334037 212.365455 
L 153.57556 212.365455 
L 153.57556 212.365455 
" clip-path="url(#pbbdd812c71)" style="fill: none; stroke-dasharray: 5.55,2.4; stroke-dashoffset: 0; stroke: #ff7f0e; stroke-width: 1.5"/>
   </g>
   <g id="patch_13">
    <path d="M 45.31 216.14 
L 45.31 133.1 
" style="fill: none; stroke: #000000; stroke-width: 0.8; stroke-linejoin: miter; stroke-linecap: square"/>
   </g>
   <g id="patch_14">
    <path d="M 158.731063 216.14 
L 158.731063 133.1 
" style="fill: none; stroke: #000000; stroke-width: 0.8; stroke-linejoin: miter; stroke-linecap: square"/>
   </g>
   <g id="patch_15">
    <path d="M 45.31 216.14 
L 158.731063 216.14 
" style="fill: none; stroke: #000000; stroke-width: 0.8; stroke-linejoin: miter; stroke-linecap: square"/>
   </g>
   <g id="patch_16">
    <path d="M 45.31 133.1 
L 158.731063 133.1 
" style="fill: none; stroke: #000000; stroke-width: 0.8; stroke-linejoin: miter; stroke-linecap: square"/>
   </g>
   <g id="legend_1">
    <g id="patch_17">
     <path d="M 52.31 170.45625 
L 100.61 170.45625 
Q 102.61 170.45625 102.61 168.45625 
L 102.61 140.1 
Q 102.61 138.1 100.61 138.1 
L 52.31 138.1 
Q 50.31 138.1 50.31 140.1 
L 50.31 168.45625 
Q 50.31 170.45625 52.31 170.45625 
z
" style="fill: #ffffff; opacity: 0.8; stroke: #cccccc; stroke-linejoin: miter"/>
    </g>
    <g id="line2d_25">
     <path d="M 54.31 146.198438 
L 66.81 146.198438 
L 66.81 146.198438 
L 79.31 146.198438 
L 79.31 146.198438 
" style="fill: none; stroke: #1f77b4; stroke-width: 1.5; stroke-linecap: square"/>
    </g>
    <g id="text_27">
     <!-- $\sigma^x$ -->
     <g transform="translate(87.31 149.698438) scale(0.1 -0.1)">
      <use xlink:href="#DejaVuSans-Oblique-3c3" transform="translate(0 0.4375)"/>
      <use xlink:href="#DejaVuSans-Oblique-78" transform="translate(67.851615 38.71875) scale(0.7)"/>
     </g>
    </g>
    <g id="line2d_26">
     <path d="M 54.31 160.876563 
L 66.81 160.876563 
L 66.81 160.876563 
L 79.31 160.876563 
L 79.31 160.876563 
" style="fill: none; stroke-dasharray: 5.55,2.4; stroke-dashoffset: 0; stroke: #ff7f0e; stroke-width: 1.5"/>
    </g>
    <g id="text_28">
     <!-- $\sigma^y$ -->
     <g transform="translate(87.31 164.376563) scale(0.1 -0.1)">
      <use xlink:href="#DejaVuSans-Oblique-3c3" transform="translate(0 0.4375)"/>
      <use xlink:href="#DejaVuSans-Oblique-79" transform="translate(67.851615 38.71875) scale(0.7)"/>
     </g>
    </g>
   </g>
  </g>
  <g id="axes_4">
   <g id="patch_18">
    <path d="M 210.578937 216.14 
L 324 216.14 
L 324 133.1 
L 210.578937 133.1 
z
" style="fill: #ffffff"/>
   </g>
   <g id="matplotlib.axis_7">
    <g id="xtick_12">
     <g id="line2d_27">
      <g>
       <use xlink:href="#mb731611f96" x="220.523148" y="216.14" style="stroke: #000000; stroke-width: 0.8"/>
      </g>
     </g>
     <g id="text_29">
      <!-- −1 -->
      <g transform="translate(213.152055 230.738437) scale(0.1 -0.1)">
       <use xlink:href="#DejaVuSans-2212"/>
       <use xlink:href="#DejaVuSans-31" x="83.789062"/>
      </g>
     </g>
    </g>
    <g id="xtick_13">
     <g id="line2d_28">
      <g>
       <use xlink:href="#mb731611f96" x="268.41023" y="216.14" style="stroke: #000000; stroke-width: 0.8"/>
      </g>
     </g>
     <g id="text_30">
      <!-- 0 -->
      <g transform="translate(265.22898 230.738437) scale(0.1 -0.1)">
       <use xlink:href="#DejaVuSans-30"/>
      </g>
     </g>
    </g>
    <g id="xtick_14">
     <g id="line2d_29">
      <g>
       <use xlink:href="#mb731611f96" x="316.297312" y="216.14" style="stroke: #000000; stroke-width: 0.8"/>
      </g>
     </g>
     <g id="text_31">
      <!-- 1 -->
      <g transform="translate(313.116062 230.738437) scale(0.1 -0.1)">
       <use xlink:href="#DejaVuSans-31"/>
      </g>
     </g>
    </g>
    <g id="text_32">
     <!-- spins $\sigma^z$ -->
     <g transform="translate(247.389469 242.018125) scale(0.1 -0.1)">
      <defs>
       <path id="DejaVuSans-Oblique-7a" d="M 744 3500 
L 3475 3500 
L 3372 2975 
L 738 459 
L 2913 459 
L 2822 0 
L -19 0 
L 84 525 
L 2719 3041 
L 653 3041 
L 744 3500 
z
" transform="scale(0.015625)"/>
      </defs>
      <use xlink:href="#DejaVuSans-73" transform="translate(0 0.4375)"/>
      <use xlink:href="#DejaVuSans-70" transform="translate(52.099609 0.4375)"/>
      <use xlink:href="#DejaVuSans-69" transform="translate(115.576172 0.4375)"/>
      <use xlink:href="#DejaVuSans-6e" transform="translate(143.359375 0.4375)"/>
      <use xlink:href="#DejaVuSans-73" transform="translate(206.738281 0.4375)"/>
      <use xlink:href="#DejaVuSans-20" transform="translate(258.837891 0.4375)"/>
      <use xlink:href="#DejaVuSans-Oblique-3c3" transform="translate(290.625 0.4375)"/>
      <use xlink:href="#DejaVuSans-Oblique-7a" transform="translate(358.476615 38.71875) scale(0.7)"/>
     </g>
    </g>
   </g>
   <g id="matplotlib.axis_8">
    <g id="ytick_10">
     <g id="line2d_30">
      <g>
       <use xlink:href="#m082e2084e9" x="210.578937" y="212.365455" style="stroke: #000000; stroke-width: 0.8"/>
      </g>
     </g>
     <g id="text_33">
      <!-- 0 -->
      <g transform="translate(197.216437 216.164673) scale(0.1 -0.1)">
       <use xlink:href="#DejaVuSans-30"/>
      </g>
     </g>
    </g>
    <g id="ytick_11">
     <g id="line2d_31">
      <g>
       <use xlink:href="#m082e2084e9" x="210.578937" y="177.029284" style="stroke: #000000; stroke-width: 0.8"/>
      </g>
     </g>
     <g id="text_34">
      <!-- 10 -->
      <g transform="translate(190.853937 180.828503) scale(0.1 -0.1)">
       <use xlink:href="#DejaVuSans-31"/>
       <use xlink:href="#DejaVuSans-30" x="63.623047"/>
      </g>
     </g>
    </g>
    <g id="ytick_12">
     <g id="line2d_32">
      <g>
       <use xlink:href="#m082e2084e9" x="210.578937" y="141.693114" style="stroke: #000000; stroke-width: 0.8"/>
      </g>
     </g>
     <g id="text_35">
      <!-- 20 -->
      <g transform="translate(190.853937 145.492333) scale(0.1 -0.1)">
       <use xlink:href="#DejaVuSans-32"/>
       <use xlink:href="#DejaVuSans-30" x="63.623047"/>
      </g>
     </g>
    </g>
    <g id="text_36">
     <!-- distribution -->
     <g transform="translate(187.27425 203.112969) rotate(-90) scale(0.1 -0.1)">
      <use xlink:href="#DejaVuSans-64"/>
      <use xlink:href="#DejaVuSans-69" x="63.476562"/>
      <use xlink:href="#DejaVuSans-73" x="91.259766"/>
      <use xlink:href="#DejaVuSans-74" x="143.359375"/>
      <use xlink:href="#DejaVuSans-72" x="182.568359"/>
      <use xlink:href="#DejaVuSans-69" x="223.681641"/>
      <use xlink:href="#DejaVuSans-62" x="251.464844"/>
      <use xlink:href="#DejaVuSans-75" x="314.941406"/>
      <use xlink:href="#DejaVuSans-74" x="378.320312"/>
      <use xlink:href="#DejaVuSans-69" x="417.529297"/>
      <use xlink:href="#DejaVuSans-6f" x="445.3125"/>
      <use xlink:href="#DejaVuSans-6e" x="506.494141"/>
     </g>
    </g>
   </g>
   <g id="line2d_33">
    <path d="M 215.73444 212.365455 
L 217.975963 212.365455 
L 217.975963 212.365455 
L 220.217486 212.365455 
L 220.217486 136.874545 
L 222.459009 136.874545 
L 222.459009 212.365455 
L 224.700532 212.365455 
L 224.700532 212.365455 
L 226.942055 212.365455 
L 226.942055 212.365455 
L 229.183578 212.365455 
L 229.183578 212.365455 
L 231.425101 212.365455 
L 231.425101 212.365455 
L 233.666624 212.365455 
L 233.666624 212.365455 
L 235.908147 212.365455 
L 235.908147 212.365455 
L 238.14967 212.365455 
L 238.14967 212.365455 
L 240.391193 212.365455 
L 240.391193 212.365455 
L 242.632716 212.365455 
L 242.632716 212.365455 
L 244.874239 212.365455 
L 244.874239 212.365455 
L 247.115762 212.365455 
L 247.115762 212.365455 
L 249.357285 212.365455 
L 249.357285 212.365455 
L 251.598808 212.365455 
L 251.598808 212.365455 
L 253.840331 212.365455 
L 253.840331 212.365455 
L 256.081854 212.365455 
L 256.081854 212.365455 
L 258.323377 212.365455 
L 258.323377 212.365455 
L 260.5649 212.365455 
L 260.5649 212.365455 
L 262.806423 212.365455 
L 262.806423 212.365455 
L 265.047946 212.365455 
L 265.047946 212.365455 
L 267.289469 212.365455 
L 267.289469 212.365455 
L 269.530992 212.365455 
L 269.530992 212.365455 
L 271.772515 212.365455 
L 271.772515 212.365455 
L 274.014038 212.365455 
L 274.014038 212.365455 
L 276.255561 212.365455 
L 276.255561 212.365455 
L 278.497084 212.365455 
L 278.497084 212.365455 
L 280.738607 212.365455 
L 280.738607 212.365455 
L 282.98013 212.365455 
L 282.98013 212.365455 
L 285.221653 212.365455 
L 285.221653 212.365455 
L 287.463176 212.365455 
L 287.463176 212.365455 
L 289.704698 212.365455 
L 289.704698 212.365455 
L 291.946221 212.365455 
L 291.946221 212.365455 
L 294.187744 212.365455 
L 294.187744 212.365455 
L 296.429267 212.365455 
L 296.429267 212.365455 
L 298.67079 212.365455 
L 298.67079 212.365455 
L 300.912313 212.365455 
L 300.912313 212.365455 
L 303.153836 212.365455 
L 303.153836 212.365455 
L 305.395359 212.365455 
L 305.395359 212.365455 
L 307.636882 212.365455 
L 307.636882 212.365455 
L 309.878405 212.365455 
L 309.878405 212.365455 
L 312.119928 212.365455 
L 312.119928 212.365455 
L 314.361451 212.365455 
L 314.361451 212.365455 
L 316.602974 212.365455 
L 316.602974 212.365455 
L 318.844497 212.365455 
L 318.844497 212.365455 
" clip-path="url(#p4048d7898d)" style="fill: none; stroke: #1f77b4; stroke-width: 1.5; stroke-linecap: square"/>
   </g>
   <g id="patch_19">
    <path d="M 210.578937 216.14 
L 210.578937 133.1 
" style="fill: none; stroke: #000000; stroke-width: 0.8; stroke-linejoin: miter; stroke-linecap: square"/>
   </g>
   <g id="patch_20">
    <path d="M 324 216.14 
L 324 133.1 
" style="fill: none; stroke: #000000; stroke-width: 0.8; stroke-linejoin: miter; stroke-linecap: square"/>
   </g>
   <g id="patch_21">
    <path d="M 210.578937 216.14 
L 324 216.14 
" style="fill: none; stroke: #000000; stroke-width: 0.8; stroke-linejoin: miter; stroke-linecap: square"/>
   </g>
   <g id="patch_22">
    <path d="M 210.578937 133.1 
L 324 133.1 
" style="fill: none; stroke: #000000; stroke-width: 0.8; stroke-linejoin: miter; stroke-linecap: square"/>
   </g>
  </g>
 </g>
 <defs>
  <clipPath id="pf801623387">
   <rect x="45.31" y="10.8" width="113.421063" height="83.04"/>
  </clipPath>
  <clipPath id="pc8cdafa995">
   <rect x="210.578937" y="10.8" width="113.421063" height="83.04"/>
  </clipPath>
  <clipPath id="pbbdd812c71">
   <rect x="45.31" y="133.1" width="113.421063" height="83.04"/>
  </clipPath>
  <clipPath id="p4048d7898d">
   <rect x="210.578937" y="133.1" width="113.421063" height="83.04"/>
  </clipPath>
 </defs>
</svg>
