<?xml version="1.0" encoding="utf-8" standalone="no"?>
<!DOCTYPE svg PUBLIC "-//W3C//DTD SVG 1.1//EN"
  "http://www.w3.org/Graphics/SVG/1.1/DTD/svg11.dtd">
<svg xmlns:xlink="http://www.w3.org/1999/xlink" width="244.8pt" height="165.6pt" viewBox="0 0 244.8 165.6" xmlns="http://www.w3.org/2000/svg" version="1.1">
 <metadata>
  <rdf:RDF xmlns:dc="http://purl.org/dc/elements/1.1/" xmlns:cc="http://creativecommons.org/ns#" xmlns:rdf="http://www.w3.org/1999/02/22-rdf-syntax-ns#">
   <cc:Work>
    <dc:type rdf:resource="http://purl.org/dc/dcmitype/StillImage"/>
    <dc:date>2023-11-03T12:21:12.557774</dc:date>
    <dc:format>image/svg+xml</dc:format>
    <dc:creator>
     <cc:Agent>
      <dc:title>Matplotlib v3.7.1, https://matplotlib.org/</dc:title>
     </cc:Agent>
    </dc:creator>
   </cc:Work>
  </rdf:RDF>
 </metadata>
 <defs>
  <style type="text/css">*{stroke-linejoin: round; stroke-linecap: butt}</style>
 </defs>
 <g id="figure_1">
  <g id="patch_1">
   <path d="M 0 165.6 
L 244.8 165.6 
L 244.8 0 
L 0 0 
z
" style="fill: #ffffff"/>
  </g>
  <g id="axes_1">
   <g id="patch_2">
    <path d="M 57.82 119.948 
L 234 119.948 
L 234 10.8 
L 57.82 10.8 
z
" style="fill: #ffffff"/>
   </g>
   <g id="PolyCollection_1">
    <defs>
     <path id="m7a18494724" d="M 65.828182 -50.613273 
L 65.828182 -50.613273 
L 67.429818 -52.204711 
L 69.031455 -81.927514 
L 70.633091 -78.01977 
L 72.234727 -149.838727 
L 73.836364 -71.256976 
L 75.438 -52.518514 
L 77.039636 -51.901871 
L 78.641273 -71.526499 
L 80.242909 -58.926277 
L 81.844545 -60.622984 
L 83.446182 -79.324399 
L 85.047818 -56.394102 
L 86.649455 -65.390786 
L 88.251091 -73.071451 
L 89.852727 -65.64739 
L 91.454364 -57.221188 
L 93.056 -66.722788 
L 94.657636 -55.727004 
L 96.259273 -67.939427 
L 97.860909 -61.248175 
L 99.462545 -72.57732 
L 101.064182 -52.463244 
L 102.665818 -55.171725 
L 104.267455 -143.963141 
L 105.869091 -72.93502 
L 107.470727 -115.353109 
L 109.072364 -82.043814 
L 110.674 -57.054897 
L 112.275636 -102.104271 
L 113.877273 -62.201442 
L 115.478909 -63.507528 
L 117.080545 -75.595212 
L 118.682182 -55.748314 
L 120.283818 -89.952516 
L 121.885455 -64.428313 
L 123.487091 -77.499416 
L 125.088727 -57.786878 
L 126.690364 -58.853323 
L 128.292 -52.07292 
L 129.893636 -58.129545 
L 131.495273 -73.102856 
L 133.096909 -62.909682 
L 134.698545 -58.368826 
L 136.300182 -61.534168 
L 137.901818 -59.526997 
L 139.503455 -53.214094 
L 141.105091 -54.821897 
L 142.706727 -55.58035 
L 144.308364 -52.782926 
L 145.91 -52.994349 
L 147.511636 -52.424376 
L 149.113273 -75.257389 
L 150.714909 -55.202417 
L 152.316545 -78.565571 
L 153.918182 -51.495155 
L 155.519818 -52.294814 
L 157.121455 -57.899658 
L 158.723091 -55.569099 
L 160.324727 -61.684028 
L 161.926364 -52.291517 
L 163.528 -55.952344 
L 165.129636 -50.854537 
L 166.731273 -51.060757 
L 168.332909 -59.065689 
L 169.934545 -61.090634 
L 171.536182 -54.090816 
L 173.137818 -51.332188 
L 174.739455 -51.66799 
L 176.341091 -146.62584 
L 177.942727 -61.659959 
L 179.544364 -59.666387 
L 181.146 -53.10356 
L 182.747636 -51.265887 
L 184.349273 -57.374714 
L 185.950909 -56.15726 
L 187.552545 -53.173235 
L 189.154182 -51.411511 
L 190.755818 -52.306034 
L 192.357455 -54.963472 
L 193.959091 -58.230403 
L 195.560727 -52.419921 
L 197.162364 -71.283578 
L 198.764 -53.25089 
L 200.365636 -53.238957 
L 201.967273 -56.751991 
L 203.568909 -112.438815 
L 205.170545 -66.01964 
L 206.772182 -53.911211 
L 208.373818 -66.190988 
L 209.975455 -62.626938 
L 211.577091 -60.857866 
L 213.178727 -60.566968 
L 214.780364 -55.088855 
L 216.382 -51.829227 
L 217.983636 -55.220628 
L 219.585273 -85.192429 
L 221.186909 -56.033818 
L 222.788545 -54.642186 
L 224.390182 -51.997175 
L 225.991818 -51.821584 
L 225.991818 -51.821584 
L 225.991818 -51.821584 
L 224.390182 -51.997175 
L 222.788545 -54.642186 
L 221.186909 -56.033818 
L 219.585273 -85.192429 
L 217.983636 -55.220628 
L 216.382 -51.829227 
L 214.780364 -55.088855 
L 213.178727 -60.566968 
L 211.577091 -60.857866 
L 209.975455 -62.626938 
L 208.373818 -66.190988 
L 206.772182 -53.911211 
L 205.170545 -66.01964 
L 203.568909 -112.438815 
L 201.967273 -56.751991 
L 200.365636 -53.238957 
L 198.764 -53.25089 
L 197.162364 -71.283578 
L 195.560727 -52.419921 
L 193.959091 -58.230403 
L 192.357455 -54.963472 
L 190.755818 -52.306034 
L 189.154182 -51.411511 
L 187.552545 -53.173235 
L 185.950909 -56.15726 
L 184.349273 -57.374714 
L 182.747636 -51.265887 
L 181.146 -53.10356 
L 179.544364 -59.666387 
L 177.942727 -61.659959 
L 176.341091 -146.62584 
L 174.739455 -51.66799 
L 173.137818 -51.332188 
L 171.536182 -54.090816 
L 169.934545 -61.090634 
L 168.332909 -59.065689 
L 166.731273 -51.060757 
L 165.129636 -50.854537 
L 163.528 -55.952344 
L 161.926364 -52.291517 
L 160.324727 -61.684028 
L 158.723091 -55.569099 
L 157.121455 -57.899658 
L 155.519818 -52.294814 
L 153.918182 -51.495155 
L 152.316545 -78.565571 
L 150.714909 -55.202417 
L 149.113273 -75.257389 
L 147.511636 -52.424376 
L 145.91 -52.994349 
L 144.308364 -52.782926 
L 142.706727 -55.58035 
L 141.105091 -54.821897 
L 139.503455 -53.214094 
L 137.901818 -59.526997 
L 136.300182 -61.534168 
L 134.698545 -58.368826 
L 133.096909 -62.909682 
L 131.495273 -73.102856 
L 129.893636 -58.129545 
L 128.292 -52.07292 
L 126.690364 -58.853323 
L 125.088727 -57.786878 
L 123.487091 -77.499416 
L 121.885455 -64.428313 
L 120.283818 -89.952516 
L 118.682182 -55.748314 
L 117.080545 -75.595212 
L 115.478909 -63.507528 
L 113.877273 -62.201442 
L 112.275636 -102.104271 
L 110.674 -57.054897 
L 109.072364 -82.043814 
L 107.470727 -115.353109 
L 105.869091 -72.93502 
L 104.267455 -143.963141 
L 102.665818 -55.171725 
L 101.064182 -52.463244 
L 99.462545 -72.57732 
L 97.860909 -61.248175 
L 96.259273 -67.939427 
L 94.657636 -55.727004 
L 93.056 -66.722788 
L 91.454364 -57.221188 
L 89.852727 -65.64739 
L 88.251091 -73.071451 
L 86.649455 -65.390786 
L 85.047818 -56.394102 
L 83.446182 -79.324399 
L 81.844545 -60.622984 
L 80.242909 -58.926277 
L 78.641273 -71.526499 
L 77.039636 -51.901871 
L 75.438 -52.518514 
L 73.836364 -71.256976 
L 72.234727 -149.838727 
L 70.633091 -78.01977 
L 69.031455 -81.927514 
L 67.429818 -52.204711 
L 65.828182 -50.613273 
z
" style="stroke: #ff7f0e; stroke-opacity: 0.2; stroke-width: 0.1"/>
    </defs>
    <g clip-path="url(#pf44428e350)">
     <use xlink:href="#m7a18494724" x="0" y="165.6" style="fill: #ff7f0e; fill-opacity: 0.2; stroke: #ff7f0e; stroke-opacity: 0.2; stroke-width: 0.1"/>
    </g>
   </g>
   <g id="matplotlib.axis_1">
    <g id="xtick_1">
     <g id="line2d_1">
      <defs>
       <path id="m9e95cecbd0" d="M 0 0 
L 0 3.5 
" style="stroke: #000000; stroke-width: 0.8"/>
      </defs>
      <g>
       <use xlink:href="#m9e95cecbd0" x="65.828182" y="119.948" style="stroke: #000000; stroke-width: 0.8"/>
      </g>
     </g>
     <g id="text_1">
      <!-- 0.0 -->
      <g transform="translate(57.876619 134.546437) scale(0.1 -0.1)">
       <defs>
        <path id="DejaVuSans-30" d="M 2034 4250 
Q 1547 4250 1301 3770 
Q 1056 3291 1056 2328 
Q 1056 1369 1301 889 
Q 1547 409 2034 409 
Q 2525 409 2770 889 
Q 3016 1369 3016 2328 
Q 3016 3291 2770 3770 
Q 2525 4250 2034 4250 
z
M 2034 4750 
Q 2819 4750 3233 4129 
Q 3647 3509 3647 2328 
Q 3647 1150 3233 529 
Q 2819 -91 2034 -91 
Q 1250 -91 836 529 
Q 422 1150 422 2328 
Q 422 3509 836 4129 
Q 1250 4750 2034 4750 
z
" transform="scale(0.015625)"/>
        <path id="DejaVuSans-2e" d="M 684 794 
L 1344 794 
L 1344 0 
L 684 0 
L 684 794 
z
" transform="scale(0.015625)"/>
       </defs>
       <use xlink:href="#DejaVuSans-30"/>
       <use xlink:href="#DejaVuSans-2e" x="63.623047"/>
       <use xlink:href="#DejaVuSans-30" x="95.410156"/>
      </g>
     </g>
    </g>
    <g id="xtick_2">
     <g id="line2d_2">
      <g>
       <use xlink:href="#m9e95cecbd0" x="105.869091" y="119.948" style="stroke: #000000; stroke-width: 0.8"/>
      </g>
     </g>
     <g id="text_2">
      <!-- 2.5 -->
      <g transform="translate(97.917528 134.546437) scale(0.1 -0.1)">
       <defs>
        <path id="DejaVuSans-32" d="M 1228 531 
L 3431 531 
L 3431 0 
L 469 0 
L 469 531 
Q 828 903 1448 1529 
Q 2069 2156 2228 2338 
Q 2531 2678 2651 2914 
Q 2772 3150 2772 3378 
Q 2772 3750 2511 3984 
Q 2250 4219 1831 4219 
Q 1534 4219 1204 4116 
Q 875 4013 500 3803 
L 500 4441 
Q 881 4594 1212 4672 
Q 1544 4750 1819 4750 
Q 2544 4750 2975 4387 
Q 3406 4025 3406 3419 
Q 3406 3131 3298 2873 
Q 3191 2616 2906 2266 
Q 2828 2175 2409 1742 
Q 1991 1309 1228 531 
z
" transform="scale(0.015625)"/>
        <path id="DejaVuSans-35" d="M 691 4666 
L 3169 4666 
L 3169 4134 
L 1269 4134 
L 1269 2991 
Q 1406 3038 1543 3061 
Q 1681 3084 1819 3084 
Q 2600 3084 3056 2656 
Q 3513 2228 3513 1497 
Q 3513 744 3044 326 
Q 2575 -91 1722 -91 
Q 1428 -91 1123 -41 
Q 819 9 494 109 
L 494 744 
Q 775 591 1075 516 
Q 1375 441 1709 441 
Q 2250 441 2565 725 
Q 2881 1009 2881 1497 
Q 2881 1984 2565 2268 
Q 2250 2553 1709 2553 
Q 1456 2553 1204 2497 
Q 953 2441 691 2322 
L 691 4666 
z
" transform="scale(0.015625)"/>
       </defs>
       <use xlink:href="#DejaVuSans-32"/>
       <use xlink:href="#DejaVuSans-2e" x="63.623047"/>
       <use xlink:href="#DejaVuSans-35" x="95.410156"/>
      </g>
     </g>
    </g>
    <g id="xtick_3">
     <g id="line2d_3">
      <g>
       <use xlink:href="#m9e95cecbd0" x="145.91" y="119.948" style="stroke: #000000; stroke-width: 0.8"/>
      </g>
     </g>
     <g id="text_3">
      <!-- 5.0 -->
      <g transform="translate(137.958437 134.546437) scale(0.1 -0.1)">
       <use xlink:href="#DejaVuSans-35"/>
       <use xlink:href="#DejaVuSans-2e" x="63.623047"/>
       <use xlink:href="#DejaVuSans-30" x="95.410156"/>
      </g>
     </g>
    </g>
    <g id="xtick_4">
     <g id="line2d_4">
      <g>
       <use xlink:href="#m9e95cecbd0" x="185.950909" y="119.948" style="stroke: #000000; stroke-width: 0.8"/>
      </g>
     </g>
     <g id="text_4">
      <!-- 7.5 -->
      <g transform="translate(177.999347 134.546437) scale(0.1 -0.1)">
       <defs>
        <path id="DejaVuSans-37" d="M 525 4666 
L 3525 4666 
L 3525 4397 
L 1831 0 
L 1172 0 
L 2766 4134 
L 525 4134 
L 525 4666 
z
" transform="scale(0.015625)"/>
       </defs>
       <use xlink:href="#DejaVuSans-37"/>
       <use xlink:href="#DejaVuSans-2e" x="63.623047"/>
       <use xlink:href="#DejaVuSans-35" x="95.410156"/>
      </g>
     </g>
    </g>
    <g id="xtick_5">
     <g id="line2d_5">
      <g>
       <use xlink:href="#m9e95cecbd0" x="225.991818" y="119.948" style="stroke: #000000; stroke-width: 0.8"/>
      </g>
     </g>
     <g id="text_5">
      <!-- 10.0 -->
      <g transform="translate(214.859006 134.546437) scale(0.1 -0.1)">
       <defs>
        <path id="DejaVuSans-31" d="M 794 531 
L 1825 531 
L 1825 4091 
L 703 3866 
L 703 4441 
L 1819 4666 
L 2450 4666 
L 2450 531 
L 3481 531 
L 3481 0 
L 794 0 
L 794 531 
z
" transform="scale(0.015625)"/>
       </defs>
       <use xlink:href="#DejaVuSans-31"/>
       <use xlink:href="#DejaVuSans-30" x="63.623047"/>
       <use xlink:href="#DejaVuSans-2e" x="127.246094"/>
       <use xlink:href="#DejaVuSans-30" x="159.033203"/>
      </g>
     </g>
    </g>
    <g id="text_6">
     <!-- time (units of $\omega_\mathrm{r}^{-1}$) -->
     <g transform="translate(99.11 147.126125) scale(0.1 -0.1)">
      <defs>
       <path id="DejaVuSans-74" d="M 1172 4494 
L 1172 3500 
L 2356 3500 
L 2356 3053 
L 1172 3053 
L 1172 1153 
Q 1172 725 1289 603 
Q 1406 481 1766 481 
L 2356 481 
L 2356 0 
L 1766 0 
Q 1100 0 847 248 
Q 594 497 594 1153 
L 594 3053 
L 172 3053 
L 172 3500 
L 594 3500 
L 594 4494 
L 1172 4494 
z
" transform="scale(0.015625)"/>
       <path id="DejaVuSans-69" d="M 603 3500 
L 1178 3500 
L 1178 0 
L 603 0 
L 603 3500 
z
M 603 4863 
L 1178 4863 
L 1178 4134 
L 603 4134 
L 603 4863 
z
" transform="scale(0.015625)"/>
       <path id="DejaVuSans-6d" d="M 3328 2828 
Q 3544 3216 3844 3400 
Q 4144 3584 4550 3584 
Q 5097 3584 5394 3201 
Q 5691 2819 5691 2113 
L 5691 0 
L 5113 0 
L 5113 2094 
Q 5113 2597 4934 2840 
Q 4756 3084 4391 3084 
Q 3944 3084 3684 2787 
Q 3425 2491 3425 1978 
L 3425 0 
L 2847 0 
L 2847 2094 
Q 2847 2600 2669 2842 
Q 2491 3084 2119 3084 
Q 1678 3084 1418 2786 
Q 1159 2488 1159 1978 
L 1159 0 
L 581 0 
L 581 3500 
L 1159 3500 
L 1159 2956 
Q 1356 3278 1631 3431 
Q 1906 3584 2284 3584 
Q 2666 3584 2933 3390 
Q 3200 3197 3328 2828 
z
" transform="scale(0.015625)"/>
       <path id="DejaVuSans-65" d="M 3597 1894 
L 3597 1613 
L 953 1613 
Q 991 1019 1311 708 
Q 1631 397 2203 397 
Q 2534 397 2845 478 
Q 3156 559 3463 722 
L 3463 178 
Q 3153 47 2828 -22 
Q 2503 -91 2169 -91 
Q 1331 -91 842 396 
Q 353 884 353 1716 
Q 353 2575 817 3079 
Q 1281 3584 2069 3584 
Q 2775 3584 3186 3129 
Q 3597 2675 3597 1894 
z
M 3022 2063 
Q 3016 2534 2758 2815 
Q 2500 3097 2075 3097 
Q 1594 3097 1305 2825 
Q 1016 2553 972 2059 
L 3022 2063 
z
" transform="scale(0.015625)"/>
       <path id="DejaVuSans-20" transform="scale(0.015625)"/>
       <path id="DejaVuSans-28" d="M 1984 4856 
Q 1566 4138 1362 3434 
Q 1159 2731 1159 2009 
Q 1159 1288 1364 580 
Q 1569 -128 1984 -844 
L 1484 -844 
Q 1016 -109 783 600 
Q 550 1309 550 2009 
Q 550 2706 781 3412 
Q 1013 4119 1484 4856 
L 1984 4856 
z
" transform="scale(0.015625)"/>
       <path id="DejaVuSans-75" d="M 544 1381 
L 544 3500 
L 1119 3500 
L 1119 1403 
Q 1119 906 1312 657 
Q 1506 409 1894 409 
Q 2359 409 2629 706 
Q 2900 1003 2900 1516 
L 2900 3500 
L 3475 3500 
L 3475 0 
L 2900 0 
L 2900 538 
Q 2691 219 2414 64 
Q 2138 -91 1772 -91 
Q 1169 -91 856 284 
Q 544 659 544 1381 
z
M 1991 3584 
L 1991 3584 
z
" transform="scale(0.015625)"/>
       <path id="DejaVuSans-6e" d="M 3513 2113 
L 3513 0 
L 2938 0 
L 2938 2094 
Q 2938 2591 2744 2837 
Q 2550 3084 2163 3084 
Q 1697 3084 1428 2787 
Q 1159 2491 1159 1978 
L 1159 0 
L 581 0 
L 581 3500 
L 1159 3500 
L 1159 2956 
Q 1366 3272 1645 3428 
Q 1925 3584 2291 3584 
Q 2894 3584 3203 3211 
Q 3513 2838 3513 2113 
z
" transform="scale(0.015625)"/>
       <path id="DejaVuSans-73" d="M 2834 3397 
L 2834 2853 
Q 2591 2978 2328 3040 
Q 2066 3103 1784 3103 
Q 1356 3103 1142 2972 
Q 928 2841 928 2578 
Q 928 2378 1081 2264 
Q 1234 2150 1697 2047 
L 1894 2003 
Q 2506 1872 2764 1633 
Q 3022 1394 3022 966 
Q 3022 478 2636 193 
Q 2250 -91 1575 -91 
Q 1294 -91 989 -36 
Q 684 19 347 128 
L 347 722 
Q 666 556 975 473 
Q 1284 391 1588 391 
Q 1994 391 2212 530 
Q 2431 669 2431 922 
Q 2431 1156 2273 1281 
Q 2116 1406 1581 1522 
L 1381 1569 
Q 847 1681 609 1914 
Q 372 2147 372 2553 
Q 372 3047 722 3315 
Q 1072 3584 1716 3584 
Q 2034 3584 2315 3537 
Q 2597 3491 2834 3397 
z
" transform="scale(0.015625)"/>
       <path id="DejaVuSans-6f" d="M 1959 3097 
Q 1497 3097 1228 2736 
Q 959 2375 959 1747 
Q 959 1119 1226 758 
Q 1494 397 1959 397 
Q 2419 397 2687 759 
Q 2956 1122 2956 1747 
Q 2956 2369 2687 2733 
Q 2419 3097 1959 3097 
z
M 1959 3584 
Q 2709 3584 3137 3096 
Q 3566 2609 3566 1747 
Q 3566 888 3137 398 
Q 2709 -91 1959 -91 
Q 1206 -91 779 398 
Q 353 888 353 1747 
Q 353 2609 779 3096 
Q 1206 3584 1959 3584 
z
" transform="scale(0.015625)"/>
       <path id="DejaVuSans-66" d="M 2375 4863 
L 2375 4384 
L 1825 4384 
Q 1516 4384 1395 4259 
Q 1275 4134 1275 3809 
L 1275 3500 
L 2222 3500 
L 2222 3053 
L 1275 3053 
L 1275 0 
L 697 0 
L 697 3053 
L 147 3053 
L 147 3500 
L 697 3500 
L 697 3744 
Q 697 4328 969 4595 
Q 1241 4863 1831 4863 
L 2375 4863 
z
" transform="scale(0.015625)"/>
       <path id="DejaVuSans-Oblique-3c9" d="M 1369 -91 
Q 72 -91 434 1766 
Q 575 2500 1256 3500 
L 1875 3500 
Q 1231 2500 1088 1750 
Q 819 397 1519 397 
Q 2166 397 2478 2078 
L 3009 2078 
Q 2669 388 3316 397 
Q 4013 403 4275 1750 
Q 4419 2500 4169 3500 
L 4788 3500 
Q 5075 2500 4934 1766 
Q 4578 -94 3278 -91 
Q 2428 -88 2503 844 
Q 2194 -91 1369 -91 
z
" transform="scale(0.015625)"/>
       <path id="DejaVuSans-2212" d="M 678 2272 
L 4684 2272 
L 4684 1741 
L 678 1741 
L 678 2272 
z
" transform="scale(0.015625)"/>
       <path id="DejaVuSans-72" d="M 2631 2963 
Q 2534 3019 2420 3045 
Q 2306 3072 2169 3072 
Q 1681 3072 1420 2755 
Q 1159 2438 1159 1844 
L 1159 0 
L 581 0 
L 581 3500 
L 1159 3500 
L 1159 2956 
Q 1341 3275 1631 3429 
Q 1922 3584 2338 3584 
Q 2397 3584 2469 3576 
Q 2541 3569 2628 3553 
L 2631 2963 
z
" transform="scale(0.015625)"/>
       <path id="DejaVuSans-29" d="M 513 4856 
L 1013 4856 
Q 1481 4119 1714 3412 
Q 1947 2706 1947 2009 
Q 1947 1309 1714 600 
Q 1481 -109 1013 -844 
L 513 -844 
Q 928 -128 1133 580 
Q 1338 1288 1338 2009 
Q 1338 2731 1133 3434 
Q 928 4138 513 4856 
z
" transform="scale(0.015625)"/>
      </defs>
      <use xlink:href="#DejaVuSans-74" transform="translate(0 0.684375)"/>
      <use xlink:href="#DejaVuSans-69" transform="translate(39.208984 0.684375)"/>
      <use xlink:href="#DejaVuSans-6d" transform="translate(66.992188 0.684375)"/>
      <use xlink:href="#DejaVuSans-65" transform="translate(164.404297 0.684375)"/>
      <use xlink:href="#DejaVuSans-20" transform="translate(225.927734 0.684375)"/>
      <use xlink:href="#DejaVuSans-28" transform="translate(257.714844 0.684375)"/>
      <use xlink:href="#DejaVuSans-75" transform="translate(296.728516 0.684375)"/>
      <use xlink:href="#DejaVuSans-6e" transform="translate(360.107422 0.684375)"/>
      <use xlink:href="#DejaVuSans-69" transform="translate(423.486328 0.684375)"/>
      <use xlink:href="#DejaVuSans-74" transform="translate(451.269531 0.684375)"/>
      <use xlink:href="#DejaVuSans-73" transform="translate(490.478516 0.684375)"/>
      <use xlink:href="#DejaVuSans-20" transform="translate(542.578125 0.684375)"/>
      <use xlink:href="#DejaVuSans-6f" transform="translate(574.365234 0.684375)"/>
      <use xlink:href="#DejaVuSans-66" transform="translate(635.546875 0.684375)"/>
      <use xlink:href="#DejaVuSans-20" transform="translate(670.751953 0.684375)"/>
      <use xlink:href="#DejaVuSans-Oblique-3c9" transform="translate(702.539062 0.684375)"/>
      <use xlink:href="#DejaVuSans-2212" transform="translate(790.745443 38.965625) scale(0.7)"/>
      <use xlink:href="#DejaVuSans-31" transform="translate(849.397786 38.965625) scale(0.7)"/>
      <use xlink:href="#DejaVuSans-72" transform="translate(786.279297 -26.659375) scale(0.7)"/>
      <use xlink:href="#DejaVuSans-29" transform="translate(896.668294 0.684375)"/>
     </g>
    </g>
   </g>
   <g id="matplotlib.axis_2">
    <g id="ytick_1">
     <g id="line2d_6">
      <defs>
       <path id="m71a914a34e" d="M 0 0 
L -3.5 0 
" style="stroke: #000000; stroke-width: 0.8"/>
      </defs>
      <g>
       <use xlink:href="#m71a914a34e" x="57.82" y="114.986727" style="stroke: #000000; stroke-width: 0.8"/>
      </g>
     </g>
     <g id="text_7">
      <!-- 0 -->
      <g transform="translate(44.4575 118.785946) scale(0.1 -0.1)">
       <use xlink:href="#DejaVuSans-30"/>
      </g>
     </g>
    </g>
    <g id="ytick_2">
     <g id="line2d_7">
      <g>
       <use xlink:href="#m71a914a34e" x="57.82" y="78.708107" style="stroke: #000000; stroke-width: 0.8"/>
      </g>
     </g>
     <g id="text_8">
      <!-- 500 -->
      <g transform="translate(31.7325 82.507326) scale(0.1 -0.1)">
       <use xlink:href="#DejaVuSans-35"/>
       <use xlink:href="#DejaVuSans-30" x="63.623047"/>
       <use xlink:href="#DejaVuSans-30" x="127.246094"/>
      </g>
     </g>
    </g>
    <g id="ytick_3">
     <g id="line2d_8">
      <g>
       <use xlink:href="#m71a914a34e" x="57.82" y="42.429487" style="stroke: #000000; stroke-width: 0.8"/>
      </g>
     </g>
     <g id="text_9">
      <!-- 1000 -->
      <g transform="translate(25.37 46.228706) scale(0.1 -0.1)">
       <use xlink:href="#DejaVuSans-31"/>
       <use xlink:href="#DejaVuSans-30" x="63.623047"/>
       <use xlink:href="#DejaVuSans-30" x="127.246094"/>
       <use xlink:href="#DejaVuSans-30" x="190.869141"/>
      </g>
     </g>
    </g>
    <g id="text_10">
     <!-- cavity population (units of $\hbar\omega_\mathrm{r}$) -->
     <g transform="translate(21.77 143.674) rotate(-90) scale(0.1 -0.1)">
      <defs>
       <path id="DejaVuSans-63" d="M 3122 3366 
L 3122 2828 
Q 2878 2963 2633 3030 
Q 2388 3097 2138 3097 
Q 1578 3097 1268 2742 
Q 959 2388 959 1747 
Q 959 1106 1268 751 
Q 1578 397 2138 397 
Q 2388 397 2633 464 
Q 2878 531 3122 666 
L 3122 134 
Q 2881 22 2623 -34 
Q 2366 -91 2075 -91 
Q 1284 -91 818 406 
Q 353 903 353 1747 
Q 353 2603 823 3093 
Q 1294 3584 2113 3584 
Q 2378 3584 2631 3529 
Q 2884 3475 3122 3366 
z
" transform="scale(0.015625)"/>
       <path id="DejaVuSans-61" d="M 2194 1759 
Q 1497 1759 1228 1600 
Q 959 1441 959 1056 
Q 959 750 1161 570 
Q 1363 391 1709 391 
Q 2188 391 2477 730 
Q 2766 1069 2766 1631 
L 2766 1759 
L 2194 1759 
z
M 3341 1997 
L 3341 0 
L 2766 0 
L 2766 531 
Q 2569 213 2275 61 
Q 1981 -91 1556 -91 
Q 1019 -91 701 211 
Q 384 513 384 1019 
Q 384 1609 779 1909 
Q 1175 2209 1959 2209 
L 2766 2209 
L 2766 2266 
Q 2766 2663 2505 2880 
Q 2244 3097 1772 3097 
Q 1472 3097 1187 3025 
Q 903 2953 641 2809 
L 641 3341 
Q 956 3463 1253 3523 
Q 1550 3584 1831 3584 
Q 2591 3584 2966 3190 
Q 3341 2797 3341 1997 
z
" transform="scale(0.015625)"/>
       <path id="DejaVuSans-76" d="M 191 3500 
L 800 3500 
L 1894 563 
L 2988 3500 
L 3597 3500 
L 2284 0 
L 1503 0 
L 191 3500 
z
" transform="scale(0.015625)"/>
       <path id="DejaVuSans-79" d="M 2059 -325 
Q 1816 -950 1584 -1140 
Q 1353 -1331 966 -1331 
L 506 -1331 
L 506 -850 
L 844 -850 
Q 1081 -850 1212 -737 
Q 1344 -625 1503 -206 
L 1606 56 
L 191 3500 
L 800 3500 
L 1894 763 
L 2988 3500 
L 3597 3500 
L 2059 -325 
z
" transform="scale(0.015625)"/>
       <path id="DejaVuSans-70" d="M 1159 525 
L 1159 -1331 
L 581 -1331 
L 581 3500 
L 1159 3500 
L 1159 2969 
Q 1341 3281 1617 3432 
Q 1894 3584 2278 3584 
Q 2916 3584 3314 3078 
Q 3713 2572 3713 1747 
Q 3713 922 3314 415 
Q 2916 -91 2278 -91 
Q 1894 -91 1617 61 
Q 1341 213 1159 525 
z
M 3116 1747 
Q 3116 2381 2855 2742 
Q 2594 3103 2138 3103 
Q 1681 3103 1420 2742 
Q 1159 2381 1159 1747 
Q 1159 1113 1420 752 
Q 1681 391 2138 391 
Q 2594 391 2855 752 
Q 3116 1113 3116 1747 
z
" transform="scale(0.015625)"/>
       <path id="DejaVuSans-6c" d="M 603 4863 
L 1178 4863 
L 1178 0 
L 603 0 
L 603 4863 
z
" transform="scale(0.015625)"/>
       <path id="DejaVuSans-Oblique-127" d="M 3634 2113 
L 3225 0 
L 2650 0 
L 3056 2094 
Q 3094 2291 3094 2450 
Q 3094 2688 3006 2838 
Q 2863 3084 2475 3084 
Q 2009 3084 1681 2788 
Q 1356 2491 1256 1978 
L 872 0 
L 294 0 
L 1066 3969 
L 675 3969 
L 775 4481 
L 1166 4481 
L 1238 4863 
L 1816 4863 
L 1744 4481 
L 2844 4481 
L 2744 3969 
L 1644 3969 
L 1447 2956 
Q 1713 3272 2025 3428 
Q 2331 3584 2700 3584 
Q 3300 3584 3538 3213 
Q 3688 2975 3688 2606 
Q 3688 2381 3634 2113 
z
" transform="scale(0.015625)"/>
      </defs>
      <use xlink:href="#DejaVuSans-63" transform="translate(0 0.015625)"/>
      <use xlink:href="#DejaVuSans-61" transform="translate(54.980469 0.015625)"/>
      <use xlink:href="#DejaVuSans-76" transform="translate(116.259766 0.015625)"/>
      <use xlink:href="#DejaVuSans-69" transform="translate(175.439453 0.015625)"/>
      <use xlink:href="#DejaVuSans-74" transform="translate(203.222656 0.015625)"/>
      <use xlink:href="#DejaVuSans-79" transform="translate(242.431641 0.015625)"/>
      <use xlink:href="#DejaVuSans-20" transform="translate(301.611328 0.015625)"/>
      <use xlink:href="#DejaVuSans-70" transform="translate(333.398438 0.015625)"/>
      <use xlink:href="#DejaVuSans-6f" transform="translate(396.875 0.015625)"/>
      <use xlink:href="#DejaVuSans-70" transform="translate(458.056641 0.015625)"/>
      <use xlink:href="#DejaVuSans-75" transform="translate(521.533203 0.015625)"/>
      <use xlink:href="#DejaVuSans-6c" transform="translate(584.912109 0.015625)"/>
      <use xlink:href="#DejaVuSans-61" transform="translate(612.695312 0.015625)"/>
      <use xlink:href="#DejaVuSans-74" transform="translate(673.974609 0.015625)"/>
      <use xlink:href="#DejaVuSans-69" transform="translate(713.183594 0.015625)"/>
      <use xlink:href="#DejaVuSans-6f" transform="translate(740.966797 0.015625)"/>
      <use xlink:href="#DejaVuSans-6e" transform="translate(802.148438 0.015625)"/>
      <use xlink:href="#DejaVuSans-20" transform="translate(865.527344 0.015625)"/>
      <use xlink:href="#DejaVuSans-28" transform="translate(897.314453 0.015625)"/>
      <use xlink:href="#DejaVuSans-75" transform="translate(936.328125 0.015625)"/>
      <use xlink:href="#DejaVuSans-6e" transform="translate(999.707031 0.015625)"/>
      <use xlink:href="#DejaVuSans-69" transform="translate(1063.085938 0.015625)"/>
      <use xlink:href="#DejaVuSans-74" transform="translate(1090.869141 0.015625)"/>
      <use xlink:href="#DejaVuSans-73" transform="translate(1130.078125 0.015625)"/>
      <use xlink:href="#DejaVuSans-20" transform="translate(1182.177734 0.015625)"/>
      <use xlink:href="#DejaVuSans-6f" transform="translate(1213.964844 0.015625)"/>
      <use xlink:href="#DejaVuSans-66" transform="translate(1275.146484 0.015625)"/>
      <use xlink:href="#DejaVuSans-20" transform="translate(1310.351562 0.015625)"/>
      <use xlink:href="#DejaVuSans-Oblique-127" transform="translate(1342.138672 0.015625)"/>
      <use xlink:href="#DejaVuSans-Oblique-3c9" transform="translate(1411.621094 0.015625)"/>
      <use xlink:href="#DejaVuSans-72" transform="translate(1495.361328 -16.390625) scale(0.7)"/>
      <use xlink:href="#DejaVuSans-29" transform="translate(1526.875 0.015625)"/>
     </g>
    </g>
   </g>
   <g id="line2d_9">
    <path d="M 65.828182 114.986727 
L 67.429818 113.395289 
L 69.031455 83.672486 
L 70.633091 87.58023 
L 72.234727 15.761273 
L 73.836364 94.343024 
L 75.438 113.081486 
L 77.039636 113.698129 
L 78.641273 94.073501 
L 80.242909 106.673723 
L 81.844545 104.977016 
L 83.446182 86.275601 
L 85.047818 109.205898 
L 86.649455 100.209214 
L 88.251091 92.528549 
L 89.852727 99.95261 
L 91.454364 108.378812 
L 93.056 98.877212 
L 94.657636 109.872996 
L 96.259273 97.660573 
L 97.860909 104.351825 
L 99.462545 93.02268 
L 101.064182 113.136756 
L 102.665818 110.428275 
L 104.267455 21.636859 
L 105.869091 92.66498 
L 107.470727 50.246891 
L 109.072364 83.556186 
L 110.674 108.545103 
L 112.275636 63.495729 
L 113.877273 103.398558 
L 115.478909 102.092472 
L 117.080545 90.004788 
L 118.682182 109.851686 
L 120.283818 75.647484 
L 121.885455 101.171687 
L 123.487091 88.100584 
L 125.088727 107.813122 
L 126.690364 106.746677 
L 128.292 113.52708 
L 129.893636 107.470455 
L 131.495273 92.497144 
L 133.096909 102.690318 
L 134.698545 107.231174 
L 136.300182 104.065832 
L 137.901818 106.073003 
L 139.503455 112.385906 
L 141.105091 110.778103 
L 142.706727 110.01965 
L 144.308364 112.817074 
L 145.91 112.605651 
L 147.511636 113.175624 
L 149.113273 90.342611 
L 150.714909 110.397583 
L 152.316545 87.034429 
L 153.918182 114.104845 
L 155.519818 113.305186 
L 157.121455 107.700342 
L 158.723091 110.030901 
L 160.324727 103.915972 
L 161.926364 113.308483 
L 163.528 109.647656 
L 165.129636 114.745463 
L 166.731273 114.539243 
L 168.332909 106.534311 
L 169.934545 104.509366 
L 171.536182 111.509184 
L 173.137818 114.267812 
L 174.739455 113.93201 
L 176.341091 18.97416 
L 177.942727 103.940041 
L 179.544364 105.933613 
L 181.146 112.49644 
L 182.747636 114.334113 
L 184.349273 108.225286 
L 185.950909 109.44274 
L 187.552545 112.426765 
L 189.154182 114.188489 
L 190.755818 113.293966 
L 192.357455 110.636528 
L 193.959091 107.369597 
L 195.560727 113.180079 
L 197.162364 94.316422 
L 198.764 112.34911 
L 200.365636 112.361043 
L 201.967273 108.848009 
L 203.568909 53.161185 
L 205.170545 99.58036 
L 206.772182 111.688789 
L 208.373818 99.409012 
L 209.975455 102.973062 
L 211.577091 104.742134 
L 213.178727 105.033032 
L 214.780364 110.511145 
L 216.382 113.770773 
L 217.983636 110.379372 
L 219.585273 80.407571 
L 221.186909 109.566182 
L 222.788545 110.957814 
L 224.390182 113.602825 
L 225.991818 113.778416 
" clip-path="url(#pf44428e350)" style="fill: none; stroke: #ff7f0e; stroke-width: 1.5; stroke-linecap: square"/>
   </g>
   <g id="line2d_10">
    <path d="M 65.828182 114.986727 
L 67.429818 114.986727 
L 69.031455 114.986727 
L 70.633091 114.986727 
L 72.234727 114.986727 
L 73.836364 114.986727 
L 75.438 114.986727 
L 77.039636 114.986727 
L 78.641273 114.986727 
L 80.242909 114.986727 
L 81.844545 114.986727 
L 83.446182 114.986727 
L 85.047818 114.986727 
L 86.649455 114.986727 
L 88.251091 114.986727 
L 89.852727 114.986727 
L 91.454364 114.986727 
L 93.056 114.986727 
L 94.657636 114.986727 
L 96.259273 114.986727 
L 97.860909 114.986727 
L 99.462545 114.986727 
L 101.064182 114.986727 
L 102.665818 114.986727 
L 104.267455 114.986727 
L 105.869091 114.986727 
L 107.470727 114.986727 
L 109.072364 114.986727 
L 110.674 114.986727 
L 112.275636 114.986727 
L 113.877273 114.986727 
L 115.478909 114.986727 
L 117.080545 114.986727 
L 118.682182 114.986727 
L 120.283818 114.986727 
L 121.885455 114.986727 
L 123.487091 114.986727 
L 125.088727 114.986727 
L 126.690364 114.986727 
L 128.292 114.986727 
L 129.893636 114.986727 
L 131.495273 114.986727 
L 133.096909 114.986727 
L 134.698545 114.986727 
L 136.300182 114.986727 
L 137.901818 114.986727 
L 139.503455 114.986727 
L 141.105091 114.986727 
L 142.706727 114.986727 
L 144.308364 114.986727 
L 145.91 114.986727 
L 147.511636 114.986727 
L 149.113273 114.986727 
L 150.714909 114.986727 
L 152.316545 114.986727 
L 153.918182 114.986727 
L 155.519818 114.986727 
L 157.121455 114.986727 
L 158.723091 114.986727 
L 160.324727 114.986727 
L 161.926364 114.986727 
L 163.528 114.986727 
L 165.129636 114.986727 
L 166.731273 114.986727 
L 168.332909 114.986727 
L 169.934545 114.986727 
L 171.536182 114.986727 
L 173.137818 114.986727 
L 174.739455 114.986727 
L 176.341091 114.986727 
L 177.942727 114.986727 
L 179.544364 114.986727 
L 181.146 114.986727 
L 182.747636 114.986727 
L 184.349273 114.986727 
L 185.950909 114.986727 
L 187.552545 114.986727 
L 189.154182 114.986727 
L 190.755818 114.986727 
L 192.357455 114.986727 
L 193.959091 114.986727 
L 195.560727 114.986727 
L 197.162364 114.986727 
L 198.764 114.986727 
L 200.365636 114.986727 
L 201.967273 114.986727 
L 203.568909 114.986727 
L 205.170545 114.986727 
L 206.772182 114.986727 
L 208.373818 114.986727 
L 209.975455 114.986727 
L 211.577091 114.986727 
L 213.178727 114.986727 
L 214.780364 114.986727 
L 216.382 114.986727 
L 217.983636 114.986727 
L 219.585273 114.986727 
L 221.186909 114.986727 
L 222.788545 114.986727 
L 224.390182 114.986727 
L 225.991818 114.986727 
" clip-path="url(#pf44428e350)" style="fill: none; stroke-dasharray: 5.55,2.4; stroke-dashoffset: 0; stroke: #2ca02c; stroke-width: 1.5"/>
   </g>
   <g id="patch_3">
    <path d="M 57.82 119.948 
L 57.82 10.8 
" style="fill: none; stroke: #000000; stroke-width: 0.8; stroke-linejoin: miter; stroke-linecap: square"/>
   </g>
   <g id="patch_4">
    <path d="M 234 119.948 
L 234 10.8 
" style="fill: none; stroke: #000000; stroke-width: 0.8; stroke-linejoin: miter; stroke-linecap: square"/>
   </g>
   <g id="patch_5">
    <path d="M 57.82 119.948 
L 234 119.948 
" style="fill: none; stroke: #000000; stroke-width: 0.8; stroke-linejoin: miter; stroke-linecap: square"/>
   </g>
   <g id="patch_6">
    <path d="M 57.82 10.8 
L 234 10.8 
" style="fill: none; stroke: #000000; stroke-width: 0.8; stroke-linejoin: miter; stroke-linecap: square"/>
   </g>
   <g id="legend_1">
    <g id="patch_7">
     <path d="M 54.210937 48.15625 
L 227 48.15625 
Q 229 48.15625 229 46.15625 
L 229 17.8 
Q 229 15.8 227 15.8 
L 54.210937 15.8 
Q 52.210937 15.8 52.210937 17.8 
L 52.210937 46.15625 
Q 52.210937 48.15625 54.210937 48.15625 
z
" style="fill: #ffffff; opacity: 0.8; stroke: #cccccc; stroke-linejoin: miter"/>
    </g>
    <g id="line2d_11">
     <path d="M 56.210937 23.898438 
L 68.710937 23.898438 
L 81.210937 23.898438 
" style="fill: none; stroke: #ff7f0e; stroke-width: 1.5; stroke-linecap: square"/>
    </g>
    <g id="text_11">
     <!-- cavity population -->
     <g transform="translate(89.210937 27.398438) scale(0.1 -0.1)">
      <use xlink:href="#DejaVuSans-63"/>
      <use xlink:href="#DejaVuSans-61" x="54.980469"/>
      <use xlink:href="#DejaVuSans-76" x="116.259766"/>
      <use xlink:href="#DejaVuSans-69" x="175.439453"/>
      <use xlink:href="#DejaVuSans-74" x="203.222656"/>
      <use xlink:href="#DejaVuSans-79" x="242.431641"/>
      <use xlink:href="#DejaVuSans-20" x="301.611328"/>
      <use xlink:href="#DejaVuSans-70" x="333.398438"/>
      <use xlink:href="#DejaVuSans-6f" x="396.875"/>
      <use xlink:href="#DejaVuSans-70" x="458.056641"/>
      <use xlink:href="#DejaVuSans-75" x="521.533203"/>
      <use xlink:href="#DejaVuSans-6c" x="584.912109"/>
      <use xlink:href="#DejaVuSans-61" x="612.695312"/>
      <use xlink:href="#DejaVuSans-74" x="673.974609"/>
      <use xlink:href="#DejaVuSans-69" x="713.183594"/>
      <use xlink:href="#DejaVuSans-6f" x="740.966797"/>
      <use xlink:href="#DejaVuSans-6e" x="802.148438"/>
     </g>
    </g>
    <g id="line2d_12">
     <path d="M 56.210937 38.576563 
L 68.710937 38.576563 
L 81.210937 38.576563 
" style="fill: none; stroke-dasharray: 5.55,2.4; stroke-dashoffset: 0; stroke: #2ca02c; stroke-width: 1.5"/>
    </g>
    <g id="text_12">
     <!-- adiabatic cavity population -->
     <g transform="translate(89.210937 42.076563) scale(0.1 -0.1)">
      <defs>
       <path id="DejaVuSans-64" d="M 2906 2969 
L 2906 4863 
L 3481 4863 
L 3481 0 
L 2906 0 
L 2906 525 
Q 2725 213 2448 61 
Q 2172 -91 1784 -91 
Q 1150 -91 751 415 
Q 353 922 353 1747 
Q 353 2572 751 3078 
Q 1150 3584 1784 3584 
Q 2172 3584 2448 3432 
Q 2725 3281 2906 2969 
z
M 947 1747 
Q 947 1113 1208 752 
Q 1469 391 1925 391 
Q 2381 391 2643 752 
Q 2906 1113 2906 1747 
Q 2906 2381 2643 2742 
Q 2381 3103 1925 3103 
Q 1469 3103 1208 2742 
Q 947 2381 947 1747 
z
" transform="scale(0.015625)"/>
       <path id="DejaVuSans-62" d="M 3116 1747 
Q 3116 2381 2855 2742 
Q 2594 3103 2138 3103 
Q 1681 3103 1420 2742 
Q 1159 2381 1159 1747 
Q 1159 1113 1420 752 
Q 1681 391 2138 391 
Q 2594 391 2855 752 
Q 3116 1113 3116 1747 
z
M 1159 2969 
Q 1341 3281 1617 3432 
Q 1894 3584 2278 3584 
Q 2916 3584 3314 3078 
Q 3713 2572 3713 1747 
Q 3713 922 3314 415 
Q 2916 -91 2278 -91 
Q 1894 -91 1617 61 
Q 1341 213 1159 525 
L 1159 0 
L 581 0 
L 581 4863 
L 1159 4863 
L 1159 2969 
z
" transform="scale(0.015625)"/>
      </defs>
      <use xlink:href="#DejaVuSans-61"/>
      <use xlink:href="#DejaVuSans-64" x="61.279297"/>
      <use xlink:href="#DejaVuSans-69" x="124.755859"/>
      <use xlink:href="#DejaVuSans-61" x="152.539062"/>
      <use xlink:href="#DejaVuSans-62" x="213.818359"/>
      <use xlink:href="#DejaVuSans-61" x="277.294922"/>
      <use xlink:href="#DejaVuSans-74" x="338.574219"/>
      <use xlink:href="#DejaVuSans-69" x="377.783203"/>
      <use xlink:href="#DejaVuSans-63" x="405.566406"/>
      <use xlink:href="#DejaVuSans-20" x="460.546875"/>
      <use xlink:href="#DejaVuSans-63" x="492.333984"/>
      <use xlink:href="#DejaVuSans-61" x="547.314453"/>
      <use xlink:href="#DejaVuSans-76" x="608.59375"/>
      <use xlink:href="#DejaVuSans-69" x="667.773438"/>
      <use xlink:href="#DejaVuSans-74" x="695.556641"/>
      <use xlink:href="#DejaVuSans-79" x="734.765625"/>
      <use xlink:href="#DejaVuSans-20" x="793.945312"/>
      <use xlink:href="#DejaVuSans-70" x="825.732422"/>
      <use xlink:href="#DejaVuSans-6f" x="889.208984"/>
      <use xlink:href="#DejaVuSans-70" x="950.390625"/>
      <use xlink:href="#DejaVuSans-75" x="1013.867188"/>
      <use xlink:href="#DejaVuSans-6c" x="1077.246094"/>
      <use xlink:href="#DejaVuSans-61" x="1105.029297"/>
      <use xlink:href="#DejaVuSans-74" x="1166.308594"/>
      <use xlink:href="#DejaVuSans-69" x="1205.517578"/>
      <use xlink:href="#DejaVuSans-6f" x="1233.300781"/>
      <use xlink:href="#DejaVuSans-6e" x="1294.482422"/>
     </g>
    </g>
   </g>
  </g>
 </g>
 <defs>
  <clipPath id="pf44428e350">
   <rect x="57.82" y="10.8" width="176.18" height="109.148"/>
  </clipPath>
 </defs>
</svg>
