<?xml version="1.0" encoding="utf-8" standalone="no"?>
<!DOCTYPE svg PUBLIC "-//W3C//DTD SVG 1.1//EN"
  "http://www.w3.org/Graphics/SVG/1.1/DTD/svg11.dtd">
<svg xmlns:xlink="http://www.w3.org/1999/xlink" width="244.8pt" height="165.6pt" viewBox="0 0 244.8 165.6" xmlns="http://www.w3.org/2000/svg" version="1.1">
 <metadata>
  <rdf:RDF xmlns:dc="http://purl.org/dc/elements/1.1/" xmlns:cc="http://creativecommons.org/ns#" xmlns:rdf="http://www.w3.org/1999/02/22-rdf-syntax-ns#">
   <cc:Work>
    <dc:type rdf:resource="http://purl.org/dc/dcmitype/StillImage"/>
    <dc:date>2023-11-03T13:10:07.896953</dc:date>
    <dc:format>image/svg+xml</dc:format>
    <dc:creator>
     <cc:Agent>
      <dc:title>Matplotlib v3.7.1, https://matplotlib.org/</dc:title>
     </cc:Agent>
    </dc:creator>
   </cc:Work>
  </rdf:RDF>
 </metadata>
 <defs>
  <style type="text/css">*{stroke-linejoin: round; stroke-linecap: butt}</style>
 </defs>
 <g id="figure_1">
  <g id="patch_1">
   <path d="M 0 165.6 
L 244.8 165.6 
L 244.8 0 
L 0 0 
z
" style="fill: #ffffff"/>
  </g>
  <g id="axes_1">
   <g id="patch_2">
    <path d="M 45.04 119.948 
L 233.038636 119.948 
L 233.038636 10.8 
L 45.04 10.8 
z
" style="fill: #ffffff"/>
   </g>
   <g id="PolyCollection_1">
    <defs>
     <path id="m407446f7bf" d="M 53.585393 -50.613273 
L 53.585393 -50.613273 
L 55.294471 -50.779186 
L 57.00355 -50.814102 
L 58.712628 -51.404305 
L 60.421707 -50.747316 
L 62.130785 -50.884117 
L 63.839864 -50.888821 
L 65.548942 -51.119902 
L 67.258021 -50.943561 
L 68.967099 -50.816969 
L 70.676178 -51.628104 
L 72.385256 -50.7717 
L 74.094335 -51.258641 
L 75.803413 -50.739809 
L 77.512492 -51.141494 
L 79.22157 -51.007554 
L 80.930649 -50.828227 
L 82.639727 -50.709345 
L 84.348806 -51.392463 
L 86.057884 -50.968929 
L 87.766963 -51.026923 
L 89.476041 -50.755309 
L 91.18512 -50.699806 
L 92.894198 -50.744026 
L 94.603277 -50.68908 
L 96.312355 -51.81928 
L 98.021434 -50.794719 
L 99.730512 -50.785895 
L 101.439591 -50.932998 
L 103.148669 -50.731234 
L 104.857748 -50.930984 
L 106.566826 -50.981618 
L 108.275905 -50.896009 
L 109.984983 -50.639652 
L 111.694062 -51.108155 
L 113.40314 -50.782258 
L 115.112219 -51.753863 
L 116.821298 -51.012556 
L 118.530376 -51.027343 
L 120.239455 -50.825497 
L 121.948533 -50.735766 
L 123.657612 -50.682166 
L 125.36669 -50.734931 
L 127.075769 -50.801286 
L 128.784847 -50.926006 
L 130.493926 -51.178819 
L 132.203004 -50.788158 
L 133.912083 -50.735844 
L 135.621161 -50.915001 
L 137.33024 -50.712624 
L 139.039318 -50.673944 
L 140.748397 -50.800221 
L 142.457475 -50.764159 
L 144.166554 -50.80345 
L 145.875632 -50.912146 
L 147.584711 -50.7945 
L 149.293789 -50.710066 
L 151.002868 -50.70205 
L 152.711946 -50.846201 
L 154.421025 -51.048211 
L 156.130103 -50.895282 
L 157.839182 -50.883142 
L 159.54826 -51.002907 
L 161.257339 -50.743521 
L 162.966417 -50.696267 
L 164.675496 -50.720646 
L 166.384574 -51.154409 
L 168.093653 -50.944857 
L 169.802731 -51.343281 
L 171.51181 -51.075739 
L 173.220888 -51.205543 
L 174.929967 -50.886587 
L 176.639045 -50.825534 
L 178.348124 -50.920971 
L 180.057202 -50.941594 
L 181.766281 -51.192494 
L 183.47536 -50.831385 
L 185.184438 -50.71903 
L 186.893517 -50.69849 
L 188.602595 -50.910618 
L 190.311674 -51.166516 
L 192.020752 -50.862266 
L 193.729831 -50.812851 
L 195.438909 -51.121682 
L 197.147988 -51.093879 
L 198.857066 -50.720428 
L 200.566145 -50.930516 
L 202.275223 -50.804113 
L 203.984302 -50.681324 
L 205.69338 -51.223029 
L 207.402459 -50.668774 
L 209.111537 -50.966675 
L 210.820616 -51.147969 
L 212.529694 -50.789403 
L 214.238773 -51.131159 
L 215.947851 -50.686195 
L 217.65693 -51.121998 
L 219.366008 -50.867124 
L 221.075087 -51.422136 
L 222.784165 -50.916898 
L 224.493244 -50.7302 
L 224.493244 -57.094123 
L 224.493244 -57.094123 
L 222.784165 -63.415245 
L 221.075087 -61.163653 
L 219.366008 -76.312212 
L 217.65693 -61.368484 
L 215.947851 -57.581813 
L 214.238773 -59.82681 
L 212.529694 -58.310515 
L 210.820616 -60.826833 
L 209.111537 -69.267115 
L 207.402459 -59.128374 
L 205.69338 -61.204362 
L 203.984302 -59.984083 
L 202.275223 -55.241981 
L 200.566145 -59.238282 
L 198.857066 -57.585042 
L 197.147988 -67.241881 
L 195.438909 -59.214792 
L 193.729831 -60.559011 
L 192.020752 -58.784355 
L 190.311674 -61.058074 
L 188.602595 -58.222464 
L 186.893517 -107.901221 
L 185.184438 -68.198372 
L 183.47536 -61.212746 
L 181.766281 -57.56799 
L 180.057202 -56.830567 
L 178.348124 -58.441748 
L 176.639045 -59.290428 
L 174.929967 -58.197795 
L 173.220888 -59.797336 
L 171.51181 -62.866053 
L 169.802731 -58.68568 
L 168.093653 -63.702142 
L 166.384574 -60.402961 
L 164.675496 -61.209244 
L 162.966417 -55.061596 
L 161.257339 -55.895409 
L 159.54826 -63.375129 
L 157.839182 -58.751324 
L 156.130103 -58.809568 
L 154.421025 -58.632602 
L 152.711946 -57.830138 
L 151.002868 -59.145004 
L 149.293789 -60.053169 
L 147.584711 -55.825659 
L 145.875632 -67.544408 
L 144.166554 -58.658637 
L 142.457475 -61.448082 
L 140.748397 -76.467583 
L 139.039318 -62.364992 
L 137.33024 -60.739518 
L 135.621161 -61.892448 
L 133.912083 -66.914349 
L 132.203004 -62.938076 
L 130.493926 -61.923035 
L 128.784847 -59.843532 
L 127.075769 -59.425556 
L 125.36669 -57.982147 
L 123.657612 -60.334744 
L 121.948533 -60.996729 
L 120.239455 -58.685145 
L 118.530376 -58.72387 
L 116.821298 -59.42501 
L 115.112219 -61.80847 
L 113.40314 -62.596068 
L 111.694062 -59.487317 
L 109.984983 -58.764616 
L 108.275905 -63.553078 
L 106.566826 -58.585737 
L 104.857748 -58.912075 
L 103.148669 -57.600453 
L 101.439591 -58.334175 
L 99.730512 -59.618803 
L 98.021434 -58.668346 
L 96.312355 -57.695662 
L 94.603277 -74.287225 
L 92.894198 -56.634525 
L 91.18512 -60.926331 
L 89.476041 -57.197839 
L 87.766963 -65.235613 
L 86.057884 -57.293946 
L 84.348806 -56.603464 
L 82.639727 -63.793446 
L 80.930649 -57.999759 
L 79.22157 -56.387942 
L 77.512492 -59.422254 
L 75.803413 -58.016362 
L 74.094335 -56.96359 
L 72.385256 -57.132647 
L 70.676178 -60.997367 
L 68.967099 -56.687709 
L 67.258021 -57.706176 
L 65.548942 -56.828343 
L 63.839864 -60.16237 
L 62.130785 -60.762648 
L 60.421707 -58.692914 
L 58.712628 -59.797536 
L 57.00355 -57.059443 
L 55.294471 -56.530236 
L 53.585393 -50.613273 
z
" style="stroke: #ff7f0e; stroke-opacity: 0.2; stroke-width: 0.1"/>
    </defs>
    <g clip-path="url(#pf588e5d3d7)">
     <use xlink:href="#m407446f7bf" x="0" y="165.6" style="fill: #ff7f0e; fill-opacity: 0.2; stroke: #ff7f0e; stroke-opacity: 0.2; stroke-width: 0.1"/>
    </g>
   </g>
   <g id="matplotlib.axis_1">
    <g id="xtick_1">
     <g id="line2d_1">
      <defs>
       <path id="mffc69fd8fc" d="M 0 0 
L 0 3.5 
" style="stroke: #000000; stroke-width: 0.8"/>
      </defs>
      <g>
       <use xlink:href="#mffc69fd8fc" x="53.585393" y="119.948" style="stroke: #000000; stroke-width: 0.8"/>
      </g>
     </g>
     <g id="text_1">
      <!-- 0 -->
      <g transform="translate(50.404143 134.546437) scale(0.1 -0.1)">
       <defs>
        <path id="DejaVuSans-30" d="M 2034 4250 
Q 1547 4250 1301 3770 
Q 1056 3291 1056 2328 
Q 1056 1369 1301 889 
Q 1547 409 2034 409 
Q 2525 409 2770 889 
Q 3016 1369 3016 2328 
Q 3016 3291 2770 3770 
Q 2525 4250 2034 4250 
z
M 2034 4750 
Q 2819 4750 3233 4129 
Q 3647 3509 3647 2328 
Q 3647 1150 3233 529 
Q 2819 -91 2034 -91 
Q 1250 -91 836 529 
Q 422 1150 422 2328 
Q 422 3509 836 4129 
Q 1250 4750 2034 4750 
z
" transform="scale(0.015625)"/>
       </defs>
       <use xlink:href="#DejaVuSans-30"/>
      </g>
     </g>
    </g>
    <g id="xtick_2">
     <g id="line2d_2">
      <g>
       <use xlink:href="#mffc69fd8fc" x="87.766963" y="119.948" style="stroke: #000000; stroke-width: 0.8"/>
      </g>
     </g>
     <g id="text_2">
      <!-- 20 -->
      <g transform="translate(81.404463 134.546437) scale(0.1 -0.1)">
       <defs>
        <path id="DejaVuSans-32" d="M 1228 531 
L 3431 531 
L 3431 0 
L 469 0 
L 469 531 
Q 828 903 1448 1529 
Q 2069 2156 2228 2338 
Q 2531 2678 2651 2914 
Q 2772 3150 2772 3378 
Q 2772 3750 2511 3984 
Q 2250 4219 1831 4219 
Q 1534 4219 1204 4116 
Q 875 4013 500 3803 
L 500 4441 
Q 881 4594 1212 4672 
Q 1544 4750 1819 4750 
Q 2544 4750 2975 4387 
Q 3406 4025 3406 3419 
Q 3406 3131 3298 2873 
Q 3191 2616 2906 2266 
Q 2828 2175 2409 1742 
Q 1991 1309 1228 531 
z
" transform="scale(0.015625)"/>
       </defs>
       <use xlink:href="#DejaVuSans-32"/>
       <use xlink:href="#DejaVuSans-30" x="63.623047"/>
      </g>
     </g>
    </g>
    <g id="xtick_3">
     <g id="line2d_3">
      <g>
       <use xlink:href="#mffc69fd8fc" x="121.948533" y="119.948" style="stroke: #000000; stroke-width: 0.8"/>
      </g>
     </g>
     <g id="text_3">
      <!-- 40 -->
      <g transform="translate(115.586033 134.546437) scale(0.1 -0.1)">
       <defs>
        <path id="DejaVuSans-34" d="M 2419 4116 
L 825 1625 
L 2419 1625 
L 2419 4116 
z
M 2253 4666 
L 3047 4666 
L 3047 1625 
L 3713 1625 
L 3713 1100 
L 3047 1100 
L 3047 0 
L 2419 0 
L 2419 1100 
L 313 1100 
L 313 1709 
L 2253 4666 
z
" transform="scale(0.015625)"/>
       </defs>
       <use xlink:href="#DejaVuSans-34"/>
       <use xlink:href="#DejaVuSans-30" x="63.623047"/>
      </g>
     </g>
    </g>
    <g id="xtick_4">
     <g id="line2d_4">
      <g>
       <use xlink:href="#mffc69fd8fc" x="156.130103" y="119.948" style="stroke: #000000; stroke-width: 0.8"/>
      </g>
     </g>
     <g id="text_4">
      <!-- 60 -->
      <g transform="translate(149.767603 134.546437) scale(0.1 -0.1)">
       <defs>
        <path id="DejaVuSans-36" d="M 2113 2584 
Q 1688 2584 1439 2293 
Q 1191 2003 1191 1497 
Q 1191 994 1439 701 
Q 1688 409 2113 409 
Q 2538 409 2786 701 
Q 3034 994 3034 1497 
Q 3034 2003 2786 2293 
Q 2538 2584 2113 2584 
z
M 3366 4563 
L 3366 3988 
Q 3128 4100 2886 4159 
Q 2644 4219 2406 4219 
Q 1781 4219 1451 3797 
Q 1122 3375 1075 2522 
Q 1259 2794 1537 2939 
Q 1816 3084 2150 3084 
Q 2853 3084 3261 2657 
Q 3669 2231 3669 1497 
Q 3669 778 3244 343 
Q 2819 -91 2113 -91 
Q 1303 -91 875 529 
Q 447 1150 447 2328 
Q 447 3434 972 4092 
Q 1497 4750 2381 4750 
Q 2619 4750 2861 4703 
Q 3103 4656 3366 4563 
z
" transform="scale(0.015625)"/>
       </defs>
       <use xlink:href="#DejaVuSans-36"/>
       <use xlink:href="#DejaVuSans-30" x="63.623047"/>
      </g>
     </g>
    </g>
    <g id="xtick_5">
     <g id="line2d_5">
      <g>
       <use xlink:href="#mffc69fd8fc" x="190.311674" y="119.948" style="stroke: #000000; stroke-width: 0.8"/>
      </g>
     </g>
     <g id="text_5">
      <!-- 80 -->
      <g transform="translate(183.949174 134.546437) scale(0.1 -0.1)">
       <defs>
        <path id="DejaVuSans-38" d="M 2034 2216 
Q 1584 2216 1326 1975 
Q 1069 1734 1069 1313 
Q 1069 891 1326 650 
Q 1584 409 2034 409 
Q 2484 409 2743 651 
Q 3003 894 3003 1313 
Q 3003 1734 2745 1975 
Q 2488 2216 2034 2216 
z
M 1403 2484 
Q 997 2584 770 2862 
Q 544 3141 544 3541 
Q 544 4100 942 4425 
Q 1341 4750 2034 4750 
Q 2731 4750 3128 4425 
Q 3525 4100 3525 3541 
Q 3525 3141 3298 2862 
Q 3072 2584 2669 2484 
Q 3125 2378 3379 2068 
Q 3634 1759 3634 1313 
Q 3634 634 3220 271 
Q 2806 -91 2034 -91 
Q 1263 -91 848 271 
Q 434 634 434 1313 
Q 434 1759 690 2068 
Q 947 2378 1403 2484 
z
M 1172 3481 
Q 1172 3119 1398 2916 
Q 1625 2713 2034 2713 
Q 2441 2713 2670 2916 
Q 2900 3119 2900 3481 
Q 2900 3844 2670 4047 
Q 2441 4250 2034 4250 
Q 1625 4250 1398 4047 
Q 1172 3844 1172 3481 
z
" transform="scale(0.015625)"/>
       </defs>
       <use xlink:href="#DejaVuSans-38"/>
       <use xlink:href="#DejaVuSans-30" x="63.623047"/>
      </g>
     </g>
    </g>
    <g id="xtick_6">
     <g id="line2d_6">
      <g>
       <use xlink:href="#mffc69fd8fc" x="224.493244" y="119.948" style="stroke: #000000; stroke-width: 0.8"/>
      </g>
     </g>
     <g id="text_6">
      <!-- 100 -->
      <g transform="translate(214.949494 134.546437) scale(0.1 -0.1)">
       <defs>
        <path id="DejaVuSans-31" d="M 794 531 
L 1825 531 
L 1825 4091 
L 703 3866 
L 703 4441 
L 1819 4666 
L 2450 4666 
L 2450 531 
L 3481 531 
L 3481 0 
L 794 0 
L 794 531 
z
" transform="scale(0.015625)"/>
       </defs>
       <use xlink:href="#DejaVuSans-31"/>
       <use xlink:href="#DejaVuSans-30" x="63.623047"/>
       <use xlink:href="#DejaVuSans-30" x="127.246094"/>
      </g>
     </g>
    </g>
    <g id="text_7">
     <!-- time (units of $\omega_\mathrm{r}^{-1}$) -->
     <g transform="translate(92.239318 147.126125) scale(0.1 -0.1)">
      <defs>
       <path id="DejaVuSans-74" d="M 1172 4494 
L 1172 3500 
L 2356 3500 
L 2356 3053 
L 1172 3053 
L 1172 1153 
Q 1172 725 1289 603 
Q 1406 481 1766 481 
L 2356 481 
L 2356 0 
L 1766 0 
Q 1100 0 847 248 
Q 594 497 594 1153 
L 594 3053 
L 172 3053 
L 172 3500 
L 594 3500 
L 594 4494 
L 1172 4494 
z
" transform="scale(0.015625)"/>
       <path id="DejaVuSans-69" d="M 603 3500 
L 1178 3500 
L 1178 0 
L 603 0 
L 603 3500 
z
M 603 4863 
L 1178 4863 
L 1178 4134 
L 603 4134 
L 603 4863 
z
" transform="scale(0.015625)"/>
       <path id="DejaVuSans-6d" d="M 3328 2828 
Q 3544 3216 3844 3400 
Q 4144 3584 4550 3584 
Q 5097 3584 5394 3201 
Q 5691 2819 5691 2113 
L 5691 0 
L 5113 0 
L 5113 2094 
Q 5113 2597 4934 2840 
Q 4756 3084 4391 3084 
Q 3944 3084 3684 2787 
Q 3425 2491 3425 1978 
L 3425 0 
L 2847 0 
L 2847 2094 
Q 2847 2600 2669 2842 
Q 2491 3084 2119 3084 
Q 1678 3084 1418 2786 
Q 1159 2488 1159 1978 
L 1159 0 
L 581 0 
L 581 3500 
L 1159 3500 
L 1159 2956 
Q 1356 3278 1631 3431 
Q 1906 3584 2284 3584 
Q 2666 3584 2933 3390 
Q 3200 3197 3328 2828 
z
" transform="scale(0.015625)"/>
       <path id="DejaVuSans-65" d="M 3597 1894 
L 3597 1613 
L 953 1613 
Q 991 1019 1311 708 
Q 1631 397 2203 397 
Q 2534 397 2845 478 
Q 3156 559 3463 722 
L 3463 178 
Q 3153 47 2828 -22 
Q 2503 -91 2169 -91 
Q 1331 -91 842 396 
Q 353 884 353 1716 
Q 353 2575 817 3079 
Q 1281 3584 2069 3584 
Q 2775 3584 3186 3129 
Q 3597 2675 3597 1894 
z
M 3022 2063 
Q 3016 2534 2758 2815 
Q 2500 3097 2075 3097 
Q 1594 3097 1305 2825 
Q 1016 2553 972 2059 
L 3022 2063 
z
" transform="scale(0.015625)"/>
       <path id="DejaVuSans-20" transform="scale(0.015625)"/>
       <path id="DejaVuSans-28" d="M 1984 4856 
Q 1566 4138 1362 3434 
Q 1159 2731 1159 2009 
Q 1159 1288 1364 580 
Q 1569 -128 1984 -844 
L 1484 -844 
Q 1016 -109 783 600 
Q 550 1309 550 2009 
Q 550 2706 781 3412 
Q 1013 4119 1484 4856 
L 1984 4856 
z
" transform="scale(0.015625)"/>
       <path id="DejaVuSans-75" d="M 544 1381 
L 544 3500 
L 1119 3500 
L 1119 1403 
Q 1119 906 1312 657 
Q 1506 409 1894 409 
Q 2359 409 2629 706 
Q 2900 1003 2900 1516 
L 2900 3500 
L 3475 3500 
L 3475 0 
L 2900 0 
L 2900 538 
Q 2691 219 2414 64 
Q 2138 -91 1772 -91 
Q 1169 -91 856 284 
Q 544 659 544 1381 
z
M 1991 3584 
L 1991 3584 
z
" transform="scale(0.015625)"/>
       <path id="DejaVuSans-6e" d="M 3513 2113 
L 3513 0 
L 2938 0 
L 2938 2094 
Q 2938 2591 2744 2837 
Q 2550 3084 2163 3084 
Q 1697 3084 1428 2787 
Q 1159 2491 1159 1978 
L 1159 0 
L 581 0 
L 581 3500 
L 1159 3500 
L 1159 2956 
Q 1366 3272 1645 3428 
Q 1925 3584 2291 3584 
Q 2894 3584 3203 3211 
Q 3513 2838 3513 2113 
z
" transform="scale(0.015625)"/>
       <path id="DejaVuSans-73" d="M 2834 3397 
L 2834 2853 
Q 2591 2978 2328 3040 
Q 2066 3103 1784 3103 
Q 1356 3103 1142 2972 
Q 928 2841 928 2578 
Q 928 2378 1081 2264 
Q 1234 2150 1697 2047 
L 1894 2003 
Q 2506 1872 2764 1633 
Q 3022 1394 3022 966 
Q 3022 478 2636 193 
Q 2250 -91 1575 -91 
Q 1294 -91 989 -36 
Q 684 19 347 128 
L 347 722 
Q 666 556 975 473 
Q 1284 391 1588 391 
Q 1994 391 2212 530 
Q 2431 669 2431 922 
Q 2431 1156 2273 1281 
Q 2116 1406 1581 1522 
L 1381 1569 
Q 847 1681 609 1914 
Q 372 2147 372 2553 
Q 372 3047 722 3315 
Q 1072 3584 1716 3584 
Q 2034 3584 2315 3537 
Q 2597 3491 2834 3397 
z
" transform="scale(0.015625)"/>
       <path id="DejaVuSans-6f" d="M 1959 3097 
Q 1497 3097 1228 2736 
Q 959 2375 959 1747 
Q 959 1119 1226 758 
Q 1494 397 1959 397 
Q 2419 397 2687 759 
Q 2956 1122 2956 1747 
Q 2956 2369 2687 2733 
Q 2419 3097 1959 3097 
z
M 1959 3584 
Q 2709 3584 3137 3096 
Q 3566 2609 3566 1747 
Q 3566 888 3137 398 
Q 2709 -91 1959 -91 
Q 1206 -91 779 398 
Q 353 888 353 1747 
Q 353 2609 779 3096 
Q 1206 3584 1959 3584 
z
" transform="scale(0.015625)"/>
       <path id="DejaVuSans-66" d="M 2375 4863 
L 2375 4384 
L 1825 4384 
Q 1516 4384 1395 4259 
Q 1275 4134 1275 3809 
L 1275 3500 
L 2222 3500 
L 2222 3053 
L 1275 3053 
L 1275 0 
L 697 0 
L 697 3053 
L 147 3053 
L 147 3500 
L 697 3500 
L 697 3744 
Q 697 4328 969 4595 
Q 1241 4863 1831 4863 
L 2375 4863 
z
" transform="scale(0.015625)"/>
       <path id="DejaVuSans-Oblique-3c9" d="M 1369 -91 
Q 72 -91 434 1766 
Q 575 2500 1256 3500 
L 1875 3500 
Q 1231 2500 1088 1750 
Q 819 397 1519 397 
Q 2166 397 2478 2078 
L 3009 2078 
Q 2669 388 3316 397 
Q 4013 403 4275 1750 
Q 4419 2500 4169 3500 
L 4788 3500 
Q 5075 2500 4934 1766 
Q 4578 -94 3278 -91 
Q 2428 -88 2503 844 
Q 2194 -91 1369 -91 
z
" transform="scale(0.015625)"/>
       <path id="DejaVuSans-2212" d="M 678 2272 
L 4684 2272 
L 4684 1741 
L 678 1741 
L 678 2272 
z
" transform="scale(0.015625)"/>
       <path id="DejaVuSans-72" d="M 2631 2963 
Q 2534 3019 2420 3045 
Q 2306 3072 2169 3072 
Q 1681 3072 1420 2755 
Q 1159 2438 1159 1844 
L 1159 0 
L 581 0 
L 581 3500 
L 1159 3500 
L 1159 2956 
Q 1341 3275 1631 3429 
Q 1922 3584 2338 3584 
Q 2397 3584 2469 3576 
Q 2541 3569 2628 3553 
L 2631 2963 
z
" transform="scale(0.015625)"/>
       <path id="DejaVuSans-29" d="M 513 4856 
L 1013 4856 
Q 1481 4119 1714 3412 
Q 1947 2706 1947 2009 
Q 1947 1309 1714 600 
Q 1481 -109 1013 -844 
L 513 -844 
Q 928 -128 1133 580 
Q 1338 1288 1338 2009 
Q 1338 2731 1133 3434 
Q 928 4138 513 4856 
z
" transform="scale(0.015625)"/>
      </defs>
      <use xlink:href="#DejaVuSans-74" transform="translate(0 0.684375)"/>
      <use xlink:href="#DejaVuSans-69" transform="translate(39.208984 0.684375)"/>
      <use xlink:href="#DejaVuSans-6d" transform="translate(66.992188 0.684375)"/>
      <use xlink:href="#DejaVuSans-65" transform="translate(164.404297 0.684375)"/>
      <use xlink:href="#DejaVuSans-20" transform="translate(225.927734 0.684375)"/>
      <use xlink:href="#DejaVuSans-28" transform="translate(257.714844 0.684375)"/>
      <use xlink:href="#DejaVuSans-75" transform="translate(296.728516 0.684375)"/>
      <use xlink:href="#DejaVuSans-6e" transform="translate(360.107422 0.684375)"/>
      <use xlink:href="#DejaVuSans-69" transform="translate(423.486328 0.684375)"/>
      <use xlink:href="#DejaVuSans-74" transform="translate(451.269531 0.684375)"/>
      <use xlink:href="#DejaVuSans-73" transform="translate(490.478516 0.684375)"/>
      <use xlink:href="#DejaVuSans-20" transform="translate(542.578125 0.684375)"/>
      <use xlink:href="#DejaVuSans-6f" transform="translate(574.365234 0.684375)"/>
      <use xlink:href="#DejaVuSans-66" transform="translate(635.546875 0.684375)"/>
      <use xlink:href="#DejaVuSans-20" transform="translate(670.751953 0.684375)"/>
      <use xlink:href="#DejaVuSans-Oblique-3c9" transform="translate(702.539062 0.684375)"/>
      <use xlink:href="#DejaVuSans-2212" transform="translate(790.745443 38.965625) scale(0.7)"/>
      <use xlink:href="#DejaVuSans-31" transform="translate(849.397786 38.965625) scale(0.7)"/>
      <use xlink:href="#DejaVuSans-72" transform="translate(786.279297 -26.659375) scale(0.7)"/>
      <use xlink:href="#DejaVuSans-29" transform="translate(896.668294 0.684375)"/>
     </g>
    </g>
   </g>
   <g id="matplotlib.axis_2">
    <g id="ytick_1">
     <g id="line2d_7">
      <defs>
       <path id="m9f7db7a288" d="M 0 0 
L -3.5 0 
" style="stroke: #000000; stroke-width: 0.8"/>
      </defs>
      <g>
       <use xlink:href="#m9f7db7a288" x="45.04" y="114.986727" style="stroke: #000000; stroke-width: 0.8"/>
      </g>
     </g>
     <g id="text_8">
      <!-- 0 -->
      <g transform="translate(31.6775 118.785946) scale(0.1 -0.1)">
       <use xlink:href="#DejaVuSans-30"/>
      </g>
     </g>
    </g>
    <g id="ytick_2">
     <g id="line2d_8">
      <g>
       <use xlink:href="#m9f7db7a288" x="45.04" y="83.76463" style="stroke: #000000; stroke-width: 0.8"/>
      </g>
     </g>
     <g id="text_9">
      <!-- 20 -->
      <g transform="translate(25.315 87.563848) scale(0.1 -0.1)">
       <use xlink:href="#DejaVuSans-32"/>
       <use xlink:href="#DejaVuSans-30" x="63.623047"/>
      </g>
     </g>
    </g>
    <g id="ytick_3">
     <g id="line2d_9">
      <g>
       <use xlink:href="#m9f7db7a288" x="45.04" y="52.542532" style="stroke: #000000; stroke-width: 0.8"/>
      </g>
     </g>
     <g id="text_10">
      <!-- 40 -->
      <g transform="translate(25.315 56.341751) scale(0.1 -0.1)">
       <use xlink:href="#DejaVuSans-34"/>
       <use xlink:href="#DejaVuSans-30" x="63.623047"/>
      </g>
     </g>
    </g>
    <g id="ytick_4">
     <g id="line2d_10">
      <g>
       <use xlink:href="#m9f7db7a288" x="45.04" y="21.320434" style="stroke: #000000; stroke-width: 0.8"/>
      </g>
     </g>
     <g id="text_11">
      <!-- 60 -->
      <g transform="translate(25.315 25.119653) scale(0.1 -0.1)">
       <use xlink:href="#DejaVuSans-36"/>
       <use xlink:href="#DejaVuSans-30" x="63.623047"/>
      </g>
     </g>
    </g>
    <g id="text_12">
     <!-- cavity population (units of $\hbar\omega_\mathrm{r}$) -->
     <g transform="translate(21.715 143.674) rotate(-90) scale(0.1 -0.1)">
      <defs>
       <path id="DejaVuSans-63" d="M 3122 3366 
L 3122 2828 
Q 2878 2963 2633 3030 
Q 2388 3097 2138 3097 
Q 1578 3097 1268 2742 
Q 959 2388 959 1747 
Q 959 1106 1268 751 
Q 1578 397 2138 397 
Q 2388 397 2633 464 
Q 2878 531 3122 666 
L 3122 134 
Q 2881 22 2623 -34 
Q 2366 -91 2075 -91 
Q 1284 -91 818 406 
Q 353 903 353 1747 
Q 353 2603 823 3093 
Q 1294 3584 2113 3584 
Q 2378 3584 2631 3529 
Q 2884 3475 3122 3366 
z
" transform="scale(0.015625)"/>
       <path id="DejaVuSans-61" d="M 2194 1759 
Q 1497 1759 1228 1600 
Q 959 1441 959 1056 
Q 959 750 1161 570 
Q 1363 391 1709 391 
Q 2188 391 2477 730 
Q 2766 1069 2766 1631 
L 2766 1759 
L 2194 1759 
z
M 3341 1997 
L 3341 0 
L 2766 0 
L 2766 531 
Q 2569 213 2275 61 
Q 1981 -91 1556 -91 
Q 1019 -91 701 211 
Q 384 513 384 1019 
Q 384 1609 779 1909 
Q 1175 2209 1959 2209 
L 2766 2209 
L 2766 2266 
Q 2766 2663 2505 2880 
Q 2244 3097 1772 3097 
Q 1472 3097 1187 3025 
Q 903 2953 641 2809 
L 641 3341 
Q 956 3463 1253 3523 
Q 1550 3584 1831 3584 
Q 2591 3584 2966 3190 
Q 3341 2797 3341 1997 
z
" transform="scale(0.015625)"/>
       <path id="DejaVuSans-76" d="M 191 3500 
L 800 3500 
L 1894 563 
L 2988 3500 
L 3597 3500 
L 2284 0 
L 1503 0 
L 191 3500 
z
" transform="scale(0.015625)"/>
       <path id="DejaVuSans-79" d="M 2059 -325 
Q 1816 -950 1584 -1140 
Q 1353 -1331 966 -1331 
L 506 -1331 
L 506 -850 
L 844 -850 
Q 1081 -850 1212 -737 
Q 1344 -625 1503 -206 
L 1606 56 
L 191 3500 
L 800 3500 
L 1894 763 
L 2988 3500 
L 3597 3500 
L 2059 -325 
z
" transform="scale(0.015625)"/>
       <path id="DejaVuSans-70" d="M 1159 525 
L 1159 -1331 
L 581 -1331 
L 581 3500 
L 1159 3500 
L 1159 2969 
Q 1341 3281 1617 3432 
Q 1894 3584 2278 3584 
Q 2916 3584 3314 3078 
Q 3713 2572 3713 1747 
Q 3713 922 3314 415 
Q 2916 -91 2278 -91 
Q 1894 -91 1617 61 
Q 1341 213 1159 525 
z
M 3116 1747 
Q 3116 2381 2855 2742 
Q 2594 3103 2138 3103 
Q 1681 3103 1420 2742 
Q 1159 2381 1159 1747 
Q 1159 1113 1420 752 
Q 1681 391 2138 391 
Q 2594 391 2855 752 
Q 3116 1113 3116 1747 
z
" transform="scale(0.015625)"/>
       <path id="DejaVuSans-6c" d="M 603 4863 
L 1178 4863 
L 1178 0 
L 603 0 
L 603 4863 
z
" transform="scale(0.015625)"/>
       <path id="DejaVuSans-Oblique-127" d="M 3634 2113 
L 3225 0 
L 2650 0 
L 3056 2094 
Q 3094 2291 3094 2450 
Q 3094 2688 3006 2838 
Q 2863 3084 2475 3084 
Q 2009 3084 1681 2788 
Q 1356 2491 1256 1978 
L 872 0 
L 294 0 
L 1066 3969 
L 675 3969 
L 775 4481 
L 1166 4481 
L 1238 4863 
L 1816 4863 
L 1744 4481 
L 2844 4481 
L 2744 3969 
L 1644 3969 
L 1447 2956 
Q 1713 3272 2025 3428 
Q 2331 3584 2700 3584 
Q 3300 3584 3538 3213 
Q 3688 2975 3688 2606 
Q 3688 2381 3634 2113 
z
" transform="scale(0.015625)"/>
      </defs>
      <use xlink:href="#DejaVuSans-63" transform="translate(0 0.015625)"/>
      <use xlink:href="#DejaVuSans-61" transform="translate(54.980469 0.015625)"/>
      <use xlink:href="#DejaVuSans-76" transform="translate(116.259766 0.015625)"/>
      <use xlink:href="#DejaVuSans-69" transform="translate(175.439453 0.015625)"/>
      <use xlink:href="#DejaVuSans-74" transform="translate(203.222656 0.015625)"/>
      <use xlink:href="#DejaVuSans-79" transform="translate(242.431641 0.015625)"/>
      <use xlink:href="#DejaVuSans-20" transform="translate(301.611328 0.015625)"/>
      <use xlink:href="#DejaVuSans-70" transform="translate(333.398438 0.015625)"/>
      <use xlink:href="#DejaVuSans-6f" transform="translate(396.875 0.015625)"/>
      <use xlink:href="#DejaVuSans-70" transform="translate(458.056641 0.015625)"/>
      <use xlink:href="#DejaVuSans-75" transform="translate(521.533203 0.015625)"/>
      <use xlink:href="#DejaVuSans-6c" transform="translate(584.912109 0.015625)"/>
      <use xlink:href="#DejaVuSans-61" transform="translate(612.695312 0.015625)"/>
      <use xlink:href="#DejaVuSans-74" transform="translate(673.974609 0.015625)"/>
      <use xlink:href="#DejaVuSans-69" transform="translate(713.183594 0.015625)"/>
      <use xlink:href="#DejaVuSans-6f" transform="translate(740.966797 0.015625)"/>
      <use xlink:href="#DejaVuSans-6e" transform="translate(802.148438 0.015625)"/>
      <use xlink:href="#DejaVuSans-20" transform="translate(865.527344 0.015625)"/>
      <use xlink:href="#DejaVuSans-28" transform="translate(897.314453 0.015625)"/>
      <use xlink:href="#DejaVuSans-75" transform="translate(936.328125 0.015625)"/>
      <use xlink:href="#DejaVuSans-6e" transform="translate(999.707031 0.015625)"/>
      <use xlink:href="#DejaVuSans-69" transform="translate(1063.085938 0.015625)"/>
      <use xlink:href="#DejaVuSans-74" transform="translate(1090.869141 0.015625)"/>
      <use xlink:href="#DejaVuSans-73" transform="translate(1130.078125 0.015625)"/>
      <use xlink:href="#DejaVuSans-20" transform="translate(1182.177734 0.015625)"/>
      <use xlink:href="#DejaVuSans-6f" transform="translate(1213.964844 0.015625)"/>
      <use xlink:href="#DejaVuSans-66" transform="translate(1275.146484 0.015625)"/>
      <use xlink:href="#DejaVuSans-20" transform="translate(1310.351562 0.015625)"/>
      <use xlink:href="#DejaVuSans-Oblique-127" transform="translate(1342.138672 0.015625)"/>
      <use xlink:href="#DejaVuSans-Oblique-3c9" transform="translate(1411.621094 0.015625)"/>
      <use xlink:href="#DejaVuSans-72" transform="translate(1495.361328 -16.390625) scale(0.7)"/>
      <use xlink:href="#DejaVuSans-29" transform="translate(1526.875 0.015625)"/>
     </g>
    </g>
   </g>
   <g id="line2d_11">
    <path d="M 53.585393 114.986727 
L 55.294471 112.201433 
L 57.00355 112.017924 
L 58.712628 111.392323 
L 60.421707 112.652418 
L 62.130785 111.396647 
L 63.839864 111.615378 
L 65.548942 112.161839 
L 67.258021 112.136704 
L 68.967099 111.789521 
L 70.676178 110.294381 
L 72.385256 112.512708 
L 74.094335 111.580056 
L 75.803413 112.757273 
L 77.512492 111.501909 
L 79.22157 112.280255 
L 80.930649 111.895562 
L 82.639727 104.469282 
L 84.348806 111.689871 
L 86.057884 111.321313 
L 87.766963 110.691774 
L 89.476041 112.334602 
L 91.18512 111.479818 
L 92.894198 112.583325 
L 94.603277 104.480292 
L 96.312355 111.360357 
L 98.021434 108.840997 
L 99.730512 111.164543 
L 101.439591 111.872443 
L 103.148669 112.453405 
L 104.857748 112.206987 
L 106.566826 111.568306 
L 108.275905 107.297828 
L 109.984983 111.787756 
L 111.694062 111.07589 
L 113.40314 110.901412 
L 115.112219 109.934487 
L 116.821298 93.943304 
L 118.530376 112.029227 
L 120.239455 112.531843 
L 121.948533 111.456425 
L 123.657612 100.809956 
L 125.36669 102.756715 
L 127.075769 111.19015 
L 128.784847 109.747334 
L 130.493926 111.963131 
L 132.203004 110.52544 
L 133.912083 110.342781 
L 135.621161 101.389744 
L 137.33024 111.785827 
L 139.039318 110.647801 
L 140.748397 109.887712 
L 142.457475 15.761273 
L 144.166554 112.367869 
L 145.875632 109.423555 
L 147.584711 112.628924 
L 149.293789 110.691862 
L 151.002868 111.866842 
L 152.711946 111.813149 
L 154.421025 112.345486 
L 156.130103 111.792509 
L 157.839182 111.4502 
L 159.54826 104.567999 
L 161.257339 112.48442 
L 162.966417 113.049246 
L 164.675496 97.850887 
L 166.384574 111.144135 
L 168.093653 110.426926 
L 169.802731 111.203799 
L 171.51181 110.936246 
L 173.220888 110.966859 
L 174.929967 111.351202 
L 176.639045 111.65089 
L 178.348124 111.427856 
L 180.057202 112.257411 
L 181.766281 112.24012 
L 183.47536 111.491939 
L 185.184438 109.979948 
L 186.893517 105.452304 
L 188.602595 112.160219 
L 190.311674 110.329879 
L 192.020752 111.487269 
L 193.729831 110.224459 
L 195.438909 110.710261 
L 197.147988 91.795251 
L 198.857066 112.270505 
L 200.566145 112.373838 
L 202.275223 112.638073 
L 203.984302 111.509705 
L 205.69338 109.870536 
L 207.402459 112.202149 
L 209.111537 109.054396 
L 210.820616 111.313502 
L 212.529694 112.06155 
L 214.238773 110.901875 
L 215.947851 112.548908 
L 217.65693 111.200983 
L 219.366008 110.286736 
L 221.075087 111.505362 
L 222.784165 110.71431 
L 224.493244 111.989681 
" clip-path="url(#pf588e5d3d7)" style="fill: none; stroke: #ff7f0e; stroke-width: 1.5; stroke-linecap: square"/>
   </g>
   <g id="line2d_12">
    <path d="M 53.585393 114.936898 
L 55.294471 95.423514 
L 57.00355 93.17766 
L 58.712628 101.737573 
L 60.421707 103.860972 
L 62.130785 104.157352 
L 63.839864 104.768383 
L 65.548942 103.487317 
L 67.258021 107.082631 
L 68.967099 108.122259 
L 70.676178 110.095536 
L 72.385256 107.394575 
L 74.094335 108.952385 
L 75.803413 111.464359 
L 77.512492 112.391618 
L 79.22157 112.618349 
L 80.930649 113.298929 
L 82.639727 112.753307 
L 84.348806 113.96105 
L 86.057884 112.952562 
L 87.766963 113.558797 
L 89.476041 113.050348 
L 91.18512 113.536873 
L 92.894198 113.741804 
L 94.603277 113.124248 
L 96.312355 113.152508 
L 98.021434 113.584349 
L 99.730512 113.457891 
L 101.439591 113.546811 
L 103.148669 112.688355 
L 104.857748 113.048411 
L 106.566826 113.238561 
L 108.275905 113.395028 
L 109.984983 113.250543 
L 111.694062 112.516742 
L 113.40314 112.97427 
L 115.112219 112.631867 
L 116.821298 112.943558 
L 118.530376 113.49858 
L 120.239455 112.298037 
L 121.948533 113.155062 
L 123.657612 113.198541 
L 125.36669 113.074548 
L 127.075769 113.04763 
L 128.784847 112.758678 
L 130.493926 113.398113 
L 132.203004 113.559359 
L 133.912083 113.155473 
L 135.621161 113.463778 
L 137.33024 113.268324 
L 139.039318 113.802548 
L 140.748397 113.325039 
L 142.457475 112.983462 
L 144.166554 113.468577 
L 145.875632 113.029956 
L 147.584711 112.380146 
L 149.293789 113.856982 
L 151.002868 112.984865 
L 152.711946 112.755617 
L 154.421025 113.47673 
L 156.130103 112.830704 
L 157.839182 113.821515 
L 159.54826 113.137835 
L 161.257339 113.041175 
L 162.966417 112.706203 
L 164.675496 113.501766 
L 166.384574 113.260666 
L 168.093653 113.472197 
L 169.802731 113.248654 
L 171.51181 113.76265 
L 173.220888 112.590586 
L 174.929967 113.544766 
L 176.639045 112.821577 
L 178.348124 112.74451 
L 180.057202 113.259387 
L 181.766281 113.039161 
L 183.47536 113.19424 
L 185.184438 113.546537 
L 186.893517 113.649904 
L 188.602595 113.658929 
L 190.311674 113.183863 
L 192.020752 112.734224 
L 193.729831 113.353401 
L 195.438909 113.195042 
L 197.147988 112.877478 
L 198.857066 113.543954 
L 200.566145 113.75265 
L 202.275223 113.529401 
L 203.984302 113.190159 
L 205.69338 113.036122 
L 207.402459 113.367722 
L 209.111537 112.574792 
L 210.820616 113.151109 
L 212.529694 112.691903 
L 214.238773 112.956785 
L 215.947851 113.005358 
L 217.65693 112.95501 
L 219.366008 113.002408 
L 221.075087 113.744598 
L 222.784165 113.494606 
L 224.493244 113.334632 
" clip-path="url(#pf588e5d3d7)" style="fill: none; stroke-dasharray: 5.55,2.4; stroke-dashoffset: 0; stroke: #2ca02c; stroke-width: 1.5"/>
   </g>
   <g id="patch_3">
    <path d="M 45.04 119.948 
L 45.04 10.8 
" style="fill: none; stroke: #000000; stroke-width: 0.8; stroke-linejoin: miter; stroke-linecap: square"/>
   </g>
   <g id="patch_4">
    <path d="M 233.038636 119.948 
L 233.038636 10.8 
" style="fill: none; stroke: #000000; stroke-width: 0.8; stroke-linejoin: miter; stroke-linecap: square"/>
   </g>
   <g id="patch_5">
    <path d="M 45.04 119.948 
L 233.038636 119.948 
" style="fill: none; stroke: #000000; stroke-width: 0.8; stroke-linejoin: miter; stroke-linecap: square"/>
   </g>
   <g id="patch_6">
    <path d="M 45.04 10.8 
L 233.038636 10.8 
" style="fill: none; stroke: #000000; stroke-width: 0.8; stroke-linejoin: miter; stroke-linecap: square"/>
   </g>
   <g id="legend_1">
    <g id="patch_7">
     <path d="M 53.249574 48.15625 
L 226.038636 48.15625 
Q 228.038636 48.15625 228.038636 46.15625 
L 228.038636 17.8 
Q 228.038636 15.8 226.038636 15.8 
L 53.249574 15.8 
Q 51.249574 15.8 51.249574 17.8 
L 51.249574 46.15625 
Q 51.249574 48.15625 53.249574 48.15625 
z
" style="fill: #ffffff; opacity: 0.8; stroke: #cccccc; stroke-linejoin: miter"/>
    </g>
    <g id="line2d_13">
     <path d="M 55.249574 23.898438 
L 67.749574 23.898438 
L 80.249574 23.898438 
" style="fill: none; stroke: #ff7f0e; stroke-width: 1.5; stroke-linecap: square"/>
    </g>
    <g id="text_13">
     <!-- cavity population -->
     <g transform="translate(88.249574 27.398438) scale(0.1 -0.1)">
      <use xlink:href="#DejaVuSans-63"/>
      <use xlink:href="#DejaVuSans-61" x="54.980469"/>
      <use xlink:href="#DejaVuSans-76" x="116.259766"/>
      <use xlink:href="#DejaVuSans-69" x="175.439453"/>
      <use xlink:href="#DejaVuSans-74" x="203.222656"/>
      <use xlink:href="#DejaVuSans-79" x="242.431641"/>
      <use xlink:href="#DejaVuSans-20" x="301.611328"/>
      <use xlink:href="#DejaVuSans-70" x="333.398438"/>
      <use xlink:href="#DejaVuSans-6f" x="396.875"/>
      <use xlink:href="#DejaVuSans-70" x="458.056641"/>
      <use xlink:href="#DejaVuSans-75" x="521.533203"/>
      <use xlink:href="#DejaVuSans-6c" x="584.912109"/>
      <use xlink:href="#DejaVuSans-61" x="612.695312"/>
      <use xlink:href="#DejaVuSans-74" x="673.974609"/>
      <use xlink:href="#DejaVuSans-69" x="713.183594"/>
      <use xlink:href="#DejaVuSans-6f" x="740.966797"/>
      <use xlink:href="#DejaVuSans-6e" x="802.148438"/>
     </g>
    </g>
    <g id="line2d_14">
     <path d="M 55.249574 38.576563 
L 67.749574 38.576563 
L 80.249574 38.576563 
" style="fill: none; stroke-dasharray: 5.55,2.4; stroke-dashoffset: 0; stroke: #2ca02c; stroke-width: 1.5"/>
    </g>
    <g id="text_14">
     <!-- adiabatic cavity population -->
     <g transform="translate(88.249574 42.076563) scale(0.1 -0.1)">
      <defs>
       <path id="DejaVuSans-64" d="M 2906 2969 
L 2906 4863 
L 3481 4863 
L 3481 0 
L 2906 0 
L 2906 525 
Q 2725 213 2448 61 
Q 2172 -91 1784 -91 
Q 1150 -91 751 415 
Q 353 922 353 1747 
Q 353 2572 751 3078 
Q 1150 3584 1784 3584 
Q 2172 3584 2448 3432 
Q 2725 3281 2906 2969 
z
M 947 1747 
Q 947 1113 1208 752 
Q 1469 391 1925 391 
Q 2381 391 2643 752 
Q 2906 1113 2906 1747 
Q 2906 2381 2643 2742 
Q 2381 3103 1925 3103 
Q 1469 3103 1208 2742 
Q 947 2381 947 1747 
z
" transform="scale(0.015625)"/>
       <path id="DejaVuSans-62" d="M 3116 1747 
Q 3116 2381 2855 2742 
Q 2594 3103 2138 3103 
Q 1681 3103 1420 2742 
Q 1159 2381 1159 1747 
Q 1159 1113 1420 752 
Q 1681 391 2138 391 
Q 2594 391 2855 752 
Q 3116 1113 3116 1747 
z
M 1159 2969 
Q 1341 3281 1617 3432 
Q 1894 3584 2278 3584 
Q 2916 3584 3314 3078 
Q 3713 2572 3713 1747 
Q 3713 922 3314 415 
Q 2916 -91 2278 -91 
Q 1894 -91 1617 61 
Q 1341 213 1159 525 
L 1159 0 
L 581 0 
L 581 4863 
L 1159 4863 
L 1159 2969 
z
" transform="scale(0.015625)"/>
      </defs>
      <use xlink:href="#DejaVuSans-61"/>
      <use xlink:href="#DejaVuSans-64" x="61.279297"/>
      <use xlink:href="#DejaVuSans-69" x="124.755859"/>
      <use xlink:href="#DejaVuSans-61" x="152.539062"/>
      <use xlink:href="#DejaVuSans-62" x="213.818359"/>
      <use xlink:href="#DejaVuSans-61" x="277.294922"/>
      <use xlink:href="#DejaVuSans-74" x="338.574219"/>
      <use xlink:href="#DejaVuSans-69" x="377.783203"/>
      <use xlink:href="#DejaVuSans-63" x="405.566406"/>
      <use xlink:href="#DejaVuSans-20" x="460.546875"/>
      <use xlink:href="#DejaVuSans-63" x="492.333984"/>
      <use xlink:href="#DejaVuSans-61" x="547.314453"/>
      <use xlink:href="#DejaVuSans-76" x="608.59375"/>
      <use xlink:href="#DejaVuSans-69" x="667.773438"/>
      <use xlink:href="#DejaVuSans-74" x="695.556641"/>
      <use xlink:href="#DejaVuSans-79" x="734.765625"/>
      <use xlink:href="#DejaVuSans-20" x="793.945312"/>
      <use xlink:href="#DejaVuSans-70" x="825.732422"/>
      <use xlink:href="#DejaVuSans-6f" x="889.208984"/>
      <use xlink:href="#DejaVuSans-70" x="950.390625"/>
      <use xlink:href="#DejaVuSans-75" x="1013.867188"/>
      <use xlink:href="#DejaVuSans-6c" x="1077.246094"/>
      <use xlink:href="#DejaVuSans-61" x="1105.029297"/>
      <use xlink:href="#DejaVuSans-74" x="1166.308594"/>
      <use xlink:href="#DejaVuSans-69" x="1205.517578"/>
      <use xlink:href="#DejaVuSans-6f" x="1233.300781"/>
      <use xlink:href="#DejaVuSans-6e" x="1294.482422"/>
     </g>
    </g>
   </g>
  </g>
 </g>
 <defs>
  <clipPath id="pf588e5d3d7">
   <rect x="45.04" y="10.8" width="187.998636" height="109.148"/>
  </clipPath>
 </defs>
</svg>
