<?xml version="1.0" encoding="utf-8" standalone="no"?>
<!DOCTYPE svg PUBLIC "-//W3C//DTD SVG 1.1//EN"
  "http://www.w3.org/Graphics/SVG/1.1/DTD/svg11.dtd">
<svg xmlns:xlink="http://www.w3.org/1999/xlink" width="302.4pt" height="172.8pt" viewBox="0 0 302.4 172.8" xmlns="http://www.w3.org/2000/svg" version="1.1">
 <metadata>
  <rdf:RDF xmlns:dc="http://purl.org/dc/elements/1.1/" xmlns:cc="http://creativecommons.org/ns#" xmlns:rdf="http://www.w3.org/1999/02/22-rdf-syntax-ns#">
   <cc:Work>
    <dc:type rdf:resource="http://purl.org/dc/dcmitype/StillImage"/>
    <dc:date>2023-11-03T12:53:12.139643</dc:date>
    <dc:format>image/svg+xml</dc:format>
    <dc:creator>
     <cc:Agent>
      <dc:title>Matplotlib v3.7.1, https://matplotlib.org/</dc:title>
     </cc:Agent>
    </dc:creator>
   </cc:Work>
  </rdf:RDF>
 </metadata>
 <defs>
  <style type="text/css">*{stroke-linejoin: round; stroke-linecap: butt}</style>
 </defs>
 <g id="figure_1">
  <g id="patch_1">
   <path d="M 0 172.8 
L 302.4 172.8 
L 302.4 0 
L 0 0 
z
" style="fill: #ffffff"/>
  </g>
  <g id="axes_1">
   <g id="patch_2">
    <path d="M 54.57 67.43097 
L 147.812789 67.43097 
L 147.812789 11.713939 
L 54.57 11.713939 
z
" style="fill: #ffffff"/>
   </g>
   <g id="PolyCollection_1">
    <defs>
     <path id="m2ce39de419" d="M 58.808309 -143.059201 
L 58.808309 -119.636352 
L 59.65597 -129.600419 
L 60.503632 -122.452517 
L 61.351294 -129.907025 
L 62.198955 -114.687487 
L 63.046617 -125.351152 
L 63.894279 -131.337739 
L 64.741941 -128.92397 
L 65.589602 -119.346186 
L 66.437264 -121.133928 
L 67.284926 -121.050334 
L 68.132588 -125.853527 
L 68.980249 -126.874723 
L 69.827911 -116.220943 
L 70.675573 -125.338916 
L 71.523234 -113.136337 
L 72.370896 -119.349834 
L 73.218558 -120.615691 
L 74.06622 -124.635097 
L 74.913881 -120.472119 
L 75.761543 -118.343132 
L 76.609205 -129.545137 
L 77.456866 -126.209928 
L 78.304528 -128.489019 
L 79.15219 -118.207956 
L 79.999852 -126.919638 
L 80.847513 -125.895166 
L 81.695175 -124.545465 
L 82.542837 -119.45297 
L 83.390498 -126.545089 
L 84.23816 -124.621149 
L 85.085822 -123.93845 
L 85.933484 -120.069372 
L 86.781145 -131.549891 
L 87.628807 -132.885258 
L 88.476469 -128.038334 
L 89.324131 -125.62965 
L 90.171792 -121.8061 
L 91.019454 -122.896362 
L 91.867116 -131.585846 
L 92.714777 -126.735292 
L 93.562439 -121.110214 
L 94.410101 -128.27 
L 95.257763 -124.863367 
L 96.105424 -125.027039 
L 96.953086 -127.252419 
L 97.800748 -128.183435 
L 98.648409 -117.995989 
L 99.496071 -123.439702 
L 100.343733 -118.726517 
L 101.191395 -124.100305 
L 102.039056 -112.362858 
L 102.886718 -126.87146 
L 103.73438 -123.616139 
L 104.582042 -117.353048 
L 105.429703 -123.440648 
L 106.277365 -117.692586 
L 107.125027 -119.124075 
L 107.972688 -109.76607 
L 108.82035 -122.456997 
L 109.668012 -122.088889 
L 110.515674 -124.008023 
L 111.363335 -129.025338 
L 112.210997 -114.973453 
L 113.058659 -128.910054 
L 113.90632 -125.174703 
L 114.753982 -123.208364 
L 115.601644 -125.18309 
L 116.449306 -122.454729 
L 117.296967 -121.145918 
L 118.144629 -123.533401 
L 118.992291 -116.732132 
L 119.839952 -123.800607 
L 120.687614 -124.46119 
L 121.535276 -125.957087 
L 122.382938 -127.970142 
L 123.230599 -118.091266 
L 124.078261 -121.889636 
L 124.925923 -122.769001 
L 125.773585 -121.319689 
L 126.621246 -118.08219 
L 127.468908 -123.746939 
L 128.31657 -118.431672 
L 129.164231 -114.318897 
L 130.011893 -125.340732 
L 130.859555 -124.105806 
L 131.707217 -126.444769 
L 132.554878 -124.073628 
L 133.40254 -119.957215 
L 134.250202 -126.792397 
L 135.097863 -126.069365 
L 135.945525 -124.273858 
L 136.793187 -121.860307 
L 137.640849 -122.499109 
L 138.48851 -118.226568 
L 139.336172 -117.130476 
L 140.183834 -127.638631 
L 141.031495 -122.09465 
L 141.879157 -126.858296 
L 142.726819 -123.30892 
L 143.574481 -126.508642 
L 143.574481 -131.050299 
L 143.574481 -131.050299 
L 142.726819 -147.379141 
L 141.879157 -149.145905 
L 141.031495 -150.236086 
L 140.183834 -147.160013 
L 139.336172 -140.539016 
L 138.48851 -139.854999 
L 137.640849 -143.439021 
L 136.793187 -144.982418 
L 135.945525 -150.667839 
L 135.097863 -144.079421 
L 134.250202 -138.70064 
L 133.40254 -140.880455 
L 132.554878 -151.717783 
L 131.707217 -149.110399 
L 130.859555 -151.101611 
L 130.011893 -148.692024 
L 129.164231 -135.90124 
L 128.31657 -143.692427 
L 127.468908 -155.122137 
L 126.621246 -142.576096 
L 125.773585 -131.663203 
L 124.925923 -141.942251 
L 124.078261 -147.949947 
L 123.230599 -141.100764 
L 122.382938 -143.826293 
L 121.535276 -142.655441 
L 120.687614 -147.448161 
L 119.839952 -136.42393 
L 118.992291 -141.599444 
L 118.144629 -136.228796 
L 117.296967 -131.077832 
L 116.449306 -137.923714 
L 115.601644 -139.376757 
L 114.753982 -139.505766 
L 113.90632 -139.027234 
L 113.058659 -143.654387 
L 112.210997 -145.324943 
L 111.363335 -151.027446 
L 110.515674 -139.900669 
L 109.668012 -137.666752 
L 108.82035 -145.73822 
L 107.972688 -140.554941 
L 107.125027 -148.003631 
L 106.277365 -141.030285 
L 105.429703 -139.357019 
L 104.582042 -142.496509 
L 103.73438 -142.338004 
L 102.886718 -147.889451 
L 102.039056 -150.823151 
L 101.191395 -144.01474 
L 100.343733 -139.875557 
L 99.496071 -146.470818 
L 98.648409 -153.864436 
L 97.800748 -151.155629 
L 96.953086 -134.1113 
L 96.105424 -143.177586 
L 95.257763 -144.669256 
L 94.410101 -147.077158 
L 93.562439 -139.619439 
L 92.714777 -148.949475 
L 91.867116 -143.872274 
L 91.019454 -143.133457 
L 90.171792 -135.86673 
L 89.324131 -138.46772 
L 88.476469 -157.101738 
L 87.628807 -142.357257 
L 86.781145 -143.6328 
L 85.933484 -145.226704 
L 85.085822 -151.780415 
L 84.23816 -147.437123 
L 83.390498 -142.661039 
L 82.542837 -139.526804 
L 81.695175 -145.676168 
L 80.847513 -142.282255 
L 79.999852 -149.872864 
L 79.15219 -140.631101 
L 78.304528 -140.472514 
L 77.456866 -146.476933 
L 76.609205 -137.140181 
L 75.761543 -151.188097 
L 74.913881 -147.874259 
L 74.06622 -148.778797 
L 73.218558 -135.925318 
L 72.370896 -140.008073 
L 71.523234 -137.470487 
L 70.675573 -134.065965 
L 69.827911 -138.014144 
L 68.980249 -153.149116 
L 68.132588 -143.148732 
L 67.284926 -142.414348 
L 66.437264 -140.013957 
L 65.589602 -139.599119 
L 64.741941 -142.410007 
L 63.894279 -146.505871 
L 63.046617 -135.712804 
L 62.198955 -145.543963 
L 61.351294 -150.183838 
L 60.503632 -137.631449 
L 59.65597 -137.85344 
L 58.808309 -143.059201 
z
" style="stroke: #1f77b4; stroke-opacity: 0.2"/>
    </defs>
    <g clip-path="url(#p06cab94be1)">
     <use xlink:href="#m2ce39de419" x="0" y="172.8" style="fill: #1f77b4; fill-opacity: 0.2; stroke: #1f77b4; stroke-opacity: 0.2"/>
    </g>
   </g>
   <g id="PolyCollection_2">
    <defs>
     <path id="m046f8e9718" d="M 58.808309 -147.893006 
L 58.808309 -127.172626 
L 59.65597 -123.688673 
L 60.503632 -128.968015 
L 61.351294 -128.417312 
L 62.198955 -129.433893 
L 63.046617 -123.090913 
L 63.894279 -116.256653 
L 64.741941 -126.626358 
L 65.589602 -118.499162 
L 66.437264 -124.277651 
L 67.284926 -133.390806 
L 68.132588 -120.384809 
L 68.980249 -127.817289 
L 69.827911 -129.063503 
L 70.675573 -129.068736 
L 71.523234 -117.265052 
L 72.370896 -120.073902 
L 73.218558 -131.747908 
L 74.06622 -118.460435 
L 74.913881 -125.195276 
L 75.761543 -125.387206 
L 76.609205 -130.539611 
L 77.456866 -117.728346 
L 78.304528 -127.862521 
L 79.15219 -123.479104 
L 79.999852 -119.72032 
L 80.847513 -124.37438 
L 81.695175 -124.117797 
L 82.542837 -124.153751 
L 83.390498 -134.564449 
L 84.23816 -126.685986 
L 85.085822 -124.177724 
L 85.933484 -131.337305 
L 86.781145 -121.0025 
L 87.628807 -125.791311 
L 88.476469 -120.185897 
L 89.324131 -124.953592 
L 90.171792 -128.742432 
L 91.019454 -124.27235 
L 91.867116 -112.914539 
L 92.714777 -109.914372 
L 93.562439 -116.483202 
L 94.410101 -122.873236 
L 95.257763 -129.88777 
L 96.105424 -122.548515 
L 96.953086 -116.173606 
L 97.800748 -125.453458 
L 98.648409 -128.003534 
L 99.496071 -124.824555 
L 100.343733 -119.899557 
L 101.191395 -117.601403 
L 102.039056 -125.838497 
L 102.886718 -127.251847 
L 103.73438 -118.731833 
L 104.582042 -130.358475 
L 105.429703 -122.741902 
L 106.277365 -119.684951 
L 107.125027 -125.17976 
L 107.972688 -127.012449 
L 108.82035 -125.719599 
L 109.668012 -131.301192 
L 110.515674 -125.887997 
L 111.363335 -124.199428 
L 112.210997 -111.844753 
L 113.058659 -119.824125 
L 113.90632 -127.81256 
L 114.753982 -125.34705 
L 115.601644 -132.961115 
L 116.449306 -114.892198 
L 117.296967 -118.15587 
L 118.144629 -118.378137 
L 118.992291 -124.490781 
L 119.839952 -127.007152 
L 120.687614 -124.190397 
L 121.535276 -124.408718 
L 122.382938 -122.419558 
L 123.230599 -127.354652 
L 124.078261 -121.626564 
L 124.925923 -124.172054 
L 125.773585 -121.74155 
L 126.621246 -136.31214 
L 127.468908 -120.187529 
L 128.31657 -122.206649 
L 129.164231 -119.572813 
L 130.011893 -122.601182 
L 130.859555 -118.915216 
L 131.707217 -122.799561 
L 132.554878 -114.07701 
L 133.40254 -115.802372 
L 134.250202 -127.334038 
L 135.097863 -129.056977 
L 135.945525 -121.582188 
L 136.793187 -120.696755 
L 137.640849 -119.626676 
L 138.48851 -117.028469 
L 139.336172 -118.421433 
L 140.183834 -123.727818 
L 141.031495 -122.223082 
L 141.879157 -122.880454 
L 142.726819 -121.264376 
L 143.574481 -136.319891 
L 143.574481 -148.043956 
L 143.574481 -148.043956 
L 142.726819 -147.751508 
L 141.879157 -150.833443 
L 141.031495 -137.30703 
L 140.183834 -150.750294 
L 139.336172 -142.507075 
L 138.48851 -139.956602 
L 137.640849 -144.415913 
L 136.793187 -136.002255 
L 135.945525 -147.062824 
L 135.097863 -146.449065 
L 134.250202 -143.59001 
L 133.40254 -143.534549 
L 132.554878 -145.976935 
L 131.707217 -146.82636 
L 130.859555 -134.789706 
L 130.011893 -142.566765 
L 129.164231 -142.630271 
L 128.31657 -147.070466 
L 127.468908 -146.520729 
L 126.621246 -152.232405 
L 125.773585 -140.189586 
L 124.925923 -147.337839 
L 124.078261 -143.859943 
L 123.230599 -144.74925 
L 122.382938 -147.232167 
L 121.535276 -143.060315 
L 120.687614 -145.641192 
L 119.839952 -145.115043 
L 118.992291 -139.434925 
L 118.144629 -141.04845 
L 117.296967 -147.631621 
L 116.449306 -145.178888 
L 115.601644 -142.072808 
L 114.753982 -143.017629 
L 113.90632 -144.705912 
L 113.058659 -148.79472 
L 112.210997 -137.465099 
L 111.363335 -143.545136 
L 110.515674 -147.877685 
L 109.668012 -137.694076 
L 108.82035 -138.199647 
L 107.972688 -141.740358 
L 107.125027 -139.210213 
L 106.277365 -145.757898 
L 105.429703 -145.867891 
L 104.582042 -144.000708 
L 103.73438 -146.95193 
L 102.886718 -148.858959 
L 102.039056 -134.385116 
L 101.191395 -145.336859 
L 100.343733 -138.710715 
L 99.496071 -144.343193 
L 98.648409 -138.889259 
L 97.800748 -150.525262 
L 96.953086 -138.564243 
L 96.105424 -139.816869 
L 95.257763 -141.131452 
L 94.410101 -145.616506 
L 93.562439 -137.989497 
L 92.714777 -140.705028 
L 91.867116 -146.111915 
L 91.019454 -137.06386 
L 90.171792 -144.770726 
L 89.324131 -139.42273 
L 88.476469 -150.11797 
L 87.628807 -136.095856 
L 86.781145 -151.144987 
L 85.933484 -142.384283 
L 85.085822 -141.506134 
L 84.23816 -143.919967 
L 83.390498 -147.012124 
L 82.542837 -146.698346 
L 81.695175 -148.924897 
L 80.847513 -134.347902 
L 79.999852 -142.601698 
L 79.15219 -143.077676 
L 78.304528 -143.707864 
L 77.456866 -141.353015 
L 76.609205 -142.640402 
L 75.761543 -137.704916 
L 74.913881 -144.72414 
L 74.06622 -134.157859 
L 73.218558 -144.830325 
L 72.370896 -144.066661 
L 71.523234 -135.125904 
L 70.675573 -148.2877 
L 69.827911 -144.164327 
L 68.980249 -141.387037 
L 68.132588 -140.009068 
L 67.284926 -145.052572 
L 66.437264 -147.272762 
L 65.589602 -138.12464 
L 64.741941 -140.860132 
L 63.894279 -147.319681 
L 63.046617 -138.596105 
L 62.198955 -135.462222 
L 61.351294 -151.974598 
L 60.503632 -139.982169 
L 59.65597 -137.222386 
L 58.808309 -147.893006 
z
" style="stroke: #ff7f0e; stroke-opacity: 0.2"/>
    </defs>
    <g clip-path="url(#p06cab94be1)">
     <use xlink:href="#m046f8e9718" x="0" y="172.8" style="fill: #ff7f0e; fill-opacity: 0.2; stroke: #ff7f0e; stroke-opacity: 0.2"/>
    </g>
   </g>
   <g id="matplotlib.axis_1">
    <g id="xtick_1">
     <g id="line2d_1">
      <defs>
       <path id="m1f9b6dd085" d="M 0 0 
L 0 3.5 
" style="stroke: #000000; stroke-width: 0.8"/>
      </defs>
      <g>
       <use xlink:href="#m1f9b6dd085" x="57.960647" y="67.43097" style="stroke: #000000; stroke-width: 0.8"/>
      </g>
     </g>
    </g>
    <g id="xtick_2">
     <g id="line2d_2">
      <g>
       <use xlink:href="#m1f9b6dd085" x="100.343733" y="67.43097" style="stroke: #000000; stroke-width: 0.8"/>
      </g>
     </g>
    </g>
    <g id="xtick_3">
     <g id="line2d_3">
      <g>
       <use xlink:href="#m1f9b6dd085" x="142.726819" y="67.43097" style="stroke: #000000; stroke-width: 0.8"/>
      </g>
     </g>
    </g>
   </g>
   <g id="matplotlib.axis_2">
    <g id="ytick_1">
     <g id="line2d_4">
      <defs>
       <path id="mcf55f94541" d="M 0 0 
L -3.5 0 
" style="stroke: #000000; stroke-width: 0.8"/>
      </defs>
      <g>
       <use xlink:href="#mcf55f94541" x="54.57" y="64.413148" style="stroke: #000000; stroke-width: 0.8"/>
      </g>
     </g>
     <g id="text_1">
      <!-- −0.02 -->
      <g transform="translate(16.924688 68.212367) scale(0.1 -0.1)">
       <defs>
        <path id="DejaVuSans-2212" d="M 678 2272 
L 4684 2272 
L 4684 1741 
L 678 1741 
L 678 2272 
z
" transform="scale(0.015625)"/>
        <path id="DejaVuSans-30" d="M 2034 4250 
Q 1547 4250 1301 3770 
Q 1056 3291 1056 2328 
Q 1056 1369 1301 889 
Q 1547 409 2034 409 
Q 2525 409 2770 889 
Q 3016 1369 3016 2328 
Q 3016 3291 2770 3770 
Q 2525 4250 2034 4250 
z
M 2034 4750 
Q 2819 4750 3233 4129 
Q 3647 3509 3647 2328 
Q 3647 1150 3233 529 
Q 2819 -91 2034 -91 
Q 1250 -91 836 529 
Q 422 1150 422 2328 
Q 422 3509 836 4129 
Q 1250 4750 2034 4750 
z
" transform="scale(0.015625)"/>
        <path id="DejaVuSans-2e" d="M 684 794 
L 1344 794 
L 1344 0 
L 684 0 
L 684 794 
z
" transform="scale(0.015625)"/>
        <path id="DejaVuSans-32" d="M 1228 531 
L 3431 531 
L 3431 0 
L 469 0 
L 469 531 
Q 828 903 1448 1529 
Q 2069 2156 2228 2338 
Q 2531 2678 2651 2914 
Q 2772 3150 2772 3378 
Q 2772 3750 2511 3984 
Q 2250 4219 1831 4219 
Q 1534 4219 1204 4116 
Q 875 4013 500 3803 
L 500 4441 
Q 881 4594 1212 4672 
Q 1544 4750 1819 4750 
Q 2544 4750 2975 4387 
Q 3406 4025 3406 3419 
Q 3406 3131 3298 2873 
Q 3191 2616 2906 2266 
Q 2828 2175 2409 1742 
Q 1991 1309 1228 531 
z
" transform="scale(0.015625)"/>
       </defs>
       <use xlink:href="#DejaVuSans-2212"/>
       <use xlink:href="#DejaVuSans-30" x="83.789062"/>
       <use xlink:href="#DejaVuSans-2e" x="147.412109"/>
       <use xlink:href="#DejaVuSans-30" x="179.199219"/>
       <use xlink:href="#DejaVuSans-32" x="242.822266"/>
      </g>
     </g>
    </g>
    <g id="ytick_2">
     <g id="line2d_5">
      <g>
       <use xlink:href="#mcf55f94541" x="54.57" y="39.466631" style="stroke: #000000; stroke-width: 0.8"/>
      </g>
     </g>
     <g id="text_2">
      <!-- 0.00 -->
      <g transform="translate(25.304375 43.26585) scale(0.1 -0.1)">
       <use xlink:href="#DejaVuSans-30"/>
       <use xlink:href="#DejaVuSans-2e" x="63.623047"/>
       <use xlink:href="#DejaVuSans-30" x="95.410156"/>
       <use xlink:href="#DejaVuSans-30" x="159.033203"/>
      </g>
     </g>
    </g>
    <g id="ytick_3">
     <g id="line2d_6">
      <g>
       <use xlink:href="#mcf55f94541" x="54.57" y="14.520114" style="stroke: #000000; stroke-width: 0.8"/>
      </g>
     </g>
     <g id="text_3">
      <!-- 0.02 -->
      <g transform="translate(25.304375 18.319333) scale(0.1 -0.1)">
       <use xlink:href="#DejaVuSans-30"/>
       <use xlink:href="#DejaVuSans-2e" x="63.623047"/>
       <use xlink:href="#DejaVuSans-30" x="95.410156"/>
       <use xlink:href="#DejaVuSans-32" x="159.033203"/>
      </g>
     </g>
    </g>
    <g id="text_4">
     <!-- $X$ -->
     <g transform="translate(18.845 43.022455) rotate(-90) scale(0.1 -0.1)">
      <defs>
       <path id="DejaVuSans-Oblique-58" d="M 878 4666 
L 1516 4666 
L 2316 2981 
L 3763 4666 
L 4500 4666 
L 2578 2438 
L 3738 0 
L 3103 0 
L 2163 1966 
L 459 0 
L -275 0 
L 1906 2509 
L 878 4666 
z
" transform="scale(0.015625)"/>
      </defs>
      <use xlink:href="#DejaVuSans-Oblique-58" transform="translate(0 0.09375)"/>
     </g>
    </g>
   </g>
   <g id="line2d_7">
    <path d="M 58.808309 42.380857 
L 59.65597 40.316651 
L 60.503632 42.833295 
L 61.351294 32.550852 
L 62.198955 39.647116 
L 63.046617 40.492109 
L 63.894279 34.432573 
L 64.741941 37.143207 
L 65.589602 43.958127 
L 66.437264 41.503523 
L 67.284926 37.443176 
L 68.132588 37.761331 
L 68.980249 37.485268 
L 69.827911 42.084725 
L 70.675573 43.812747 
L 71.523234 44.776379 
L 72.370896 41.851521 
L 73.218558 44.168632 
L 74.06622 38.362945 
L 74.913881 40.471013 
L 75.761543 37.676837 
L 76.609205 39.850512 
L 77.456866 36.312572 
L 78.304528 40.984658 
L 79.15219 41.664546 
L 79.999852 34.335179 
L 80.847513 38.488552 
L 81.695175 40.254598 
L 82.542837 43.152366 
L 83.390498 38.359485 
L 84.23816 36.43496 
L 85.085822 33.273072 
L 85.933484 41.952976 
L 86.781145 35.735583 
L 87.628807 36.532039 
L 88.476469 32.55328 
L 89.324131 38.908494 
L 90.171792 42.147627 
L 91.019454 37.736482 
L 91.867116 35.025062 
L 92.714777 35.357528 
L 93.562439 42.80662 
L 94.410101 34.994311 
L 95.257763 36.919055 
L 96.105424 39.303161 
L 96.953086 41.681252 
L 97.800748 34.358654 
L 98.648409 40.558238 
L 99.496071 39.988969 
L 100.343733 42.686907 
L 101.191395 37.475006 
L 102.039056 40.846675 
L 102.886718 37.496008 
L 103.73438 37.885262 
L 104.582042 42.582882 
L 105.429703 39.451006 
L 106.277365 40.157872 
L 107.125027 40.709602 
L 107.972688 44.390209 
L 108.82035 39.935006 
L 109.668012 44.004624 
L 110.515674 39.396782 
L 111.363335 34.197925 
L 112.210997 40.525061 
L 113.058659 37.668 
L 113.90632 41.057308 
L 114.753982 40.139361 
L 115.601644 41.793333 
L 116.449306 42.180678 
L 117.296967 47.659345 
L 118.144629 43.418053 
L 118.992291 41.657934 
L 119.839952 42.404281 
L 120.687614 37.049248 
L 121.535276 39.340119 
L 122.382938 37.809226 
L 123.230599 42.649223 
L 124.078261 38.478082 
L 124.925923 40.523695 
L 125.773585 45.948112 
L 126.621246 40.410087 
L 127.468908 38.11654 
L 128.31657 42.290319 
L 129.164231 44.162514 
L 130.011893 35.107953 
L 130.859555 34.427723 
L 131.707217 38.505687 
L 132.554878 37.577144 
L 133.40254 42.413117 
L 134.250202 41.29358 
L 135.097863 38.748202 
L 135.945525 35.887662 
L 136.793187 40.094372 
L 137.640849 38.351287 
L 138.48851 45.786741 
L 139.336172 43.607989 
L 140.183834 36.911033 
L 141.031495 36.450387 
L 141.879157 32.96556 
L 142.726819 38.987141 
L 143.574481 43.861938 
" clip-path="url(#p06cab94be1)" style="fill: none; stroke: #1f77b4; stroke-width: 1.5; stroke-linecap: square"/>
   </g>
   <g id="line2d_8">
    <path d="M 58.808309 37.532745 
L 59.65597 41.106175 
L 60.503632 38.78474 
L 61.351294 34.312873 
L 62.198955 40.522997 
L 63.046617 43.19162 
L 63.894279 38.275671 
L 64.741941 38.787889 
L 65.589602 44.106366 
L 66.437264 37.463235 
L 67.284926 33.366426 
L 68.132588 41.515039 
L 68.980249 35.640288 
L 69.827911 36.143367 
L 70.675573 36.29419 
L 71.523234 45.189138 
L 72.370896 39.99408 
L 73.218558 33.782716 
L 74.06622 44.335208 
L 74.913881 38.174001 
L 75.761543 40.934641 
L 76.609205 37.049576 
L 77.456866 41.998993 
L 78.304528 37.425531 
L 79.15219 41.677514 
L 79.999852 42.935899 
L 80.847513 43.334446 
L 81.695175 36.449958 
L 82.542837 39.392786 
L 83.390498 33.230753 
L 84.23816 37.397112 
L 85.085822 40.047309 
L 85.933484 35.20964 
L 86.781145 35.785034 
L 87.628807 42.867466 
L 88.476469 38.540295 
L 89.324131 42.252573 
L 90.171792 36.946622 
L 91.019454 40.423874 
L 91.867116 39.064477 
L 92.714777 44.776188 
L 93.562439 45.638869 
L 94.410101 36.628919 
L 95.257763 39.574293 
L 96.105424 41.972358 
L 96.953086 42.988497 
L 97.800748 37.253821 
L 98.648409 39.548479 
L 99.496071 39.628164 
L 100.343733 44.538705 
L 101.191395 43.483657 
L 102.039056 42.106594 
L 102.886718 35.601885 
L 103.73438 40.897635 
L 104.582042 37.564153 
L 105.429703 39.840019 
L 106.277365 38.621339 
L 107.125027 40.452112 
L 107.972688 38.349591 
L 108.82035 39.822955 
L 109.668012 38.565685 
L 110.515674 34.311972 
L 111.363335 39.872877 
L 112.210997 46.189812 
L 113.058659 40.097592 
L 113.90632 38.680345 
L 114.753982 38.545576 
L 115.601644 34.627692 
L 116.449306 40.8944 
L 117.296967 38.09911 
L 118.144629 44.319429 
L 118.992291 41.563773 
L 119.839952 37.464306 
L 120.687614 38.236818 
L 121.535276 36.712018 
L 122.382938 38.68109 
L 123.230599 38.695053 
L 124.078261 38.944123 
L 124.925923 38.129394 
L 125.773585 39.493653 
L 126.621246 29.010396 
L 127.468908 40.77457 
L 128.31657 36.728001 
L 129.164231 38.224424 
L 130.011893 39.799495 
L 130.859555 46.591708 
L 131.707217 38.766523 
L 132.554878 44.434289 
L 133.40254 40.0084 
L 134.250202 37.116872 
L 135.097863 36.972608 
L 135.945525 38.437702 
L 136.793187 46.337766 
L 137.640849 37.444973 
L 138.48851 44.687897 
L 139.336172 40.338719 
L 140.183834 35.296903 
L 141.031495 42.772867 
L 141.879157 36.383748 
L 142.726819 39.960275 
L 143.574481 31.490578 
" clip-path="url(#p06cab94be1)" style="fill: none; stroke-dasharray: 1.5,2.475; stroke-dashoffset: 0; stroke: #ff7f0e; stroke-width: 1.5"/>
   </g>
   <g id="patch_3">
    <path d="M 54.57 67.43097 
L 54.57 11.713939 
" style="fill: none; stroke: #000000; stroke-width: 0.8; stroke-linejoin: miter; stroke-linecap: square"/>
   </g>
   <g id="patch_4">
    <path d="M 147.812789 67.43097 
L 147.812789 11.713939 
" style="fill: none; stroke: #000000; stroke-width: 0.8; stroke-linejoin: miter; stroke-linecap: square"/>
   </g>
   <g id="patch_5">
    <path d="M 54.57 67.43097 
L 147.812789 67.43097 
" style="fill: none; stroke: #000000; stroke-width: 0.8; stroke-linejoin: miter; stroke-linecap: square"/>
   </g>
   <g id="patch_6">
    <path d="M 54.57 11.713939 
L 147.812789 11.713939 
" style="fill: none; stroke: #000000; stroke-width: 0.8; stroke-linejoin: miter; stroke-linecap: square"/>
   </g>
   <g id="legend_1">
    <g id="patch_7">
     <path d="M 71.891395 62.43097 
L 130.491395 62.43097 
Q 132.491395 62.43097 132.491395 60.43097 
L 132.491395 32.07472 
Q 132.491395 30.07472 130.491395 30.07472 
L 71.891395 30.07472 
Q 69.891395 30.07472 69.891395 32.07472 
L 69.891395 60.43097 
Q 69.891395 62.43097 71.891395 62.43097 
z
" style="fill: #ffffff; opacity: 0.8; stroke: #cccccc; stroke-linejoin: miter"/>
    </g>
    <g id="line2d_9">
     <path d="M 73.891395 38.173157 
L 83.891395 38.173157 
L 93.891395 38.173157 
" style="fill: none; stroke: #1f77b4; stroke-width: 1.5; stroke-linecap: square"/>
    </g>
    <g id="text_5">
     <!-- $\Phi&lt;0$ -->
     <g transform="translate(101.891395 41.673157) scale(0.1 -0.1)">
      <defs>
       <path id="DejaVuSans-3a6" d="M 2206 3644 
Q 1738 3578 1431 3306 
Q 1025 2947 1025 2328 
Q 1025 1713 1431 1353 
Q 1738 1081 2206 1016 
L 2206 3644 
z
M 2838 1016 
Q 3306 1081 3613 1353 
Q 4013 1713 4013 2328 
Q 4013 2947 3613 3306 
Q 3306 3578 2838 3644 
L 2838 1016 
z
M 2206 494 
Q 1444 563 950 981 
Q 359 1481 359 2328 
Q 359 3175 950 3678 
Q 1441 4100 2206 4169 
L 2206 4666 
L 2838 4666 
L 2838 4169 
Q 3600 4097 4091 3678 
Q 4678 3175 4678 2328 
Q 4678 1484 4091 981 
Q 3600 563 2838 491 
L 2838 0 
L 2206 0 
L 2206 494 
z
" transform="scale(0.015625)"/>
       <path id="DejaVuSans-3c" d="M 4684 3150 
L 1459 2003 
L 4684 863 
L 4684 294 
L 678 1747 
L 678 2266 
L 4684 3719 
L 4684 3150 
z
" transform="scale(0.015625)"/>
      </defs>
      <use xlink:href="#DejaVuSans-3a6" transform="translate(0 0.78125)"/>
      <use xlink:href="#DejaVuSans-3c" transform="translate(98.193359 0.78125)"/>
      <use xlink:href="#DejaVuSans-30" transform="translate(201.464844 0.78125)"/>
     </g>
    </g>
    <g id="line2d_10">
     <path d="M 73.891395 52.851282 
L 83.891395 52.851282 
L 93.891395 52.851282 
" style="fill: none; stroke-dasharray: 1.5,2.475; stroke-dashoffset: 0; stroke: #ff7f0e; stroke-width: 1.5"/>
    </g>
    <g id="text_6">
     <!-- $\Phi&gt;0$ -->
     <g transform="translate(101.891395 56.351282) scale(0.1 -0.1)">
      <defs>
       <path id="DejaVuSans-3e" d="M 678 3150 
L 678 3719 
L 4684 2266 
L 4684 1747 
L 678 294 
L 678 863 
L 3897 2003 
L 678 3150 
z
" transform="scale(0.015625)"/>
      </defs>
      <use xlink:href="#DejaVuSans-3a6" transform="translate(0 0.78125)"/>
      <use xlink:href="#DejaVuSans-3e" transform="translate(98.193359 0.78125)"/>
      <use xlink:href="#DejaVuSans-30" transform="translate(201.464844 0.78125)"/>
     </g>
    </g>
   </g>
  </g>
  <g id="axes_2">
   <g id="patch_8">
    <path d="M 194.582789 67.43097 
L 287.825579 67.43097 
L 287.825579 11.713939 
L 194.582789 11.713939 
z
" style="fill: #ffffff"/>
   </g>
   <g id="PolyCollection_3">
    <defs>
     <path id="m8e9cb27288" d="M 198.821098 -145.29971 
L 198.821098 -127.840291 
L 199.66876 -121.891632 
L 200.516421 -132.279583 
L 201.364083 -124.33331 
L 202.211745 -125.448224 
L 203.059406 -132.722167 
L 203.907068 -120.435409 
L 204.75473 -119.579399 
L 205.602392 -125.764603 
L 206.450053 -122.601552 
L 207.297715 -126.373194 
L 208.145377 -122.596637 
L 208.993039 -122.191851 
L 209.8407 -113.574584 
L 210.688362 -120.407324 
L 211.536024 -118.793766 
L 212.383685 -122.699692 
L 213.231347 -123.381824 
L 214.079009 -125.566294 
L 214.926671 -116.822582 
L 215.774332 -129.135565 
L 216.621994 -124.71526 
L 217.469656 -124.209817 
L 218.317317 -121.852999 
L 219.164979 -118.353307 
L 220.012641 -124.456628 
L 220.860303 -121.072029 
L 221.707964 -116.443021 
L 222.555626 -118.812831 
L 223.403288 -113.440824 
L 224.250949 -121.304393 
L 225.098611 -117.658895 
L 225.946273 -132.659109 
L 226.793935 -126.35322 
L 227.641596 -117.869133 
L 228.489258 -120.011849 
L 229.33692 -132.687592 
L 230.184582 -128.683276 
L 231.032243 -121.892491 
L 231.879905 -124.890175 
L 232.727567 -127.312562 
L 233.575228 -125.133387 
L 234.42289 -122.301644 
L 235.270552 -119.475098 
L 236.118214 -120.112537 
L 236.965875 -120.279126 
L 237.813537 -133.24395 
L 238.661199 -128.882336 
L 239.50886 -122.525785 
L 240.356522 -127.198442 
L 241.204184 -124.465738 
L 242.051846 -123.515622 
L 242.899507 -120.712599 
L 243.747169 -127.853855 
L 244.594831 -120.999611 
L 245.442492 -122.132053 
L 246.290154 -122.104734 
L 247.137816 -125.842815 
L 247.985478 -121.893616 
L 248.833139 -126.061301 
L 249.680801 -124.577362 
L 250.528463 -119.491249 
L 251.376125 -118.968194 
L 252.223786 -118.893981 
L 253.071448 -117.112896 
L 253.91911 -124.701678 
L 254.766771 -117.111831 
L 255.614433 -126.409677 
L 256.462095 -128.297455 
L 257.309757 -120.299912 
L 258.157418 -117.643961 
L 259.00508 -116.349721 
L 259.852742 -122.914634 
L 260.700403 -123.631047 
L 261.548065 -117.89412 
L 262.395727 -121.384109 
L 263.243389 -122.579634 
L 264.09105 -114.639519 
L 264.938712 -130.213941 
L 265.786374 -126.99601 
L 266.634035 -122.093765 
L 267.481697 -124.354507 
L 268.329359 -119.818097 
L 269.177021 -113.276356 
L 270.024682 -121.926834 
L 270.872344 -121.680228 
L 271.720006 -123.004031 
L 272.567668 -122.864625 
L 273.415329 -119.136993 
L 274.262991 -128.501599 
L 275.110653 -119.250851 
L 275.958314 -123.599252 
L 276.805976 -126.174782 
L 277.653638 -121.131496 
L 278.5013 -131.72909 
L 279.348961 -117.187172 
L 280.196623 -123.542296 
L 281.044285 -126.291367 
L 281.891946 -121.085402 
L 282.739608 -124.968447 
L 283.58727 -135.317321 
L 283.58727 -150.070105 
L 283.58727 -150.070105 
L 282.739608 -145.534633 
L 281.891946 -136.269339 
L 281.044285 -145.248106 
L 280.196623 -142.299419 
L 279.348961 -139.538011 
L 278.5013 -141.393948 
L 277.653638 -142.906497 
L 276.805976 -149.301849 
L 275.958314 -142.55984 
L 275.110653 -146.223678 
L 274.262991 -147.170757 
L 273.415329 -135.953236 
L 272.567668 -145.527567 
L 271.720006 -142.685636 
L 270.872344 -141.342341 
L 270.024682 -138.801401 
L 269.177021 -144.110207 
L 268.329359 -150.840785 
L 267.481697 -137.643061 
L 266.634035 -145.260073 
L 265.786374 -153.318094 
L 264.938712 -142.734814 
L 264.09105 -140.391074 
L 263.243389 -144.211773 
L 262.395727 -139.724051 
L 261.548065 -138.327759 
L 260.700403 -140.016905 
L 259.852742 -138.288676 
L 259.00508 -151.057867 
L 258.157418 -135.836577 
L 257.309757 -151.382365 
L 256.462095 -149.958781 
L 255.614433 -156.239923 
L 254.766771 -145.322189 
L 253.91911 -140.292148 
L 253.071448 -148.501373 
L 252.223786 -144.569268 
L 251.376125 -137.822572 
L 250.528463 -147.033954 
L 249.680801 -151.856148 
L 248.833139 -143.646714 
L 247.985478 -147.219748 
L 247.137816 -142.46094 
L 246.290154 -143.325374 
L 245.442492 -146.446536 
L 244.594831 -136.444625 
L 243.747169 -140.302402 
L 242.899507 -150.425269 
L 242.051846 -148.183027 
L 241.204184 -145.491326 
L 240.356522 -149.562938 
L 239.50886 -141.336288 
L 238.661199 -148.762183 
L 237.813537 -146.960352 
L 236.965875 -147.616337 
L 236.118214 -146.73354 
L 235.270552 -142.01602 
L 234.42289 -140.094914 
L 233.575228 -149.123253 
L 232.727567 -141.962698 
L 231.879905 -138.675656 
L 231.032243 -146.715544 
L 230.184582 -139.934746 
L 229.33692 -150.660693 
L 228.489258 -139.351658 
L 227.641596 -142.784823 
L 226.793935 -142.173739 
L 225.946273 -147.603034 
L 225.098611 -141.841448 
L 224.250949 -158.553468 
L 223.403288 -135.190707 
L 222.555626 -139.063056 
L 221.707964 -142.033065 
L 220.860303 -135.699474 
L 220.012641 -141.94437 
L 219.164979 -142.697699 
L 218.317317 -148.343723 
L 217.469656 -142.995733 
L 216.621994 -147.376301 
L 215.774332 -147.683917 
L 214.926671 -142.621012 
L 214.079009 -142.465765 
L 213.231347 -145.544995 
L 212.383685 -140.570425 
L 211.536024 -137.974257 
L 210.688362 -141.177859 
L 209.8407 -132.506906 
L 208.993039 -154.122548 
L 208.145377 -136.290703 
L 207.297715 -142.630115 
L 206.450053 -145.705499 
L 205.602392 -146.283109 
L 204.75473 -148.019534 
L 203.907068 -135.315065 
L 203.059406 -145.806154 
L 202.211745 -144.012024 
L 201.364083 -140.756493 
L 200.516421 -151.609538 
L 199.66876 -141.343136 
L 198.821098 -145.29971 
z
" style="stroke: #1f77b4; stroke-opacity: 0.2"/>
    </defs>
    <g clip-path="url(#p84f9ccdee0)">
     <use xlink:href="#m8e9cb27288" x="0" y="172.8" style="fill: #1f77b4; fill-opacity: 0.2; stroke: #1f77b4; stroke-opacity: 0.2"/>
    </g>
   </g>
   <g id="PolyCollection_4">
    <defs>
     <path id="m9c0aca24ef" d="M 198.821098 -148.975016 
L 198.821098 -115.093836 
L 199.66876 -129.361813 
L 200.516421 -126.615214 
L 201.364083 -120.644671 
L 202.211745 -117.795425 
L 203.059406 -116.590111 
L 203.907068 -123.34623 
L 204.75473 -124.870921 
L 205.602392 -127.945926 
L 206.450053 -119.798615 
L 207.297715 -119.228529 
L 208.145377 -124.778327 
L 208.993039 -125.590557 
L 209.8407 -129.760268 
L 210.688362 -116.429609 
L 211.536024 -123.104419 
L 212.383685 -124.925416 
L 213.231347 -120.559529 
L 214.079009 -114.930583 
L 214.926671 -115.384682 
L 215.774332 -127.813588 
L 216.621994 -118.556574 
L 217.469656 -126.115454 
L 218.317317 -114.744305 
L 219.164979 -120.433139 
L 220.012641 -119.378839 
L 220.860303 -123.415017 
L 221.707964 -121.011603 
L 222.555626 -116.004124 
L 223.403288 -120.455593 
L 224.250949 -120.709027 
L 225.098611 -127.320041 
L 225.946273 -122.235283 
L 226.793935 -123.257433 
L 227.641596 -126.117608 
L 228.489258 -127.703221 
L 229.33692 -130.414455 
L 230.184582 -112.336318 
L 231.032243 -117.524465 
L 231.879905 -123.290806 
L 232.727567 -122.217833 
L 233.575228 -116.404993 
L 234.42289 -123.754905 
L 235.270552 -123.034814 
L 236.118214 -107.901623 
L 236.965875 -119.845065 
L 237.813537 -130.690999 
L 238.661199 -129.190873 
L 239.50886 -127.874803 
L 240.356522 -125.10064 
L 241.204184 -125.109427 
L 242.051846 -128.975161 
L 242.899507 -121.858658 
L 243.747169 -130.835471 
L 244.594831 -120.810097 
L 245.442492 -127.977473 
L 246.290154 -136.1838 
L 247.137816 -118.117848 
L 247.985478 -125.136449 
L 248.833139 -122.206782 
L 249.680801 -126.661097 
L 250.528463 -126.411276 
L 251.376125 -124.911467 
L 252.223786 -112.629829 
L 253.071448 -130.566469 
L 253.91911 -120.86024 
L 254.766771 -118.71281 
L 255.614433 -119.78029 
L 256.462095 -118.420458 
L 257.309757 -122.79667 
L 258.157418 -126.467781 
L 259.00508 -117.593451 
L 259.852742 -123.303753 
L 260.700403 -120.559664 
L 261.548065 -131.557505 
L 262.395727 -133.938731 
L 263.243389 -124.180169 
L 264.09105 -121.093775 
L 264.938712 -120.68775 
L 265.786374 -126.5426 
L 266.634035 -126.957746 
L 267.481697 -120.773295 
L 268.329359 -125.87325 
L 269.177021 -127.677878 
L 270.024682 -122.050998 
L 270.872344 -129.193722 
L 271.720006 -128.807023 
L 272.567668 -126.918641 
L 273.415329 -124.447518 
L 274.262991 -123.114043 
L 275.110653 -127.145434 
L 275.958314 -129.482953 
L 276.805976 -120.163936 
L 277.653638 -121.009327 
L 278.5013 -120.69914 
L 279.348961 -118.759321 
L 280.196623 -122.721573 
L 281.044285 -127.832593 
L 281.891946 -117.54417 
L 282.739608 -119.919625 
L 283.58727 -124.1462 
L 283.58727 -131.80582 
L 283.58727 -131.80582 
L 282.739608 -148.315637 
L 281.891946 -138.742289 
L 281.044285 -143.260631 
L 280.196623 -139.632697 
L 279.348961 -142.18334 
L 278.5013 -146.03825 
L 277.653638 -150.416314 
L 276.805976 -141.522903 
L 275.958314 -145.398252 
L 275.110653 -144.113469 
L 274.262991 -146.835553 
L 273.415329 -143.746748 
L 272.567668 -138.957835 
L 271.720006 -153.018515 
L 270.872344 -144.261114 
L 270.024682 -144.525769 
L 269.177021 -134.800501 
L 268.329359 -138.735374 
L 267.481697 -135.448123 
L 266.634035 -144.890525 
L 265.786374 -138.145153 
L 264.938712 -143.436446 
L 264.09105 -135.060754 
L 263.243389 -141.408095 
L 262.395727 -143.365902 
L 261.548065 -141.064423 
L 260.700403 -143.205824 
L 259.852742 -144.260308 
L 259.00508 -140.044126 
L 258.157418 -144.672454 
L 257.309757 -144.771568 
L 256.462095 -144.175259 
L 255.614433 -135.480556 
L 254.766771 -146.765638 
L 253.91911 -135.274099 
L 253.071448 -148.726661 
L 252.223786 -135.817347 
L 251.376125 -147.863655 
L 250.528463 -148.909177 
L 249.680801 -143.119609 
L 248.833139 -145.97888 
L 247.985478 -147.204629 
L 247.137816 -155.94777 
L 246.290154 -144.404976 
L 245.442492 -137.716589 
L 244.594831 -139.584441 
L 243.747169 -149.263095 
L 242.899507 -135.912567 
L 242.051846 -140.053011 
L 241.204184 -139.098981 
L 240.356522 -141.54767 
L 239.50886 -150.904821 
L 238.661199 -142.410644 
L 237.813537 -147.286631 
L 236.965875 -140.4863 
L 236.118214 -146.193393 
L 235.270552 -142.198624 
L 234.42289 -141.25908 
L 233.575228 -134.42435 
L 232.727567 -143.90523 
L 231.879905 -142.569276 
L 231.032243 -137.712949 
L 230.184582 -144.807413 
L 229.33692 -146.634869 
L 228.489258 -143.136569 
L 227.641596 -139.025056 
L 226.793935 -148.306292 
L 225.946273 -144.19301 
L 225.098611 -155.08028 
L 224.250949 -136.861554 
L 223.403288 -142.434823 
L 222.555626 -148.531338 
L 221.707964 -141.565284 
L 220.860303 -143.175412 
L 220.012641 -137.385098 
L 219.164979 -135.714254 
L 218.317317 -142.12804 
L 217.469656 -147.627528 
L 216.621994 -136.01703 
L 215.774332 -148.502686 
L 214.926671 -141.616814 
L 214.079009 -139.063578 
L 213.231347 -145.991229 
L 212.383685 -140.378061 
L 211.536024 -141.238983 
L 210.688362 -144.902808 
L 209.8407 -141.055245 
L 208.993039 -135.588973 
L 208.145377 -148.944187 
L 207.297715 -142.32789 
L 206.450053 -147.894276 
L 205.602392 -152.707701 
L 204.75473 -133.837356 
L 203.907068 -138.442956 
L 203.059406 -144.383858 
L 202.211745 -145.224434 
L 201.364083 -137.553991 
L 200.516421 -139.669487 
L 199.66876 -132.207082 
L 198.821098 -148.975016 
z
" style="stroke: #ff7f0e; stroke-opacity: 0.2"/>
    </defs>
    <g clip-path="url(#p84f9ccdee0)">
     <use xlink:href="#m9c0aca24ef" x="0" y="172.8" style="fill: #ff7f0e; fill-opacity: 0.2; stroke: #ff7f0e; stroke-opacity: 0.2"/>
    </g>
   </g>
   <g id="matplotlib.axis_3">
    <g id="xtick_4">
     <g id="line2d_11">
      <g>
       <use xlink:href="#m1f9b6dd085" x="197.973436" y="67.43097" style="stroke: #000000; stroke-width: 0.8"/>
      </g>
     </g>
    </g>
    <g id="xtick_5">
     <g id="line2d_12">
      <g>
       <use xlink:href="#m1f9b6dd085" x="240.356522" y="67.43097" style="stroke: #000000; stroke-width: 0.8"/>
      </g>
     </g>
    </g>
    <g id="xtick_6">
     <g id="line2d_13">
      <g>
       <use xlink:href="#m1f9b6dd085" x="282.739608" y="67.43097" style="stroke: #000000; stroke-width: 0.8"/>
      </g>
     </g>
    </g>
   </g>
   <g id="matplotlib.axis_4">
    <g id="ytick_4">
     <g id="line2d_14">
      <g>
       <use xlink:href="#mcf55f94541" x="194.582789" y="64.413148" style="stroke: #000000; stroke-width: 0.8"/>
      </g>
     </g>
     <g id="text_7">
      <!-- −0.02 -->
      <g transform="translate(156.937477 68.212367) scale(0.1 -0.1)">
       <use xlink:href="#DejaVuSans-2212"/>
       <use xlink:href="#DejaVuSans-30" x="83.789062"/>
       <use xlink:href="#DejaVuSans-2e" x="147.412109"/>
       <use xlink:href="#DejaVuSans-30" x="179.199219"/>
       <use xlink:href="#DejaVuSans-32" x="242.822266"/>
      </g>
     </g>
    </g>
    <g id="ytick_5">
     <g id="line2d_15">
      <g>
       <use xlink:href="#mcf55f94541" x="194.582789" y="39.466631" style="stroke: #000000; stroke-width: 0.8"/>
      </g>
     </g>
     <g id="text_8">
      <!-- 0.00 -->
      <g transform="translate(165.317164 43.26585) scale(0.1 -0.1)">
       <use xlink:href="#DejaVuSans-30"/>
       <use xlink:href="#DejaVuSans-2e" x="63.623047"/>
       <use xlink:href="#DejaVuSans-30" x="95.410156"/>
       <use xlink:href="#DejaVuSans-30" x="159.033203"/>
      </g>
     </g>
    </g>
    <g id="ytick_6">
     <g id="line2d_16">
      <g>
       <use xlink:href="#mcf55f94541" x="194.582789" y="14.520114" style="stroke: #000000; stroke-width: 0.8"/>
      </g>
     </g>
     <g id="text_9">
      <!-- 0.02 -->
      <g transform="translate(165.317164 18.319333) scale(0.1 -0.1)">
       <use xlink:href="#DejaVuSans-30"/>
       <use xlink:href="#DejaVuSans-2e" x="63.623047"/>
       <use xlink:href="#DejaVuSans-30" x="95.410156"/>
       <use xlink:href="#DejaVuSans-32" x="159.033203"/>
      </g>
     </g>
    </g>
    <g id="text_10">
     <!-- $Y$ -->
     <g transform="translate(158.857789 42.672455) rotate(-90) scale(0.1 -0.1)">
      <defs>
       <path id="DejaVuSans-Oblique-59" d="M 403 4666 
L 1081 4666 
L 1953 2747 
L 3616 4666 
L 4325 4666 
L 2209 2222 
L 1778 0 
L 1147 0 
L 1575 2222 
L 403 4666 
z
" transform="scale(0.015625)"/>
      </defs>
      <use xlink:href="#DejaVuSans-Oblique-59" transform="translate(0 0.09375)"/>
     </g>
    </g>
   </g>
   <g id="line2d_17">
    <path d="M 198.821098 34.806403 
L 199.66876 40.641841 
L 200.516421 30.063157 
L 201.364083 40.639018 
L 202.211745 37.748734 
L 203.059406 35.864819 
L 203.907068 44.45613 
L 204.75473 38.868176 
L 205.602392 38.82666 
L 206.450053 40.955851 
L 207.297715 39.528669 
L 208.145377 44.254864 
L 208.993039 37.494729 
L 209.8407 48.822474 
L 210.688362 39.641264 
L 211.536024 43.890971 
L 212.383685 39.705531 
L 213.231347 42.977618 
L 214.079009 39.086086 
L 214.926671 42.528758 
L 215.774332 35.926909 
L 216.621994 38.991236 
L 217.469656 39.580018 
L 218.317317 38.429561 
L 219.164979 39.296315 
L 220.012641 41.116807 
L 220.860303 44.374279 
L 221.707964 42.349709 
L 222.555626 43.822647 
L 223.403288 45.587269 
L 224.250949 36.868703 
L 225.098611 40.160307 
L 225.946273 33.374245 
L 226.793935 40.367674 
L 227.641596 41.295889 
L 228.489258 40.331128 
L 229.33692 33.003695 
L 230.184582 37.982994 
L 231.032243 38.148771 
L 231.879905 40.369742 
L 232.727567 38.365157 
L 233.575228 37.485908 
L 234.42289 40.567012 
L 235.270552 41.884961 
L 236.118214 39.582249 
L 236.965875 40.780913 
L 237.813537 32.862345 
L 238.661199 33.828158 
L 239.50886 41.581101 
L 240.356522 35.178297 
L 241.204184 35.940818 
L 242.051846 39.330019 
L 242.899507 39.796946 
L 243.747169 38.125622 
L 244.594831 42.140149 
L 245.442492 38.215101 
L 246.290154 39.383569 
L 247.137816 37.653467 
L 247.985478 39.422826 
L 248.833139 38.842971 
L 249.680801 38.047991 
L 250.528463 40.284419 
L 251.376125 43.207049 
L 252.223786 41.217252 
L 253.071448 36.899304 
L 253.91911 40.752386 
L 254.766771 43.749632 
L 255.614433 33.991513 
L 256.462095 34.900637 
L 257.309757 38.063274 
L 258.157418 44.663569 
L 259.00508 38.930134 
L 259.852742 42.530995 
L 260.700403 40.743709 
L 261.548065 43.335898 
L 262.395727 42.361549 
L 263.243389 39.549595 
L 264.09105 45.275517 
L 264.938712 35.632815 
L 265.786374 34.739706 
L 266.634035 38.852863 
L 267.481697 40.431238 
L 268.329359 37.928734 
L 269.177021 40.852296 
L 270.024682 41.043044 
L 270.872344 40.293672 
L 271.720006 42.801474 
L 272.567668 39.442696 
L 273.415329 48.056814 
L 274.262991 35.301192 
L 275.110653 40.573428 
L 275.958314 38.642331 
L 276.805976 37.80754 
L 277.653638 39.872786 
L 278.5013 36.899456 
L 279.348961 44.802937 
L 280.196623 40.961912 
L 281.044285 36.905388 
L 281.891946 43.101743 
L 282.739608 37.500339 
L 283.58727 31.607733 
" clip-path="url(#p84f9ccdee0)" style="fill: none; stroke: #1f77b4; stroke-width: 1.5; stroke-linecap: square"/>
   </g>
   <g id="line2d_18">
    <path d="M 198.821098 40.750577 
L 199.66876 42.041734 
L 200.516421 39.891431 
L 201.364083 45.515591 
L 202.211745 41.011606 
L 203.059406 41.984995 
L 203.907068 41.251132 
L 204.75473 42.411477 
L 205.602392 33.800488 
L 206.450053 36.651893 
L 207.297715 43.868678 
L 208.145377 33.527796 
L 208.993039 42.868436 
L 209.8407 37.319227 
L 210.688362 45.199605 
L 211.536024 40.69406 
L 212.383685 42.910085 
L 213.231347 38.614421 
L 214.079009 44.227376 
L 214.926671 43.534918 
L 215.774332 35.288726 
L 216.621994 42.403955 
L 217.469656 38.23756 
L 218.317317 41.167784 
L 219.164979 43.728709 
L 220.012641 42.428475 
L 220.860303 39.038731 
L 221.707964 39.51277 
L 222.555626 38.688183 
L 223.403288 43.071339 
L 224.250949 43.852977 
L 225.098611 35.356337 
L 225.946273 38.287067 
L 226.793935 37.960036 
L 227.641596 40.660461 
L 228.489258 36.368627 
L 229.33692 33.289216 
L 230.184582 39.645044 
L 231.032243 45.02083 
L 231.879905 39.507677 
L 232.727567 39.652096 
L 233.575228 44.194987 
L 234.42289 39.839217 
L 235.270552 41.027552 
L 236.118214 45.0639 
L 236.965875 41.310902 
L 237.813537 36.106056 
L 238.661199 37.457759 
L 239.50886 34.413999 
L 240.356522 40.334024 
L 241.204184 40.894948 
L 242.051846 38.72552 
L 242.899507 43.851364 
L 243.747169 32.79967 
L 244.594831 42.837301 
L 245.442492 39.987417 
L 246.290154 33.097357 
L 247.137816 36.847296 
L 247.985478 38.217488 
L 248.833139 39.301008 
L 249.680801 37.471209 
L 250.528463 35.086058 
L 251.376125 39.413242 
L 252.223786 44.641088 
L 253.071448 34.496134 
L 253.91911 45.239916 
L 254.766771 36.991881 
L 255.614433 43.737747 
L 256.462095 40.553229 
L 257.309757 37.299202 
L 258.157418 35.875428 
L 259.00508 46.505772 
L 259.852742 37.992287 
L 260.700403 38.999554 
L 261.548065 36.439947 
L 262.395727 33.198964 
L 263.243389 39.205546 
L 264.09105 43.855967 
L 264.938712 40.425943 
L 265.786374 39.084327 
L 266.634035 36.477687 
L 267.481697 42.509461 
L 268.329359 40.313791 
L 269.177021 42.502525 
L 270.024682 40.281455 
L 270.872344 35.519174 
L 271.720006 32.529042 
L 272.567668 40.588663 
L 273.415329 36.857678 
L 274.262991 36.066725 
L 275.110653 37.660903 
L 275.958314 36.388171 
L 276.805976 41.239054 
L 277.653638 39.732513 
L 278.5013 42.432946 
L 279.348961 41.128584 
L 280.196623 42.127468 
L 281.044285 35.282439 
L 281.891946 46.262162 
L 282.739608 40.914887 
L 283.58727 45.105016 
" clip-path="url(#p84f9ccdee0)" style="fill: none; stroke-dasharray: 1.5,2.475; stroke-dashoffset: 0; stroke: #ff7f0e; stroke-width: 1.5"/>
   </g>
   <g id="patch_9">
    <path d="M 194.582789 67.43097 
L 194.582789 11.713939 
" style="fill: none; stroke: #000000; stroke-width: 0.8; stroke-linejoin: miter; stroke-linecap: square"/>
   </g>
   <g id="patch_10">
    <path d="M 287.825579 67.43097 
L 287.825579 11.713939 
" style="fill: none; stroke: #000000; stroke-width: 0.8; stroke-linejoin: miter; stroke-linecap: square"/>
   </g>
   <g id="patch_11">
    <path d="M 194.582789 67.43097 
L 287.825579 67.43097 
" style="fill: none; stroke: #000000; stroke-width: 0.8; stroke-linejoin: miter; stroke-linecap: square"/>
   </g>
   <g id="patch_12">
    <path d="M 194.582789 11.713939 
L 287.825579 11.713939 
" style="fill: none; stroke: #000000; stroke-width: 0.8; stroke-linejoin: miter; stroke-linecap: square"/>
   </g>
  </g>
  <g id="axes_3">
   <g id="patch_13">
    <path d="M 54.57 129.648 
L 147.812789 129.648 
L 147.812789 73.93097 
L 54.57 73.93097 
z
" style="fill: #ffffff"/>
   </g>
   <g id="PolyCollection_5">
    <defs>
     <path id="m1ff528989e" d="M 58.808309 -63.371529 
L 58.808309 -63.371529 
L 59.65597 -63.020667 
L 60.503632 -61.673963 
L 61.351294 -60.650559 
L 62.198955 -54.139419 
L 63.046617 -62.672831 
L 63.894279 -61.56786 
L 64.741941 -60.994517 
L 65.589602 -62.210378 
L 66.437264 -62.322344 
L 67.284926 -60.814245 
L 68.132588 -61.668699 
L 68.980249 -61.479931 
L 69.827911 -61.462518 
L 70.675573 -62.465753 
L 71.523234 -61.694674 
L 72.370896 -59.868788 
L 73.218558 -62.201576 
L 74.06622 -63.09428 
L 74.913881 -62.327185 
L 75.761543 -60.375518 
L 76.609205 -61.571228 
L 77.456866 -60.457826 
L 78.304528 -61.886334 
L 79.15219 -61.084725 
L 79.999852 -61.59003 
L 80.847513 -62.536384 
L 81.695175 -62.446991 
L 82.542837 -62.289175 
L 83.390498 -61.489939 
L 84.23816 -63.023152 
L 85.085822 -62.428507 
L 85.933484 -61.166835 
L 86.781145 -60.058501 
L 87.628807 -60.841066 
L 88.476469 -61.779814 
L 89.324131 -61.288777 
L 90.171792 -61.889411 
L 91.019454 -60.143403 
L 91.867116 -60.513088 
L 92.714777 -60.498376 
L 93.562439 -62.537291 
L 94.410101 -61.722897 
L 95.257763 -62.464344 
L 96.105424 -60.819568 
L 96.953086 -59.301117 
L 97.800748 -61.942602 
L 98.648409 -60.556368 
L 99.496071 -60.86513 
L 100.343733 -60.93879 
L 101.191395 -61.68368 
L 102.039056 -61.089311 
L 102.886718 -60.979678 
L 103.73438 -54.538696 
L 104.582042 -61.777276 
L 105.429703 -61.331126 
L 106.277365 -61.151151 
L 107.125027 -61.984635 
L 107.972688 -60.445713 
L 108.82035 -62.266814 
L 109.668012 -60.791097 
L 110.515674 -61.420643 
L 111.363335 -60.948489 
L 112.210997 -61.567762 
L 113.058659 -55.68013 
L 113.90632 -60.706096 
L 114.753982 -61.284559 
L 115.601644 -62.588599 
L 116.449306 -61.011797 
L 117.296967 -61.149633 
L 118.144629 -63.001439 
L 118.992291 -61.838712 
L 119.839952 -61.102429 
L 120.687614 -61.067876 
L 121.535276 -60.692799 
L 122.382938 -62.016367 
L 123.230599 -62.341752 
L 124.078261 -61.012068 
L 124.925923 -62.576121 
L 125.773585 -61.297718 
L 126.621246 -61.443123 
L 127.468908 -60.241406 
L 128.31657 -61.83077 
L 129.164231 -63.016389 
L 130.011893 -61.800305 
L 130.859555 -62.250735 
L 131.707217 -62.806579 
L 132.554878 -61.17481 
L 133.40254 -62.69906 
L 134.250202 -59.985271 
L 135.097863 -60.142826 
L 135.945525 -63.092306 
L 136.793187 -62.101994 
L 137.640849 -59.700262 
L 138.48851 -61.321581 
L 139.336172 -61.405458 
L 140.183834 -62.338974 
L 141.031495 -61.057515 
L 141.879157 -62.027577 
L 142.726819 -62.384693 
L 143.574481 -61.431712 
L 143.574481 -64.797213 
L 143.574481 -64.797213 
L 142.726819 -64.657534 
L 141.879157 -65.26729 
L 141.031495 -64.83713 
L 140.183834 -63.996126 
L 139.336172 -65.962999 
L 138.48851 -63.715961 
L 137.640849 -65.25499 
L 136.793187 -64.924492 
L 135.945525 -66.007361 
L 135.097863 -64.064049 
L 134.250202 -64.319557 
L 133.40254 -65.64901 
L 132.554878 -65.200533 
L 131.707217 -65.553656 
L 130.859555 -63.93883 
L 130.011893 -65.769679 
L 129.164231 -66.293865 
L 128.31657 -65.516568 
L 127.468908 -64.518024 
L 126.621246 -65.682 
L 125.773585 -64.339393 
L 124.925923 -66.476193 
L 124.078261 -65.545723 
L 123.230599 -65.207494 
L 122.382938 -65.010812 
L 121.535276 -64.71021 
L 120.687614 -65.86261 
L 119.839952 -65.121772 
L 118.992291 -64.360031 
L 118.144629 -66.042174 
L 117.296967 -65.268772 
L 116.449306 -66.132747 
L 115.601644 -65.605069 
L 114.753982 -63.392756 
L 113.90632 -64.408669 
L 113.058659 -64.852327 
L 112.210997 -64.013494 
L 111.363335 -65.544512 
L 110.515674 -64.393322 
L 109.668012 -64.675548 
L 108.82035 -65.857829 
L 107.972688 -65.27646 
L 107.125027 -64.69349 
L 106.277365 -65.218262 
L 105.429703 -64.537018 
L 104.582042 -64.166867 
L 103.73438 -64.282581 
L 102.886718 -64.43941 
L 102.039056 -64.480326 
L 101.191395 -65.552213 
L 100.343733 -65.146692 
L 99.496071 -65.805763 
L 98.648409 -65.19779 
L 97.800748 -65.42338 
L 96.953086 -66.2344 
L 96.105424 -64.365877 
L 95.257763 -65.021706 
L 94.410101 -66.8452 
L 93.562439 -64.725709 
L 92.714777 -63.607192 
L 91.867116 -63.64985 
L 91.019454 -64.418193 
L 90.171792 -65.521586 
L 89.324131 -64.424037 
L 88.476469 -64.676032 
L 87.628807 -65.872807 
L 86.781145 -63.624435 
L 85.933484 -64.774252 
L 85.085822 -66.53136 
L 84.23816 -66.435237 
L 83.390498 -64.613653 
L 82.542837 -65.321212 
L 81.695175 -66.344617 
L 80.847513 -64.755395 
L 79.999852 -66.005756 
L 79.15219 -65.468813 
L 78.304528 -64.910533 
L 77.456866 -63.717979 
L 76.609205 -64.501811 
L 75.761543 -63.99292 
L 74.913881 -65.618509 
L 74.06622 -65.331265 
L 73.218558 -65.417317 
L 72.370896 -65.62443 
L 71.523234 -66.113336 
L 70.675573 -64.616453 
L 69.827911 -65.275532 
L 68.980249 -65.386179 
L 68.132588 -64.811266 
L 67.284926 -64.714501 
L 66.437264 -67.42233 
L 65.589602 -65.917415 
L 64.741941 -64.499542 
L 63.894279 -70.154494 
L 63.046617 -64.572835 
L 62.198955 -65.341913 
L 61.351294 -64.803304 
L 60.503632 -66.094489 
L 59.65597 -65.245575 
L 58.808309 -63.371529 
z
" style="stroke: #1f77b4; stroke-opacity: 0.2"/>
    </defs>
    <g clip-path="url(#p0017ec62aa)">
     <use xlink:href="#m1ff528989e" x="0" y="172.8" style="fill: #1f77b4; fill-opacity: 0.2; stroke: #1f77b4; stroke-opacity: 0.2"/>
    </g>
   </g>
   <g id="PolyCollection_6">
    <defs>
     <path id="mb62655e55d" d="M 58.808309 -63.371529 
L 58.808309 -63.371529 
L 59.65597 -60.577657 
L 60.503632 -62.980986 
L 61.351294 -62.157171 
L 62.198955 -61.33285 
L 63.046617 -62.340245 
L 63.894279 -60.840167 
L 64.741941 -61.735902 
L 65.589602 -60.481505 
L 66.437264 -62.145007 
L 67.284926 -61.543337 
L 68.132588 -60.550015 
L 68.980249 -61.2724 
L 69.827911 -61.098814 
L 70.675573 -61.879681 
L 71.523234 -62.547614 
L 72.370896 -61.167804 
L 73.218558 -61.146865 
L 74.06622 -61.254355 
L 74.913881 -61.132734 
L 75.761543 -60.607028 
L 76.609205 -61.368996 
L 77.456866 -62.169242 
L 78.304528 -61.286942 
L 79.15219 -61.910791 
L 79.999852 -63.094074 
L 80.847513 -60.846935 
L 81.695175 -61.351542 
L 82.542837 -61.973211 
L 83.390498 -60.741506 
L 84.23816 -57.7052 
L 85.085822 -61.739234 
L 85.933484 -62.259839 
L 86.781145 -62.565595 
L 87.628807 -61.624101 
L 88.476469 -61.217759 
L 89.324131 -61.029187 
L 90.171792 -61.687787 
L 91.019454 -63.165453 
L 91.867116 -62.052888 
L 92.714777 -61.857559 
L 93.562439 -61.689732 
L 94.410101 -61.407767 
L 95.257763 -62.480025 
L 96.105424 -63.523177 
L 96.953086 -62.418748 
L 97.800748 -60.87752 
L 98.648409 -61.74971 
L 99.496071 -62.846901 
L 100.343733 -62.435934 
L 101.191395 -63.082362 
L 102.039056 -62.334689 
L 102.886718 -61.559722 
L 103.73438 -62.508444 
L 104.582042 -61.575234 
L 105.429703 -60.986496 
L 106.277365 -45.684592 
L 107.125027 -62.459686 
L 107.972688 -62.518778 
L 108.82035 -61.154559 
L 109.668012 -61.803197 
L 110.515674 -61.880272 
L 111.363335 -61.803418 
L 112.210997 -61.698798 
L 113.058659 -61.644127 
L 113.90632 -57.588597 
L 114.753982 -61.486095 
L 115.601644 -61.071743 
L 116.449306 -62.811618 
L 117.296967 -61.88717 
L 118.144629 -64.034476 
L 118.992291 -61.965332 
L 119.839952 -61.879231 
L 120.687614 -63.261106 
L 121.535276 -62.139008 
L 122.382938 -61.779633 
L 123.230599 -61.755784 
L 124.078261 -61.376306 
L 124.925923 -62.923242 
L 125.773585 -63.526907 
L 126.621246 -61.455896 
L 127.468908 -61.916037 
L 128.31657 -61.543751 
L 129.164231 -62.499363 
L 130.011893 -61.142143 
L 130.859555 -61.511708 
L 131.707217 -61.029736 
L 132.554878 -62.308879 
L 133.40254 -59.195414 
L 134.250202 -63.297272 
L 135.097863 -62.20272 
L 135.945525 -62.442496 
L 136.793187 -61.3904 
L 137.640849 -61.653464 
L 138.48851 -62.681802 
L 139.336172 -60.909357 
L 140.183834 -62.315158 
L 141.031495 -61.366125 
L 141.879157 -62.411293 
L 142.726819 -60.833117 
L 143.574481 -61.16846 
L 143.574481 -65.710845 
L 143.574481 -65.710845 
L 142.726819 -65.485848 
L 141.879157 -64.761165 
L 141.031495 -63.84979 
L 140.183834 -65.619975 
L 139.336172 -65.065999 
L 138.48851 -66.991812 
L 137.640849 -64.017111 
L 136.793187 -69.194055 
L 135.945525 -64.164097 
L 135.097863 -68.29168 
L 134.250202 -66.039237 
L 133.40254 -64.560747 
L 132.554878 -96.336438 
L 131.707217 -64.399891 
L 130.859555 -64.951723 
L 130.011893 -64.512383 
L 129.164231 -65.105523 
L 128.31657 -64.658135 
L 127.468908 -64.944438 
L 126.621246 -65.427351 
L 125.773585 -65.333097 
L 124.925923 -65.705787 
L 124.078261 -63.850506 
L 123.230599 -65.165467 
L 122.382938 -63.722093 
L 121.535276 -65.416782 
L 120.687614 -66.695669 
L 119.839952 -63.853022 
L 118.992291 -65.664907 
L 118.144629 -65.313728 
L 117.296967 -65.579919 
L 116.449306 -64.318889 
L 115.601644 -65.107187 
L 114.753982 -65.296535 
L 113.90632 -64.757111 
L 113.058659 -64.982088 
L 112.210997 -64.936582 
L 111.363335 -64.29591 
L 110.515674 -65.810773 
L 109.668012 -65.45499 
L 108.82035 -63.786842 
L 107.972688 -64.184289 
L 107.125027 -64.572678 
L 106.277365 -64.35181 
L 105.429703 -63.306719 
L 104.582042 -64.959042 
L 103.73438 -65.026087 
L 102.886718 -65.57089 
L 102.039056 -65.094345 
L 101.191395 -64.986058 
L 100.343733 -66.024156 
L 99.496071 -65.994234 
L 98.648409 -66.508409 
L 97.800748 -65.130914 
L 96.953086 -64.974047 
L 96.105424 -65.44002 
L 95.257763 -65.321613 
L 94.410101 -67.611583 
L 93.562439 -64.628952 
L 92.714777 -65.212205 
L 91.867116 -65.057631 
L 91.019454 -66.015815 
L 90.171792 -64.556691 
L 89.324131 -65.658325 
L 88.476469 -64.83345 
L 87.628807 -64.577406 
L 86.781145 -64.094228 
L 85.933484 -64.483967 
L 85.085822 -64.623133 
L 84.23816 -64.866081 
L 83.390498 -63.797037 
L 82.542837 -65.440132 
L 81.695175 -65.640292 
L 80.847513 -65.996902 
L 79.999852 -69.902594 
L 79.15219 -64.710696 
L 78.304528 -65.368283 
L 77.456866 -66.385037 
L 76.609205 -65.146697 
L 75.761543 -64.158848 
L 74.913881 -65.608229 
L 74.06622 -65.86194 
L 73.218558 -65.179834 
L 72.370896 -64.578258 
L 71.523234 -64.781369 
L 70.675573 -63.374982 
L 69.827911 -64.525525 
L 68.980249 -64.735922 
L 68.132588 -64.876308 
L 67.284926 -63.996578 
L 66.437264 -66.278545 
L 65.589602 -64.901236 
L 64.741941 -63.988487 
L 63.894279 -63.929235 
L 63.046617 -66.566822 
L 62.198955 -64.615119 
L 61.351294 -65.271441 
L 60.503632 -65.875587 
L 59.65597 -65.332004 
L 58.808309 -63.371529 
z
" style="stroke: #ff7f0e; stroke-opacity: 0.2"/>
    </defs>
    <g clip-path="url(#p0017ec62aa)">
     <use xlink:href="#mb62655e55d" x="0" y="172.8" style="fill: #ff7f0e; fill-opacity: 0.2; stroke: #ff7f0e; stroke-opacity: 0.2"/>
    </g>
   </g>
   <g id="matplotlib.axis_5">
    <g id="xtick_7">
     <g id="line2d_19">
      <g>
       <use xlink:href="#m1f9b6dd085" x="57.960647" y="129.648" style="stroke: #000000; stroke-width: 0.8"/>
      </g>
     </g>
     <g id="text_11">
      <!-- 0 -->
      <g transform="translate(54.779397 144.246437) scale(0.1 -0.1)">
       <use xlink:href="#DejaVuSans-30"/>
      </g>
     </g>
    </g>
    <g id="xtick_8">
     <g id="line2d_20">
      <g>
       <use xlink:href="#m1f9b6dd085" x="100.343733" y="129.648" style="stroke: #000000; stroke-width: 0.8"/>
      </g>
     </g>
     <g id="text_12">
      <!-- 50 -->
      <g transform="translate(93.981233 144.246437) scale(0.1 -0.1)">
       <defs>
        <path id="DejaVuSans-35" d="M 691 4666 
L 3169 4666 
L 3169 4134 
L 1269 4134 
L 1269 2991 
Q 1406 3038 1543 3061 
Q 1681 3084 1819 3084 
Q 2600 3084 3056 2656 
Q 3513 2228 3513 1497 
Q 3513 744 3044 326 
Q 2575 -91 1722 -91 
Q 1428 -91 1123 -41 
Q 819 9 494 109 
L 494 744 
Q 775 591 1075 516 
Q 1375 441 1709 441 
Q 2250 441 2565 725 
Q 2881 1009 2881 1497 
Q 2881 1984 2565 2268 
Q 2250 2553 1709 2553 
Q 1456 2553 1204 2497 
Q 953 2441 691 2322 
L 691 4666 
z
" transform="scale(0.015625)"/>
       </defs>
       <use xlink:href="#DejaVuSans-35"/>
       <use xlink:href="#DejaVuSans-30" x="63.623047"/>
      </g>
     </g>
    </g>
    <g id="xtick_9">
     <g id="line2d_21">
      <g>
       <use xlink:href="#m1f9b6dd085" x="142.726819" y="129.648" style="stroke: #000000; stroke-width: 0.8"/>
      </g>
     </g>
     <g id="text_13">
      <!-- 100 -->
      <g transform="translate(133.183069 144.246437) scale(0.1 -0.1)">
       <defs>
        <path id="DejaVuSans-31" d="M 794 531 
L 1825 531 
L 1825 4091 
L 703 3866 
L 703 4441 
L 1819 4666 
L 2450 4666 
L 2450 531 
L 3481 531 
L 3481 0 
L 794 0 
L 794 531 
z
" transform="scale(0.015625)"/>
       </defs>
       <use xlink:href="#DejaVuSans-31"/>
       <use xlink:href="#DejaVuSans-30" x="63.623047"/>
       <use xlink:href="#DejaVuSans-30" x="127.246094"/>
      </g>
     </g>
    </g>
    <g id="text_14">
     <!-- time (units of $\omega_\mathrm{r}^{-1}$) -->
     <g transform="translate(54.391395 154.326125) scale(0.1 -0.1)">
      <defs>
       <path id="DejaVuSans-74" d="M 1172 4494 
L 1172 3500 
L 2356 3500 
L 2356 3053 
L 1172 3053 
L 1172 1153 
Q 1172 725 1289 603 
Q 1406 481 1766 481 
L 2356 481 
L 2356 0 
L 1766 0 
Q 1100 0 847 248 
Q 594 497 594 1153 
L 594 3053 
L 172 3053 
L 172 3500 
L 594 3500 
L 594 4494 
L 1172 4494 
z
" transform="scale(0.015625)"/>
       <path id="DejaVuSans-69" d="M 603 3500 
L 1178 3500 
L 1178 0 
L 603 0 
L 603 3500 
z
M 603 4863 
L 1178 4863 
L 1178 4134 
L 603 4134 
L 603 4863 
z
" transform="scale(0.015625)"/>
       <path id="DejaVuSans-6d" d="M 3328 2828 
Q 3544 3216 3844 3400 
Q 4144 3584 4550 3584 
Q 5097 3584 5394 3201 
Q 5691 2819 5691 2113 
L 5691 0 
L 5113 0 
L 5113 2094 
Q 5113 2597 4934 2840 
Q 4756 3084 4391 3084 
Q 3944 3084 3684 2787 
Q 3425 2491 3425 1978 
L 3425 0 
L 2847 0 
L 2847 2094 
Q 2847 2600 2669 2842 
Q 2491 3084 2119 3084 
Q 1678 3084 1418 2786 
Q 1159 2488 1159 1978 
L 1159 0 
L 581 0 
L 581 3500 
L 1159 3500 
L 1159 2956 
Q 1356 3278 1631 3431 
Q 1906 3584 2284 3584 
Q 2666 3584 2933 3390 
Q 3200 3197 3328 2828 
z
" transform="scale(0.015625)"/>
       <path id="DejaVuSans-65" d="M 3597 1894 
L 3597 1613 
L 953 1613 
Q 991 1019 1311 708 
Q 1631 397 2203 397 
Q 2534 397 2845 478 
Q 3156 559 3463 722 
L 3463 178 
Q 3153 47 2828 -22 
Q 2503 -91 2169 -91 
Q 1331 -91 842 396 
Q 353 884 353 1716 
Q 353 2575 817 3079 
Q 1281 3584 2069 3584 
Q 2775 3584 3186 3129 
Q 3597 2675 3597 1894 
z
M 3022 2063 
Q 3016 2534 2758 2815 
Q 2500 3097 2075 3097 
Q 1594 3097 1305 2825 
Q 1016 2553 972 2059 
L 3022 2063 
z
" transform="scale(0.015625)"/>
       <path id="DejaVuSans-20" transform="scale(0.015625)"/>
       <path id="DejaVuSans-28" d="M 1984 4856 
Q 1566 4138 1362 3434 
Q 1159 2731 1159 2009 
Q 1159 1288 1364 580 
Q 1569 -128 1984 -844 
L 1484 -844 
Q 1016 -109 783 600 
Q 550 1309 550 2009 
Q 550 2706 781 3412 
Q 1013 4119 1484 4856 
L 1984 4856 
z
" transform="scale(0.015625)"/>
       <path id="DejaVuSans-75" d="M 544 1381 
L 544 3500 
L 1119 3500 
L 1119 1403 
Q 1119 906 1312 657 
Q 1506 409 1894 409 
Q 2359 409 2629 706 
Q 2900 1003 2900 1516 
L 2900 3500 
L 3475 3500 
L 3475 0 
L 2900 0 
L 2900 538 
Q 2691 219 2414 64 
Q 2138 -91 1772 -91 
Q 1169 -91 856 284 
Q 544 659 544 1381 
z
M 1991 3584 
L 1991 3584 
z
" transform="scale(0.015625)"/>
       <path id="DejaVuSans-6e" d="M 3513 2113 
L 3513 0 
L 2938 0 
L 2938 2094 
Q 2938 2591 2744 2837 
Q 2550 3084 2163 3084 
Q 1697 3084 1428 2787 
Q 1159 2491 1159 1978 
L 1159 0 
L 581 0 
L 581 3500 
L 1159 3500 
L 1159 2956 
Q 1366 3272 1645 3428 
Q 1925 3584 2291 3584 
Q 2894 3584 3203 3211 
Q 3513 2838 3513 2113 
z
" transform="scale(0.015625)"/>
       <path id="DejaVuSans-73" d="M 2834 3397 
L 2834 2853 
Q 2591 2978 2328 3040 
Q 2066 3103 1784 3103 
Q 1356 3103 1142 2972 
Q 928 2841 928 2578 
Q 928 2378 1081 2264 
Q 1234 2150 1697 2047 
L 1894 2003 
Q 2506 1872 2764 1633 
Q 3022 1394 3022 966 
Q 3022 478 2636 193 
Q 2250 -91 1575 -91 
Q 1294 -91 989 -36 
Q 684 19 347 128 
L 347 722 
Q 666 556 975 473 
Q 1284 391 1588 391 
Q 1994 391 2212 530 
Q 2431 669 2431 922 
Q 2431 1156 2273 1281 
Q 2116 1406 1581 1522 
L 1381 1569 
Q 847 1681 609 1914 
Q 372 2147 372 2553 
Q 372 3047 722 3315 
Q 1072 3584 1716 3584 
Q 2034 3584 2315 3537 
Q 2597 3491 2834 3397 
z
" transform="scale(0.015625)"/>
       <path id="DejaVuSans-6f" d="M 1959 3097 
Q 1497 3097 1228 2736 
Q 959 2375 959 1747 
Q 959 1119 1226 758 
Q 1494 397 1959 397 
Q 2419 397 2687 759 
Q 2956 1122 2956 1747 
Q 2956 2369 2687 2733 
Q 2419 3097 1959 3097 
z
M 1959 3584 
Q 2709 3584 3137 3096 
Q 3566 2609 3566 1747 
Q 3566 888 3137 398 
Q 2709 -91 1959 -91 
Q 1206 -91 779 398 
Q 353 888 353 1747 
Q 353 2609 779 3096 
Q 1206 3584 1959 3584 
z
" transform="scale(0.015625)"/>
       <path id="DejaVuSans-66" d="M 2375 4863 
L 2375 4384 
L 1825 4384 
Q 1516 4384 1395 4259 
Q 1275 4134 1275 3809 
L 1275 3500 
L 2222 3500 
L 2222 3053 
L 1275 3053 
L 1275 0 
L 697 0 
L 697 3053 
L 147 3053 
L 147 3500 
L 697 3500 
L 697 3744 
Q 697 4328 969 4595 
Q 1241 4863 1831 4863 
L 2375 4863 
z
" transform="scale(0.015625)"/>
       <path id="DejaVuSans-Oblique-3c9" d="M 1369 -91 
Q 72 -91 434 1766 
Q 575 2500 1256 3500 
L 1875 3500 
Q 1231 2500 1088 1750 
Q 819 397 1519 397 
Q 2166 397 2478 2078 
L 3009 2078 
Q 2669 388 3316 397 
Q 4013 403 4275 1750 
Q 4419 2500 4169 3500 
L 4788 3500 
Q 5075 2500 4934 1766 
Q 4578 -94 3278 -91 
Q 2428 -88 2503 844 
Q 2194 -91 1369 -91 
z
" transform="scale(0.015625)"/>
       <path id="DejaVuSans-72" d="M 2631 2963 
Q 2534 3019 2420 3045 
Q 2306 3072 2169 3072 
Q 1681 3072 1420 2755 
Q 1159 2438 1159 1844 
L 1159 0 
L 581 0 
L 581 3500 
L 1159 3500 
L 1159 2956 
Q 1341 3275 1631 3429 
Q 1922 3584 2338 3584 
Q 2397 3584 2469 3576 
Q 2541 3569 2628 3553 
L 2631 2963 
z
" transform="scale(0.015625)"/>
       <path id="DejaVuSans-29" d="M 513 4856 
L 1013 4856 
Q 1481 4119 1714 3412 
Q 1947 2706 1947 2009 
Q 1947 1309 1714 600 
Q 1481 -109 1013 -844 
L 513 -844 
Q 928 -128 1133 580 
Q 1338 1288 1338 2009 
Q 1338 2731 1133 3434 
Q 928 4138 513 4856 
z
" transform="scale(0.015625)"/>
      </defs>
      <use xlink:href="#DejaVuSans-74" transform="translate(0 0.684375)"/>
      <use xlink:href="#DejaVuSans-69" transform="translate(39.208984 0.684375)"/>
      <use xlink:href="#DejaVuSans-6d" transform="translate(66.992188 0.684375)"/>
      <use xlink:href="#DejaVuSans-65" transform="translate(164.404297 0.684375)"/>
      <use xlink:href="#DejaVuSans-20" transform="translate(225.927734 0.684375)"/>
      <use xlink:href="#DejaVuSans-28" transform="translate(257.714844 0.684375)"/>
      <use xlink:href="#DejaVuSans-75" transform="translate(296.728516 0.684375)"/>
      <use xlink:href="#DejaVuSans-6e" transform="translate(360.107422 0.684375)"/>
      <use xlink:href="#DejaVuSans-69" transform="translate(423.486328 0.684375)"/>
      <use xlink:href="#DejaVuSans-74" transform="translate(451.269531 0.684375)"/>
      <use xlink:href="#DejaVuSans-73" transform="translate(490.478516 0.684375)"/>
      <use xlink:href="#DejaVuSans-20" transform="translate(542.578125 0.684375)"/>
      <use xlink:href="#DejaVuSans-6f" transform="translate(574.365234 0.684375)"/>
      <use xlink:href="#DejaVuSans-66" transform="translate(635.546875 0.684375)"/>
      <use xlink:href="#DejaVuSans-20" transform="translate(670.751953 0.684375)"/>
      <use xlink:href="#DejaVuSans-Oblique-3c9" transform="translate(702.539062 0.684375)"/>
      <use xlink:href="#DejaVuSans-2212" transform="translate(790.745443 38.965625) scale(0.7)"/>
      <use xlink:href="#DejaVuSans-31" transform="translate(849.397786 38.965625) scale(0.7)"/>
      <use xlink:href="#DejaVuSans-72" transform="translate(786.279297 -26.659375) scale(0.7)"/>
      <use xlink:href="#DejaVuSans-29" transform="translate(896.668294 0.684375)"/>
     </g>
    </g>
   </g>
   <g id="matplotlib.axis_6">
    <g id="ytick_7">
     <g id="line2d_22">
      <g>
       <use xlink:href="#mcf55f94541" x="54.57" y="109.428471" style="stroke: #000000; stroke-width: 0.8"/>
      </g>
     </g>
     <g id="text_15">
      <!-- 0 -->
      <g transform="translate(41.2075 113.227689) scale(0.1 -0.1)">
       <use xlink:href="#DejaVuSans-30"/>
      </g>
     </g>
    </g>
    <g id="ytick_8">
     <g id="line2d_23">
      <g>
       <use xlink:href="#mcf55f94541" x="54.57" y="78.947829" style="stroke: #000000; stroke-width: 0.8"/>
      </g>
     </g>
     <g id="text_16">
      <!-- 20 -->
      <g transform="translate(34.845 82.747048) scale(0.1 -0.1)">
       <use xlink:href="#DejaVuSans-32"/>
       <use xlink:href="#DejaVuSans-30" x="63.623047"/>
      </g>
     </g>
    </g>
    <g id="text_17">
     <!-- $\langle \hat{a}_{\mathrm{r}} \rangle$ -->
     <g transform="translate(36.765313 110.389485) rotate(-90) scale(0.1 -0.1)">
      <defs>
       <path id="DejaVuSans-27e8" d="M 572 2006 
L 1453 4856 
L 1984 4856 
L 1103 2006 
L 1984 -844 
L 1453 -844 
L 572 2006 
z
" transform="scale(0.015625)"/>
       <path id="DejaVuSans-302" d="M -1831 5119 
L -1369 5119 
L -603 3944 
L -1038 3944 
L -1600 4709 
L -2163 3944 
L -2597 3944 
L -1831 5119 
z
M -1600 3584 
L -1600 3584 
z
" transform="scale(0.015625)"/>
       <path id="DejaVuSans-Oblique-61" d="M 3438 1997 
L 3047 0 
L 2472 0 
L 2578 531 
Q 2325 219 2001 64 
Q 1678 -91 1281 -91 
Q 834 -91 548 182 
Q 263 456 263 884 
Q 263 1497 752 1853 
Q 1241 2209 2100 2209 
L 2900 2209 
L 2931 2363 
Q 2938 2388 2941 2417 
Q 2944 2447 2944 2509 
Q 2944 2788 2717 2942 
Q 2491 3097 2081 3097 
Q 1800 3097 1504 3025 
Q 1209 2953 897 2809 
L 997 3341 
Q 1322 3463 1633 3523 
Q 1944 3584 2234 3584 
Q 2853 3584 3176 3315 
Q 3500 3047 3500 2534 
Q 3500 2431 3484 2292 
Q 3469 2153 3438 1997 
z
M 2816 1759 
L 2241 1759 
Q 1534 1759 1195 1570 
Q 856 1381 856 984 
Q 856 709 1029 553 
Q 1203 397 1509 397 
Q 1978 397 2328 733 
Q 2678 1069 2791 1631 
L 2816 1759 
z
" transform="scale(0.015625)"/>
       <path id="DejaVuSans-27e9" d="M 1925 2006 
L 1044 -844 
L 513 -844 
L 1394 2006 
L 513 4856 
L 1044 4856 
L 1925 2006 
z
" transform="scale(0.015625)"/>
      </defs>
      <use xlink:href="#DejaVuSans-27e8" transform="translate(0 0.515625)"/>
      <use xlink:href="#DejaVuSans-302" transform="translate(101.911621 13.015625)"/>
      <use xlink:href="#DejaVuSans-Oblique-61" transform="translate(39.013672 0.515625)"/>
      <use xlink:href="#DejaVuSans-72" transform="translate(101.25 -15.890625) scale(0.7)"/>
      <use xlink:href="#DejaVuSans-27e9" transform="translate(132.763672 0.515625)"/>
     </g>
    </g>
   </g>
   <g id="line2d_24">
    <path d="M 58.808309 109.428471 
L 59.65597 108.526254 
L 60.503632 108.629798 
L 61.351294 110.067857 
L 62.198955 110.945508 
L 63.046617 109.109194 
L 63.894279 107.954519 
L 64.741941 109.986509 
L 65.589602 109.178706 
L 66.437264 108.230298 
L 67.284926 109.753076 
L 68.132588 109.426384 
L 68.980249 109.535642 
L 69.827911 109.012173 
L 70.675573 109.307351 
L 71.523234 109.191442 
L 72.370896 109.684753 
L 73.218558 108.811993 
L 74.06622 108.598257 
L 74.913881 108.688721 
L 75.761543 109.912348 
L 76.609205 109.585172 
L 77.456866 110.381542 
L 78.304528 109.477308 
L 79.15219 109.571222 
L 79.999852 108.673487 
L 80.847513 109.139835 
L 81.695175 108.793452 
L 82.542837 108.867889 
L 83.390498 109.218957 
L 84.23816 108.128926 
L 85.085822 108.540101 
L 85.933484 109.533668 
L 86.781145 111.164596 
L 87.628807 109.649377 
L 88.476469 109.701626 
L 89.324131 109.907303 
L 90.171792 109.028762 
L 91.019454 110.365253 
L 91.867116 110.565548 
L 92.714777 110.838675 
L 93.562439 108.951036 
L 94.410101 108.035153 
L 95.257763 108.857715 
L 96.105424 110.308596 
L 96.953086 109.955996 
L 97.800748 109.010491 
L 98.648409 109.50289 
L 99.496071 109.590875 
L 100.343733 109.747893 
L 101.191395 109.286793 
L 102.039056 109.918893 
L 102.886718 109.732516 
L 103.73438 110.957346 
L 104.582042 109.506838 
L 105.429703 109.639278 
L 106.277365 109.753331 
L 107.125027 109.470322 
L 107.972688 109.690967 
L 108.82035 108.762484 
L 109.668012 109.887305 
L 110.515674 109.679569 
L 111.363335 109.130948 
L 112.210997 109.522308 
L 113.058659 110.772605 
L 113.90632 110.428985 
L 114.753982 110.42034 
L 115.601644 108.967682 
L 116.449306 109.082041 
L 117.296967 109.358859 
L 118.144629 108.762368 
L 118.992291 109.378962 
L 119.839952 110.149782 
L 120.687614 108.791263 
L 121.535276 109.430661 
L 122.382938 109.314427 
L 123.230599 109.320876 
L 124.078261 109.840203 
L 124.925923 108.825181 
L 125.773585 109.824423 
L 126.621246 109.378513 
L 127.468908 109.981378 
L 128.31657 108.944929 
L 129.164231 108.59442 
L 130.011893 108.881817 
L 130.859555 109.859827 
L 131.707217 108.858575 
L 132.554878 109.766235 
L 133.40254 108.851463 
L 134.250202 110.388019 
L 135.097863 110.545814 
L 135.945525 108.331754 
L 136.793187 109.464914 
L 137.640849 110.104 
L 138.48851 110.475407 
L 139.336172 109.306106 
L 140.183834 109.616447 
L 141.031495 109.808684 
L 141.879157 109.649205 
L 142.726819 109.44449 
L 143.574481 109.72081 
" clip-path="url(#p0017ec62aa)" style="fill: none; stroke: #1f77b4; stroke-width: 1.5; stroke-linecap: square"/>
   </g>
   <g id="line2d_25">
    <path d="M 58.808309 109.428471 
L 59.65597 109.982793 
L 60.503632 108.658896 
L 61.351294 109.206411 
L 62.198955 109.792505 
L 63.046617 108.377181 
L 63.894279 110.65051 
L 64.741941 109.679886 
L 65.589602 109.818216 
L 66.437264 108.801822 
L 67.284926 109.995332 
L 68.132588 109.963076 
L 68.980249 109.962474 
L 69.827911 109.630785 
L 70.675573 110.339036 
L 71.523234 109.316668 
L 72.370896 110.09355 
L 73.218558 110.03686 
L 74.06622 108.860819 
L 74.913881 109.153901 
L 75.761543 110.149655 
L 76.609205 109.419801 
L 77.456866 108.966598 
L 78.304528 109.689852 
L 79.15219 109.203332 
L 79.999852 107.498956 
L 80.847513 109.427008 
L 81.695175 109.834954 
L 82.542837 109.188671 
L 83.390498 110.521009 
L 84.23816 110.44214 
L 85.085822 109.407608 
L 85.933484 109.302868 
L 86.781145 109.676875 
L 87.628807 109.656301 
L 88.476469 109.568197 
L 89.324131 109.175953 
L 90.171792 109.427656 
L 91.019454 108.53875 
L 91.867116 109.666472 
L 92.714777 109.056592 
L 93.562439 109.518547 
L 94.410101 108.887915 
L 95.257763 109.040919 
L 96.105424 108.320585 
L 96.953086 109.379625 
L 97.800748 109.585653 
L 98.648409 108.565372 
L 99.496071 108.748528 
L 100.343733 108.821818 
L 101.191395 108.52281 
L 102.039056 109.131636 
L 102.886718 109.389364 
L 103.73438 109.071932 
L 104.582042 109.610561 
L 105.429703 110.574174 
L 106.277365 113.066619 
L 107.125027 109.372399 
L 107.972688 109.729755 
L 108.82035 110.057767 
L 109.668012 108.719283 
L 110.515674 108.747436 
L 111.363335 109.602386 
L 112.210997 109.213424 
L 113.058659 109.315282 
L 113.90632 110.581239 
L 114.753982 109.545088 
L 115.601644 109.080861 
L 116.449306 109.408201 
L 117.296967 109.510475 
L 118.144629 108.097901 
L 118.992291 108.926295 
L 119.839952 109.703783 
L 120.687614 107.711426 
L 121.535276 109.337433 
L 122.382938 109.79175 
L 123.230599 109.727586 
L 124.078261 110.038444 
L 124.925923 108.296316 
L 125.773585 108.245281 
L 126.621246 109.352961 
L 127.468908 108.898049 
L 128.31657 109.923391 
L 129.164231 109.035872 
L 130.011893 109.806045 
L 130.859555 109.658385 
L 131.707217 109.870049 
L 132.554878 101.816489 
L 133.40254 110.509707 
L 134.250202 108.464067 
L 135.097863 108.299129 
L 135.945525 109.415676 
L 136.793187 108.389158 
L 137.640849 109.941532 
L 138.48851 108.104456 
L 139.336172 109.617493 
L 140.183834 109.147632 
L 141.031495 110.252024 
L 141.879157 109.012113 
L 142.726819 109.039486 
L 143.574481 109.808576 
" clip-path="url(#p0017ec62aa)" style="fill: none; stroke-dasharray: 1.5,2.475; stroke-dashoffset: 0; stroke: #ff7f0e; stroke-width: 1.5"/>
   </g>
   <g id="patch_14">
    <path d="M 54.57 129.648 
L 54.57 73.93097 
" style="fill: none; stroke: #000000; stroke-width: 0.8; stroke-linejoin: miter; stroke-linecap: square"/>
   </g>
   <g id="patch_15">
    <path d="M 147.812789 129.648 
L 147.812789 73.93097 
" style="fill: none; stroke: #000000; stroke-width: 0.8; stroke-linejoin: miter; stroke-linecap: square"/>
   </g>
   <g id="patch_16">
    <path d="M 54.57 129.648 
L 147.812789 129.648 
" style="fill: none; stroke: #000000; stroke-width: 0.8; stroke-linejoin: miter; stroke-linecap: square"/>
   </g>
   <g id="patch_17">
    <path d="M 54.57 73.93097 
L 147.812789 73.93097 
" style="fill: none; stroke: #000000; stroke-width: 0.8; stroke-linejoin: miter; stroke-linecap: square"/>
   </g>
  </g>
  <g id="axes_4">
   <g id="patch_18">
    <path d="M 194.582789 129.648 
L 287.825579 129.648 
L 287.825579 73.93097 
L 194.582789 73.93097 
z
" style="fill: #ffffff"/>
   </g>
   <g id="PolyCollection_7">
    <defs>
     <path id="m2c9ed7cff4" d="M 198.821098 -63.371529 
L 198.821098 -63.371529 
L 199.66876 -64.547457 
L 200.516421 -65.928729 
L 201.364083 -65.137485 
L 202.211745 -70.574534 
L 203.059406 -63.800345 
L 203.907068 -65.316305 
L 204.75473 -65.29171 
L 205.602392 -65.363926 
L 206.450053 -67.337593 
L 207.297715 -64.70072 
L 208.145377 -66.837243 
L 208.993039 -65.723612 
L 209.8407 -64.029261 
L 210.688362 -65.145994 
L 211.536024 -66.399217 
L 212.383685 -64.973234 
L 213.231347 -64.937769 
L 214.079009 -63.999439 
L 214.926671 -64.866684 
L 215.774332 -64.343311 
L 216.621994 -65.949009 
L 217.469656 -64.707082 
L 218.317317 -63.831442 
L 219.164979 -63.233967 
L 220.012641 -63.439373 
L 220.860303 -66.182574 
L 221.707964 -64.623927 
L 222.555626 -65.83039 
L 223.403288 -65.072287 
L 224.250949 -65.682379 
L 225.098611 -66.04888 
L 225.946273 -67.492983 
L 226.793935 -64.217844 
L 227.641596 -63.937003 
L 228.489258 -64.832861 
L 229.33692 -64.627041 
L 230.184582 -64.472985 
L 231.032243 -66.32045 
L 231.879905 -64.857033 
L 232.727567 -63.817066 
L 233.575228 -66.349537 
L 234.42289 -64.245882 
L 235.270552 -64.792722 
L 236.118214 -65.752616 
L 236.965875 -64.86692 
L 237.813537 -65.204287 
L 238.661199 -64.456423 
L 239.50886 -66.192797 
L 240.356522 -65.42389 
L 241.204184 -65.732791 
L 242.051846 -65.31675 
L 242.899507 -65.480712 
L 243.747169 -65.527955 
L 244.594831 -64.46502 
L 245.442492 -65.471656 
L 246.290154 -65.640666 
L 247.137816 -64.546195 
L 247.985478 -65.127766 
L 248.833139 -65.41219 
L 249.680801 -68.128549 
L 250.528463 -66.640077 
L 251.376125 -65.678569 
L 252.223786 -65.719914 
L 253.071448 -71.971593 
L 253.91911 -63.870158 
L 254.766771 -66.120542 
L 255.614433 -63.793867 
L 256.462095 -65.418051 
L 257.309757 -64.639331 
L 258.157418 -64.526775 
L 259.00508 -64.968962 
L 259.852742 -66.870848 
L 260.700403 -65.468175 
L 261.548065 -66.027568 
L 262.395727 -64.979491 
L 263.243389 -64.99203 
L 264.09105 -64.479771 
L 264.938712 -64.941197 
L 265.786374 -64.718593 
L 266.634035 -66.862769 
L 267.481697 -63.677918 
L 268.329359 -65.683641 
L 269.177021 -66.016744 
L 270.024682 -65.210151 
L 270.872344 -64.586213 
L 271.720006 -65.34346 
L 272.567668 -64.785947 
L 273.415329 -64.892013 
L 274.262991 -65.41619 
L 275.110653 -66.335315 
L 275.958314 -65.422766 
L 276.805976 -65.903397 
L 277.653638 -65.622668 
L 278.5013 -65.216748 
L 279.348961 -64.66568 
L 280.196623 -64.779013 
L 281.044285 -64.920154 
L 281.891946 -65.05027 
L 282.739608 -65.287474 
L 283.58727 -65.152722 
L 283.58727 -60.24997 
L 283.58727 -60.24997 
L 282.739608 -62.309574 
L 281.891946 -62.479777 
L 281.044285 -62.025922 
L 280.196623 -61.812276 
L 279.348961 -61.655761 
L 278.5013 -62.342355 
L 277.653638 -61.771329 
L 276.805976 -62.395762 
L 275.958314 -61.000329 
L 275.110653 -62.140581 
L 274.262991 -61.749755 
L 273.415329 -60.961449 
L 272.567668 -61.31555 
L 271.720006 -61.02905 
L 270.872344 -60.914491 
L 270.024682 -60.31947 
L 269.177021 -59.462558 
L 268.329359 -61.320227 
L 267.481697 -61.03332 
L 266.634035 -60.40862 
L 265.786374 -61.497792 
L 264.938712 -62.651931 
L 264.09105 -62.207963 
L 263.243389 -59.88803 
L 262.395727 -62.045512 
L 261.548065 -61.88908 
L 260.700403 -62.544804 
L 259.852742 -61.467234 
L 259.00508 -60.866555 
L 258.157418 -61.977224 
L 257.309757 -62.106885 
L 256.462095 -61.425068 
L 255.614433 -62.29464 
L 254.766771 -61.735459 
L 253.91911 -59.823299 
L 253.071448 -61.720249 
L 252.223786 -60.733757 
L 251.376125 -61.959349 
L 250.528463 -62.776593 
L 249.680801 -62.329247 
L 248.833139 -62.155789 
L 247.985478 -61.934018 
L 247.137816 -60.570984 
L 246.290154 -61.524092 
L 245.442492 -62.378458 
L 244.594831 -62.085645 
L 243.747169 -60.508233 
L 242.899507 -60.236722 
L 242.051846 -61.547083 
L 241.204184 -61.729902 
L 240.356522 -61.63374 
L 239.50886 -59.889371 
L 238.661199 -61.138909 
L 237.813537 -62.109698 
L 236.965875 -61.037629 
L 236.118214 -62.905897 
L 235.270552 -62.049389 
L 234.42289 -60.281747 
L 233.575228 -60.453772 
L 232.727567 -59.096673 
L 231.879905 -60.88897 
L 231.032243 -61.238804 
L 230.184582 -61.112008 
L 229.33692 -62.144826 
L 228.489258 -60.833709 
L 227.641596 -61.309154 
L 226.793935 -60.964607 
L 225.946273 -61.181437 
L 225.098611 -60.288411 
L 224.250949 -60.472009 
L 223.403288 -62.309164 
L 222.555626 -61.088161 
L 221.707964 -61.645499 
L 220.860303 -60.458179 
L 220.012641 -60.926919 
L 219.164979 -60.196565 
L 218.317317 -61.91813 
L 217.469656 -62.187626 
L 216.621994 -62.14068 
L 215.774332 -62.526114 
L 214.926671 -61.877317 
L 214.079009 -60.912668 
L 213.231347 -61.937462 
L 212.383685 -61.58411 
L 211.536024 -61.813137 
L 210.688362 -62.651784 
L 209.8407 -58.100318 
L 208.993039 -62.156439 
L 208.145377 -62.065992 
L 207.297715 -60.596198 
L 206.450053 -62.06642 
L 205.602392 -60.787022 
L 204.75473 -61.123031 
L 203.907068 -61.916381 
L 203.059406 -61.434479 
L 202.211745 -60.608599 
L 201.364083 -61.404209 
L 200.516421 -62.138858 
L 199.66876 -60.432807 
L 198.821098 -63.371529 
z
" style="stroke: #1f77b4; stroke-opacity: 0.2"/>
    </defs>
    <g clip-path="url(#pdef656e893)">
     <use xlink:href="#m2c9ed7cff4" x="0" y="172.8" style="fill: #1f77b4; fill-opacity: 0.2; stroke: #1f77b4; stroke-opacity: 0.2"/>
    </g>
   </g>
   <g id="PolyCollection_8">
    <defs>
     <path id="mfc620f182a" d="M 198.821098 -63.371529 
L 198.821098 -63.371529 
L 199.66876 -64.411044 
L 200.516421 -65.078352 
L 201.364083 -63.526524 
L 202.211745 -67.316367 
L 203.059406 -67.546096 
L 203.907068 -64.246172 
L 204.75473 -65.785257 
L 205.602392 -63.778927 
L 206.450053 -64.879768 
L 207.297715 -64.256079 
L 208.145377 -65.523133 
L 208.993039 -64.965284 
L 209.8407 -66.533736 
L 210.688362 -64.447255 
L 211.536024 -64.615745 
L 212.383685 -65.521676 
L 213.231347 -66.520033 
L 214.079009 -64.383203 
L 214.926671 -67.469751 
L 215.774332 -65.169079 
L 216.621994 -64.234214 
L 217.469656 -64.12029 
L 218.317317 -65.408991 
L 219.164979 -63.845896 
L 220.012641 -68.939968 
L 220.860303 -64.963832 
L 221.707964 -65.987683 
L 222.555626 -64.538222 
L 223.403288 -63.505123 
L 224.250949 -64.82726 
L 225.098611 -64.752388 
L 225.946273 -65.512503 
L 226.793935 -64.793877 
L 227.641596 -64.543037 
L 228.489258 -65.905045 
L 229.33692 -66.331586 
L 230.184582 -64.461841 
L 231.032243 -65.635041 
L 231.879905 -62.437635 
L 232.727567 -64.831826 
L 233.575228 -65.607037 
L 234.42289 -65.876062 
L 235.270552 -64.785573 
L 236.118214 -64.091861 
L 236.965875 -65.136063 
L 237.813537 -65.665332 
L 238.661199 -65.472549 
L 239.50886 -63.277222 
L 240.356522 -64.644126 
L 241.204184 -64.584933 
L 242.051846 -64.45061 
L 242.899507 -64.25898 
L 243.747169 -66.67188 
L 244.594831 -64.054349 
L 245.442492 -65.139813 
L 246.290154 -65.04207 
L 247.137816 -65.746583 
L 247.985478 -64.886546 
L 248.833139 -64.401091 
L 249.680801 -66.01545 
L 250.528463 -64.642023 
L 251.376125 -65.762151 
L 252.223786 -64.674328 
L 253.071448 -65.792642 
L 253.91911 -72.395968 
L 254.766771 -64.576935 
L 255.614433 -64.975768 
L 256.462095 -63.405777 
L 257.309757 -65.498546 
L 258.157418 -65.762173 
L 259.00508 -64.825561 
L 259.852742 -65.942636 
L 260.700403 -66.794969 
L 261.548065 -64.842119 
L 262.395727 -63.954772 
L 263.243389 -64.983698 
L 264.09105 -63.845626 
L 264.938712 -64.795235 
L 265.786374 -65.161501 
L 266.634035 -65.047952 
L 267.481697 -66.736815 
L 268.329359 -65.227886 
L 269.177021 -65.378856 
L 270.024682 -64.970247 
L 270.872344 -64.935112 
L 271.720006 -64.090273 
L 272.567668 -83.139201 
L 273.415329 -65.098005 
L 274.262991 -64.425975 
L 275.110653 -64.633953 
L 275.958314 -65.124343 
L 276.805976 -67.623873 
L 277.653638 -65.513553 
L 278.5013 -63.94641 
L 279.348961 -66.142407 
L 280.196623 -64.843229 
L 281.044285 -65.402795 
L 281.891946 -64.884954 
L 282.739608 -63.558936 
L 283.58727 -65.289885 
L 283.58727 -61.068927 
L 283.58727 -61.068927 
L 282.739608 -60.678744 
L 281.891946 -58.940671 
L 281.044285 -59.45245 
L 280.196623 -61.401144 
L 279.348961 -62.335961 
L 278.5013 -60.709098 
L 277.653638 -60.631983 
L 276.805976 -61.759179 
L 275.958314 -63.175852 
L 275.110653 -62.159008 
L 274.262991 -56.99385 
L 273.415329 -59.922818 
L 272.567668 -61.627678 
L 271.720006 -60.360008 
L 270.872344 -62.50242 
L 270.024682 -61.540395 
L 269.177021 -62.110828 
L 268.329359 -63.833187 
L 267.481697 -61.319524 
L 266.634035 -61.337092 
L 265.786374 -62.771207 
L 264.938712 -61.947363 
L 264.09105 -61.414161 
L 263.243389 -61.981279 
L 262.395727 -62.055766 
L 261.548065 -62.57581 
L 260.700403 -60.635749 
L 259.852742 -61.334006 
L 259.00508 -61.357483 
L 258.157418 -61.857828 
L 257.309757 -61.860783 
L 256.462095 -61.598216 
L 255.614433 -61.614206 
L 254.766771 -62.450106 
L 253.91911 -60.63364 
L 253.071448 -62.181234 
L 252.223786 -62.000034 
L 251.376125 -62.12643 
L 250.528463 -61.952375 
L 249.680801 -59.517663 
L 248.833139 -61.058821 
L 247.985478 -61.802943 
L 247.137816 -63.191828 
L 246.290154 -57.023183 
L 245.442492 -62.052385 
L 244.594831 -62.857063 
L 243.747169 -60.044456 
L 242.899507 -61.623612 
L 242.051846 -61.834061 
L 241.204184 -61.563762 
L 240.356522 -61.933438 
L 239.50886 -60.619509 
L 238.661199 -62.125056 
L 237.813537 -60.998464 
L 236.965875 -62.692901 
L 236.118214 -58.452618 
L 235.270552 -60.217414 
L 234.42289 -60.812954 
L 233.575228 -62.252973 
L 232.727567 -62.766999 
L 231.879905 -60.699973 
L 231.032243 -63.128659 
L 230.184582 -60.015587 
L 229.33692 -59.158399 
L 228.489258 -62.456491 
L 227.641596 -62.157183 
L 226.793935 -62.43722 
L 225.946273 -61.252279 
L 225.098611 -59.974927 
L 224.250949 -60.719742 
L 223.403288 -61.289345 
L 222.555626 -61.136846 
L 221.707964 -60.879201 
L 220.860303 -62.221793 
L 220.012641 -60.969877 
L 219.164979 -60.578315 
L 218.317317 -61.267126 
L 217.469656 -60.861226 
L 216.621994 -61.331631 
L 215.774332 -61.631723 
L 214.926671 -61.866932 
L 214.079009 -60.461522 
L 213.231347 -61.19911 
L 212.383685 -61.728329 
L 211.536024 -62.107551 
L 210.688362 -61.728462 
L 209.8407 -62.676298 
L 208.993039 -60.753905 
L 208.145377 -61.277909 
L 207.297715 -61.877634 
L 206.450053 -62.10821 
L 205.602392 -60.364294 
L 204.75473 -61.925833 
L 203.907068 -61.076406 
L 203.059406 -61.347219 
L 202.211745 -61.201053 
L 201.364083 -61.376254 
L 200.516421 -61.613204 
L 199.66876 -61.563797 
L 198.821098 -63.371529 
z
" style="stroke: #ff7f0e; stroke-opacity: 0.2"/>
    </defs>
    <g clip-path="url(#pdef656e893)">
     <use xlink:href="#mfc620f182a" x="0" y="172.8" style="fill: #ff7f0e; fill-opacity: 0.2; stroke: #ff7f0e; stroke-opacity: 0.2"/>
    </g>
   </g>
   <g id="matplotlib.axis_7">
    <g id="xtick_10">
     <g id="line2d_26">
      <g>
       <use xlink:href="#m1f9b6dd085" x="197.973436" y="129.648" style="stroke: #000000; stroke-width: 0.8"/>
      </g>
     </g>
     <g id="text_18">
      <!-- 0 -->
      <g transform="translate(194.792186 144.246437) scale(0.1 -0.1)">
       <use xlink:href="#DejaVuSans-30"/>
      </g>
     </g>
    </g>
    <g id="xtick_11">
     <g id="line2d_27">
      <g>
       <use xlink:href="#m1f9b6dd085" x="240.356522" y="129.648" style="stroke: #000000; stroke-width: 0.8"/>
      </g>
     </g>
     <g id="text_19">
      <!-- 50 -->
      <g transform="translate(233.994022 144.246437) scale(0.1 -0.1)">
       <use xlink:href="#DejaVuSans-35"/>
       <use xlink:href="#DejaVuSans-30" x="63.623047"/>
      </g>
     </g>
    </g>
    <g id="xtick_12">
     <g id="line2d_28">
      <g>
       <use xlink:href="#m1f9b6dd085" x="282.739608" y="129.648" style="stroke: #000000; stroke-width: 0.8"/>
      </g>
     </g>
     <g id="text_20">
      <!-- 100 -->
      <g transform="translate(273.195858 144.246437) scale(0.1 -0.1)">
       <use xlink:href="#DejaVuSans-31"/>
       <use xlink:href="#DejaVuSans-30" x="63.623047"/>
       <use xlink:href="#DejaVuSans-30" x="127.246094"/>
      </g>
     </g>
    </g>
    <g id="text_21">
     <!-- time (units of $\omega_\mathrm{r}^{-1}$) -->
     <g transform="translate(194.404184 154.326125) scale(0.1 -0.1)">
      <use xlink:href="#DejaVuSans-74" transform="translate(0 0.684375)"/>
      <use xlink:href="#DejaVuSans-69" transform="translate(39.208984 0.684375)"/>
      <use xlink:href="#DejaVuSans-6d" transform="translate(66.992188 0.684375)"/>
      <use xlink:href="#DejaVuSans-65" transform="translate(164.404297 0.684375)"/>
      <use xlink:href="#DejaVuSans-20" transform="translate(225.927734 0.684375)"/>
      <use xlink:href="#DejaVuSans-28" transform="translate(257.714844 0.684375)"/>
      <use xlink:href="#DejaVuSans-75" transform="translate(296.728516 0.684375)"/>
      <use xlink:href="#DejaVuSans-6e" transform="translate(360.107422 0.684375)"/>
      <use xlink:href="#DejaVuSans-69" transform="translate(423.486328 0.684375)"/>
      <use xlink:href="#DejaVuSans-74" transform="translate(451.269531 0.684375)"/>
      <use xlink:href="#DejaVuSans-73" transform="translate(490.478516 0.684375)"/>
      <use xlink:href="#DejaVuSans-20" transform="translate(542.578125 0.684375)"/>
      <use xlink:href="#DejaVuSans-6f" transform="translate(574.365234 0.684375)"/>
      <use xlink:href="#DejaVuSans-66" transform="translate(635.546875 0.684375)"/>
      <use xlink:href="#DejaVuSans-20" transform="translate(670.751953 0.684375)"/>
      <use xlink:href="#DejaVuSans-Oblique-3c9" transform="translate(702.539062 0.684375)"/>
      <use xlink:href="#DejaVuSans-2212" transform="translate(790.745443 38.965625) scale(0.7)"/>
      <use xlink:href="#DejaVuSans-31" transform="translate(849.397786 38.965625) scale(0.7)"/>
      <use xlink:href="#DejaVuSans-72" transform="translate(786.279297 -26.659375) scale(0.7)"/>
      <use xlink:href="#DejaVuSans-29" transform="translate(896.668294 0.684375)"/>
     </g>
    </g>
   </g>
   <g id="matplotlib.axis_8">
    <g id="ytick_9">
     <g id="line2d_29">
      <g>
       <use xlink:href="#mcf55f94541" x="194.582789" y="109.428471" style="stroke: #000000; stroke-width: 0.8"/>
      </g>
     </g>
     <g id="text_22">
      <!-- 0 -->
      <g transform="translate(181.220289 113.227689) scale(0.1 -0.1)">
       <use xlink:href="#DejaVuSans-30"/>
      </g>
     </g>
    </g>
    <g id="ytick_10">
     <g id="line2d_30">
      <g>
       <use xlink:href="#mcf55f94541" x="194.582789" y="78.947829" style="stroke: #000000; stroke-width: 0.8"/>
      </g>
     </g>
     <g id="text_23">
      <!-- 20 -->
      <g transform="translate(174.857789 82.747048) scale(0.1 -0.1)">
       <use xlink:href="#DejaVuSans-32"/>
       <use xlink:href="#DejaVuSans-30" x="63.623047"/>
      </g>
     </g>
    </g>
    <g id="text_24">
     <!-- $\langle \hat{a}_{\mathrm{i}} \rangle$ -->
     <g transform="translate(176.778102 109.939485) rotate(-90) scale(0.1 -0.1)">
      <use xlink:href="#DejaVuSans-27e8" transform="translate(0 0.515625)"/>
      <use xlink:href="#DejaVuSans-302" transform="translate(101.911621 13.015625)"/>
      <use xlink:href="#DejaVuSans-Oblique-61" transform="translate(39.013672 0.515625)"/>
      <use xlink:href="#DejaVuSans-69" transform="translate(101.25 -15.890625) scale(0.7)"/>
      <use xlink:href="#DejaVuSans-27e9" transform="translate(123.432617 0.515625)"/>
     </g>
    </g>
   </g>
   <g id="line2d_31">
    <path d="M 198.821098 109.428471 
L 199.66876 110.151124 
L 200.516421 108.661848 
L 201.364083 109.480712 
L 202.211745 108.663384 
L 203.059406 110.23412 
L 203.907068 108.963591 
L 204.75473 109.549466 
L 205.602392 109.383299 
L 206.450053 109.008858 
L 207.297715 110.129048 
L 208.145377 108.275774 
L 208.993039 108.720954 
L 209.8407 110.805029 
L 210.688362 109.064485 
L 211.536024 108.659674 
L 212.383685 109.578714 
L 213.231347 109.706387 
L 214.079009 110.001477 
L 214.926671 109.317828 
L 215.774332 109.410449 
L 216.621994 109.129003 
L 217.469656 109.25304 
L 218.317317 109.99212 
L 219.164979 110.84716 
L 220.012641 110.340591 
L 220.860303 109.535734 
L 221.707964 109.330229 
L 222.555626 109.631407 
L 223.403288 109.021035 
L 224.250949 110.082672 
L 225.098611 109.40264 
L 225.946273 108.59216 
L 226.793935 110.044187 
L 227.641596 109.825981 
L 228.489258 110.052533 
L 229.33692 109.365416 
L 230.184582 109.949255 
L 231.032243 109.028274 
L 231.879905 110.231542 
L 232.727567 110.610143 
L 233.575228 109.392849 
L 234.42289 110.525964 
L 235.270552 109.181605 
L 236.118214 108.238032 
L 236.965875 109.848872 
L 237.813537 109.290246 
L 238.661199 109.679874 
L 239.50886 109.449818 
L 240.356522 109.169335 
L 241.204184 109.045411 
L 242.051846 109.13399 
L 242.899507 109.316386 
L 243.747169 109.31869 
L 244.594831 109.322705 
L 245.442492 108.943629 
L 246.290154 108.848769 
L 247.137816 109.927836 
L 247.985478 109.527145 
L 248.833139 109.434212 
L 249.680801 108.046717 
L 250.528463 108.028524 
L 251.376125 109.252792 
L 252.223786 110.185614 
L 253.071448 108.125419 
L 253.91911 110.695967 
L 254.766771 108.47885 
L 255.614433 109.51582 
L 256.462095 109.483306 
L 257.309757 109.185979 
L 258.157418 109.437955 
L 259.00508 110.091685 
L 259.852742 108.797562 
L 260.700403 108.909299 
L 261.548065 109.017925 
L 262.395727 109.22337 
L 263.243389 110.702505 
L 264.09105 109.281569 
L 264.938712 109.046074 
L 265.786374 109.758566 
L 266.634035 109.736533 
L 267.481697 110.292543 
L 268.329359 109.916932 
L 269.177021 109.551905 
L 270.024682 109.40671 
L 270.872344 109.673729 
L 271.720006 109.41287 
L 272.567668 109.734243 
L 273.415329 110.054847 
L 274.262991 109.445153 
L 275.110653 108.945869 
L 275.958314 109.553761 
L 276.805976 108.693261 
L 277.653638 109.112649 
L 278.5013 109.310165 
L 279.348961 109.926402 
L 280.196623 109.535492 
L 281.044285 109.638838 
L 281.891946 109.151434 
L 282.739608 108.753234 
L 283.58727 110.008014 
" clip-path="url(#pdef656e893)" style="fill: none; stroke: #1f77b4; stroke-width: 1.5; stroke-linecap: square"/>
   </g>
   <g id="line2d_32">
    <path d="M 198.821098 109.428471 
L 199.66876 110.094633 
L 200.516421 109.675434 
L 201.364083 109.95703 
L 202.211745 109.207718 
L 203.059406 108.429668 
L 203.907068 110.372235 
L 204.75473 108.909904 
L 205.602392 110.112512 
L 206.450053 109.575472 
L 207.297715 109.32023 
L 208.145377 109.4342 
L 208.993039 109.797413 
L 209.8407 108.318571 
L 210.688362 109.743976 
L 211.536024 109.287782 
L 212.383685 109.770607 
L 213.231347 109.150694 
L 214.079009 110.563054 
L 214.926671 108.671244 
L 215.774332 109.676331 
L 216.621994 110.006344 
L 217.469656 109.911043 
L 218.317317 109.112145 
L 219.164979 110.615565 
L 220.012641 108.599343 
L 220.860303 108.967526 
L 221.707964 109.555314 
L 222.555626 109.890199 
L 223.403288 110.34088 
L 224.250949 110.130609 
L 225.098611 110.170788 
L 225.946273 109.191002 
L 226.793935 109.150483 
L 227.641596 109.492613 
L 228.489258 109.047046 
L 229.33692 109.892144 
L 230.184582 109.886214 
L 231.032243 108.289425 
L 231.879905 111.187593 
L 232.727567 109.094517 
L 233.575228 109.348485 
L 234.42289 108.987745 
L 235.270552 109.439261 
L 236.118214 110.938948 
L 236.965875 108.79938 
L 237.813537 109.674946 
L 238.661199 109.249023 
L 239.50886 110.534146 
L 240.356522 109.85592 
L 241.204184 109.529978 
L 242.051846 109.672151 
L 242.899507 109.448876 
L 243.747169 109.581448 
L 244.594831 109.289591 
L 245.442492 109.29826 
L 246.290154 110.671634 
L 247.137816 108.419622 
L 247.985478 109.493796 
L 248.833139 110.246988 
L 249.680801 109.552195 
L 250.528463 109.234776 
L 251.376125 109.044243 
L 252.223786 109.404144 
L 253.071448 109.047879 
L 253.91911 108.186523 
L 254.766771 109.330161 
L 255.614433 109.986846 
L 256.462095 110.235081 
L 257.309757 109.339883 
L 258.157418 109.34479 
L 259.00508 109.694924 
L 259.852742 109.045213 
L 260.700403 108.151663 
L 261.548065 109.228778 
L 262.395727 110.03984 
L 263.243389 109.211569 
L 264.09105 110.217978 
L 264.938712 109.335059 
L 265.786374 109.091366 
L 266.634035 109.821158 
L 267.481697 109.258926 
L 268.329359 107.950142 
L 269.177021 109.454843 
L 270.024682 109.702764 
L 270.872344 108.76474 
L 271.720006 110.06698 
L 272.567668 105.4701 
L 273.415329 110.820884 
L 274.262991 111.193231 
L 275.110653 109.349736 
L 275.958314 108.310954 
L 276.805976 107.822568 
L 277.653638 109.816963 
L 278.5013 110.38008 
L 279.348961 108.026432 
L 280.196623 109.804858 
L 281.044285 109.429406 
L 281.891946 110.076811 
L 282.739608 110.747405 
L 283.58727 109.669622 
" clip-path="url(#pdef656e893)" style="fill: none; stroke-dasharray: 1.5,2.475; stroke-dashoffset: 0; stroke: #ff7f0e; stroke-width: 1.5"/>
   </g>
   <g id="patch_19">
    <path d="M 194.582789 129.648 
L 194.582789 73.93097 
" style="fill: none; stroke: #000000; stroke-width: 0.8; stroke-linejoin: miter; stroke-linecap: square"/>
   </g>
   <g id="patch_20">
    <path d="M 287.825579 129.648 
L 287.825579 73.93097 
" style="fill: none; stroke: #000000; stroke-width: 0.8; stroke-linejoin: miter; stroke-linecap: square"/>
   </g>
   <g id="patch_21">
    <path d="M 194.582789 129.648 
L 287.825579 129.648 
" style="fill: none; stroke: #000000; stroke-width: 0.8; stroke-linejoin: miter; stroke-linecap: square"/>
   </g>
   <g id="patch_22">
    <path d="M 194.582789 73.93097 
L 287.825579 73.93097 
" style="fill: none; stroke: #000000; stroke-width: 0.8; stroke-linejoin: miter; stroke-linecap: square"/>
   </g>
  </g>
 </g>
 <defs>
  <clipPath id="p06cab94be1">
   <rect x="54.57" y="11.713939" width="93.242789" height="55.71703"/>
  </clipPath>
  <clipPath id="p84f9ccdee0">
   <rect x="194.582789" y="11.713939" width="93.242789" height="55.71703"/>
  </clipPath>
  <clipPath id="p0017ec62aa">
   <rect x="54.57" y="73.93097" width="93.242789" height="55.71703"/>
  </clipPath>
  <clipPath id="pdef656e893">
   <rect x="194.582789" y="73.93097" width="93.242789" height="55.71703"/>
  </clipPath>
 </defs>
</svg>
